<?xml version="1.0" encoding="UTF-8"?>
<svg width="515px" height="500px" viewBox="0 0 515 500" version="1.1" xmlns="http://www.w3.org/2000/svg" xmlns:xlink="http://www.w3.org/1999/xlink">
    <title>Artboard</title>
    <g id="Artboard" stroke="none" stroke-width="1" fill="none" fill-rule="evenodd">
        <path d="M488.482355,361 C505.859531,326.758696 514.943055,289.075362 515,250.855072 C515.267466,121.407246 413.063718,11.8405797 281,0 L281,238.050725 L488.482355,361 Z M25.8732649,141 C8.88690404,174.960575 0.0281231141,212.263563 -1.25055521e-12,250.075479 C0.0843693422,379.054138 101.721304,488.060843 233,500 L233,264.242912 L25.8732649,141 Z" id="Shape" fill="#007DF6" fill-rule="nonzero"></path>
        <path d="M279.558824,294.117647 L279.558824,500 C349.695622,493.401382 413.854309,457.443694 456.029412,401.089035 L279.558824,294.117647 Z" id="Path" fill="#007DF6"></path>
        <path d="M235.441176,205.882353 L235.441176,-8.52651283e-13 C165.152737,6.62781242 100.928344,42.7351586 58.9705882,99.2138791 L235.441176,205.882353 Z" id="Path" fill="#007DF6"></path>
    </g>
</svg>