<svg height="38" viewBox="0 0 174 38" width="174" xmlns="http://www.w3.org/2000/svg"><g fill="none"><path d="m19.9610632 27.1808172c-1.3360905 0-2.6034357-.3039974-3.6084658-.8517615l-.6832142.289473-.6536424.2763705c-.9961434.4118642-2.151024.8333266-3.162183.8333266-.3175258 0-.6193209-.0407801-.8966005-.1202582-.6767789-.1951149-1.22413676-.6155109-1.71219796-1.1217839-.8398575.3026262-1.63977529.6467435-2.38402264.9667381-1.30508871.5612728-2.3361665 1.0043188-3.10681901 1.0043188-.78776223 0-1.13174424-.4540663-1.26657906-.7243934-.39102099-.7858429-.6821927-2.8359716.20409088-4.9933069.39383004-.9578508 1.11386842-2.1293021 2.42682249-3.1030993-.44740645-.9021907-.72075341-1.9739009.19760452-3.0038152.89767303-1.0074674 2.99558028-1.9107246 5.32781408-2.814642.1331494-.554874.44567-1.1288938 1.0407308-1.7128166 1.5296091-1.499927 5.0110544-3.09918889 8.3544472-3.00980777 3.1682097.08232205 6.3550103 1.74364287 7.8645985 3.34219387.3485275.3690018.5943457.7262216.761357 1.0696279 2.2820283.7655798 4.4993972 1.6911823 5.4716379 2.8551683.8272934.9886771.7844935 2.0465738.4577234 3.0754216 1.380014.9816181 2.1539352 2.1722152 2.5852534 3.1438795.9575826 2.1566243.7341858 4.2068038.368906 4.9922404-.1252329.2703271-.4534842.7240887-1.2419615.7240887-.770295 0-1.8156734-.4434523-3.1397105-1.0047251-.8127373-.3441173-1.6896744-.7158615-2.6101774-1.0344341-.5380114.6594905-1.1157071 1.1565206-1.8420275 1.3364001-.1952552.048601-.4028191.0730792-.617993.0730792-.8773456 0-1.8188911-.3969842-3.0108513-.9007687l-.2273295-.09578-.9004821-.3685956c-1.1017639.5363883-2.5745279.8705519-3.9495877.8776617zm-11.68992363-1.8518651-.06210574-.0943581-2.41895712-4.3859723c-.81810006.6435949-1.43037273 1.4538652-1.82890156 2.4241583-.67361229 1.6396865-.51518138 3.2538791-.27115078 3.8211446l.04136978.0010664c.48846978 0 1.49886269-.4342602 2.56814368-.8936588.60833998-.2617953 1.28476133-.5523855 2.00694481-.8280451-.01179805-.0145244-.02354502-.0294043-.03534307-.044335m25.61550053-4.2220393-.0321254.0581993c-.8162614 1.3416818-1.6604091 2.7284604-2.4289165 3.8836098-.0146071.0215835-.0293164.0439796-.0439235.0656139.8319921.3033372 1.6116336.6339458 2.3045008.9277354 1.0841945.4593987 2.1088881.8936081 2.5977154.8936081l.0410122-.0013712c.2255419-.5669607.3299878-2.180747-.3978138-3.8201289-.4223803-.9515026-1.0446634-1.7486198-1.8602608-2.3861712-.0599096.1273681-.1202278.2536697-.1801884.3789048m-20.416137 1.3746919-2.3376477-5.7758997c-.1776857-.4395418-.3703361-.9160041-.4794808-1.4193824-1.91128356.7535439-3.65530047 1.5300932-4.30567418 2.2591587-.49848025.5594446-.27610494 1.0766871.39102098 2.2101514l2.6415878 4.7903712c.6301485.8010783 1.2287845 1.549239 1.9374334 1.7539522.7802033.2231481 2.0657307-.2142608 3.153909-.6641119l.6236111-.263979c-.7959341-.8414522-1.2162203-1.8805586-1.6247596-2.8902605m15.0947582-5.902506-2.1428522 6.7536072c-.2504659.6769097-.5194205 1.4027758-1.1452788 2.0463199l.0977553.0397137.228402.096491c1.231236.5197309 2.1646096.9060503 2.7582403.7584699.6568601-.1628159 1.2815437-1.0344849 1.9173614-1.9902028.74818-1.1239168 1.5787932-2.4876391 2.3829501-3.8087531.7124795-1.4903794 1.092826-2.4556956.4266705-3.2521017-.6957273-.8333774-2.5559881-1.620236-4.1247198-2.1793251-.0420848.5750863-.2333051 1.0905513-.3985288 1.535781m-8.7661531-6.1246383c-2.794707 0-5.8266519 1.3364001-7.1442026 2.6284144-1.0371556 1.0175228-.7852596 1.813218-.2518959 3.1322498l2.336575 5.7751378c.4348934 1.0735384.8445053 2.0860335 1.6718497 2.7586773.8227478.6697998 2.1411157 1.0696279 3.5268499 1.0696279h.0402972c1.3832316-.0071098 2.91994-.4094264 3.8247123-1.0015256.7937889-.5204419 1.0385346-1.1799324 1.3225559-1.9444457l2.1417797-6.7514743c.3864243-1.0437785.6343365-1.7121056-.355729-2.7597437-1.2790411-1.3544796-4.1272224-2.8324167-6.8859224-2.9037185z" fill="#2a3b90" transform="matrix(.77714596 -.62932039 .62932039 .77714596 -7.332609 16.796783)"/><path d="m19.9610632 27.1808172c-1.3360905 0-2.6034357-.3039974-3.6084658-.8517615l-.6832142.289473-.6536424.2763705c-.9961434.4118642-2.151024.8333266-3.162183.8333266-.3175258 0-.6193209-.0407801-.8966005-.1202582-.6767789-.1951149-1.22413676-.6155109-1.71219796-1.1217839-.8398575.3026262-1.63977529.6467435-2.38402264.9667381-1.30508871.5612728-2.3361665 1.0043188-3.10681901 1.0043188-.78776223 0-1.13174424-.4540663-1.26657906-.7243934-.39102099-.7858429-.6821927-2.8359716.20409088-4.9933069.39383004-.9578508 1.11386842-2.1293021 2.42682249-3.1030993-.44740645-.9021907-.72075341-1.9739009.19760452-3.0038152.89767303-1.0074674 2.99558028-1.9107246 5.32781408-2.814642.1331494-.554874.44567-1.1288938 1.0407308-1.7128166 1.5296091-1.499927 5.0110544-3.09918889 8.3544472-3.00980777 3.1682097.08232205 6.3550103 1.74364287 7.8645985 3.34219387.3485275.3690018.5943457.7262216.761357 1.0696279 2.2820283.7655798 4.4993972 1.6911823 5.4716379 2.8551683.8272934.9886771.7844935 2.0465738.4577234 3.0754216 1.380014.9816181 2.1539352 2.1722152 2.5852534 3.1438795.9575826 2.1566243.7341858 4.2068038.368906 4.9922404-.1252329.2703271-.4534842.7240887-1.2419615.7240887-.770295 0-1.8156734-.4434523-3.1397105-1.0047251-.8127373-.3441173-1.6896744-.7158615-2.6101774-1.0344341-.5380114.6594905-1.1157071 1.1565206-1.8420275 1.3364001-.1952552.048601-.4028191.0730792-.617993.0730792-.8773456 0-1.8188911-.3969842-3.0108513-.9007687l-.2273295-.09578-.9004821-.3685956c-1.1017639.5363883-2.5745279.8705519-3.9495877.8776617zm-11.68992363-1.8518651-.06210574-.0943581-2.41895712-4.3859723c-.81810006.6435949-1.43037273 1.4538652-1.82890156 2.4241583-.67361229 1.6396865-.51518138 3.2538791-.27115078 3.8211446l.04136978.0010664c.48846978 0 1.49886269-.4342602 2.56814368-.8936588.60833998-.2617953 1.28476133-.5523855 2.00694481-.8280451-.01179805-.0145244-.02354502-.0294043-.03534307-.044335m25.61550053-4.2220393-.0321254.0581993c-.8162614 1.3416818-1.6604091 2.7284604-2.4289165 3.8836098-.0146071.0215835-.0293164.0439796-.0439235.0656139.8319921.3033372 1.6116336.6339458 2.3045008.9277354 1.0841945.4593987 2.1088881.8936081 2.5977154.8936081l.0410122-.0013712c.2255419-.5669607.3299878-2.180747-.3978138-3.8201289-.4223803-.9515026-1.0446634-1.7486198-1.8602608-2.3861712-.0599096.1273681-.1202278.2536697-.1801884.3789048m-20.416137 1.3746919-2.3376477-5.7758997c-.1776857-.4395418-.3703361-.9160041-.4794808-1.4193824-1.91128356.7535439-3.65530047 1.5300932-4.30567418 2.2591587-.49848025.5594446-.27610494 1.0766871.39102098 2.2101514l2.6415878 4.7903712c.6301485.8010783 1.2287845 1.549239 1.9374334 1.7539522.7802033.2231481 2.0657307-.2142608 3.153909-.6641119l.6236111-.263979c-.7959341-.8414522-1.2162203-1.8805586-1.6247596-2.8902605m15.0947582-5.902506-2.1428522 6.7536072c-.2504659.6769097-.5194205 1.4027758-1.1452788 2.0463199l.0977553.0397137.228402.096491c1.231236.5197309 2.1646096.9060503 2.7582403.7584699.6568601-.1628159 1.2815437-1.0344849 1.9173614-1.9902028.74818-1.1239168 1.5787932-2.4876391 2.3829501-3.8087531.7124795-1.4903794 1.092826-2.4556956.4266705-3.2521017-.6957273-.8333774-2.5559881-1.620236-4.1247198-2.1793251-.0420848.5750863-.2333051 1.0905513-.3985288 1.535781m-8.7661531-6.1246383c-2.794707 0-5.8266519 1.3364001-7.1442026 2.6284144-1.0371556 1.0175228-.7852596 1.813218-.2518959 3.1322498l2.336575 5.7751378c.4348934 1.0735384.8445053 2.0860335 1.6718497 2.7586773.8227478.6697998 2.1411157 1.0696279 3.5268499 1.0696279h.0402972c1.3832316-.0071098 2.91994-.4094264 3.8247123-1.0015256.7937889-.5204419 1.0385346-1.1799324 1.3225559-1.9444457l2.1417797-6.7514743c.3864243-1.0437785.6343365-1.7121056-.355729-2.7597437-1.2790411-1.3544796-4.1272224-2.8324167-6.8859224-2.9037185z" fill="#2a3b90" transform="matrix(-.77714596 -.62932039 -.62932039 .77714596 181.332609 16.796783)"/><path d="m39.0503151 16.2700585c.5845046-.5589305.9496849-1.3449941.9496849-2.215113 0-.6727668-.2197564-1.3125157-.6108667-1.8350834.2705359-.3306107.4397289-.7380473.4397289-1.2436744 0-2.9694535-6.0400608-4.52302149-12.0066533-4.52302149-1.4073488 0-2.7709407.08383958-4.0671148.24720269-.0795185-.21342947-.1868037-.3918988-.3061896-.53950827-.2799356-.3461485-.7596399-.68970736-1.5506118-.6796725.0028091-.02276725.0063744-.0453187.0088594-.06819385.0867573-.81498118-.1496375-1.61485612-.6651036-2.25201538-.4233066-.52364672-.996899-.88339083-1.6301303-1.04438009.0022689-.42696684-.122411-.84994131-.4404853-1.24335074-.3222878-.398265-.9602729-.87324807-2.1689333-.87324807-2.4027353 0-6.334474 1.9197862-10.01652874 4.89075029-4.6409232 3.74483474-8.3615488 8.74434991-6.49297082 11.05430851.21327394.2633879.5697029.5658362 1.12503627.6842043.02398522.6553947.25681468 1.2960068.67904091 1.8182508.54755439.676867 1.32642566 1.058731 2.13284752 1.1264932-.17751221.7754892.06460882 1.3175871.34043881 1.6584484.33762973.4172557.93196609.7936167 1.97694361.7936167.75402172 0 1.74260157-.1959494 3.03855952-.7137695 1.84016302-.7353497 3.94902532-1.9793479 6.02990492-3.5482379-.0001081.0029133-.0003241.0062583-.0003241.0092795 0 .923854.6681287 2.2306509 3.8509236 3.21029 2.1898934.6740616 5.0861623 1.0453512 8.1555136 1.0453512 3.0693514 0 5.9657283-.3711817 8.1556217-1.0453512 3.182903-.9796391 3.8510317-2.286436 3.8510317-3.21029.0003241-.4452022-.1552556-1.0143834-.778223-1.5032858zm-20.5048747-.7749496c.6397138-.5865534 1.238804-1.1800125 1.7887353-1.7705583 1.8949401.2263777 4.2972432.2740702 7.4881412.2740702 3.5023817 0 6.0681516-.0578352 8.0346152-.3460406.4994759-.0732652 1.3792579-.2027472 2.1841672-.5242941.2148946.2573455.338386.5822373.338386.9266594 0 .7487296-.6697493 1.4370342-1.4514296 1.4497666-1.3239408.0213645-2.0176753.3355741-2.6296224.6317642-.5423684.2625247-.970753.4698038-1.9229229.4698038s-1.3805545-.2072791-1.9229228-.4698038c-.6119472-.2961901-1.3054657-.6317642-2.6296224-.6317642-1.3242649 0-2.0178914.3355741-2.6299466.6316563-.5423684.2625247-.970861.4699117-1.9232469.4699117-.9522779 0-1.3830394-.2025314-1.923139-.4698038-1.3791499-.682478-2.7688879-.6388857-2.8011923-.6413674zm16.9383163-6.37698768c1.8820832.62421105 2.7244828 1.38286758 2.7244828 1.85795858 0 .3364373-.679473.7955588-2.5866218 1.0750241-2.0710478.3036353-5.1117681.3289922-7.7993008.3289922-2.0524646 0-4.3148539-.0153221-6.1919672-.158076.3078103-.3885538.590555-.7721442.8433721-1.1474261.7553182-1.12109819 1.1538834-2.02369551 1.3217799-2.74857881 1.2764024-.16875819 2.6277857-.2544321 4.0267072-.2544321 2.9061006 0 5.6270181.37161329 7.6615478 1.04653813zm-32.78011926 2.65448858c1.1578809-1.80184973 3.04050427-3.79878561 5.30094881-5.62275513 3.87912245-3.13011903 7.31430245-4.53122199 8.99791335-4.53122199.2571388 0 .7169634.03539175.908305.27191217.2117613.26176941-.0279828 1.0453512-1.3355012 2.45983396-1.4198816 1.53576422-3.7691362 3.46407464-5.8596315 5.15100908-2.74457852 2.21468141-6.89229222 5.56157481-8.59578276 5.56135901-.25735488 0-.32812207-.087724-.36626073-.1346612-.29884282-.3696711-.12100649-1.4887191.95000903-3.1554759zm.85428424 5.6578231c-.21662323-.267704-.32682557-.6015517-.32077525-.9387444 1.87484438-.5808346 4.494635-2.5018077 8.49703287-5.731412 2.7243748-2.1983883 4.6837076-3.85381545 6.0318496-5.31210628.3424916-.37064217.9454713-1.02355507 1.3692101-1.77897454.3287704.0651726.6295579.24105229.8460731.50886419.2436336.30115352.3552405.6790251.3142928 1.0640182-.0409477.38499309-.2294802.73103369-.5310241.97435192-1.0299597.83105852-1.3581898 1.52745578-1.6478491 2.1420636-.2567066.54457963-.4595006.97478352-1.2001251 1.57234287-.7405166.59755934-1.2041227.70513734-1.7912203.84141704-.6622945.1537599-1.4129669.3279132-2.4429266 1.1589717-1.0301759.8311664-1.358514 1.5276716-1.6482814 2.1422794-.2567066.5446875-.4595005.9748914-1.20001707 1.5725587-.74073261.5976672-1.20444679.7052452-1.79165241.841525-.66251056.1537598-1.41329104.328021-2.44346687 1.1592953-.00010804.0001079-.00032412.0002158-.00043216.0004316-.62275128.501419-1.5378629.4044154-2.04068811-.2168823zm5.62604573 2.3792314c-2.08044738.8313823-2.8459215.7655622-3.15308353.4054944-.11311946-.1325032-.16087381-.6706087.58547696-1.3085233.00032413-.0003237.00075629-.0005395.00118846-.0008632.74073262-.5978831 1.20455483-.705461 1.79176046-.8417408.66240252-.1537599 1.41318299-.328021 2.44325074-1.1591875 1.0298517-.8311664 1.3581899-1.5275636 1.6478492-2.1420636.2568147-.5446875.4596086-.9748914 1.2003412-1.5726665.7406246-.5975594 1.2044468-.7051373 1.7914363-.8414171.6622945-.1537599 1.412967-.3279131 2.4428187-1.1589717 1.0300677-.8310585 1.3582979-1.52756365 1.6479572-2.14206356.2567066-.54457964.4595005-.97467563 1.2000171-1.57223498.0006482-.0005395.0012965-.00118691.0019447-.00172642 1.1749515-.94187352 1.4868673.11157031 1.4896764.12333159.0784381.32100741-.0823276 1.08246937-1.1457803 2.57410177-.4832697.6777303-1.0398995 1.413188-1.7012216 2.1465955-.0057262.0061504-.0113444.0121929-.0168545.0184512-1.0293115 1.1392256-2.2684396 2.3033766-3.6417553 3.4116344-2.2648742 1.8275303-4.6035408 3.2700675-6.58502219 4.0618498zm26.31664379-.3725844c-2.0394997.6276639-4.7663594.9734887-7.6782943.9734887s-5.6387946-.3457169-7.6781862-.9734887c-2.1417069-.6592791-2.7374478-1.378012-2.7076284-1.6636277.0500232-.4796228.9256997-.6400726 1.280292-.6503232.9520618-.0277307 1.3808785.207387 1.923463.4698038.6119471.2960821 1.3055737.6317642 2.6297304.6317642 1.3242649 0 2.0178914-.3355742 2.6299466-.6317642.5423684-.2625247.970861-.4698038 1.9232469-.4698038.9521699 0 1.3805545.2072791 1.9229229.4698038.6119471.29619 1.3054656.6317642 2.6296224.6317642s2.0176752-.3355742 2.6296224-.6317642c.5423684-.2625247.970753-.4743357 1.9229228-.4698038.8931792.0042082 1.2804.4289091 1.2804.6503232-.0004322.2871263-.5663536 1.0043486-2.7080605 1.6636277z" fill="#d60b0b" transform="translate(67 8)"/></g></svg>