<svg height="428" viewBox="0 0 1679 428" width="1679" xmlns="http://www.w3.org/2000/svg" xmlns:xlink="http://www.w3.org/1999/xlink"><linearGradient id="a" x1="50%" x2="50%" y1="0%" y2="78.346936%"><stop offset="0" stop-color="#ffeacc"/><stop offset="1" stop-color="#fc8585"/><stop offset="1" stop-color="#f3a2a2"/></linearGradient><g fill="none" fill-rule="evenodd"><path d="m342.307208 240.612078c279.199027-10.301375 564.865081 59.930116 736.811442 59.930116 114.63091 0 253.25802-29.180731 415.88135-87.542194v215l-1495-1.814346c42.0721206-116.848134 156.174523-178.705993 342.307208-185.573576z" fill="#2a3b90"/><path d="m417.307208 240.612078c279.199027-10.301375 564.865081 59.930116 736.811442 59.930116 114.63091 0 253.25802-29.180731 415.88135-87.542194v215l-1495-1.814346c42.072121-116.848134 156.174523-178.705993 342.307208-185.573576z" fill="#fff"/><path d="m801.124754 0c237.408566 0 432.020076 183.236003 450.124756 415.998243h-900.24951c18.104679-232.76224 212.716186-415.998243 450.124754-415.998243z" fill="url(#a)"/><path d="m526.307208 240.612078c279.199027-10.301375 564.865082 59.930116 736.811442 59.930116 114.63091 0 253.25802-29.180731 415.88135-87.542194v215l-1495-1.814346c42.072121-116.848134 156.174523-178.705993 342.307208-185.573576z" fill="#d60b0b"/></g></svg>