<svg id="Ebene_3" data-name="Ebene 3" xmlns="http://www.w3.org/2000/svg" viewBox="0 0 525.73 552.28"><defs><style>.cls-1,.cls-3,.cls-4,.cls-5,.cls-6{fill:none;}.cls-1{stroke:#e25641;stroke-width:15px;}.cls-1,.cls-4,.cls-5{stroke-miterlimit:10;}.cls-2{fill:#95caef;}.cls-3,.cls-4,.cls-5,.cls-6{stroke:#95caef;}.cls-3,.cls-5,.cls-6{stroke-linecap:square;}.cls-3{stroke-linejoin:bevel;}.cls-3,.cls-4{stroke-width:20px;}.cls-5,.cls-6{stroke-width:2px;}.cls-6{stroke-linejoin:round;}.cls-7{fill:#e25641;}.cls-8{fill:#fff;}</style></defs><title>Emberfest_startseite_Amsterdam_windmuehle_final</title><line class="cls-1" x1="163.99" y1="265" x2="224.02" y2="247.6"/><line class="cls-1" x1="371.69" y1="265.07" x2="311.66" y2="246.06"/><path class="cls-2" d="M335.64,283.36h14.18s-47-91-81.46-91-81.47,91-81.47,91H199.8c-10.27,59.08-37.9,157.46-37.9,157.46l32.51,5.63v32l35,13.35,38.36-.1,38.21.1,35-13.35v-32l32.5-5.63S345.92,342.44,335.64,283.36Z"/><line class="cls-3" x1="83.39" y1="79.61" x2="451.04" y2="447.19"/><line class="cls-4" x1="451.04" y1="79.61" x2="83.39" y2="447.19"/><line class="cls-5" x1="242.74" y1="160.61" x2="211.31" y2="192.03"/><line class="cls-5" x1="231.24" y1="149.1" x2="199.81" y2="180.52"/><line class="cls-5" x1="219.73" y1="137.6" x2="188.31" y2="169.02"/><line class="cls-5" x1="208.23" y1="126.1" x2="176.8" y2="157.52"/><line class="cls-5" x1="196.72" y1="114.6" x2="165.3" y2="146.02"/><line class="cls-5" x1="185.22" y1="103.1" x2="153.79" y2="134.52"/><line class="cls-5" x1="173.72" y1="91.6" x2="142.29" y2="123.01"/><line class="cls-5" x1="162.21" y1="80.09" x2="130.79" y2="111.51"/><line class="cls-5" x1="150.71" y1="68.59" x2="119.28" y2="100.01"/><line class="cls-5" x1="139.2" y1="57.09" x2="107.78" y2="88.51"/><line class="cls-5" x1="127.7" y1="45.59" x2="96.27" y2="77.01"/><line class="cls-5" x1="116.19" y1="34.09" x2="84.77" y2="65.51"/><line class="cls-5" x1="242.74" y1="160.61" x2="116.19" y2="34.09"/><line class="cls-5" x1="232.27" y1="171.08" x2="105.72" y2="44.56"/><line class="cls-5" x1="221.79" y1="181.55" x2="95.24" y2="55.03"/><line class="cls-5" x1="211.31" y1="192.03" x2="84.77" y2="65.51"/><line class="cls-6" x1="331.52" y1="214.58" x2="362.95" y2="246"/><line class="cls-6" x1="343.03" y1="203.08" x2="374.45" y2="234.5"/><line class="cls-6" x1="354.53" y1="191.58" x2="385.96" y2="223"/><line class="cls-6" x1="366.03" y1="180.08" x2="397.46" y2="211.5"/><line class="cls-6" x1="377.54" y1="168.57" x2="408.96" y2="199.99"/><line class="cls-6" x1="389.04" y1="157.07" x2="420.47" y2="188.49"/><line class="cls-6" x1="400.55" y1="145.57" x2="431.97" y2="176.99"/><line class="cls-6" x1="412.05" y1="134.07" x2="443.48" y2="165.49"/><line class="cls-6" x1="423.56" y1="122.57" x2="454.98" y2="153.99"/><line class="cls-6" x1="435.06" y1="111.07" x2="466.49" y2="142.49"/><line class="cls-6" x1="446.56" y1="99.56" x2="477.99" y2="130.98"/><line class="cls-6" x1="458.07" y1="88.06" x2="489.49" y2="119.48"/><line class="cls-6" x1="331.52" y1="214.58" x2="458.07" y2="88.06"/><line class="cls-6" x1="342" y1="225.05" x2="468.54" y2="98.54"/><line class="cls-6" x1="352.47" y1="235.53" x2="479.02" y2="109.01"/><line class="cls-6" x1="362.95" y1="246" x2="489.49" y2="119.48"/><line class="cls-6" x1="449.67" y1="461.27" x2="418.24" y2="492.68"/><line class="cls-6" x1="438.17" y1="449.76" x2="406.74" y2="481.18"/><line class="cls-6" x1="426.66" y1="438.26" x2="395.24" y2="469.68"/><line class="cls-6" x1="415.16" y1="426.76" x2="383.73" y2="458.18"/><line class="cls-6" x1="403.65" y1="415.26" x2="372.23" y2="446.68"/><line class="cls-6" x1="392.15" y1="403.76" x2="360.72" y2="435.18"/><line class="cls-6" x1="380.65" y1="392.26" x2="349.22" y2="423.67"/><line class="cls-6" x1="369.14" y1="380.75" x2="337.72" y2="412.17"/><line class="cls-6" x1="357.64" y1="369.25" x2="326.21" y2="400.67"/><line class="cls-6" x1="346.13" y1="357.75" x2="314.71" y2="389.17"/><line class="cls-6" x1="334.63" y1="346.25" x2="303.2" y2="377.67"/><line class="cls-6" x1="323.12" y1="334.75" x2="291.7" y2="366.17"/><line class="cls-6" x1="449.67" y1="461.27" x2="323.12" y2="334.75"/><line class="cls-6" x1="439.2" y1="471.74" x2="312.65" y2="345.22"/><line class="cls-6" x1="428.72" y1="482.21" x2="302.17" y2="355.69"/><line class="cls-6" x1="418.24" y1="492.68" x2="291.7" y2="366.17"/><line class="cls-6" x1="44.89" y1="407.3" x2="76.32" y2="438.72"/><line class="cls-6" x1="56.4" y1="395.79" x2="87.82" y2="427.21"/><line class="cls-6" x1="67.9" y1="384.29" x2="99.33" y2="415.71"/><line class="cls-6" x1="79.41" y1="372.79" x2="110.83" y2="404.21"/><line class="cls-6" x1="90.91" y1="361.29" x2="122.34" y2="392.71"/><line class="cls-6" x1="102.41" y1="349.79" x2="133.84" y2="381.21"/><line class="cls-6" x1="113.92" y1="338.29" x2="145.34" y2="369.71"/><line class="cls-6" x1="125.42" y1="326.78" x2="156.85" y2="358.2"/><line class="cls-6" x1="136.93" y1="315.28" x2="168.35" y2="346.7"/><line class="cls-6" x1="148.43" y1="303.78" x2="179.86" y2="335.2"/><line class="cls-6" x1="159.93" y1="292.28" x2="191.36" y2="323.7"/><line class="cls-6" x1="171.44" y1="280.78" x2="202.86" y2="312.2"/><line class="cls-6" x1="44.89" y1="407.3" x2="171.44" y2="280.78"/><line class="cls-6" x1="55.37" y1="417.77" x2="181.91" y2="291.25"/><line class="cls-6" x1="65.84" y1="428.24" x2="192.39" y2="301.72"/><line class="cls-6" x1="76.32" y1="438.72" x2="202.86" y2="312.2"/><path class="cls-7" d="M369.38,256.49c-9.28-1.42-18.62-2.48-27.93-3.69-46.39-5-65.78,6.1-73.62,6.1v0c-7.84,0-27.23-11.11-73.62-6.1-9.31,1.21-18.65,2.27-27.93,3.69-9.81,1.5-13.24,9.83-6.53,17.86,3.29,3.95,3.63,7.6,4.18,12.06,6.54,52.89,47.3,50.27,68.64,38,13.94-8.76,22.47-21.39,26.88-37.12,1.29-4.59,2.55-10.27,8.38-10.68,5.83.41,7.09,6.09,8.38,10.68,4.41,15.73,12.94,28.36,26.88,37.12,21.34,12.24,62.1,14.86,68.64-38,.55-4.46.89-8.11,4.18-12.06C382.62,266.32,379.19,258,369.38,256.49Z"/><path class="cls-8" d="M214.66,264.76c-15.95-.51-33.32-.51-35.55,16.83-1.88,14.58,3.9,29.67,13.62,33.89,17.67,7.67,32.91,3.3,44.13-15.15C247.92,279,241.62,267.58,214.66,264.76Z"/><path class="cls-8" d="M321,264.76c15.95-.51,33.32-.51,35.55,16.83,1.88,14.58-3.9,29.67-13.62,33.89-17.67,7.67-32.91,3.3-44.13-15.15C287.74,279,294,267.58,321,264.76Z"/></svg>