<?xml version="1.0" encoding="iso-8859-1"?>
<!-- Generator: Adobe Illustrator 19.2.1, SVG Export Plug-In . SVG Version: 6.00 Build 0)  -->
<svg version="1.1" id="Calque_1" xmlns="http://www.w3.org/2000/svg" xmlns:xlink="http://www.w3.org/1999/xlink" x="0px" y="0px"
	 viewBox="0 0 446.987 129.395" style="enable-background:new 0 0 446.987 129.395;" xml:space="preserve">
<g>
	<g>
		<path style="fill:#008BC8;" d="M407.845,81.868l35.414-42.146h-29.041L386.3,76.361h-0.238V39.722h-47.932l-16.476,23.954
			l-16.475-23.954h-79.889v9.696c-4.355-5.348-10.88-8.495-18.868-9.696H162.56v89.673h23.469V99.472h13.289
			c20.464,0,31.956-9.338,31.956-30.645c0-3.632-0.413-6.899-1.207-9.823h14.615v70.392h23.461V59.003h22.595l19.185,27.054v43.338
			h23.461V86.057l29.208-41.176v84.514h23.47V90.253h0.238l30.28,39.142h30.408L407.845,81.868z M189.979,80.557h-3.951V58.049
			h3.951c9.099,0,16.88,0.119,16.88,11.493C206.859,80.557,198.474,80.557,189.979,80.557z"/>
		<path style="fill:#008BC8;" d="M155.819,4.514c2.894,3.005,4.332,6.605,4.332,10.801c0,4.085-1.438,7.598-4.332,10.546
			c-2.901,2.957-6.437,4.427-10.641,4.427c-4.188,0-7.733-1.47-10.626-4.427c-2.885-2.948-4.339-6.461-4.339-10.546
			c0-4.197,1.454-7.796,4.339-10.801C137.445,1.51,140.99,0,145.178,0C149.383,0,152.918,1.51,155.819,4.514z"/>
		<path style="fill:#008BC8;" d="M133.241,39.722v85.62l-25.265-32.935c12.812-2.273,19.758-13.05,19.758-25.495
			c0-16.427-9.847-25.012-23.795-27.19H0v19.281h19.4v70.392h23.461V59.003h18.43v70.392h23.462V94.68h0.238l22.15,34.715h49.553
			V39.722H133.241z M87.033,79.595h-2.28V57.088h2.28c7.654,0,16.276,1.438,16.276,11.253
			C103.31,78.157,94.687,79.595,87.033,79.595z"/>
	</g>
	<g>
		<path style="fill:#008BC8;" d="M407.845,81.868l35.414-42.146h-29.041L386.3,76.361h-0.238V39.722h-47.932l-16.476,23.954
			l-16.475-23.954h-79.889v9.696c-4.355-5.348-10.88-8.495-18.868-9.696H162.56v89.673h23.469V99.472h13.289
			c20.464,0,31.956-9.338,31.956-30.645c0-3.632-0.413-6.899-1.207-9.823h14.615v70.392h23.461V59.003h22.595l19.185,27.054v43.338
			h23.461V86.057l29.208-41.176v84.514h23.47V90.253h0.238l30.28,39.142h30.408L407.845,81.868z M189.979,80.557h-3.951V58.049
			h3.951c9.099,0,16.88,0.119,16.88,11.493C206.859,80.557,198.474,80.557,189.979,80.557z"/>
		<path style="fill:#008BC8;" d="M155.819,4.514c2.894,3.005,4.332,6.605,4.332,10.801c0,4.085-1.438,7.598-4.332,10.546
			c-2.901,2.957-6.437,4.427-10.641,4.427c-4.188,0-7.733-1.47-10.626-4.427c-2.885-2.948-4.339-6.461-4.339-10.546
			c0-4.197,1.454-7.796,4.339-10.801C137.445,1.51,140.99,0,145.178,0C149.383,0,152.918,1.51,155.819,4.514z"/>
		<path style="fill:#008BC8;" d="M133.241,39.722v85.62l-25.265-32.935c12.812-2.273,19.758-13.05,19.758-25.495
			c0-16.427-9.847-25.012-23.795-27.19H0v19.281h19.4v70.392h23.461V59.003h18.43v70.392h23.462V94.68h0.238l22.15,34.715h49.553
			V39.722H133.241z M87.033,79.595h-2.28V57.088h2.28c7.654,0,16.276,1.438,16.276,11.253
			C103.31,78.157,94.687,79.595,87.033,79.595z"/>
	</g>
</g>
</svg>
