<svg width="320" height="288" xmlns="http://www.w3.org/2000/svg" xmlns:xlink="http://www.w3.org/1999/xlink"><defs><path id="a" d="M0 0H517.916V288H0z"/></defs><g transform="translate(-198)" fill="none" fill-rule="evenodd" opacity=".6"><mask id="b" fill="#fff"><use xlink:href="#a"/></mask><use fill-opacity="0" fill="#F7F7F7" xlink:href="#a"/><g opacity=".3" mask="url(#b)" stroke="#E27E6F" stroke-width="2"><g transform="translate(-73.731 -182.52)"><path d="M29.672 296.64L29.672 363.24"/><path d="M96.39 563.58L162.928 563.58"/><path d="M163.287 563.58L229.825 563.58"/><path d="M496.336 29.7L429.798 29.7"/><path d="M563.054 563.4L563.054 496.8"/><path d="M29.672 496.8L29.672 430.2"/><path d="M29.672 363.6L29.672 430.2"/><path d="M429.798 29.7L363.261 29.7"/><path d="M363.261 29.7L296.723 29.7"/><path d="M29.492 563.58L96.39 563.58"/><path d="M563.108 296.64c0-22.2-.108-66.6-.108-66.6"/><path d="M563.054 430.2L563.054 363.6"/><path d="M563 363.24s.108-44.4.108-66.6M229.825 563.58h66.538"/><path d="M563.054 496.8L563.054 430.2"/><path d="M563.054 229.68L563.054 163.08"/><path d="M429.798 563.58L363.261 563.58"/><path d="M296.723 563.58h66.538"/><path d="M563.054 96.48L563.054 163.08"/><path d="M563.234 29.7L496.696 29.7"/><path d="M496.336 563.58L562.874 563.58"/><path d="M163.287 29.7L229.825 29.7"/><path d="M29.672 29.88L29.672 96.48"/><path d="M29.672 96.48L29.672 163.08"/><path d="M496.336 563.58L429.798 563.58"/><path d="M563.054 29.88L563.054 96.48"/><path d="M96.39 29.7L29.492 29.7"/><path d="M29.672 563.4L29.672 496.8"/><path d="M296.363 29.7L229.825 29.7"/><path d="M29.672 163.08L29.672 229.68"/><path d="M29.672 229.68L29.672 296.64"/><path d="M96.39 29.7L162.928 29.7"/><path d="M57.187 236.52c.52 20.028 1.041 40.092 1.079 60.12m-1.799 120.24s.206-40.055.72-60.12m301.398 180.18H299.96"/><path d="M116.531 56.34L176.595 56.34"/><path d="M56.467 536.94L116.531 536.94"/><path d="M56.287 56.16L56.287 116.28"/><path d="M176.595 56.34h61.143"/><path d="M476.555 536.94L536.618 536.94"/><path d="M56.467 176.4s.19 40.068.72 60.12m479.297-60.12c-.18-20.04-.036-60.12-.036-60.12M176.595 536.94h61.502M58.266 296.64c0 20.04-.48 40.08-1.08 60.12m180.911 180.162c20.869 0 41.514 0 61.863.036"/><path d="M116.531 536.94L176.595 536.94"/><path d="M476.555 536.94H416.49m-58.266-480.6H299.24"/><path d="M536.259 56.34L476.555 56.34"/><path d="M416.49 56.34h-58.624"/><path d="M476.555 56.34L416.491 56.34"/><path d="M56.287 416.88L56.287 477"/><path d="M536.259 176.4c.19 20.04 1.45 40.08 2.517 60.12"/><path d="M56.287 116.28L56.287 176.4"/><path d="M237.738 56.34h61.502"/><path d="M536.439 56.52L536.439 116.64"/><path d="M536.439 536.76L536.439 476.64"/><path d="M56.287 536.76L56.287 476.64"/><path d="M540.575 296.64c-.035-20.028-.811-40.055-1.799-60.12m-2.158 180.36c.26-20.052 1.518-40.105 2.518-60.12M416.491 536.922c-19.586 0-38.801 0-57.906.036M539.136 356.76c1.032-20.052 1.835-40.105 1.797-60.12"/><path d="M116.531 56.34L56.467 56.34"/><path d="M536.464 477s-.216-40.08.036-60.12m-13.908-174.24c1.92 17.988 3.161 36.012 3.237 54"/><path d="M134.514 80.46L80.205 80.46"/><path d="M458.571 512.82h53.95"/><path d="M80.385 80.28L80.385 134.28"/><path d="M86.32 242.64c1.494 18.12 2.478 36.24 2.517 54.36M407.499 80.424c-16.243.036-32.486.036-48.914.072m-50.713 432.342c-18.519 0-37.63 0-57.186-.036m55.748-432.324c17.953 0 35.312 0 52.15-.036"/><path d="M512.521 80.46L458.931 80.46"/><path d="M522.951 350.64c1.806-17.975 2.948-35.988 2.874-54m-9.348 108c2.121-18.025 4.614-35.975 6.474-54m-331.97 162.144c19.815.036 39.816.036 59.705.072M86.679 350.64c1.337-18 2.228-36 2.154-54m45.681 216.162s36.977 0 56.468.036"/><path d="M80.205 512.82L134.514 512.82"/><path d="M80.205 134.28s.21 36.025 1.439 54M458.57 512.802c-17.56 0-34.377 0-50.712.036M458.57 80.442s-34.627 0-51.072.036"/><path d="M512.341 80.28L512.341 134.28"/><path d="M82.003 404.64c-1.407 17.988-1.798 54-1.798 54"/><path d="M80.385 513L80.385 459"/><path d="M516.118 188.64c-2.019-17.988-3.597-54-3.597-54m-426.202 216c-1.284 18.012-3.032 35.988-4.316 54m326.215 108.144c-16.098.036-32.233.036-48.554.072M522.592 242.64c-1.887-18.012-4.403-35.988-6.474-54M359.664 513.162c-16.671 0-33.898.036-51.792.036m204.649-54.558c.15-18.012 1.829-36.025 3.956-54M134.514 80.442s36.538 0 55.748.036m59.345-.036c19.532 0 38.656.036 57.186.036M82.003 188.64c1.213 18 2.96 36 4.316 54M190.262 80.424c19.707 0 39.563.036 59.345.072M512.373 513s-.144-36 0-54M117.25 248.04c1.964 16.308 3.165 32.615 3.237 48.96m370.095 194.4s1.121-32.474 3.596-48.6m-129.12 48.762c-14.46.036-29.662.036-45.676.036m171.2-389.556s-30.988 0-45.318.036m-127.68 0c16.1 0 31.42 0 46.036-.036m-261.833-.162s-.12 32.4 1.437 48.6M120.484 297c.072 16.225-1.006 32.45-2.874 48.6m246.01-243.504c14.039-.036 27.632-.036 41.002-.072m.72 389.52a14516.6 14516.6 0 0 1-40.283.072m80.205-389.592c-13.892.036-27.378.036-40.642.072m107.54 145.944c-2.524-16.225-5.938-32.375-9.352-48.6M516.118 297c-.072-16.212-1.547-32.462-3.957-48.6m-394.91 97.2c-1.919 16.225-4.575 32.412-7.194 48.6m98.188-292.176c19.09.036 38.107.072 56.827.072M502.81 199.44c-3.404-16.188-6.697-32.338-8.992-48.6m-229.105-48.798c18.304.036 35.94.036 52.87.036m-214.36 48.402c1.435 16.225 3.863 32.412 6.474 48.6m.72 195.12c-2.68 16.188-5.248 32.338-6.834 48.6m390.595 0c2.451-16.262 5.882-32.412 9.351-48.6m0 0c3.47-16.188 6.9-32.375 9.352-48.6m-193.5 145.998c-16.883 0-34.543-.036-52.87-.036M109.697 199.44c2.544 16.212 5.232 32.35 7.194 48.6m-15.106 243.162s33.031 0 50.712.036m0-.054c18.34.036 37.237.036 56.468.072m-56.827-389.232c18.101 0 36.758.036 55.748.072m-55.748-.036h-50.353m388.797.18s.858 32.437 3.236 48.6M266.511 491.274l-57.187-.108M516.114 297c.073 16.2-1.257 32.474-3.593 48.6m-66.897 145.566l-40.283.108m-303.196.126s.033-32.412 1.438-48.6m342.04 48.438c14.276-.036 45.318-.036 45.318-.036M148.901 340.92c-2.285 14.582-5.49 29.052-8.992 43.56M152.494 297c.077 14.652-1.223 29.342-3.593 43.92m-8.992 43.56c-3.526 14.52-7.275 29.003-10.43 43.56m9.71-218.88c3.554 14.603 6.92 29.243 9.352 43.92m0-.36c2.426 14.723 3.882 29.52 3.956 44.28M483.03 428.04c4.03-14.582 8.62-29.015 12.947-43.56m-56.826 87.354c10.977-.036 22.4-.072 34.527-.108m-.36-350.28c-12.197.036-23.801.036-34.887.108m-32.37.36l32.37-.108M128.76 165.24c3.114 14.677 6.828 29.28 10.43 43.92M407.5 472.212c10.512-.036 20.989-.072 31.65-.144M228.027 121.806l54.31.108m50.712 350.262c-15.45 0-31.756-.036-48.915-.072m189.543-.504c2.082-14.606 5.407-29.102 9.352-43.56M330.89 121.878c14.433 0 27.943 0 40.642-.036m35.966 350.244c-10.789.036-21.985.072-33.808.108m-251.405-.45c16.523 0 33.86.036 51.791.072M511.082 297c-.11-14.64-1.804-29.354-4.675-43.92m0 .36c-2.898-14.69-6.895-29.305-11.15-43.92m-321.899-88.074l55.029.108m266.87 87.966c-4.39-14.64-8.97-29.243-12.948-43.92M229.466 472.194l-55.389-.108m108.26-350.244c16.96.036 33.182.036 48.554.036M122.286 471.6c1.363-14.557 3.975-29.077 7.193-43.56m-7.553-306.72c1.215 14.652 3.72 29.305 6.834 43.92m378.366 175.68c2.823-14.553 4.425-29.255 4.31-43.92m-15.46 87.48c4.318-14.458 8.334-28.954 11.15-43.56M371.533 121.914c12.055-.036 23.514-.072 34.528-.108M284.134 472.194l-54.668-.108m144.225.036c-12.657.036-26.167.036-40.642.036M473.318 121.68c1.937 14.69 5.153 29.342 8.991 43.92m-308.951-44.064c-17.69-.036-34.751-.072-51.072-.072M492.02 218.16c-4.968-13.25-10.385-26.388-15.465-39.6M179.832 336.6c-2.463 13.142-6.064 26.21-10.07 39.24m334.487-118.08c-3.213-13.3-7.658-26.45-12.588-39.6m-80.565-78.948c8.647-.036 17.11-.108 25.536-.144m-240.256 0c17.707.036 35.487.108 53.23.144M145.665 454.428c16.889.036 34.334.072 52.151.144m-40.642-39.492c4.291-13.092 8.843-26.11 12.948-39.24m293.845 78.48c3.868-13.154 8.62-26.197 13.668-39.24M345.637 139.518c13.061 0 25.157 0 36.326-.036M169.042 217.8c4.077 13.138 7.786 26.313 10.43 39.6m70.135-117.972c17.492.036 34.541.108 51.072.144M509.284 297.36c-.11-13.212-1.948-26.5-5.035-39.6m-203.57-118.296c15.865.036 30.876.036 44.958.072m92.074 315.036c8.3-.036 16.895-.108 25.896-.144m-267.23-315.234c-17.59-.036-34.77-.108-51.432-.108m291.687.126c8.433-.036 17.123-.108 26.255-.144M251.765 454.572c-17.983-.036-36.004-.108-53.95-.144m186.306.414c-11.015.036-22.992.036-35.966.036m35.966.036c10.135-.036 19.532-.072 28.413-.108m-30.571-315.252c10.38-.036 20.017-.072 29.133-.108M183.786 297.36c.07 13.105-1.21 26.21-3.594 39.24m167.963 118.296c-14.047 0-29.058-.036-44.958-.072m189.542-78.984c4.847-13.006 9.21-26.049 12.23-39.24m-325.497-79.2c2.68 13.246 4.242 26.64 4.316 39.96m279.46-158.4c3.728 13.274 8.335 26.437 13.307 39.6M303.197 454.932c-16.615-.036-33.82-.072-51.432-.144m-106.101-.468c3.07-13.154 6.982-26.197 11.15-39.24m348.154-78.48c2.874-12.97 4.419-26.123 4.31-39.24m-364.333-158.4c3.03 13.25 6.921 26.425 11.15 39.6m321.539 236.52c5.13-13.092 10.522-26.11 15.465-39.24M156.094 178.56c4.229 13.212 8.794 26.388 12.948 39.6m268.669 236.268c-8.28.036-16.636.108-25.177.144m-89.916-15.48c-15.579-.036-31.825-.072-48.554-.144m-51.432-.198c-17.416-.072-34.61-.108-51.432-.18m287.012-283.41c5.067 11.966 10.731 23.785 16.544 35.64m-290.608-.36c4.919 11.905 9.911 23.698 14.386 35.64m311.47 71.28c-.114-11.905-2.076-23.884-5.396-35.64m-64.74 177.03c6.314-.072 12.776-.108 19.423-.18m-39.204.396c-7.355.036-15.338.108-24.097.108m42.44-284.022c6.446-.072 13.003-.108 19.782-.144m-64.74.486c8.877-.036 16.98-.072 24.457-.108m87.399 177.354c3.11-11.637 4.818-23.495 4.666-35.28M363.98 439.398c11.704 0 22.374 0 32.01-.036M199.613 367.92c-4.449 11.834-9.418 23.52-14.386 35.28m88.837 35.91c-17.033-.072-34.214-.108-51.432-.18m-1.798-283.878c-17.165-.072-34.143-.108-50.713-.144m0-.108c4.279 11.942 9.078 23.772 14.027 35.64m255.72 248.49c-6.359.072-12.903.108-19.78.18M319.74 155.304c14.692.036 28.53.072 41.362.072M504.968 262.08c-3.327-11.991-8.037-23.834-13.307-35.64m-32.37 212.4c5.096-11.822 10.783-23.532 16.544-35.28M220.834 155.25c17.085.072 34.171.108 51.072.18M171.2 438.84c4.296-11.822 9.143-23.532 14.027-35.28m29.126-106.2c.113 11.772-1.316 23.618-3.95 35.28m265.432 70.92c5.809-11.748 11.655-23.421 16.904-35.28M361.103 155.358c11.79 0 22.543 0 32.37-.036M363.98 439.416c-12.798 0-26.635-.036-41.362-.072m-50.712-284.076c16.61.036 32.7.108 48.195.144m171.56 71.028c-5.29-11.93-11.134-23.748-16.905-35.64m-265.072 70.56c2.874 11.926 4.56 24 4.676 36m278.38 70.92c5.086-11.661 9.514-23.397 12.588-35.28m-87.399-177.57c7.107-.036 13.878-.108 20.501-.18M210.403 332.64c-2.604 11.847-6.4 23.62-10.79 35.28m-1.079-141.84c4.43 11.806 8.381 23.686 11.15 35.64m35.966-92.25c-16.573-.072-33.035-.108-49.274-.18m51.432 255.42c-16.812-.072-33.514-.144-49.993-.18m231.264.396c-6.106.072-12.878.108-20.5.108M457.491 169.2c5.867 10.717 12.142 21.36 18.343 32.04m17.624 32.4c-5.533-10.766-11.702-21.385-17.983-32.04m31.29 64.08c-3.327-10.791-7.97-21.471-13.307-32.04m-48.555 191.43c4.651-.072 9.303-.144 14.027-.18m-29.852.18c5.51-.036 10.616-.108 15.466-.18m-215.799-63.81c-4.568 10.621-9.763 21.132-15.106 31.68m-15.825 31.68c5.104-10.585 10.501-21.132 15.825-31.68m229.106-223.29c4.903-.072 9.769-.108 14.746-.18m1.44 255.51c5.916-10.597 12.166-21.12 18.342-31.68M227.667 233.28c4.641 10.606 8.65 21.286 11.51 32.04m169.401 160.002c-8.576.036-18.155.036-28.773.036M243.845 297.72c.114 10.68-1.316 21.472-3.95 32.04m102.145 95.544c13.548.036 26.174.072 37.765.072m-41.002-255.672c13.501.036 26.114.072 37.765.072M477.274 393.12c6.196-10.51 12.244-21.021 17.623-31.68m-68.336-191.61c5.741-.036 11.074-.108 16.185-.18m52.151 191.43c5.269-10.424 9.832-20.997 12.948-31.68M342.04 425.052c-14.44-.036-29.619-.072-45.317-.144M239.176 265.32c2.904 10.714 4.563 21.612 4.676 32.4m263.993 31.68c3.111-10.543 4.818-21.348 4.667-32.04M196.376 169.2c5.078 10.73 10.489 21.348 15.826 32.04m0 0c5.392 10.655 10.71 21.273 15.465 32.04m178.034-63.486c7.703-.036 14.632-.072 20.86-.108m-49.633.072c10.587 0 20.178 0 28.773-.036m-111.496-.054c15.58.072 30.603.108 44.958.144m-93.513-.522c16.358.072 32.568.108 48.555.18m218.316 128.25c-.149-10.692-2.084-21.459-5.395-32.04m-267.23 63.72c-2.597 10.647-6.364 21.22-10.79 31.68m67.617 63.99c-16.071-.072-32.437-.108-48.915-.18m-24.816-242.73c5.572 9.637 11.294 19.163 16.904 28.8m209.324-28.53c3.538-.072 7.002-.108 10.43-.18m37.405 57.87c-5.468-9.71-11.634-19.237-17.983-28.8m31.65 57.6c-3.299-9.736-7.955-19.323-13.307-28.8m-37.765-57.96c6.388 9.732 12.96 19.428 19.422 29.16m-60.783-28.566c6.748-.036 12.718-.072 17.983-.108M266.871 268.56c2.865 9.646 4.562 19.44 4.675 29.16M395.63 412.776c-10.663 0-22.292-.036-34.887-.072m-136.313-.864c5.586-9.492 11.356-18.91 16.904-28.44m28.774-201.15c15.46.072 30.735.144 45.677.18m182.71 172.53c5.298-9.332 9.85-18.812 12.947-28.44m0 0c2.907-9.451 4.45-19.163 4.307-28.8M318.662 412.308c14.655.072 28.718.108 42.08.144m-88.476-.324l-47.836-.216m32.37-56.952c-4.636 9.687-9.94 19.225-15.466 28.8m274.784-86.04c-.15-9.612-2.098-19.336-5.395-28.8m-192.06 143.55c-15.194-.072-30.684-.108-46.397-.18m164.006-229.5c4.715-.036 9.019-.108 12.948-.18m2.158 229.68c-3.694.072-7.721.144-12.228.18M315.785 182.628c14.499.072 28.443.108 41.72.144M461.45 412.2c6.4-9.505 13.022-18.935 19.422-28.44m-225.51-144c4.641 9.513 8.65 19.1 11.51 28.8m125.522-85.842c9.619 0 18.238 0 25.896-.036M267.59 326.52c-2.586 9.604-6.355 19.096-10.789 28.44m194.578 57.51c3.406-.072 6.738-.144 10.07-.18M239.897 210.96c5.497 9.575 10.774 19.113 15.465 28.8m225.51 143.64c6.38-9.43 12.573-18.861 17.983-28.44M270.108 182.43c-15.767-.072-31.497-.144-47.116-.18m48.548 115.47c.116 9.625-1.278 19.287-3.95 28.8m89.916-143.856c12.547.036 24.201.072 34.887.072m29.133 230.058c6.67-.036 12.52-.072 17.624-.108m-17.624.036c-7.506.036-16.006.036-25.536.036m-20.141-218.214c11.422.036 21.997.072 31.65.072M266.511 219.6c5.523 8.603 10.826 17.169 15.465 25.92m129.12 155.718c8.683 0 16.33 0 23.018-.036M283.774 349.2c-4.557 8.764-9.861 17.342-15.465 25.92m217.597 0c6.328-8.458 12.325-16.917 17.623-25.56M407.5 194.598c8.772 0 16.54 0 23.378-.036m35.247 206.118c6.619-8.545 13.312-17.015 19.782-25.56m34.528-77.04c-.192-8.64-2.143-17.428-5.395-25.92m-233.063-26.64c4.527 8.553 8.427 17.18 11.15 25.92m210.403 78.12c5.162-8.36 9.58-16.868 12.589-25.56m-66.898 77.166c-4.279.072-9.264.108-15.106.108m-23.018-.018c-9.704 0-20.41-.036-32.01-.072m-85.96-129.744c2.874 8.662 4.522 17.508 4.676 26.28m-.007.36c.11 8.652-1.172 17.379-3.59 25.92m221.913 0c2.895-8.491 4.454-17.28 4.306-25.92m-74.081-103.77c3.808-.036 7.104-.108 10.07-.18m45.318 51.75c-5.454-8.738-11.608-17.33-17.983-25.92m-19.782-26.28c6.594 8.772 13.3 17.508 19.782 26.28m31.29 52.2c-3.317-8.776-7.94-17.403-13.307-25.92M379.445 401.292c-12.413-.036-25.53-.072-39.203-.144m-43.52-.18l-45.677-.216m0-.072c5.804-8.532 11.645-16.99 17.264-25.56m28.414 25.65c14.778.072 29.334.144 43.519.18m-46.397-77.31c-2.46 8.632-6.096 17.152-10.43 25.56m172.998-155.25c2.642-.072 5.135-.108 7.553-.18m-5.035 207.36a594.89 594.89 0 0 1-9.71.18m9.71-.36c2.51-.072 4.87-.144 7.193-.18m-35.247-206.496c5.92-.036 11.063-.072 15.466-.108m-152.138-.198l-44.958-.216m44.958.378c14.562.072 28.866.144 42.8.18m-87.758-.63c5.78 8.64 11.633 17.243 17.264 25.92m70.494-25.452c13.542.072 26.527.108 38.844.144m67.257 10.782c5.183-.036 9.595-.072 13.307-.108m13.308-.486c6.68 7.812 13.36 15.55 19.782 23.4m17.623 23.4c-5.31-7.91-11.319-15.637-17.623-23.4m30.57 46.8c-3.208-7.936-7.723-15.724-12.947-23.4m-189.902-46.872l-42.44-.216m234.14 140.328c5.049-7.532 9.312-15.212 12.229-23.04m-124.444 69.732c-11.454-.036-23.612-.072-36.326-.144m131.278-23.508c6.234-7.594 12.099-15.224 17.263-23.04M357.146 204.588c12.596.036 24.634.108 35.967.144m131.996 93.348c-.182-7.812-2.007-15.736-5.035-23.4m-245.29-70.2c5.865 7.812 11.694 15.55 17.263 23.4m25.177-23.31c13.59.072 26.96.108 39.922.18m-39.203 69.57c2.633 7.822 4.17 15.828 4.316 23.76m-13.308 46.08c-4.423 7.803-9.596 15.421-15.106 23.04m178.034 23.4c6.68-7.668 13.362-15.298 19.782-23.04m-98.548-162.576c10.55.036 20.285.072 29.132.072m37.405 186.03c-3.578.036-7.857.072-12.947.108m-170.121-.522l43.16.216M464.685 204.75c1.834-.072 3.488-.108 5.035-.18m-150.7 116.91c-2.369 7.804-5.886 15.46-10.07 23.04m51.432 46.35c-13.213-.072-26.798-.108-40.642-.18m102.504-185.652c7.874 0 14.79 0 20.86-.036m24.458 185.688c-2.073.072-4.554.108-7.553.18M292.047 227.52c5.453 7.738 10.611 15.513 15.106 23.4m214 70.2c2.687-7.545 4.12-15.348 3.941-23.04m-217.941-47.16c4.382 7.688 8.138 15.488 10.79 23.4m78.766 116.784c10.597.036 20.308.072 29.133.072m41.721-.306c1.717-.072 3.251-.108 4.676-.18m-15.466-185.94c3.085-.036 5.699-.108 7.913-.18m-17.983 186.552c-6.024.036-12.94.036-20.861.036M322.247 298.08c.154 7.825-1.157 15.724-3.585 23.4m-42.08 69.12c5.878-7.668 11.72-15.298 17.263-23.04m185.227 14.04c6.514-6.948 12.954-13.858 19.062-20.88m-21.939 21.15a47.053 47.053 0 0 0 2.877-.18m46.397-104.13c-3.048-7.217-7.308-14.285-12.229-21.24m-103.943-41.976c9.672.036 18.568.072 26.616.072m-96.75-.288a441511 441511 0 0 0-39.923-.216m177.315-.072c6.61 7.055 13.146 14.11 19.421 21.24m2.518 125.64c5.98-6.86 11.629-13.796 16.545-20.88M330.53 255.96c4.247 6.849 7.86 13.809 10.43 20.88m0 0c2.636 7.1 4.164 14.388 4.316 21.6m-6.474-84.51c12.766.072 25.272.108 37.405.18m3.597 167.76c-12.23-.072-24.868-.108-37.765-.18m188.464-83.61c-.19-6.972-2.006-14.055-5.035-20.88m-209.684-42.48c5.338 6.899 10.34 13.797 14.746 20.88m142.787-41.49a62.747 62.747 0 0 0 3.237-.18m-6.474 167.796c-2.998.036-6.69.072-11.15.108m7.913-167.382c2.641-.036 4.762-.108 6.474-.144m2.877 167.4c-1.475.072-3.38.108-5.755.144m-128.4-.324l-40.642-.216m213.64-41.112c4.76-6.811 8.78-13.771 11.51-20.88m-150.34-105.012c11.622.036 22.652.108 33.09.144M341.68 319.32c-2.184 6.963-5.422 13.779-9.352 20.52m126.602 42.282c-5.349.036-11.546.036-18.702.036m14.746-167.724c4.695-.036 8.639-.036 11.869-.108m-26.615 167.49c-8.037 0-16.92-.036-26.616-.072M299.24 213.84c5.796 6.935 11.48 13.87 16.905 20.88m197.095 21.6c-5.183-7.192-11.074-14.235-17.264-21.24M301.398 381.6c5.822-6.935 11.531-13.87 16.905-20.88m208.245-41.4c2.71-6.812 4.162-13.883 3.933-20.88m-94.568-84.042c7.222 0 13.589 0 19.062-.036m-109.71 84.078c.148 6.985-1.001 14.043-3.225 20.88m-9.71 20.52c-4.212 7.084-9.132 14.019-14.387 20.88m61.862 20.988c11.753.036 22.952.108 33.449.144m70.854-159.372c6.381 6.335 12.69 12.67 18.702 19.08m29.493 75.6c2.472-6.092 3.763-12.48 3.579-18.72m-51.055 75.15c.858-.036 1.43-.108 1.798-.18m16.185-131.85c5.962 6.286 11.589 12.608 16.545 19.08m-166.884-.36c3.972 6.13 7.32 12.37 9.71 18.72m173.358 19.44c-.184-6.397-1.914-12.87-4.675-19.08m-176.235 56.52c-3.959 6.35-8.626 12.554-13.668 18.72m88.118 18.972c-9.705-.036-20.077-.072-30.931-.144m88.477-.108c6.421-6.215 12.693-12.393 18.703-18.72M394.192 222.606c10.722.036 20.962.108 30.571.108m55.748 151.092c-2.64.036-5.997.072-10.07.108m-21.22-150.876c6.585 0 12.315 0 17.263-.036m64.74 56.718c-2.949-6.497-7.092-12.844-11.87-19.08m-34.167 112.788c-1.114.072-2.635.108-4.676.144m-117.61-.324l-38.125-.216m41.708-74.592c.144 6.252-.895 12.578-2.864 18.72M362.541 279c2.381 6.369 3.81 12.96 3.956 19.44m-25.536 56.16c-5.097 6.314-10.566 12.517-16.185 18.72m99.987-150.336c8.93.036 17.083.036 24.457.072M505.328 354.6c5.764-6.166 11.125-12.331 15.825-18.72m-54.669-112.806c4.202 0 7.654-.036 10.43-.108M363.261 317.16c-2.099 6.243-5.246 12.375-8.992 18.36m116.171 38.322c-4.787.036-10.422.036-16.904.036m0 .018c-7.352 0-15.516-.036-24.457-.072M322.619 222.48c5.58 6.215 11.011 12.431 16.184 18.72m182.35 94.68c4.462-6.08 8.266-12.307 10.79-18.72m-55.029-94.428c2.122-.036 3.777-.072 5.036-.144m0 .162a21.736 21.736 0 0 0 2.158-.18m-124.444 0c11.83.072 23.364.108 34.528.18m-34.528-.36c-12.32-.072-24.826-.144-37.405-.18m16.185 18.99c5.11 6.179 9.848 12.394 14.027 18.72m10.79 113.49c11.924.072 23.59.108 34.887.18m63.66-143.01h15.466m4.316 135.706c-4.35.036-9.517.036-15.466 0m70.494-84.766c-2.805-5.775-6.682-11.403-11.15-16.92m-31.65 101.628c-.762.072-1.961.108-3.596.144M372.972 263.88c3.808 5.529 7.05 11.169 9.35 16.92m127.322-33.48c5.686 5.685 11.074 11.408 15.825 17.28m-31.65 101.43c.497-.036.788-.144.705-.18m46.41-67.41c-.23-5.677-1.916-11.427-4.675-16.92m-49.993-50.868c1.91-.036 3.322-.072 4.316-.144M347.076 365.85c11.992.072 23.873.144 35.606.18m-35.966-.27c5.392-5.603 10.597-11.205 15.466-16.92m165.085-16.56c4.315-5.516 7.954-11.143 10.43-16.92m-177.673-68.4c4.718 5.59 9.107 11.181 12.947 16.92m12.933 34.56c.155 5.652-.851 11.379-2.862 16.92m32.01 50.67c-10.481-.036-21.296-.108-32.37-.18m60.784.504c-8.905-.036-18.4-.072-28.414-.108m79.486-.126c6.07-5.615 11.994-11.23 17.623-16.92M344.558 230.04c5.34 5.615 10.57 11.23 15.466 16.92m79.126-16.416c8.145.036 15.59.036 22.299.072m-82.363-.306c-11.48-.072-23.147-.108-34.888-.18m193.5 85.23c2.237-5.48 3.428-11.255 3.211-16.92m-50.327-68.148c.556-.036.904-.072 1.079-.144M381.963 280.8c2.405 5.793 3.801 11.735 3.956 17.64m104.303 67.824a521.78 521.78 0 0 1-8.632.072m-4.316-135.72c3.655 0 6.616-.036 8.992-.072m-20.142 135.792c-6.697 0-14.13-.036-22.299-.072M374.77 331.92c-3.66 5.739-7.941 11.366-12.588 16.92m16.904-118.692c10.967.072 21.674.108 32.01.144M512.16 349.2c5.517-5.565 10.663-11.13 15.106-16.92m-35.606-102.24c6.179 5.735 12.21 11.47 17.983 17.28m-98.548-16.794c9.882.036 19.245.072 28.054.108m-55.748 84.726c-1.938 5.644-4.807 11.139-8.273 16.56m55.748 27.612c-9.617-.036-19.605-.108-29.852-.144m56.108.126c-8.233-.036-17.022-.072-26.256-.108m-48.914-15.246c-4.524 5.127-9.344 10.142-14.387 15.12m165.806-30.24c4.033-4.917 7.432-9.944 9.71-15.12m-141.707 0c-1.769 5.018-4.385 9.963-7.553 14.76m93.513-91.224c3.384 0 6.129-.036 8.272-.072m3.237-.252c.288-.036.403-.108.345-.144m-134.14.252c5.015 5.028 9.847 10.019 14.386 15.12m20.86 30.6c2.151 5.194 3.412 10.535 3.598 15.84m73.73 61.056c-6.131 0-13.002-.036-20.5-.072m38.484-122.292c1.513-.036 2.568-.072 3.237-.144m20.141 106.812c5.231-4.966 10.127-9.932 14.387-15.12m-129.496-30.6c.15 5.172-.746 10.42-2.501 15.48m90.276 45.892c-3.924 0-8.587.036-14.027 0m-80.205-122.464c10.116.072 19.971.108 29.492.144m46.037-.072h14.387m58.984 61.38c-.223-5.172-1.786-10.457-4.316-15.48m-25.536-30.6c5.309 5.098 10.323 10.233 14.747 15.48m-32.01-30.96c5.928 5.148 11.745 10.258 17.263 15.48m25.177 30.6c-2.635-5.31-6.258-10.432-10.43-15.48m-139.55-.36c3.513 4.942 6.502 9.994 8.632 15.12m142.786 31.32c2.27-4.893 3.443-10.08 3.208-15.12m-46.727 60.984c-2.006.036-4.619.072-7.912.072m-65.1-122.49c9.103.036 17.76.072 25.896.108M502.45 359.28c5.846-5.015 11.543-9.993 16.905-15.12m-66.898-106.776c7.512.036 14.358.036 20.501.072m-79.126 91.584c-3.402 5.15-7.432 10.154-11.869 15.12m-14.387 15.21c11.311.072 22.473.144 33.45.18m-21.58-107.19c4.47 4.966 8.644 10.006 12.228 15.12m110.902 92.052c.216-.036.18-.108-.036-.144m-.09 0c-.546.072-1.493.108-2.877.144M397.43 237.15c-10.642-.072-21.432-.108-32.37-.18M501.37 353.7h-12.947m-23.379-109.836c6.848.036 13.07.036 18.703.072M522.95 257.4c5.06 4.605 9.823 9.248 14.027 14.04m-28.773 82.224c-1.717.036-3.983.072-6.834.072m-114.373-.486c10.471.072 20.794.108 30.931.18m-.719-69.03c1.92 4.701 3.095 9.588 3.237 14.4m130.558 0c-.214-4.597-1.675-9.23-3.956-13.68m-38.844 68.634c1.298-.036 2.124-.036 2.518-.108m-123.725-.486c4.669-4.51 9.154-9.058 13.308-13.68m109.697 14.04c5.473-4.523 10.797-9.045 15.826-13.68m21.22-54.72c-2.546-4.694-6.028-9.206-10.07-13.68m-123.006-28.17c-9.778-.072-19.778-.108-29.852-.18m155.375 83.07c3.737-4.424 6.882-8.959 8.991-13.68m-139.19-41.76c3.202 4.486 5.926 9.009 7.913 13.68m93.502 69.012c.05 0-.075-.108-.349-.144m-40.642.486c-7.551-.036-15.584-.072-24.097-.108m80.205-13.806c4.865-4.473 9.363-8.983 13.307-13.68m-42.44-82.584c2.994 0 5.367-.036 7.193-.072m0 .09c1.383-.036 2.317-.036 2.877-.108m0-.126c5.58 4.655 11.012 9.31 16.185 14.04m-34.527 96.336c-5.586 0-11.869-.036-18.703-.072m-28.413-110.178c8.345.036 16.282.072 23.737.108m-80.924-.234c4.754 4.548 9.36 9.095 13.667 13.68m109.084-13.428c.216-.036.18-.108 0-.144m-61.248 109.944c-8.946-.036-18.19-.108-27.695-.144m-3.596-109.8c9.275.036 18.29.108 26.975.144M420.43 298.8c.14 4.56-.597 9.194-2.14 13.68m-20.502-55.44c4.223 4.51 8.109 9.021 11.51 13.68m74.45-26.82h12.948m-85.24 81.9c-3.191 4.659-6.983 9.206-11.15 13.68m147.822-27c2.043-4.437 3.102-9.095 2.837-13.68m-132.676 13.68c-1.571 4.527-3.947 8.979-6.834 13.32m87.04 22.536c-5.176 0-10.943-.036-17.265-.072m70.854-61.704c-2.366-4.325-5.618-8.5-9.351-12.6m-49.274-24.66h11.869m12.948 98.946c-.208.108-.83.072-1.799.108m-6.114-.018c2.605 0 4.631-.036 6.114-.072M433.755 311.4c-1.486 4.058-3.732 8.006-6.474 11.88m125.882-11.88c1.802-3.97 2.702-8.16 2.486-12.24M429.8 249.012c-9.06-.036-18.303-.108-27.695-.144m23.378 24.732c2.907 3.994 5.413 8.098 7.194 12.24m73.011-36.504c2.677 0 4.81-.036 6.474-.072m20.142 86.616c4.594-4.006 8.89-8.049 12.588-12.24m-68.696-74.358c6.298.036 12.077.036 17.264.036m-63.66-.09c8.543.036 16.827.108 24.816.144m-52.51-.612c4.38 4.043 8.612 8.123 12.587 12.24m21.2 37.8c.158 4.213-.594 8.463-2.137 12.6m-16.185 24.12c-3.897 4.154-8.13 8.197-12.588 12.24m49.633-98.514c7.61.036 14.816.072 21.58.108m-61.503 12.006c3.807 4.019 7.357 8.074 10.43 12.24m87.04-24.246c1.239-.036 2.09-.036 2.517-.108m-55.748 98.766c-8.134-.036-16.527-.072-25.176-.144m80.868-98.514c.107-.036 0-.072-.288-.108m-.016-.126c5.207 4.163 10.303 8.363 15.106 12.6m0 0c4.682 4.15 9.034 8.3 12.948 12.6m-137.391 73.53c9.751.072 19.355.108 28.773.18m-1.08-62.19c1.905 4.234 3.085 8.615 3.238 12.96m120.127.36c-.226-4.213-1.695-8.5-3.956-12.6m-34.528 61.56c5.1-4.055 10.088-8.11 14.747-12.24m-51.073 12.474c-6.973-.036-14.43-.072-22.299-.108m85.96-24.606c3.456-3.957 6.36-8.024 8.272-12.24m-34.895 36.612c.065-.036-.291-.108-.712-.144m-7.193.432h-11.869m-70.854-25.02c-2.877 4.178-6.308 8.246-10.07 12.24M556.4 288c-2.185-3.843-5.208-7.539-8.632-11.16m-99.986 33.12c-1.317 3.662-3.31 7.287-5.755 10.8m118.33-21.6c-.252-3.745-1.547-7.564-3.597-11.16m-138.47-34.2c4.168 3.695 8.15 7.39 11.868 11.16m16.545 22.32c1.69 3.873 2.733 7.895 2.877 11.88m85.96-33.48c4.396 3.671 8.57 7.342 12.228 11.16m-60.783-22.518c5.768.036 11.055.036 15.825.036m18.7.036c.027 0-.11-.072-.357-.108m0-.126c4.944 3.802 9.777 7.642 14.386 11.52m-114.013 77.508c9.02.072 17.891.108 26.615.144m-17.983-78.372c3.558 3.658 6.857 7.353 9.71 11.16m-18.342 66.96c4.06-3.682 7.934-7.365 11.51-11.16m11.149-77.634c7.81.036 15.364.072 22.659.108m25.176 88.92c-6.411-.036-13.27-.072-20.5-.108m78.766-22.086c3.293-3.595 6.057-7.303 7.912-11.16m-50.353 33.66h10.79m1.08-89.226c1.117-.036 1.81-.036 2.157-.108M449.56 299.16c.148 3.745-.482 7.527-1.777 11.16m23.737 33.012c-7.545-.036-15.35-.072-23.378-.144m-5.754-22.428c-2.656 3.819-5.836 7.49-9.352 11.16m34.168-77.634c6.986.036 13.568.072 19.782.108m37.045 89.19c-1.382.036-3.288.036-5.754.072m39.563-33.336c1.831-3.62 2.747-7.465 2.468-11.16m-116.122-45.108c-8.377-.036-16.901-.108-25.536-.144m120.127 78.372c4.23-3.645 8.127-7.327 11.51-11.16m-110.417-45c2.763 3.633 5.116 7.34 6.834 11.16m56.107-32.94h10.79m0 .036c2.55 0 4.576-.036 6.114-.072m-11.869 89.334c-4.721 0-10.033-.036-15.825-.036m32.01-.288c1.022-.036 1.717.072 1.799-.108m-1.08-.126c4.863-3.576 9.614-7.151 14.027-10.8m-12.95 11.034c.04-.108-.478-.072-1.076-.108m-90.995-84.726c3.782 3.335 7.415 6.67 10.79 10.08m83.442-9.72c4.607 3.336 9.068 6.671 13.307 10.08m-30.212-9.9h10.07m-63.66-.288c-7.764-.036-15.676-.108-23.737-.144m128.76 50.652c1.58-3.248 2.37-6.72 2.107-10.08m-107.13-40.554c7.176.036 14.166.072 20.86.108m0 .27c6.475.036 12.614.072 18.344.072M459.65 288.36c1.688 3.513 2.686 7.212 2.878 10.8m58.625-40.122c2.266 0 4.028-.036 5.395-.036m-25.177 79.992c-5.851-.036-12.11-.072-18.702-.108m61.862-9.846c3.968-3.284 7.638-6.607 10.79-10.08m-93.174-19.8c.132 3.385-.363 6.807-1.418 10.08m40.642 29.682c5.39.036 10.33.036 14.747.036m10.07.342h-10.07m-69.056-10.62c-3.243 3.436-6.744 6.758-10.43 10.08m96.024.126c.076.108-.603.072-1.432.108m1.438 0c-.111-.108-.52-.072-1.079-.108m-5.754.072c2.295 0 4.094-.036 5.395-.036m.36-.162c4.525-3.216 8.866-6.431 12.947-9.72m10.79-9.72c3.019-3.235 5.516-6.582 7.193-10.08m-117.97-40.68c3.297 3.31 6.37 6.657 8.992 10.08m0-.36c2.49 3.272 4.577 6.62 6.114 10.08m69.05-29.646c.048 0-.237-.072-.713-.108m-80.565 70.074c3.097-3.31 5.94-6.62 8.272-10.08m26.975 20.394c-6.84-.036-13.938-.072-21.22-.108m-.72-29.646c-1.167 3.303-2.882 6.568-5.035 9.72m108.978-19.8c-.265-3.385-1.59-6.844-3.596-10.08m-99.627 49.932c-8.111-.036-16.408-.108-24.817-.144m104.662-69.948c4.121 3.323 8.02 6.646 11.51 10.08m0 0c3.278 3.261 6.148 6.596 8.272 10.08m-64.38-30.078c5.235.036 10.067.036 14.386.036m15.466.018c.935-.036 1.546 0 1.798-.072m-70.854 12.456c3.046 2.95 5.829 5.938 8.273 9m94.232 36.72c2.691-2.913 4.982-5.9 6.474-9m-92.461-9c.153 3.025-.343 6.086-1.412 9m74.091-36c3.883 2.963 7.504 5.927 10.79 9m-89.556 35.64c1.976-2.793 3.61-5.698 4.675-8.64m84.881-27c2.978 2.914 5.628 5.902 7.553 9m-76.608-27.216c5.946.036 11.593.072 16.904.072m59.704 27.144c1.778 2.914 2.988 5.975 3.237 9m-35.247-36.144c.959 0 1.558 0 1.798-.072m-87.038-.144c3.395 2.975 6.68 5.95 9.71 9m2.878 54c-3.011 3.075-6.286 6.037-9.711 9m17.264-18c-2.127 3.098-4.693 6.086-7.553 9m67.617-62.802c2.116 0 3.794 0 5.035-.036m-63.66-.27c-7.19-.036-14.49-.072-21.94-.144m87.394.486c.045 0-.268-.072-.715-.108m-62.582 26.514c1.439 3.178 2.338 6.468 2.518 9.72m60.064-36.36c4.333 3.095 8.554 6.19 12.588 9.36m-41.361-9.198c4.866.036 9.29.036 13.307.036m20.501 72.036c-.144-.072-.54-.072-1.079-.108m28.773-26.766c1.329-2.889 1.993-6 1.749-9m-29.45 35.784c.084.036-.548.072-1.432.072m.36.144c4.127-2.963 8.108-5.925 11.87-9m-12.23 9.162c-1.114.036-2.661.036-4.675.036m16.904-9.198c3.693-2.925 7.087-5.925 10.07-9m-35.966 18.18h8.992m-67.257-54.9c2.332 2.925 4.287 5.925 5.754 9m52.152 45.918c-3.996 0-8.432-.036-13.308-.036m-17.264-.378c6.065.036 11.87.072 17.264.072m-16.904.018c-6.383-.036-12.989-.072-19.782-.108m-4.316-72c6.563.036 12.905.072 19.063.108m30.211-.054h9.352m-77.328 71.928c7.784.036 15.494.108 23.018.144m-10.07-3.852c3.085-2.603 5.987-5.243 8.632-7.92m6.833-8.28c-1.91 2.823-4.262 5.57-6.833 8.28m30.571 8.154c-5.81-.036-11.804-.072-17.983-.108m-4.316-64.8c6.073.036 11.96.072 17.623.108m4.676 65.07c5.56.036 10.86.072 15.825.072m-33.808-.324c-6.937-.036-14.023-.072-21.22-.144m49.993-64.746c4.457.036 8.545.036 12.229.036m44.598 40.842c-1.417 2.737-3.58 5.365-6.114 7.92m-20.501 16.362c-1.035.036-2.461.036-4.316.036m-5.035-65.16c1.957 0 3.515 0 4.675-.036M476.914 282.6c2.014 2.567 3.74 5.207 5.036 7.92m79.845-7.56c2.84 2.672 5.312 5.42 7.193 8.28m-85.96 16.2c-.907 2.593-2.286 5.113-3.956 7.56m72.652-40.32c3.632 2.723 7.039 5.445 10.071 8.28m-17.624 48.6c3.89-2.603 7.631-5.207 11.15-7.92m-29.492-57.06h8.632m6.11.036c.047 0-.287-.072-.716-.072m32.308 32.976c.27 2.652-.347 5.377-1.736 7.92m-1.439-16.2c1.749 2.672 2.94 5.495 3.237 8.28m-33.089-32.904c.788 0 1.268 0 1.439-.072m-57.187 40.896c.8-2.71 1.183-5.533 1.055-8.28M460.37 266.4c3.145 2.628 6.18 5.256 8.991 7.92m12.589 16.2c1.433 2.937 2.362 5.987 2.517 9m55.748-33.12c3.959 2.735 7.807 5.47 11.51 8.28m-6.475 56.754c-.148-.072-.52-.072-1.079-.108m-46.037-64.782c5.441.036 10.584.072 15.466.072m31.284 65.088c.07.036-.415.072-1.072.072m-74.45-57.456c2.756 2.603 5.324 5.243 7.552 7.92m41.721 49.482c4.467.036 8.531.036 12.229.036m8.632-.018h-8.632m24.097-8.46c3.442-2.567 6.584-5.207 9.352-7.92"/><path d="M480.51 266.634l-20.14-.108m90.275 62.01c-.166-.072-.54-.072-1.079-.072M556.4 277.2c3.353 2.495 6.52 4.952 9.351 7.56m-82.363 36c2.307-2.352 4.394-4.74 6.115-7.2m47.835 14.958c-3.475 0-7.324-.036-11.51-.036m48.196-21.762c-1.334 2.51-3.354 4.91-5.755 7.2m-2.518-29.16c2.689 2.327 5.041 4.69 6.834 7.2M545.25 328.5h-7.912m-65.459-58.86a144.82 144.82 0 0 1 8.272 7.2m12.948 29.88c-.816 2.33-2.04 4.622-3.596 6.84m21.939 14.904c5.065.036 9.872.072 14.387.072m-30.932-.09c5.676.036 11.203.072 16.545.108m33.09-58.698c.754 0 1.258 0 1.438-.072m29.418 29.736c.28 2.376-.245 4.897-1.364 7.2m-98.908 21.6c2.837-2.363 5.487-4.726 7.913-7.2m23.737-51.246c-5.195-.036-10.615-.072-16.184-.108m4.315 58.428l-19.781-.108m19.03-28.566c.15 2.4-.224 4.873-1.047 7.2m66.898 14.4c3.176-2.338 6.09-4.713 8.632-7.2m-78.047-44.046l-18.343-.108m60.064.414h7.912m9.351 58.356c.644 0 1.144-.036 1.073-.072"/><path d="M545.61 269.784c.221.036.36.072.36.072m-58.985 14.184c1.877 2.338 3.497 4.75 4.676 7.2m29.132-21.438c4.175.036 8.05.036 11.51.036m17.263 58.644c-1.06.036-2.46.036-4.316.036m4.316-.198c3.64-2.375 7.129-4.75 10.43-7.2m-53.23-51.336c4.947.036 9.635.036 14.027.072m35.607 7.704c-3.437-2.545-7.058-5.052-10.79-7.56m-65.459 6.84c2.53 2.375 4.833 4.75 6.834 7.2m6.833 15.12c-.176-2.664-.92-5.329-2.157-7.92m48.554-21.042c1.784 0 3.246 0 4.316-.036m27.694 22.158c1.755 2.29 2.925 4.764 3.237 7.2"/><path d="M56.108 537.12L80.205 513"/><path d="M276.582 390.6a1268.458 1268.458 0 0 1 24.816-9m85.6-28.44a1706.744 1706.744 0 0 0-19.422 6.12m83.083-24.48c-4.713 1.32-9.389 2.64-14.027 3.96m77.687-89.64a269.83 269.83 0 0 0 7.194 5.04m-99.987 88.92c4.986-1.44 10.01-2.88 15.106-4.32M545.61 270a349.31 349.31 0 0 1-5.395-3.24m-153.217 86.4c5.945-1.788 11.927-3.612 17.984-5.4m16.544-4.68a1798.533 1798.533 0 0 0-16.544 4.68m-58.266 18a1723.256 1723.256 0 0 0-21.94 7.2"/><path d="M562.874 29.88L536.259 56.52"/><path d="M475.476 327.96c-3.982 1.067-7.925 2.173-11.87 3.24M101.786 491.4s12.975-13.145 20.5-19.44m384.481-228.6c-2.591-2.028-5.146-4.056-7.553-6.12m0 0a198.847 198.847 0 0 1-7.552-6.84m36.326 28.44a532.98 532.98 0 0 1-6.834-4.68m19.062 12.24c-1.954-1.188-3.836-2.412-5.754-3.6m-20.142-13.68a235.094 235.094 0 0 1-7.193-5.76m27.335 19.44c-2.171-1.32-4.342-2.64-6.474-3.96m-36.326-28.8c-2.64-2.508-5.17-5.016-7.553-7.56m6.474-120.6s-12.416 12.775-17.264 19.44m-13.668 60.84a66.783 66.783 0 0 1-2.158-12.96m6.115 162c-4.341 1.175-8.682 2.387-12.948 3.6m22.659-213.12c-4.262 5.72-7.776 11.624-10.43 17.64"/><path d="M592.726 0L563.234 29.52"/><path d="M0 593.28L29.492 563.76"/><path d="M145.664 454.32c7.992-5.282 16.504-10.418 25.536-15.48m175.876-73.08c6.854-2.172 13.82-4.344 20.86-6.48m108.619-145.44a110.59 110.59 0 0 1-6.834-9.36m-5.755-10.8a74.695 74.695 0 0 1-4.316-11.52M301.398 381.6c7.633-2.772 15.45-5.545 23.378-8.28m139.19-179.28c1.65 3.529 3.592 6.985 5.755 10.44M197.815 424.8c8.54-4.262 17.412-8.45 26.615-12.6m26.615-11.52c-9.132 3.696-18.004 7.391-26.615 11.16m238.457-272.88c-2.212 5.181-3.783 10.51-4.675 15.84"/><path d="M80.205 513L101.785 491.4"/><path d="M458.212 154.8a77.758 77.758 0 0 0-.624 14.4"/><path d="M29.852 563.4L56.467 536.76"/><path d="M512.521 80.28L490.941 101.88"/><path d="M476.555 213.84a141.477 141.477 0 0 0 7.193 8.64M276.582 390.6c-8.721 3.31-17.258 6.695-25.537 10.08M171.2 438.84c8.438-4.779 17.322-9.446 26.615-14.04m-52.151 29.52c-8.447 5.73-16.265 11.61-23.378 17.64"/><path d="M536.618 56.16L512.521 80.28"/><path d="M592.726 593.28L563.234 563.76"/><path d="M170.121 154.8c8.319 4.887 17.083 9.662 26.255 14.4M524.75 343.08c2.228-1.44 4.493-2.88 6.833-4.32m-59.704-69.12c-3.873-1.08-7.71-2.16-11.51-3.24m-58.265-17.64c5.465 1.692 10.968 3.348 16.545 5.04m15.106 4.68c4.663 1.32 9.326 2.64 14.027 3.96"/><path d="M562.874 563.4L536.259 536.76"/><path d="M447.422 262.8c4.278 1.188 8.594 2.412 12.948 3.6m1.079 145.8c1.197-3.769 2.768-7.501 4.675-11.16M299.24 213.84a1492.288 1492.288 0 0 1-24.457-9.36m109.338 38.88c5.945 1.933 11.926 3.827 17.983 5.76m-57.546-19.08a1511.686 1511.686 0 0 1-21.94-7.56m149.62 168.12c2.062-3.037 4.376-6.037 6.834-9m-5.395 90c-4.133-5.625-7.553-11.434-10.07-17.28m2.517-53.64c1.753-3.421 3.803-6.77 6.115-10.08m30.211-31.32a228.65 228.65 0 0 1 7.913-6.12"/><path d="M80.205 80.28L101.785 101.88"/><path d="M490.582 491.4s-12.2-12.8-16.905-19.44M101.785 101.88s12.837 13.145 20.141 19.44M458.931 424.8c.37-4.225 1.222-8.45 2.518-12.6M122.286 121.32c6.98 6.029 14.665 11.872 23.018 17.64m77.688 43.2c-9.195-4.283-18.091-8.603-26.616-12.96m-51.431-30.24c7.835 5.366 16.264 10.659 25.176 15.84m308.951 226.8c2.333-2.81 4.887-5.545 7.553-8.28m-52.87-114.84c-5.085-1.56-10.096-3.12-15.106-4.68m112.934 84.96c2.133-1.32 4.304-2.64 6.474-3.96"/><path d="M29.852 29.88L56.467 56.52"/><path d="M56.108 56.16L80.205 80.28"/><path d="M494.538 365.76a238.418 238.418 0 0 1 7.912-6.48"/><path d="M0 0L29.492 29.52"/><path d="M543.812 331.56c1.905-1.067 3.81-2.173 5.754-3.24m-62.94 45a187.544 187.544 0 0 1 7.912-7.2"/><path d="M512.521 513L490.941 491.4"/><path d="M538.057 335.16c2-1.226 4.039-2.413 6.114-3.6m-321.18-149.4a884.782 884.782 0 0 0 26.256 11.52"/><path d="M536.618 537.12L512.521 513"/><path d="M510.003 353.52a227.629 227.629 0 0 1 7.553-5.4m-58.265 90.72a55.279 55.279 0 0 1-.478-14.04m-93.754-187.56c6.28 2.028 12.634 4.092 19.062 6.12m-134.874-49.68c8.314 3.505 16.814 7.01 25.536 10.44m69.775 25.92a1673.214 1673.214 0 0 0 20.5 6.84m-65.818-23.04c7.657 2.893 15.425 5.785 23.378 8.64m140.989 231.84c-2.07-5.099-3.532-10.271-4.316-15.48m58.265-90.72c2.336-1.584 4.746-3.132 7.194-4.68"/><path d="M592.546 148.32L592.546 74.16"/><path d="M592.546 222.48L592.546 148.32"/><path d="M592.546 370.8L592.546 296.64"/><path d="M592.546 593.28L592.546 519.12"/><path d="M592.546 444.96L592.546 370.8"/><path d="M592.546 296.64L592.546 222.48"/><path d="M592.546 0L592.546 74.16"/><path d="M592.546 519.12L592.546 444.96"/><path d="M74.091 0.18L148.182 0.18"/><path d="M444.545 0.18L370.454 0.18"/><path d="M222.272 0.18L148.182 0.18"/><path d="M74.091 0.18L0 0.18"/><path d="M518.635 0.18L444.545 0.18"/><path d="M592.726 0.18L518.635 0.18"/><path d="M296.363 0.18L222.272 0.18"/><path d="M370.454 0.18L296.363 0.18"/><path d="M0.18 148.32L0.18 222.48"/><path d="M0.18 370.8L0.18 444.96"/><path d="M0.18 444.96L0.18 519.12"/><path d="M0.18 74.16L0.18 148.32"/><path d="M0.18 296.64L0.18 370.8"/><path d="M0.18 222.48L0.18 296.64"/><path d="M0.18 593.28L0.18 519.12"/><path d="M0.18 0L0.18 74.16"/><path d="M0 593.1L74.091 593.1"/><path d="M74.091 593.1L148.182 593.1"/><path d="M222.272 593.1L296.363 593.1"/><path d="M296.363 593.1L370.454 593.1"/><path d="M148.182 593.1L222.272 593.1"/><path d="M370.454 593.1L444.545 593.1"/><path d="M518.635 593.1L444.545 593.1"/><path d="M518.635 593.1L592.726 593.1"/><path d="M477.634 415.08c1.24 4.357 3.197 8.714 5.754 12.96M512.521 459c7.995 6.074 24.097 18 24.097 18m-58.984-61.92c-1.186-3.803-1.799-7.68-1.799-11.52m5.036-20.16a64.766 64.766 0 0 1 5.035-8.28m5.755-7.56c-2.241 2.483-4.292 5.003-6.115 7.56m58.985-46.08c1.786-.96 3.572-1.92 5.395-2.88m-5.395 2.88c-1.967 1.08-3.86 2.16-5.755 3.24m-6.114 3.6c2.014-1.188 4.064-2.412 6.114-3.6m-55.747 95.76c2.955 4.935 6.734 9.723 11.15 14.4m11.149-87.84a124.19 124.19 0 0 0-6.834 6.12m-17.623 23.04a47.652 47.652 0 0 0-3.597 9.36m0 0a38.936 38.936 0 0 0-1.439 10.44m49.994-63.72c-2.353 1.44-4.63 2.844-6.834 4.32m35.966-20.52c-1.715.828-3.393 1.692-5.035 2.52m-30.931 18a205.774 205.774 0 0 0-6.834 5.04"/><path d="M536.259 476.64L562.874 496.8"/><path d="M532.303 335.88c-2.208 1.32-4.378 2.603-6.474 3.96"/><path d="M592.726 519.12L563.234 496.8"/><path d="M512.161 349.2a155.01 155.01 0 0 0-6.833 5.4m-7.194 6.12a94.087 94.087 0 0 0-6.473 6.84m68.336-46.44a577.2 577.2 0 0 0-4.676 2.16M494.178 442.8c5.138 5.573 11.194 10.961 17.983 16.2m32.73-135.36c-1.969.816-3.862 1.668-5.755 2.52m11.15-5.04a175.394 175.394 0 0 0-5.395 2.52m-5.755 2.52a212.375 212.375 0 0 0-5.754 2.88m-40.643 39.24c.373-2.317 1.117-4.634 2.158-6.84m65.1-44.28c1.426-.587 2.853-1.213 4.316-1.8m-30.931 13.68c-2.088 1.068-4.139 2.135-6.115 3.24"/><path d="M592.726 444.96L563.234 430.2"/><path d="M564.313 315.36c1.306-.48 2.65-.96 3.956-1.44m-64.74 35.64c-1.748 1.764-3.319 3.564-4.675 5.4m-6.115 20.88c.521 2.905 1.638 5.81 3.237 8.64m-3.339-16.2a23.472 23.472 0 0 0 .102 7.56m10.79 18.36c3.647 3.737 8 7.325 12.948 10.8m-20.14-20.52c1.806 3.34 4.264 6.568 7.192 9.72m56.468-77.04c-1.583.6-3.13 1.2-4.676 1.8m-5.035 2.16a685.56 685.56 0 0 1 5.035-2.16m-40.282 21.24c-2.165 1.428-4.216 2.856-6.115 4.32m12.229-8.64a135.433 135.433 0 0 0-6.114 3.96m12.228-7.56c-2.123 1.176-4.137 2.388-6.114 3.6m-22.659 19.08c-1.46 1.979-2.67 4.031-3.597 6.12m8.632-11.52a72.42 72.42 0 0 1 5.395-5.04m54.31 85.68s-17.805-8.769-26.616-13.32M516.478 405c5.934 4.12 12.685 8.055 20.14 11.88m1.08-101.52a152.476 152.476 0 0 0-5.395 1.8m10.79-3.24c-1.848.48-3.659.96-5.396 1.44m24.817-6.12c1.426-.346 2.852-.691 4.316-1.08m-45.677 13.32c1.7-.745 3.51-1.452 5.395-2.16m5.395-2.16c-1.87.588-3.669 1.212-5.395 1.8m47.476-12.24c-1.2.252-2.436.468-3.597.72"/><path d="M592.726 370.8L563.234 363.24"/><path d="M507.845 329.4c-.959 1.033-1.712 2.1-2.158 3.24m0 .36c-.65 1.176-.882 2.424-.603 3.6m2.761-7.2c.981-.996 2.216-1.956 3.597-2.88m-6.474 10.08c.231 1.491 1.04 2.944 2.158 4.32m55.388-31.68c-1.474.36-2.913.72-4.316 1.08m-42.08 13.32a44.35 44.35 0 0 0-4.676 2.88m58.985-19.08c-1.332.23-2.663.49-3.956.72m-59.345 32.76c1.33 1.658 3.165 3.206 5.395 4.68m8.632-24.12a79.65 79.65 0 0 0-5.035 2.52m41.72-13.68c-1.57.36-3.14.72-4.675 1.08m-4.676 1.08c-1.836.455-3.635.947-5.395 1.44m10.071-2.52c-1.716.466-3.394.974-5.035 1.44m15.106 50.4s-16.794-4.236-24.098-6.48m0 0c-5.986-1.836-11.418-3.744-16.185-5.76m-10.43-5.4c2.83 1.901 6.211 3.689 10.07 5.4m70.135-54.18h-29.492m-12.229 2.214c-1.728-.036-3.382-.072-5.035-.108m17.264-2.124c-8.096 0-15.529.036-22.3.036m34.528 2.538c-1.103-.036-2.17-.036-3.237-.072m0 .072c-1.199-.036-2.398-.036-3.596-.072m0 .072c-1.344-.036-2.65-.072-3.957-.072m-8.991-.27l-4.676-.108m-10.07-.234c-1.862-.036-3.648-.108-5.396-.144m10.43.144a216.321 216.321 0 0 1-5.035-.144m-10.43-.36c1.736.036 3.509.108 5.395.144m24.457.702l-4.316-.108m8.632.108l-4.316-.108m-34.527-2.178c-3.549.036-6.69.072-9.352.144m-6.474.738c-.527-.036-.79-.144-.702-.18m2.86.18c-.89-.072-1.61-.108-2.158-.18m-.719-.18c.294-.108.918-.108 1.798-.18m5.036.54c-1.35-.072-2.548-.108-3.597-.18m12.948.54c-1.793-.072-3.471-.108-5.035-.18m10.07.522c-1.762-.036-3.453-.108-5.035-.144m-9.351-1.08c-2.037.036-3.74.072-5.036.144m5.036.558c1.316.072 2.78.108 4.316.18m20.5-1.224c-5.58.036-10.64.036-15.105.108m-.36-19.674a104.75 104.75 0 0 1-5.395-2.52m-5.035-2.88c-1.57-.948-3.032-1.897-4.316-2.88m52.151-39.24s-16.802 4.421-24.098 6.84m8.273 48.6c-1.727-.6-3.381-1.2-5.036-1.8m-.36 0c-1.86-.588-3.645-1.212-5.394-1.8m15.825 5.04c-1.704-.468-3.407-.972-5.035-1.44m21.94 6.12c-1.345-.36-2.651-.72-3.957-1.08m-34.168-10.8c-1.86-.708-3.682-1.416-5.395-2.16m31.29 10.8a365.19 365.19 0 0 1-4.675-1.44m-13.308-50.04c-6.138 1.94-11.64 3.956-16.544 6.12m.36 0c-3.977 1.703-7.504 3.48-10.43 5.4m19.062 31.32c1.75.707 3.535 1.453 5.394 2.16m-21.58-9.36a77.837 77.837 0 0 0 5.036 2.88m-13.667-21.96c-1.134 1.484-1.902 3.082-2.158 4.68m68.336 34.2c-1.212-.24-2.423-.48-3.597-.72m-7.912-2.16c-1.451-.36-2.902-.72-4.316-1.08m-46.037-19.08c-1.372-1.033-2.596-2.136-3.597-3.24m0 0c-.955-1.14-1.733-2.352-2.158-3.6"/><path d="M592.726 222.48L563.234 230.04"/><path d="M565.032 290.16c-1.319-.372-2.638-.745-3.956-1.08m-48.915-41.04c-2.37 1.605-4.325 3.285-5.754 5.04m-1.799 8.64a10.677 10.677 0 0 1-.288-3.96m15.035 2.88a172.6 172.6 0 0 1-6.115-4.32m-17.983-47.16c-1.548 2.925-2.674 5.963-3.237 9m15.466 33.48c1.784 1.584 3.715 3.132 5.754 4.68m48.555 26.64c-1.451-.6-2.902-1.2-4.316-1.8m-15.106-6.84c1.748.828 3.571 1.692 5.395 2.52m-50.713-36.72c-1.446-2.123-2.67-4.283-3.596-6.48m0 0a28.657 28.657 0 0 1-1.798-7.2m10.07 19.44a51.037 51.037 0 0 1-4.676-5.76m60.424 41.04c-1.571-.72-3.142-1.44-4.676-2.16m-61.142-60.84a33.31 33.31 0 0 0-.22 7.92m56.327 50.76c1.666.72 3.332 1.44 5.035 2.16m12.948 5.76c-1.33-.587-2.662-1.213-3.956-1.8m-36.686-18.36a185.516 185.516 0 0 0 6.115 3.6m0 0c1.88 1.093 3.8 2.185 5.754 3.24m0-.36c1.763.972 3.56 1.945 5.395 2.88m-16.904-9.36a157.34 157.34 0 0 1-6.114-3.96m-12.229-9a74.527 74.527 0 0 1-5.395-5.4"/><path d="M592.726 148.32L563.234 163.08"/><path d="M516.118 188.64c-5.098 3.453-9.56 7.053-13.308 10.8m0 0c-3.095 3.143-5.637 6.395-7.553 9.72m67.977-46.08s-17.805 8.806-26.616 13.32m0 .36c-7.59 3.802-14.473 7.75-20.5 11.88m35.606 86.4a160.397 160.397 0 0 1-5.035-2.88m-17.264-10.44a336.7 336.7 0 0 0 6.114 3.96m-19.062-12.96c2.098 1.585 4.268 3.132 6.474 4.68m-10.79-122.76s-13.096 10.615-18.343 16.2m41.721 114.48c1.894 1.2 3.825 2.4 5.755 3.6m0 0c1.786 1.08 3.572 2.16 5.395 3.24m-23.738-14.76c2.096 1.465 4.266 2.893 6.474 4.32m-45.677-41.76c1.697 2.665 3.652 5.33 5.755 7.92m-10.43-16.56a66.963 66.963 0 0 0 4.675 8.64m-7.913-18.36c.736 3.252 1.84 6.542 3.237 9.72m30.572 36a166.157 166.157 0 0 0 6.833 5.4m-13.667-11.16c2.18 1.944 4.47 3.852 6.834 5.76m-20.141-19.44c1.983 2.425 4.153 4.812 6.473 7.2"/><path d="M592.726 74.16L563.234 96.48"/><path d="M482.669 165.24c-2.658 4.353-4.747 8.818-6.114 13.32m17.263-27.72c-4.536 4.77-8.435 9.69-11.509 14.76M556.4 277.2c-1.571-.852-3.142-1.668-4.676-2.52m-75.17-95.76c-1.092 3.899-1.727 7.908-1.798 11.88m21.22 44.28c2.14 2.197 4.431 4.357 6.834 6.48m-28.045-50.76a46.246 46.246 0 0 0 1.07 10.8"/><path d="M536.618 116.28L512.521 134.28"/><path d="M562.874 96.48L536.259 116.64"/><path d="M157.173 415.08a707.86 707.86 0 0 1 28.414-11.52m261.835-74.88c-4.808 1.08-9.616 2.16-14.387 3.24"/><path d="M56.108 477L80.205 459"/><path d="M483.029 321.12l-10.79 2.16m-90.276 20.88c6.065-1.44 12.167-2.88 18.343-4.32m60.064-14.04a1144.71 1144.71 0 0 1 11.869-2.52M213.64 392.76c8.985-3.17 18.229-6.265 27.694-9.36m176.236-47.88c5.106-1.188 10.249-2.412 15.465-3.6M103.583 442.44c7.99-4.922 16.647-9.698 25.896-14.4m330.89-102.24c-4.327.96-8.656 1.92-12.947 2.88m-106.46 25.92c-7.652 2.04-15.192 4.08-22.66 6.12"/><path d="M29.852 496.8L56.467 476.64"/><path d="M268.31 375.12a1398.963 1398.963 0 0 0-26.976 8.28m-56.107 19.8c9.149-3.541 18.632-7.01 28.413-10.44m54.67-17.64c8.34-2.545 16.863-5.052 25.535-7.56M129.48 428.04c8.724-4.43 17.968-8.75 27.694-12.96"/><path d="M0 519.12L29.492 496.8"/><path d="M381.963 344.16c-6.655 1.667-13.274 3.373-19.781 5.04M80.565 459s14.634-10.973 23.018-16.2m237.378-88.2c7-1.824 14.037-3.612 21.22-5.4m-68.336 18.36c7.91-2.305 15.93-4.572 24.098-6.84m99.267-25.2c-5.696 1.32-11.319 2.64-16.904 3.96m11.15-13.68c-5.9.948-11.8 1.932-17.624 2.88m33.808-5.4c-5.407.852-10.814 1.668-16.185 2.52m30.932-5.04c-4.94.827-9.88 1.654-14.747 2.52m-52.51 9a2335.677 2335.677 0 0 0-20.501 3.6m-.36 0c-7.4 1.308-14.688 2.616-21.94 3.96m61.503-11.16a2265.265 2265.265 0 0 0-19.062 3.24m-318.303 84.6s16.374-8.03 25.536-11.88m0 0c8.774-3.724 18.138-7.3 28.054-10.8m.36.36c9.375-3.327 19.194-6.542 29.492-9.72m328.014-67.68c-4.089.588-8.177 1.177-12.229 1.8m0 0c-4.472.72-8.908 1.44-13.307 2.16m-110.058 19.08c-8.024 1.428-15.936 2.892-23.737 4.32m-79.846 16.92a2174.298 2174.298 0 0 0-29.133 6.84m-59.704 16.56c9.674-2.93 19.757-5.785 30.212-8.64"/><path d="M29.852 430.2L56.467 416.88"/><path d="M169.761 375.84c9.63-2.69 19.593-5.305 29.852-7.92M479.073 315c-3.73.587-7.458 1.213-11.15 1.8m-159.331 27.36c-8.503 1.68-16.896 3.36-25.177 5.04m205.728-35.64c-3.37.48-6.738.96-10.07 1.44M256.8 354.96a1828.667 1828.667 0 0 0-28.054 6.12m54.67-11.88c-9.02 1.907-17.93 3.815-26.616 5.76"/><path d="M0 444.96L29.492 430.2"/><path d="M29.852 363.24s17.78-4.417 27.335-6.48m0 0c9.248-1.98 19.092-3.888 29.492-5.76m385.92-42.84c-3.97.346-7.938.691-11.87 1.08m-12.947 1.08c-4.713.36-9.389.72-14.027 1.08M267.59 326.52c-9.525.96-18.864 1.92-28.054 2.88"/><path d="M0 370.8L29.492 363.6"/><path d="M460.73 309.24l-12.948 1.08m-208.246 19.44a3572.275 3572.275 0 0 0-29.133 3.24M493.1 306.72c-3.262.252-6.486.468-9.71.72m0 0c-3.622.23-7.206.49-10.79.72m-153.577 13.32c-8.396.853-16.644 1.667-24.817 2.52m47.835-4.68c-7.746.708-15.42 1.452-23.018 2.16m114.733-10.08c-5.205.466-10.336.974-15.466 1.44M210.403 333a3434.956 3434.956 0 0 0-30.571 3.6m183.788-19.08c-7.268.588-14.46 1.212-21.58 1.8M180.192 336.6a2059.244 2059.244 0 0 0-31.291 4.32m-31.29 4.68c10.036-1.585 20.478-3.17 31.29-4.68m234.141-25.56c-6.643.613-13.25 1.187-19.781 1.8M86.679 351c9.816-1.863 20.152-3.65 30.931-5.4m300.68-33.12c-5.66.493-11.32.947-16.905 1.44m-107.54 9.72c-8.887.947-17.626 1.894-26.255 2.88m133.795-12.6c-6.164.48-12.29.96-18.343 1.44m90.995-15.984c-3.836-.036-7.673-.072-11.51-.072m21.94.072c-3.489-.036-6.978-.036-10.43-.072m-11.869-.27l-12.588-.108m-178.034-1.296c-9.403-.072-18.622-.108-27.694-.18m-60.064-.18c-10.835-.072-21.373-.108-31.65-.18m283.775 1.944l-15.106-.108m28.773.108l-14.027-.108m-15.106-.252l-16.544-.108M214.36 297.27c-10.413-.072-20.604-.108-30.572-.18m59.704.54c-9.907-.072-19.593-.108-29.132-.18m83.442.54c-8.863-.072-17.615-.108-26.256-.18m222.632 1.566c-3.237-.036-6.474-.036-9.71-.072m-331.97-2.052c-11.03-.072-21.687-.108-32.01-.144m-90.996-.306s18.314 0 28.414.036m308.591 1.494c-7.147-.036-14.22-.108-21.22-.144m58.626.504c-6.056-.036-12.039-.072-17.984-.144"/><path d="M0 296.802L29.492 296.838"/><path d="M322.259 297.972c-8.263-.072-16.416-.108-24.457-.144m47.475.504c-7.747-.036-15.42-.108-23.018-.144m-263.993-1.404c9.66.036 19.838.036 30.571.072m0-.09c10.131.036 20.669.072 31.65.108m265.432 1.818c-6.535-.036-12.997-.108-19.422-.144M362.541 279c-7.28-.72-14.449-1.44-21.58-2.16M86.32 242.64c-10.275-2.002-19.999-4.042-29.132-6.12m122.285 20.88a2663.339 2663.339 0 0 1-30.93-4.32m-31.292-5.04a1375.462 1375.462 0 0 1-30.93-5.4m62.221 10.44a2081.755 2081.755 0 0 1-31.29-5.04m175.875 23.4c-8.875-.96-17.64-1.92-26.255-2.88m-57.187-7.2a3009.652 3009.652 0 0 1-30.212-3.96m59.704 7.56c-9.895-1.2-19.606-2.4-29.132-3.6"/><path d="M0 222.48L29.492 229.68"/><path d="M29.492 230.04s17.792 4.38 27.335 6.48m210.044 32.04c-9.391-1.08-18.598-2.16-27.695-3.24m193.5 20.52c-5.168-.468-10.336-.936-15.466-1.44m64.74 6.12c-3.597-.374-7.231-.706-10.79-1.08m-24.457-2.16c-4.688-.48-9.376-.96-14.027-1.44m58.985 5.4c-3.262-.24-6.487-.48-9.711-.72m-164.007-16.2c-8.372-.947-16.631-1.933-24.817-2.88m178.393 18c-3.968-.372-7.937-.708-11.869-1.08m0 0a1843.05 1843.05 0 0 0-12.947-1.08m-64.74-6.12c-6.655-.72-13.237-1.44-19.781-2.16m55.028 5.4c-5.672-.614-11.307-1.186-16.904-1.8m0 0c-6.176-.588-12.278-1.212-18.343-1.8m-41.002-3.96c-7.771-.84-15.432-1.68-23.018-2.52m169.042 9.72c-3.37-.587-6.738-1.174-10.07-1.8"/><path d="M0 148.32L29.492 163.08"/><path d="M109.697 199.08c-9.934-3.502-19.31-7.114-28.053-10.8m327.653 82.44c-5.803-1.055-11.533-2.147-17.263-3.24"/><path d="M56.467 176.4L29.852 163.08"/><path d="M255.361 239.76a2104.086 2104.086 0 0 1-27.694-6.48m54.31 12.24c-9.02-1.92-17.892-3.84-26.616-5.76m136.673 27.72c-6.392-1.213-12.746-2.387-19.063-3.6m-42.44-8.28c-7.915-1.56-15.684-3.12-23.378-4.68m65.818 12.96c-6.883-1.32-13.729-2.64-20.5-3.96M139.19 209.16c-10.302-3.191-20.12-6.419-29.493-9.72m-27.694-11.16c-9.154-3.85-25.536-11.88-25.536-11.88m296.004 83.88c-7.4-1.44-14.725-2.88-21.94-4.32m122.645 22.32l-13.307-2.16m25.896 4.32c-4.101-.733-8.165-1.466-12.229-2.16m-284.494-60.12c-10.333-2.975-20.26-5.95-29.852-9m300.679 66.96c-4.953-.84-9.868-1.68-14.746-2.52m-226.589-47.52a1331.769 1331.769 0 0 1-29.492-7.92m256.08 55.44c-5.311-.972-10.586-1.908-15.825-2.88m-181.63-37.44a1560.482 1560.482 0 0 1-28.773-7.2m278.02 56.16c-3.729-.6-7.457-1.2-11.15-1.8m-158.611-29.52c-8.516-1.8-16.92-3.563-25.177-5.4m-178.752-95.04c-8.33-5.264-23.019-16.2-23.019-16.2m334.487 127.08a3676.89 3676.89 0 0 1-16.904-4.32m-269.028-91.8c-9.128-4.82-17.665-9.715-25.536-14.76m52.87 28.08c-9.606-4.365-18.73-8.805-27.334-13.32m269.028 91.8c-6.176-1.548-12.278-3.132-18.343-4.68m-19.421-5.4c-7.16-1.92-14.246-3.84-21.22-5.76m91.354 23.76c-5.204-1.307-10.335-2.653-15.466-3.96"/><path d="M29.492 96.48L0 74.16"/><path d="M379.445 252.36c-6.655-1.8-13.274-3.6-19.781-5.4"/><path d="M56.467 116.64L29.852 96.48"/><path d="M80.205 134.28L56.108 116.28"/><path d="M184.148 190.44c-9.747-3.91-19.123-7.859-28.054-11.88m110.417 41.04a1336.687 1336.687 0 0 1-26.615-8.64m52.151 16.56a1930.257 1930.257 0 0 1-25.536-7.92m213.64 57.24c-3.609-.852-7.218-1.668-10.79-2.52M338.803 241.2c-7.664-2.16-15.217-4.283-22.658-6.48m-103.943-33.48a1018.816 1018.816 0 0 1-28.054-10.8m131.637 44.28a1918.03 1918.03 0 0 1-24.098-7.2m165.805 44.28c-4.34-1.08-8.644-2.16-12.947-3.24m0 0c-4.833-1.2-9.629-2.4-14.387-3.6m39.203 9.36c-3.98-.96-7.925-1.92-11.869-2.88m-217.596-60.48c-9.468-3.228-18.711-6.455-27.694-9.72"/><path d="M96.39 563.4L116.531 536.76"/><path d="M319.741 390.6a1465.93 1465.93 0 0 1 22.3-9m0 0c6.83-2.76 13.808-5.52 20.86-8.28m-66.178 27.72c7.619-3.385 15.424-6.77 23.378-10.08m62.581-25.2c6.053-2.172 12.142-4.344 18.343-6.48m16.904-5.76c5.226-1.788 10.488-3.612 15.826-5.4m-32.73 11.16a1254.312 1254.312 0 0 1 16.904-6.12"/><path d="M74.091 593.28L96.39 563.76"/><path d="M362.9 373.32a1509.94 1509.94 0 0 1 19.782-7.2"/><path d="M116.531 537.12L134.514 513"/><path d="M448.141 343.08c4.411-1.44 8.822-2.88 13.308-4.32m-27.694 9.36c4.746-1.584 9.53-3.132 14.386-4.68m36.686-11.88c-3.741 1.213-7.446 2.387-11.15 3.6m0-.36c-4.088 1.32-8.177 2.64-12.228 3.96m-287.372 133.2c7.367-5.895 15.292-11.643 23.738-17.28m74.81-42.48a823.594 823.594 0 0 1 24.098-11.16m-48.915 23.76c7.99-4.262 16.274-8.45 24.817-12.6m-74.81 42.12c7.839-5.258 16.124-10.406 24.817-15.48m272.265-110.52c-3.38 1.067-6.725 2.173-10.07 3.24M152.497 491.4c6.474-6.616 13.693-13.084 21.58-19.44m48.555-33.12a607.704 607.704 0 0 1 25.176-14.04M134.514 513s11.18-14.56 17.983-21.6m76.969-19.44a370.69 370.69 0 0 1 21.939-17.28m0 0c7.193-5.221 14.758-10.369 22.659-15.48m66.178-38.16a961.407 961.407 0 0 1 20.5-10.08M208.966 491.4c6.28-6.592 13.15-13.072 20.5-19.44m89.197-59.76c6.914-3.769 13.975-7.464 21.22-11.16m-65.818 38.16a562.95 562.95 0 0 1 22.659-14.04M190.982 513c5.284-7.324 11.303-14.536 17.983-21.6m151.418-100.44a1203.376 1203.376 0 0 1 19.422-9m131.637-53.64c-2.877 1.067-5.755 2.173-8.632 3.24m-71.933 28.08a1088.78 1088.78 0 0 1 14.747-6.12m-65.819 28.44c6.015-2.76 12.141-5.52 18.343-8.28m0-.36a1236.39 1236.39 0 0 1 16.904-7.2"/><path d="M163.287 563.4L176.595 536.76"/><path d="M148.182 593.28L163.287 563.76"/><path d="M415.052 366.12a1288.798 1288.798 0 0 1 15.825-6.48m71.933-28.08c-3.13 1.213-6.258 2.387-9.351 3.6m-21.94 8.28c3.824-1.44 7.648-2.88 11.51-4.32m-.36 0c3.452-1.308 6.941-2.615 10.43-3.96m-34.168 12.96c4.171-1.584 8.38-3.132 12.588-4.68m-174.796 81.72a751.54 751.54 0 0 1 21.94-12.6m126.96-59.04c4.531-1.825 9.062-3.612 13.668-5.4m-282.696 189s8.691-16.254 14.387-24.12m310.39-173.88c2.997-1.308 5.994-2.652 8.991-3.96m0 0c2.757-1.213 5.515-2.387 8.272-3.6"/><path d="M222.272 593.28L229.825 563.76"/><path d="M396.71 390.96a983.328 983.328 0 0 1 16.544-9m112.934-53.64c-2.53 1.055-5.022 2.147-7.553 3.24M229.825 563.4s4.62-17.871 8.272-26.64M429.08 373.68c4.722-2.533 9.518-5.027 14.387-7.56m13.667-6.48c4.171-2.053 8.342-4.105 12.588-6.12m21.94-10.08c3.212-1.428 6.461-2.856 9.71-4.32m-31.65 14.4c3.8-1.825 7.636-3.612 11.51-5.4m-67.618 33.84c5.07-2.76 10.213-5.52 15.466-8.28m52.151-25.56c3.572-1.572 7.143-3.108 10.79-4.68m-130.917 69.12c5.966-3.769 12.08-7.464 18.342-11.16m-112.934 90c5.496-6.567 11.515-13.06 17.983-19.44m-.36 0c5.969-5.834 12.348-11.594 19.063-17.28m0 0a451.036 451.036 0 0 1 19.421-15.48m120.848-73.08a943.41 943.41 0 0 1 13.667-6.48M322.618 439.2a558.097 558.097 0 0 1 19.422-14.04m37.046-23.76a710.59 710.59 0 0 1 17.623-10.08m-158.612 145.8c3.37-8.14 7.627-16.204 12.589-24.12m0 0c4.643-7.3 9.955-14.524 15.825-21.6m75.53-66.24a738.027 738.027 0 0 1 19.062-12.6m169.76-81c2.171-1.093 4.304-2.147 6.475-3.24m-13.667 6.84c2.372-1.213 4.783-2.387 7.193-3.6m-53.23 28.08a737.754 737.754 0 0 1 10.79-6.12m-34.888 20.16c4.134-2.533 8.343-5.027 12.588-7.56m0 .36c3.8-2.28 7.637-4.56 11.51-6.84m20.86-11.52c3.092-1.572 6.222-3.108 9.351-4.68m-19.421 10.44a639.401 639.401 0 0 1 10.07-5.4m-87.398 52.92a605.906 605.906 0 0 1 14.746-10.08m14.387-9.36c4.361-2.76 8.797-5.52 13.307-8.28m-27.334 17.28a713.205 713.205 0 0 1 14.027-9m67.616-38.52c2.722-1.428 5.515-2.856 8.273-4.32M307.872 513c3.193-7.3 7.054-14.487 11.51-21.6m-23.019 72.36c.074-8.892 1.177-17.822 3.237-26.64m19.782-45.36c4.063-6.567 8.643-13.06 13.667-19.44m183.069-133.2c2.612-1.308 5.262-2.652 7.912-3.96M333.05 472.32c4.64-5.834 9.687-11.594 15.106-17.28m-51.666 138.24s0-19.668.108-29.52m51.558-109.08a313.593 313.593 0 0 1 15.825-15.48m-64.38 97.92c1.926-8.102 4.722-16.167 8.272-24.12m71.933-87.84a526.025 526.025 0 0 1 15.825-12.6m0 0c5.007-3.769 10.162-7.464 15.466-11.16m-47.116 37.8a429.577 429.577 0 0 1 15.825-14.04m153.217-90c2.145-1.213 4.328-2.387 6.474-3.6m-29.133 16.56c2.72-1.572 5.515-3.108 8.272-4.68m-26.974 16.2a608.803 608.803 0 0 1 9.71-6.12m24.817-14.4c2.254-1.308 4.544-2.652 6.834-3.96m-111.496 77.4c4.154-3.769 8.495-7.464 12.948-11.16m84.161-57.96c2.506-1.44 5.011-2.88 7.553-4.32m-24.817 14.76a409.476 409.476 0 0 1 8.992-5.4m-51.432 33.48c3.763-2.76 7.6-5.52 11.51-8.28m-23.738 17.28a473.35 473.35 0 0 1 12.228-9m-24.817 19.44a356.598 356.598 0 0 1 12.589-10.08m34.527-25.2a713.007 713.007 0 0 1 10.43-6.48M373.69 471.96a177.49 177.49 0 0 1 10.431-17.28m24.457-29.52a320.631 320.631 0 0 1 12.948-12.6M359.664 513c1.1-7.262 2.936-14.487 5.395-21.6m30.93-52.2c3.925-4.717 8.146-9.397 12.59-14.04m-24.458 29.52c3.635-5.234 7.604-10.394 11.869-15.48m-32.73 124.56s-4.119-17.748-4.675-26.64m-.143 0a105.292 105.292 0 0 1 1.222-24.12m179.832-181.44c1.906-1.093 3.848-2.147 5.754-3.24"/><path d="M370.454 593.28L363.261 563.76"/><path d="M470.44 373.68a918.899 918.899 0 0 1 10.79-7.56M365.06 491.4c2.327-6.53 5.217-13.022 8.632-19.44m33.808 0c1.225-5.797 3.061-11.594 5.395-17.28m77.328-88.56a461.877 461.877 0 0 1 9.351-6.48M405.341 491.4c0-6.492.72-13.022 2.158-19.44m21.58-46.8a200.35 200.35 0 0 1 9.71-12.6m0 0a223.499 223.499 0 0 1 10.431-11.16M407.86 513c-1.654-7.138-2.518-14.388-2.518-21.6m43.88-90.36a248.191 248.191 0 0 1 10.43-10.08m10.79-9a485.45 485.45 0 0 1 10.07-8.28m19.062-14.04a510.282 510.282 0 0 1 8.632-6.12m-88.118 85.68c2.676-4.717 5.685-9.397 8.992-14.04m51.432-51.48c3.163-2.424 6.4-4.812 9.71-7.2m-77.687 88.2c2.105-5.221 4.622-10.369 7.553-15.48"/><path d="M429.798 563.76L444.545 593.28"/><path d="M459.65 390.96c3.341-3.024 6.83-6.012 10.43-9m38.125-28.44a452.3 452.3 0 0 1 8.272-5.4M429.798 563.4s-8.958-17.723-13.307-26.64m107.54-193.32c2.36-1.44 4.757-2.88 7.193-4.32m-14.747 9a381.191 381.191 0 0 1 7.553-4.68m7.194-4.32a602.381 602.381 0 0 0 6.473-3.96M416.491 537.12c-3.85-7.903-6.764-15.993-8.632-24.12m135.953-181.44a403.974 403.974 0 0 1 5.395-3.24m-11.51 6.84c2.026-1.213 4.052-2.387 6.115-3.6m-4.676 3.6c2.013-1.213 4.064-2.387 6.114-3.6m-34.527 21.96a324.815 324.815 0 0 1 7.912-5.4m-74.09 76.68c1.839-4.225 4.009-8.45 6.473-12.6m-5.394 79.2c-2.974-6.406-5.157-12.923-6.474-19.44m93.512-132.84c2.133-1.32 4.304-2.64 6.474-3.96m-13.307 8.28c2.24-1.44 4.519-2.88 6.833-4.32m-38.844 27a327.201 327.201 0 0 1 8.632-6.48m-25.895 177.48S464.516 521.077 458.57 513m-19.421-41.04a77.775 77.775 0 0 1-1.402-17.28m13.63-42.48c2.252-3.769 4.793-7.501 7.553-11.16m-21.22 53.28a75.682 75.682 0 0 1 2.158-15.48m45.318-65.52c2.768-2.424 5.681-4.812 8.631-7.2m-17.623 15.48c2.885-2.81 5.882-5.545 8.992-8.28m-26.256 27.72c2.54-3.385 5.297-6.77 8.272-10.08m.36 0a198.69 198.69 0 0 1 8.632-9m42.44-33.84a274.864 274.864 0 0 1 7.194-4.68m19.421-11.88c1.787-1.067 3.61-2.173 5.395-3.24M439.87 438.84a87.85 87.85 0 0 1 4.676-14.04"/><path d="M518.635 593.28L496.336 563.76"/><path d="M458.571 513c-5.23-7.052-9.608-14.289-12.947-21.6m56.826-131.76a296.09 296.09 0 0 1 8.273-6.12"/><path d="M496.696 563.4L476.555 536.76"/><path d="M173.358 121.68c7.134 5.979 14.819 11.884 23.018 17.64m-43.879-37.08c6.255 6.603 13.245 13.095 20.861 19.44m-38.844-41.4s10.964 14.536 17.624 21.6m207.526 120.6c6.4 2.557 12.874 5.077 19.422 7.56m35.247 13.32c5.106 1.933 10.249 3.827 15.465 5.76m-32.37-11.88c5.573 2.04 11.22 4.08 16.905 6.12m-34.888-12.96c5.91 2.304 11.928 4.572 17.984 6.84m83.082 29.16c3.357 1.08 6.677 2.16 10.07 3.24"/><path d="M96.39 29.88L116.531 56.52"/><path d="M245.65 169.56c7.895 4.382 16.047 8.69 24.458 12.96M469.36 262.8c3.692 1.188 7.421 2.412 11.15 3.6"/><path d="M116.531 56.16L134.514 80.28"/><path d="M457.133 258.84c4.039 1.32 8.115 2.64 12.228 3.96m-25.176-8.64c4.41 1.56 8.86 3.12 13.307 4.68M220.834 155.16c7.95 4.874 16.197 9.637 24.816 14.4m24.458 12.96a978.692 978.692 0 0 0 24.097 11.52m0 0a1244.882 1244.882 0 0 0 23.019 10.44m112.574 44.64c4.746 1.692 9.567 3.348 14.387 5.04m-126.961-49.68c7.19 3.144 14.49 6.252 21.939 9.36"/><path d="M74.091 0L96.39 29.52"/><path d="M196.376 139.32a480.745 480.745 0 0 0 24.458 15.84m117.97 58.68c6.854 2.893 13.782 5.785 20.86 8.64M207.886 102.24c6.157 6.59 12.87 13.07 20.14 19.44M488.784 262.8a996.204 996.204 0 0 1 9.351 3.6M190.262 80.64c5.147 7.31 11.07 14.548 17.624 21.6m186.306 120.6a2506.41 2506.41 0 0 0 16.904 7.56"/><path d="M163.287 29.88L176.595 56.52"/><path d="M376.208 214.2c5.92 2.893 11.915 5.785 17.984 8.64"/><path d="M162.928 29.52L148.182 0"/><path d="M454.615 249.12a936.774 936.774 0 0 0 12.229 5.04M228.027 121.68c6.76 5.966 13.965 11.859 21.58 17.64m-73.012-82.8s8.468 16.204 14.027 24.12m307.512 186.12c2.853 1.08 5.743 2.16 8.632 3.24m-257.16-130.68c7.086 5.354 14.544 10.634 22.3 15.84m155.015 82.08c4.734 2.04 9.542 4.08 14.387 6.12m37.045 15.48l10.43 3.96m-47.475-19.44c4.386 1.945 8.847 3.853 13.307 5.76m-43.52-18.72c5.201 2.268 10.476 4.572 15.826 6.84m40.282 16.92c3.693 1.56 7.421 3.12 11.15 4.68m-184.508-89.28c7.09 4.345 14.44 8.69 21.94 12.96m0 0c6.9 3.877 13.985 7.68 21.22 11.52m-65.1-38.88a642.674 642.674 0 0 0 22.3 14.4m42.8 24.84c6.578 3.505 13.267 7.01 20.141 10.44m0 0a918.906 918.906 0 0 0 19.062 9.36m16.545-9.36a771.83 771.83 0 0 0 16.544 9.36m-33.448-19.8c5.619 3.505 11.386 6.972 17.264 10.44M513.6 266.76c2.398 1.092 4.796 2.184 7.193 3.24M282.336 121.68c5.723 5.954 11.886 11.834 18.343 17.64m204.649 123.84c2.625 1.2 5.287 2.4 7.912 3.6M265.072 102.24c5.264 6.578 11.043 13.046 17.264 19.44m194.219 127.44a906.462 906.462 0 0 0 10.43 5.04m9.351 4.68a667.946 667.946 0 0 0 8.992 3.96m-18.343-8.64c3.212 1.56 6.461 3.12 9.71 4.68M237.739 56.52c3.14 8.127 7.158 16.179 11.869 24.12m-19.782-50.76s4.442 17.871 7.913 26.64M439.15 230.4c4.386 2.268 8.847 4.572 13.307 6.84m-202.85-156.6c4.493 7.298 9.698 14.523 15.465 21.6m199.973 141.48a818.58 818.58 0 0 0 11.51 5.76m-67.258-35.28a847.37 847.37 0 0 0 15.466 8.64m-67.257-39.96a688.545 688.545 0 0 0 17.983 11.52m76.968 43.2c4.134 2.04 8.342 4.08 12.588 6.12m-145.304-88.2c6.12 4.837 12.498 9.637 19.062 14.4m0 0c6.037 4.345 12.259 8.69 18.703 12.96"/><path d="M222.272 0L229.825 29.52"/><path d="M300.679 139.68c6.045 5.341 12.424 10.61 19.062 15.84m105.022 67.32c4.734 2.52 9.505 5.04 14.387 7.56M330.89 122.04a264.553 264.553 0 0 0 14.747 17.64m46.756 43.2c4.9 3.889 9.911 7.704 15.106 11.52m0 0c4.779 3.505 9.707 6.972 14.746 10.44m-45.317-34.92a462.529 462.529 0 0 0 15.465 12.96m29.852 21.96a575.887 575.887 0 0 0 14.027 9.36m-90.635-74.52c4.858 5.341 10.014 10.61 15.466 15.84m-43.52-53.28c3.94 6.541 8.401 13.046 13.308 19.44m30.212 33.84a427.25 427.25 0 0 0 15.825 14.4m106.82 73.8a635.81 635.81 0 0 0 10.07 5.76m25.177 13.68c2.278 1.2 4.52 2.4 6.834 3.6m-23.019-12.24c2.745 1.56 5.49 3.12 8.272 4.68m0-.36a368.608 368.608 0 0 0 7.553 3.96m-45.677-25.2c3.56 2.04 7.156 4.08 10.79 6.12m10.07 5.76c2.961 1.668 5.958 3.372 8.992 5.04m-66.897-40.32a741.56 741.56 0 0 0 13.307 8.64"/><path d="M296.489 0L296.597 29.52"/><path d="M461.449 230.76c3.774 2.28 7.623 4.597 11.509 6.84m-23.738-14.76a891.95 891.95 0 0 0 12.229 7.56m64.38 36.36c2.145 1.092 4.29 2.184 6.474 3.24M299.24 56.52c1.703 8.09 4.258 16.179 7.553 24.12m-10.43-50.76s.867 17.81 2.877 26.64m7.553 24.12c3.079 7.298 6.795 14.486 11.15 21.6m45.318-72.36s-4.3 17.723-5.036 26.64m60.064 126.36a381.376 381.376 0 0 0 12.588 11.52m12.229 10.44a390.549 390.549 0 0 0 11.869 9.36m-24.098-19.8c3.93 3.505 8.006 7.01 12.229 10.44m11.869 9.36a484.214 484.214 0 0 0 11.509 8.64m-84.521-83.16a211.707 211.707 0 0 0 11.51 15.84m-21.58-33.84a174.992 174.992 0 0 0 10.07 17.64m-23.378-58.68c.977 7.225 2.668 14.45 5.035 21.6m0 0c2.105 6.541 4.755 13.009 7.913 19.44m34.168 48.24a342.08 342.08 0 0 0 12.588 12.96m-24.817-27.36c3.806 4.837 7.906 9.637 12.229 14.4m128.76 96.84c1.93 1.092 3.824 2.184 5.754 3.24m-43.52-26.28a497.452 497.452 0 0 0 8.633 5.76m8.272 5.04c2.505 1.56 5.01 3.12 7.553 4.68m-33.808-21.6c3.08 2.04 6.197 4.08 9.35 6.12m31.292 19.44c2.132 1.2 4.303 2.4 6.474 3.6m-13.308-7.92a305.836 305.836 0 0 0 6.834 3.96m-22.66-13.32c2.72 1.705 5.516 3.372 8.273 5.04m-36.326-23.76c3.32 2.268 6.677 4.572 10.07 6.84"/><path d="M370.454 0L363.261 29.52"/><path d="M357.91 56.52c-.715 8.015-.476 16.105.675 24.12m107.899 142.2c3.523 2.52 7.12 5.04 10.79 7.56m-10.43-16.2c3.257 2.893 6.589 5.785 10.07 8.64m49.634 36c2.146 1.32 4.291 2.64 6.474 3.96m0 .36c2.013 1.188 4.063 2.376 6.114 3.6m0 0l5.395 3.24m-24.817-15.84c2.242 1.56 4.52 3.12 6.834 4.68m-22.3-15.12a611.669 611.669 0 0 0 7.913 5.76m-16.904-11.88c2.816 2.04 5.705 4.08 8.632 6.12m8.272 5.4a382.096 382.096 0 0 0 7.553 5.04M416.491 56.52s-6.973 15.98-8.992 24.12m49.274 124.2a276.033 276.033 0 0 0 10.07 9.36m19.423 16.2c2.924 2.304 5.957 4.572 8.991 6.84m-90.613-135a104.6 104.6 0 0 0 1.417 19.44m4.675 17.64c1.996 5.305 4.406 10.61 7.193 15.84m0 0a157.326 157.326 0 0 0 8.632 14.4M407.5 80.64a102.562 102.562 0 0 0-2.877 21.6m1.439 19.44c1.043 5.93 2.625 11.822 4.675 17.64m35.607 55.08a273.213 273.213 0 0 0 10.43 10.44"/><path d="M429.798 29.88L416.491 56.52"/><path d="M476.555 222.84a292.182 292.182 0 0 0 9.71 7.56m-59.704-60.84c2.974 4.382 6.248 8.69 9.711 12.96"/><path d="M444.545 0L429.798 29.52"/><path d="M436.272 182.88a220.028 220.028 0 0 0 10.07 11.52m26.976 19.8a271.52 271.52 0 0 0 8.632 8.64m-39.204-53.28c1.71 4.345 3.749 8.69 6.115 12.96m-10.43-27.36c1.015 4.837 2.466 9.637 4.315 14.4m6.115 12.96a131.832 131.832 0 0 0 7.552 11.52m-19.781-54.72a75.782 75.782 0 0 0 1.798 15.84m43.52 67.68a292.771 292.771 0 0 0 8.632 7.56"/><path d="M476.555 56.16L458.571 80.28"/><path d="M456.413 194.04c2.546 3.529 5.316 6.985 8.273 10.44m-6.115-124.2s-9.815 14.24-13.307 21.6m0 .36c-3.046 6.382-5.385 12.91-6.834 19.44m0 0a79.204 79.204 0 0 0-1.792 17.64m28.048 65.52a221.005 221.005 0 0 0 8.632 9.36m67.257 52.56c1.786 1.08 3.609 2.16 5.395 3.24"/><path d="M496.336 29.88L476.555 56.52"/><path d="M518.635 0L496.696 29.52"/><path d="M534.82 262.8c1.894 1.188 3.824 2.412 5.755 3.6m-33.809-23.04c2.445 1.933 4.963 3.827 7.553 5.76m.36 0c2.36 1.692 4.759 3.348 7.193 5.04m-23.018-16.92c2.589 2.04 5.214 4.116 7.912 6.12m-16.184-12.96a265.215 265.215 0 0 0 8.272 6.84m29.492 21.6c2.133 1.32 4.303 2.64 6.474 3.96m-12.948-8.64c2.24 1.56 4.519 3.12 6.834 4.68"/></g></g></g></svg>