<?xml version="1.0" encoding="UTF-8"?>
<svg width="250px" height="273px" viewBox="0 0 250 273" version="1.1" xmlns="http://www.w3.org/2000/svg" xmlns:xlink="http://www.w3.org/1999/xlink">
    <title>E41668AF-306D-4D36-A928-F30E78D73F1F@1.00x</title>
    <defs>
        <path d="M0.00200050435,121.862418 L13.6572183,121.861181 L36.3052176,137.111403 L45.7799564,153.538056 L56.1013064,156.637379 L61.2188936,177.706813 L65.380473,182.555385 L64.3263281,163.205359 L62.4195862,156.637379 L72.7822912,155.967581 L86.1170518,155.359715 L107.001813,162.472191 L117.87659,169.77334 L130.795602,176.441599 L160.315189,176.441599 L179.940271,188.343624 L218.582611,193.36873 C196.499729,223.094436 161.122485,242.355176 121.246655,242.355176 L121.177694,242.355176 C54.4815852,242.355176 0.370603862,188.47184 0.00200050435,121.862418 Z M121.246655,0 C188.171188,-8.3348111e-14 242.424242,54.2530541 242.424242,121.177588 C242.424242,143.864714 236.189587,165.095659 225.340158,183.25054 L177.337426,177.706813 L157.293115,163.108069 L130.795602,162.472191 L109.83598,154.410236 L96.0000641,148.367223 L78.9199747,143.33558 L57.3546524,141.910781 L45.7799564,130.59096 L25.3157309,117.028048 L11.7655313,108.022549 L0.668133055,108.377303 C2.32498067,92.5957263 7.01100748,77.716302 14.1341988,64.3310451 L60.5566846,89.0598138 L67.3006223,76.6677957 L43.3998276,45.171131 L25.5222686,46.7773854 C47.6957999,18.310002 82.2984818,7.14199539e-15 121.177694,0 L121.246655,0 Z" id="path-1"></path>
        <filter x="-3.6%" y="-8.3%" width="108.5%" height="118.8%" filterUnits="objectBoundingBox" id="filter-3">
            <feOffset dx="1" dy="1" in="SourceAlpha" result="shadowOffsetOuter1"></feOffset>
            <feColorMatrix values="0 0 0 0 0.59   0 0 0 0 0.224513274   0 0 0 0 0.169690265  0 0 0 1 0" type="matrix" in="shadowOffsetOuter1" result="shadowMatrixOuter1"></feColorMatrix>
            <feMerge>
                <feMergeNode in="shadowMatrixOuter1"></feMergeNode>
                <feMergeNode in="SourceGraphic"></feMergeNode>
            </feMerge>
        </filter>
    </defs>
    <g id="EmberFest-2020" stroke="none" stroke-width="1" fill="none" fill-rule="evenodd">
        <g id="EmberFest_2020_Tablet" transform="translate(-448.000000, -4189.000000)">
            <g id="split-screen-strip-copy-2" transform="translate(0.000000, 3989.000000)">
                <g id="Group" transform="translate(448.000000, 170.000000)">
                    <g id="chamaleon" transform="translate(-54.787879, 29.567331)">
                        <g id="background" transform="translate(61.575758, 0.484710)">
                            <mask id="mask-2" fill="white">
                                <use xlink:href="#path-1"></use>
                            </mask>
                            <use id="Combined-Shape" fill="#F0F0F0" xlink:href="#path-1"></use>
                        </g>
                        <g id="Group" fill-rule="nonzero">
                            <g id="chameleon" transform="translate(-0.946970, 0.000000)">
                                <g>
                                    <g id="base-body" transform="translate(158.781877, 145.691149) rotate(19.900000) translate(-158.781877, -145.691149) translate(29.993998, 37.767360)" fill="#E2B9B3">
                                        <path d="M130.032859,1.37762968e-14 L122.152079,4.21830716 L121.30771,0.281220478 L113.426931,5.90563003 L113.708387,2.24976382 L104.983239,8.15539385 L104.701782,4.78074812 L98.7911978,10.9675986 L97.3839158,6.46807099 L90.0660493,12.936142 L89.2216801,10.1239372 L83.0296392,18.841772 L79.6521624,19.9666539 L80.2150752,10.4051577 L80.4965316,3.09342525 L58.8243885,3.93708669 L44.4701119,12.373701 L39.9668094,19.6854334 L36.5893325,19.1229925 L35.7449633,16.8732287 L29.5529224,17.9981106 L29.8343788,20.5290949 L27.864184,22.4976382 L24.7681636,21.9351973 L21.6721431,24.1849611 L22.5165123,27.5596068 L20.2648611,29.2469297 L19.1390355,28.6844887 L14.9171894,31.4966935 L15.1986458,34.3088983 L12.9469946,36.2774416 L12.3840818,36.2774416 L9.28806134,39.0896464 L10.413887,40.4957488 L0,53.1506703 L0.844369212,56.525316 L47.4112951,55.9143477 L60.9494205,53.1991976 L66.2516887,51.3612912 C66.9828182,51.1078624 67.7809605,51.4951153 68.0343893,52.2262448 C68.0855449,52.3738261 68.1116629,52.5289225 68.1116629,52.6851183 C68.1116629,53.8439266 67.3275951,54.8559203 66.2055191,55.1453718 L60.6679641,56.5738433 L60.6679641,56.5738433 L48.2556643,59.2889935 L5.06621527,60.1811822 L5.34767168,61.0248437 L12.6655382,65.8055918 L15.1986458,70.8675604 L16.3244714,68.6177965 L19.1390355,70.0238989 L21.3906867,74.2422061 L23.0794251,71.4300013 L25.04962,71.9924423 L27.864184,76.2107494 L29.8343788,73.3985447 L33.7747685,77.8980723 L34.9005941,74.5234266 L36.8707889,75.0858675 L39.4038966,79.8666157 L40.2482658,79.8666157 L40.8111786,75.6483085 L42.7813734,76.4919699 L45.8773939,81.272718 L47.0032195,80.4290566 L46.7217631,76.4919699 L49.2548707,76.4919699 L50.6621527,80.7102771 L51.7879784,81.272718 L52.6323476,78.4605133 L54.8839988,81.272718 L63.8906037,82.1163795 L71.7713831,79.0229542 L74.3044907,82.1163795 L93.4435262,98.9896081 L70.364101,105.457679 L67.549537,104.614018 L60.5131269,103.489136 L54.5172222,106.089243 L56.5635098,106.831543 L59.4949282,107.297127 L61.9204089,109.113545 L51.7879784,119.237483 L54.8839988,120.924805 L60.5131269,117.268939 L61.0760397,118.112601 L58.5429321,121.206026 L59.9502141,122.049687 L64.7349729,121.768467 L68.3939062,117.55016 L69.5197318,113.613073 L101.042849,106.301341 L104.983239,106.582561 L107.516346,98.9896081 L92.3177006,83.8037023 L96.5395466,82.1163795 L111.17528,89.4281119 L115.960039,90.2717733 L115.678582,104.614018 L108.360716,114.175514 L110.612367,116.706498 L117.648777,109.394766 L118.774603,109.957207 L115.115669,115.581616 L117.930233,117.55016 L123.559361,108.269884 L122.714992,103.770356 L124.685187,92.8027576 L133.691792,94.4900805 L136.506356,93.0839781 L161.837432,95.6149624 L153.112284,105.457679 L146.638787,109.113545 L145.794417,117.55016 L148.890438,117.55016 L149.734807,112.769412 L150.579176,113.331852 L151.423545,118.675042 L153.956653,118.956262 L154.519566,113.894293 L158.459956,108.832325 L171.125494,98.1459467 L176.191709,96.7398443 L185.761227,115.019175 L184.072488,115.862837 L179.569186,107.145002 L176.473165,107.426222 L180.695011,119.237483 L171.40695,125.424333 L174.502971,127.955317 L180.695011,124.580672 L179.006273,127.955317 L179.850642,128.798979 L187.168509,126.830435 L197.582396,117.55016 L189.42016,96.1774034 L202.648611,92.8027576 L210.52939,97.3022853 L219.64818,113.188386 C220.885212,115.343455 221.963717,117.585719 222.875143,119.8974 L228.914529,135.215298 C231.272408,141.195666 232.48299,147.566576 232.48299,153.99498 L232.48299,159.17079 C232.48299,168.733046 228.77657,177.923073 222.14256,184.809774 L218.524476,188.565672 C213.60255,193.675074 206.78721,196.522224 199.693319,196.432504 L197.229484,196.401342 C191.67422,196.331081 186.358749,194.127055 182.38375,190.245653 C178.317017,186.274677 175.279075,181.37262 173.53277,175.963611 L173.079078,174.558346 C171.430083,169.450746 171.144733,164.000838 172.251319,158.74896 L172.580423,157.187027 C173.451902,153.050971 175.910581,149.421595 179.428458,147.07831 C182.988107,144.7072 187.229372,143.573957 191.497284,143.853585 L194.928625,144.078403 C199.516288,144.378981 203.803441,146.465546 206.870457,149.890515 L207.79105,150.91855 C210.301558,153.72206 211.85241,157.25325 212.218129,160.998723 L212.31038,161.943511 C212.618184,165.095849 212.050621,168.272013 210.670118,171.122661 L210.576623,171.315722 C209.284013,173.984878 206.991819,176.037278 204.196621,177.028291 L203.570871,177.250145 C201.187324,178.095211 198.559943,177.913024 196.315842,176.74707 C194.06196,175.576034 192.361307,173.562803 191.58347,171.144895 L191.186557,169.911091 C190.633821,168.192909 191.222729,166.312837 192.656909,165.217031 L193.300153,164.72555 C194.099345,164.114916 195.242234,164.267772 195.852868,165.066964 C195.922377,165.157935 195.983151,165.255258 196.034385,165.357641 L196.117911,165.524551 C196.701527,166.690806 197.664677,167.623717 198.84895,168.169846 C199.962784,168.683492 201.274159,168.49763 202.201394,167.6947 L202.975143,167.024679 C204.180381,165.981015 204.795014,164.411202 204.618806,162.826657 C204.432447,161.150829 203.97073,159.517259 203.252276,157.991824 L203.211524,157.905298 C202.483832,156.36025 201.240115,155.117336 199.694597,154.390643 L199.693319,154.390042 C198.113813,153.647369 196.403707,153.222471 194.660285,153.13952 L194.345647,153.12455 C192.443463,153.034046 190.575395,153.65281 189.103367,154.860962 L187.449965,156.217975 C184.931695,158.284821 183.360769,161.285754 183.097264,164.532922 L183.068294,164.889924 C182.801847,168.173348 183.142253,171.477769 184.072488,174.637917 C184.98975,177.753993 186.816442,180.525264 189.318538,182.596692 L190.433511,183.519752 C193.570941,186.117158 197.606402,187.371948 201.663514,187.011618 C205.784879,186.645581 209.693104,185.017507 212.855448,182.349321 L215.47411,180.13986 C218.842554,177.29778 221.204689,173.445215 222.209831,169.154117 C223.228098,164.806987 223.22962,160.283529 222.214279,155.935715 L221.401467,152.455152 C220.364061,148.012854 218.166336,143.925432 215.032693,140.610239 C211.890422,137.285917 207.983944,134.779159 203.652666,133.307759 L203.211524,133.157896 C198.558723,131.57727 193.659024,130.848618 188.747621,131.006918 L185.984283,131.095983 C181.22665,131.249326 176.59085,132.638345 172.532776,135.12644 C168.487949,137.606412 165.230073,141.183478 163.137858,145.441826 L161.433502,148.910751 C159.650161,152.540438 158.456384,156.431027 157.897043,160.436283 C157.337953,164.439734 157.442508,168.507961 158.206503,172.477409 L159.867238,181.105988 L159.867238,181.105988 L166.178576,193.718083 C168.51017,198.377363 171.831492,202.471031 175.910253,205.712779 C180.002588,208.965318 184.66407,211.428506 189.656987,212.976732 L190.264529,213.165122 C195.610714,214.822892 201.300364,215.036508 206.755805,213.784282 L209.827147,213.079295 C216.056977,211.649317 221.963967,209.065468 227.242764,205.461314 L230.938317,202.938136 C238.314305,197.902102 244.244651,191.024234 248.140487,182.987486 C248.552671,182.137191 248.956544,181.26372 249.352108,180.367074 C250.705255,177.299822 251.815356,174.29188 252.682411,171.34325 C254.552946,164.982047 255.170094,158.318077 254.499572,151.721547 L251.340569,120.643585 L251.340569,120.643585 L255.843871,121.206026 L252.747851,113.613073 L256.969697,113.894293 L252.747851,107.707443 L256.125328,106.301341 L251.059112,100.11449 L255.280959,99.2708286 L248.526005,91.6778757 L253.310764,91.3966552 L247.400179,85.4910252 L251.059112,83.5224819 L245.429984,80.1478361 L248.807461,77.6168518 L240.926682,72.2736628 L244.304159,69.461458 L238.393574,66.9304737 L237.830661,64.3994894 L240.645226,64.1182689 L232.201533,58.7750798 L235.860467,56.525316 L229.386969,53.1506703 L231.638621,50.3384655 L226.009493,49.2135836 L225.44658,47.5262607 L228.5426,46.1201583 L221.50619,43.8703945 L225.165123,41.0581897 L217.5658,39.6520873 L216.721431,38.5272054 L221.224734,37.1211031 L211.936672,34.5901188 L214.751236,31.777914 L205.181719,29.2469297 L207.151913,25.5910635 L199.834047,25.309843 L198.708221,24.1849611 L201.241329,20.5290949 L191.671811,19.6854334 L193.923462,15.4671263 L185.761227,15.1859058 L188.012878,10.9675986 L179.006273,10.9675986 L180.413555,7.31173242 L171.125494,8.15539385 L171.969863,4.21830716 L164.089084,6.18685051 L164.089084,3.37464573 L157.897043,5.0619686 L157.33413,1.96854334 L150.016263,4.21830716 L150.016263,0.281220478 L143.542766,3.37464573 L142.979853,0.281220478 L136.787812,3.93708669 L136.787812,0.281220478 L130.877228,3.65586621 L130.032859,1.37762968e-14 Z" id="Path"></path>
                                    </g>
                                    <g id="eye" transform="translate(97.275318, 47.674362) rotate(19.900000) translate(-97.275318, -47.674362) translate(81.176833, 30.633764)">
                                        <polygon id="Path" fill="#E2B9B3" transform="translate(15.783179, 16.784313) rotate(19.900000) translate(-15.783179, -16.784313) " points="8.46432259 29.1591287 4.24323148 22.4099993 3.96219477 17.9103488 6.77748671 8.91073975 15.2213875 3.56660433 24.7902046 7.78417819 27.6041627 13.4085168 27.6036241 19.3143418 24.7885373 26.0641128 17.1891062 30.0020224"></polygon>
                                        <polygon id="Path" fill="#0A2137" points="8.63274586 9.87937017 5.81818182 15.5037797 5.81818182 21.9718507 9.75857148 27.0338193 14.2618739 27.8774807 19.891002 26.4713784 23.2684789 19.4408664 24.1128481 14.9413388 21.8611969 10.7230316 14.5433303 6.78594492"></polygon>
                                        <polygon id="Path" fill="#FFFFFF" points="9.47711507 24.502835 10.3214843 21.6906302 11.7287663 21.9718507 14.2618739 25.9089374 11.1658535 26.4713784"></polygon>
                                        <polygon id="Path" fill="#FFFFFF" points="12.2916791 20.5657483 13.1360483 19.7220869 20.7353712 22.2530712 17.076438 25.6277169"></polygon>
                                        <polygon id="Path" fill="#FFFFFF" points="6.66255103 20.8469688 6.66255103 19.1596459 8.63274586 19.4408664 8.63274586 20.2845278 7.78837665 22.2530712"></polygon>
                                        <polygon id="Path" fill="#FFFFFF" points="6.38109463 16.6286616 7.78837665 14.0976773 8.63274586 16.0662207 8.35128946 18.034764 7.50692024 18.034764"></polygon>
                                        <polygon id="Path" fill="#FFFFFF" points="13.1360483 18.597205 12.8545919 17.7535435 21.8611969 13.5352364 22.1426533 19.1596459"></polygon>
                                        <polygon id="Path" fill="#FFFFFF" points="9.47711507 10.7230316 12.5731355 9.03570874 10.0400279 15.7850002 9.47711507 16.0662207"></polygon>
                                        <polygon id="Path" fill="#FFFFFF" points="10.8843971 16.3474412 15.1062432 9.03570874 19.0466328 11.2854726 12.0102227 17.1911026"></polygon>
                                    </g>
                                    <polygon id="Path" fill="#E27E6F" opacity="0.600000024" transform="translate(268.836090, 192.806955) rotate(19.900000) translate(-268.836090, -192.806955) " points="266.02176 191.119897 269.962174 189.43216 271.650421 194.212912 269.117217 196.181751"></polygon>
                                    <polygon id="Path" fill="#E27E6F" opacity="0.600000024" transform="translate(261.068262, 181.039271) rotate(19.900000) translate(-261.068262, -181.039271) " points="257.916715 181.868766 259.961237 177.888721 264.21981 178.883297 263.708286 184.189822"></polygon>
                                    <polygon id="Path" fill="#E25641" opacity="0.600000024" transform="translate(269.791445, 182.942793) rotate(19.900000) translate(-269.791445, -182.942793) " points="265.992114 180.693314 270.214052 178.161861 273.590776 185.192297 269.650285 187.723725"></polygon>
                                    <polygon id="Path" fill="#E27E6F" opacity="0.600000024" transform="translate(266.321544, 163.592809) rotate(19.900000) translate(-266.321544, -163.592809) " points="261.396104 164.29632 264.774008 158.390187 271.246984 161.764354 267.58753 168.795431"></polygon>
                                    <polygon id="Path" fill="#E27E6F" opacity="0.600000024" transform="translate(245.886005, 135.710426) rotate(19.900000) translate(-245.886005, -135.710426) " points="242.367852 136.273207 245.182708 132.054504 249.404158 134.866416 246.589277 139.366349"></polygon>
                                    <polygon id="Path" fill="#E25641" opacity="0.600000024" transform="translate(264.290457, 139.983442) rotate(19.900000) translate(-264.290457, -139.983442) " points="259.36553 135.624778 266.40181 134.499217 269.215384 144.342002 261.053315 145.467666"></polygon>
                                    <polygon id="Path" fill="#E25641" opacity="0.600000024" transform="translate(241.331599, 122.248602) rotate(19.900000) translate(-241.331599, -122.248602) " points="237.391609 119.296049 245.272128 119.29533 245.271666 124.357466 237.39107 125.201874"></polygon>
                                    <polygon id="Path" fill="#E27E6F" opacity="0.600000024" transform="translate(255.054145, 125.270638) rotate(19.900000) translate(-255.054145, -125.270638) " points="248.440381 122.740199 257.728572 117.958446 261.667908 128.082358 252.942637 132.58283"></polygon>
                                    <polygon id="Path" fill="#E27E6F" opacity="0.600000024" transform="translate(251.068090, 113.958549) rotate(19.900000) translate(-251.068090, -113.958549) " points="248.394778 111.708942 253.460878 111.146021 253.741863 116.208131 248.394317 116.771078"></polygon>
                                    <polygon id="Path" fill="#E27E6F" opacity="0.600000024" transform="translate(227.908741, 103.932436) rotate(19.900000) translate(-227.908741, -103.932436) " points="223.686816 106.323261 224.250224 100.698614 232.130666 101.541585 231.285811 107.166257"></polygon>
                                    <polygon id="Path" fill="#E25641" opacity="0.600000024" transform="translate(240.733006, 109.022024) rotate(19.900000) translate(-240.733006, -109.022024) " points="235.104423 104.804103 245.518094 103.397005 246.361589 112.67751 236.229314 114.647042"></polygon>
                                    <polygon id="Path" fill="#E27E6F" opacity="0.600000024" transform="translate(176.651611, 78.504109) rotate(19.900000) translate(-176.651611, -78.504109) " points="173.837384 76.1138746 178.059168 75.2698004 179.465839 81.4567268 174.399765 81.7384186"></polygon>
                                    <polygon id="Path" fill="#E25641" opacity="0.600000024" transform="translate(192.924961, 82.748367) rotate(19.900000) translate(-192.924961, -82.748367) " points="189.406641 84.9984871 191.095888 78.8112783 196.443281 79.9357097 193.909641 86.685455"></polygon>
                                    <polygon id="Path" fill="#E27E6F" opacity="0.600000024" transform="translate(204.971953, 90.397862) rotate(19.900000) translate(-204.971953, -90.397862) " points="196.810141 88.1488069 207.505721 81.6795471 213.133766 91.5220755 203.282424 99.1161773"></polygon>
                                    <polygon id="Path" fill="#E25641" opacity="0.600000024" transform="translate(166.899390, 69.890476) rotate(19.900000) translate(-166.899390, -69.890476) " points="163.522204 68.3440199 169.151301 66.6561281 170.276576 72.2806207 164.647557 73.1248233"></polygon>
                                    <polygon id="Path" fill="#E27E6F" opacity="0.600000024" transform="translate(156.336031, 65.170445) rotate(19.900000) translate(-156.336031, -65.170445) " points="150.98833 67.280156 154.366465 58.8429552 161.683731 62.7795046 158.30557 71.4979352"></polygon>
                                    <polygon id="Path" fill="#E27E6F" opacity="0.600000024" transform="translate(176.779200, 68.231974) rotate(19.900000) translate(-176.779200, -68.231974) " points="173.40163 70.4821583 175.935192 64.5761023 180.156771 65.9818662 178.467549 71.8878452"></polygon>
                                    <polygon id="Path" fill="#E25641" opacity="0.600000024" transform="translate(242.462984, 93.497793) rotate(19.900000) translate(-242.462984, -93.497793) " points="236.834273 90.9672766 245.559441 87.5917239 248.091695 96.0283858 240.210868 99.4038615"></polygon>
                                    <polygon id="Path" fill="#E25641" opacity="0.600000024" transform="translate(225.071865, 89.447209) rotate(19.900000) translate(-225.071865, -89.447209) " points="217.473049 87.0574618 227.324288 80.588279 232.67068 92.6806712 223.100965 98.3061391"></polygon>
                                    <polygon id="Path" fill="#E27E6F" opacity="0.600000024" transform="translate(187.883201, 72.699094) rotate(19.900000) translate(-187.883201, -72.699094) " points="182.113228 75.9337495 185.491439 66.6528594 193.653175 69.183183 189.99349 78.7453286"></polygon>
                                    <polygon id="Path" fill="#E25641" opacity="0.600000024" transform="translate(169.524484, 57.681025) rotate(19.900000) translate(-169.524484, -57.681025) " points="166.710269 54.7283433 171.213475 54.1654732 172.338699 60.3524253 167.272574 61.1965765"></polygon>
                                    <polygon id="Path" fill="#E25641" opacity="0.600000024" transform="translate(204.914444, 69.890176) rotate(19.900000) translate(-204.914444, -69.890176) " points="202.100268 66.6562906 207.72921 66.6557773 207.728671 72.5616024 202.099678 73.1245752"></polygon>
                                    <polygon id="Path" fill="#E27E6F" opacity="0.600000024" transform="translate(218.501987, 71.218448) rotate(19.900000) translate(-218.501987, -71.218448) " points="212.87257 76.4217122 213.436439 65.7349299 224.131404 66.0151844 223.567535 76.7019667"></polygon>
                                    <polygon id="Path" fill="#E27E6F" opacity="0.600000024" transform="translate(197.963645, 61.393158) rotate(19.900000) translate(-197.963645, -61.393158) " points="194.445312 64.0651615 196.69753 57.0342121 201.481977 58.7211544 199.229759 65.7521038"></polygon>
                                    <polygon id="Path" fill="#E25641" opacity="0.600000024" transform="translate(183.385300, 57.014584) rotate(19.900000) translate(-183.385300, -57.014584) " points="177.615904 54.0622236 186.622494 50.9678749 189.154697 59.9669963 180.711001 63.0612937"></polygon>
                                    <polygon id="Path" fill="#E25641" opacity="0.600000024" points="258.886364 168.885742 262.556296 167.612492 263.734848 171.557325 260.49685 173.429016"></polygon>
                                    <polygon id="Path" fill="#E27E6F" opacity="0.600000024" points="269.068182 171.498617 272.575249 169.551333 274.886364 174.826297 270.734513 176.337278"></polygon>
                                    <polygon id="Path" fill="#E27E6F" opacity="0.600000024" points="256.927337 152.10176 260.825758 153.43967 259.485851 156.948864 255.977273 155.744745"></polygon>
                                    <polygon id="Path" fill="#E25641" opacity="0.600000024" points="261.795455 151.877258 263.291981 147.739367 266.643939 149.157353 265.866786 153.555891"></polygon>
                                    <polygon id="Path" fill="#E25641" opacity="0.600000024" points="249.674242 141.59006 252.700547 136.203609 257.431818 138.659165 254.502693 144.928395"></polygon>
                                </g>
                                <g id="glasses-copy-2" filter="url(#filter-3)" transform="translate(110.249860, 54.409887) rotate(20.000000) translate(-110.249860, -54.409887) translate(75.685466, 39.262688)" fill="#E25641">
                                    <g id="glasses" transform="translate(-0.000000, 0.000000)">
                                        <path d="M0.314944327,12.440899 C0.314944327,22.0447754 8.12274542,29.8581576 17.7197617,29.8581576 C27.4082777,29.8581576 35.2903393,22.0447754 35.2903393,12.440899 L35.2903393,9.95271921 C32.5830361,10.1028521 34.2406378,10.1028521 40.2631443,9.95271921 C49.2969041,9.72751986 54.9156719,9.44946829 58.3203771,9.37861168 C61.7250822,9.30775507 63.4391515,8.68406261 64.561635,11.7671818 C65.6841184,14.8503011 59.1415309,16.1358918 58.3814673,17.4958419 C57.0733403,19.8364193 60.3778023,20.4467719 61.2872979,20.2363579 C62.1967934,20.0259438 69.4753498,16.5911761 68.5524667,10.3150517 C67.9389031,6.14247345 63.0627598,5.61041501 59.3598814,5.17282921 C56.8912958,4.88110534 50.5257168,4.81561547 40.2631443,4.97635961 L34.8626781,4.97635961 C33.8362911,2.08028419 31.0725719,2.93166725e-11 27.8311318,2.93166725e-11 L7.77415179,2.93166725e-11 C4.33910387,2.93166725e-11 1.44062161,2.33640084 0.57783995,5.5040196 C0.192293019,6.94679171 0.314944327,11.0689167 0.314944327,12.440899 Z M5.2877493,7.46453941 C5.2877493,6.09255707 6.40314946,4.97635961 7.77415179,4.97635961 L27.8311318,4.97635961 C28.5883243,4.97635961 29.2662834,5.31773788 29.7226211,5.85369181 L30.3175343,10.8942465 L30.3175343,12.440899 C30.3175343,19.3008107 24.666273,24.881798 17.7197617,24.881798 C10.8647501,24.881798 5.2877493,19.3008107 5.2877493,12.440899 L5.2877493,7.46453941 Z" id="Shape"></path>
                                    </g>
                                </g>
                            </g>
                        </g>
                    </g>
                </g>
            </g>
        </g>
    </g>
</svg>