<svg width="720" height="827" xmlns="http://www.w3.org/2000/svg" xmlns:xlink="http://www.w3.org/1999/xlink"><defs><path id="a" d="M0 0H744V827H0z"/></defs><g fill="none" fill-rule="evenodd"><mask id="b" fill="#fff"><use xlink:href="#a"/></mask><use fill-opacity="0" fill="#F7F7F7" xlink:href="#a"/><g opacity=".3" mask="url(#b)" stroke="#E27E6F" stroke-width="2"><path d="M-1165.6 413.5v64.092m264.533 394.893c89.192 89.847 173.245 189.34 261.434 284.281m0 0c85.263 92.048 170.085 175.803 261.433 233.628M669.6 27.91c-90.273-80.033-174.43-175.99-261.433-272.91m523.9 891.093V587.17M-1165.6 607.845v-64.092m0-66.16v64.092M408.167-244.999c-86.402-96.72-170.688-189.838-261.434-263.606m-2.066 2.068c-83.173-67.731-172.32-116.66-261.434-127.152m-1047.8 1305.627c92.006 41.792 178.478 115.17 263.5 200.547M932.067 413.5v-58.924m0 174.704v-58.924m0 2.068V413.5M-378.2 1389.36c83.007 52.446 174.858 80.397 261.433 70.331M932.067 588.204V529.28m0-172.636V297.72m-523.9 774.279c-86.4 96.728-170.688 189.843-261.434 263.606m-263.5 125.084c89.114-10.494 178.26-59.42 261.434-127.151m787.4-1094.742v58.924m-1.034-115.78C840.871 160.478 753.095 102.327 669.6 27.911m0 771.178c83.494-74.417 171.268-132.576 261.433-154.029M-639.633-329.766C-554.37-421.807-469.548-505.56-378.2-563.394m-787.4 718.457v64.092m0 0v64.093m1835.2 515.84c-90.269 80.055-174.427 176.008-261.433 272.91m523.9-891.092v58.924m-1835.2-285.315c-84.356 85.377-170.15 158.751-261.434 200.548m-1.033 516.875v-64.093M-116.767-632.693C-203.342-642.754-295.195-614.8-378.2-562.36m-787.4 847.675v64.093m0 0V413.5m262.467-458.985c89.193-89.84 173.245-189.333 261.433-284.281m-419.533 670.904V413.5m0 144.725v-72.362m1181.1 774.278c-75.981 51.023-156.486 86.677-236.634 95.105M-825.633-73.396C-746.09-150.76-669.253-231.254-589-304.956m-471.2 1006.872c81.713 53.132 158.985 123.518 236.633 199.514m-237.666-776.346v72.362m473.266-502.402c77.004-70.85 154.8-133.25 236.634-174.704M592.1 827c76.214-69.32 153.478-129.673 234.567-168.501m-1887.9-389.724v72.363M827.7 290.484v-60.991m-1415.667 902.463c77.002 70.862 154.801 133.263 236.634 174.704m-709.9-893.16v72.363m709.9 820.797c76.102 37.473 158.188 55.79 236.633 47.757m-708.867-454.02c79.543 77.373 156.379 157.867 236.634 231.56M592.1 827c-80.394 72.6-157.24 152.757-236.633 230.526M119.867-433.14c-75.98-51.023-156.485-86.68-236.634-95.105m943.434 695.714C745.583 128.86 668.314 68.89 592.1 0M356.5-230.526c-77.796-76.239-155-147.544-236.633-202.615M592.1 0c-80.399-72.574-157.243-152.736-236.633-230.526m-1416.7 787.717v72.363M827.7 291.518v60.99m-1888.933-155.062v72.363m709.9-749.469c76.1-37.465 158.188-55.785 236.633-47.76M827.7 168.5v60.992m0 429.006v-60.991m-1888.933 104.408v-72.362M827.7 413.5v-60.991m0 182.974V474.49m-471.2 583.035c-77.793 76.248-155 147.552-236.633 202.615M827.7 474.491V413.5M-823.567-74.43C-901.214 1.566-978.489 71.946-1060.2 125.084M827.7 597.508v-60.992m-94.033-191.243V413.5M-753.3-87.869C-823.943-24.02-893.662 38.373-966.167 92.004M520.8 845.608c69.697-60.587 139.314-116.888 211.833-161.265M-967.2 93.038v79.598m0 159.198V413.5M310-206.75c-69.844-59.565-139.913-113.901-212.867-155.062m-213.9 1623.237c-70.295 6.857-142.988-5.922-211.833-34.364m211.833-1661.236c71.771 6.883 143.936 33.39 212.867 72.363M732.633 143.69C660.12 99.298 590.495 43.011 520.8-17.574m212.867 499.302V413.5m0 134.388V479.66m-1275.134 618.183c69.334 53.813 139.948 99.706 212.867 129.218M-967.2 493.1V413.5m214.933 500.335c70.881 64.014 140.56 127.72 212.867 184.008M-966.167 736.03c72.507 53.628 142.222 116.027 212.867 179.873m-213.9-743.267v79.599M521.833 845.608C450.663 907.728 381.376 972.724 310 1033.75M521.833-17.574C450.31-80.01 380.688-145.37 308.967-206.75m424.7 350.441v68.228M-967.2 574.765v79.599m0 79.599v-79.6m1700.867-375.25v-68.228M-967.2 495.166v79.599M307.933 1033.75c-69.503 59.575-139.235 113.908-211.833 155.063M733.667 347.34v-68.227m-636.534 909.7c-68.598 38.97-140.412 65.474-211.833 72.362m848.367-645.06v-68.227M-752.267-86.835c70.883-64.004 140.561-127.71 212.867-184.007m211.833-129.22c69.178-28.432 142.229-41.215 212.867-34.368m-852.5 686.665v79.599m425.733-602.676c69.336-53.8 139.947-99.692 212.867-129.22M733.667 683.309v-68.227M-880.4 325.631V413.5M646.867 708.119v-73.396m-570.4 487.93C14.11 1152.17-50.456 1171.842-114.7 1177.44m761.567-1058.56c-64.075-43.286-126.359-92.796-189.1-143.691M-114.7-350.441c64.245 5.594 128.813 25.268 191.167 54.789M-880.4 62.025v87.869m0 263.606v87.869M76.467-294.62c65.112 30.979 128.424 72.426 191.166 118.882m0 1180.542c-62.74 46.06-126.056 87.143-191.166 117.848m381.3-1148.497C393.992-77.028 331.107-128.59 266.6-175.737M646.867 339.07v-73.396m0 147.826v-73.396M-880.4 500.335v87.869m383.367-820.798c62.448-40.562 126.192-74.09 191.166-95.105m952.734 593.373v-73.396m-952.734-517.91c62.625-20.284 127.673-28.676 191.167-23.145m-765.7 498.67v87.87m0 351.475v87.868m1527.267-42.383v-73.397m0 0V487.93M-114.7 1175.77c-63.495 5.544-128.54-2.844-191.167-23.139M-880.4 238.796v87.869m-2.067 437.276c65.112 49.041 128.656 102.024 193.234 154.029m0-2.067c63.314 51.212 126.297 100.453 191.166 142.657M-689.233-88.902c63.316-51.203 126.298-100.444 191.166-142.658M-689.233-89.936C-753.81-37.926-817.356 15.052-882.467 64.093M646.867 118.88v73.397m-952.734 960.353c-64.973-20.77-128.719-53.936-191.166-94.071m1143.9-645.06v73.396m-189.1 366.982c-63.77 51.204-126.66 102.763-191.167 149.893m-1147-238.796v-87.869M457.767 853.878c62.744-50.892 125.02-100.415 189.1-143.692M-806 506.538v93.037m0-186.075v93.038m0 90.97v93.037m0-463.12v93.038m0 0V413.5M572.467 650.229v-77.531M400.933 849.743c56.869-41.437 113.179-83.18 170.5-121.983M570.4 99.24C513.776 60.434 458.142 18.703 401.967-22.742M229.4-142.657c58.21 36.47 115.233 77.225 172.567 118.88M-806 136.456v93.038M228.367 969.658c58.21-36.458 115.236-77.21 172.566-118.882M-459.833-189.176c56.585-29.748 114.267-53.604 172.566-68.228m172.567 1357.79c-57.36 4.667-115.705-1.011-172.567-15.982M572.467 727.76v-77.531M-114.7-274.977c57.86 4.64 115.951 19.612 172.567 42.383m170.5 1202.252c-56.73 35.238-114.105 66.056-172.567 88.902m-860.767-277.045c58.41 41.61 116.057 84.43 174.634 125.084M572.467 413.5v-77.531m0-1.034v-77.531M-632.4-79.6c57.021-39.971 114.157-77.327 172.567-108.543m1032.3 442.445V176.77m-1030.234 838.372c-58.41-31.207-115.546-68.563-172.566-108.544m343.066-1164.003c56.86-14.96 115.207-20.643 172.567-15.99M-806 783.583v-93.038m0-647.127v93.037M572.467 491.031V413.5m0 156.096v-77.531M56.833-231.56c58.464 22.85 115.837 53.67 172.567 88.903m-516.667 1228.095c-58.297-14.61-115.982-38.467-172.566-68.228m517.7 42.384C1.249 1081.25-56.841 1095.49-114.7 1099.91M572.467 99.24v77.531M-632.4-79.599C-690.28-38.936-747.249 3.878-804.967 45.485M502.2 250.168V168.5m-1237.933 339.07v94.072M502.2 331.833v-81.665m-307.933-355.61c52.212 27.976 103.603 59.772 155 93.037m-930-50.654c51.2-30.734 102.696-58.747 155-81.666m-310 934.51c52.296 34.444 104.312 68.659 157.066 100.274m-157.066-194.345v-94.071M502.2 739.13v-81.666m-616.9-862.147c51.883 3.755 103.92 14.929 155 32.046m-776.033 396.96v94.071m310-463.12c51.019-22.074 102.865-39.282 155-49.62M502.2 413.5v-81.666m-771.9-526.179c51.277-10.101 103.446-13.597 155-9.988M348.233 841.473c51.498-33.019 102.482-67.18 153.967-100.274M-578.667-62.025c-52.752 30.973-104.77 64.478-157.066 98.206m1085-48.586c50.802 33.033 101.106 67.183 151.9 100.274m-924.834 883.856c-52.303-22.91-103.8-50.924-155-81.666M40.3 999.636c-51.082 17.114-103.118 28.285-155 32.047m155-32.047c52.284-17.365 103.929-40.879 155-68.227M40.3-172.636c52.286 17.367 103.93 40.884 155 68.227M-735.733 413.5v94.071m621.033 523.753c-51.554 3.623-103.721.132-155-9.979m771.9-444.512v-81.667M-735.733 318.395V413.5M502.2 87.869v81.666m-770.867 851.81c-52.133-10.324-103.98-27.532-155-49.62"/><path d="M-735.733 790.819v-94.071M502.2 495.166V413.5M-735.733 36.181v94.071M502.2 658.5v-81.667M-735.733 129.22v94.071m1085 616.115c-51.395 33.278-102.788 65.071-155 93.038m-447.434 31.012c-46.775-7.32-93.428-19.773-139.5-36.181M-533.2 868.35c-47.193-23.84-93.851-50.226-140.533-77.531M440.2 82.7v83.734m-1113.933-35.148v94.071M440.2 413.5v-83.734M302.767 823.9c46.366-25.591 92.316-52.62 138.466-79.599M163.267 896.261c-46.074 20.06-92.601 37.066-139.5 49.62m279-942.78c45.67 25.61 90.938 52.63 136.4 79.599m-415.4-202.615c46.9 13.078 93.427 30.795 139.5 51.687M440.2 497.234V413.5m-554.9 556.157c46.639-2.853 93.373-10.7 139.5-22.742m-698.533-345.272v94.07m281.066 231.56c-46.933-16.751-93.38-37.598-139.5-60.99M-533.2-39.284c-47.191 23.535-93.85 49.565-140.533 76.498m0 0v94.071M303.8 824.933c-46.233 25.55-92.595 49.498-139.5 70.294M-254.2-136.455c46.274-6.733 93.078-8.821 139.5-6.039M440.2 330.8v-83.734m0 497.234v-83.734M-533.2-39.283c46.12-23.384 92.566-44.23 139.5-60.99m-280.033 890.058v-94.071m0-282.214v94.071M440.2 661.6v-83.734m-554.9-720.524c46.64 2.849 93.375 10.697 139.5 22.743M-114.7 969.484c-46.422 2.797-93.224.713-139.5-6.029M-394.733-100.274c46.071-16.396 92.723-28.85 139.5-36.181M440.2 249.134V165.4M-673.733 318.395V413.5M440.2 579.934V496.2M164.3-68.228c46.905 20.805 93.266 44.755 139.5 70.295m-977.533 505.504v94.072m0-376.286v94.072m181.866-331.834c-42.639 17.756-84.914 37.757-127.1 58.924m127.1 792.886c-42.64-17.744-84.915-37.748-127.1-58.924m754.334 78.565c-41.385 15.558-83.103 28.6-125.034 38.249M384.4 85.801v81.666m0 82.7v-81.666m0 163.333v-81.667m-124 554.09c41.18-19.898 82.054-41.255 122.967-63.058m-248 117.847c41.963-16.01 83.58-34.619 125.033-54.788m-878.333-206.75v93.037m0 89.936v-93.037m880.4-664.702c40.83 19.919 81.363 41.269 121.933 63.06m0 655.397v-81.667m-1002.333-430.04v90.97M10.333 897.295c-41.443 9.748-83.266 16.118-125.033 18.608M-617.933 413.5v93.038m378.2 404.196c41.55 4.058 83.408 5.15 125.033 3.183m-125.033-997.65c41.55-4.052 83.409-5.147 125.033-3.195M384.4 658.5v-81.667M137.433-29.978c41.964 16.015 83.58 34.625 125.034 54.788M384.4 576.832v-81.666m-625.167 415.568c-41.837-4.876-83.627-13.36-125.033-24.81m-252.133-565.462V413.5M384.4 495.166V413.5M-617.933 47.552v90.97m0-1.033v90.97M12.4-69.261c41.932 9.91 83.65 23.307 125.033 39.282M-114.7-88.903c41.767 2.485 83.591 8.856 125.033 18.608M-365.8-58.924c41.405-11.44 83.196-19.924 125.033-24.81m-250.066 70.295C-449.437-31.162-407.76-46.65-365.8-58.924M384.4 413.5v-81.666M-617.933 506.538v90.97M-365.8 883.856c-41.96-11.708-83.637-26.493-125.033-43.417m-77.5-779.448v87.869M224.233 46.519c36.661 15.13 73.114 31.542 109.534 48.586m1.033 159.197v-79.598m0 159.197v-79.599m0-159.197v79.599M-1.033-23.776C36.672-16.217 74.252-6.038 111.6 6.202m-679.933 318.395V413.5m454.666 449.716c-37.508 1.845-75.16 1.129-112.633-2.102m-342.033-95.105V678.14m114.7-661.6C-416.286 3.876-378.723-6.997-341-15.506m675.8 588.203V493.1m0 0V413.5m-673.733 429.006c37.375 8.735 74.997 15.064 112.633 18.608m-227.333-49.62c-38.086-13.457-75.937-28.861-113.667-45.485m-1.033-176.772v87.87M334.8 413.5v-79.599M-341 843.54c-37.722-8.503-75.286-19.377-112.633-32.046M111.6 6.202c37.74 11.676 75.261 25.331 112.633 40.317M223.2 780.48c-37.372 14.99-74.894 28.644-112.633 40.317M-341-15.506c37.375-8.725 74.997-15.054 112.633-18.608M334.8 731.895v-79.599M-568.333 236.73v87.868m454.666-361.812c37.603 1.908 75.237 6.482 112.634 13.439m-567.3 524.111v87.869M223.2 780.48c37.355-15.11 74.495-31.527 111.6-48.586m-903.133-584.069v87.869M334.8 652.296v-79.599m-788.433-557.19C-491.718 28.975-529.57 44.376-567.3 60.99m-1.033 352.509v87.869m341-535.483c37.472-3.223 75.125-3.943 112.633-2.116M-2.067 848.709c37.705-7.038 75.285-16.514 112.634-27.911M-2.067 850.775c-37.397 6.954-75.03 11.526-112.633 13.439M-215.967 9.22a985.87 985.87 0 0 1 102.3-1.042m-409.2 154.12v83.734M-114.7 819.764c34.138-1.718 68.293-5.57 102.3-11.371m-510.467-227.426v83.734m812.2-22.742V565.46m-403-558.225c34.138 1.713 68.294 5.565 102.3 11.371m300.7 700.883v-76.498m0-229.492v-76.498M-522.867 245v83.733m812.2 236.73v-76.498m-201.5 297.72c-33.97 9.304-68.099 16.998-102.3 22.742m-99.2 9.38a995.618 995.618 0 0 1-102.3-1.01m-306.9-489.064V413.5m0 0v83.734m812.2-7.236V413.5M89.9 40.316c34.231 9.218 68.326 20.043 102.3 32.046m97.133 189.177V185.04m0-77.531v76.497m0 154.03v-76.498m-504.266 556.157c-34.152-2.47-68.303-7.021-102.3-13.438m-101.267-24.81c-34.926-9.34-69.704-20.167-104.367-32.047m0 0v-83.734m103.334 117.848c33.967 9.104 68.09 16.796 102.3 22.743m-205.634-305.99V582m713-510.672c32.834 11.782 65.528 24.675 98.167 38.248m-98.167 645.06c-33.974 12.007-68.07 22.831-102.3 32.047M189.1 755.67c33.527-11.761 66.909-24.659 100.233-38.249M-12.4 17.575c34.202 5.744 68.33 13.438 102.3 22.742m-508.4 7.236c-34.925 9.35-69.703 20.176-104.367 32.047m103.334-34.114c33.967-9.1 68.09-16.791 102.3-22.743M-522.867 79.6v83.733m205.634-140.59c33.996-6.408 68.147-10.96 102.3-13.438m192.2 48.586c31.064 3.93 62.084 9.16 93 15.506m178.766 51.688v72.362m0 72.363v-72.363m0 143.691v-72.362m-638.6-193.311c-31.088 7.146-62.089 15.509-93 24.81m731.6 457.951v-72.363m-454.666 293.585c-30.34-1.64-60.683-4.78-90.934-9.303m545.6-140.59V557.19M-298.633 56.856c30.937-4.516 61.97-7.656 93-9.304M249.033 413.5v-72.363m-731.6-240.863v77.531m93-103.375c30.914-7.11 61.933-13.038 93-17.574m-186 277.045V413.5m0 157.13v77.531m731.6 53.755v-72.362m-454.666-581.41a1114.987 1114.987 0 0 1 93-.404M68.2 754.637c-30.23 6.347-60.56 11.577-90.933 15.507m-458.8-43.418c31.253 9.31 62.599 17.675 94.033 24.81M160.167 97.172c29.355 8.529 58.621 17.92 87.833 27.912m-730.567 368.015v76.497m186 200.548c-30.377-4.532-60.706-10.46-90.933-17.574m272.8-703.984c31.025 1.154 62.059 3.596 93 7.236m180.833 674.005c-30.225 8.57-60.538 16.233-90.933 22.743m-550.767-573.731v77.531m731.6 229.492V413.5m-731.6-157.13v77.531M-204.6 778.87a1078.316 1078.316 0 0 0 90.933.378m272.8-49.42c29.703-8.51 59.313-17.903 88.867-27.91M67.167 74.43c31.086 6.511 62.088 14.176 93 22.742m-182.9 674.005c-30.255 3.638-60.599 6.08-90.934 7.237m-368.9-364.914v77.531m0 235.695v-77.531m694.4 35.147v-68.227m-79.566 90.97c26.576-6.89 53.094-14.532 79.566-22.743m0-337.002v-68.228M-196.333 85.123c27.888-.946 55.811-.948 83.7-.005m-249.034 18.257c-28.301 5.299-56.55 11.56-84.733 18.607m658.233 20.675v68.228m0 405.23v-68.228m-657.2-282.213v72.362m0 0V413.5m83.7-310.125c27.847-5.494 55.76-10.016 83.7-13.439m0 647.128c-27.94-3.419-55.853-7.941-83.7-13.439m573.5-310.125v-68.228m-657.2-151.96v72.362m579.7-145.759c25.886 6.908 51.715 14.547 77.5 22.742M49.6 723.625c-27.16 5.495-54.383 10.016-81.633 13.439m82.666-632.655c27.956 5.017 55.86 10.927 83.7 17.573m-2.066 585.103c-27.154 6.647-54.37 12.557-81.634 17.574m-412.3-1.034c-28.301-5.29-56.55-11.55-84.733-18.607m658.233-157.13V479.66M-280.033 90.97c27.863-3.07 55.784-5.158 83.7-6.203m-249.034 402.13v72.362M-32.033 736.03c-27.176 3.068-54.407 5.156-81.634 6.202m81.634-652.296c27.94 3.422 55.853 7.944 83.7 13.439m-165.334 638.504c-27.2.937-54.433.942-81.633.015m-250.067-619.912v72.363m657.2 84.767v-68.227m-657.2 494.133V631.62m657.2-149.894V413.5m-325.5-328.733c27.916 1.043 55.837 3.132 83.7 6.203m-415.4 322.53v73.396m0 72.363v73.396m167.4 103.375c27.864 3.076 55.784 5.164 83.7 6.202m372-580.967v63.059m0 252.235V413.5m-71.3 267.741c24.148-4.677 48.258-9.88 72.334-15.506m-1.034-440.378v63.06m-589-11.372v68.227m589 68.228v-63.059m-589 197.446v68.228m224.234 93.038a1241.62 1241.62 0 0 1-73.367-4.135m438.133-39.283v-63.059m-440.2-480.694a1251.822 1251.822 0 0 1 73.367-4.135M33.067 695.714c-24.423 3.795-48.888 6.92-73.367 9.303m-72.333-587.17c24.465.732 48.933 2.121 73.366 4.135m217 229.493v-63.059m-71.3 392.825c-24.417 5.096-48.877 9.608-73.366 13.439m-368.9 2.068c-25.525-3.78-51.019-8.294-76.467-13.44m1.033-269.808v68.227m0-136.455V413.5m0 201.581v68.228m224.234-564.34a1301.16 1301.16 0 0 1 73.366.232m291.4 484.509v-63.059M-40.3 121.983c24.48 2.382 48.944 5.507 73.367 9.303m-444.334 350.441v66.16m372 157.13a1409.35 1409.35 0 0 1-73.366 4.135m-1.034-1.353c-24.448.76-48.916.843-73.366.246M-411.267 143.69v68.228m589 326.665v-63.059m-142.6-344.239c24.49 3.832 48.95 8.344 73.367 13.439m0 1.034c23.457 4.691 46.878 9.892 70.267 15.506m-514.6-29.979c24.423-3.842 48.888-6.967 73.366-9.304m-73.366 9.304c-25.525 3.788-51.019 8.301-76.467 13.439m1.033 66.16v68.227m75.434 416.602c24.423 3.845 48.888 6.97 73.366 9.303M-114.7 146.793c22.74.576 45.48 1.616 68.2 3.102m-1.033 527.212a1614.4 1614.4 0 0 1-66.134 3.101m263.5-323.563V297.72M85.767 659.532c-22.02 3.533-44.068 6.652-66.134 9.304m-403-380.42v60.991m533.2-110.61v58.923M85.767 659.532c21.378-4.041 42.735-8.544 64.066-13.438m0-232.594v-58.924m-130.2-196.412c22.756 2.652 45.492 5.771 68.2 9.303M-382.333 661.6c22.707 3.593 45.445 6.714 68.2 9.304m-69.234-10.338v-60.991m533.2-70.295v-58.924m-533.2-242.931v60.991m0 125.084v63.059m137.434 200.547a1480.177 1480.177 0 0 1-68.2-6.202m135.366 9.303a1325.85 1325.85 0 0 1-68.2-3.1m396.8-29.98v-58.923m-533.2-421.77v60.991m202.534-79.668c22.73-.384 45.472-.264 68.2.358m-201.5 7.981c-22.755 2.597-45.493 5.717-68.2 9.304m532.166 307.024V413.5M86.8 167.467c21.033 4.057 42.045 8.559 63.033 13.44m-533.2 168.5V413.5M17.567 668.836a1596.76 1596.76 0 0 1-66.134 6.203m0-525.145a1458.19 1458.19 0 0 1 68.2 7.236m-133.3 521.754c-22.04.618-44.091.742-66.133.37m-203.567-142.738v63.059m69.234-443.479a1487.834 1487.834 0 0 1 68.2-6.202m395.766 439.343v-58.923m0-350.442v58.924m-398.866-88.902a1338.952 1338.952 0 0 1 68.2-3.102M-383.367 476.56v60.991m148.8 113.712a1569.825 1569.825 0 0 1-58.9-4.135m119.867 7.083a1592.505 1592.505 0 0 1-58.9-1.76M-356.5 582v56.856m479.467-118.88v-52.722m-479.467 5.169v54.788m303.8-350.44c19.643 1.074 39.28 2.459 58.9 4.134m60.967 8.27A1916.162 1916.162 0 0 1 124 198.48m-480.5-12.405v56.856m0 113.713v58.923m241.8 237.501c-19.63.501-39.268.643-58.9.424M7.233 181.94a1721.661 1721.661 0 0 1 58.9 7.236m56.834 385.589v-52.721M-356.5 415.568v56.856m301.733 177.805a1361.321 1361.321 0 0 1-58.9 3.101m-179.8-473.458a1578.824 1578.824 0 0 1 58.9-4.135m120.9-2.067c19.638.603 39.276 1.641 58.9 3.101M122.967 413.5v-52.721m0-108.544v52.721m0-105.442v52.721m0 107.51v-52.721m-479.467-8.27v56.856m479.467 110.611V413.5M5.167 646.094a1939.278 1939.278 0 0 1-58.9 4.135m-180.834-475.665a1588.477 1588.477 0 0 1 58.9-1.788m298.634 454.71v-52.721M-173.6 173.515c19.632-.229 39.27-.09 58.9.416M-356.5 526.18v56.856m0 56.856a1631.39 1631.39 0 0 0 63.033 7.236M-356.5 242.931v56.857M65.1 637.823a1977.191 1977.191 0 0 0 58.9-9.304m-58.9 9.304a1722.685 1722.685 0 0 1-58.9 7.236m-299.667-465.188a1922.02 1922.02 0 0 0-63.033 6.203m296.567 440.413c-17.562.922-35.13 1.59-52.7 1.997m-55.8-430.197c18.255-.126 36.513.017 54.766.428m211.834 66.958v48.586m-105.4 308.058a1601.874 1601.874 0 0 1-52.7 4.135m-272.8-6.203a2179.665 2179.665 0 0 0 56.833 4.135m-55.8-263.606V413.5m429.867 0v-48.586M-5.167 624.385a1621.823 1621.823 0 0 0 52.7-6.202M-331.7 620.25v-51.688m429.867 41.35v-48.586m0-197.446v-48.586M-275.9 202.615a2218.331 2218.331 0 0 0-56.833 4.135m430.9 304.956V463.12M-331.7 309.091v51.688m379.233 256.37a2229.863 2229.863 0 0 0 51.667-6.203M-166.367 629.1c-18.256-.12-36.515-.508-54.766-1.16m319.3-66.614V512.74m-158.1-312.193a1723.23 1723.23 0 0 1 54.766 4.136m0-2.068a1745.812 1745.812 0 0 1 54.767 6.202m48.567 7.237v49.62m-211.834 362.61a1766.58 1766.58 0 0 1-52.7.433m-54.766-429.646a1874.66 1874.66 0 0 1 54.766-1.182M-331.7 206.75v51.688M49.6 209.85a2149.83 2149.83 0 0 1 49.6 6.203m-320.333 411.432a1712.404 1712.404 0 0 1-54.767-3.101m0-421.77a1724.758 1724.758 0 0 1 54.767-3.101M-331.7 413.5v51.687m0-206.75v51.688m218.033-111.626c18.259.411 36.517 1.09 54.767 2.03m-272.8 316.346v51.687M98.167 462.086V413.5M-331.7 466.221v49.62m218.033 91.79c-16.187.33-32.378.469-48.566.417M77.5 370.082v-45.485m-191.167-106.234c16.191.334 32.382.864 48.567 1.584M32.033 598.54a2075.34 2075.34 0 0 1-48.566 4.135m-48.567 4.135c16.193-.82 32.383-1.858 48.567-3.101m-294.5-141.624v45.485M77.5 458.985V413.5m-337.9-191.244c-16.538.84-33.072 1.877-49.6 3.101m-1.033 92.004v47.553M-65.1 220.189c16.193.82 32.383 1.857 48.567 3.101M77.5 547.887v-45.484m-239.733-283.449c16.188-.058 32.379.08 48.566.414m-145.7 2.818a2058.033 2058.033 0 0 1 48.567-1.927m-100.233 5.098v47.553m0 140.59v47.552m0 93.038v47.553M-210.8 219.536c16.187-.449 32.377-.704 48.567-.762m-148.8 53.102v47.553m296.566-95.105a2070.457 2070.457 0 0 1 48.567 4.135m-244.9 378.27a2063.495 2063.495 0 0 1-48.567-1.904M33.067 229.492a2460.368 2460.368 0 0 1 43.4 4.135m1.033 0v45.485m0 0v45.485m-388.533 277.046a2275.763 2275.763 0 0 0 51.666 3.1m-51.666-238.796v49.62M77.5 413.5v-45.485m0 225.358v-45.486m-239.733 60.33c-16.19-.053-32.38-.302-48.567-.744M77.5 504.47v-45.485M31 597.508a2806.31 2806.31 0 0 0 47.533-4.135M-65.1 607.067a2095.37 2095.37 0 0 1-48.567 1.556M-311.033 507.57v47.553m368.9-182.974v-40.316M-291.4 456.917v40.317M57.867 413.5v-40.316M-291.4 242.93v42.384m0 84.767v45.486m349.267-124.05v40.316m-214.934-93.23c14.467-.014 28.935.114 43.4.385m133.3 6.01c13.092.937 26.182 1.973 39.267 3.1v.001m-1.033 2.067v40.317m-350.3 293.585c15.84 1.24 31.686 2.276 47.533 3.101m-46.5-302.889v42.384m0 257.404v-42.384m46.5-301.19a2231.99 2231.99 0 0 1 43.4-1.33m43.4 349.27a2205.706 2205.706 0 0 1-43.4-.462m259.367-92.807V454.85m-170.5 132.927c14.468-.267 28.935-.673 43.4-1.214m43.4-343.632c14.47.892 28.937 1.928 43.4 3.101M-291.4 414.534v42.383m89.9 130.908a2241.761 2241.761 0 0 1-43.4-1.31m-46.5-88.247v42.383m89.9-301.617c14.466-.301 28.933-.46 43.4-.476M-25.833 584.09a2365.096 2365.096 0 0 1-43.4 2.027m127.1-132.3V413.5m-303.8-173.67c-15.159.83-30.315 1.866-45.467 3.101M57.867 535.482v-40.316M-291.4 327.7v42.383m178.767-130.871c14.467.271 28.935.685 43.4 1.238m0 .415c14.469.552 28.936 1.242 43.4 2.067m-87.834 345.08c-14.465.267-28.933.395-43.4.385m129.167-4.327c14.47-.892 28.937-1.928 43.4-3.102m42.367-3.1V537.55m-41.334 44.451c13.437-.932 26.87-1.968 40.3-3.101m-331.7-319.429v38.249m316.2-34.114v38.249m-155-44.937c13.09.22 26.18.545 39.267.971m-158.1-1.291c-14.124.425-28.247.964-42.367 1.612m316.2 193.539V413.5M-232.5 257.857c13.088-.405 26.177-.708 39.267-.906m1.033-1.474a2461.55 2461.55 0 0 1 39.267-.28m-121.934 117.987V413.5m201.5-154.82c13.09.426 26.18.955 39.267 1.583m-118.833 311.534a2471.34 2471.34 0 0 1-39.267-.268m233.533-46.384v-38.249m-316.2-73.396v39.282m121.934 119.055c13.089-.015 26.178-.13 39.266-.346m39.267-2.37a2577.81 2577.81 0 0 1-39.267.95m-161.2-40.791v39.282m279-3.1a1882.917 1882.917 0 0 1-39.266 3.1m39.266-3.1c12.747-.934 25.492-1.97 38.234-3.102M-74.4 570.367c13.09-.416 26.18-.931 39.267-1.542"/><path d="M41.333 563.394v-38.249m0-36.181v-38.249m-316.2-152.995v38.249m0-1.034v38.249M6.2 261.539c11.369.94 22.735 1.975 34.1 3.101m-315.167 264.64v-39.282m82.667 80.044a2499.91 2499.91 0 0 1-39.267-.891m-43.4-116.369v38.25m316.2-77.532v-38.249m-272.8 195.164c-14.123-.43-28.246-.977-42.366-1.638M41.333 301.855v38.249m0-2.068v38.249m-194.266-121.122a2461.5 2461.5 0 0 1 39.266.347m80.6 2.928c13.091.894 26.18 1.93 39.267 3.1m-264.533 47.553v34.114M24.8 480.694V446.58m-283.133-31.012v34.113M24.8 311.16v34.113m-283.133 136.455v-32.046M24.8 347.34v32.046m-209.767-107.43c12.056-.128 24.112-.178 36.167-.152M24.8 379.386V413.5m-66.133-140.381c12.057.478 24.112 1.029 36.166 1.65m-253.166-.825v34.113m0 210.885v34.114m0-71.329v36.182M-77.5 272.304c12.056.33 24.112.735 36.167 1.212m-178.767-1.173c-12.745.295-25.49.673-38.233 1.134m251.1 3.714c10.679.54 21.357 1.132 32.033 1.775m-283.133 96.285V413.5M24.8 279.112v34.114m-174.633-41.503c12.055.026 24.111.128 36.166.307m105.4 279.899c10.68-.567 21.357-1.195 32.034-1.88M24.8 447.614V413.5M-9.3 552.257a2813.395 2813.395 0 0 1-34.1 1.598m68.2-3.9v-34.114m-68.2 37.66a2728.7 2728.7 0 0 1-34.1 1.177m102.3-38.837v-34.114m-138.467 72.735c11.368-.175 22.734-.424 34.1-.744m-178.766-210.513v34.114m144.666 177.652c-11.366.175-22.733.277-34.1.306m-37.2-.228c12.055.123 24.111.17 36.167.142m-36.167.231a2889.73 2889.73 0 0 1-36.166-.597m0-282.644c12.054-.279 24.11-.482 36.166-.61m71.3.957c12.057.18 24.112.434 36.167.764m-181.867 280.221c13.088.471 26.177.857 39.267 1.154m-24.8-16.083v-32.046m0-31.013v32.046m67.167 34.31a3092.908 3092.908 0 0 1-32.034-.392m0-255.973a3081.16 3081.16 0 0 1 32.034-.402m1.033 256.533c10.678.075 21.355.095 32.033.059m-65.1-1.685a2972.837 2972.837 0 0 1-34.1-.807m97.134-254.033c10.678.034 21.356.123 32.033.268M11.367 442.445v32.046m-62 64.677c-10.677.351-21.355.652-32.034.9m2.067-253.15c10.678.255 21.356.565 32.033.93m-196.333 61.56v32.046m256.267-28.945v29.978M-244.9 446.58v29.979M11.367 320.462v32.047m0 184.007V504.47m-124-217.388c10.678.145 21.356.346 32.033.601m64.067 2.145c8.956.4 17.912.837 26.866 1.312m1.034 122.36v32.046m0-64.092V413.5m-59.934-124.676c10.679.364 21.357.782 32.034 1.252M-244.9 447.614v-32.046m0-129.22v32.047m0 63.059v34.113M11.367 290.485v32.046m-31 214.687c9.99-.424 19.978-.892 29.966-1.402m-188.066-250.459c10.677-.078 21.355-.1 32.033-.067m126.067 251.657c-10.677.453-21.355.856-32.034 1.208M-244.9 317.361v32.046m99.2 192.41c10.678-.034 21.356-.123 32.033-.265m31-2.227c-10.677.248-21.355.443-32.033.585m126.067-33.372V474.49m-221.134-187.504c-11.367.201-22.734.466-34.1.791m213.9 238.923c8.956-.317 17.912-.666 26.867-1.045M-2.067 330.8v27.911m-229.4 139.557v-27.912m117.8 57.776c-9.3.115-18.6.191-27.9.228m139.5-85.915v27.911m0-113.712v27.911m-82.666 141.393c-9.3.192-18.6.346-27.9.461m-118.834-226.621v27.91m0 115.78v26.878m62 57.873c9.3.043 18.6.046 27.9.008m-57.866-.116c9.3.124 18.6.208 27.9.25M-55.8 300.346c9.99.279 19.978.596 29.967.952M-2.067 413.5v27.911m-229.4 85.801v-27.91m59.934-200.678c-9.99.046-19.978.132-29.967.26m2.067 227.574a3491.43 3491.43 0 0 1-32.034-.559m0-110.332v27.912m229.4 52.721v-27.911m-197.366-167.741c-10.678.136-21.356.318-32.034.547m117.8-.511c9.99.118 19.978.276 29.967.475m25.833 225.577c9.3-.267 18.6-.573 27.9-.915M-3.1 301.306a3286.66 3286.66 0 0 0-22.733-.97m-205.634 55.274v27.911m87.834-84.883c9.989.036 19.978.114 29.966.231m55.8 226.965c-9.3.268-18.6.498-27.9.69m83.7-1.379v-27.911m-169.466-198.461c9.988-.046 19.978-.05 29.966-.014m139.5 31.007v-27.911m-229.4 25.844v27.911m0 59.957v-32.046m145.7-83.058c9.99.2 19.979.438 29.967.716m53.733 84.41V413.5M-1060.2 701.916c31.431 10.897 62.653 22.735 94.033 34.114m483.6-8.27c12.128-7.1 24.183-14.698 36.167-22.742m113.667-84.768a1334.91 1334.91 0 0 1-22.734 20.675m97.134-87.869a2385.013 2385.013 0 0 1-15.5 13.439M77.5 233.627a1270.936 1270.936 0 0 0-18.6 15.507m-351.333 334.935c5.865-5.12 11.72-10.29 17.566-15.507M-3.1 301.855c4.472-3.817 8.95-7.608 13.433-11.371M-332.733 620.25A1658.914 1658.914 0 0 0-310 601.643m17.567-17.574a1816.274 1816.274 0 0 1-18.6 17.574m-71.3 58.923A1008.744 1008.744 0 0 1-412.3 683.31M931.033 181.94c-34.84-.532-69.754-5.745-104.366-13.439m-1057.1 358.712c-4.475 4.499-8.952 8.98-13.434 13.438m-637.566 224.324c25.384 7.5 50.876 13.907 76.466 18.607M99.2 216.054a977.34 977.34 0 0 1 22.733-17.574m1.034 0a904.894 904.894 0 0 1 26.866-18.608m-108.5 83.734c5.843-4.539 11.698-9.02 17.567-13.439m-48.567 41.35c4.471-4.518 8.949-8.998 13.434-13.438m52.7-44.452A1229.51 1229.51 0 0 1 99.2 216.054m-74.4 63.058a1641.246 1641.246 0 0 1 15.5-13.438m108.5-85.802a793.19 793.19 0 0 1 29.967-18.607M647.9 118.881c-25.436-7.673-50.897-14.795-76.467-20.675M334.8 95.105a432.19 432.19 0 0 1 49.6-9.304m-628.267 452.783c-4.473 4.505-8.95 8.985-13.433 13.438M571.433 98.206c-22.666-4.848-45.412-8.774-68.2-11.371m543.534 77.531c-37.872 12.8-77.135 18.098-115.734 17.533M-1280.3 663.694c38.46-3.025 77.428.637 115.733 8.243M-735.733 790.1c20.993.888 42.062.56 63.033-1.108M-383.367 661.6c8.991-6.71 17.944-13.607 26.867-20.675m569.367-498.268c11.986-6.33 24.046-12.2 36.166-17.573m40.3-16.54c15.073-5.275 30.248-9.765 45.467-13.439m-780.167 609.913c10.736-7.229 21.411-14.822 32.034-22.743m702.666-572.697c-13.502 4.559-26.945 9.741-40.3 15.506m-866.966 654.363c16.61-3.532 33.17-8.029 49.6-13.438m45.466-18.608c-15.052 6.994-30.22 13.22-45.466 18.608M502.2 85.8c-20.97-2.028-42.018-3.127-63.033-3.1M-966.167 736.03c28.19 10.021 56.372 19.63 84.734 27.911M441.233 82.7c-18.948.027-37.933 1.033-56.833 3.101m-1548.967 586.136c35.014 7.333 69.727 18.054 104.367 29.98M732.633 143.69c-28.269-8.24-56.44-16.831-84.733-24.81m-436.067 23.776a656.57 656.57 0 0 0-32.033 18.608m-662.367 565.461c-13.345 7.485-26.782 14.397-40.3 20.675m-151.9 41.35a424.91 424.91 0 0 0 56.834-9.304m-118.834 11.372c-22.766-.998-45.544-3.513-68.2-7.237m1631.634-615.08c-31.477-6.805-62.748-15.57-94.034-24.81m314.134 518.942c-37.872-12.8-77.135-18.098-115.734-17.533m-1605.8-606.852a424.912 424.912 0 0 1 56.834 9.303M58.9 576.832c-5.869-4.418-11.723-8.9-17.567-13.438m-271.766-263.606c-4.475-4.5-8.952-8.98-13.434-13.44m-67.166-60.99a1813.718 1813.718 0 0 1 18.6 17.573m18.6 17.574a2390.87 2390.87 0 0 1 15.5 13.439M931.033 645.06c-34.84.532-69.754 5.745-104.366 13.439M-257.3 274.977c4.483 4.454 8.96 8.934 13.433 13.44M334.8 731.894c-15.22-3.674-30.394-8.164-45.467-13.439M-446.4 121.982c-11.984-8.044-24.04-15.642-36.167-22.742m149.834 107.51A1658.879 1658.879 0 0 1-310 225.357m-72.333-58.923A1008.306 1008.306 0 0 0-412.3 143.69m661.333 558.225c-12.12-5.372-24.18-11.243-36.166-17.574m358.566 44.452c-22.666 4.848-45.412 8.774-68.2 11.371m-213.9-22.742c-13.502-4.56-26.945-9.742-40.3-15.507m-127.1-73.396A977.83 977.83 0 0 1 99.2 610.946M-966.167 90.97c28.19-10.021 56.372-19.63 84.734-27.911M647.9 708.119c-25.436 7.673-50.897 14.795-76.467 20.675M-881.433 62.025c25.384-7.5 50.876-13.907 76.466-18.608M384.4 741.2a432.19 432.19 0 0 1-49.6-9.304M-804.967 43.417c22.656-3.723 45.434-6.239 68.2-7.236m168.434 24.81c-16.43-5.41-32.99-9.906-49.6-13.439m-117.8-10.651c20.993-.888 42.062-.56 63.033 1.108m884.533 646.333a656.56 656.56 0 0 1-32.033-18.607m-454.667-407.298a2137.417 2137.417 0 0 0-17.566-15.506M40.3 561.326a1647.519 1647.519 0 0 1-15.5-13.439m-1189.367-392.824c35.014-7.333 69.727-18.054 104.367-29.98m0 0c31.431-10.896 62.653-22.734 94.033-34.113m1116 556.157a904.887 904.887 0 0 1-26.866-18.607M-1280.3 163.306c38.46 3.025 77.428-.637 115.733-8.244m1174.9 381.454A2124.86 2124.86 0 0 1-3.1 525.145m181.867 140.59a792.996 792.996 0 0 1-29.967-18.608m583.833 36.182c-28.269 8.24-56.44 16.83-84.733 24.81M23.767 548.92c-4.485-4.44-8.962-8.92-13.434-13.439m-578.666-474.49c15.245 5.387 30.414 11.613 45.466 18.607m1349.534 578.9c-31.477 6.804-62.748 15.569-94.034 24.81M99.2 610.946a1227.612 1227.612 0 0 1-22.733-17.573M441.233 744.3c-18.948-.027-37.933-1.033-56.833-3.101m-739.867-555.124a1334.722 1334.722 0 0 1 22.734 20.675M-522.867 79.599c13.518 6.277 26.955 13.19 40.3 20.675m99.2 65.126c8.991 6.71 17.944 13.607 26.867 20.675m-88.867-64.093c10.736 7.229 21.411 14.822 32.034 22.743M502.2 741.199c-20.97 2.028-42.018 3.127-63.033 3.1M77.5 593.374a1270.943 1270.943 0 0 1-18.6-15.507m988.9-289.45v-63.059m0 126.118v-63.059m0 188.143V413.5m0 249.134v-63.059m0-60.991v-63.059m0-62.025v-63.059m0-186.075v63.059m0 374.218v-63.06M-990.967-5.168c101.593-97.819 194.131-217.304 291.4-337.002m1165.6 96.138c-97.245-119.819-189.786-239.32-291.4-337.002m-582.8-67.194c-102.82 80.215-195.723 191.253-291.4 309.092M-990.967-5.17c-91.887 88.054-191.135 154.26-291.4 167.468m2039.8-99.24c-102.805-80.377-195.7-191.386-291.4-309.091m582.8 410.42c-96.468 12.068-200.184-30.18-291.4-102.363m-874.2-812.443c-96.409-12.302-200.188 29.07-291.4 100.19m582.8 67.193c-91.872-88.324-191.185-154.578-291.4-167.468m-1164.566 1038.92v63.058m0 124.05v63.059m0 0v63.059m0-376.286v63.06m0 125.083v63.059m0-126.118V413.5m0 249.134v-63.059m0-435.209v63.059m-1.034 437.276c100.265 13.208 199.513 79.414 291.4 167.468m0 0c101.593 97.819 194.131 217.304 291.4 337.002m291.4 308.058c91.212 71.118 194.991 112.491 291.4 100.189m0 .085c100.215-12.89 199.528-79.144 291.4-167.468m-874.2-241.898c95.677 117.839 188.58 228.877 291.4 309.092m582.8-67.194c101.614-97.682 194.155-217.183 291.4-337.003m291.4-309.09c-102.805 80.377-195.7 191.385-291.4 309.09m291.4-308.057c91.216-72.184 194.932-114.431 291.4-102.363m-545.6-3.08c22.764-2.122 45.506-5.332 68.2-9.303m161.2-34.114c31.31-6.936 62.613-13.514 94.034-18.608M502.2 658.5c-20.988 2.03-42.02 3.127-63.033 3.1M334.8 652.297a643.854 643.854 0 0 1-45.467-9.304m-40.3-13.438a579.798 579.798 0 0 0 40.3 13.438M40.3 527.212a1599.39 1599.39 0 0 1-15.5-11.37m16.533 9.303A1469.41 1469.41 0 0 0 58.9 536.516m18.6 12.405c-6.211-4.4-12.41-8.881-18.6-13.439M571.433 650.23c25.536-3.817 51.009-8.447 76.467-13.439m-468.1-33.08a749.245 749.245 0 0 0 32.033 13.439M334.8 652.296a629.534 629.534 0 0 0 49.6 6.203m0 0c18.92 2.07 37.887 3.074 56.833 3.101M99.2 561.326a992.166 992.166 0 0 0 22.733 13.439m-111.6-68.228c4.473 3.13 8.951 6.232 13.434 9.304m99.2 58.924a972.93 972.93 0 0 0 26.866 13.439m676.834 9.303c34.687-5.338 69.549-8.935 104.366-9.303M76.467 547.887a1250.72 1250.72 0 0 0 22.733 13.44m947.567 39.282c-38.164-9.863-77.144-13.84-115.734-13.407M148.8 589.237a886.277 886.277 0 0 0 29.967 13.44m34.1 13.438a677.253 677.253 0 0 0 36.166 13.439M-3.1 497.234c4.474 3.124 8.951 6.226 13.433 9.303M647.9 634.722c28.272-5.98 56.474-12.429 84.733-18.607M76.467 504.47c7.57 2.467 15.147 4.88 22.733 7.236m-40.3-16.54c6.194 2.456 12.394 4.87 18.6 7.236m21.7 10.338c7.569 3.19 15.146 6.294 22.733 9.304m319.3 56.58c-18.945-.013-37.9-.503-56.833-1.516M23.767 480.694c-4.48-2.047-8.958-4.115-13.434-6.203m112.634 45.485c8.943 3.216 17.898 6.32 26.866 9.304m896.934 9.304c-38.388-6.868-77.15-9.58-115.734-9.282m-920.7-54.81A2326.44 2326.44 0 0 1-3.1 468.288m292.433 97.172a933.19 933.19 0 0 0 45.467 6.203m168.433 5.168c22.747-1.414 45.485-3.552 68.2-6.202m-132.266 8.05c21.012.013 42.032-.562 63.033-1.627m145.7-15.727c28.257-4.316 56.482-8.978 84.733-13.439m-161.2 22.743c25.51-2.64 50.992-5.845 76.467-9.304M24.8 481.727c5.163 2.092 10.33 4.16 15.5 6.203m18.6 7.236a1728.313 1728.313 0 0 1-17.567-7.236m171.534 59.957a886.568 886.568 0 0 0 36.166 9.304M179.8 538.584a958.577 958.577 0 0 0 32.033 9.303M148.8 529.28a1116.674 1116.674 0 0 0 29.967 9.304M334.8 572.697a931.918 931.918 0 0 0 49.6 4.135m-95.067-11.37a963.977 963.977 0 0 1-40.3-7.237m682-28.945c-34.801.245-69.623 2.638-104.366 6.202m-94.034 13.44c31.33-5.013 62.655-9.766 94.034-13.44M148.8 472.424a2247.718 2247.718 0 0 0 29.967 4.135m-55.8-10.338c8.952 1.43 17.907 2.81 26.866 4.135M40.3 450.715a3257.636 3257.636 0 0 1-15.5-3.101m224.233 38.248a1848.027 1848.027 0 0 1-36.166-4.135M179.8 476.56a1957.74 1957.74 0 0 0 32.033 4.135M-3.1 442.445c4.477 1.042 8.955 2.076 13.433 3.101m1036.434 31.013c-38.53-3.064-77.155-4.258-115.734-4.125M384.4 495.82c18.942.506 37.889.751 56.833.758m-2.066.028c21.01.007 42.025-.28 63.033-.814m-117.8-.653a1897.605 1897.605 0 0 1-49.6-2.015m168.433 2.041c22.737-.706 45.471-1.775 68.2-3.101m-530.1-40.316A3343.33 3343.33 0 0 0 58.9 454.85m230.433 35.147A1826.964 1826.964 0 0 0 334.8 493.1M10.333 444.512c4.477 1.045 8.955 2.079 13.434 3.102m547.666 43.417c25.495-1.172 50.982-2.597 76.467-4.135m-398.867-1.034a1633.253 1633.253 0 0 0 40.3 4.135M58.9 454.85a2318.807 2318.807 0 0 0 18.6 4.135m21.7 3.101c7.575 1.42 15.153 2.799 22.733 4.135m-45.466-7.236c7.575 1.41 15.153 2.79 22.733 4.135m831.833 8.27c-34.792.123-69.589 1.317-104.366 3.101m0 0c-31.353 1.695-62.693 3.889-94.034 6.203M647.9 487.93c28.248-1.992 56.487-4.144 84.733-6.203m314.134-67.193H931.033m-831.833 0h22.733m809.1 0H826.667m-829.767 0h13.433m0 0h13.434m1.033 0h15.5m36.167 0H99.2m49.6 0h29.967m-55.8 0h26.866m62 0H179.8m-120.9 0h18.6m-36.167 0H58.9m673.733 0H647.9m-208.733 0H502.2m-117.8 0h56.833m62 0h68.2m-236.633 0h49.6m-135.367 0h40.3m-76.466 0h36.166m398.867 0h-76.467m-236.633 0h-45.467m537.334 0h-94.034m-519.766-69.262a1848.027 1848.027 0 0 1 36.166-4.135m40.3-4.135a1828.022 1828.022 0 0 1 45.467-3.1m596.233 21.708c-34.792-.123-69.589-1.317-104.366-3.101M99.2 364.914c7.575-1.42 15.153-2.799 22.733-4.135m1.034 0c8.952-1.43 17.907-2.81 26.866-4.135m-73.366 11.371A2718.59 2718.59 0 0 1 99.2 363.88m-88.867 18.607c4.477-1.044 8.955-2.078 13.434-3.1M179.8 350.44a1957.74 1957.74 0 0 1 32.033-4.135M58.9 372.15a2318.807 2318.807 0 0 1 18.6-4.135m749.167-15.506c-31.353-1.695-62.693-3.889-94.034-6.203m0-1.034c-28.246-2.058-56.485-4.21-84.733-6.202m-469.133 11.371c-9.993 1.31-19.982 2.69-29.967 4.135m140.533-17.574a1634.744 1634.744 0 0 0-40.3 4.135m322.4-6.202c-22.729-1.326-45.463-2.395-68.2-3.101M-3.1 384.555c4.477-1.042 8.955-2.076 13.433-3.101m31-6.203A3343.33 3343.33 0 0 1 58.9 372.15m275.9-38.275a1896.73 1896.73 0 0 1 49.6-2.015m0-.681c18.942-.506 37.889-.751 56.833-.758m605.534 20.02c-38.53 3.064-77.155 4.258-115.734 4.125M24.8 379.386c5.166-1.046 10.332-2.08 15.5-3.101m607.6-36.181c-25.485-1.538-50.972-2.963-76.467-4.135m-132.266-5.576c21.01-.007 42.025.28 63.033.814m-322.4-42.79a958.862 958.862 0 0 1 32.033-9.305m359.6-22.742c-22.715-2.652-45.453-4.79-68.2-6.203m-254.2 19.642a887.453 887.453 0 0 0-36.166 9.303M10.333 352.51c4.475-2.087 8.953-4.155 13.434-6.203M77.5 324.597a1529.914 1529.914 0 0 0-18.6 7.237m275.9-77.532a933.755 933.755 0 0 1 49.6-4.135m0-.27a1078.284 1078.284 0 0 1 56.833-1.526m-151.9 13.168a934.692 934.692 0 0 1 45.467-6.203m-310 89.936c5.163-2.091 10.33-4.16 15.5-6.202m461.9-89.128c-21-1.062-42.021-1.634-63.033-1.616M58.9 331.834a1729.462 1729.462 0 0 0-17.567 7.236M-3.1 358.711c4.476-2.084 8.953-4.151 13.433-6.202m139.5-54.789a1192.426 1192.426 0 0 0-26.866 9.304m-1.034-2.068A1154.218 1154.218 0 0 0 99.2 314.26m0 1.034a1712.383 1712.383 0 0 0-22.733 7.236m72.333-24.81a1118.382 1118.382 0 0 1 29.967-9.304m70.266-19.641a965.086 965.086 0 0 1 40.3-7.236m757.434 26.877c-38.388 6.866-77.15 9.58-115.734 9.282m-198.4-18.586c-28.25-4.46-56.476-9.123-84.733-13.438m0 0c-25.475-3.46-50.957-6.665-76.467-9.304m359.6 41.35c-34.801-.244-69.623-2.637-104.366-6.203m0 0c-31.38-3.673-62.705-8.426-94.034-13.438m-722.3 42.383c4.473-3.129 8.951-6.23 13.434-9.303m53.733-33.08a1250.29 1250.29 0 0 0-18.6 13.438m63.033-39.282A991.838 991.838 0 0 0 99.2 265.674m633.433-54.789c-28.259-6.179-56.46-12.628-84.733-18.608m-589 98.207a1473.777 1473.777 0 0 0-17.567 11.371m-1.033 0a1600.228 1600.228 0 0 0-15.5 11.371m74.4-47.552c-7.594 4.379-15.17 8.861-22.733 13.438m212.866-95.105a580.521 580.521 0 0 0-40.3 13.44m85.767-22.743a644.63 644.63 0 0 0-45.467 9.303m95.067-15.506a630.627 630.627 0 0 0-49.6 6.203m-184.967 64.092a974.063 974.063 0 0 0-26.866 13.439m55.8-27.911a886.776 886.776 0 0 0-29.967 13.438m100.233-40.316a677.708 677.708 0 0 0-36.166 13.439m833.9 15.506c-38.164 9.861-77.144 13.838-115.734 13.408m-359.6-63.028c-22.694-3.973-45.436-7.183-68.2-9.304M647.9 190.21c-25.458-4.993-50.931-9.623-76.467-13.439M-3.1 329.766c4.474-3.124 8.951-6.226 13.433-9.304M502.2 168.502c-20.988-2.036-42.02-3.133-63.033-3.101m-227.334 44.45A749.863 749.863 0 0 0 179.8 223.29m261.433-57.89c-18.946.032-37.914 1.037-56.833 3.101m442.267 60.991c-31.42-5.093-62.723-11.671-94.034-18.607m198.4 27.911c-34.817-.366-69.679-3.964-104.366-9.304m-1562.4 467.49c21 .667 42.044.422 63.033-.83m397.833-166.872a2068.959 2068.959 0 0 1-17.566 13.439m-767.767 86.835c31.396 7.916 62.668 16.538 94.033 24.81m735.734-156.097a3236.69 3236.69 0 0 1-13.434 9.304m-111.6 76.498a1278.281 1278.281 0 0 0 22.734-15.507m75.433-50.653c4.481-3.082 8.959-6.184 13.433-9.304m-374.066 180.906a543.507 543.507 0 0 0 49.6-11.371m257.3-123.016c6.21-4.422 12.408-8.904 18.6-13.439m-589 135.421c25.428 5.426 50.92 10.05 76.466 13.439m546.634-172.636c-5.162 3.819-10.328 7.61-15.5 11.371m-139.5 86.835a850.09 850.09 0 0 1-32.034 17.574m-719.2-26.878c34.918 5.548 69.666 13.68 104.367 22.743m537.333 35.147c-15.093 5.065-30.258 9.557-45.466 13.439m-106.434 17.574a622.835 622.835 0 0 0 56.834-6.203m95.066-25.844c13.485-4.696 26.922-9.878 40.3-15.506m-322.4 42.384c22.69 3.196 45.449 5.348 68.2 6.202m-543.533-96.344c38.511-2.355 77.311.477 115.733 6.408m808.067-24.81a1200.78 1200.78 0 0 1-26.867 15.506m-582.8 56.857c28.213 7.428 56.42 14.551 84.734 20.675m469.133-58.924a1066.505 1066.505 0 0 0 29.967-15.506m-100.234 47.552a796.148 796.148 0 0 0 36.167-15.506m136.4-77.531a1669.826 1669.826 0 0 1-22.733 13.438m0-51.687a1517.465 1517.465 0 0 1-22.734 9.304M-310 507.57a1945.437 1945.437 0 0 1-22.733 9.304m40.3-18.608a1845.303 1845.303 0 0 1-18.6 9.304m-71.3 28.945a1250.378 1250.378 0 0 1-29.967 11.371m-1.033 0a1060.433 1060.433 0 0 1-32.034 11.372m88.867-33.08a1367.609 1367.609 0 0 1-26.867 11.371m-676.833 19.641c31.368 5.603 62.68 11.719 94.033 17.574m0 0c28.23 4.834 56.458 9.466 84.734 13.439m0 1.033c25.46 3.765 50.952 6.965 76.466 9.304m546.634-115.78a2568.022 2568.022 0 0 1-15.5 7.236m-1.034 1.034a2443.337 2443.337 0 0 1-17.566 7.236M-446.4 559.26a973.18 973.18 0 0 1-36.167 11.371m-135.366 26.877a931.483 931.483 0 0 1-56.834 4.135m-130.2-4.135c22.714 2.141 45.459 3.574 68.2 4.135m-427.8-59.957c34.847 3.774 69.618 9.319 104.367 15.506m324.467 45.664c21.007.434 42.032.26 63.033-.587m428.833-126.743c-4.476 2.08-8.953 4.148-13.433 6.202m-225.267 88.903a854.541 854.541 0 0 1-40.3 11.371m292.434-111.645a3658.342 3658.342 0 0 1-13.434 6.203m-324.466 112.678a819.663 819.663 0 0 1-49.6 7.237m95.066-16.54a872.543 872.543 0 0 1-45.466 9.303m-711.967-51.209c38.548-1.353 77.226.259 115.733 3.657m0-64.093c34.804 1.761 69.589 4.347 104.367 7.237m0 1.033c31.35 2.304 62.687 4.823 94.033 7.237m707.834-43.418a4697.46 4697.46 0 0 1-15.5 3.101m-18.6 4.135a3124.766 3124.766 0 0 1-18.6 4.135m-257.3 41.35a1821.91 1821.91 0 0 1-49.6 3.102m-662.367-30.667c38.57-.991 77.173.215 115.733 2.755m889.7-24.81a3626.982 3626.982 0 0 1-17.566 4.135m-325.5 49.708c-18.94.91-37.887 1.537-56.834 1.893m444.334-65.04c-4.478 1.04-8.955 2.074-13.434 3.102m0 0c-4.477 1.04-8.955 2.075-13.433 3.101M-482.567 493.1a2100.595 2100.595 0 0 1-40.3 4.135m76.467-10.338a2341.516 2341.516 0 0 1-36.167 4.135M-310 462.086a3580.605 3580.605 0 0 1-22.733 4.135M-672.7 508.427c-21.009.395-42.023.454-63.033.211m322.4-26.91a1700.123 1700.123 0 0 1-32.034 6.202m-291.4 20.574c-22.735-.271-45.471-.916-68.2-1.865m-76.466-5.27c25.482 1.666 50.97 3.087 76.466 4.135m422.634-28.945c-9.985 1.43-19.974 2.81-29.967 4.135m-553.867 12.405c28.241 2.598 56.481 5.092 84.734 7.236m548.7-34.114a2813.472 2813.472 0 0 1-22.734 4.135m-167.4 27.911a1838.676 1838.676 0 0 1-45.466 4.135m211.833-29.978a3007.99 3007.99 0 0 1-26.867 4.135m125.034-62.019l-15.5-.013m29.966.013l-13.433-.012m-17.567.013l-17.566-.015m-275.9.03l-49.6-.045m-118.834.047l-68.2-.049m494.967.035l-22.733-.02m40.3.018l-18.6-.017m-21.7.02l-22.734-.022m-317.233.036c-21.011-.018-42.022-.034-63.033-.05m117.8.049l-56.834-.049m151.9.046l-45.466-.043m337.9.027l-13.434-.01m-561.1.028c-25.489-.017-50.977-.032-76.466-.047m-283.134.011c34.79.007 69.578.015 104.367.025m646.867.004a1628795 1628795 0 0 1-32.034-.032m88.867.028l-26.867-.025m-896.933.004c38.578.005 77.155.01 115.733.018m682 .01l-40.3-.039m76.467.038l-36.167-.036m-577.633.001c31.344.01 62.689.02 94.033.033m0-.037c28.245.012 56.49.026 84.734.041m499.1-.006l-29.967-.029m-1.033-70.28a2449.94 2449.94 0 0 0-32.034-4.135m-520.8-6.203c-31.346 2.416-62.682 4.935-94.033 7.236m323.433-22.673c-22.735.294-45.471.96-68.2 1.93m-76.466 6.271c-28.253 2.149-56.493 4.642-84.734 7.236m161.2-12.405c-25.495 1.055-50.984 2.475-76.466 4.135m358.566 3.101a1814.865 1814.865 0 0 0-45.466-4.135m-104.367-6.044a2083.993 2083.993 0 0 0-63.033-.145m117.8 1.935a1948.296 1948.296 0 0 0-56.834-1.829m-605.533 33.659c38.57.972 77.174-.233 115.733-2.766m0 0c34.804-1.76 69.589-4.345 104.367-7.236m491.867-17.574a1789.716 1789.716 0 0 0-49.6-3.1M-310 364.913a3558.068 3558.068 0 0 0-22.733-4.135m88.866 19.641c-4.477-1.04-8.955-2.075-13.433-3.101m-35.133-7.237a3105.977 3105.977 0 0 0-18.6-4.135m80.6 17.574a5723.51 5723.51 0 0 0-13.434-3.101m-238.7-46.519a2075.182 2075.182 0 0 0-40.3-4.135m264.534 45.485a4571.063 4571.063 0 0 0-15.5-3.101m-1.034 0a3550.77 3550.77 0 0 0-17.566-4.135m-89.9-18.608a2829.122 2829.122 0 0 0-29.967-4.135m79.567 15.507c-7.576-1.41-15.153-2.79-22.734-4.135m-1.033-2.068a2972.825 2972.825 0 0 0-26.867-4.135m-63.033-12.405a2316.386 2316.386 0 0 0-36.167-4.135m252.134 21.709a3643.418 3643.418 0 0 0-13.434-6.203M-1280.3 288.985c38.548 1.33 77.226-.282 115.733-3.67m283.134-46.519c-28.276 3.982-56.504 8.613-84.734 13.439m633.434 56.856a1505.068 1505.068 0 0 0-22.734-9.304M-1060.2 269.81c-34.748 6.188-69.52 11.73-104.367 15.506m596.234-48.586a806.615 806.615 0 0 0-49.6-7.237m95.066 16.54a862.143 862.143 0 0 0-45.466-9.303m211.833 63.058a1354.442 1354.442 0 0 0-26.867-11.37m-63.033-22.743a964.423 964.423 0 0 0-36.167-11.372m100.234 34.114a1239.458 1239.458 0 0 0-29.967-11.371m-392.667-48.586c-25.515 2.354-51.005 5.552-76.466 9.303m-84.734 14.473c-31.354 5.861-62.665 11.975-94.033 17.574m646.867 7.236a1051.243 1051.243 0 0 0-32.034-11.371m170.5 69.261a2417.7 2417.7 0 0 0-17.566-7.236m34.1 15.506a2542.546 2542.546 0 0 0-15.5-7.236m-462.934-111.645c-22.742.59-45.486 2.022-68.2 4.135m512.534 99.24a1830.843 1830.843 0 0 0-18.6-9.304M-672.7 224.693c-21.001-.805-42.027-.938-63.033-.466M-310 318.395a1932.646 1932.646 0 0 0-22.733-9.304m-285.2-79.599a905.637 905.637 0 0 0-56.834-4.135m430.9 124.05c-4.476-2.08-8.953-4.148-13.433-6.202m-225.267-86.835a845.95 845.95 0 0 0-40.3-11.371m-358.566-95.105c-28.313 6.739-56.521 14.574-84.734 22.742M-310 271.876a1667.66 1667.66 0 0 0-22.733-13.439m-472.234-121.982c-25.547 3.394-51.038 8.018-76.466 13.439m144.666-19.642c-22.752.866-45.51 3.017-68.2 6.203m472.234 121.982a1273.691 1273.691 0 0 0-22.734-15.506m-26.866-15.506a1065.439 1065.439 0 0 0-29.967-15.506m119.867 73.396a1707.547 1707.547 0 0 0-18.6-13.439m-853.534-51.687c-38.421 5.926-77.222 8.758-115.733 6.413m923.8 16.33a1199.008 1199.008 0 0 0-26.867-15.507m-676.833-29.979c-34.701 9.063-69.449 17.194-104.367 22.743m198.4-47.553c-31.365 8.274-62.637 16.896-94.033 24.81m387.5-66.612c-20.989-1.236-42.032-1.467-63.033-.787m212.866 32.252c-15.093-5.067-30.258-9.559-45.466-13.439m85.766 29.979c-13.378-5.63-26.815-10.81-40.3-15.507M-230.433 327.7a3257.14 3257.14 0 0 0-13.434-9.304m-169.466-107.51a848.22 848.22 0 0 0-32.034-17.574m-172.566-55.822a618.602 618.602 0 0 0-56.834-6.203m228.367 63.059a794.733 794.733 0 0 0-36.167-15.506m224.234 130.252a2311.67 2311.67 0 0 0-15.5-11.371m-1.034 0a2066.668 2066.668 0 0 0-17.566-13.439m48.566 34.114c-4.474-3.12-8.952-6.222-13.433-9.304M-568.333 148.86a541.59 541.59 0 0 0-49.6-11.371m-283.134 734.996c25.67 10.818 51.474 20.427 77.5 27.911m434-147.826a1238.285 1238.285 0 0 0 27.9-27.911m0 0a1487.69 1487.69 0 0 0 24.8-26.878m-82.666 83.734c10.75-9.637 21.424-19.643 32.033-29.979m73.367-81.666a2063.625 2063.625 0 0 0 20.666-22.743m18.6-21.708a2935.543 2935.543 0 0 0 15.5-20.675m-34.1 42.383a2555.807 2555.807 0 0 0 18.6-22.742m-716.1 207.784c29.239 14.055 58.378 27.93 87.834 40.316m566.266-176.771a1758.526 1758.526 0 0 0 22.734-24.81M-823.567 901.43c23.266 6.24 46.749 10.902 70.267 13.439m507.367-326.665c4.483-5.832 8.96-11.69 13.433-17.574m-26.867 34.114c4.485-6.167 8.962-12.37 13.434-18.608m36.166-45.485a5216.01 5216.01 0 0 1-11.366 13.439m2.066 1.034A4742.179 4742.179 0 0 1-232.5 570.63m-397.833 335.969c17.343-4.419 34.615-10.313 51.666-17.574m125.034-77.531c11.458-9.514 22.82-19.524 34.1-29.979m-72.334 57.89c12.862-9.33 25.604-19.348 38.234-29.979M-579.7 889.025c15.994-6.482 31.858-14.104 47.533-22.743m331.7-339.07a6533.402 6533.402 0 0 1-9.3 13.44m-479.466 375.25a341.412 341.412 0 0 0 58.9-9.303m96.1-40.317c14.261-8.105 28.388-17.099 42.366-26.877M-753.3 914.869c21.292 3.188 42.748 3.99 64.067 2.07m231.466 98.203c11.509-13.796 22.863-28.292 34.1-43.417m0-1.034c10.786-13.973 21.454-28.461 32.034-43.417m74.4-121.983a3091.12 3091.12 0 0 0 20.666-36.181m-200.466 289.45c13.285-13.206 26.36-27.372 39.266-42.384m117.8-171.602a2612.89 2612.89 0 0 0 22.734-39.283M-393.7 927.274c9.376-13.761 18.669-27.9 27.9-42.384m-173.6 212.952c14.364-11.843 28.478-24.997 42.367-39.282m200.466-290.484a3492.034 3492.034 0 0 0 18.6-32.046m108.5-208.818c-2.066 4.483-4.133 8.963-6.2 13.44m-58.9 110.61c4.484-7.555 8.96-15.136 13.434-22.742m-56.834 108.544a4534.822 4534.822 0 0 0 17.567-32.047m-2.067 0a5040.89 5040.89 0 0 0 15.5-27.91M-639.633 1157.8c17.804-6.04 35.457-14.411 52.7-24.81m-113.667 36.181c19.702-1.11 39.525-4.924 58.9-11.371m395.767-480.694a5751.255 5751.255 0 0 0 13.433-24.81m55.8-111.645c-2.41 4.484-4.821 8.963-7.233 13.439m-17.567 34.114c3.102-5.85 6.202-11.707 9.3-17.574m0 0c2.412-5.163 4.823-10.332 7.233-15.506M-210.8 606.81c3.102-6.19 6.202-12.392 9.3-18.607m-164.3 297.72a2059.914 2059.914 0 0 0 24.8-40.317m118.833-218.12A7833.565 7833.565 0 0 0-210.8 606.81m-376.133 525.145c16.121-9.662 31.984-21.124 47.533-34.114m386.467-527.212l4.133-15.506m0-1.034l3.1-13.439m-262.467 935.544c10.11-27.83 20.084-56.445 29.967-85.801m172.567-610.947c3.102-12.04 6.202-24.1 9.3-36.18m54.766-216.055l-3.1 13.44M-378.2 1390.393c9.04-27.337 17.985-55.259 26.867-83.734m164.3-597.508c2.412-9.983 4.823-19.976 7.233-29.978m6.2-26.878c2.067-7.577 4.134-15.158 6.2-22.742m10.333-40.317l4.134-17.573m-13.434 57.89l4.134-22.743m-32.034 135.421a41263.98 41263.98 0 0 0 7.234-32.046m24.8-102.341l4.133-18.608m-68.2 271.877c3.794-14.432 7.582-28.906 11.367-43.418m-90.934 334.935c6.228-22.524 12.425-45.27 18.6-68.227m0 0c5.877-20.862 11.73-41.884 17.567-63.059m-1.033 1.034c5.18-19.526 10.346-39.17 15.5-58.924m75.433-283.248a61659.78 61659.78 0 0 0 6.2-26.877m-79.567 310.125c4.488-17.493 8.965-35.068 13.434-52.721m23.766-93.038c3.793-13.066 7.581-26.16 11.367-39.282m-146.733 528.246a6610.051 6610.051 0 0 0 22.733-77.531m0-1.034a7713.128 7713.128 0 0 0 22.733-73.396m66.134-244.999c4.485-16.138 8.962-32.334 13.433-48.586m113.648-320.463l.037-13.439m-.039 26.878l.041-13.439m-1.089 111.645l.07-22.742m-.078 79.598l.087-29.978m-.083 1.033l.078-26.877m.966-45.485l.057-18.608m-.06 40.317l.063-22.743m-1.124 212.953l.119-40.317m-.108-37.215l.096-32.046m-.101 69.261l.107-36.18m.954-155.063l.051-17.574m-3.25 690.545l.249-84.768m-.278 283.248l.307-104.409m-.265-178.839l.224-76.497m2.965-529.28l.046-15.506m-1.157 544.786l.201-68.228m-2.338 544.787l.341-115.78m1.806-429.007l.18-60.99m-2.294 384.554l.276-94.071m1.855-346.306l.147-49.62m-.14 0l.132-45.485m-.147 150.927l.163-56.856m34.018-359.745c-1.033-4.477-2.067-8.956-3.1-13.439m17.567 66.16c-1.379-6.196-2.756-12.398-4.133-18.607m15.5 62.025c-2.068-7.57-4.135-15.15-6.2-22.743M-74.4 570.63c-1.034-5.165-2.067-10.334-3.1-15.506m74.4 295.652a13275.6 13275.6 0 0 1-11.367-42.384m-54.766-220.188c-1.379-5.853-2.757-11.71-4.134-17.574m12.4 56.856a29848.65 29848.65 0 0 1-4.133-20.675m33.067 130.253a20435.89 20435.89 0 0 1-7.234-32.047m16.534 65.127a15498.653 15498.653 0 0 1-9.3-34.114m18.6 72.362a15694.025 15694.025 0 0 1-9.3-38.248m-25.834-95.105a21005.45 21005.45 0 0 1-6.2-24.81m112.634 409.365A7516.932 7516.932 0 0 1 40.3 1000.67M10.333 896.261c-4.49-15.076-8.966-30.239-13.433-45.485m100.233 338.036a5585.308 5585.308 0 0 1-20.666-68.227m-52.7-174.704a10294.335 10294.335 0 0 1-13.434-49.62M40.3 1001.704a8961.444 8961.444 0 0 1-15.5-54.789m121.933 386.622c-9.057-23.831-18.003-48.306-26.866-73.396m0-1.034a4368.924 4368.924 0 0 1-22.734-70.295m-179.8-648.16l-3.1-13.44m260.4 882.823c-9.434-24.312-18.72-49.481-27.9-75.464M-40.3 702.95c-2.414-9.284-4.825-18.588-7.233-27.911m124 447.613a6552.978 6552.978 0 0 1-18.6-63.058m170.5-88.903c-11.518-11.97-22.877-24.748-34.1-38.249M18.6 668.836a3286.426 3286.426 0 0 1-13.433-22.742m260.4 358.711c-12.935-10.391-25.677-21.802-38.234-34.114M135.367 856.98a1403.526 1403.526 0 0 1-24.8-36.182m0 0a1673.013 1673.013 0 0 1-22.734-34.113M310 1033.75c-14.34-8.704-28.475-18.753-42.367-29.979m-179.8-217.087a1969.447 1969.447 0 0 1-20.666-32.047M49.6 723.625a2727.076 2727.076 0 0 1-15.5-27.911m-27.9-49.62A4008.854 4008.854 0 0 1-7.233 623.35m170.5 271.876c-9.389-12.315-18.682-25.077-27.9-38.248m-102.3-161.265a3348.392 3348.392 0 0 1-13.434-26.878M195.3 932.442c-10.8-12.176-21.469-24.943-32.033-38.248m244.9 177.805c19.529 3.454 39.321 3.96 58.9 1.829M68.2 754.638a2498.774 2498.774 0 0 1-18.6-32.047m-54.767-99.24a4526.312 4526.312 0 0 1-11.366-20.675m424.7 468.289c-17.333-2.523-34.67-7.03-51.667-13.439M-25.833 584.07a5670.752 5670.752 0 0 1-9.3-17.574m18.6 36.181a5150.183 5150.183 0 0 1-9.3-18.607m-9.3-15.507a6481.105 6481.105 0 0 1-7.234-15.506m398.867 504.47c-16.05-5.968-31.948-13.611-47.533-22.742m-359.6-496.2a8144.823 8144.823 0 0 1-6.2-13.439m14.466 26.877c-2.068-4.47-4.135-8.95-6.2-13.438m40.3 11.371a2980.79 2980.79 0 0 1-11.366-13.439m67.166 80.633a1834.718 1834.718 0 0 1-15.5-18.608M260.4 804.257c-12.853-6.915-25.602-14.518-38.233-22.742m234.566 71.999c-18.93.934-37.945.085-56.833-2.738M4.133 565.461A2622.055 2622.055 0 0 1-9.3 552.022m25.833 28.945A2322.97 2322.97 0 0 1 3.1 565.461m82.667 94.071A1498.89 1498.89 0 0 1 65.1 636.79M591.067 827c-23.306 7.566-46.732 13.988-70.267 18.607m-119.867 5.17c-17.28-2.315-34.558-6.105-51.666-11.372M223.2 779.447c-11.459-7.748-22.825-16.035-34.1-24.81m160.167 85.802c-15.949-4.12-31.827-9.31-47.534-15.507m-194.266-143.69a1249.508 1249.508 0 0 1-22.734-22.743m47.534 46.518a1041.492 1041.492 0 0 1-24.8-22.742m80.6 72.362c-10.062-7.882-20.049-16.164-29.967-24.81m1.033 0a888.67 888.67 0 0 1-26.866-24.81m-102.3-106.476a2090.986 2090.986 0 0 1-13.434-17.574m-36.166-43.417a3524.467 3524.467 0 0 1-9.3-13.439m331.7 300.821c-14.238-6.01-28.376-12.927-42.367-20.675m497.033-39.282c-29.37 10.943-58.51 22.773-87.833 34.114M520.8 846.64c-21.268 3.888-42.68 6.423-64.067 7.236M65.1 637.824a1658.868 1658.868 0 0 1-17.567-20.675M669.6 799.089c-25.77 10.058-51.535 19.67-77.5 27.911M-632.4-79.599c17.344 4.42 34.615 10.315 51.667 17.574m-108.5-26.878a342.345 342.345 0 0 1 58.9 9.304m-122.967-8.27c21.293-3.2 42.749-3.996 64.067-2.048m352.366 221.203a1758.312 1758.312 0 0 1 22.734 24.81m38.233 45.485a2921.303 2921.303 0 0 1 15.5 20.675m-34.1-42.384a2550.486 2550.486 0 0 1 18.6 22.743m-38.233-45.485a2059.95 2059.95 0 0 1 20.666 22.742m83.7 106.477c3.102 4.47 6.202 8.95 9.3 13.438M-903.133-45.485c25.67-10.82 51.474-20.43 77.5-27.911m333.766 60.991c12.862 8.686 25.604 18.014 38.234 27.911m232.5 257.404a5214.31 5214.31 0 0 1 11.366 13.439m-613.8-360.779c23.267-6.243 46.75-10.907 70.267-13.439m520.8 344.239c4.482 5.15 8.96 10.32 13.433 15.506m-26.866-33.08c4.483 5.832 8.96 11.69 13.433 17.574M-534.233-39.283c14.261 8.107 28.388 17.1 42.366 26.878m38.234 27.911c11.458 9.514 22.82 19.524 34.1 29.979m-2.067 0c10.751 9.637 21.424 19.642 32.033 29.979m130.2 146.792c4.485 6.167 8.962 12.37 13.434 18.608M-389.567 74.43a1236.7 1236.7 0 0 1 27.9 27.911m-629.3-107.51c29.238-14.058 58.378-27.932 87.834-40.316m322.4-16.54c15.993 6.483 31.858 14.104 47.533 22.742m171.533 141.624a1485.602 1485.602 0 0 1 24.8 26.878M-497.033-231.56c13.285 13.207 26.36 27.373 39.266 42.384m272.8 462.086c2.412 4.476 4.823 8.955 7.234 13.439M-539.4-270.843c14.364 11.847 28.478 25.001 42.367 39.283m234.566 353.542a5299.419 5299.419 0 0 1 13.434 27.912M-641.7-330.8c17.805 6.05 35.458 14.422 52.7 24.81m308.967 395.926a4520.54 4520.54 0 0 1 17.566 32.046M-641.7-329.766c-19.373-6.419-39.196-10.233-58.9-11.372m489.8 561.327c3.102 6.19 6.202 12.392 9.3 18.607m-258.333-426.939c11.508 13.798 22.863 28.294 34.1 43.418M-589-304.956c16.122 9.668 31.984 21.129 47.533 34.113m363.734 557.192c2.067 4.476 4.133 8.956 6.2 13.438m-254.2-443.478c10.786 13.974 21.454 28.462 32.033 43.417m159.133 276.011c4.484 7.555 8.961 15.137 13.434 22.743m27.9 57.89A14087.93 14087.93 0 0 1-186 271.876m-36.167-72.362a7793.274 7793.274 0 0 1 11.367 20.675m-37.2-70.295a5759.33 5759.33 0 0 1 13.433 24.81m33.067 64.092c3.102 5.849 6.202 11.707 9.3 17.574M-365.8-56.856A2059.089 2059.089 0 0 1-341-16.54m0-1.034a2615.262 2615.262 0 0 1 22.733 39.283M-393.7-100.274c9.376 13.762 18.669 27.9 27.9 42.384m48.567 79.599a3092.243 3092.243 0 0 1 20.666 36.181m0 1.034a3492.44 3492.44 0 0 1 18.6 32.046m72.334-43.418a32707.64 32707.64 0 0 1 9.3 36.182M-217 9.304c3.793 13.066 7.581 26.16 11.367 39.282m60.966 237.763l3.1 13.438m-145.7-557.19c5.876 20.861 11.73 41.884 17.567 63.058m119.867 467.255l3.1 13.439m-159.134-611.98c6.228 22.524 12.425 45.27 18.6 68.227m125.034 476.559l4.133 18.607m5.167 18.608l4.133 15.506m-8.267-34.114l4.134 17.574m-198.4-734.996a6626.382 6626.382 0 0 1 22.733 77.531m-49.6-161.265c9.04 27.34 17.985 55.26 26.867 83.734m170.5 626.452c2.067 8.953 4.134 17.912 6.2 26.878M-328.6-400.061a7737.763 7737.763 0 0 1 22.733 73.396m139.5 524.111l4.134 22.743m-34.1-135.422c2.412 10.669 4.823 21.351 7.233 32.047m-39.267-150.928c3.794 14.432 7.583 28.906 11.367 43.418m42.367 165.4a56888.52 56888.52 0 0 1 6.2 22.742M-254.2-136.455a17228.42 17228.42 0 0 1 13.433 52.721m0 1.034a19066.68 19066.68 0 0 1 13.434 48.586m-180.834-615.081c10.11 27.834 20.084 56.448 29.967 85.801m107.467 368.015c5.18 19.526 10.346 39.17 15.5 58.924m67.166 254.302c2.412 9.984 4.823 19.977 7.234 29.98m67.066-420.737l.2 68.227m-.165 166.434l.131 45.485m-.125 0l.119 40.316m-.133-135.42l.146 49.62m-.126 85.8l.107 36.182m-.144-288.417l.18 60.992m-2.268-205.717l.223 76.498m1.874 129.219l.163 56.856m.92 284.281l.063 22.743m-.052 52.721l.041 13.439m-.046-47.553l.051 17.574m-.048 0l.046 15.506m-1.092-97.172l.07 22.742m.97 21.709c.02 6.202.038 12.405.057 18.607m-1.11-152.995l.096 32.047m-2.284-866.283l.34 115.78m1.857 780.481l.078 26.878m-.082-55.823l.087 29.98m.971 138.522l.037 13.438m-3.256-828.033l.275 94.071m-.29-198.48l.305 104.409m-.276 94.071l.248 84.767m260.276-157.13c-8.361 23.835-16.618 48.31-24.8 73.397M-1.033-23.776A13263.089 13263.089 0 0 0-12.4 18.607m-10.333 38.25a15352.28 15352.28 0 0 0-9.3 34.113m18.6-72.363a15655.109 15655.109 0 0 0-9.3 38.25m-9.3 33.08a20471.837 20471.837 0 0 0-7.234 32.045M40.3-174.704a9006.066 9006.066 0 0 0-15.5 54.789m33.067-112.679A7549.205 7549.205 0 0 0 40.3-173.67m56.833-188.143a5600.696 5600.696 0 0 0-20.666 68.228m0-2.068a6570.104 6570.104 0 0 0-18.6 63.06M12.4-69.262C7.91-54.185 3.434-39.021-1.033-23.776m24.8-95.105a10333.657 10333.657 0 0 0-13.434 49.62M-80.6 286.349c-1.034 4.477-2.067 8.957-3.1 13.438m22.733-100.273c-1.378 6.883-2.756 13.774-4.133 20.675m-4.133 18.607c-1.379 5.853-2.756 11.711-4.134 17.574m20.667-79.599c-2.068 7.57-4.135 15.15-6.2 22.743m-18.6 73.396c-1.034 4.477-2.067 8.956-3.1 13.439m6.2-29.979c-1.034 5.165-2.067 10.334-3.1 15.506m12.4-51.687c-1.379 6.196-2.756 12.398-4.133 18.607m22.733-86.835a20648.78 20648.78 0 0 0-6.2 24.81m227.333-759.806c-9.433 24.316-18.719 49.485-27.9 75.464m-26.866 75.463a4385.813 4385.813 0 0 0-22.734 70.295M-40.3 124.05a19172.14 19172.14 0 0 0-7.233 27.911m98.166-48.586a2719.286 2719.286 0 0 0-15.5 27.911M-34.1 258.437a6383.804 6383.804 0 0 0-7.233 15.507m0 1.033c-2.069 4.47-4.135 8.95-6.2 13.44m-2.067 0a7760.264 7760.264 0 0 0-6.2 13.438m32.033-58.924a5716.284 5716.284 0 0 0-9.3 17.574m27.9-56.856a4496.598 4496.598 0 0 0-11.366 20.675m23.766-43.418A4003.286 4003.286 0 0 0-6.2 203.65m-10.333 20.675a5105.278 5105.278 0 0 0-9.3 18.607M356.5-230.526c-16.05 5.979-31.948 13.622-47.533 22.742M69.233 72.362a2497.09 2497.09 0 0 0-18.6 32.047m-31 53.755A3291.057 3291.057 0 0 0 6.2 180.906m261.433-358.711c-12.935 10.395-25.676 21.806-38.233 34.114m-34.1 38.248c-10.8 12.178-21.469 24.946-32.033 38.25m2.066-1.035c-9.388 12.317-18.682 25.079-27.9 38.25M310-206.75c-14.34 8.71-28.475 18.76-42.367 29.979M229.4-141.624c-11.518 11.327-22.877 23.413-34.1 36.181M89.9 40.317a1973.797 1973.797 0 0 0-20.667 32.045m338.934-316.327c-17.334 2.546-34.671 7.053-51.667 13.439M35.133 131.286A3336.44 3336.44 0 0 0 21.7 158.164M137.433-29.98a1404.73 1404.73 0 0 0-24.8 36.181m354.434-253.16c-19.581-1.98-39.374-1.423-58.9 1.96M112.633 6.201A1672.661 1672.661 0 0 0 89.9 40.316m43.4 81.666a1039.555 1039.555 0 0 0-24.8 22.743M262.467 22.742c-12.854 6.917-25.603 14.52-38.234 22.743m80.6-43.418c-14.238 6.012-28.375 12.93-42.366 20.675m-38.234 24.81c-10.764 7.749-21.441 16.036-32.033 24.81m157.067-85.8C334.012-9.317 318.824-4.127 303.8 2.066M108.5 145.76A1246.037 1246.037 0 0 0 85.767 168.5m505.3-166.434C567.76-5.504 544.334-11.927 520.8-16.54M190.133 72.362c-10.061 7.883-20.048 16.165-29.966 24.81M520.8-17.574c-20.926-3.9-41.992-6.436-63.033-7.236m1.033-.694c-18.932-.895-37.945-.037-56.833 2.761m0-1.033c-17.281 2.321-34.56 6.111-51.667 11.371M160.167 97.172a888.076 888.076 0 0 0-26.867 24.81M-16.533 289.45a3473.079 3473.079 0 0 0-9.3 13.439M669.6 27.91C643.83 17.85 618.064 8.236 592.1 0m163.267 62.025c-28.678-10.947-57.134-22.778-85.767-34.114M-5.167 277.045a2979.23 2979.23 0 0 0-11.366 13.439M49.6 209.85a1828.468 1828.468 0 0 0-15.5 18.608m-1.033 0a2083.29 2083.29 0 0 0-13.434 17.573m47.534-56.856A1652.07 1652.07 0 0 0 49.6 209.851m38.233-42.384a1496.953 1496.953 0 0 0-20.666 22.743M6.2 261.539a2422.554 2422.554 0 0 0-11.367 13.438M18.6 246.032c-4.486 5.132-8.963 10.301-13.433 15.507"/></g></g></svg>