<svg width="1440" height="1146" xmlns="http://www.w3.org/2000/svg" xmlns:xlink="http://www.w3.org/1999/xlink"><defs><path id="a" d="M0 0H2070.897V1146H0z"/></defs><g transform="translate(-315)" fill="none" fill-rule="evenodd"><mask id="b" fill="#fff"><use xlink:href="#a"/></mask><use fill-opacity="0" fill="#F7F7F7" xlink:href="#a"/><g opacity=".3" mask="url(#b)" stroke="#E27E6F" stroke-width="2"><path d="M-591.069 658.95v98.842m409.865 610.245c138.36 138.992 268.747 292.905 405.551 439.778m0-1.433c132.265 142.228 263.846 271.642 405.55 360.99M2254.978 63.03c-140.036-123.508-270.586-271.59-405.55-421.155m812.539 1375.2v-90.248m-3253.035 31.515V859.5m0-101.708v98.843m2440.495-1214.76c-134.03-149.271-264.78-292.982-405.55-406.83m-2.877 2.865c-129.021-104.54-267.311-180.06-405.55-196.253m-1625.08 2016.96c142.61 64.48 276.642 177.694 408.427 309.42m2843.17-709.087v-90.248m0 269.31v-90.247m0 1.432V658.95M629.898 2165.94c128.765 80.982 271.25 124.14 405.55 108.599M2661.967 928.26v-90.248m0-267.877v-90.248m-812.54 1196.138c-134.027 149.282-264.78 292.99-405.55 406.83m-408.427 193.387c138.238-16.196 276.527-91.712 405.55-196.252M2661.966 389.64v90.247m-1.438-179.062c-139.865-33.134-276.028-122.909-405.55-237.795m0 1191.84c129.52-114.887 265.68-204.675 405.55-237.795M224.348-488.483c132.266-142.216 263.845-271.628 405.55-360.99M-591.07 259.282v98.843m0 1.432V458.4m2846.046 796.47c-140.03 123.54-270.582 271.614-405.55 421.155m812.539-1375.2v90.247M-184.08-50.138c-130.857 131.726-263.947 244.934-405.55 309.42m-1.439 799.335v-98.842M1035.45-956.641c-134.3-15.535-276.788 27.626-405.551 108.601M-591.07 461.265v98.842m0 0v98.843m406.99-707.655c138.362-138.98 268.748-292.894 405.55-439.778M-428.561 547.215V658.95m0 223.47V770.685M1402.17 1965.39c-117.751 79.158-242.513 134.472-366.721 147.547M-63.277-93.113C59.996-212.76 179.073-337.25 303.444-451.238m-730.567 1555.695c126.635 82.02 246.387 190.673 366.722 307.988m-368.16-1199.003v111.735m733.443-776.415c119.336-109.217 239.901-205.408 366.722-269.31m1462.57 2018.393c118.22-107.255 238.066-200.638 363.846-260.715M-428.56 435.48v111.735m2928.018-77.355v-94.545M304.882 1769.137c119.334 109.235 239.902 205.429 366.722 269.31M-428.561 658.95v111.735M671.604 2038.447c117.938 58.418 245.151 86.973 366.72 74.452M-60.4 1411.012c123.27 119.664 242.347 244.154 366.721 358.125m1827.855-471.292c-124.59 111.881-243.682 235.41-366.722 355.26M1402.17-647.49c-117.749-79.158-242.512-134.478-366.721-147.548m1462.57 1074.375c-125.77-59.773-245.626-152.623-363.844-259.282m-365.284-355.26c-120.563-117.504-240.209-227.406-366.72-312.285m732.004 667.545c-124.598-111.842-243.687-235.379-366.722-355.26M-428.56 880.987v111.735M2499.46 469.86v94.545m-2928.02-239.228v111.735M671.604-720.548c117.935-58.405 245.151-86.965 366.72-74.456M2499.459 280.77v94.545m0 661.815v-94.545M-428.56 1104.457V992.722M2499.46 658.95v-94.545m0 283.635v-94.545m-730.568 899.61c-120.56 117.519-240.21 227.417-366.72 312.285M2499.457 753.495V658.95M-60.402-94.545c-120.333 117.315-240.09 225.96-366.72 307.987m2926.58 729.143V848.04m-145.25-293.663V658.95M48.896-114.6C-60.874-15.955-169.208 80.444-281.872 163.305m2306.75 1163.19c107.882-93.644 215.64-180.664 327.891-249.255M-283.31 163.305V286.5m0 246.39v126.06m1980.296-958.343c-108.53-91.896-217.407-175.724-330.768-239.227m-330.768 2506.933c-108.809 10.588-221.329-9.143-327.892-53.06m327.892-2565.608c111.522 10.629 223.658 51.558 330.768 111.735m986.552 780.712c-112.242-68.615-220.012-155.614-327.892-249.255m329.33 770.685V658.95m0 207.712V762.09M376.789 1716.135c107.737 82.923 217.462 153.642 330.769 199.117M-283.31 782.145V658.95M48.896 1432.5c110.14 98.674 218.412 196.873 330.769 283.635m-661.537-558.675c112.667 82.856 220.995 179.263 330.768 277.905M-283.31 286.5v123.195m2308.187 916.8c-110.162 96.014-217.41 196.475-327.892 290.797M2026.315-7.163c-111.137-96.45-219.322-197.412-330.768-292.23m658.66 541.485v104.573M-283.31 908.205V1031.4m0 123.195V1031.4m2637.518-580.163V346.665M-283.31 785.01v123.195m1977.42 709.087c-107.584 91.911-215.52 175.735-327.893 239.228m987.99-1300.71V451.237m-987.99 1405.283c-106.182 60.175-217.34 101.099-327.892 111.735m1315.883-997.02V866.662M48.896-114.6C159.04-213.257 267.31-311.456 379.665-398.235m327.892-199.118c107.494-43.902 221.005-63.64 330.768-53.068M-283.31 409.695V532.89m660.098-931.125c107.739-82.902 217.46-153.618 330.769-199.118m1646.65 1673.16V971.235M-149.564 522.862V658.95m2370.027 454.102V999.885m-885.884 753.495c-96.634 45.535-196.694 75.88-296.253 84.517M2220.462 203.415c-99.408-66.888-196.037-143.393-293.377-222.038m-888.76-501.375c99.56 8.63 199.623 38.98 296.253 84.518M-149.565 116.032V252.12m0 406.83v136.087M1334.578-434.048c100.906 47.781 199.022 111.708 296.254 183.36m0 1822.14c-97.23 71.106-195.351 134.528-296.254 181.928M1927.085-18.623c-98.833-79.243-196.287-159.072-296.253-232.065m589.63 795.038V431.182m0 227.768V545.782M-149.565 793.605v136.087M445.818-338.07c96.777-62.929 195.563-114.946 296.254-147.548m1478.39 916.8V318.015M742.072-482.753c97.05-31.622 197.855-44.706 296.253-36.082M-149.565 252.12v136.087m0 541.485v136.088m2370.027-65.895V886.717m0 0V773.55M1038.325 1836.725c-98.398 8.643-199.199-4.434-296.253-36.073M-149.565 388.207v136.088m-1.438 676.14c100.794 75.71 199.162 157.507 299.13 237.795m0-2.865c98.12 79.195 195.725 155.342 296.253 220.605M148.127-117.465C246.249-196.644 343.854-272.79 444.38-338.07M148.127-118.898C48.163-38.6-50.21 43.187-151.003 118.897m2371.465 85.95v113.168M742.072 1800.652c-100.69-31.945-199.478-82.953-296.254-144.682m1774.644-997.02v113.167m-293.377 567.27c-98.826 79.275-196.285 159.098-296.253 232.065m-1780.397-369.585V1065.78m2076.65 273.607c97.345-78.638 193.963-155.164 293.377-222.037M-33.077 802.2v143.25m0-286.5V802.2m0 141.817v143.25m0-714.817V515.7m0 0v143.25m2137.051 365.287v-120.33m-266.053 429.75c88.26-64.232 175.652-128.938 264.615-189.09m-1.438-971.235c-87.992-60.155-174.444-124.842-261.738-189.09M1571.869-200.55c90.229 56.252 178.62 119.111 267.49 183.36M-33.076 230.632v143.25M1570.43 1518.45c90.231-56.232 178.626-119.086 267.491-183.36M503.343-270.743c87.71-46.218 177.123-83.283 267.491-106.005m267.49 2096.148c-88.912 7.229-179.35-1.566-267.49-24.753m1333.14-550.08v-120.33M1038.324-403.965c89.687 7.214 179.734 30.492 267.492 65.895m264.614 1856.52c-87.935 54.51-176.87 102.18-267.49 137.52M-31.64 1227.652c90.43 64.333 179.68 130.533 270.367 193.388m1865.246-762.09V538.62m0-1.433v-120.33M235.852-103.14c88.387-61.72 176.952-119.401 267.491-167.603m1600.631 684.735v-120.33M506.22 1588.642c-90.54-48.185-179.105-105.867-267.49-167.602M770.833-376.748c88.136-23.17 178.578-31.97 267.49-24.765m-1071.4 1632.03v-143.25m0-999.885v143.25m2137.05 548.648V658.95m0 242.092v-120.33M1304.378-338.07c90.623 35.345 179.555 83.02 267.49 137.52M770.835 1697.512c-90.365-22.699-179.78-59.765-267.49-106.005m802.472 64.463c-87.762 33.86-177.806 56.12-267.491 63.03m1065.65-1545.668v120.33M235.851-103.14C146.132-40.272 57.828 25.92-31.638 90.247M1996.114 406.83V280.77M74.782 805.065v144.682M1996.115 532.89V406.83m-477.457-548.648c80.9 43.076 160.53 92.032 240.167 143.25M316.387-77.355c79.332-47.44 159.124-90.683 240.167-126.06M76.22 1240.545c80.922 53.143 161.41 105.932 243.042 154.71M74.783 1094.43V949.747m1921.332 212.01v-126.06m-957.79-1330.792c80.39 5.708 161.02 22.69 240.166 48.705M74.782 366.72v144.682m481.772-713.385c79.051-34.412 159.386-61.238 240.166-77.355M1996.115 658.95V532.89M798.158-279.338c79.452-15.27 160.286-20.553 240.167-15.1m719.062 1613.77c79.848-50.943 158.9-103.648 238.728-154.71M319.263-75.923C237.635-28.032 157.144 23.772 76.221 75.922m1682.604-74.49c78.88 50.967 156.986 103.655 235.852 154.71M559.43 1521.315c-81.043-35.363-160.836-78.606-240.167-126.06m959.228 169.035c-79.15 26.01-159.776 42.988-240.166 48.705m240.166-48.705c81.013-26.616 161.034-62.656 240.167-104.573M1278.491-246.39c81.015 26.62 161.036 62.663 240.167 104.572M74.782 658.95v144.682m963.543 808.69c-79.88 5.478-160.712.2-240.167-15.085M1996.115 911.07V785.01M74.782 511.402V658.95m1921.333-502.808v126.06M799.596 1598.67c-80.778-16.095-161.114-42.922-240.166-77.355M74.783 1241.977v-144.682M1996.114 785.01V658.95M74.782 75.922v144.683m1921.333 816.525V911.07M74.782 220.605v144.682m1682.605 951.18c-79.634 51.24-159.266 100.191-240.167 143.25m-693.175 48.705c-72.333-11.301-144.475-30.53-215.719-55.867m-218.595-91.68c-73.407-37-145.982-77.951-218.594-120.33M1899.76 147.547v128.925M171.137 223.47v144.682M1899.76 658.95V530.025m-212.843 763.522c71.753-39.606 142.863-81.44 214.28-123.195m-431.436 233.498c-71.247 31.272-143.195 57.784-215.719 77.355M1686.918 24.352c70.785 39.635 140.944 81.456 211.405 123.195m-644.28-312.285c72.526 20.298 144.474 47.795 215.719 80.22m429.999 872.393V658.95m-861.436 859.5c72.121-4.493 144.39-16.85 215.718-35.813M171.137 949.747v144.683m435.751 358.125c-72.577-25.968-144.4-58.283-215.718-94.545M389.73-40.11C316.327-3.531 243.751 36.926 171.137 78.787m0 0V223.47m1515.781 1070.077c-71.492 39.572-143.185 76.661-215.718 108.87M822.606-190.523c71.557-10.662 143.934-13.97 215.719-9.563m861.436 731.543V402.532m0 767.82v-128.925M389.73-40.11c71.32-36.25 143.142-68.565 215.719-94.545M171.137 1239.112V1094.43m0-435.48v144.682m1728.624 237.795V912.502M1038.325-200.55c72.122 4.485 144.392 16.844 215.718 35.812M1038.325 1517.97c-71.786 4.43-144.16 1.13-215.719-9.548M605.45-134.655c71.243-25.318 143.385-44.547 215.718-55.868m1078.593 595.92V276.472M171.137 511.402V658.95M1899.76 915.367V786.442M1471.2-84.518c72.533 32.221 144.224 69.314 215.718 108.87M171.137 805.065v144.682m0-581.595v144.683M454.447 1.432C388.35 29.06 322.818 60.178 257.424 93.112m197.023 1223.355c-66.1-27.607-131.63-58.731-197.023-91.68m1169.194 121.763c-64.26 23.889-129.038 43.916-194.146 58.732m581.001-1252.005v126.06m0 127.493V280.77m0 252.12V406.83m-192.708 855.202c64.053-30.737 127.632-63.73 191.27-97.41m-385.417 181.928c65.159-24.698 129.78-53.404 194.147-84.518M257.424 942.585v143.25m0 140.385v-143.25M1623.641 55.867c63.567 30.77 126.67 63.75 189.832 97.41m0 1011.345v-126.06M257.424 375.315V515.7m975.048 889.582c-64.351 15.01-129.293 24.817-194.147 28.65M257.424 658.95V802.2m586.754 624.57c64.519 7.03 129.514 8.92 194.147 5.515M844.178-108.87c64.517-7.017 129.514-8.914 194.147-5.532m775.148 1151.532V911.07M1429.494-25.785c65.16 24.706 129.779 53.414 194.147 84.517m189.832 852.338V785.01M842.74 1426.77c-64.963-7.601-129.853-20.827-194.146-38.678M257.424 515.7v143.25m1556.05 126.06V658.95M257.423 93.112v140.385m0 0v140.385M1235.348-85.95c65.11 15.178 129.887 35.697 194.146 60.165m-391.17-90.248c64.855 3.826 129.798 13.635 194.148 28.65m-583.878 17.19c64.292-17.833 129.182-31.06 194.146-38.677M454.447 0c64.278-27.35 128.993-51.253 194.147-70.193m1164.88 729.143V532.89M257.423 802.2v140.385m391.17 442.642c-65.153-18.156-129.869-41.082-194.147-67.327M335.083 114.6v136.087M1564.678 93.112c56.799 23.197 113.274 48.36 169.699 74.49m1.438 246.39V290.797m0 244.958V412.56m0-244.958v123.195m-520.6-306.555c58.733 11.559 117.273 27.124 175.45 45.84M335.083 521.43v137.52m706.118 694.811c-58.427 2.556-117.078 1.564-175.45-2.914M335.082 1203.3v-136.088M513.41 45.84C571.587 26.027 630.1 9.015 688.861-4.298M1735.815 905.34V782.145m0 0V658.95M690.299 1322.197c58.22 13.449 116.825 23.194 175.451 28.65m-352.34-77.355c-59.27-20.766-118.173-44.538-176.89-70.192m-1.437-273.608v136.088m1400.732-406.83V535.755M688.86 1323.63c-58.76-13.304-117.274-30.316-175.451-50.138m875.817-1243.41c58.788 18.254 117.236 39.602 175.451 63.03m-1.438 1131.675c-58.215 23.437-116.664 44.782-175.451 63.03M687.423-4.298c58.22-13.433 116.824-23.178 175.45-28.65m872.942 1183.245v-123.195M335.083 385.342V521.43m704.68-558.675c58.574 3.051 117.198 10.364 175.451 21.487M335.083 793.605v136.087m1228.157 295.095c57.765-23.165 115.196-48.336 172.575-74.49M335.083 249.255v136.087m1400.732 641.76V903.907M513.41 44.407C454.142 65.193 395.238 88.962 336.52 114.6m-1.437 544.35v136.087m527.79-827.985c58.372-4.466 117.025-5.464 175.452-2.932m174.013 1366.672c58.733-10.836 117.272-25.426 175.45-42.975m-174.012 45.84c-58.254 11.118-116.877 18.43-175.451 21.488M881.569 34.265c52.67-2.932 105.502-3.42 158.194-1.444M405.551 270.742v128.925m632.774 886.718c52.79-2.597 105.606-8.419 158.193-17.19M405.551 918.232v128.925m1259.796-34.38V893.88M1039.763 31.515c52.79 2.59 105.607 8.412 158.194 17.19m467.39 1082.97v-118.898m0-353.827V540.052M405.55 399.667v128.925M1665.347 893.88V774.982m-312.073 459.833c-52.531 14.066-105.306 25.696-158.194 34.38m-155.317 15.862a1717.788 1717.788 0 0 1-158.194-1.4M405.551 528.593V658.95m0 0v128.925m1259.796-10.028V658.95M1356.15 83.085c52.934 14.01 105.658 30.462 158.194 48.705m151.003 292.23V305.122m0-118.897v118.897m0 237.795V424.02m-782.34 859.5c-52.81-3.686-105.621-10.479-158.193-20.055m-158.193-38.678c-53.902-14.61-107.575-31.55-161.07-50.137m0 0v-128.925m161.07 181.927c52.526 14.337 105.291 26.449 158.193 35.813M405.551 789.307v128.925m1105.916-787.875c50.987 18.093 101.758 37.89 152.441 58.733m-152.44 997.02c-52.537 18.248-105.261 34.7-158.194 48.705m156.755-47.273c51.952-18.06 103.68-37.865 155.318-58.732M1197.957 48.705c52.888 8.683 105.663 20.314 158.193 34.38M566.62 93.112c-53.9 14.629-107.573 31.566-161.07 50.138m161.07-53.003c52.527-14.328 105.292-26.44 158.194-35.812M405.551 143.25v128.925m319.263-217.74c52.57-9.563 105.382-16.355 158.194-20.055m297.691 74.49c48.037 6.17 96.005 14.385 143.812 24.352m278.996 80.22v111.735m0 111.735V325.177m0 222.038V435.48M612.64 136.087c-48.074 11.14-96.012 24.179-143.812 38.678m1134.68 707.655V770.685m-706.12 452.67c-47.022-2.525-94.05-7.36-140.935-14.325m847.054-216.308V880.987M753.577 108.87c47.84-6.953 95.829-11.788 143.812-14.325m706.118 564.405V547.215M467.39 174.765v120.33m145.25-159.008c47.805-11.012 95.77-20.192 143.813-27.217M467.39 535.755V658.95m0 242.092v120.33m1136.117 83.085V992.722M897.39 93.932a1923.877 1923.877 0 0 1 143.812-.56m280.434 1092.738c-46.851 9.967-93.86 18.18-140.936 24.352m-710.433-67.327c48.277 14.514 96.695 27.554 145.25 38.677m849.932-1011.345c45.661 13.131 91.184 27.59 136.621 42.975M467.39 782.145v118.897m289.063 307.988c-47.081-7.019-94.088-16.199-140.936-27.218M1038.325 95.977c47.976 1.827 95.966 5.695 143.812 11.46m280.434 1039.995c-46.845 13.494-93.828 25.562-140.936 35.813M467.39 296.527v120.33m1136.117 353.828V658.95M467.39 415.425v120.33m431.437 688.23a1869.058 1869.058 0 0 0 140.936.524m424.246-77.077c46.145-13.102 92.146-27.566 138.06-42.975m-280.434-969.802c48.07 10.253 96.012 22.322 143.813 35.812m-284.749 1039.995c-46.89 5.76-93.92 9.628-140.936 11.46M467.39 658.95v120.33m0 363.855v-120.33m1077.154 54.435V972.667m-122.24 138.953c41.31-10.416 82.53-21.968 123.678-34.38m-1.438-521.43V451.237m-632.774-298.9a2133.436 2133.436 0 0 1 129.431-.006m-385.417 28.164c-43.71 8.159-87.34 17.798-130.869 28.65m1019.63 31.515v104.572m0 626.003V866.662M526.352 431.182v111.735m0 0V658.95m129.431-478.455c43.06-8.199 86.225-14.947 129.431-20.055m0 997.02c-43.205-5.102-86.37-11.85-129.43-20.055m888.76-478.455V554.377M526.352 319.447v111.735M1425.18 206.28c40.348 10.443 80.61 21.991 120.802 34.38m-253.11 896.745c-42.104 8.2-84.31 14.947-126.554 20.055m129.431-975.533c43.229 7.77 86.38 16.924 129.431 27.218m-2.876 902.475c-42.096 10.295-84.287 19.448-126.555 27.217m-639.965-1.432c-43.712-8.144-87.342-17.784-130.869-28.65m1019.63-242.093V762.09M782.338 160.44c43.087-4.963 86.263-8.338 129.431-10.028M526.353 772.117v111.735m639.965 273.608c-42.13 4.96-84.346 8.335-126.555 10.027M1166.318 160.44c43.205 5.106 86.37 11.855 129.431 20.055m-255.986 985.07a2067.74 2067.74 0 0 1-126.555.021M526.353 209.145V320.88m1018.191 130.357V346.665m-1018.19 762.09V995.587m1018.19-232.065V658.95m-504.781-508.538c43.169 1.687 86.344 5.062 129.431 10.028m-642.84 498.51v113.167m0 111.735V997.02m258.861 160.44c43.088 4.974 86.263 8.35 129.431 10.027m578.126-898.177v97.41m0 389.64v-97.41m-110.736 413.992c37.448-7.345 74.838-15.515 112.174-24.352m-1.438-680.438v97.41m-914.646-17.19v104.573m914.646 106.005v-97.41M578.126 866.662v104.573m348.025 144.682c-37.883-1.121-75.773-3.527-113.611-7.162m680.232-60.165v-97.41M809.663 209.145c37.839-3.624 75.728-6.03 113.612-7.163m345.15 892.448c-37.82 5.844-75.705 10.655-113.612 14.325M1041.2 201.982c37.886 1.268 75.776 3.674 113.612 7.163m337.959 353.827v-97.41m-110.736 607.38c-37.812 7.605-75.689 14.338-113.611 20.055m-572.373 4.298c-39.844-6.042-79.64-13.26-119.365-21.488m1.439-416.857v104.572m0-210.577V658.95m0 312.285v104.572m348.025-872.27c37.862-.849 75.753-.74 113.612.32m453.009 748.755v-97.41m-337.96-646.057c37.909 3.669 75.793 8.48 113.613 14.325m-690.3 541.485v101.707m576.688 242.093c-37.837 3.485-75.726 5.89-113.612 7.162m-1.438-1.875a2286.49 2286.49 0 0 1-113.612.34m-348.025-872.29v104.573m914.646 505.672v-97.41M1271.3 223.47c37.923 6.126 75.8 13.341 113.612 21.487m0 0c36.486 7.369 72.917 15.536 109.297 24.353m-798.158-45.84c37.82-5.915 75.706-10.727 113.611-14.325M696.052 223.47c-39.844 5.652-79.64 12.388-119.365 20.055m1.439 103.14v104.572m117.926 643.193c37.82 5.92 75.706 10.732 113.611 14.325m230.1-860.933c35.005.798 70.01 2.24 104.983 4.298m-2.876 813.66a2775.307 2775.307 0 0 1-102.107 4.297m409.865-499.942v-90.248m-100.668 558.675c-33.998 5.44-68.039 10.242-102.107 14.325M621.269 465.562v94.545m828.36-170.467v90.247m-100.67 558.675c33.113-6.031 66.191-12.751 99.231-20.055m1.438-359.557v-90.248m-202.775-303.69c35.028 4.084 70.028 8.887 104.983 14.325m-729.129 762.09c35.434 5.533 70.914 10.339 106.421 14.325m-107.859-14.325v-94.545m828.36-108.87v-90.247m-828.36-376.748v94.545m0 193.388v97.41m212.842 309.42c-35.015-2.477-70.018-5.84-104.983-10.028m209.966 14.325a2265.766 2265.766 0 0 1-104.983-4.297m615.517-45.84v-90.248M621.27 276.472v94.545M936.22 249.16c34.989-.533 69.996-.366 104.982.497m-312.073 12.491c-35.507 3.998-70.987 8.803-106.42 14.325m826.92 472.725V658.95m-99.23-379.613c32.631 6.054 65.23 12.772 97.792 20.055M621.27 560.107v98.843m622.707 393.937c-34.004 4.078-68.049 7.44-102.107 10.028m0-810.795c35.018 2.955 70.021 6.798 104.983 11.46m-207.09 804.664a2535.878 2535.878 0 0 1-102.107.512M621.27 849.472v97.41m107.86-684.735c34.963-4.182 69.967-7.545 104.982-10.027m615.517 677.572v-90.247m0-541.485v90.247M831.235 252.12a2288.176 2288.176 0 0 1 104.983-4.298M621.27 756.36v94.545m231.538 176.197a2216.77 2216.77 0 0 1-92.04-7.162m186.956 9.815a2805.348 2805.348 0 0 1-92.04-2.44m-192.708-107.65v87.382m744.948-183.36v-81.652m-744.948 7.162v84.518m471.704-540.053c30.695 1.862 61.38 4.261 92.04 7.163m93.478 11.46c29.264 4.32 58.507 9.113 87.726 14.325m-744.948-18.623v87.383m0 174.765v91.68m376.788 366.358c-30.675.693-61.362.89-92.04.586m280.434-727.934c30.701 3.27 61.384 7.108 92.04 11.46m87.726 595.92v-81.653M662.975 661.815v87.382m468.828 275.04a2396.672 2396.672 0 0 1-92.04 4.298M760.767 297.96a2229.49 2229.49 0 0 1 92.04-7.163m186.956-1.432c30.687.835 61.374 2.274 92.04 4.297m276.12 365.288v-81.653m0-167.602v81.652m0-163.305v81.653m0 166.17v-81.653m-744.948-11.46v87.383m744.948 170.467V658.95m-182.642 358.125c-30.66 2.9-61.346 5.3-92.04 7.162M852.807 290.603a2798.263 2798.263 0 0 1 92.04-2.476m463.076 701.73v-81.652m-460.2-619.054a2772.76 2772.76 0 0 1 92.04.576M662.975 833.715v87.382m0 87.383c32.572 4.463 65.174 8.303 97.792 11.46m-97.792-624.57v87.382m654.346 522.863c30.224-4.301 60.425-9.097 90.602-14.325m-90.602 14.325c-30.656 4.352-61.34 8.19-92.04 11.46M760.767 297.96a2865.088 2865.088 0 0 0-97.792 10.027m460.2 680.487a3139.553 3139.553 0 0 1-81.974 2.767m-86.287-664.897c28.282-.174 56.57.024 84.849.593m329.33 104.245v74.49m-163.946 475.59a2242.457 2242.457 0 0 1-81.973 7.163m-422.808-10.028a3004.31 3004.31 0 0 0 87.725 7.163m-86.287-408.263v81.653m667.29 0v-74.49m-161.07 399.667a2431.177 2431.177 0 0 0 81.972-10.027m-588.192 4.297v-80.22m667.29 63.03v-74.49m0-305.122v-74.49M788.09 332.34a3057.578 3057.578 0 0 0-87.725 7.162m668.727 471.293v-74.49M701.804 497.077v80.22M1289.996 974.1a3356.687 3356.687 0 0 0 80.535-10.028M957.79 992.094a3255.466 3255.466 0 0 1-84.85-1.608m496.153-103.769v-74.49m-245.919-482.752a2393.009 2393.009 0 0 1 84.85 7.162m0-2.865a2596.376 2596.376 0 0 1 84.849 10.028m76.22 10.027v77.355m-329.33 559.78c-27.32.563-54.65.764-81.973.6M872.94 327.43a3246.677 3246.677 0 0 1 84.85-1.638m-255.986 13.711v80.22m591.069-75.922c25.9 3.023 51.787 6.376 77.658 10.027m-497.59 636.03a2963.227 2963.227 0 0 1-84.85-4.297m0-653.22a2984.64 2984.64 0 0 1 84.85-4.298M701.804 658.95v80.22m0-319.448v80.22m337.959-173.306c28.288.57 56.575 1.511 84.85 2.813M701.803 817.957v80.22m667.29-164.737v-74.49m-667.29 81.652v77.355m337.959 140.09c-24.925.456-49.855.649-74.782.577m371.035-367.002V521.43m-294.815-162.97c24.93.463 49.86 1.197 74.783 2.195m149.564 583.362a2848.87 2848.87 0 0 1-74.782 7.163m-74.782 5.73a3195.21 3195.21 0 0 0 74.782-4.298M734.881 733.44v70.192m601.135-74.49V658.95M812.54 363.855a3782.79 3782.79 0 0 0-77.66 4.297m0 143.25v73.058m381.104-223.47a3181.322 3181.322 0 0 1 74.782 4.297m145.25 501.375V796.47M964.981 359.28c24.927-.08 49.857.11 74.782.573m-225.785 3.904a3519.635 3519.635 0 0 1 74.782-2.669m-153.88 7.064v73.058m0 217.74v73.057m0 144.683v73.057h.001m155.317-589.661c24.924-.623 49.855-.976 74.783-1.057m-230.1 82.181v73.057m458.761-147.547a2842.134 2842.134 0 0 1 74.783 7.162M888.76 956.797a3529.097 3529.097 0 0 1-74.782-2.639m454.447-580.276a3456.28 3456.28 0 0 1 67.591 7.163m0 0v70.192m0 0v70.193M733.443 949.747a3985.686 3985.686 0 0 0 80.535 4.298M734.88 584.46v77.355m601.135-2.865v-70.193m0 348.098v-70.193m-371.035 92.196a3454.348 3454.348 0 0 1-74.783-1.031m445.818-158.492v-70.193m-71.906 214.875a3868.594 3868.594 0 0 0 73.345-7.162m-221.471 20.41a3584.006 3584.006 0 0 1-74.783 2.155m-306.32-155.788v73.058m570.935-280.77v-63.03M765.082 726.277v63.03m540.734-130.357v-63.03M765.082 395.37v65.895m0 130.357v70.193m540.734-191.955v63.03M972.17 389.375c22.53-.021 45.063.157 67.592.532m207.09 9.76a4627.225 4627.225 0 0 1 60.401 4.298m-1.438 2.865v63.03M763.643 922.53a3135.707 3135.707 0 0 0 73.345 4.297m-71.906-466.995v65.895m0 396.803v-65.895m71.906-464.642c22.527-.808 45.06-1.423 67.591-1.84m67.592 538.426c-22.53-.015-45.063-.228-67.592-.638m401.237-142.931v-63.03M1041.2 927.669c22.533-.37 45.065-.933 67.592-1.683m67.592-530.616a3910.411 3910.411 0 0 1 67.592 4.297M765.082 660.382v65.895m139.497 201.458a3922.768 3922.768 0 0 1-67.591-1.815m-71.906-136.613v65.895M904.579 389.97a3846.57 3846.57 0 0 1 67.592-.658m204.214 533.248a4136.944 4136.944 0 0 1-67.592 2.807m197.023-203.386v-63.03M835.55 391.072a2961.208 2961.208 0 0 0-70.468 4.298m540.734 452.67v-63.03M765.082 525.727v65.895m276.12-201.408c22.532.376 45.064.95 67.591 1.717m0 .574c22.534.765 45.066 1.722 67.592 2.865m-136.622 532.623c-22.529.37-45.06.548-67.592.533m201.338-5.996a3920.837 3920.837 0 0 0 67.591-4.298m64.716-5.73v-63.03m-63.278 68.76a4803.843 4803.843 0 0 0 63.278-4.297m-514.848-492.78v58.732m488.962-51.57v58.733m-240.167-69.433c20.135.305 40.27.755 60.401 1.346m-244.48-1.79a4737.19 4737.19 0 0 0-66.154 2.234m490.4 298.275V658.95M855.683 418.918c20.132-.562 40.267-.981 60.401-1.256m2.877-2.042a4203.12 4203.12 0 0 1 60.4-.39M790.969 595.92v63.03m312.072-238.893c20.136.592 40.27 1.325 60.402 2.196M979.362 902.66c-20.134.02-40.269-.104-60.401-.372m360.969-71.438v-58.733M790.968 658.95v60.165m188.394 183.6c20.134-.02 40.269-.18 60.401-.48m60.401-3.283a4400.852 4400.852 0 0 1-60.401 1.316m-248.795-62.256v60.165m431.437-4.297a3209.444 3209.444 0 0 1-60.401 4.297m60.4-4.297a4237.13 4237.13 0 0 0 58.964-4.298m-179.766 11.097c20.136-.577 40.27-1.291 60.402-2.138m117.925-8.959V830.85m0-55.868V716.25M790.969 479.887v58.733m0-1.433v58.733m434.313-171.9a3677.535 3677.535 0 0 1 53.21 4.297M790.968 838.012v-60.165m127.993 122.38c-20.135-.268-40.27-.68-60.401-1.234m-67.592-179.878v58.732M1279.93 658.95v-58.733M858.56 900.745a4547.494 4547.494 0 0 1-66.154-2.27M1279.93 487.05v58.732m0-2.865v58.733M979.362 415.185c20.134.015 40.268.176 60.401.48m125.117 4.057a3196.034 3196.034 0 0 1 60.4 4.298m-409.864 73.057v53.003m440.066 213.442V710.52m-440.066-48.705v53.002m440.066-213.442v53.002M815.416 764.955v-50.138m440.066-159.007v50.137m-326.454-166.06c18.695-.176 37.39-.246 56.086-.21m270.368 166.27v53.003m-103.545-216.018c18.697.662 37.393 1.425 56.086 2.286m-392.607-1.143v53.002m0 323.745v53.003m0-108.87v55.867m280.434-379.02c18.697.458 37.393 1.019 56.087 1.68m-276.12-1.625c-19.656.408-39.31.933-58.963 1.57m388.293 5.148c16.301.748 32.6 1.568 48.896 2.46M815.416 600.217v58.733m440.066-207.713v53.003m-271.806-64.675c18.696.036 37.392.178 56.087.425m163.946 432.273c16.78-.786 33.558-1.656 50.334-2.606m1.439-157.705V658.95m-53.211 213.768a4940.166 4940.166 0 0 1-53.21 2.214m106.42-5.405v-53.002m-106.42 57.917a4792.796 4792.796 0 0 1-53.211 1.63m159.632-59.547v-53.003m-215.719 112.251c17.738-.243 35.475-.587 53.21-1.031M815.417 550.08v53.002m224.347 274.829c-17.736.243-35.473.384-53.21.423m-56.087-.315c18.695.17 37.39.236 56.086.196m-56.086.321a5014.67 5014.67 0 0 1-56.087-.827m0-437.51c18.694-.386 37.39-.668 56.087-.844m109.297 2.759c18.697.247 37.392.6 56.087 1.057M813.978 874.458c20.132.653 40.266 1.187 60.4 1.6m-37.39-23.72v-48.706m0-48.705v48.705m103.545 53.275a5200.004 5200.004 0 0 1-48.897-.544m-1.438-394.82c16.778-.262 33.556-.448 50.335-.557m2.876 395.596c16.298.104 32.597.132 48.896.082m-100.669-2.335a5222.559 5222.559 0 0 1-53.21-1.118m151.003-392.132c16.778.047 33.557.17 50.334.372M1233.91 704.79v48.705m-96.355 99.652a5533.78 5533.78 0 0 1-48.896 1.246m2.876-390.907c16.78.354 33.558.784 50.335 1.288m-304.882 95.333v48.705m396.922-44.407v45.84M836.988 710.52v45.84M1233.91 515.7v48.705m0 283.635v-48.705M1041.2 463.713c16.779.202 33.557.48 50.334.834m99.231 2.971c13.903.555 27.805 1.161 41.706 1.818m1.438 189.614v48.705m0-97.41v48.705m-93.478-192.822a5763.97 5763.97 0 0 1 50.334 1.734M836.988 710.52v-48.705m0-199.118v48.705m0 97.41v53.003M1233.91 469.86v48.705m-47.458 331.879a5948.79 5948.79 0 0 0 46.02-1.943m-291.94-387.179a5458.75 5458.75 0 0 1 50.335-.093m195.585 388.839a5694.92 5694.92 0 0 1-48.897 1.674m-300.567-340.34v48.705M990.867 856.82c16.299-.048 32.598-.171 48.896-.368m48.896-3.086c-16.298.343-32.597.613-48.896.81M1233.91 802.2v-48.705M891.636 463.582c-17.737.279-35.474.645-53.21 1.096m332.206 368.329c13.903-.44 27.805-.923 41.706-1.449m1.438-300.1v42.974M857.12 789.307v-42.975m182.642 90.09c-14.38.159-28.762.265-43.144.316m217.157-133.38v42.974m0-174.765v42.975m-129.431 218.854c-14.38.266-28.762.479-43.144.638m-184.08-351.282v42.975m0 179.063v41.542m96.355 90.224c14.38.06 28.762.063 43.143.01m-89.163-.16c14.38.172 28.762.288 43.143.348m179.766-351.796c15.34.386 30.68.826 46.02 1.319m37.39 172.673v42.975M857.122 835.147v-42.975M950.6 481.141c-15.34.063-30.68.182-46.02.358m2.877 352.603c-16.3-.19-32.598-.448-48.896-.774m-1.439-171.513v42.975m356.655 81.652v-42.975m-306.32-259.661c-16.3.188-32.598.441-48.896.758m181.203-.708c15.34.163 30.68.383 46.02.658m41.706 348.403c14.382-.371 28.763-.795 43.143-1.269m41.706-345.359a5929.23 5929.23 0 0 0-35.953-1.343M857.12 570.135v42.975m136.622-131.95c15.34.05 30.68.157 46.02.32m87.726 351.757c-14.381.371-28.762.69-43.144.956m129.43-3.343v-42.975M950.6 481.346c15.34-.063 30.68-.07 46.02-.019m217.157 48.698V487.05M857.12 525.727v42.975m0 93.113V613.11m227.224-129.42c15.34.275 30.68.605 46.02.99m83.41 131.295v42.975m-1640.898 445.507c48.551 16.93 96.779 35.324 145.25 53.003m750.701-14.325c18.808-10.734 37.503-22.22 56.087-34.38m175.451-130.358a2085.601 2085.601 0 0 1-35.953 31.515m152.441-136.087a3777.35 3777.35 0 0 1-24.448 21.487m543.61-514.267c-9.612 7.98-19.199 16.1-28.762 24.352M763.644 922.53c9.123-8.04 18.23-16.16 27.324-24.353m421.37-411.127a3203.398 3203.398 0 0 1 20.134-17.19M700.366 978.397a2526.181 2526.181 0 0 0 34.515-28.65m28.762-27.217a2810.362 2810.362 0 0 1-28.762 27.217m-112.174 91.68c-15.272 11.846-30.609 23.32-46.02 34.38m2083.84-774.982c-54.248-.793-108.613-8.573-162.507-20.055M858.56 835.147a5334.353 5334.353 0 0 1-20.134 20.055m-989.429 346.665c39.625 11.547 79.418 21.413 119.364 28.65m1402.17-876.69a1542.21 1542.21 0 0 1 35.953-27.217m0 0a1405.043 1405.043 0 0 1 41.706-28.65m-168.26 130.357a2293.934 2293.934 0 0 1 27.324-21.487m-74.782 63.03c7.18-6.743 14.37-13.43 21.571-20.055m81.973-68.76a1871.77 1871.77 0 0 1 34.515-27.218m-116.488 97.41a2599.462 2599.462 0 0 1 24.448-21.487m169.699-131.79c15.268-9.972 30.607-19.535 46.02-28.65m727.69-65.895c-39.705-11.697-79.45-22.553-119.364-31.515m-366.721-4.298a686.933 686.933 0 0 1 77.658-14.325m-975.047 699.06a4478.141 4478.141 0 0 1-21.572 21.488M2102.536 171.9c-35.368-7.328-70.863-13.264-106.421-17.19m844.178 118.897c-58.825 19.823-119.811 28.03-179.765 27.155m-3429.924 745.164c59.738-4.659 120.267.98 179.766 12.691M74.782 1240.98c32.57 1.23 65.257.776 97.793-1.536m450.132-198.017a1822.164 1822.164 0 0 0 41.706-31.515m881.57-769.252c18.588-9.804 37.29-18.897 56.086-27.218m63.278-25.785c23.36-7.87 46.88-14.572 70.468-20.055m-1210.9 941.153c16.868-10.927 33.643-22.406 50.334-34.38M1665.347 189.09c-21.2 7.16-42.309 15.3-63.278 24.352M257.424 1224.787c26.006-5.648 51.935-12.838 77.659-21.487m70.468-28.65c-23.33 10.768-46.84 20.354-70.468 28.65M1996.115 153.277c-32.534-2.81-65.189-4.332-97.792-4.296M-281.872 1157.46c43.539 15.43 87.065 30.226 130.87 42.975m2052.2-1051.455c-29.247.038-58.55 1.432-87.725 4.297m-2403.103 905.34c54.52 11.213 108.57 27.606 162.507 45.84M2352.77 242.092c-43.661-12.846-87.171-26.239-130.869-38.677m-675.918 37.245c-16.865 8.971-33.645 18.538-50.334 28.65m-1026.82 873.825c-20.954 11.41-42.053 21.946-63.277 31.515m-235.852 64.462a657.387 657.387 0 0 0 87.725-14.325m-182.642 17.19c-35.525-1.58-71.068-5.563-106.42-11.46M2498.02 280.77c-48.622-10.607-96.924-24.271-145.25-38.678m487.523 802.2c-58.825-19.822-119.811-28.03-179.765-27.154M169.698 78.788a657.387 657.387 0 0 1 87.726 14.324m1049.83 817.958a2296.845 2296.845 0 0 1-27.324-21.488m-421.37-406.83a5334.353 5334.353 0 0 0-20.134-20.055M734.88 368.152a2806.416 2806.416 0 0 1 28.762 27.218m28.763 27.217a3786.94 3786.94 0 0 1 24.448 21.488m1843.674 573c-54.249.793-108.614 8.573-162.508 20.055M816.854 444.075a4461.194 4461.194 0 0 1 21.572 21.487m897.389 684.735c-23.588-5.482-47.107-12.183-70.468-20.055M524.915 209.145c-18.584-12.16-37.28-23.647-56.087-34.38m231.538 164.737a2526.181 2526.181 0 0 1 34.515 28.65m-112.174-91.68c-15.272-11.845-30.609-23.319-46.02-34.38m1025.382 862.365c-18.796-8.32-37.498-17.413-56.087-27.217m556.554 68.76c-35.368 7.329-70.863 13.264-106.421 17.19m-330.768-34.38c-21.2-7.16-42.309-15.3-63.278-24.353M1406.484 991.29a1542.952 1542.952 0 0 1-35.953-27.218M-281.872 160.44c43.539-15.43 87.065-30.226 130.87-42.975m2372.902 997.02c-39.705 11.697-79.45 22.553-119.364 31.515M-151.003 116.032c39.625-11.546 79.418-21.412 119.364-28.65m1845.112 1077.24a686.933 686.933 0 0 1-77.658-14.325M-31.64 87.382c35.353-5.896 70.896-9.88 106.421-11.46m260.3 38.678c-25.723-8.65-51.652-15.84-77.658-21.488M74.782 76.92c32.57-1.23 65.257-.776 97.793 1.536m1373.407 998.784c-16.865-8.971-33.645-18.538-50.334-28.65m-704.68-628.868a3334.806 3334.806 0 0 0-27.325-24.352m514.848 492.78a2609.22 2609.22 0 0 1-24.448-21.488M-589.63 259.282c54.52-11.212 108.57-27.605 162.507-45.84m0 0c48.551-16.93 96.779-35.323 145.25-53.002m1730.063 859.5a1405.043 1405.043 0 0 1-41.706-28.65m-2175.88-719.316c59.738 4.658 120.267-.98 179.766-12.692M1232.472 848.04a3192.08 3192.08 0 0 1-20.134-17.19m281.872 217.74c-15.414-9.115-30.752-18.678-46.02-28.65m904.58 55.867c-43.662 12.847-87.172 26.24-130.87 38.678m-967.857-246.39a2879.425 2879.425 0 0 1-21.571-20.055M335.082 114.6c23.629 8.296 47.14 17.882 70.469 28.65m2092.469 893.88c-48.622 10.607-96.924 24.271-145.25 38.677M1370.53 964.072a1868.904 1868.904 0 0 1-34.515-27.217M1901.2 1168.92c-29.248-.038-58.552-1.432-87.726-4.298M664.413 307.987a2085.33 2085.33 0 0 1 35.953 31.515M405.551 143.25c21.224 9.57 42.323 20.106 63.277 31.515m153.88 101.707a1822.164 1822.164 0 0 1 41.705 31.515m-139.498-98.842c16.868 10.927 33.643 22.406 50.334 34.38m1420.866 921.097c-32.534 2.81-65.189 4.333-97.792 4.297m-562.307-232.064c-9.613-7.98-19.199-16.1-28.762-24.353m1534.477-446.94v-97.41m0 194.82v-97.41m0 290.798v-97.41m0 385.342v-97.41m0-94.545v-97.41m0-95.977v-97.41m0-287.933v97.41m0 578.73v-97.41M-320.7 12.892c157.433-150.935 300.837-335.302 451.57-519.997M1938.59-359.558c-150.696-184.881-294.104-369.272-451.57-519.997M583.877-984.128C424.543-860.33 280.574-688.965 132.308-507.105m-453.01 519.997c-142.394 136.33-296.193 238.835-451.57 259.283m3163.87-154.71c-159.312-124.047-303.268-295.367-451.57-477.023M2843.17 273.33c-149.493 18.545-310.217-46.375-451.57-157.297m-1356.15-1254.42c-149.402-18.943-310.224 44.759-451.571 154.26m903.141 104.573c-142.37-136.748-296.272-239.326-451.57-259.283m-1806.283 1604.4v97.41m0 191.955v97.41m0 0v97.41m0-581.595v97.41m0 193.388v97.41m0-194.82v97.41m0 385.342v-97.41m0-673.275v97.41m-1.438 674.708c155.377 20.448 309.176 122.953 451.57 259.282m0 0c157.434 150.936 300.838 335.303 451.571 519.998m453.009 477.022c141.347 109.502 302.17 173.204 451.57 154.261m0 .45c155.299-19.957 309.2-122.535 451.571-259.283m-1354.712-372.45c148.267 181.86 292.236 353.226 451.571 477.022m903.141-104.572c157.467-150.725 300.875-335.116 451.571-519.998m453.009-477.022c-159.313 124.047-303.269 295.367-451.57 477.022m451.57-475.59c141.353-110.92 302.077-175.841 451.57-157.296m-847.054-6.009c35.522-3.268 71.008-8.21 106.421-14.325m250.233-53.002c48.364-10.68 96.716-20.807 145.25-28.65m-501.904 94.545c-32.562 2.813-65.191 4.333-97.792 4.297m-162.508-14.325a1003.703 1003.703 0 0 1-70.468-14.325m-63.278-20.055c21.018 7.473 42.121 14.171 63.278 20.055M1278.49 833.715a2520.692 2520.692 0 0 1-24.448-17.19m25.887 14.325a2294.437 2294.437 0 0 0 27.324 17.19m28.762 20.055a1929.513 1929.513 0 0 1-28.762-20.055m795.282 176.197c39.86-6.102 79.624-13.505 119.364-21.487m-726.252-50.138a1166.193 1166.193 0 0 0 50.334 21.488m189.833 53.002a956.056 956.056 0 0 0 77.658 10.028m0 0c29.204 2.868 58.48 4.26 87.726 4.297m-530.668-154.71a1565.404 1565.404 0 0 0 35.953 21.488M1232.472 802.2a2737.407 2737.407 0 0 0 21.571 14.325m152.441 91.68a1493.174 1493.174 0 0 0 41.706 21.487m1049.83 12.893c54.012-8.22 108.294-13.759 162.508-14.325m-1324.512-61.598a1906.506 1906.506 0 0 0 34.515 20.055m1469.762 60.165c-59.278-14.718-119.825-20.652-179.765-20.007m-1212.338 2.817a1334.93 1334.93 0 0 0 46.02 21.488m51.772 20.055c18.63 7.757 37.33 14.932 56.087 21.487m-389.731-204.847c6.705 4.81 13.416 9.586 20.134 14.325M2221.9 999.885c43.666-9.207 87.224-19.138 130.87-28.65m-1016.754-171.9a2516.834 2516.834 0 0 0 34.515 11.46m-63.277-25.785a2322.42 2322.42 0 0 0 28.762 11.46m34.515 15.757c11.97 4.913 23.954 9.691 35.953 14.325m494.715 87c-29.243-.018-58.501-.697-87.726-2.1m-559.43-147.93a3025.758 3025.758 0 0 1-21.571-10.027m174.012 70.192a1860.01 1860.01 0 0 0 41.706 14.325m1392.103 14.325c-59.627-10.574-119.835-14.75-179.765-14.29m-1428.056-84.552a3373.11 3373.11 0 0 1-20.134-10.028m453.009 150.413a1389.946 1389.946 0 0 0 70.468 10.027m260.3 7.163c35.495-2.286 70.975-5.743 106.421-10.028m-204.213 12.588c32.598.018 65.21-.778 97.792-2.255m225.785-24.658c43.643-6.44 87.236-13.398 130.87-20.055m-250.234 34.38c39.82-4.064 79.598-9 119.364-14.325m-967.857-123.195a2977.816 2977.816 0 0 0 24.448 10.028m28.763 11.46a2661.44 2661.44 0 0 1-27.324-11.46m266.052 93.112a1382.922 1382.922 0 0 0 56.087 14.325m-106.42-28.65c16.75 5.075 33.529 9.856 50.333 14.325m-97.792-28.65a1711.626 1711.626 0 0 0 46.02 14.325m241.605 51.57a1321.989 1321.989 0 0 0 77.658 7.163m-148.126-17.19a1501.855 1501.855 0 0 1-63.278-11.46m1058.459-44.408c-54.19.397-108.41 4.265-162.508 10.028m-145.25 20.055c48.392-7.48 96.78-14.572 145.25-20.055m-1049.83-98.843a3083.727 3083.727 0 0 0 46.02 7.163m-87.726-15.758a3285.093 3285.093 0 0 0 41.706 7.163m-169.699-31.515c-8.15-1.415-16.3-2.847-24.448-4.298m348.026 58.733c-18.703-2.18-37.4-4.569-56.087-7.163m-50.334-7.162c16.77 2.54 33.55 4.93 50.334 7.162m-333.644-60.165a6053.83 6053.83 0 0 0 20.134 4.298m1607.821 48.705c-59.847-5.307-119.841-7.376-179.765-7.145m-847.055 36.702c29.238.702 58.484 1.041 87.726 1.05m-2.876.04c32.597.009 65.199-.39 97.792-1.128m-182.642-.906a3355.16 3355.16 0 0 1-77.658-2.791m260.3 2.828c35.48-.98 70.954-2.46 106.421-4.298m-822.606-63.03a5781.018 5781.018 0 0 0 27.324 4.298m358.093 55.867a3162.522 3162.522 0 0 0 70.468 4.298m-503.343-74.49c7.189 1.447 14.38 2.88 21.571 4.297m848.493 67.328c39.796-2.03 79.582-4.5 119.364-7.163m-619.83-1.432a2332.528 2332.528 0 0 0 63.277 7.162m-358.093-55.867a3258.977 3258.977 0 0 0 28.762 7.162m34.515 4.298a3143.896 3143.896 0 0 0 35.953 7.162m-70.468-11.46a3669.856 3669.856 0 0 0 34.515 7.163m1289.997 12.892c-54.174.17-108.356 1.826-162.508 4.298m0 0c-48.43 2.74-96.84 6.286-145.25 10.027M2221.9 773.55c43.628-3.22 87.244-6.7 130.87-10.028m487.523-103.14h-179.765m-1289.997 0h35.953m1254.044 0H2498.02m-1285.682 0h20.134m0 0h21.571m0 0h24.448m57.525 0h34.515m77.659 0h46.02m-87.726 0h41.706m97.792 0h-50.334m-188.394 0h28.762m-56.086 0h27.324m1045.515 0H2221.9m-323.577 0h97.792m-182.642 0h87.726m94.916 0h106.421m-366.721 0h77.658m-211.404 0h63.278m-119.365 0h56.087m619.831 0h-119.364m-366.721 0h-70.468m832.673 0h-145.25m-806.788-106.005a2578.089 2578.089 0 0 1 56.087-7.162m63.278-7.163a3164.386 3164.386 0 0 1 70.468-4.297m924.713 32.947c-54.174-.17-108.356-1.825-162.508-4.297M1370.53 584.46a3152.14 3152.14 0 0 1 35.953-7.163m0 0a3291.7 3291.7 0 0 1 41.706-7.162m-112.174 18.622a3669.856 3669.856 0 0 1 34.515-7.162m-138.06 28.65c7.19-1.447 14.38-2.88 21.572-4.298m241.605-44.407c16.77-2.54 33.55-4.93 50.334-7.163m-238.728 41.543a3258.977 3258.977 0 0 1 28.762-7.163m1162.004-24.352c-48.43-2.74-96.84-6.286-145.25-10.028m0 0c-43.626-3.327-87.242-6.808-130.87-10.027m-727.69 17.19a3088.413 3088.413 0 0 0-46.02 7.162m217.157-28.65a2334.615 2334.615 0 0 0-63.278 7.163m500.467-10.028c-35.467-1.837-70.942-3.318-106.421-4.297m-783.777 81.652a6053.83 6053.83 0 0 1 20.134-4.297m47.458-10.028a5781.018 5781.018 0 0 1 27.324-4.297m428.56-60.202a3353.54 3353.54 0 0 1 77.66-2.791m0-.944c29.237-.702 58.483-1.041 87.725-1.05m939.094 30.607c-59.847 5.307-119.841 7.375-179.765 7.145m-1406.485 37.262c8.148-1.45 16.297-2.883 24.448-4.297m943.41-55.868c-39.783-2.663-79.569-5.131-119.365-7.162m-204.213-7.726c32.597-.01 65.199.389 97.792 1.127m-500.467-66.459c16.75-5.074 33.53-9.855 50.334-14.325m556.554-34.38c-35.446-4.286-70.926-7.743-106.421-10.027m-394.046 30.082a1384.3 1384.3 0 0 0-56.087 14.325m-313.51 113.168a3036.033 3036.033 0 0 1 21.571-10.028m81.973-32.947a2332.254 2332.254 0 0 0-28.762 11.46m428.56-118.898a1324.602 1324.602 0 0 1 77.66-7.162m0-.375c29.224-1.408 58.481-2.092 87.725-2.115m-235.852 19.68a1392.168 1392.168 0 0 1 70.468-10.028m-481.772 140.385a2979.227 2979.227 0 0 1 24.448-10.027m717.624-137.832c-32.582-1.472-65.194-2.264-97.792-2.24M1307.254 532.89a2662.78 2662.78 0 0 0-27.324 11.46m-67.592 30.082c6.708-3.368 13.42-6.711 20.134-10.027m215.718-84.518a1861.323 1861.323 0 0 0-41.706 14.325m0-2.865a1853.89 1853.89 0 0 0-35.953 14.325m0 1.433a2522.711 2522.711 0 0 0-34.515 11.46m112.174-38.678a1714.23 1714.23 0 0 1 46.02-14.325m107.86-30.082a1503.6 1503.6 0 0 1 63.277-11.46m1174.946 41.542c-59.627 10.572-119.835 14.75-179.765 14.292m-307.759-28.617c-43.633-6.657-87.226-13.614-130.869-20.055m0 0c-39.766-5.325-79.543-10.262-119.364-14.325m557.992 63.03c-54.189-.394-108.41-4.263-162.508-10.027m0 0c-48.47-5.483-96.858-12.575-145.25-20.055M1232.471 515.7a2738.525 2738.525 0 0 1 21.571-14.325m81.973-51.57a1933.172 1933.172 0 0 0-28.762 20.055m99.23-60.165a1564.865 1564.865 0 0 0-35.953 21.487m982.238-84.517c-43.645-9.513-87.203-19.444-130.869-28.65M1307.254 469.86a2301.116 2301.116 0 0 0-27.324 17.19m-1.439 0a2521.74 2521.74 0 0 0-24.448 17.19m116.488-73.058a1902.963 1902.963 0 0 0-34.515 20.055m329.33-146.115c-21.156 5.886-42.259 12.584-63.277 20.055m133.746-34.38a1004.914 1004.914 0 0 0-70.468 14.325m148.126-24.352a957.719 957.719 0 0 0-77.658 10.027m-287.625 97.41a1494.932 1494.932 0 0 0-41.706 21.488m87.726-42.975a1335.7 1335.7 0 0 0-46.02 21.487m153.88-63.03c-18.758 6.557-37.459 13.732-56.088 21.488m1294.311 24.352c-59.278 14.716-119.825 20.65-179.765 20.009m-557.992-97.364c-35.413-6.117-70.9-11.059-106.421-14.325M2221.9 315.15c-39.74-7.983-79.504-15.386-119.364-21.488m-890.198 236.363c6.705-4.81 13.416-9.586 20.134-14.325m763.643-234.93c-32.562-2.82-65.192-4.34-97.792-4.297m-352.34 67.327a1167.162 1167.162 0 0 0-50.335 21.487m405.55-88.815c-29.245.045-58.521 1.437-87.725 4.298m684.547 94.545c-48.535-7.843-96.886-17.97-145.25-28.65m307.758 42.975c-54.214-.564-108.496-6.104-162.508-14.325M74.782 1096.189c32.583.923 65.23.583 97.793-1.152m618.393-257.025a3207.54 3207.54 0 0 1-27.325 20.055M-427.123 992.722c48.496 12.34 96.801 25.783 145.25 38.678M858.56 789.307a4851.454 4851.454 0 0 1-20.134 14.325M664.413 922.53a2022.36 2022.36 0 0 0 35.953-24.353m116.488-77.355a4131.54 4131.54 0 0 0 21.572-14.325m-581.002 277.905c25.955-4.51 51.868-10.252 77.659-17.19M734.88 876.69a2644.673 2644.673 0 0 0 28.762-20.055m-914.646 209.145c39.694 8.675 79.486 16.068 119.364 21.487m848.493-266.445a3660.255 3660.255 0 0 1-24.448 17.19M575.249 971.235c-16.72 9.496-33.498 18.583-50.334 27.217m-1114.545-40.11c54.37 8.387 108.475 20.68 162.507 34.38m832.674 53.003c-23.392 8.098-46.897 15.281-70.468 21.487m-165.384 27.218a919.508 919.508 0 0 0 87.725-10.028m148.127-38.677c21.173-7.377 42.272-15.514 63.277-24.353m-500.467 65.895c35.405 5.167 70.919 8.647 106.421 10.028m-844.178-149.1c59.818-3.73 120.086.754 179.766 10.147m1254.043-38.677a1858.713 1858.713 0 0 1-41.706 24.352m-904.58 87.383c43.574 11.324 87.141 22.181 130.87 31.515m727.69-91.68a1624.839 1624.839 0 0 0 46.02-24.353m-153.879 74.49c18.766-7.586 37.463-15.72 56.087-24.352m209.966-120.33a2510.13 2510.13 0 0 1-34.515 21.487m0-78.787a2437.564 2437.564 0 0 1-35.953 14.325m70.468-30.083a2930.534 2930.534 0 0 1-34.515 14.325m63.277-28.65a2858.736 2858.736 0 0 1-28.762 14.325m-112.174 45.84a1939.237 1939.237 0 0 1-46.02 17.19m-1.438 0a1710.354 1710.354 0 0 1-50.334 17.19m139.498-50.137a2154.37 2154.37 0 0 1-41.706 17.19m-1049.83 30.082c48.453 8.678 96.819 18.15 145.25 27.218m0 0c43.601 7.729 87.199 15.136 130.87 21.487m0 0c39.745 5.797 79.536 10.724 119.364 14.325m848.493-177.63a4043.602 4043.602 0 0 1-24.448 11.46m-1.438 0c-9.103 3.86-18.21 7.68-27.325 11.46m-238.728 94.545a1537.82 1537.82 0 0 1-56.087 17.19m-211.404 41.543a1283.95 1283.95 0 0 1-87.725 7.162m-201.338-7.162c35.443 3.708 70.935 6.19 106.421 7.162m-664.412-93.112c54.26 5.927 108.4 14.635 162.507 24.352m501.905 70.441c32.591.601 65.211.36 97.793-.814m665.85-195.687a4576.504 4576.504 0 0 1-21.571 10.028M468.828 901.042a1382.377 1382.377 0 0 1-63.277 17.19m453.009-171.9c-6.71 3.36-13.42 6.703-20.134 10.028M335.083 929.692a1269.687 1269.687 0 0 1-77.659 11.46m148.127-25.785a1360.196 1360.196 0 0 1-70.468 14.325m-1104.479-77.959c59.876-2.343 119.953.448 179.766 6.334m0-100.275c54.192 2.789 108.354 6.883 162.507 11.46m0 1.433c48.427 3.648 96.83 7.637 145.25 11.46m1098.727-67.328a8323.448 8323.448 0 0 1-24.448 4.298m-28.763 7.162c-9.585 2.421-19.172 4.81-28.762 7.163m-399.798 63.03a3218.909 3218.909 0 0 1-77.659 4.297m-1026.82-46.792c59.91-1.374 119.871.296 179.766 3.817m1380.598-38.677a5160.975 5160.975 0 0 1-27.325 7.162m-506.219 76.044a3340.175 3340.175 0 0 1-87.725 2.623m688.86-100.154c-6.71 1.44-13.421 2.873-20.133 4.297m0 1.433c-7.19 1.442-14.38 2.875-21.572 4.297m-348.026 67.328a3000.008 3000.008 0 0 1-63.277 7.162m119.364-17.19a3266.518 3266.518 0 0 1-56.087 7.163m266.053-45.84a4833.766 4833.766 0 0 1-34.515 7.162M172.575 804.82c-32.594.547-65.197.629-97.793.292m500.467-41.589a2604.712 2604.712 0 0 1-50.334 10.028M74.782 804.924c-35.477-.375-70.955-1.268-106.42-2.583m-119.365-7.304c39.777 2.887 79.566 5.348 119.364 7.163m654.346-45.84a3924.515 3924.515 0 0 1-46.02 7.162m-858.56 18.623c43.618 4.115 87.235 8.065 130.87 11.46m851.369-53.003a4101.541 4101.541 0 0 1-35.953 7.163M405.55 789.307a2557.69 2557.69 0 0 1-70.468 7.163m329.33-47.273a4220.246 4220.246 0 0 1-41.706 7.163m194.147-95.968l-24.448-.019m46.02.018l-21.572-.017m-25.886.019l-27.325-.021m-428.56.043l-77.659-.065m-182.642.067c-35.473-.025-70.947-.047-106.42-.069m766.519.048l-34.515-.027m63.277.025l-28.762-.023m-34.515.027l-35.953-.03m-491.838.049c-32.598-.024-65.195-.047-97.793-.069m182.642.068c-29.242-.023-58.484-.046-87.725-.067m235.852.063l-70.468-.06m523.477.038l-20.134-.015m-870.065.04c-39.788-.024-79.576-.045-119.364-.065m-438.627.015c54.169.01 108.338.02 162.507.035m1002.372.005l-50.334-.045m139.498.04l-41.706-.035m-1392.103.005c59.922.007 119.844.015 179.766.025m1058.458.015l-63.277-.055m119.364.052l-56.087-.05m-895.95.002c48.416.013 96.833.028 145.25.047m0-.052c43.623.017 87.246.036 130.87.057m773.71-.009l-46.02-.04m-1.439-107.417a3510.55 3510.55 0 0 0-50.334-7.163m-806.787-10.027c-48.42 3.827-96.824 7.815-145.25 11.46M74.781 512.93c-35.477.408-70.955 1.332-106.42 2.675m-119.365 8.69c-43.635 3.403-87.252 7.352-130.87 11.46M-31.638 515.7c-39.798 1.827-79.587 4.286-119.364 7.162m556.554 5.73a2524.532 2524.532 0 0 0-70.468-7.162m-162.508-8.376a3619.777 3619.777 0 0 0-97.793-.2m182.642 2.68c-29.233-1.23-58.48-2.07-87.725-2.534m-939.095 50.94c59.91 1.347 119.872-.323 179.766-3.833m0 0c54.192-2.789 108.355-6.882 162.507-11.46m762.206-27.217a3162.064 3162.064 0 0 0-77.659-4.298m477.457 67.328a4803.577 4803.577 0 0 0-34.515-7.163m138.06 30.083c-7.19-1.442-14.38-2.875-21.572-4.298m-53.21-11.46c-9.586-2.42-19.173-4.81-28.763-7.162m123.679 28.65c-6.711-1.44-13.422-2.873-20.134-4.298m-369.598-73.057a2963.549 2963.549 0 0 0-63.277-7.163m411.303 71.625a8100.367 8100.367 0 0 0-24.448-4.297m-1.438 0a5053.785 5053.785 0 0 0-27.325-7.163m-140.936-28.65a3881.425 3881.425 0 0 0-46.02-7.162m123.679 24.352a4062.149 4062.149 0 0 0-35.953-7.162m0-1.433a4171.412 4171.412 0 0 0-41.706-7.162m-97.792-18.623a3231.541 3231.541 0 0 0-56.087-7.162m389.732 34.38c-6.71-3.359-13.42-6.702-20.134-10.028M-769.396 466.19c59.876 2.303 119.953-.488 179.766-6.357m438.627-71.625c-43.671 6.366-87.269 13.771-130.87 21.488m982.239 87.382a2417.603 2417.603 0 0 0-35.953-14.325m-1091.536-45.84c-54.105 9.719-108.247 18.423-162.507 24.353m924.713-75.923a1249.472 1249.472 0 0 0-77.659-11.46m148.127 25.785a1343.985 1343.985 0 0 0-70.468-14.325m329.33 97.41a2133.695 2133.695 0 0 0-41.706-17.19m-97.792-34.38a1523.955 1523.955 0 0 0-56.087-17.19m153.88 51.57a1922.347 1922.347 0 0 0-46.02-17.19m-608.327-74.49c-39.829 3.625-79.62 8.55-119.364 14.325m-130.87 21.488c-48.43 9.077-96.796 18.546-145.25 27.217m1002.372 11.46a1695.552 1695.552 0 0 0-50.334-17.19m266.053 106.005a3722.76 3722.76 0 0 0-27.325-11.46m53.211 24.353a4003.192 4003.192 0 0 0-24.448-11.46M74.782 366.72c-35.487 1.023-70.978 3.503-106.42 7.162m795.281 151.845a2835.963 2835.963 0 0 0-28.762-14.325m-562.306-144.17c-32.583-1.115-65.202-1.3-97.793-.646m660.099 144.816a2911.199 2911.199 0 0 0-34.515-14.325M257.424 375.315a1248.32 1248.32 0 0 0-87.725-7.163m668.727 191.955a4521.788 4521.788 0 0 0-21.572-10.027M468.828 416.857a1368.496 1368.496 0 0 0-63.277-17.19M-151.003 252.12c-43.729 10.187-87.296 22.032-130.87 34.38M734.882 441.21a2507.027 2507.027 0 0 0-34.515-21.488m-732.005-189.09c-39.879 5.427-79.67 12.82-119.364 21.488m225.785-31.515c-35.503 1.399-71.016 4.878-106.42 10.027m732.004 189.09a2015.091 2015.091 0 0 0-35.953-24.352m-41.706-24.353a1623.216 1623.216 0 0 0-46.02-24.352m186.956 114.6a2639.978 2639.978 0 0 0-28.762-20.055M-589.63 359.557c-59.68 9.386-119.947 13.872-179.766 10.158M664.413 395.37a1855.993 1855.993 0 0 0-41.706-24.353m-1049.83-45.84c-54.032 13.7-108.137 25.993-162.507 34.38m307.758-73.057c-48.45 12.898-96.755 26.34-145.25 38.677m599.697-102.334c-32.563-1.713-65.21-2.033-97.793-1.09m330.769 50.422c-23.393-8.1-46.897-15.283-70.468-21.488m133.745 45.84c-21.005-8.84-42.104-16.978-63.277-24.352M858.56 525.727a4879.889 4879.889 0 0 0-20.134-14.325M575.249 346.665c-16.72-9.498-33.498-18.584-50.334-27.218m-267.491-85.95a913.263 913.263 0 0 0-87.725-10.027m355.216 97.41c-18.624-8.634-37.321-16.767-56.087-24.353m348.026 200.55a3643.036 3643.036 0 0 0-24.448-17.19m-1.438 0a3203.863 3203.863 0 0 0-27.325-20.055m74.783 51.57a4112.602 4112.602 0 0 0-21.572-14.325m-481.771-246.39c-25.791-6.941-51.704-12.684-77.659-17.19m-438.628 1134.54c40.013 16.657 80.235 31.451 120.803 42.975m673.041-229.2c14.463-13.94 28.839-28.278 43.144-42.975m0 0a2310.953 2310.953 0 0 0 38.83-41.542M566.62 1227.652c16.41-14.736 32.701-30.035 48.896-45.84m113.611-126.06a3218.93 3218.93 0 0 0 31.64-35.812m28.762-34.38a4490.43 4490.43 0 0 0 24.448-31.515m-53.21 65.895a3882.924 3882.924 0 0 0 28.762-34.38m-1110.231 319.447c45.479 21.975 90.804 43.666 136.621 63.03m878.693-273.607a2716.133 2716.133 0 0 0 34.515-38.678m-789.53 356.693c36.19 9.976 72.716 17.432 109.298 21.487M835.55 928.26c6.719-9.032 13.43-18.105 20.133-27.218m-41.705 53.003a5208.106 5208.106 0 0 0 21.572-28.65m56.086-70.193a8251.028 8251.028 0 0 1-17.257 21.488m1.438 0a7361.396 7361.396 0 0 1-20.134 24.352M238.728 1421.04c27.035-6.843 53.957-15.972 80.535-27.218m194.147-120.33c17.88-14.546 35.61-29.853 53.21-45.84m-112.173 88.815c19.835-14.265 39.486-29.585 58.963-45.84m-195.585 123.195c24.678-10.207 49.158-22.209 73.345-35.812m514.848-522.863a9752.23 9752.23 0 0 1-14.382 20.055m-743.51 580.163c30.277-2.088 60.612-6.86 90.602-14.325m149.565-63.03c22.27-12.528 44.327-26.429 66.154-41.543m-405.55 117.465c32.978 4.419 66.21 5.53 99.23 2.87m358.092 151.84c17.958-21.393 35.676-43.873 53.21-67.327m0-1.433c16.465-21.668 32.749-44.135 48.897-67.327m116.488-189.09a4784.053 4784.053 0 0 0 31.639-55.868M445.818 1655.97c20.436-20.53 40.548-42.555 60.401-65.895m182.642-266.445a3972.604 3972.604 0 0 0 35.953-60.165m-119.364 189.09c14.499-21.395 28.869-43.376 43.144-65.895m-268.93 329.475c22.43-18.14 44.468-38.287 66.154-60.165m310.635-448.373a5479.43 5479.43 0 0 0 28.762-50.137m168.26-322.313c-3.354 6.69-6.71 13.375-10.066 20.055m-90.602 171.9a10556.63 10556.63 0 0 0 20.134-35.812m-87.726 166.17a6844.869 6844.869 0 0 0 27.325-48.705m-2.877 0a7710.184 7710.184 0 0 0 24.448-42.975m-609.764 743.467c27.694-9.416 55.153-22.466 81.973-38.677m-175.45 54.435c30.306-1.68 60.798-7.445 90.601-17.19m612.64-742.035a8885.288 8885.288 0 0 0 21.572-38.678m87.726-171.9c-3.834 7.17-7.669 14.332-11.505 21.488m-27.325 51.57c4.797-9.058 9.59-18.131 14.382-27.218m0 0a21717.96 21717.96 0 0 0 11.505-24.352m-40.268 80.22c4.798-9.53 9.591-19.08 14.381-28.65m-255.985 459.832c13.027-20.593 25.962-41.615 38.829-63.03M872.94 989.857a11954.31 11954.31 0 0 0 17.257-31.515M306.32 1769.137c24.876-15.012 49.352-32.82 73.345-53.002m599.697-815.093l7.19-24.352m0 0l4.315-21.488M583.878 2300.595c15.525-43.212 30.843-87.642 46.02-133.223m267.49-944.017c4.798-18.592 9.592-37.215 14.382-55.868m84.85-332.34l-4.315 20.055m-362.407 1312.17c14.032-42.09 27.919-85.081 41.706-128.925m254.547-922.53c3.837-15.265 7.672-30.545 11.505-45.84m10.067-41.542c3.356-11.931 6.712-23.869 10.067-35.813m14.381-63.03c2.397-9.07 4.794-18.143 7.19-27.217m-21.571 90.247c2.397-11.455 4.794-22.915 7.19-34.38m-50.334 209.145a63725.21 63725.21 0 0 0 11.505-50.137m38.83-159.008c2.397-9.547 4.794-19.097 7.19-28.65m-106.42 421.155c5.76-22.38 11.51-44.823 17.257-67.327m-140.936 517.132c9.63-34.995 19.213-70.336 28.762-106.005m0 0c9.14-32.226 18.245-64.7 27.324-97.41m-1.438 1.433a21933.72 21933.72 0 0 0 24.448-90.248m116.488-438.345c3.357-13.837 6.712-27.685 10.067-41.542m-123.678 479.887a25935.353 25935.353 0 0 0 21.571-81.652m35.953-143.25c5.759-20.012 11.51-40.067 17.258-60.165m-227.223 815.092c12.071-39.473 24.046-79.593 35.953-120.33m0-1.432a12029.49 12029.49 0 0 0 34.515-113.168m103.544-378.18a29672.41 29672.41 0 0 0 20.134-74.49m175.425-495.645l.052-20.055m-.055 41.543l.058-21.488m-1.516 173.333l.098-35.813m-.11 123.195l.121-45.84m-.114 0l.108-41.542m1.345-70.193l.079-28.65m-.084 63.03l.088-34.38m-1.565 328.043l.166-63.03m-.15-55.868l.134-50.137m-.141 106.005l.149-55.868m1.328-239.227l.07-27.218m-4.522 1067.213l.346-130.358m-.387 436.913l.427-161.873m-.369-275.04l.312-118.897m4.126-817.958l.064-24.352m-1.61 842.31l.28-106.005m-3.253 842.31l.474-179.063m2.513-663.247l.252-94.545m-3.194 594.487l.384-144.682m2.582-534.323l.204-77.355m-.194 0l.184-70.192m-.205 232.065c.075-29.128.15-58.255.227-87.383m53.097-554.377c-1.439-7.158-2.877-14.32-4.315-21.488m27.325 101.708c-2.399-9.54-4.795-19.09-7.191-28.65m24.448 95.977c-3.358-11.92-6.713-23.857-10.067-35.812m-23.01-87.383c-1.438-8.11-2.876-16.229-4.314-24.352m116.488 458.4a21040.665 21040.665 0 0 1-17.258-65.895m-86.287-340.935c-2.398-9.064-4.795-18.137-7.19-27.218m21.571 87.383a40627.4 40627.4 0 0 1-7.19-31.515m50.334 200.55c-3.84-16.193-7.674-32.428-11.505-48.705m25.886 101.707c-4.8-17.612-9.594-35.28-14.381-53.002m28.762 111.735a23958.022 23958.022 0 0 1-14.38-58.733m-38.83-147.547c-3.359-12.87-6.714-25.762-10.067-38.678m174.013 631.733a11379.684 11379.684 0 0 1-27.325-90.248m-46.02-161.872a17032.7 17032.7 0 0 1-20.133-70.193m153.879 522.863a8567.843 8567.843 0 0 1-31.639-104.573m-80.535-270.742a15677.088 15677.088 0 0 1-21.571-77.355m46.02 163.305a13588.691 13588.691 0 0 1-24.449-84.518m189.833 597.353c-14.06-36.745-27.947-74.482-41.706-113.168m0-1.432c-12.094-35.552-24.067-71.852-35.953-108.87M1088.659 855.202l-4.314-20.055m402.674 1362.308c-14.588-37.382-28.947-76.082-43.143-116.033m-289.063-975.532c-3.839-14.294-7.674-28.62-11.505-42.975m191.27 690.465a10114.6 10114.6 0 0 1-28.762-97.41m264.614-137.52c-17.973-18.382-35.697-38.002-53.21-58.733m-271.805-406.83a5239.534 5239.534 0 0 1-20.134-35.812m402.674 554.377c-19.948-16.144-39.597-33.873-58.963-53.002m-142.374-174.765c-13.045-18.134-25.98-36.768-38.83-55.868m0 0a2604.848 2604.848 0 0 1-34.514-53.002m343.711 382.477c-22.39-13.308-44.462-28.674-66.153-45.84m-277.558-336.637a3090.112 3090.112 0 0 1-31.639-50.138m-28.762-47.272a4171.054 4171.054 0 0 1-24.448-42.975m-43.144-77.355a6071.855 6071.855 0 0 1-20.134-34.38m264.615 419.722c-14.518-18.911-28.89-38.506-43.144-58.732m-158.193-249.255c-7.212-13.73-14.4-27.58-21.572-41.543m271.805 406.83c-16.484-18.697-32.77-38.301-48.896-58.732m379.664 275.04c30.04 4.787 60.486 5.489 90.602 2.534m-618.393-492.449a3782.36 3782.36 0 0 1-28.762-48.705m-84.85-154.71a6908.09 6908.09 0 0 1-17.257-31.515m658.66 723.412c-27.016-4.034-54.04-11.24-80.535-21.487M1176.385 922.53c-4.8-9.044-9.593-18.117-14.381-27.218m28.762 55.868c-4.8-9.514-9.593-19.064-14.381-28.65m-14.381-24.353c-3.839-8.096-7.674-16.214-11.505-24.352m618.392 779.28c-24.765-9.398-49.295-21.434-73.344-35.813m-557.992-764.955c-3.357-6.673-6.713-13.358-10.066-20.055m23.01 41.543c-3.359-7.147-6.714-14.31-10.067-21.488m63.277 17.19a4469.217 4469.217 0 0 1-17.257-20.055M1289.996 974.1a2841.734 2841.734 0 0 1-24.448-28.65m355.217 316.582c-19.822-10.89-39.484-22.862-58.963-35.812m362.407 112.664c-29.222 1.294-58.57.117-87.726-3.794m-614.078-441.21a4071.697 4071.697 0 0 1-20.134-21.488m40.267 45.84a3605.749 3605.749 0 0 1-20.133-24.352m126.555 144.682a2276.276 2276.276 0 0 1-31.64-34.38m816.855 293.663c-36.25 11.649-72.69 21.537-109.298 28.65m-186.956 7.162c-26.936-3.498-53.867-9.227-80.534-17.19m-194.147-91.68c-17.88-12.079-35.617-24.998-53.21-38.677m247.357 131.79c-24.61-6.471-49.11-14.622-73.345-24.353m-300.568-220.605a1933.973 1933.973 0 0 1-34.514-35.812m73.344 71.625a1634.158 1634.158 0 0 1-38.83-35.813m125.117 113.168c-15.452-12.288-30.788-25.2-46.02-38.678m0 0c-13.99-12.433-27.887-25.339-41.705-38.677M1264.11 945.45a3253.8 3253.8 0 0 1-21.572-27.218m-56.086-67.327a5258.153 5258.153 0 0 1-14.382-20.055m514.848 462.697c-22.231-9.16-44.306-19.705-66.153-31.515m770.834-60.165c-45.684 17.002-91.012 35.383-136.622 53.003m-231.538 73.057c-32.94 6.158-66.104 10.172-99.23 11.46m-606.888-333.772a2542.62 2542.62 0 0 1-27.325-31.515m964.981 280.77c-40.17 15.486-80.33 30.288-120.802 42.975M235.852-103.14c27.035 6.846 53.956 15.974 80.535 27.217m-168.26-41.542c30.277 2.096 60.611 6.868 90.601 14.325M48.896-116.033c32.98-4.435 66.212-5.537 99.23-2.838M694.614 223.47a2715.909 2715.909 0 0 1 34.515 38.677m58.963 70.193a4468.103 4468.103 0 0 1 24.449 31.515m-53.211-65.895a3874.855 3874.855 0 0 1 28.762 34.38m-58.963-70.193a3213.268 3213.268 0 0 1 31.64 35.813m130.868 164.737c4.797 6.671 9.59 13.357 14.382 20.055M-184.08-50.138c40.013-16.66 80.235-31.455 120.803-42.975M454.447 1.432c19.836 13.375 39.486 27.737 58.963 42.975M874.379 441.21a8247.661 8247.661 0 0 1 17.257 21.487M-60.4-94.545c36.19-9.983 72.716-17.44 109.297-21.488m806.787 532.89a7367.587 7367.587 0 0 1 20.134 24.353m-40.267-51.57c6.719 9.031 13.43 18.105 20.133 27.217M388.293-40.11c22.269 12.53 44.327 26.43 66.154 41.542m58.963 42.975c17.88 14.547 35.61 29.854 53.21 45.84m-2.876 0c16.41 14.737 32.702 30.035 48.896 45.84m201.338 227.768a5160.167 5160.167 0 0 1 21.572 28.65M612.64 136.087c14.464 13.94 28.838 28.278 43.144 42.975M-320.7 12.892c45.478-21.978 90.804-43.669 136.621-63.03m500.467-25.785c24.678 10.21 49.158 22.21 73.344 35.813m266.053 219.172a2307.747 2307.747 0 0 1 38.83 41.543M445.817-338.07c20.436 20.534 40.548 42.558 60.401 65.895M929.028 441.21c3.836 7.156 7.67 14.318 11.505 21.487M379.665-398.235c22.428 18.145 44.467 38.291 66.153 60.165m363.845 547.215a8019.364 8019.364 0 0 1 21.572 42.975M221.471-491.348c27.696 9.433 55.154 22.483 81.973 38.678m478.895 613.11a6824.442 6824.442 0 0 1 27.324 48.705M221.471-488.483c-29.8-9.702-60.293-15.469-90.602-17.19M890.2 360.99c4.797 9.53 9.59 19.081 14.38 28.65M503.343-270.743c17.958 21.396 35.676 43.876 53.21 67.328M303.445-451.238c24.876 15.022 49.352 32.829 73.344 53.003m563.745 860.932c3.356 6.681 6.712 13.366 10.066 20.055M556.554-201.983c16.464 21.67 32.747 44.137 48.896 67.328m247.357 425.452a10447.4 10447.4 0 0 1 20.134 35.813m43.143 90.247c3.837 8.108 7.672 16.226 11.505 24.353m-54.648-113.168c5.758 10.478 11.51 20.983 17.257 31.515M831.235 252.12a8896.577 8896.577 0 0 1 21.572 38.677m51.772 98.843c4.797 9.058 9.59 18.131 14.382 27.217M648.594-67.328c13.027 20.595 25.962 41.615 38.829 63.03m0-1.432a4014.407 4014.407 0 0 1 34.515 60.165M605.45-134.655c14.499 21.395 28.868 43.376 43.144 65.895m76.22 123.195a4785.726 4785.726 0 0 1 31.639 55.867m0 0a5480.143 5480.143 0 0 1 28.762 50.138M897.39 94.545c4.797 18.591 9.59 37.215 14.381 55.867M880.131 34.38c5.759 20.012 11.51 40.068 17.258 60.165m94.916 368.152l4.314 20.055m-225.785-859.5c9.14 32.227 18.245 64.701 27.324 97.41M985.114 441.21l4.315 21.487m-247.357-945.45c9.63 34.997 19.213 70.338 28.762 106.005m194.147 736.305l7.19 28.65m7.19 28.65c2.398 8.117 4.795 16.235 7.191 24.353m-14.38-53.003l7.19 27.218M671.604-720.548c12.071 39.476 24.046 79.597 35.953 120.33m-77.66-249.255c14.033 42.095 27.92 85.085 41.707 128.925m264.614 968.37c3.357 13.838 6.713 27.685 10.067 41.543M707.557-597.353c11.57 37.26 23.068 74.99 34.515 113.168M957.79 325.177c2.397 11.456 4.794 22.916 7.19 34.38m-53.21-209.145c3.837 16.692 7.672 33.405 11.505 50.138M862.874-32.948c5.76 22.38 11.512 44.824 17.257 67.328m64.716 254.985c3.356 11.931 6.712 23.869 10.067 35.812m-133.746-515.7a25909.515 25909.515 0 0 1 21.572 81.653m0 1.432a29760.291 29760.291 0 0 1 20.134 74.49M583.878-982.695c15.525 43.217 30.842 87.647 46.02 133.222M796.72-280.77a22002.434 22002.434 0 0 1 24.448 90.247m103.545 392.505c3.837 15.266 7.671 30.546 11.505 45.84M1039.624-401.1c.092 35.336.186 70.67.279 106.005m-.232 256.417l.184 70.193m-.175 0l.166 63.03m-.185-210.578l.204 77.355m-.176 133.223l.148 55.867m-.2-445.507l.252 94.545m-3.158-319.448l.311 118.898m2.608 200.55c.075 29.128.15 58.255.227 87.382m1.28 438.345l.088 34.38m-.073 81.653l.058 21.487m-.064-73.057l.07 27.217m-.067 0l.064 24.353m-1.519-151.845l.098 35.812m1.35 34.38l.079 28.65m-1.545-237.795l.134 50.138m-3.18-1337.955l.474 179.062m2.585 1206.165l.108 41.543m-.114-87.383l.12 45.84m1.352 214.875l.052 20.055m-4.532-1277.79l.384 144.683m-.405-306.555l.425 161.872m-.385 144.683l.345 130.357M1441-762.09c-13.09 36.75-26.018 74.486-38.829 113.167M1215.214-17.19a21014.92 21014.92 0 0 0-17.257 65.895m-17.258 58.732c-4.8 17.613-9.594 35.281-14.381 53.003m28.762-111.735a23895.086 23895.086 0 0 0-14.38 58.732m-14.382 53.003c-3.84 16.193-7.674 32.428-11.505 48.705m123.678-458.4a13656.361 13656.361 0 0 0-24.448 84.517m51.773-173.332a11428.113 11428.113 0 0 0-27.325 90.247m87.726-290.797a8591.632 8591.632 0 0 0-31.639 104.572m0-1.432a10140.478 10140.478 0 0 0-28.762 97.41m-70.468 252.12a17090.324 17090.324 0 0 0-20.134 70.192m38.83-147.547a15735.857 15735.857 0 0 0-21.572 77.355m-140.937 548.647l-4.314 20.055m35.953-153.277a40216.435 40216.435 0 0 0-7.19 31.515m-7.191 28.65c-2.398 9.064-4.795 18.137-7.19 27.217m33.076-123.195c-3.358 11.92-6.713 23.858-10.067 35.813M1095.85 441.21c-1.439 7.158-2.877 14.32-4.315 21.487m8.63-45.84c-1.44 8.112-2.878 16.23-4.315 24.353m20.134-80.22c-2.399 9.54-4.795 19.09-7.191 28.65m35.953-134.655a31155.33 31155.33 0 0 0-10.067 38.677m352.34-1173.217c-14.587 37.388-28.946 76.087-43.143 116.032M1402.17-647.49c-12.093 35.555-24.067 71.855-35.953 108.87m-211.404 750.63c-3.839 14.294-7.674 28.62-11.505 42.975m152.441-74.49a4158.855 4158.855 0 0 0-24.448 42.975m-107.86 196.252a9972.88 9972.88 0 0 0-11.504 24.353m0 0a10646.33 10646.33 0 0 0-10.067 21.487m-1.438 0c-3.358 6.673-6.714 13.359-10.067 20.055m48.896-90.247c-4.8 9.044-9.593 18.117-14.381 27.217m43.143-87.382a6863.796 6863.796 0 0 0-17.257 31.515m37.391-65.895a6063.433 6063.433 0 0 0-20.134 34.38m-17.257 31.515c-4.8 9.513-9.593 19.064-14.381 28.65m592.506-730.575c-24.766 9.415-49.296 21.451-73.344 35.812m-371.036 432.615a3779.664 3779.664 0 0 0-28.762 48.705m-48.896 83.085a5247.443 5247.443 0 0 0-20.134 35.813m404.113-554.378c-19.949 16.15-39.598 33.88-58.963 53.003m-53.21 58.732c-16.485 18.7-32.772 38.305-48.897 58.733m2.876-1.433c-14.518 18.913-28.89 38.509-43.144 58.733m267.491-273.608c-22.39 13.319-44.462 28.685-66.153 45.84m-58.963 55.868c-17.973 17.49-35.698 36.152-53.21 55.867M1356.15 83.085a3097.075 3097.075 0 0 0-31.639 50.137m524.915-489.915c-27.019 4.071-54.043 11.278-80.535 21.488m-497.59 558.675a5082.554 5082.554 0 0 0-21.572 41.542m179.765-290.797c-13.044 18.134-25.98 36.769-38.829 55.867m549.363-390.92c-30.12-2.745-60.565-1.975-90.602 2.713m-458.76 388.207a2604.353 2604.353 0 0 0-34.516 53.003m67.592 126.06a1631.163 1631.163 0 0 0-38.83 35.812m238.729-189.09c-19.822 10.892-39.484 22.864-58.963 35.813m125.117-67.328c-22.232 9.163-44.307 19.708-66.154 31.515m-58.963 37.245c-16.914 12.08-33.692 24.999-50.334 38.678M1758.824 0c-23.643 6.476-47.182 14.625-70.467 24.352m-303.444 220.605a1928.574 1928.574 0 0 0-34.515 35.813m783.777-257.85c-36.252-11.658-72.691-21.548-109.298-28.65m-513.41 137.52c-15.451 12.288-30.788 25.2-46.02 38.677m559.43-177.63c-32.465-6.177-65.147-10.193-97.792-11.46m0 .472c-29.222-1.242-58.57-.053-87.725 3.826m0-1.433c-26.937 3.51-53.869 9.239-80.535 17.19m-293.377 169.035c-13.99 12.433-27.888 25.34-41.706 38.678m-232.976 257.85a5181.514 5181.514 0 0 0-14.381 20.055M2254.977 63.03c-40.169-15.493-80.33-30.295-120.802-42.975m254.548 95.977c-44.72-17.009-89.096-35.389-133.746-53.002M1208.023 448.372a4466.713 4466.713 0 0 0-17.257 20.055m102.107-123.195a2832.354 2832.354 0 0 0-24.448 28.65m0-1.432a3241.683 3241.683 0 0 0-21.572 27.217m73.344-87.382a2532.116 2532.116 0 0 0-27.324 31.515m58.963-64.463a2273.406 2273.406 0 0 0-31.639 34.38m-94.916 110.303a3831.707 3831.707 0 0 0-17.258 21.487m37.392-45.84a3590.564 3590.564 0 0 0-20.134 24.353"/></g></g></svg>