<?xml version="1.0" encoding="UTF-8"?>
<svg width="32px" height="35px" viewBox="0 0 32 35" version="1.1" xmlns="http://www.w3.org/2000/svg" xmlns:xlink="http://www.w3.org/1999/xlink">
    <title>Fill 1</title>
    <g id="Web" stroke="none" stroke-width="1" fill="none" fill-rule="evenodd">
        <g id="DT---Home-" transform="translate(-439.000000, -4982.000000)" fill="#FDFFD6">
            <g id="Group-2" transform="translate(425.000000, 4968.000000)">
                <path d="M40.2474063,35.2734728 L36.6775376,35.2734728 L36.6775376,26.3503304 C36.6775376,24.4692763 35.9015822,23.5146935 34.3499678,23.5146935 C32.6345109,23.5146935 31.7747086,24.647316 31.7747086,26.8865653 L31.7747086,31.7707162 L28.2255794,31.7707162 L28.2255794,26.8865653 C28.2255794,24.647316 27.365777,23.5146935 25.6500239,23.5146935 C24.0984095,23.5146935 23.3227504,24.4692763 23.3227504,26.3503304 L23.3227504,35.2734728 L19.7528817,35.2734728 L19.7528817,26.080097 C19.7528817,24.2011589 20.2215955,22.7082253 21.1634672,21.6034121 C22.1349669,20.4989011 23.4068937,19.9324388 24.9857658,19.9324388 C26.8126237,19.9324388 28.1962478,20.6488293 29.1108618,22.0819125 L29.9999958,23.6026554 L30.8894262,22.0819125 C31.8040402,20.6488293 33.187368,19.9324388 35.0145222,19.9324388 C36.5933943,19.9324388 37.8653211,20.4989011 38.8368208,21.6034121 C39.7783962,22.7082253 40.2474063,24.2011589 40.2474063,26.080097 L40.2474063,35.2734728 Z M45.9987791,25.490964 C45.9987791,17.8984339 41.1229115,15.6730892 41.1229115,15.6730892 C38.6643862,14.5211212 34.4429995,14.0365752 30.0571777,14 L29.9493321,14 C25.5635103,14.0365752 21.3447901,14.5211212 18.8862649,15.6730892 C18.8862649,15.6730892 14.010101,17.8984339 14.010101,25.490964 C14.010101,27.2296468 13.9769177,29.3083883 14.0308405,31.5131783 C14.2080155,38.9382485 15.3652823,46.2560111 22.0940803,48.072983 C25.1967166,48.9108878 27.8605634,49.086207 30.0059214,48.9659018 C33.8963643,48.745846 36.0802386,47.5494436 36.0802386,47.5494436 L35.9519497,44.6696747 C35.9519497,44.6696747 33.1716652,45.5641049 30.0494745,45.4549838 C26.9560228,45.3467695 23.6901366,45.1146227 23.189721,41.2397663 C23.1435014,40.8994052 23.1203916,40.5354668 23.1203916,40.1530896 C23.1203916,40.1530896 26.157254,40.9105894 30.0059214,41.0904427 C32.3589712,41.2004706 34.5659554,40.9495828 36.8073079,40.6769312 C41.1057273,40.1530896 44.8483268,37.4510581 45.3188182,34.9820802 C46.0598126,31.0930168 45.9987791,25.490964 45.9987791,25.490964 L45.9987791,25.490964 Z" id="Fill-1"></path>
            </g>
        </g>
    </g>
</svg>