<?xml version="1.0" encoding="UTF-8"?>
<svg width="32px" height="28px" viewBox="0 0 32 28" version="1.1" xmlns="http://www.w3.org/2000/svg" xmlns:xlink="http://www.w3.org/1999/xlink">
    <title>icon / arrow-right copy</title>
    <defs>
        <path d="M31.4331989,0.251750624 C31.0340553,-0.0164211129 30.3688161,-0.0164211129 29.9696725,0.251750624 C29.0383375,0.922179965 27.9739547,1.45852344 26.9095718,1.86078104 C24.2486147,-0.552764586 20.1241312,-0.686850454 17.3301263,1.86078104 C15.6005042,3.20163972 14.6691692,5.21292775 14.6691692,7.35830164 C10.8107814,7.0901299 7.35153714,5.07884188 5.08972361,1.86078104 C4.8236279,1.45852344 4.42448433,1.32443757 3.89229291,1.32443757 C3.36010149,1.32443757 2.96095793,1.72669517 2.82791007,2.12895278 C2.69486222,2.26303865 1.36438367,5.48109948 1.49743152,9.36958966 C1.63047938,12.7217364 2.96095793,17.0124842 7.88372856,20.0964591 C5.88801074,21.0350602 3.6261972,21.4373178 1.36438367,21.4373178 C0.832192247,21.4373178 0.166952972,21.8395754 0.0339051165,22.3759189 C-0.0991427385,22.9122624 0.166952972,23.5826917 0.699144392,23.8508634 C4.02534077,25.7280656 7.61763285,26.6666667 10.9438292,26.6666667 C14.2700256,26.6666667 17.4631741,25.8621515 20.3902269,24.1190352 C26.1112847,20.9009743 29.3044332,14.7330244 29.3044332,7.35830164 C29.3044332,7.0901299 29.3044332,6.95604404 29.3044332,6.6878723 C30.6349118,5.21292775 31.5662468,3.46981146 31.9653903,1.59260931 C32.0984382,1.05626583 31.8323425,0.51992236 31.4331989,0.251750624 Z M26.9095718,5.34701362 C26.6434761,5.61518535 26.5104283,6.15152883 26.5104283,6.55378643 C26.6434761,6.82195817 26.6434761,7.0901299 26.6434761,7.35830164 C26.6434761,13.7944233 23.8494712,19.0237722 19.0597484,21.8395754 C15.3344084,23.9849493 10.9438292,24.5212928 6.55325001,23.4486058 C8.28287213,22.9122624 9.87944639,22.241833 11.3429728,21.1691461 C11.8751642,20.9009743 12.0082121,20.4987167 12.0082121,19.9623733 C12.0082121,19.4260298 11.6090685,19.0237722 11.2099249,18.8896863 C3.49314935,15.4034537 3.75924506,8.83324619 4.55753219,5.48109948 C7.484585,8.43098859 11.6090685,10.1741049 15.9996477,10.040019 C16.664887,10.040019 17.3301263,9.36958966 17.3301263,8.69916032 L17.3301263,7.35830164 C17.3301263,6.01744296 17.8623177,4.67658428 18.9267005,3.7379832 C20.7893705,1.99486691 23.8494712,2.26303865 25.4460454,4.1402408 C25.845189,4.54249841 26.3773804,4.67658428 26.776524,4.54249841 C27.0426197,4.40841254 27.4417632,4.40841254 27.707859,4.27432667 C27.4417632,4.67658428 27.1756675,4.94475601 26.9095718,5.34701362 Z" id="path-1"></path>
    </defs>
    <g id="EmberFest-2022" stroke="none" stroke-width="1" fill="none" fill-rule="evenodd">
        <g id="2022-Desktop-HD---Location-unnanounced" transform="translate(-472.000000, -1594.000000)">
            <g id="get-involved" transform="translate(-55.000000, 1335.000000)">
                <g id="twitter" transform="translate(342.000000, 221.000000)">
                    <g id="icon-/-arrow-right-copy" transform="translate(185.000000, 38.666667)">
                        <mask id="mask-2" fill="white">
                            <use xlink:href="#path-1"></use>
                        </mask>
                        <use id="Mask" fill="#FDF8F4" fill-rule="nonzero" xlink:href="#path-1"></use>
                        <g id="Icon-Color" mask="url(#mask-2)" fill="#FDF8F4">
                            <g transform="translate(0.000000, -2.666667)" id="Shape">
                                <rect x="0" y="0" width="32" height="32"></rect>
                            </g>
                        </g>
                    </g>
                </g>
            </g>
        </g>
    </g>
</svg>