<?xml version="1.0" encoding="UTF-8"?>
<svg width="30px" height="30px" viewBox="0 0 30 30" version="1.1" xmlns="http://www.w3.org/2000/svg" xmlns:xlink="http://www.w3.org/1999/xlink">
    <title>Group 14</title>
    <g id="Web" stroke="none" stroke-width="1" fill="none" fill-rule="evenodd">
        <g id="M---Detailed-Schedule" transform="translate(-178, -1162)">
            <g id="Group" transform="translate(18, 1086)">
                <g id="Group-14" transform="translate(160, 76)">
                    <circle id="Oval" fill="#08175E" cx="15" cy="15" r="15"></circle>
                    <path d="M23.9555577,7.96319055 C24.0337997,8.55428482 23.9850904,9.16520177 23.8007736,9.75112205 C23.7773591,9.82555404 23.7519193,9.89906392 23.7245214,9.97158651 L23.691,10.052 L25.5244202,9.22594463 L24.1698162,11.2857393 C23.7380348,11.9423011 23.2072633,12.5294513 22.60096,13.0213959 C22.5227836,15.7424675 21.492048,18.4963787 19.6046937,20.5041757 C17.8718494,22.3476027 15.420788,23.5733333 12.3095607,23.5733333 C10.2621586,23.5733333 8.35635104,22.9634484 6.75182859,21.9177952 L4.17829891,20.2406486 L7.22819927,20.6066864 C7.46388967,20.6349731 7.70369243,20.6495114 7.94687143,20.6495114 C8.79115017,20.6495114 9.59508964,20.4741694 10.3253775,20.157412 C10.1247243,20.0525879 9.93368645,19.9314165 9.75397772,19.7956148 C9.07848726,19.2851624 8.56356526,18.5674398 8.30125163,17.7349334 L7.963,16.663 L7.86676449,16.5363335 C7.42101809,15.9153208 7.14088973,15.1634704 7.09364116,14.34802 L7.08652024,14.1015441 C7.08652024,13.6823808 7.14799972,13.2778111 7.26225709,12.8967811 L7.325,12.95 L7.27342225,12.7851849 C7.19041515,12.4931102 7.13821355,12.1877645 7.1206532,11.8730222 L7.1140381,11.6352641 C7.1140381,10.877406 7.31517659,10.1671892 7.66530953,9.55654098 C7.83915789,9.25334132 8.05274643,8.9694423 8.30399623,8.71394384 C8.47125099,8.97293861 8.65193847,9.22356575 8.84533152,9.46471737 C10.1982309,11.1517163 12.1388216,12.3324806 14.35094,12.6816313 L14.431,12.692 L14.4371786,12.4686408 C14.492302,11.5034884 14.8735342,10.6274071 15.4697057,9.95164334 L15.6231622,9.78694008 C16.3638006,9.03411988 17.3872499,8.56952381 18.5170143,8.56952381 C19.5402165,8.56952381 20.4780446,8.9506769 21.1960724,9.58172596 C21.7478736,9.43515983 22.2690006,9.21154904 22.7477944,8.92287266 C23.1861592,8.65857188 23.5928541,8.33742901 23.9555577,7.96319055 Z" id="Fill-1" stroke="#FDFFD6" stroke-width="1.43238095" stroke-linejoin="round"></path>
                </g>
            </g>
        </g>
    </g>
</svg>