<?xml version="1.0" encoding="UTF-8"?>
<svg width="34px" height="27px" viewBox="0 0 34 27" version="1.1" xmlns="http://www.w3.org/2000/svg" xmlns:xlink="http://www.w3.org/1999/xlink">
    <title>Fill 1</title>
    <g id="Web" stroke="none" stroke-width="1" fill="none" fill-rule="evenodd">
        <g id="DT---Home-" transform="translate(-349.000000, -4986.000000)" fill="#FDFFD6">
            <g id="Group-2-Copy-2" transform="translate(335.000000, 4968.000000)">
                <path d="M43.99378,22.2693742 C45.43368,21.4258318 46.53987,20.0900847 47.06075,18.4983511 C45.71282,19.2795996 44.22005,19.8467232 42.63106,20.1523785 C41.35878,18.8275951 39.5459,18 37.53956,18 C33.68736,18 30.56395,21.0517362 30.56395,24.8159485 C30.56395,25.3501809 30.62566,25.8704595 30.74466,26.369309 C24.94732,26.0850827 19.80737,23.3713946 16.36708,19.247539 C15.76664,20.2542083 15.42256,21.4251673 15.42256,22.6743675 C15.42256,25.0392098 16.65404,27.1254737 18.52574,28.347763 C17.38232,28.31238 16.30673,28.005728 15.36629,27.4952503 C15.36561,27.5236563 15.36561,27.5520623 15.36561,27.5809667 C15.36561,30.8833735 17.77009,33.6382586 20.96116,34.2645199 C20.37585,34.4203376 19.7596,34.5037284 19.12346,34.5037284 C18.67398,34.5037284 18.23691,34.4608702 17.81106,34.3813001 C18.69863,37.0891741 21.27464,39.0599867 24.32716,39.1148053 C21.93985,40.9430895 18.93221,42.0328173 15.66396,42.0328173 C15.10092,42.0328173 14.5457,42.0004245 14,41.9374662 C17.08703,43.8714008 20.75359,45 24.69283,45 C37.52324,45 44.53965,34.6136979 44.53965,25.6063334 C44.53965,25.3108111 44.53268,25.0169501 44.51925,24.7245841 C45.88231,23.7634309 47.06483,22.5630691 48,21.1960919 C46.74914,21.738298 45.40461,22.1047522 43.99378,22.2693742 Z" id="Fill-1"></path>
            </g>
        </g>
    </g>
</svg>