<?xml version="1.0" encoding="utf-8"?>
<svg width="873px" height="88px" viewBox="0 0 873 88" version="1.1" xmlns="http://www.w3.org/2000/svg">
  <title>Group</title>
  <desc>Created with Sketch.</desc>
  <g id="Page-1" stroke="none" stroke-width="1" fill="none" fill-rule="evenodd">
    <g id="Group" fill="#000000">
      <g id="Rectangle">
        <path d="M834.500781,15.9312594 L873,84.9999979 L852,84.999995 L843,68.7023985 L787,68.7023998 L778,85 L757,84.9999979 L794.034142,16.2284109 C805.060981,-4.2481859 823.178271,-4.38165787 834.500781,15.9312594 Z M807.64047,27.2558413 L794,53.7024013 L836,53.7024031 L822.35953,27.2558419 C818.294974,19.3753555 811.707207,19.3711271 807.64047,27.2558413 Z" id="Path-26"/>
        <polygon id="Path-25" points="648 22.4556962 687 22.4556962 687 85 708 85 708 22.4556962 747 22.4556962 747 4 648 4"/>
        <path d="M552,4 L573,4 L573,53.3330601 C573,61.3160262 579.476215,67.7874989 587.462982,67.7874989 L643.006756,67.7874989 L643.006756,85 L577.622959,84.2725684 C563.471789,84.1151287 552,72.5059662 552,58.3626772 L552,4 Z" id="Path-24"/>
        <path d="M460.841593,3.09810875 C460.841593,3.09810875 519.901771,-1.04698589 516.888497,46.621601 C515.037995,75.8956704 492.782302,86.0000053 460.841593,86 C415.271671,86.0000035 406,67.1183075 406,44.5490538 C406,-1.04698581 460.841593,3.09810875 460.841593,3.09810875 Z M495.840833,44.7557194 C495.840834,43.08056 497.302142,19.6283276 461.256554,20.7451005 C425.698069,20.7451005 427.159376,41.4054005 427.159376,44.7557194 C427.159376,48.1060383 427.159376,68.207953 461.256553,68.2079518 C497.302142,69.8831124 495.840832,46.4308789 495.840833,44.7557194 Z" id="O"/>
        <path d="M275,4 C275,4 299.994769,57.0264174 310,75.6902785 C312.132741,79.6687164 310,75.6902785 310,75.6902785 C321.59798,92.6588988 342.321148,91.4000129 353,75.6902785 C353,75.6902785 347,85.9317468 353,75.6902785 C359,65.4488101 387,4 387,4 L365,4 L338.28342,60.3329138 C334.260898,68.8145521 327.739937,68.8163132 323.71658,60.3329138 L297,4 L275,4 Z" id="Path-23"/>
        <path d="M147.838568,13.9930957 C147.838568,8.47406134 152.308148,4 157.840574,4 L243.838568,4 L243.83857,22 L167.838568,22 L167.838568,36 L236,36 L236,54 L167.838568,54 L167.838568,68 L243.83857,68 L243.838568,85 L157.840574,85 C152.316618,85 147.838568,80.5297104 147.838568,75.0069043 L147.838568,13.9930957 Z" id="Path-30"/>
        <path d="M53.0254777,3 C89.7898089,3 108.171975,12.7288136 108.171975,25.9322034 C108.171975,39.1355932 94.0318471,42.6101695 94.0318471,42.6101695 C94.0318471,42.6101695 111,46.779661 111,61.3728814 C111,82.220339 76.3566879,85 50.9044586,85 L50.9044586,85 L4.99667095,85 C2.24507678,85 4.70960864e-15,82.7587239 4.70960864e-15,79.9939698 L4.70960864e-15,79.9939698 L4.70960864e-15,8.00603017 C4.70960864e-15,5.23582922 2.23971412,3 5.00254151,3 L5.00254151,3 Z M65.9269126,53.7026932 L22,53.7024027 L22,53.7024027 L22,68.4542839 L22.079731,68.4549404 C23.7847,68.4689477 52.39,68.7024027 65,68.7024027 C78,68.7024027 85,66.2876661 85,61.0350362 C85,53.9523788 74.7372159,53.7109246 65.9269126,53.7026932 Z M68.2574125,21.7022797 L22,21.7024027 L22,21.7024027 L22,35.4542839 L22.100764,35.4549404 C24.208624,35.4686589 58.770384,35.692869 67.484544,35.7021089 L68,35.7024027 C76,35.7024027 85,35.4542843 85,28.4249935 C85,21.4814258 75.2424152,21.6960132 68.2574125,21.7022797 Z" id="B-3"/>
      </g>
    </g>
  </g>
</svg>