<svg id="Layer_1" data-name="Layer 1" xmlns="http://www.w3.org/2000/svg" viewBox="0 0 246.894 51.524"><defs><style>.cls-1{fill:#e24c32;fill-rule:evenodd;}.cls-2{font-size:40.898px;fill:#231f20;font-family:Share Tech Mono;letter-spacing:-8px;}.cls-3{letter-spacing:-4px;}.cls-4{letter-spacing:-5px;}</style></defs><title>ember-fest-logo</title><path class="cls-1" d="M2234.525,1549.65a3.434,3.434,0,0,1-2.178,2.4,33.865,33.865,0,0,1-4.7,1.768,3.791,3.791,0,0,1-4.656-2.234,34.889,34.889,0,0,1-1.344-4.74,1.151,1.151,0,0,0-.336-0.637c-0.131.283-.285,0.557-0.391,0.848-1.168,3.2-2.307,6.4-3.5,9.586a13.461,13.461,0,0,1-1.316,2.676,1.818,1.818,0,0,1-3.281.051,13.322,13.322,0,0,1-1.053-2.285,12.438,12.438,0,0,1-8.693,3.236,8.688,8.688,0,0,1-7.91-4.8c-0.4.217-.771,0.428-1.15,0.619a44.75,44.75,0,0,1-12.447,3.945,9.74,9.74,0,0,1-7.227-1.656,1.336,1.336,0,0,0-1.586-.014,22.815,22.815,0,0,1-4.1,1.766,2.86,2.86,0,0,1-3.91-2.406,44.238,44.238,0,0,1-.416-6.236c-0.037-1.295.117-2.594-.025-3.984a5.461,5.461,0,0,0-.527.859c-1.037,2.674-2.051,5.357-3.084,8.031a21.412,21.412,0,0,1-1.02,2.406,1.879,1.879,0,0,1-2.012,1.219c-1.238-.187-2.5-0.565-2.643-1.955a26.659,26.659,0,0,1,.076-5.024c0.158-1.824.5-3.633,0.572-5.572a5.946,5.946,0,0,0-.687.941c-1.168,2.486-2.295,4.992-3.467,7.475a29.119,29.119,0,0,1-1.461,2.721,2.562,2.562,0,0,1-2.725,1.543,2.678,2.678,0,0,1-2.275-2.389c-0.029-.119-0.053-0.24-0.113-0.523-0.611.33-1.174,0.621-1.723,0.934a14.6,14.6,0,0,1-6.875,1.908,7.039,7.039,0,0,1-7.436-5.193,1.786,1.786,0,0,0-1.725-1.428,30.9,30.9,0,0,1-3.451-.832,1.13,1.13,0,0,1-.885-1.5,6.078,6.078,0,0,1,.555-1.373c0.406-.775.965-0.775,1.725-0.41a11.847,11.847,0,0,0,2.271.688c0.984,0.244,1.2-.361,1.311-1.176a15.3,15.3,0,0,1,2.279-6.289c1.156-1.785,2.635-3.285,4.789-3.637a9.6,9.6,0,0,1,4.133.184c2.742,0.8,3.98,3.769,3.047,6.715a8.808,8.808,0,0,1-3.631,4.645,41.95,41.95,0,0,1-4.391,2.484c-1.021.523-1.156,1.189-.228,1.91a3.626,3.626,0,0,0,2.961.559,18.638,18.638,0,0,0,7.248-3.371,1.84,1.84,0,0,0,.439-1.07c0.717-3.381,1.385-6.775,2.127-10.152,0.453-2.047,1.34-2.59,3.438-2.258a1.3,1.3,0,0,1,1.141,1.565c-0.17,1.828-.41,3.65-0.65,5.473-0.113.851-.293,1.693-0.443,2.539l0.219,0.105a4.68,4.68,0,0,0,.383-0.5c1.09-1.9,2.133-3.818,3.264-5.689a6.432,6.432,0,0,1,3.887-3.184c1.436-.371,2.1.057,2.221,1.52a18.893,18.893,0,0,1-1.068,6.711,1.974,1.974,0,0,0-.066,1.105,1.687,1.687,0,0,0,.352-0.322c1.506-2.41,2.982-4.84,4.512-7.234a5.9,5.9,0,0,1,1.275-1.344,2.4,2.4,0,0,1,2.943-.342,2.343,2.343,0,0,1,.943,2.566c-0.314,2.787-.814,5.555-1.131,8.342a22.724,22.724,0,0,0-.066,4.188c0.082,1.119.728,1.469,1.773,1.025a10.344,10.344,0,0,0,2.391-1.424,2.127,2.127,0,0,0,.545-1.318c0.725-5.978,1.381-11.967,2.133-17.943a34.13,34.13,0,0,1,4-12.2,8.583,8.583,0,0,1,4.814-3.953,3.022,3.022,0,0,1,3.992,1.481,11.967,11.967,0,0,1,.861,8.568,30.114,30.114,0,0,1-5.205,10.816c-0.144.205-.291,0.408-0.428,0.617a0.418,0.418,0,0,0-.025.176,0.337,0.337,0,0,0,.146.064c2.732-1.779,5.059.086,6.344,2.156a8.681,8.681,0,0,1,.664,6.986c-0.393,1.553-1.037,3.041-1.6,4.66a8.906,8.906,0,0,0,.869-0.314c0.59-.285,1.168-0.6,1.756-0.891,1.846-.914,3.17-1.961,3.5-4.383a13.039,13.039,0,0,1,5.734-9,7.07,7.07,0,0,1,5.283-1.115,3.711,3.711,0,0,1,3.115,2.894,8.313,8.313,0,0,1-2.01,8.33,15.762,15.762,0,0,1-5.865,3.775c-0.285.115-.574,0.225-0.859,0.336a2.826,2.826,0,0,0,2.971,1.813,7.851,7.851,0,0,0,3.088-.615,61.21,61.21,0,0,0,5.314-3.115,1.548,1.548,0,0,0,.508-0.916c0.822-3.518,1.592-7.051,2.434-10.564a2.152,2.152,0,0,1,2.986-1.346,1.223,1.223,0,0,1,.461.914c0.047,1.592.021,3.189,0.021,4.783a1.842,1.842,0,0,0,.215,1c0.129-.236.25-0.477,0.387-0.709a43.772,43.772,0,0,1,2.557-4.232,6,6,0,0,1,2.309-1.654c1.059-.484,1.709-0.1,1.84,1.084,0.154,1.418.068,2.859,0.127,4.289a26.451,26.451,0,0,0,.279,3.981,1.7,1.7,0,0,0,2.336,1.4,18.508,18.508,0,0,0,3.617-1.447c1.406-.748,1.754-0.742,2.523.586v0.939Zm-54.406,6.625a4.664,4.664,0,0,0,4-2.006,9.651,9.651,0,0,0,1.781-7.359c-0.217-1.3-.713-2.568-2.268-2.906a3.5,3.5,0,0,0-3.889,1.613,7.4,7.4,0,0,0-.99,2.1,43.248,43.248,0,0,0-1.232,5.652C2177.234,1555.783,2177.074,1556.07,2180.119,1556.275Zm-1.873-16.172,0.322,0.074c0.578-1,1.178-1.984,1.728-3,1.877-3.455,3.8-6.9,4.77-10.75a8.678,8.678,0,0,0,.139-3.121c-0.113-.92-0.781-1.065-1.352-0.322a16.127,16.127,0,0,0-1.66,2.7c-1.7,3.447-2.34,7.221-3.268,10.9C2178.633,1537.744,2178.469,1538.93,2178.246,1540.1Zm27.338,4.629a10.092,10.092,0,0,0-.5-1.482,1.468,1.468,0,0,0-2.541-.437,10.018,10.018,0,0,0-2.725,6.313,0.936,0.936,0,0,0,.6.689C2202.762,1549.891,2205.488,1547.135,2205.584,1544.732Zm-72.062,4.109c-0.053.682-.061,1.1,0.635,1.018a6.866,6.866,0,0,0,5.074-4.353,2.491,2.491,0,0,0-.791-2.686c-0.648-.393-1.641-0.123-2.525.7A8.386,8.386,0,0,0,2133.522,1548.842Z" transform="translate(-2122.794 -1518.048)"/><text class="cls-2" transform="translate(115.206 41.913)">{<tspan class="cls-3" x="13.087" y="0">{</tspan><tspan class="cls-3" x="30.264" y="0">fes</tspan><tspan class="cls-4" x="84.248" y="0">t</tspan><tspan x="100.606" y="0">}</tspan><tspan class="cls-3" x="113.693" y="0">}</tspan></text></svg>