<?xml version="1.0" encoding="UTF-8"?>
<svg width="185px" height="34px" viewBox="0 0 185 34" version="1.1" xmlns="http://www.w3.org/2000/svg" xmlns:xlink="http://www.w3.org/1999/xlink">
    <title>CEF92C24-CF82-4FA4-BD24-03F2B6ACB72A@1x</title>
    <g id="Symbols" stroke="none" stroke-width="1" fill="none" fill-rule="evenodd">
        <g id="2021-/-sponsor-grid" transform="translate(-370.000000, -296.000000)" fill="#555555" fill-rule="nonzero">
            <g id="sponsors" transform="translate(0.000000, 1.000000)">
                <g id="row-4" transform="translate(0.000000, 294.000000)">
                    <g id="cardstack" transform="translate(370.000000, 1.000000)">
                        <polygon id="Path" points="15.571 33.03 22.371 29.639 6.812 21.875 0.052 25.244"></polygon>
                        <polygon id="Path" points="24.357 28.645 31.134 25.266 6.804 13.134 0.027 16.513"></polygon>
                        <polygon id="Path" points="24.332 19.896 31.115 16.513 24.338 13.134 17.555 16.517"></polygon>
                        <polygon id="Path" points="6.781 4.383 0 7.76 15.57 15.524 22.352 12.141"></polygon>
                        <polygon id="Path" points="24.337 11.16 31.137 7.769 24.356 4.388 17.551 7.779"></polygon>
                        <polygon id="Path" points="15.57 0 8.77 3.393 15.575 6.784 22.375 3.393"></polygon>
                        <g id="Group" transform="translate(38.834000, 6.485000)">
                            <g>
                                <path d="M14.86,4.443 C13.5346981,3.2387798 11.7950138,2.59378871 10.005,2.643 C6.01405155,2.76587322 2.84241537,6.03666049 2.84241537,10.0295 C2.84241537,14.0223395 6.01405155,17.2931268 10.005,17.416 C11.8117807,17.4738446 13.5750118,16.8547165 14.949,15.68 L14.949,17.769 C13.4535597,18.6257217 11.7584392,19.0724414 10.035,19.064 C7.60565822,19.1787946 5.24052117,18.2639204 3.52080036,16.5441996 C1.80107956,14.8244788 0.886205356,12.4593418 1.001,10.03 C0.926162469,7.61186787 1.85390301,5.2702956 3.56459931,3.55959931 C5.2752956,1.84890301 7.61686787,0.921162469 10.035,0.996 C11.7345842,0.986873642 13.4040077,1.44487544 14.861,2.32 L14.86,4.443 Z" id="Path"></path>
                                <path d="M20.879,13.948 L19.054,18.774 L17.17,18.774 L23.938,1.294 L26.263,1.294 L33.12,18.774 L31.178,18.774 L29.354,13.948 L20.879,13.948 Z M25.087,2.766 L21.438,12.418 L28.77,12.418 L25.087,2.766 Z" id="Shape"></path>
                                <path d="M37.876,18.774 L36.051,18.774 L36.051,1.264 C37.1528778,1.10781312 38.2632932,1.01931384 39.376,0.999 C44.084,0.999 46.176,3.177 46.176,6.414 C46.2787374,8.81729249 44.6993618,10.969815 42.376,11.593 L48.176,18.774 L45.909,18.774 L40.495,12.006 L37.876,12.006 L37.876,18.774 Z M37.876,10.505 L39.699,10.505 C42.583,10.505 44.289,9.151 44.289,6.474 C44.289,4.237 42.906,2.59 39.345,2.59 C38.992,2.59 38.285,2.619 37.874,2.649 L37.876,10.505 Z" id="Shape"></path>
                                <path d="M50.974,1.236 C52.1653495,1.09066195 53.3638768,1.01187297 54.564,1 C62.564,1 65.276,5.149 65.276,9.622 C65.276,14.537 62.421,19.068 54.8,19.068 C53.5203272,19.0611656 52.2423956,18.9726523 50.974,18.803 L50.974,1.236 Z M52.798,17.362 C53.4715461,17.443603 54.1495354,17.4830132 54.828,17.48 C59.828,17.48 63.362,14.98 63.362,9.652 C63.362,5.532 60.743,2.652 54.504,2.652 C53.945,2.652 53.415,2.682 52.797,2.74 L52.798,17.362 Z" id="Shape"></path>
                                <path d="M68.004,15.714 C69.2159994,16.8362723 70.7966276,17.4764908 72.448,17.514 C74.537,17.514 76.332,16.601 76.332,14.306 C76.332,12.217 74.772,11.422 72.683,10.657 C69.564,9.509 67.883,8.479 67.883,5.507 C67.883,2.535 70.355,1.007 72.974,1.007 C74.484957,0.971272335 75.9616512,1.45997011 77.153,2.39 L77.153,4.273 C76.0156372,3.21207108 74.5288829,2.60477516 72.974,2.566 C71.002,2.566 69.649,3.743 69.649,5.538 C69.649,7.216 70.649,8.038 73.18,8.922 C76.417,10.04 78.124,11.247 78.124,14.307 C78.124,17.515 75.593,19.074 72.444,19.074 C70.8530972,19.1310663 69.288805,18.654457 68,17.72 L68.004,15.714 Z" id="Path"></path>
                                <polygon id="Path" points="87.611 18.774 85.783 18.774 85.783 2.883 80.015 2.883 80.015 1.294 93.383 1.294 93.383 2.883 87.615 2.883"></polygon>
                                <path d="M95.886,13.948 L94.062,18.774 L92.179,18.774 L98.947,1.294 L101.272,1.294 L108.128,18.774 L106.186,18.774 L104.362,13.948 L95.886,13.948 Z M100.094,2.766 L96.445,12.418 L103.772,12.418 L100.094,2.766 Z" id="Shape"></path>
                                <path d="M123.062,4.443 C121.736446,3.23853714 119.996356,2.59352848 118.206,2.643 C114.215052,2.76587322 111.043415,6.03666049 111.043415,10.0295 C111.043415,14.0223395 114.215052,17.2931268 118.206,17.416 C120.012766,17.4737475 121.775963,16.8546314 123.15,15.68 L123.15,17.769 C121.65456,18.6257217 119.959439,19.0724414 118.236,19.064 C115.806658,19.1787946 113.441521,18.2639204 111.7218,16.5441996 C110.00208,14.8244788 109.087205,12.4593418 109.202,10.03 C109.127162,7.61186787 110.054903,5.2702956 111.765599,3.55959931 C113.476296,1.84890301 115.817868,0.921162469 118.236,0.996 C119.935584,0.986873642 121.605008,1.44487544 123.062,2.32 L123.062,4.443 Z" id="Path"></path>
                                <path d="M126.926,1.294 L128.75,1.294 L128.75,18.774 L126.926,18.774 L126.926,1.294 Z M136.755,1.294 L139.021,1.294 L131.135,10.005 L139.581,18.774 L137.227,18.774 L128.869,10.181 L136.755,1.294 Z" id="Shape"></path>
                            </g>
                            <g transform="translate(141.177000, 16.028000)" id="Shape">
                                <path d="M1.736,-5.6846292e-14 C2.44652873,-0.00689079014 3.09093512,0.41581728 3.36763071,1.07029273 C3.6443263,1.72476818 3.49857234,2.48153597 2.99858309,2.98642142 C2.49859385,3.49130687 1.74328232,3.64442837 1.08614163,3.37412358 C0.429000948,3.10381878 3.34130558e-05,2.46356215 1.13595223e-13,1.753 C-0.0146541743,1.28670452 0.162964604,0.834877455 0.491236845,0.503390566 C0.819509086,0.171903678 1.26958386,-0.0101095777 1.736,-5.6846292e-14 Z M1.736,3.294 C2.36276086,3.30822971 2.93574779,2.941581 3.1854299,2.36652405 C3.43511202,1.79146709 3.31178158,1.12248661 2.87345274,0.674268471 C2.43512391,0.226050336 1.76906101,0.0878276755 1.18857751,0.324619905 C0.608094001,0.561412134 0.228754947,1.12607768 0.229,1.753 C0.208798234,2.16161019 0.35990718,2.56013534 0.645946408,2.85262801 C0.931985636,3.14512068 1.32704084,3.3050819 1.736,3.294 L1.736,3.294 Z M1.502,2.74 L1.045,2.74 L1.045,0.765 C1.24624149,0.724893256 1.45080876,0.703800396 1.656,0.702 C2.187,0.702 2.512,0.942 2.512,1.402 C2.52081241,1.65411588 2.37327306,1.88556575 2.141,1.984 L2.7,2.737 L2.158,2.737 L1.69,2.086 L1.504,2.086 L1.502,2.74 Z M1.502,1.74 L1.662,1.74 C1.896,1.74 2.05,1.649 2.05,1.426 C2.05,1.22 1.913,1.112 1.662,1.112 C1.60846137,1.11249055 1.55501286,1.11649919 1.502,1.124 L1.502,1.74 Z"></path>
                            </g>
                        </g>
                    </g>
                </g>
            </g>
        </g>
    </g>
</svg>