<?xml version="1.0" encoding="UTF-8" standalone="no"?>
<!DOCTYPE svg PUBLIC "-//W3C//DTD SVG 1.1//EN" "http://www.w3.org/Graphics/SVG/1.1/DTD/svg11.dtd">
<svg width="100%" height="100%" viewBox="0 0 410 73" version="1.1" xmlns="http://www.w3.org/2000/svg" xmlns:xlink="http://www.w3.org/1999/xlink" xml:space="preserve" xmlns:serif="http://www.serif.com/" style="fill-rule:evenodd;clip-rule:evenodd;stroke-linejoin:round;stroke-miterlimit:2;">
    <g transform="matrix(1,0,0,1,0,-23)">
        <g transform="matrix(1,0,0,1,0,23)">
            <path d="M65.373,35.276L65.373,34.542L59.197,29.2L58.477,29.2C56.778,31.085 54.153,32.499 51.22,32.499C46.64,32.499 43.036,28.99 43.036,24.169C43.036,19.349 46.64,15.839 51.22,15.839C54.153,15.839 56.778,17.253 58.477,19.14L59.197,19.14L65.373,13.796L65.373,13.062C62.131,9.081 57.035,6.514 51.272,6.514C40.668,6.514 32.64,14.058 32.64,24.169C32.64,24.561 32.73,24.921 32.754,25.306C37.093,28.271 40.925,30.646 44.222,32.818C48.975,35.843 52.813,38.625 55.974,41.212C59.912,40.209 63.106,38.039 65.373,35.276M36.513,35.088C38.987,38.145 42.483,40.338 46.603,41.272C43.819,39.699 41.122,38.155 38.611,36.445C37.875,35.986 37.22,35.542 36.513,35.088M101.144,39.572L99.6,32.866L99.034,32.499C98.725,32.657 98.468,32.866 97.696,32.866C96.512,32.866 95.791,31.609 95.174,30.613C94.145,29.042 93.321,28.203 92.6,27.836C96.359,26.16 98.879,23.017 98.879,18.511C98.879,11.543 94.145,7.142 85.344,7.142L70.006,7.142L70.006,41.196L80.197,41.196L80.197,29.251L81.123,29.251C83.388,29.251 86.27,34.176 87.609,36.376C90.387,40.829 92.6,41.825 96.563,41.825C98.416,41.825 99.96,41.144 100.887,40.306L101.144,39.572ZM88.484,19.087C88.484,21.34 86.836,22.44 84.932,22.44L80.197,22.44L80.197,15.525L84.932,15.525C86.836,15.525 88.484,16.782 88.484,19.087ZM140.517,24.169C140.517,14.058 132.488,6.514 121.833,6.514C111.18,6.514 103.151,14.058 103.151,24.169C103.151,34.281 111.18,41.826 121.833,41.826C132.488,41.826 140.517,34.228 140.517,24.169M130.119,24.169C130.119,29.041 126.414,32.499 121.833,32.499C117.253,32.499 113.547,29.041 113.547,24.169C113.547,19.298 117.253,15.84 121.833,15.84C126.414,15.84 130.119,19.298 130.119,24.169M191.522,7.142L181.794,7.142L175.773,26.003L169.391,7.142L163.214,7.142L156.883,25.898L150.862,7.142L141.134,7.142L140.671,7.928L153.126,41.196L159.302,41.196L166.302,22.65L173.354,41.196L179.53,41.196L191.985,7.928L191.522,7.142M229.298,24.117C229.298,13.953 222.557,7.142 211.594,7.142L195.998,7.142L195.998,41.196L211.594,41.196C222.557,41.196 229.298,34.386 229.298,24.117M218.902,24.169C218.902,29.723 215.659,32.814 211.182,32.814L206.19,32.814L206.19,15.525L211.182,15.525C215.659,15.525 218.902,18.616 218.902,24.169M283.281,15.525L293.472,15.525L293.472,7.142L262.901,7.142L262.901,15.525L273.09,15.525L273.09,41.197L283.281,41.197L283.281,15.525M326.051,18.511C326.051,11.543 321.316,7.142 312.515,7.142L297.177,7.142L297.177,41.196L307.367,41.196L307.367,29.251L309.786,29.251L316.117,41.196L326.257,41.196L326.72,40.41L319.926,27.785C323.579,26.056 326.051,22.964 326.051,18.511M315.654,19.087C315.654,21.34 314.007,22.44 312.103,22.44L307.367,22.44L307.367,15.525L312.103,15.525C314.007,15.525 315.654,16.783 315.654,19.087M332.226,41.197L342.417,41.197L342.417,7.142L332.226,7.142L332.226,41.197ZM368.253,22.388L379.781,7.928L379.319,7.142L368.459,7.142L359.039,19.245L359.039,7.142L348.85,7.142L348.85,41.196L359.039,41.196L359.039,30.718L360.893,28.518L369.539,41.196L380.194,41.196L380.656,40.41L368.253,22.388M408.911,15.525L408.911,7.142L383.435,7.142L383.435,41.197L409.066,41.197L409.066,32.814L393.625,32.814L393.625,28.099L405.257,28.099L405.257,20.24L393.625,20.24L393.625,15.525L408.911,15.525M246.536,41.601C254,41.601 260.481,37.936 260.481,30.868C260.481,23.163 253.948,21.172 248.185,19.494C245.918,18.813 243.599,18.027 243.599,16.349C243.599,15.144 244.887,14.41 246.845,14.41C250.195,14.41 253.023,16.508 254.463,17.869L255.183,17.869L259.967,12.107L259.967,11.374C257.446,8.495 252.302,6.297 246.639,6.297C238.713,6.297 233.209,10.59 233.209,16.822C233.209,23.53 239.28,26.465 244.424,27.932C247.772,28.875 250.039,29.033 250.039,30.868C250.039,32.178 248.443,32.964 245.969,32.964C242.828,32.964 239.022,30.919 237.17,29.085L236.45,29.085L231.717,35.057L231.717,35.79C234.752,39.194 240.205,41.601 246.536,41.601" style="fill:rgb(59,58,57);"/>
            <path d="M70.849,72.901C68.381,67.222 63.422,59.936 43.996,49.532C35.039,44.525 19.735,36.82 5.972,22.172C7.221,27.46 13.61,39.078 41.1,53.587C48.712,57.772 61.584,61.697 70.849,72.901M69.609,63.175C67.265,56.465 63.038,47.872 42.983,35.109C33.216,28.676 18.878,20.598 0,0C1.349,5.552 7.314,19.99 37.372,38.736C47.247,45.459 59.991,49.608 69.609,63.175" style="fill:rgb(218,67,47);"/>
        </g>
    </g>
</svg>
