<?xml version="1.0" encoding="UTF-8"?>
<svg width="135px" height="37px" viewBox="0 0 135 37" version="1.1" xmlns="http://www.w3.org/2000/svg" xmlns:xlink="http://www.w3.org/1999/xlink">
    <title>2F081374-7ACA-41AB-983E-3D49239018DE@1x</title>
    <g id="Symbols" stroke="none" stroke-width="1" fill="none" fill-rule="evenodd">
        <g id="2021-/-sponsor-grid" transform="translate(-954.000000, -511.000000)" fill="#555555">
            <g id="sponsors" transform="translate(0.000000, 1.000000)">
                <g id="row-6" transform="translate(0.000000, 499.000000)">
                    <g id="EmberCheckup" transform="translate(954.000000, 11.000000)">
                        <path d="M5.3227114,36.0557945 C6.61352417,36.0618445 7.71654613,35.7284473 8.65970307,35.0309875 C9.25109469,34.5938882 9.72091418,33.9889228 9.11006479,33.2839601 C8.82445588,32.9544545 8.16731257,32.7930951 7.52318261,33.347408 C7.01967784,33.7807091 6.08424174,33.9406053 5.3227114,33.8764102 C4.58219544,33.8138963 3.75640776,33.4129729 3.29150719,32.924256 C2.93062008,32.5447828 2.67791815,32.0144108 2.57209902,31.5277798 L9.30043959,31.5277798 C9.92199854,31.5277798 10.4218297,31.1259224 10.4218297,30.4910388 C10.4218297,30.4910388 10.4218297,30.4910388 10.4218297,30.4910388 C10.4218297,30.4910388 10.4218297,30.4910388 10.4218297,30.4910388 C10.4218297,27.6986155 8.07226527,25.4765384 5.3227114,25.4765384 C2.42403319,25.4765384 0.160051818,27.8884922 0.160051818,30.7660938 C0.160051818,33.6436953 2.42406432,36.0418575 5.3227114,36.0557945 L5.3227114,36.0557945 Z M5.3227114,27.5488063 C7.16895784,27.5808104 8.24255965,28.8830177 8.45410451,29.7293527 L2.46631103,29.7293527 C2.63554691,28.8618165 3.52269661,27.5176116 5.3227114,27.5488063 L5.3227114,27.5488063 Z M23.1042162,27.7404575 C24.2679464,27.7404575 25.2412395,28.7139686 25.2412395,29.9197587 L25.2412395,34.934259 C25.2412395,35.5476301 25.7701795,36.0557114 26.3837685,36.0557114 C26.9973576,36.0557114 27.5051586,35.5478481 27.5051586,34.934259 L27.5051586,29.9197587 C27.5051586,27.4654025 25.5374334,25.4765384 23.1042162,25.4765384 C21.7712501,25.4765384 20.5652109,26.0266173 19.782386,26.9364625 C18.9783288,26.0266173 17.7934596,25.4765384 16.4604936,25.4765384 C15.6564986,25.4765384 14.8736114,25.7092844 14.1965744,26.1112664 C14.0272763,25.7092844 13.6252632,25.4765384 13.1809412,25.4765384 C12.5673522,25.4765384 12.0595511,25.963543 12.0595511,26.6190674 L12.0595511,34.934259 C12.0595511,35.5686445 12.5705588,36.0557114 13.1809412,36.0557114 C13.8176305,36.0557114 14.3235325,35.5210742 14.3235325,34.8959039 L14.3235325,29.9197587 C14.3235325,28.7137195 15.2967945,27.7404575 16.4604936,27.7404575 C17.6453627,27.7404575 18.6192473,28.6925806 18.6397947,29.8563108 C18.6401372,29.8772318 18.6397947,29.8988377 18.6397947,29.9197587 L18.6397947,34.934259 C18.6397947,35.5476301 19.1899359,36.0557114 19.782386,36.0557114 C19.782386,36.0557114 19.782386,36.0557114 19.782386,36.0557114 C19.782386,36.0557114 19.782386,36.0557114 19.782386,36.0557114 C20.395975,36.0557114 20.903745,35.5478481 20.903745,34.934259 L20.903745,29.9197587 C20.903745,29.8986198 20.90306,29.8772318 20.903745,29.8563108 C20.94512,28.6925806 21.898177,27.7404575 23.1042162,27.7404575 L23.1042162,27.7404575 Z M29.4265899,34.9131201 C29.4265899,35.5266469 29.9343909,36.0557114 30.5691812,36.0557114 C31.140399,36.0557114 31.5847521,35.6536672 31.6905401,35.1458662 C32.4945351,35.6960073 33.5101683,36.0557114 34.5680483,36.0557114 C37.4244486,36.0557114 39.7095689,33.6436642 39.7095689,30.7872327 C39.7095689,27.8885545 37.4244486,25.4765384 34.5680483,25.4765384 C33.5313072,25.4765384 32.5157363,25.8150102 31.7328491,26.3651825 L31.7328491,22.387392 C31.7328491,21.773803 31.225048,21.244863 30.5691812,21.244863 C29.9343909,21.244863 29.4265899,21.7738652 29.4265899,22.387392 L29.4265899,34.9131201 Z M32.5791842,28.6502716 C33.1081241,28.1001305 33.7852233,27.7827976 34.5680483,27.7827976 C35.3297965,27.7827976 36.0279724,28.1001305 36.5569746,28.6502716 C37.0859146,29.1792116 37.4033097,29.9408976 37.4033097,30.7872327 C37.4033097,31.5912899 37.0859146,32.3529759 36.5569746,32.8819782 C36.0279724,33.4320571 35.3297965,33.7494522 34.5680483,33.7494522 C33.7852233,33.7494522 33.1081241,33.4320571 32.5791842,32.8819782 C32.0502442,32.3529759 31.7328491,31.5912899 31.7328491,30.7872327 C31.7328491,29.9408976 32.0502442,29.1792116 32.5791842,28.6502716 Z M46.1809113,36.0557945 C47.530471,36.0621247 48.6746189,35.6975639 49.6455148,34.9336675 C50.1935078,34.5027636 50.5153237,33.915139 49.9682647,33.2839601 C49.6825935,32.9543299 48.9521333,32.8288663 48.3813825,33.347408 C47.8896458,33.7941895 46.9425039,33.9407298 46.1809113,33.8764102 C45.4402708,33.813834 44.6146699,33.4130974 44.1497071,32.924256 C43.7886954,32.5447206 43.536118,32.0144108 43.4303301,31.5277798 L50.1586395,31.5277798 C50.8484096,31.5277798 51.3166725,31.0359185 51.2800296,30.3852508 C51.112039,27.5288504 48.9314614,25.4765384 46.1809113,25.4765384 C43.2822331,25.4765384 41.0182517,27.8884922 41.0182517,30.7660938 C41.0182517,33.6436953 43.2822331,36.0417641 46.1809113,36.0557945 L46.1809113,36.0557945 Z M46.1809113,27.5488063 C48.0272823,27.5808727 49.1007907,28.8830177 49.3123044,29.7293527 L43.3245109,29.7293527 C43.4937468,28.8618165 44.3808342,27.5174871 46.1809113,27.5488063 Z M58.2322746,25.4976773 C57.1743324,25.4847262 56.261623,25.8536455 55.5663113,26.3228735 C55.4156615,26.4245209 55.2489162,26.5979285 55.1219581,26.7460255 L55.1219581,26.5979285 C55.1219581,25.9843395 54.5930182,25.4976773 53.9582279,25.4976773 C53.3446389,25.4976773 52.8368378,25.9847442 52.8368378,26.5979285 L52.8368378,34.934259 C52.8368378,35.5474434 53.3446389,36.0557114 53.9582279,36.0557114 C54.5930182,36.0557114 55.1219581,35.5478481 55.1219581,34.934259 L55.1219581,31.0698217 C55.1219581,30.1689738 55.6247157,29.3359945 56.2001987,28.7618502 C56.7819704,28.1815729 57.3817055,27.7604757 58.2322746,27.7192875 C58.8662242,27.6885909 59.3536335,27.1903475 59.3536335,26.5979285 C59.3536335,25.9843395 58.8666912,25.5054604 58.2322746,25.4976773 L58.2322746,25.4976773 Z" id="Shape"></path>
                        <path d="M66.2336202,36.2322323 C65.4710313,36.2322323 64.7678743,36.0935996 64.124149,35.816303 C63.4803927,35.5389442 62.923309,35.1601871 62.452898,34.6798448 C61.9824559,34.1995337 61.6135988,33.6325188 61.3461401,32.9788623 C61.0787748,32.3252681 60.9450299,31.6270611 60.9450299,30.8842725 L60.9450299,30.8545721 C60.9450299,30.1117835 61.0762842,29.416036 61.3387618,28.7673607 C61.601177,28.1186854 61.9700963,27.5492421 62.4454573,27.0589998 C62.9208495,26.5687574 63.4853116,26.1824974 64.1389992,25.9002819 C64.7926557,25.6180042 65.5155818,25.4768497 66.307871,25.4768497 C66.7832943,25.4768497 67.2165644,25.5164502 67.6077433,25.5956822 C67.9989534,25.6749765 68.3579415,25.7863683 68.6848008,25.9299822 C69.011598,26.073565 69.3136759,26.2444198 69.5909413,26.4424843 C69.8682379,26.6405488 70.1306842,26.8584135 70.3782805,27.0960785 L69.2047435,28.447942 C68.788752,28.0617131 68.3480414,27.749735 67.8825804,27.51207 C67.4170883,27.2744051 66.8872455,27.1555726 66.293052,27.1555726 C65.7978284,27.1555726 65.3398393,27.2520831 64.9189288,27.4452287 C64.4980184,27.6383431 64.1340492,27.9008207 63.8270211,28.2325367 C63.5200243,28.564315 63.2823282,28.9530656 63.1139951,29.3986952 C62.9455687,29.8443871 62.8614177,30.3197481 62.8614177,30.8248718 L62.8614177,30.8545721 C62.8614177,31.3596335 62.9455687,31.8374852 63.1139951,32.2881271 C63.2823282,32.7387379 63.5200243,33.1324074 63.8270211,33.4691047 C64.1340492,33.8058641 64.4980184,34.07077 64.9189288,34.2638533 C65.3398393,34.4569989 65.7978284,34.5535717 66.293052,34.5535717 C66.926846,34.5535717 67.4715701,34.4322797 67.9271309,34.1896336 C68.3827229,33.9469563 68.8333337,33.6176997 69.2789633,33.2017082 L70.4525624,34.3901576 C70.1851971,34.6773854 69.9053789,34.9324222 69.6132321,35.1552059 C69.3211166,35.3780518 69.006679,35.5711974 68.6699195,35.7345493 C68.3331912,35.8979945 67.9642719,36.0218082 67.5631617,36.1059591 C67.1620515,36.1901724 66.7188813,36.2322323 66.2336202,36.2322323 L66.2336202,36.2322323 Z M72.3689191,25.6551763 L74.1961748,25.6551763 L74.1961748,29.9780697 L79.1579056,29.9780697 L79.1579056,25.6551763 L80.985099,25.6551763 L80.985099,36.053968 L79.1579056,36.053968 L79.1579056,31.6716116 L74.1961748,31.6716116 L74.1961748,36.053968 L72.3689191,36.053968 L72.3689191,25.6551763 Z M83.6590634,25.6551763 L91.3691028,25.6551763 L91.3691028,27.2892241 L85.486319,27.2892241 L85.486319,29.992951 L90.700565,29.992951 L90.700565,31.6270611 L85.486319,31.6270611 L85.486319,34.4198579 L91.4433537,34.4198579 L91.4433537,36.053968 L83.6590634,36.053968 L83.6590634,25.6551763 Z M98.4403048,36.2322323 C97.677716,36.2322323 96.9745278,36.0935996 96.3308337,35.816303 C95.6870773,35.5389442 95.1299937,35.1601871 94.6595515,34.6798448 C94.1891405,34.1995337 93.8202524,33.6325188 93.5528248,32.9788623 C93.2854284,32.3252681 93.1517146,31.6270611 93.1517146,30.8842725 L93.1517146,30.8545721 C93.1517146,30.1117835 93.2829689,29.416036 93.5454464,28.7673607 C93.8078305,28.1186854 94.1767809,27.5492421 94.6521109,27.0589998 C95.1275342,26.5687574 95.6919963,26.1824974 96.3456527,25.9002819 C96.9993092,25.6180042 97.7222354,25.4768497 98.5145557,25.4768497 C98.9899479,25.4768497 99.4232179,25.5164502 99.814428,25.5956822 C100.205638,25.6749765 100.564595,25.7863683 100.891454,25.9299822 C101.218283,26.073565 101.520329,26.2444198 101.797626,26.4424843 C102.074923,26.6405488 102.337369,26.8584135 102.584965,27.0960785 L101.411397,28.447942 C100.995406,28.0617131 100.554695,27.749735 100.089265,27.51207 C99.6237419,27.2744051 99.093899,27.1555726 98.4997366,27.1555726 C98.0045131,27.1555726 97.5465239,27.2520831 97.1256135,27.4452287 C96.704703,27.6383431 96.3407338,27.9008207 96.0336747,28.2325367 C95.7266778,28.564315 95.4890128,28.9530656 95.3206486,29.3986952 C95.1522533,29.8443871 95.0681024,30.3197481 95.0681024,30.8248718 L95.0681024,30.8545721 C95.0681024,31.3596335 95.1522533,31.8374852 95.3206486,32.2881271 C95.4890128,32.7387379 95.7266778,33.1324074 96.0336747,33.4691047 C96.3407338,33.8058641 96.704703,34.07077 97.1256135,34.2638533 C97.5465239,34.4569989 98.0045131,34.5535717 98.4997366,34.5535717 C99.1335306,34.5535717 99.6782547,34.4322797 100.133784,34.1896336 C100.589408,33.9469563 101.040018,33.6176997 101.485648,33.2017082 L102.659247,34.3901576 C102.391882,34.6773854 102.112064,34.9324222 101.819886,35.1552059 C101.52777,35.3780518 101.213333,35.5711974 100.876573,35.7345493 C100.539876,35.8979945 100.170957,36.0218082 99.7698463,36.1059591 C99.3687361,36.1901724 98.925566,36.2322323 98.4403048,36.2322323 L98.4403048,36.2322323 Z M104.575573,25.6551763 L106.402859,25.6551763 L106.402859,30.8842725 L111.349709,25.6551763 L113.592894,25.6551763 L109.269938,30.1266648 L113.78604,36.053968 L111.572555,36.053968 L108.022088,31.3745148 L106.402859,33.0382941 L106.402859,36.053968 L104.575573,36.053968 L104.575573,25.6551763 L104.575573,25.6551763 Z M119.609329,36.2174132 C118.935873,36.2174132 118.326798,36.1208404 117.782136,35.9276948 C117.237412,35.7345493 116.771951,35.4448931 116.385691,35.0586331 C115.999462,34.6724042 115.702365,34.1945525 115.494338,33.6250781 C115.286374,33.0556349 115.182422,32.3946 115.182422,31.6418801 L115.182422,25.6551763 L117.009616,25.6551763 L117.009616,31.5675982 C117.009616,32.5381516 117.242393,33.2760213 117.707823,33.7810827 C118.173315,34.2861753 118.81704,34.5386904 119.63903,34.5386904 C120.45115,34.5386904 121.089925,34.2961065 121.555448,33.8107831 C122.020878,33.3255219 122.253624,32.6025646 122.253624,31.6418801 L122.253624,25.6551763 L124.080849,25.6551763 L124.080849,31.5527791 C124.080849,32.3252681 123.974376,33.0036437 123.761461,33.5879994 C123.548515,34.1722617 123.248928,34.6600446 122.862699,35.0512547 C122.47647,35.4424337 122.008519,35.7345493 121.458876,35.9276948 C120.909202,36.1208404 120.292717,36.2174132 119.609329,36.2174132 L119.609329,36.2174132 Z M130.542976,31.0625368 C131.236233,31.0625368 131.783448,30.8891914 132.184527,30.5425941 C132.585637,30.1959967 132.786161,29.7502737 132.786161,29.2056119 L132.786161,29.1759116 C132.786161,28.5618555 132.583115,28.0988852 132.177086,27.7869071 C131.771057,27.474929 131.226333,27.3189244 130.542976,27.3189244 L128.418686,27.3189244 L128.418686,31.0625368 L130.542976,31.0625368 L130.542976,31.0625368 Z M126.591399,25.6551763 L130.691509,25.6551763 C131.295665,25.6551763 131.842848,25.7368366 132.333091,25.9002819 C132.823302,26.0636338 133.239231,26.2988704 133.580941,26.6058673 C133.922619,26.9129264 134.185066,27.279324 134.368249,27.7052156 C134.551494,28.131045 134.643086,28.606406 134.643086,29.1313299 L134.643086,29.1610303 C134.643086,29.7453548 134.534153,30.2578569 134.316289,30.6985675 C134.098424,31.1393093 133.801327,31.5081663 133.424936,31.8053254 C133.048638,32.1024222 132.607897,32.3277275 132.102804,32.4812415 C131.597743,32.6347244 131.058,32.711497 130.483544,32.711497 L128.418686,32.711497 L128.418686,36.053968 L126.591399,36.053968 L126.591399,25.6551763 L126.591399,25.6551763 Z" id="Shape"></path>
                        <path d="M50.082116,0.192709736 L50.082116,0.192709736 C50.9244661,0.192709736 51.6135824,0.881826053 51.6135824,1.72420732 L51.6135824,4.85012112 L54.7394962,4.85012112 C55.5818775,4.85012112 56.2709938,5.53923744 56.2709938,6.38161871 L56.2709938,6.38161871 C56.2709938,7.22396884 55.5818775,7.91308516 54.7394962,7.91308516 L51.6135824,7.91308516 L51.6135824,11.038999 C51.6135824,11.8813802 50.9244661,12.5704965 50.082116,12.5704965 L50.082116,12.5704965 C49.2397347,12.5704965 48.5506184,11.8813802 48.5506184,11.038999 L48.5506184,7.91308516 L45.4247046,7.91308516 C44.5823233,7.91308516 43.893207,7.22396884 43.893207,6.38161871 L43.893207,6.38161871 C43.893207,5.53923744 44.5823233,4.85012112 45.4247046,4.85012112 L48.5506184,4.85012112 L48.5506184,1.72420732 C48.5506184,0.881826053 49.2397347,0.192709736 50.082116,0.192709736 Z" id="Path"></path>
                        <path d="M8.68127784,7.19937422 C8.36833467,5.51598152 9.22712272,4.84685222 10.5593416,4.84685222 L27.4223775,4.84685222 C28.5945757,4.84685222 29.2151073,5.60782218 28.9858169,6.7927847 L32.1696371,6.7927847 C31.9403467,5.60782218 32.561034,4.84685222 33.7332322,4.84685222 L41.6654638,4.84685222 C41.4909665,5.32903128 41.3954834,5.84850699 41.3954834,6.38965087 C41.3954834,6.95243179 41.4985628,7.49180113 41.686665,7.99013792 L35.8089869,7.99013792 L38.5766598,16.5106168 L47.5518278,16.5106168 L47.9319859,14.5124752 C48.5936123,14.8878078 49.3572908,15.1026838 50.1696604,15.1026838 C50.4600948,15.1026838 50.7443027,15.0748825 51.0198559,15.0224867 L50.4381153,18.1514514 C50.2253252,19.2960975 49.5355239,19.6539025 48.2832842,19.6539025 L37.9440489,19.6539025 C36.6143517,19.6539025 36.1727071,19.2375996 35.7892178,18.052606 L33.1666842,9.94930168 L27.9889254,9.94930168 L25.3663919,18.052606 C24.9829026,19.2375996 24.541258,19.6539025 23.2115608,19.6539025 L12.8723254,19.6539025 C11.6200857,19.6539025 10.9302845,19.2960975 10.7174944,18.1514514 L8.68127784,7.19937422 L8.68127784,7.19937422 Z M43.2139908,9.74650504 C42.2889529,9.74650504 41.5344897,10.8404675 41.5344897,12.1817459 C41.5344897,13.5230555 42.2889529,14.6170179 43.2139908,14.6170179 C44.1389975,14.6170179 44.8934608,13.5230555 44.8934608,12.1817459 C44.8934608,10.8404675 44.1389975,9.74650504 43.2139908,9.74650504 Z M17.9414321,9.74650504 C18.8664699,9.74650504 19.6209332,10.8404675 19.6209332,12.1817459 C19.6209332,13.5230555 18.8664699,14.6170179 17.9414321,14.6170179 C17.0164253,14.6170179 16.2619621,13.5230555 16.2619621,12.1817459 C16.2619621,10.8404675 17.0164253,9.74650504 17.9414321,9.74650504 Z M11.9826229,7.99013792 L25.3465294,7.99013792 L22.5788564,16.5106168 L13.6036885,16.5106168 L11.9826229,7.99013792 Z" id="Shape"></path>
                    </g>
                </g>
            </g>
        </g>
    </g>
</svg>