<svg width="347" height="125" fill="none" xmlns="http://www.w3.org/2000/svg"><path fill-rule="evenodd" clip-rule="evenodd" d="M128.935 73.604c0 1.272-.932 2.317-2.258 2.317-1.29 0-2.222-1.048-2.222-2.317V51.516c0-1.271.932-2.317 2.258-2.317 1.29 0 2.222 1.048 2.222 2.317v22.088zm28.957-22.088V71.7c0 2.729-1.397 4.262-3.619 4.262h-.178c-2.114 0-3.119-1.271-4.014-3.14l-4.516-9.157-4.014-9.455.108 9.157.036 10.203c0 1.27-.931 2.316-2.258 2.316-1.29 0-2.221-1.047-2.221-2.317V53.386c0-2.505 1.397-4.262 3.835-4.262h.179c2.258 0 3.189 1.272 4.086 3.14l4.443 9.084 3.799 8.821-.107-8.447-.036-10.202c0-1.272.931-2.317 2.258-2.317 1.287-.003 2.219 1.043 2.219 2.314zm17.956 22.053c0 1.27-.931 2.316-2.258 2.316-1.289 0-2.221-1.047-2.221-2.317V53.573h-5.555c-1.146 0-2.077-.897-2.077-2.205 0-1.271.931-2.166 2.077-2.166h15.589c1.146 0 2.078.897 2.078 2.205 0 1.271-.932 2.166-2.078 2.166h-5.555v19.995zm13.475-.748V52.078c0-1.943 1.039-3.026 2.939-2.952h12.902c1.146 0 2.077.933 2.077 2.204 0 1.272-.931 2.167-2.077 2.167h-11.398v6.429h10.071c1.112 0 2.007.86 2.007 2.093s-.895 2.092-2.007 2.092h-10.071v7.4h11.398c1.146 0 2.077.934 2.077 2.205 0 1.272-.931 2.167-2.077 2.167h-13.01c-1.863.002-2.901-1.081-2.831-3.062zm42.327 3.176c1.254-.674 1.649-2.057 1.039-3.14l-4.48-8.296c3.692-.747 5.843-3.588 5.843-7.438 0-4.035-2.436-7.997-8.279-7.997h-8.493c-1.899-.074-2.938 1.01-2.938 2.952v21.529c0 1.269.931 2.316 2.221 2.316 1.327 0 2.258-1.045 2.258-2.316l-.036-8.148h4.73l4.982 9.605c.607 1.083 1.934 1.569 3.153.933zm-5.772-14.764h-7.096v-7.738h7.06c2.365 0 3.692 1.569 3.692 3.85 0 2.28-1.254 3.888-3.656 3.888zm17.418 12.671c-2.687-2.505-3.906-6.428-3.906-11.362 0-4.971 1.183-8.857 3.836-11.324 1.648-1.495 3.869-2.504 7.096-2.504 2.831 0 5.018.674 6.666 2.13 1.434 1.196 2.473 2.88 3.082 5.234.322 1.233-.502 2.467-1.863 2.728-1.29.224-2.328-.635-2.723-1.868-.43-1.196-1.005-2.055-1.685-2.655-.932-.86-2.078-1.234-3.585-1.234-1.612 0-3.011.486-4.05 1.57-1.505 1.569-2.151 4.373-2.151 7.923 0 3.514.61 6.317 2.187 7.886 1.039 1.083 2.402 1.569 3.978 1.569 1.648 0 2.902-.448 3.943-1.457a5.91 5.91 0 0 0 1.326-1.981c.466-1.16 1.434-2.02 2.687-1.72 1.254.3 2.044 1.57 1.649 2.803-.646 2.055-1.756 3.7-3.261 4.822-1.648 1.233-3.691 1.869-6.271 1.869-3.297 0-5.377-1.01-6.955-2.429zm32.902-25.19c-7.778 0-11.075 5.457-11.075 13.828 0 8.634 3.263 13.829 11.075 13.829 7.669 0 11.039-5.195 11.039-13.829 0-8.521-3.333-13.828-11.039-13.828zm-.036 4.373c4.265 0 6.486 3.1 6.486 9.455 0 6.353-2.258 9.455-6.486 9.455-4.265 0-6.416-3.1-6.416-9.455 0-6.352 2.222-9.455 6.416-9.455zM322 73.569c0 1.272-.932 2.317-2.258 2.317-1.29 0-2.222-1.047-2.222-2.317V63.552l.108-9.755-3.119 9.905-3.153 9.755c-.536 1.719-1.648 2.392-3.046 2.392-1.47 0-2.545-.71-3.118-2.428l-3.226-9.717-2.975-9.755.107 9.605v10.017c0 1.271-.932 2.317-2.258 2.317-1.29 0-2.221-1.048-2.221-2.317V53.576c0-2.767 1.433-4.374 3.942-4.374 2.366 0 3.692 1.307 4.443 3.7l3.297 10.202 2.007 6.953 2.043-6.953 3.297-10.202c.754-2.393 2.044-3.7 4.409-3.7 2.509 0 3.906 1.569 3.906 4.374L322 73.568z" fill="#000"/><path d="M88.282 66.36a2.57 2.57 0 0 1-.712 1.783 2.388 2.388 0 0 1-1.718.739 2.388 2.388 0 0 1-1.72-.739 2.57 2.57 0 0 1-.711-1.782V43.84c0-.67.256-1.31.712-1.783a2.388 2.388 0 0 1 1.719-.739c.644 0 1.263.266 1.718.739a2.57 2.57 0 0 1 .712 1.782v22.52zm-.843 15.605c-.322.333-9.362 8.146-25.936 8.146-16.574 0-25.554-7.771-25.936-8.104a2.465 2.465 0 0 1-.583-.758 2.55 2.55 0 0 1 .302-2.742 2.402 2.402 0 0 1 1.654-.865c.64-.051 1.273.163 1.761.594.14.104 8.217 6.896 22.782 6.896s22.701-6.834 22.782-6.896a2.413 2.413 0 0 1 1.77-.588 2.44 2.44 0 0 1 1.665.859c.41.496.614 1.14.57 1.79a2.513 2.513 0 0 1-.811 1.689l-.02-.021zM34.703 43.84c.037-.67.328-1.3.81-1.748a2.399 2.399 0 0 1 1.762-.648c.6.035 1.165.3 1.588.742.423.443.673 1.032.702 1.654v22.48c0 .668-.256 1.309-.712 1.782a2.387 2.387 0 0 1-1.719.738 2.388 2.388 0 0 1-1.719-.738 2.569 2.569 0 0 1-.712-1.783V43.84zm12.195-5c.036-.67.327-1.3.809-1.748a2.399 2.399 0 0 1 1.762-.648c.6.035 1.166.3 1.589.742.423.443.673 1.032.701 1.654v33.333a2.57 2.57 0 0 1-.712 1.783 2.388 2.388 0 0 1-1.718.738 2.388 2.388 0 0 1-1.72-.738 2.57 2.57 0 0 1-.711-1.783V38.84zm12.254-1.25c0-.669.256-1.31.712-1.782a2.388 2.388 0 0 1 1.72-.739c.644 0 1.262.266 1.718.739.456.472.712 1.114.712 1.782v36.25c0 .669-.256 1.31-.712 1.782a2.387 2.387 0 0 1-1.719.739 2.388 2.388 0 0 1-1.719-.739 2.569 2.569 0 0 1-.712-1.782V37.59zm12.054 1.25c0-.669.256-1.31.712-1.782a2.388 2.388 0 0 1 1.72-.739c.644 0 1.262.266 1.718.739.456.472.712 1.114.712 1.782v33.333a2.57 2.57 0 0 1-.712 1.783 2.388 2.388 0 0 1-1.719.738 2.388 2.388 0 0 1-1.719-.738 2.57 2.57 0 0 1-.712-1.783V38.84zm17.74-13.75H34.14a8.795 8.795 0 0 0-3.484.695 9.06 9.06 0 0 0-2.962 2.026 9.441 9.441 0 0 0-1.986 3.049A9.718 9.718 0 0 0 25 34.465v56.25a9.718 9.718 0 0 0 .709 3.605 9.441 9.441 0 0 0 1.986 3.049 9.06 9.06 0 0 0 2.962 2.026 8.8 8.8 0 0 0 3.484.695h54.804a8.8 8.8 0 0 0 3.48-.693 9.06 9.06 0 0 0 2.959-2.02 9.442 9.442 0 0 0 1.988-3.042 9.719 9.719 0 0 0 .714-3.6v-56.27a9.72 9.72 0 0 0-.706-3.6 9.444 9.444 0 0 0-1.982-3.046 9.064 9.064 0 0 0-2.954-2.028 8.797 8.797 0 0 0-3.478-.7" fill="#000"/></svg>