<?xml version="1.0" encoding="UTF-8"?>
<svg width="121px" height="33px" viewBox="0 0 121 33" version="1.1" xmlns="http://www.w3.org/2000/svg" xmlns:xlink="http://www.w3.org/1999/xlink">
    <title>4122018A-A2B2-4228-9DDC-095103DE3AC9@1x</title>
    <g id="Symbols" stroke="none" stroke-width="1" fill="none" fill-rule="evenodd">
        <g id="2021-/-sponsor-grid" transform="translate(0.000000, -513.000000)" fill="#555555">
            <g id="sponsors" transform="translate(0.000000, 1.000000)">
                <g id="row-6" transform="translate(0.000000, 499.000000)">
                    <g id="LinkedIn" transform="translate(0.000000, 13.000000)">
                        <g id="g3019" transform="translate(60.262114, 16.221426) scale(-1, 1) rotate(-180.000000) translate(-60.262114, -16.221426) translate(0.262114, 0.221426)">
                            <path d="M117.267932,0.236057633 C118.551908,0.236057633 119.592804,1.25135928 119.592804,2.50398769 L119.592804,2.50398769 L119.592804,29.6281942 C119.592804,30.8803996 118.551908,31.8961243 117.267932,31.8961243 L117.267932,31.8961243 L90.4572003,31.8961243 C89.1731822,31.8961243 88.1323288,30.8803996 88.1323288,29.6281942 L88.1323288,29.6281942 L88.1323288,2.50398769 C88.1323288,1.25135928 89.1731822,0.236057633 90.4572003,0.236057633 L90.4572003,0.236057633 Z M95.2929552,21.6415776 L95.2620731,21.6415776 C93.6674149,21.6415776 92.6362492,22.7393726 92.6362492,24.1112989 C92.6362492,25.5141073 93.6990162,26.5814432 95.3244718,26.5814432 C96.9500967,26.5814432 97.9505918,25.5141073 97.9814739,24.1112989 C97.9814739,22.7393726 96.9500967,21.6415776 95.2930398,21.6415776 L95.2929552,21.6415776 Z M105.050089,5.39336696 L100.298308,5.39336696 C100.298308,5.39336696 100.298325,5.39696552 100.298359,5.4040489 L100.299085,5.55881851 C100.302834,6.36787761 100.31908,10.0061735 100.324391,13.402683 L100.3253,14.0778511 C100.325425,14.1895385 100.325537,14.3007298 100.325633,14.4113112 L100.325586,16.3113416 C100.323683,17.9972008 100.316011,19.3095778 100.298308,19.6896602 L100.298308,19.6896602 L105.050216,19.6896602 L105.049329,17.6640576 L105.087436,17.7225589 C105.702313,18.6568717 106.777302,19.9269387 109.063392,20.0197361 L109.332589,20.0251328 C112.458914,20.0251328 114.803203,17.9818383 114.803203,13.5906586 L114.803203,13.5906586 L114.803203,5.39336696 L110.051803,5.39336696 L110.051803,13.0415497 C110.051803,14.9634311 109.363978,16.2744393 107.644523,16.2744393 C106.331822,16.2744393 105.549955,15.3902808 105.206445,14.5365813 C105.080971,14.2311448 105.050089,13.804295 105.050089,13.3770222 L105.050089,13.3770222 L105.050089,5.39336696 Z M97.6689725,5.39336696 L92.9171493,5.39336696 L92.9171493,19.6896602 L97.6689725,19.6896602 L97.6689725,5.39336696 Z" id="Combined-Shape" fill-rule="nonzero"></path>
                            <polygon id="path16" points="0.0641332207 5.37644526 13.1935065 5.37644526 13.1935065 9.6868238 4.8154911 9.6868238 4.8154911 26.1321722 0.0641332207 26.1321722"></polygon>
                            <path d="M19.8407287,5.37644526 L19.8407287,19.6723155 L15.0889477,19.6723155 L15.0889477,5.37644526 L19.8407287,5.37644526 Z M17.4648382,21.6242329 C19.1218951,21.6242329 20.1532723,22.7220278 20.1532723,24.0948003 C20.1223903,25.4971857 19.1218951,26.5640985 17.4964395,26.5640985 C15.8707723,26.5640985 14.8080053,25.4971857 14.8080053,24.0948003 C14.8080053,22.7220278 15.839171,21.6242329 17.4338292,21.6242329 L17.4647113,21.6242329 L17.4648382,21.6242329 Z" id="path18"></path>
                            <path d="M22.0470214,5.37644526 L26.7988447,5.37644526 L26.7988447,13.3601005 C26.7988447,13.7873733 26.8297268,14.2142231 26.9554126,14.5196596 C27.2987115,15.3729361 28.0805361,16.2570946 29.3932788,16.2570946 C31.1129037,16.2570946 31.8007705,14.9456633 31.8007705,13.025051 L31.8007705,5.37644526 L36.5521284,5.37644526 L36.5521284,13.5737369 C36.5521284,17.9649166 34.2076277,20.0082111 31.0813024,20.0082111 C28.5180465,20.0082111 27.3925,18.5753667 26.7672011,17.599408 L26.7989293,17.599408 L26.7989293,19.6723155 L22.0470214,19.6723155 C22.1095048,18.3308482 22.0470214,5.37644526 22.0470214,5.37644526 L22.0470214,5.37644526 Z" id="path20"></path>
                            <path d="M43.2555306,26.1321722 L38.5035382,26.1321722 L38.5035382,5.37644526 L43.2555306,5.37644526 L43.2555306,10.0112973 L44.4430951,11.506329 L48.1632873,5.37644526 L54.0088442,5.37644526 L47.7569974,14.2506047 L53.2276119,20.2882652 L47.5070217,20.2882652 C47.5070217,20.2882652 43.5994641,14.8864374 43.2555306,14.2459512 L43.2555306,26.1321722 L43.2555306,26.1321722 Z" id="path22"></path>
                            <path d="M66.7164019,11.3396503 C66.7788007,11.706851 66.8728007,12.4112166 66.8728007,13.2073823 C66.8728007,16.9030803 64.9967771,20.6546198 60.0578422,20.6546198 C54.7745509,20.6546198 52.336304,16.4762305 52.336304,12.6866171 C52.336304,7.99930785 55.3060613,5.07185477 60.4953526,5.07185477 C62.5586994,5.07185477 64.465309,5.37644526 66.0285774,6.01693139 L65.4031092,9.15505956 C64.121587,8.729902 62.8086328,8.51753473 61.1832195,8.51753473 C58.9636855,8.51753473 57.0256861,9.42834492 56.8691182,11.3701093 L66.7164019,11.3404964 L66.7164019,11.3396503 Z M56.8381515,14.5543491 C56.9631182,15.7744033 57.7759517,17.5740254 59.8079088,17.5740254 C61.9644095,17.5740254 62.4649109,15.652144 62.4649109,14.5543491 L56.8381515,14.5543491 L56.8381515,14.5543491 Z" id="path24"></path>
                            <path d="M78.6016922,26.1321722 L78.6016922,18.9472209 L78.5392935,18.9472209 C77.8514266,19.9527926 76.4131249,20.6237377 74.5067692,20.6237377 C70.8489335,20.6237377 67.6292427,17.6962847 67.6602094,12.695501 C67.6602094,8.05980291 70.5676103,5.04097268 74.1938024,5.04097268 C76.1631915,5.04097268 78.0387921,5.89509519 78.9765924,7.54199907 L79.0705924,7.54199907 L79.258127,5.37644526 L83.4786514,5.37644526 C83.4160411,6.38286302 83.3530501,8.12114405 83.3530501,9.82854299 L83.3530501,26.1321722 L78.6016922,26.1321722 L78.6016922,26.1321722 Z M78.6016922,11.9936737 C78.6016922,11.6281652 78.5703871,11.2618105 78.5076922,10.95722 C78.2267498,9.64578869 77.1009918,8.73117112 75.7258926,8.73117112 C73.7563343,8.73117112 72.4746006,10.3167339 72.4746006,12.8173372 C72.4746006,15.1652223 73.5689689,17.0557985 75.7569016,17.0557985 C77.2259585,17.0557985 78.2577588,16.0498038 78.5392935,14.7997137 C78.6016922,14.5247361 78.6016922,14.2197226 78.6016922,13.9455912 L78.6016922,11.9936737 L78.6016922,11.9936737 Z" id="path26"></path>
                        </g>
                    </g>
                </g>
            </g>
        </g>
    </g>
</svg>