<svg xmlns="http://www.w3.org/2000/svg" viewBox="0 0 1353.5 539" style="enable-background:new 0 0 1353.5 539;">
  <style type="text/css">
    .st0{fill:#065986;}
    .st1{fill:#23AE49;}
  </style>

  <path class="st0" d="M1177.1,85.7c-0.4-46.8-30-76.6-79.2-79.6c-11-0.7-44.4-0.8-66.2,0c-12.7,0.5-25.9,11.6-52.1,34.8 c-3.2,2.8-6.5,5.7-9.8,8.6c-11.1,9.7-21.3,19.4-28.9,27.3c-12.5,13.1-16.7,20.1-16.5,27.6c0.2,6.9,0.1,25.2,0.1,44.6 c0,10.1-0.1,20.4-0.1,29.4c0,16.6,7.2,35.7,19.1,51.3c13.8,17.9,31.3,28,49.3,28.5l0.8-31c-18.4-0.5-38.2-29-38.2-48.8 c0-9,0-19.3,0.1-29.4c0-12.6,0.1-24.8,0-33.8h76.5V37.7c0.6-0.4,1.2-0.7,1.7-0.9c21.9-0.8,53-0.6,62.1,0c33,2.1,49.9,18.5,50.1,48.9 c0,3.1-0.1,6.9-0.2,10.7c-0.1,3.5-0.2,7.1-0.2,10.4h31c0-2.9,0.1-6.3,0.2-9.6C1177,93.4,1177.1,89.3,1177.1,85.7z"/>
  <path class="st0" d="M177.9,107.3c18.1,0,33.5,6.2,46.4,18.8c12.8,12.5,19.3,29.1,19.3,49.9s-6.4,37.7-19.1,50.7 c-12.8,13-27.6,19.5-44.6,19.5s-32.2-7.4-45.8-22.3v69.5h-28.4v-184h28.4V133C145.3,115.9,159.9,107.3,177.9,107.3L177.9,107.3z M133.6,177c0,12.9,3.9,23.4,11.7,31.6s17.2,12.3,28.4,12.3s20.9-4.1,29.2-12.2c8.3-8.1,12.4-18.6,12.4-31.6s-4.1-23.7-12.2-32.2 c-8.1-8.5-17.8-12.8-29.2-12.8s-20.9,4.3-28.7,12.8C137.5,153.5,133.6,164.2,133.6,177z"/>
  <path class="st0" d="M318.4,107.3c18.4,0,33.7,5.1,45.9,15.3s18.3,23.5,18.5,39.9l0.2,0.5l-98.3,41.4c8.8,10.8,20.7,16.2,35.9,16.2 c15.1,0,27.6-5.9,37.4-17.7l16.7,18.5c-16.1,16.6-35,24.8-56.8,24.8c-19.1,0-35.5-6.3-49.2-19c-13.7-12.7-20.5-29.4-20.5-50.2 c0-14.4,3.6-27,10.6-37.9c7.1-10.9,15.9-18.9,26.4-24.1C295.6,109.9,306.7,107.3,318.4,107.3L318.4,107.3z M275.5,177.6 c0,2.2,0.1,3.8,0.2,4.8l74.8-32.2c-5.8-11.1-16-16.7-30.7-16.7c-11.1,0-21.3,3.9-30.6,11.7C280.1,152.9,275.5,163.7,275.5,177.6z"/>
  <path class="st0" d="M506,226.1c-13.5,13.4-30.4,20.1-50.7,20.1s-37.2-6.7-50.7-20.1s-20.3-29.9-20.3-49.3s6.8-35.9,20.3-49.3 s30.4-20.1,50.7-20.1s37.2,6.7,50.7,20.1c13.5,13.4,20.3,29.9,20.3,49.3C526.2,196.2,519.5,212.7,506,226.1z M424.7,208.6 c8,8.2,18.2,12.3,30.5,12.3s22.5-4.1,30.5-12.3s12-18.8,12-31.8s-4-23.6-12-31.8s-18.2-12.3-30.5-12.3s-22.5,4.1-30.5,12.3 s-12,18.8-12,31.8S416.7,200.4,424.7,208.6z"/>
  <path class="st0" d="M611.7,107.3c18.1,0,33.5,6.2,46.4,18.8c12.8,12.5,19.3,29.1,19.3,49.9s-6.4,37.7-19.1,50.7 c-12.8,13-27.6,19.5-44.6,19.5c-17,0-32.2-7.4-45.8-22.3v69.5h-28.4v-184h28.4V133C579,115.9,593.6,107.3,611.7,107.3L611.7,107.3z M567.3,177c0,12.9,3.9,23.4,11.7,31.6c7.8,8.2,17.2,12.3,28.4,12.3s20.9-4.1,29.2-12.2s12.4-18.6,12.4-31.6s-4.1-23.7-12.2-32.2 s-17.8-12.8-29.2-12.8c-11.3,0-20.9,4.3-28.6,12.8C571.2,153.5,567.3,164.2,567.3,177z"/>
  <path class="st0" d="M758.2,234.6c-6.8,7.8-16.2,11.7-28.4,11.7s-21.9-3.6-29.3-10.9c-7.3-7.3-11-18-11-32.2V67h28.4v132.8 c0,13.5,5.1,20.3,15.2,20.3c5.9,0,10.1-2.1,12.7-6.3L758.2,234.6z"/>
  <path class="st0" d="M820.3,107.3c18.4,0,33.7,5.1,45.9,15.3s18.3,23.5,18.5,39.9l0.2,0.5l-98.3,41.3c8.8,10.8,20.7,16.2,35.9,16.2 c15.1,0,27.6-5.9,37.4-17.7l16.7,18.5c-16.1,16.6-35,24.8-56.8,24.8c-19.1,0-35.5-6.3-49.2-19s-20.5-29.4-20.5-50.2 c0-14.4,3.5-27,10.7-37.9c7.1-10.9,15.9-18.9,26.4-24.1C797.6,109.9,808.6,107.3,820.3,107.3L820.3,107.3z M777.5,177.6 c0,2.2,0.1,3.8,0.2,4.8l74.8-32.2c-5.8-11.1-16-16.7-30.7-16.7c-11.2,0-21.3,3.9-30.5,11.7C782.1,152.9,777.5,163.7,777.5,177.6z"/>
  <path class="st1" d="M613.5,260.7v162.4h-14.8V403c-6.3,7.7-13.4,13.5-21.3,17.3c-7.9,3.9-16.5,5.8-25.8,5.8c-16.6,0-30.7-6-42.5-18 s-17.6-26.6-17.6-43.9c0-16.9,5.9-31.3,17.8-43.3s26.1-18,42.7-18c9.6,0,18.3,2,26.1,6.1c7.8,4.1,14.6,10.2,20.5,18.4v-66.8h14.9 V260.7z M553.3,317.5c-8.4,0-16.1,2.1-23.2,6.2c-7.1,4.1-12.7,9.9-16.9,17.4c-4.2,7.5-6.3,15.3-6.3,23.7c0,8.2,2.1,16.1,6.3,23.7 c4.2,7.6,9.9,13.4,17,17.6c7.1,4.2,14.8,6.3,23,6.3s16.1-2.1,23.4-6.2s13.1-9.8,17-16.9c4-7.1,6-15.1,6-24c0-13.5-4.5-24.9-13.4-34 C577.3,322,566.3,317.5,553.3,317.5L553.3,317.5z"/>
  <path class="st1" d="M686.5,302.9c18,0,33,6.5,44.9,19.6c10.8,11.9,16.2,26,16.2,42.3c0,16.4-5.7,30.7-17.1,42.9s-26,18.4-44,18.4 s-32.7-6.1-44-18.4c-11.4-12.2-17.1-26.5-17.1-42.9c0-16.2,5.4-30.3,16.2-42.2C653.4,309.5,668.4,302.9,686.5,302.9L686.5,302.9z M686.5,317.7c-12.5,0-23.3,4.6-32.3,13.9s-13.5,20.4-13.5,33.5c0,8.5,2,16.4,6.2,23.7c4.1,7.3,9.7,13,16.6,17c7,4,14.7,6,23,6 s16-2,23-6s12.5-9.6,16.6-17c4.1-7.3,6.2-15.2,6.2-23.7c0-13.1-4.5-24.3-13.6-33.6C709.7,322.3,698.9,317.7,686.5,317.7z"/>
  <path class="st1" d="M872.6,330.3l-12,7.4c-10.3-13.7-24.4-20.6-42.3-20.6c-14.3,0-26.1,4.6-35.5,13.8s-14.1,20.3-14.1,33.4 c0,8.5,2.2,16.6,6.5,24.1s10.3,13.4,17.8,17.5c7.6,4.2,16,6.2,25.4,6.2c17.2,0,31.2-6.8,42.2-20.6l12,7.9 c-5.6,8.4-13.1,15-22.5,19.6c-9.4,4.7-20.2,7-32.2,7c-18.5,0-33.9-5.9-46.1-17.7s-18.3-26.1-18.3-43c0-11.3,2.8-21.9,8.6-31.6 c5.7-9.7,13.5-17.3,23.5-22.8s21.1-8.2,33.5-8.2c7.8,0,15.2,1.2,22.5,3.5c7.2,2.4,13.3,5.5,18.4,9.3 C864.8,319.5,869.1,324.4,872.6,330.3L872.6,330.3z"/>
  <path class="st1" d="M1218.7,167.7c-5.4-4.7-10.5-9.2-14.2-12.7c-1.5-1.4-3.2-3.1-5-4.9c-13.8-13.8-32.8-32.6-53.7-32.6h-56.4 c-42.3,0-76.7,34.4-76.7,76.7v88.3c0,42.3,34.4,76.7,76.7,76.7h88.3c42.3,0,76.7-34.4,76.7-76.7v-70.9 C1254.4,200,1244.6,190.3,1218.7,167.7L1218.7,167.7z M1177.7,328.2h-88.3c-25.2,0-45.7-20.5-45.7-45.7v-88.3 c0-25.2,20.5-45.7,45.7-45.7h56.4c1.7,0,3.8,0.7,6,1.9V218h71.6v64.5C1223.4,307.7,1202.9,328.2,1177.7,328.2z"/>

  <g>
    <path class="st0" d="M274.8,533.4c-14.4,0-25.9-9.8-25.9-24.7v-46.2h13.7v45.7c0,8.1,4.7,12.9,12.1,12.9c7.4,0,12.2-4.8,12.2-12.9 v-45.7h13.8v46.2C300.7,523.6,289.2,533.4,274.8,533.4L274.8,533.4z"/>
    <path class="st0" d="M317,532.8v-70.3h13.7v58h31.9v12.2L317,532.8L317,532.8z"/>
    <path class="st0" d="M389.8,474.7v58.1h-13.7v-58.1h-18.4v-12.2h50.5v12.2L389.8,474.7z"/>
    <path class="st0" d="M420.4,532.8v-70.3h13.7v70.3H420.4z"/>
    <path class="st0" d="M503.4,532.8v-41L490,518.5h-9.3l-13.5-26.7v41h-13.7v-70.3H467l18.4,38l18.3-38h13.5v70.3H503.4z"/>
    <path class="st0" d="M574.6,532.8l-4.1-12.5h-25l-4.2,12.5H527l25.6-70.3h10.8l25.7,70.3H574.6z M558.2,483.2l-8.9,25.6h17.5 L558.2,483.2z"/>
    <path class="st0" d="M619.6,474.7v58.1h-13.7v-58.1h-18.4v-12.2H638v12.2L619.6,474.7z"/>
    <path class="st0" d="M652.1,532.8v-70.3h46.3v12.2h-32.6v16.5h27.8v12.2h-27.8v17.1h32.6v12.2L652.1,532.8L652.1,532.8z"/>
    <path class="st0" d="M764,533.4c-10.7,0-18.8-2.3-25.7-9.3l8.9-8.9c4.5,4.4,10.5,5.9,17,5.9c8.1,0,12.5-3.1,12.5-8.7 c0-2.5-0.7-4.5-2.2-5.9c-1.4-1.3-3-2-6.2-2.5l-8.5-1.2c-6-0.9-10.5-2.8-13.6-5.8c-3.3-3.4-5-7.9-5-13.8c0-12.5,9.3-21.3,24.5-21.3 c9.7,0,16.7,2.4,22.7,8.2l-8.7,8.6c-4.4-4.2-9.8-4.8-14.4-4.8c-7.3,0-10.9,4-10.9,8.9c0,1.8,0.6,3.7,2.1,5c1.4,1.3,3.7,2.4,6.5,2.8 l8.3,1.2c6.4,0.9,10.5,2.7,13.4,5.4c3.8,3.6,5.4,8.7,5.4,14.9C790.1,525.7,778.8,533.4,764,533.4L764,533.4z"/>
    <path class="st0" d="M846.6,525.7c-4.9,4.9-11,7.7-19,7.7s-14.1-2.8-19.1-7.7c-7.1-7.1-6.9-15.9-6.9-28c0-12.2-0.2-20.9,6.9-28.1 c4.9-4.9,11.1-7.7,19.1-7.7s14,2.8,19,7.7c7.1,7.1,7,15.9,7,28.1C853.7,509.8,853.8,518.6,846.6,525.7z M836.5,477.9 c-2-2.3-5-3.8-8.8-3.8s-6.9,1.5-8.9,3.8c-2.7,3-3.4,6.2-3.4,19.8c0,13.5,0.7,16.8,3.4,19.8c2,2.3,5.1,3.8,8.9,3.8s6.8-1.5,8.8-3.8 c2.7-3,3.5-6.2,3.5-19.8C839.9,484.1,839.1,480.8,836.5,477.9z"/>
    <path class="st0" d="M882.4,474.7V492h27.8v12.2h-27.8v28.5h-13.7v-70.2H915v12.2H882.4z"/>
    <path class="st0" d="M958.8,474.7v58.1h-13.7v-58.1h-18.4v-12.2h50.5v12.2L958.8,474.7z"/>
    <path class="st0" d="M1055.2,532.8h-11.5l-12.9-42.7l-12.9,42.7h-11.5l-18.7-70.3h14.3l10.9,44.3l12.8-44.3h10.3l12.8,44.3l11-44.3 h14.3L1055.2,532.8z"/>
    <path class="st0" d="M1120.6,532.8l-4.2-12.5h-25l-4.2,12.5h-14.3l25.6-70.3h10.8l25.7,70.3H1120.6z M1104.2,483.2l-8.9,25.6h17.5 L1104.2,483.2z"/>
    <path class="st0" d="M1179.9,532.8l-13.7-28h-9.9v28h-13.7v-70.3h27.6c14.3,0,22.8,9.8,22.8,21.5c0,9.9-6,16-12.8,18.5l15.7,30.3 H1179.9z M1169.3,474.7h-12.9v18.6h12.9c6,0,10-3.8,10-9.3C1179.3,478.6,1175.3,474.7,1169.3,474.7L1169.3,474.7z"/>
    <path class="st0" d="M1208.2,532.8v-70.3h46.3v12.2h-32.6v16.5h27.8v12.2h-27.8v17.1h32.6v12.2L1208.2,532.8L1208.2,532.8z"/>
    <path class="st0" d="M134,462.4c13.8,0,21.8,7.8,21.8,19.8c0,7.8-5.1,12.8-8.7,14.5c4.3,2,9.8,6.4,9.8,15.8 c0,13.2-9.1,20.3-21.6,20.3h-29.5v-70.4H134z M119.6,474.6v16.3h13.5c5.8,0,9-3.3,9-8.2c0-4.8-3.2-8.1-9-8.1L119.6,474.6z M119.6,503.2v17.3H134c6.1,0,9.2-3.8,9.2-8.7c0-4.8-3.1-8.6-9.2-8.6L119.6,503.2z"/>
    <path class="st0" d="M195.8,504v28.8h-13.7V504L161,462.4h14.9l13.2,28.4l12.9-28.4h14.9L195.8,504z"/>
  </g>
</svg>
