<?xml version="1.0" encoding="UTF-8"?>
<svg width="214px" height="33px" viewBox="0 0 214 33" version="1.1" xmlns="http://www.w3.org/2000/svg" xmlns:xlink="http://www.w3.org/1999/xlink">
    <title>E78AC4C3-8AB9-4C89-822B-2977F6F0E963@1x</title>
    <g id="Symbols" stroke="none" stroke-width="1" fill="none" fill-rule="evenodd">
        <g id="2021-/-sponsor-grid" transform="translate(0.000000, -296.000000)" fill="#555555" fill-rule="nonzero">
            <g id="sponsors" transform="translate(0.000000, 1.000000)">
                <g id="row-4" transform="translate(0.000000, 294.000000)">
                    <g id="PrecisionNutrition" transform="translate(0.000000, 1.000000)">
                        <g id="Group" transform="translate(-0.000397, 0.000000)">
                            <path d="M29.517615,16.2918913 C29.517615,13.7297875 27.4897236,11.7981601 24.7990914,11.7981601 C22.1084593,11.7981601 20.07951,13.7297875 20.07951,16.2918913 L20.07951,22.1888556 L22.3094501,22.1888556 L22.3094501,16.30723 C22.3094501,14.7701793 23.3091149,13.7371924 24.7990914,13.7371924 C26.289068,13.7371924 27.2897906,14.7701793 27.2897906,16.30723 L27.2897906,22.1888556 L29.517615,22.1888556 L29.517615,16.2918913 Z M18.8550529,12.5333633 C18.8550529,10.0389616 16.9086157,8.1565241 14.3269417,8.1565241 L8.30938289,8.1565241 C7.69265848,8.1565241 7.17219809,8.67857126 7.17219809,9.29317998 L7.17219809,22.2041944 L9.44603877,22.2041944 L9.44603877,16.9514585 L14.3269417,16.9514585 C16.9086157,16.9514585 18.8550529,15.0515665 18.8550529,12.5333633 Z M35.6658178,17.8664955 L28.353984,30.529445 C27.803375,31.4852091 26.4525052,32.2643129 25.3518161,32.2643129 L10.7276196,32.2643129 C9.62745941,32.2643129 8.27553181,31.4852091 7.72545172,30.529445 L0.412560067,17.8664955 C-0.136991099,16.913376 -0.136991099,15.3519948 0.412560067,14.3983463 L7.72545172,1.73486797 C8.27553181,0.780161666 9.62745941,0 10.7276196,0 L25.3518161,0 C26.4525052,0 27.803375,0.780161666 28.353984,1.73486797 L35.6658178,14.3983463 C36.2158979,15.3519948 36.2158979,16.913376 35.6658178,17.8664955 Z M16.5589975,12.5333633 C16.5589975,13.980497 15.4308044,15.0732523 13.932894,15.0732523 L9.44603877,15.0732523 L9.44603877,10.0368459 L13.932894,10.0368459 C15.4561927,10.0368459 16.5589975,11.0862295 16.5589975,12.5333633 Z" id="Shape"></path>
                        </g>
                        <g id="Group" transform="translate(45.486995, 7.933847)">
                            <path d="M6.79243126,2.5710955 L2.73453275,2.5710955 L2.73453275,6.90191836 L6.79243126,6.90191836 C8.01159915,6.90191836 9.0630984,6.0397736 9.0630984,4.71535 C9.0630984,3.3702984 8.01159915,2.5710955 6.79243126,2.5710955 Z M7.17061132,9.21437042 L2.73453275,9.21437042 L2.73453275,14.2602974 L0.0433716994,14.2602974 L0.0433716994,1.60422395 C0.0433716994,0.867962911 0.653220106,0.258643427 1.38895223,0.258643427 L7.17061132,0.258643427 C9.94640008,0.258643427 11.7754164,2.29764222 11.7754164,4.71535 C11.7754164,7.1335867 9.94640008,9.21437042 7.17061132,9.21437042 Z" id="Shape"></path>
                        </g>
                        <g id="Group" transform="translate(58.181151, 11.636310)">
                            <path d="M3.05453127,5.99534405 L3.05453127,10.5578353 L0.489782849,10.5578353 L0.489782849,0.319469591 L2.99158941,0.319469591 L2.99158941,2.16911389 C3.43324025,1.22339928 4.94701834,0.130115098 6.48142444,0.130115098 L6.48142444,2.54782288 C4.2107573,2.54782288 3.05453127,3.95634526 3.05453127,5.99534405 Z" id="Path"></path>
                        </g>
                        <g id="Group" transform="translate(65.586076, 11.636310)">
                            <path d="M5.08718298,2.10617204 C3.76275938,2.10617204 2.81651584,2.90537493 2.62769027,4.46093796 L7.42079198,4.46093796 C7.27375134,2.98947372 6.51686229,2.10617204 5.08718298,2.10617204 Z M2.60600442,6.26932625 C2.64831828,7.80373235 3.9938988,8.70766203 5.88638588,8.70766203 C6.85325742,8.70766203 7.9465416,8.56062139 8.89278514,8.30832505 L9.35506399,10.1590272 C8.19883795,10.5366783 7.1267107,10.7265617 5.86522896,10.7265617 C2.16488251,10.7265617 0.104726786,8.58177832 0.104726786,5.4278095 C0.104726786,2.61076473 1.97552801,0.130115098 5.08718298,0.130115098 C8.05179731,0.130115098 9.85965668,2.31615453 9.85965668,5.49128028 L9.85965668,6.26932625 L2.60600442,6.26932625 Z" id="Shape"></path>
                        </g>
                        <g id="Group" transform="translate(76.693462, 11.636310)">
                            <path d="M5.8800388,10.7265617 C2.47377363,10.7265617 0.224263421,8.41358076 0.224263421,5.4278095 C0.224263421,2.44309609 2.47377363,0.130115098 5.8800388,0.130115098 C6.82628234,0.130115098 7.7090551,0.255998811 8.55004293,0.571765939 L8.12954902,2.42193916 C7.4144449,2.25321267 6.69986971,2.19027082 6.0900213,2.19027082 C3.86166801,2.19027082 2.78954076,3.51469442 2.78954076,5.4278095 C2.78954076,7.34092458 3.86166801,8.68650511 6.0900213,8.68650511 C6.80512542,8.68650511 7.35150304,8.58177832 8.12954902,8.37179583 L8.55004293,10.2425971 C7.83493881,10.5160503 6.72102663,10.7265617 5.8800388,10.7265617 Z" id="Path"></path>
                        </g>
                        <g id="Group" transform="translate(87.271925, 7.404924)">
                            <path d="M0.494543157,14.7892206 L0.494543157,4.5508549 L3.05929158,4.5508549 L3.05929158,14.7892206 L0.494543157,14.7892206 Z M0.494543157,2.84772231 L0.494543157,0.387700679 L3.05929158,0.387700679 L3.05929158,2.84772231 L0.494543157,2.84772231 Z" id="Shape"></path>
                        </g>
                        <g id="Group" transform="translate(92.561157, 11.636310)">
                            <path d="M4.26682316,10.7265617 C2.94187063,10.7265617 1.34452268,10.3478528 0.0830409366,9.80147514 L0.650575491,8.01424377 C1.89090031,8.45589461 3.19416698,8.74997589 4.24566623,8.74997589 C5.59124676,8.74997589 6.05405452,8.3506389 6.05405452,7.78257542 C6.05405452,7.17325594 5.65418861,7.00505837 4.09862559,6.37405304 C1.36515068,5.26014086 0.461220998,4.71376323 0.461220998,2.98947372 C0.461220998,1.07635864 1.93321416,0.130115098 4.60321829,0.130115098 C5.59124676,0.130115098 7.08386792,0.298312664 8.19830903,0.677021649 L7.75665819,2.54782288 C6.91567036,2.31615453 5.65418861,2.10617204 4.64500322,2.10617204 C3.29942269,2.10617204 2.92124263,2.35846838 2.92124263,2.90537493 C2.92124263,3.5781652 3.4046784,3.74583384 5.21253777,4.46093796 C7.77781511,5.47012335 8.55586109,5.95355912 8.55586109,7.67784864 C8.55586109,9.50686493 6.8527285,10.7265617 4.26682316,10.7265617 Z" id="Path"></path>
                        </g>
                        <g id="Group" transform="translate(103.139620, 7.404924)">
                            <path d="M0.226908037,14.7892206 L0.226908037,4.5508549 L2.79165645,4.5508549 L2.79165645,14.7892206 L0.226908037,14.7892206 Z M0.226908037,2.84772231 L0.226908037,0.387700679 L2.79165645,0.387700679 L2.79165645,2.84772231 L0.226908037,2.84772231 Z" id="Shape"></path>
                        </g>
                        <g id="Group" transform="translate(107.899929, 11.636310)">
                            <path d="M5.36857011,2.12732896 C3.7289083,2.12732896 2.76150783,3.45175256 2.76150783,5.4278095 C2.76150783,7.40439536 3.7289083,8.70766203 5.36857011,8.70766203 C7.00876083,8.70766203 8.01794623,7.40439536 8.01794623,5.4278095 C8.01794623,3.45175256 7.00876083,2.12732896 5.36857011,2.12732896 Z M5.36857011,10.7265617 C2.25691514,10.7265617 0.176131413,8.24538319 0.176131413,5.4278095 C0.176131413,2.61076473 2.25691514,0.130115098 5.36857011,0.130115098 C8.48022507,0.130115098 10.5832236,2.61076473 10.5832236,5.4278095 C10.5832236,8.24538319 8.48022507,10.7265617 5.36857011,10.7265617 Z" id="Shape"></path>
                        </g>
                        <g id="Group" transform="translate(120.594084, 11.636310)">
                            <path d="M6.84479465,10.5578353 L6.84479465,4.43978103 C6.84479465,3.17829929 6.2772601,2.42193916 4.99462143,2.42193916 C3.83839539,2.42193916 2.59807058,3.43112456 2.59807058,4.86027495 L2.59807058,10.5578353 L0.0327932361,10.5578353 L0.0327932361,0.319469591 L2.53512872,0.319469591 L2.53512872,1.93850339 C3.18676206,0.970574004 4.51118566,0.130115098 6.02496375,0.130115098 C8.33741582,0.130115098 9.41007199,1.70683505 9.41007199,4.06160097 L9.41007199,10.5578353 L6.84479465,10.5578353 Z" id="Path"></path>
                        </g>
                        <g id="Group" transform="translate(133.817164, 7.933847)">
                            <path d="M11.0931055,14.366082 C10.8408092,14.366082 10.5673559,14.3020823 10.3785303,14.0503149 L2.26273329,3.53796704 L2.26273329,14.2602974 L0.41308899,14.2602974 L0.41308899,1.05678848 C0.41308899,0.531567779 0.854210908,0.111073864 1.35880361,0.111073864 C1.65341381,0.111073864 1.90465231,0.19570157 2.09506465,0.447468996 L10.1886469,10.9386599 L10.1886469,0.258643427 L12.039349,0.258643427 L12.039349,13.4409954 C12.039349,13.987373 11.5982271,14.366082 11.0931055,14.366082 Z" id="Path"></path>
                        </g>
                        <g id="Group" transform="translate(148.627012, 11.636310)">
                            <path d="M7.08968608,10.5578353 L7.08968608,8.77060389 C6.39626781,9.90620192 5.09300114,10.7265617 3.55753719,10.7265617 C1.24508513,10.7265617 0.0888590914,9.23341166 0.0888590914,6.96327344 L0.0888590914,0.319469591 L1.96018924,0.319469591 L1.96018924,6.7316051 C1.96018924,8.24538319 2.61182258,9.04405717 4.12560067,9.04405717 C5.57643691,9.04405717 7.06905807,7.78257542 7.06905807,5.74357663 L7.06905807,0.319469591 L8.9192313,0.319469591 L8.9192313,10.5578353 L7.08968608,10.5578353 Z" id="Path"></path>
                        </g>
                        <g id="Group" transform="translate(159.205475, 8.991694)">
                            <path d="M4.6058629,13.3711776 C2.92388725,13.3711776 1.83060307,12.5719747 1.83060307,10.3854063 L1.83060307,4.35145086 L0.443237611,4.35145086 L0.443237611,2.96408541 L1.83060307,2.96408541 L1.83060307,0.0629418564 L3.68077629,0.0629418564 L3.68077629,2.96408541 L5.67799016,2.96408541 L5.67799016,4.35145086 L3.68077629,4.35145086 L3.68077629,10.3430925 C3.68077629,11.5839462 4.12242713,11.9203413 4.85815925,11.9203413 C5.13161253,11.9203413 5.51032151,11.8780275 5.84671664,11.8150856 L6.03554221,13.1812941 C5.59389137,13.3082357 5.00572882,13.3711776 4.6058629,13.3711776 Z" id="Path"></path>
                        </g>
                        <g id="Group" transform="translate(167.139323, 11.636310)">
                            <path d="M2.28547699,5.61769292 L2.28547699,10.5578353 L0.435303763,10.5578353 L0.435303763,0.319469591 L2.26432006,0.319469591 L2.26432006,2.35846838 C2.83185462,1.2445562 4.219749,0.151272025 5.77584094,0.151272025 L5.77584094,1.7697769 C3.79925508,1.7697769 2.28547699,3.72467691 2.28547699,5.61769292 Z" id="Path"></path>
                        </g>
                        <g id="Group" transform="translate(174.544247, 7.933847)">
                            <path d="M0.284031739,14.2602974 L0.284031739,4.02193173 L2.13420496,4.02193173 L2.13420496,14.2602974 L0.284031739,14.2602974 Z M0.284031739,2.31879915 L0.284031739,0.0687600112 L2.13420496,0.0687600112 L2.13420496,2.31879915 L0.284031739,2.31879915 Z" id="Shape"></path>
                        </g>
                        <g id="Group" transform="translate(179.304556, 8.991694)">
                            <path d="M4.18589791,13.3711776 C2.50392225,13.3711776 1.411167,12.5719747 1.411167,10.3854063 L1.411167,4.35145086 L0.0232726192,4.35145086 L0.0232726192,2.96408541 L1.411167,2.96408541 L1.411167,0.0629418564 L3.2608113,0.0629418564 L3.2608113,2.96408541 L5.25802516,2.96408541 L5.25802516,4.35145086 L3.2608113,4.35145086 L3.2608113,10.3430925 C3.2608113,11.5839462 3.70246214,11.9203413 4.43819426,11.9203413 C4.71164754,11.9203413 5.09035652,11.8780275 5.42675165,11.8150856 L5.61557722,13.1812941 C5.17392638,13.3082357 4.58576382,13.3711776 4.18589791,13.3711776 Z" id="Path"></path>
                        </g>
                        <g id="Group" transform="translate(187.238403, 7.933847)">
                            <path d="M0.0153387717,14.2602974 L0.0153387717,4.02193173 L1.865512,4.02193173 L1.865512,14.2602974 L0.0153387717,14.2602974 Z M0.0153387717,2.31879915 L0.0153387717,0.0687600112 L1.865512,0.0687600112 L1.865512,2.31879915 L0.0153387717,2.31879915 Z" id="Shape"></path>
                        </g>
                        <g id="Group" transform="translate(191.469788, 11.636310)">
                            <path d="M5.1400753,1.64389319 C3.20527437,1.64389319 2.02842033,3.17829929 2.02842033,5.4278095 C2.02842033,7.67784864 3.20527437,9.21225473 5.1400753,9.21225473 C7.07381838,9.21225473 8.27182935,7.67784864 8.27182935,5.4278095 C8.27182935,3.17829929 7.07381838,1.64389319 5.1400753,1.64389319 Z M5.1400753,10.7265617 C2.11199019,10.7265617 0.178247106,8.26601119 0.178247106,5.4278095 C0.178247106,2.59013673 2.11199019,0.130115098 5.1400753,0.130115098 C8.16710256,0.130115098 10.1225315,2.59013673 10.1225315,5.4278095 C10.1225315,8.26601119 8.18825949,10.7265617 5.1400753,10.7265617 Z" id="Shape"></path>
                        </g>
                        <g id="Group" transform="translate(203.106098, 11.636310)">
                            <path d="M7.44247783,10.5578353 L7.44247783,4.12454283 C7.44247783,2.61076473 6.79084449,1.81156183 5.2770664,1.81156183 C3.82623016,1.81156183 2.333609,3.0942005 2.333609,5.13425714 L2.333609,10.5578353 L0.483435771,10.5578353 L0.483435771,0.319469591 L2.31245207,0.319469591 L2.31245207,2.10617204 C3.00639926,0.970574004 4.30966593,0.130115098 5.84512988,0.130115098 C8.15758194,0.130115098 9.29265105,1.64389319 9.29265105,3.91456033 L9.29265105,10.5578353 L7.44247783,10.5578353 Z" id="Path"></path>
                        </g>
                    </g>
                </g>
            </g>
        </g>
    </g>
</svg>