<?xml version="1.0" encoding="UTF-8"?>
<svg width="143px" height="24px" viewBox="0 0 143 24" version="1.1" xmlns="http://www.w3.org/2000/svg" xmlns:xlink="http://www.w3.org/1999/xlink">
    <title>15115980-D318-419F-B8AD-F6FFE8DF4BBF@1x</title>
    <g id="Symbols" stroke="none" stroke-width="1" fill="none" fill-rule="evenodd">
        <g id="2021-/-sponsor-grid" transform="translate(-705.000000, -300.000000)" fill="#555555" fill-rule="nonzero">
            <g id="sponsors" transform="translate(0.000000, 1.000000)">
                <g id="row-4" transform="translate(0.000000, 294.000000)">
                    <g id="prototypal" transform="translate(705.000000, 5.000000)">
                        <path d="M139.467197,18.2767284 L143,18.2767284 L143,0.00554808743 L139.467197,0.00554808743 L139.467197,18.2767284 Z M130.579317,10.0585262 C131.232585,9.97647705 131.699874,9.87254809 131.980404,9.74908361 C132.484421,9.5341929 132.73682,9.19896339 132.73682,8.74495792 C132.73682,8.1909306 132.54459,7.80881585 132.160131,7.59861366 C131.775672,7.38763005 131.212268,7.28213825 130.468355,7.28213825 C129.633016,7.28213825 129.042262,7.48843333 128.695311,7.90180492 C128.447601,8.20734044 128.282721,8.62071202 128.199891,9.14113825 L124.791333,9.14113825 C124.865568,7.95963005 125.196109,6.98910546 125.782175,6.22878306 C126.716754,5.03867923 128.32023,4.44401803 130.592601,4.44401803 C132.071049,4.44401803 133.385399,4.73705082 134.534087,5.32389781 C135.681995,5.90996339 136.25712,7.01801803 136.25712,8.64571749 L136.25712,14.8431656 C136.25712,15.272947 136.265716,15.7933732 136.281344,16.4052257 C136.30635,16.8678268 136.376678,17.1819579 136.492328,17.3468377 C136.607978,17.5124989 136.782235,17.6484661 137.013536,17.7563022 L137.013536,18.2767284 L133.170508,18.2767284 C133.062672,18.0040126 132.988437,17.7477066 132.947022,17.5085918 C132.906388,17.2686956 132.872787,16.9959798 132.847781,16.6904443 C132.360175,17.2194661 131.799115,17.6695645 131.162257,18.0415208 C130.402716,18.4791164 129.542372,18.6986956 128.583568,18.6986956 C127.360645,18.6986956 126.351049,18.3494005 125.554,17.6508104 C124.756169,16.9530016 124.356863,15.9629415 124.356863,14.6821929 C124.356863,13.0216738 124.997628,11.8190672 126.278377,11.0751546 C126.980874,10.6703787 128.013913,10.381253 129.377492,10.2077776 L130.579317,10.0585262 Z M132.723536,11.707324 C132.500831,11.8479798 132.275781,11.9612858 132.048388,12.0480235 C131.820995,12.1347612 131.509989,12.2152475 131.113027,12.2902639 L130.319104,12.4387339 C129.575973,12.570794 129.042262,12.7317667 128.720317,12.9224333 C128.174885,13.2443787 127.902169,13.744488 127.902169,14.4219798 C127.902169,15.0252366 128.069393,15.4612694 128.404623,15.7292967 C128.739071,15.9981055 129.146191,16.1325098 129.625202,16.1325098 C130.385525,16.1325098 131.086459,15.9090235 131.726443,15.4628322 C132.366426,15.016641 132.699311,14.203182 132.723536,13.0216738 L132.723536,11.707324 Z M121.078803,6.21628033 C122.173574,7.38137869 122.72135,9.09190874 122.72135,11.3478705 C122.72135,13.7280781 122.186077,15.5417557 121.11553,16.7896847 C120.045765,18.0376137 118.667339,18.6611874 116.981814,18.6611874 C115.907361,18.6611874 115.014978,18.3923787 114.304667,17.8555426 C113.916301,17.5578213 113.53653,17.1241328 113.163792,16.5536956 L113.163792,23.5942967 L109.668497,23.5942967 L109.668497,4.76596339 L113.052049,4.76596339 L113.052049,6.76171202 C113.432601,6.17486503 113.837377,5.71226393 114.267158,5.37312732 C115.052486,4.76987049 115.985503,4.46824208 117.068552,4.46824208 C118.647022,4.46824208 119.984033,5.05118197 121.078803,6.21628033 L121.078803,6.21628033 Z M118.363366,8.75746066 C117.889044,7.95572295 117.118563,7.5548541 116.051923,7.5548541 C114.771956,7.5548541 113.891295,8.16201803 113.411503,9.37712732 C113.163792,10.0217995 113.040328,10.839947 113.040328,11.8315699 C113.040328,13.4014443 113.457607,14.5048104 114.291383,15.1408869 C114.787585,15.5128432 115.374432,15.6988213 116.051923,15.6988213 C117.035732,15.6988213 117.785115,15.3182694 118.301634,14.557947 C118.818153,13.7976246 119.076022,12.7856847 119.076022,11.5213459 C119.076022,10.4804934 118.839251,9.55841694 118.363366,8.75746066 L118.363366,8.75746066 Z M96.194459,20.8679197 L96.6414317,20.8921437 C96.9883825,20.909335 97.3189235,20.8968322 97.6322732,20.8554169 C97.9464044,20.8140016 98.2105246,20.7186683 98.4261967,20.5701984 C98.6324918,20.4295426 98.8239399,20.1365098 99.0021038,19.6903186 C99.1802678,19.2433459 99.2521585,18.9714115 99.2185574,18.872171 L94.261224,4.76596339 L98.1902077,4.76596339 L101.140071,14.7322038 L103.929743,4.76596339 L107.685251,4.76596339 L103.049863,18.0540235 C102.156699,20.6155208 101.450295,22.2041492 100.929869,22.8199087 C100.409443,23.4356683 99.3678087,23.7435481 97.8065301,23.7435481 C97.4916175,23.7435481 97.24,23.7412038 97.0501148,23.7372967 C96.8602295,23.7333896 96.5750109,23.7185426 96.194459,23.6935372 L96.194459,20.8679197 Z M85.8070328,7.40638415 L85.8070328,4.89020929 L87.6910383,4.89020929 L87.6910383,1.12141694 L91.1871148,1.12141694 L91.1871148,4.89020929 L93.3813443,4.89020929 L93.3813443,7.40638415 L91.1871148,7.40638415 L91.1871148,14.5454443 C91.1871148,15.0994716 91.2574426,15.4448596 91.3980984,15.5808268 C91.5379727,15.7175754 91.9677541,15.785559 92.6866612,15.785559 C92.7944973,15.785559 92.9078033,15.7832148 93.0281421,15.7793077 C93.1476995,15.7754005 93.2649126,15.7691492 93.3813443,15.7605536 L93.3813443,18.4009743 L91.707541,18.4627066 C90.0376448,18.5205317 88.8975519,18.231406 88.2864809,17.5953295 C87.8895191,17.1905536 87.6910383,16.5661984 87.6910383,15.7238268 L87.6910383,7.40638415 L85.8070328,7.40638415 Z M82.9564098,16.634182 C81.8163169,18.043865 80.0846885,18.7479251 77.762306,18.7479251 C75.4407049,18.7479251 73.7090765,18.043865 72.5689836,16.634182 C71.4288907,15.2252803 70.8576721,13.5295973 70.8576721,11.5463514 C70.8576721,9.59592514 71.4288907,7.90571202 72.5689836,6.47649344 C73.7090765,5.04649344 75.4407049,4.33227486 77.762306,4.33227486 C80.0846885,4.33227486 81.8163169,5.04649344 82.9564098,6.47649344 C84.0965027,7.90571202 84.6669399,9.59592514 84.6669399,11.5463514 C84.6669399,13.5295973 84.0965027,15.2252803 82.9564098,16.634182 L82.9564098,16.634182 Z M80.1300109,14.6821929 C80.6840383,13.946876 80.9606612,12.901335 80.9606612,11.5463514 C80.9606612,10.1905863 80.6840383,9.14738962 80.1300109,8.41597978 C79.576765,7.68456995 78.7828415,7.31964645 77.7505847,7.31964645 C76.716765,7.31964645 75.9220601,7.68456995 75.3641257,8.41597978 C74.8061913,9.14738962 74.527224,10.1905863 74.527224,11.5463514 C74.527224,12.901335 74.8061913,13.946876 75.3641257,14.6821929 C75.9220601,15.4175098 76.716765,15.785559 77.7505847,15.785559 C78.7828415,15.785559 79.576765,15.4175098 80.1300109,14.6821929 L80.1300109,14.6821929 Z M61.8463279,7.40638415 L61.8463279,4.89020929 L63.7303333,4.89020929 L63.7303333,1.12141694 L67.2264098,1.12141694 L67.2264098,4.89020929 L69.4206393,4.89020929 L69.4206393,7.40638415 L67.2264098,7.40638415 L67.2264098,14.5454443 C67.2264098,15.0994716 67.2967377,15.4448596 67.436612,15.5808268 C67.5772678,15.7175754 68.0070492,15.785559 68.7259563,15.785559 C68.8337923,15.785559 68.9470984,15.7832148 69.0666557,15.7793077 C69.1869945,15.7754005 69.3042077,15.7691492 69.4206393,15.7605536 L69.4206393,18.4009743 L67.7468361,18.4627066 C66.0777213,18.5205317 64.936847,18.231406 64.325776,17.5953295 C63.9288142,17.1905536 63.7303333,16.5661984 63.7303333,15.7238268 L63.7303333,7.40638415 L61.8463279,7.40638415 Z M58.9957049,16.634182 C57.855612,18.043865 56.1239836,18.7479251 53.8016011,18.7479251 C51.48,18.7479251 49.749153,18.043865 48.6082787,16.634182 C47.4681858,15.2252803 46.8977486,13.5295973 46.8977486,11.5463514 C46.8977486,9.59592514 47.4681858,7.90571202 48.6082787,6.47649344 C49.749153,5.04649344 51.48,4.33227486 53.8016011,4.33227486 C56.1239836,4.33227486 57.855612,5.04649344 58.9957049,6.47649344 C60.1365792,7.90571202 60.706235,9.59592514 60.706235,11.5463514 C60.706235,13.5295973 60.1365792,15.2252803 58.9957049,16.634182 L58.9957049,16.634182 Z M56.1700874,14.6821929 C56.7233333,13.946876 56.9999563,12.901335 56.9999563,11.5463514 C56.9999563,10.1905863 56.7233333,9.14738962 56.1700874,8.41597978 C55.6160601,7.68456995 54.822918,7.31964645 53.7898798,7.31964645 C52.7560601,7.31964645 51.9613552,7.68456995 51.4034208,8.41597978 C50.8454863,9.14738962 50.5673005,10.1905863 50.5673005,11.5463514 C50.5673005,12.901335 50.8454863,13.946876 51.4034208,14.6821929 C51.9613552,15.4175098 52.7560601,15.785559 53.7898798,15.785559 C54.822918,15.785559 55.6160601,15.4175098 56.1700874,14.6821929 L56.1700874,14.6821929 Z M45.3544426,4.44948798 C45.399765,4.4541765 45.5013497,4.46042787 45.6576339,4.46824208 L45.6576339,8.08778306 C45.434929,8.0627776 45.2364481,8.04636776 45.0637541,8.03855355 C44.8894973,8.02995792 44.7488415,8.02605082 44.6417869,8.02605082 C43.2203825,8.02605082 42.2662678,8.48865191 41.7786612,9.4138541 C41.5059454,9.93506175 41.3691967,10.736018 41.3691967,11.8190672 L41.3691967,18.2767284 L37.811388,18.2767284 L37.811388,4.76596339 L41.1832186,4.76596339 L41.1832186,7.12116557 C41.7286503,6.22018743 42.2037541,5.60442787 42.6085301,5.27388689 C43.2703934,4.72064098 44.1291749,4.44401803 45.1872186,4.44401803 C45.2536393,4.44401803 45.3091202,4.44558087 45.3544426,4.44948798 L45.3544426,4.44948798 Z M33.634694,10.3687503 C32.5438306,11.2611328 30.986459,11.707324 28.9610164,11.707324 L25.0812623,11.707324 L25.0812623,18.2767284 L21.2890273,18.2767284 L21.2890273,0.0063295082 L29.246235,0.0063295082 C31.0810109,0.0063295082 32.5438306,0.476744809 33.634694,1.41913825 C34.7255574,2.36075027 35.2702077,3.81966284 35.2702077,5.79509454 C35.2702077,7.95181585 34.7255574,9.47636776 33.634694,10.3687503 L33.634694,10.3687503 Z M30.7403115,3.78684317 C30.2402022,3.38206721 29.5392678,3.17889781 28.639071,3.17889781 L25.0812623,3.17889781 L25.0812623,8.55897978 L28.639071,8.55897978 C29.5392678,8.55897978 30.2402022,8.34018197 30.7403115,7.90180492 C31.2404208,7.46420929 31.4904754,6.76952623 31.4904754,5.81931858 C31.4904754,4.86911093 31.2404208,4.19161913 30.7403115,3.78684317 L30.7403115,3.78684317 Z" id="Fill-1"></path>
                        <g id="Dots" transform="translate(0.000000, 0.781421)">
                            <circle id="Oval" cx="8.9863388" cy="2.73497268" r="2.73497268"></circle>
                            <circle id="Oval-Copy" cx="2.73497268" cy="8.20491803" r="2.73497268"></circle>
                            <circle id="Oval-Copy-2" cx="8.9863388" cy="13.6748634" r="2.73497268"></circle>
                        </g>
                    </g>
                </g>
            </g>
        </g>
    </g>
</svg>