<?xml version="1.0" encoding="UTF-8"?>
<svg width="121px" height="42px" viewBox="0 0 121 42" version="1.1" xmlns="http://www.w3.org/2000/svg" xmlns:xlink="http://www.w3.org/1999/xlink">
    <title>CD3D227D-EDCE-44C2-A4F9-9D201A7A2411@1x</title>
    <g id="Symbols" stroke="none" stroke-width="1" fill="none" fill-rule="evenodd">
        <g id="2021-/-sponsor-grid" transform="translate(-112.000000, -394.000000)" fill="#555555" fill-rule="nonzero">
            <g id="sponsors" transform="translate(0.000000, 1.000000)">
                <g id="Selleo" transform="translate(112.000000, 393.000000)">
                    <g id="Group" transform="translate(0.960240, 0.734080)">
                        <path d="M11.2617182,0.60230744 C9.06453184,1.15908408 7.837802,3.27041232 8.0069164,5.4832092 C8.32172936,9.6069988 7.219884,12.0266356 2.56793712,14.169185 L2.569238,14.169185 C2.45345968,14.222521 2.34028312,14.2810606 2.2310092,14.3448038 C2.22970832,14.3461046 2.22710656,14.3474055 2.22580568,14.3487064 C1.78871,14.6010771 1.40364952,14.9236954 1.08493392,15.2983488 C1.08103128,15.3035523 1.07712864,15.3087558 1.073226,15.3126585 C0.99647408,15.4024192 0.92232392,15.4973834 0.85467816,15.5936486 C0.8520764,15.5988521 0.84817376,15.6014538 0.845572,15.6066574 C0.70507696,15.8043911 0.58149336,16.0138328 0.4748212,16.2336815 C0.47352032,16.2362833 0.47221944,16.2375842 0.47091856,16.2401859 C0.42018424,16.3442563 0.37465344,16.4509285 0.33432616,16.5589015 C0.32912264,16.5719103 0.32522,16.5836182 0.32001648,16.596627 C0.2796892,16.7006974 0.24586632,16.8073696 0.2146452,16.9153426 C0.20944168,16.9309532 0.20553904,16.9452629 0.20293728,16.9608734 C0.17171616,17.0688465 0.14439768,17.1794213 0.12228272,17.291297 C0.11968096,17.301704 0.11838008,17.3095093 0.1170792,17.3173146 C0.09626512,17.431792 0.0780528,17.5449686 0.065044,17.6607469 C0.065044,17.6646495 0.06374312,17.6711539 0.06374312,17.6750566 C0.0520352,17.789534 0.0455308,17.9027106 0.04162816,18.0184889 C0.04162816,18.0367012 0.04032728,18.0523118 0.04032728,18.071825 C0.03772552,18.1823998 0.04162816,18.2942754 0.04943344,18.4061511 C0.04943344,18.4269652 0.0520352,18.4477793 0.05333608,18.4672925 C0.06114136,18.5817699 0.07415016,18.6949465 0.09236248,18.8055213 C0.09496424,18.8224327 0.097566,18.8393442 0.10016776,18.8549547 C0.11968096,18.9746357 0.1430968,19.0930158 0.17431792,19.2126967 C0.20423816,19.3323777 0.2406628,19.4468551 0.27838832,19.5626334 C0.28359184,19.578244 0.28879536,19.5925537 0.29399888,19.6081642 C0.3317244,19.7161373 0.37465344,19.8215086 0.42148512,19.9242781 C0.4292904,19.9437913 0.43839656,19.9620036 0.44620184,19.9815168 C0.49303352,20.0816846 0.54376784,20.1831532 0.5984048,20.2807192 C0.60621008,20.2950289 0.61531624,20.3106394 0.6244224,20.3249491 C0.68166112,20.4251169 0.7415016,20.5226829 0.80784648,20.6163462 C0.81044824,20.6202489 0.81305,20.6241515 0.81695264,20.6280542 C0.88199664,20.7243193 0.95224416,20.8166818 1.02639432,20.9064425 C1.03159784,20.9129469 1.03680136,20.9194513 1.04200488,20.9285574 C1.11615504,21.0157164 1.19160608,21.1002736 1.27095976,21.1809282 C1.2813668,21.1913352 1.29047296,21.2017422 1.30088,21.2134502 C1.38023368,21.2941047 1.46088824,21.3708566 1.54674632,21.4437059 C1.55715336,21.4515112 1.56625952,21.4593165 1.57666656,21.4697235 C1.6651264,21.5438737 1.756188,21.616723 1.84855048,21.6843687 C1.85115224,21.6856696 1.853754,21.6869705 1.85635576,21.6895722 C2.05278864,21.8313682 2.26223032,21.9536509 2.47947728,22.0629248 C2.48337992,22.0655266 2.48858344,22.0681283 2.49378696,22.0707301 C2.60045912,22.1240662 2.70973304,22.1708978 2.82030784,22.2138269 C2.82551136,22.2177295 2.83201576,22.2190304 2.83721928,22.2203313 C3.29642992,22.3985518 3.78816256,22.5000205 4.292904,22.515631 L4.30070928,22.515631 C4.42689464,22.5182328 4.55438088,22.5169319 4.68186712,22.5091266 C8.36856104,22.3556228 10.9078788,23.2480265 12.4468198,25.2839037 C12.8344821,25.8341759 13.1805162,26.4585983 13.474515,27.166277 C13.4810194,27.1818876 13.4888247,27.1961973 13.4940282,27.2118078 C14.2394325,29.1214997 15.9019571,30.4653087 17.8259586,30.430185 C18.1381698,30.4249814 18.4568854,30.3872559 18.7821054,30.3066014 C20.3938958,29.8968242 21.5685904,28.6440767 21.9510491,27.1402594 C21.9614562,27.0960295 21.9679606,27.0504987 21.9783676,27.0049679 C21.9991817,26.9113046 22.0199958,26.8189421 22.0356063,26.7252787 C22.0564204,26.5899872 22.0707301,26.4533948 22.0785354,26.3142006 C22.0785354,26.3089971 22.0798362,26.3037936 22.0798362,26.299891 C22.1019512,25.9057243 22.0642257,25.5037524 21.974465,25.1030814 C21.9653588,25.0653558 21.9614562,25.0289312 21.9510491,24.9912057 C21.3955734,22.7914176 19.2738381,21.4736262 17.0701474,21.7338022 C17.051935,21.7364039 17.0350236,21.7364039 17.0168113,21.7377048 C15.9318774,21.8183594 14.9757306,21.7546162 14.0976366,21.6297318 C11.263019,21.2277598 9.36893776,19.372705 8.7549224,17.1026694 C7.86642136,13.8257526 9.57707856,10.6919327 13.4393913,9.08534592 C15.6586926,8.16172112 17.1703151,6.10893248 16.5784147,3.77515376 C16.0775759,1.79261264 14.2953703,0.47221944 12.3388468,0.470681151 C11.9837066,0.46701592 11.6220619,0.51124584 11.2617182,0.60230744" id="Path"></path>
                        <path d="M18.3684256,10.3016687 C18.0575153,10.3055714 17.7374988,10.3432969 17.4122788,10.4252523 C15.8004885,10.8337286 14.6270947,12.0864761 14.2433351,13.5915942 C14.2316272,13.6358242 14.2251228,13.681355 14.2160166,13.7268858 C14.1952026,13.8205491 14.1730876,13.9129116 14.1587779,14.006575 C14.1379638,14.1418665 14.1236542,14.2797598 14.1171498,14.417653 C14.1158489,14.4241574 14.114548,14.4280601 14.114548,14.4319627 C14.0937339,14.8261294 14.1301586,15.2281013 14.2212202,15.6300732 C14.2303263,15.6677987 14.234229,15.7055242 14.244636,15.7419489 L14.244636,15.7432498 C14.8001118,17.9404361 16.9205462,19.2595284 19.1255378,18.9993524 C19.1437501,18.9967506 19.1606615,18.9967506 19.1788738,18.9941489 C20.2638078,18.9134943 21.2199546,18.9785383 22.0993494,19.1021219 C24.933967,19.5040938 26.8267474,21.3604496 27.4407627,23.6304852 C28.3292638,26.9074019 26.6186066,30.0412218 22.7562938,31.6465078 C20.5369926,32.5701326 19.0266709,34.6229212 19.6172704,36.955399 C20.2104717,39.2995848 22.5910821,40.7188449 24.9352678,40.1256436 C27.1324542,39.568867 28.359184,37.4575387 28.1900696,35.243441 C27.8752566,31.1209522 28.977102,28.7000146 33.627748,26.5574652 C33.7435263,26.5041291 33.8567029,26.4455895 33.9659768,26.3818464 C33.9685786,26.3805455 33.9698794,26.3792446 33.9711803,26.3792446 C34.408276,26.1268739 34.7920356,25.8029548 35.1107512,25.4283014 C35.1146538,25.4243987 35.1185565,25.4191952 35.1224591,25.4139917 C35.199211,25.3216292 35.2720603,25.2292667 35.341007,25.1330016 C35.3436087,25.1264972 35.3475114,25.1238954 35.3488122,25.1186919 C35.4893073,24.9209582 35.6141918,24.7128174 35.719563,24.4916678 C35.7208639,24.4903669 35.7221648,24.4877651 35.7221648,24.4864642 C35.7728991,24.381093 35.8184299,24.2731199 35.8600581,24.1664478 C35.8639607,24.153439 35.8691642,24.141731 35.8730669,24.1300231 C35.9133942,24.0259527 35.9485179,23.9192806 35.979739,23.8113075 C35.9849426,23.7969978 35.9875443,23.7813873 35.991447,23.7683785 C36.0226681,23.6578037 36.0499866,23.5485298 36.0721015,23.4366541 C36.0734024,23.4275479 36.0747033,23.4184418 36.077305,23.4093356 C36.09942,23.2974599 36.1163314,23.1829825 36.1293402,23.0672042 C36.1293402,23.0633015 36.1306411,23.0567971 36.1306411,23.0528945 C36.1436499,22.938417 36.1488534,22.8239396 36.1527561,22.7081613 C36.1527561,22.689949 36.154057,22.6743384 36.154057,22.6548252 C36.1566587,22.5442504 36.1527561,22.4323747 36.1462517,22.320499 C36.1462517,22.299685 36.1436499,22.2801718 36.142349,22.2606586 C36.1345438,22.1461811 36.1202341,22.0330046 36.1033226,21.9211289 C36.1007209,21.9042174 36.0968182,21.887306 36.0955174,21.8716954 C36.0760042,21.7520145 36.0525883,21.6336344 36.0213672,21.5139534 C35.9901461,21.3942725 35.9550223,21.279795 35.9159959,21.1640167 C35.9107924,21.149707 35.9055889,21.1327956 35.9003854,21.1184859 C35.8626598,21.0105129 35.8184299,20.9038407 35.7728991,20.8010712 C35.7650938,20.7828589 35.7572886,20.7633457 35.7481824,20.7451334 C35.7013507,20.6436647 35.6506164,20.543497 35.5959794,20.445931 C35.5881742,20.4316213 35.579068,20.4160107 35.5699618,20.4004002 C35.5114222,20.3015333 35.4528826,20.2026664 35.3865378,20.109003 C35.383936,20.1037995 35.3813342,20.0998969 35.3774316,20.0959942 C35.3123876,19.9997291 35.2421401,19.9073666 35.1679899,19.8176059 C35.1614855,19.8111015 35.1575829,19.8032962 35.1523794,19.7967918 C35.0782292,19.7096329 35.0014773,19.6237748 34.9234245,19.5431202 C34.9130174,19.5327132 34.9026104,19.5210053 34.8922034,19.5118991 C34.8128497,19.4312446 34.7321951,19.3544926 34.646337,19.2816434 C34.63593,19.2725372 34.6268238,19.2647319 34.6164168,19.2556258 C34.527957,19.1801747 34.4368954,19.1086263 34.343232,19.0409806 C34.3406302,19.0383788 34.3380285,19.0370779 34.3367276,19.035777 C34.1389938,18.8939811 33.930853,18.7690966 33.7136061,18.6611236 C33.7097034,18.6585218 33.7044999,18.6559201 33.6992964,18.6533183 C33.5926242,18.6012831 33.4833503,18.5531506 33.3727755,18.5102215 C33.3662711,18.5063189 33.3610676,18.505018 33.3545632,18.5037171 C32.8966534,18.3254966 32.4049208,18.2240279 31.9001794,18.2097182 L31.8923741,18.2097182 C31.7661887,18.2058156 31.6400034,18.2084174 31.5125171,18.2162226 L31.5125171,18.2149218 C27.8245223,18.3710274 25.2865054,17.4773228 23.7462635,15.4427465 C23.3599022,14.8924742 23.0138681,14.266751 22.7185683,13.5590722 C22.7120639,13.5447626 22.7042586,13.529152 22.6977542,13.5135414 C21.962757,11.6272654 20.3314535,10.2951643 18.4373722,10.2951643 C18.4165582,10.3016687 18.3918414,10.3016687 18.3684256,10.3016687" id="Path"></path>
                    </g>
                    <g id="Group" transform="translate(46.000000, 8.000000)">
                        <path d="M6.49,19.79 C7.743,19.79 8.198,19.392 8.198,18.651 C8.198,17.74 7.344,17.37 5.92,16.943 C3.329,16.173 0.51,15.121 0.51,11.818 C0.51,9.397 2.076,7.831 5.635,7.831 C8.197,7.831 10.191,8.4 10.191,8.4 C10.334,8.458 10.447,8.571 10.476,8.685 C10.476,8.685 10.761,10.849 10.761,10.962 C10.761,11.134 10.648,11.247 10.476,11.247 C10.334,11.247 8.056,10.678 5.636,10.678 C4.497,10.678 3.928,11.076 3.928,11.818 C3.928,12.728 4.782,13.098 6.206,13.526 C8.797,14.295 11.616,15.319 11.616,18.651 C11.616,20.929 9.765,22.637 6.491,22.637 C3.359,22.637 1.081,21.783 1.081,21.783 C0.938,21.725 0.825,21.611 0.797,21.498 C0.797,21.498 0.512,19.334 0.512,19.22 C0.512,19.049 0.626,18.936 0.797,18.936 C0.937,18.936 3.928,19.79 6.49,19.79" id="Path"></path>
                        <path d="M17.51,13.81 L23.888,13.81 C23.775,12.216 23.063,10.678 21.069,10.678 C18.365,10.678 17.709,12.016 17.51,13.81 M17.51,16.658 C17.738,18.48 18.507,19.79 21.354,19.79 C23.632,19.79 26.052,19.221 26.195,19.221 C26.366,19.221 26.479,19.335 26.479,19.506 C26.479,19.591 26.195,21.783 26.195,21.783 C26.166,21.926 26.081,22.04 25.911,22.068 C25.911,22.068 23.917,22.637 21.354,22.637 C15.232,22.637 13.951,19.305 13.951,15.234 C13.951,11.162 15.262,7.859 21.069,7.859 C25.109,7.859 27.363,10.109 27.363,15.234 L27.363,16.373 C27.363,16.516 27.219,16.658 27.05,16.658 L17.51,16.658 Z" id="Shape"></path>
                        <path d="M30.58,1.54 C30.58,1.369 30.694,1.255 30.865,1.255 L33.713,0.97 C33.883,0.97 33.998,1.084 33.998,1.255 L33.998,20.077 C33.998,21.216 34.282,21.956 34.282,22.07 C34.282,22.241 34.168,22.355 33.998,22.355 L31.15,22.355 C31.036,22.355 30.921,22.241 30.865,22.07 C30.865,22.07 30.58,21.216 30.58,20.077 L30.58,1.54" id="Path"></path>
                        <path d="M38.19,1.54 C38.19,1.369 38.304,1.255 38.475,1.255 L41.323,0.97 C41.493,0.97 41.607,1.084 41.607,1.255 L41.607,20.077 C41.607,21.216 41.891,21.956 41.891,22.07 C41.891,22.241 41.777,22.355 41.607,22.355 L38.759,22.355 C38.645,22.355 38.531,22.241 38.475,22.07 C38.475,22.07 38.19,21.216 38.19,20.077 L38.19,1.54" id="Path"></path>
                        <path d="M48.55,13.81 L54.928,13.81 C54.815,12.216 54.103,10.678 52.109,10.678 C49.403,10.678 48.749,12.016 48.55,13.81 M48.55,16.658 C48.778,18.48 49.547,19.79 52.394,19.79 C54.672,19.79 57.092,19.221 57.235,19.221 C57.406,19.221 57.519,19.335 57.519,19.506 C57.519,19.591 57.235,21.783 57.235,21.783 C57.207,21.926 57.121,22.04 56.951,22.068 C56.951,22.068 54.957,22.637 52.394,22.637 C46.272,22.637 44.991,19.305 44.991,15.234 C44.991,11.162 46.302,7.859 52.109,7.859 C56.149,7.859 58.403,10.109 58.403,15.234 L58.403,16.373 C58.403,16.516 58.259,16.658 58.09,16.658 L48.55,16.658 L48.55,16.658 Z" id="Shape"></path>
                        <path d="M67.88,19.79 C70.727,19.79 71.581,18.082 71.581,15.234 C71.581,12.386 70.727,10.678 67.88,10.678 C65.032,10.678 64.1779991,12.386 64.1779991,15.234 C64.177,18.082 65.032,19.79 67.88,19.79 M67.88,7.83 C72.151,7.83 74.998,10.108 74.998,15.234 C74.998,20.359 72.15,22.637 67.88,22.637 C63.609,22.637 60.761,20.359 60.761,15.234 C60.761,10.108 63.608,7.83 67.88,7.83" id="Shape"></path>
                    </g>
                </g>
            </g>
        </g>
    </g>
</svg>