<?xml version="1.0" encoding="UTF-8"?>
<svg width="117px" height="22px" viewBox="0 0 117 22" version="1.1" xmlns="http://www.w3.org/2000/svg" xmlns:xlink="http://www.w3.org/1999/xlink">
    <title>CCE86294-6F57-4D27-8DA9-DEBBBDDF3BA5@1x</title>
    <g id="Symbols" stroke="none" stroke-width="1" fill="none" fill-rule="evenodd">
        <g id="2021-/-sponsor-grid" transform="translate(-487.000000, -404.000000)" fill="#555555" fill-rule="nonzero">
            <g id="sponsors" transform="translate(0.000000, 1.000000)">
                <g id="row-5" transform="translate(112.000000, 393.000000)">
                    <g id="Wyeworks" transform="translate(375.000000, 10.000000)">
                        <polygon id="Path" points="0 0.439667 3.62809 0.439667 5.11587 13.3309 6.96907 0.465711 9.86632 0.465711 11.7978 13.2788 13.2856 0.439667 16.8615 0.439667 14.1469 21.5344 10.4667 21.5344 8.43075 8.1744 6.47314 21.5344 2.74065 21.5344"></polygon>
                        <polygon id="Path" points="21.197 13.1746 17.073 0.439667 21.1187 0.439667 23.3895 7.86188 25.4776 0.439667 29.4189 0.439667 25.3471 13.1746 25.3471 21.5344 21.197 21.5344"></polygon>
                        <polygon id="Path" points="30.4685 0.439667 39.6823 0.439667 39.6823 3.40855 34.7491 3.40855 34.7491 9.00777 38.5599 9.00777 38.5599 12.0027 34.7491 12.0027 34.7491 18.6176 39.7345 18.6176 39.7345 21.5344 30.4685 21.5344"></polygon>
                        <polygon id="Path" points="40.4149 0.439628 44.043 0.439628 45.5308 13.3308 47.384 0.465672 50.2812 0.465672 52.2127 13.2788 53.7005 0.439628 57.2764 0.439628 54.5619 21.5343 50.8816 21.5343 48.8457 8.17436 46.8881 21.5343 43.1556 21.5343"></polygon>
                        <path d="M64.6937,21.8208 C62.449,21.8208 60.8481,21.2392 59.891,20.0759 C58.934,18.8953 58.4555,17.1678 58.4555,14.8934 L58.4555,7.02847 C58.4555,4.75406 58.934,3.04391 59.891,1.89803 C60.8481,0.752142 62.449,0.179199 64.6937,0.179199 C66.921,0.179199 68.5132,0.760824 69.4702,1.92407 C70.4447,3.06996 70.9319,4.77142 70.9319,7.02847 L70.9319,14.9195 C70.9319,17.1765 70.4447,18.8953 69.4702,20.0759 C68.5132,21.2392 66.921,21.8208 64.6937,21.8208 Z M64.6937,18.7478 C65.4245,18.7478 65.9118,18.5047 66.1554,18.0186 C66.4164,17.5151 66.5469,16.8293 66.5469,15.9612 L66.5469,5.98676 C66.5469,5.11866 66.4164,4.45023 66.1554,3.98146 C65.9118,3.49532 65.4245,3.25226 64.6937,3.25226 C63.9629,3.25226 63.4669,3.49532 63.2059,3.98146 C62.9623,4.45023 62.8405,5.11866 62.8405,5.98676 L62.8405,15.9612 C62.8405,16.8466 62.9623,17.5324 63.2059,18.0186 C63.4495,18.5047 63.9454,18.7478 64.6937,18.7478 Z" id="Shape"></path>
                        <path d="M73.0245,0.439628 L78.5058,0.439628 C80.7853,0.439628 82.4993,0.856314 83.6478,1.68969 C84.7962,2.52306 85.3705,3.9641 85.3705,6.0128 C85.3705,7.38439 85.1791,8.49555 84.7962,9.34629 C84.4134,10.1797 83.7348,10.8134 82.7603,11.2474 L85.6837,21.5343 L81.2726,21.5343 L78.8712,11.9766 L77.3051,11.9766 L77.3051,21.5343 L73.0245,21.5343 L73.0245,0.439628 Z M78.5841,9.42441 C79.5934,9.42441 80.2981,9.18135 80.6983,8.69522 C81.1159,8.19172 81.3248,7.41043 81.3248,6.35136 C81.3248,5.30964 81.142,4.54572 80.7766,4.05959 C80.4112,3.57345 79.75,3.33039 78.7929,3.33039 L77.3051,3.33039 L77.3051,9.42441 L78.5841,9.42441 Z" id="Shape"></path>
                        <polygon id="Path" points="87.4588 0.439628 91.7394 0.439628 91.7394 9.34629 95.5763 0.439628 99.7525 0.439628 95.7851 9.91923 100.066 21.5343 95.7068 21.5343 92.4441 12.1068 91.7394 13.2527 91.7394 21.5343 87.4588 21.5343"></polygon>
                        <path d="M106.201,21.8208 C104.252,21.8208 102.791,21.2913 101.816,20.2322 C100.842,19.1558 100.311,17.4977 100.224,15.258 L103.93,14.633 C103.965,15.9699 104.148,16.9595 104.479,17.6019 C104.827,18.2269 105.34,18.5394 106.018,18.5394 C106.523,18.5394 106.889,18.3832 107.115,18.0706 C107.341,17.7408 107.454,17.3241 107.454,16.8206 C107.454,15.9872 107.263,15.2841 106.88,14.7111 C106.514,14.1208 105.931,13.4784 105.131,12.7839 L102.939,10.8828 C102.068,10.1536 101.399,9.37233 100.929,8.53896 C100.476,7.70559 100.25,6.70728 100.25,5.54403 C100.25,3.8252 100.755,2.50569 101.764,1.58551 C102.791,0.647971 104.2,0.179199 105.992,0.179199 C107.906,0.179199 109.238,0.73478 109.986,1.84594 C110.734,2.93974 111.16,4.33738 111.265,6.03884 L107.532,6.58574 C107.498,5.47458 107.367,4.65857 107.141,4.13771 C106.932,3.59949 106.506,3.33039 105.862,3.33039 C105.392,3.33039 105.027,3.51269 104.766,3.87729 C104.505,4.22452 104.374,4.64121 104.374,5.12734 C104.374,5.82182 104.522,6.41212 104.818,6.89826 C105.131,7.36703 105.618,7.88789 106.28,8.46083 L108.42,10.3359 C109.429,11.2214 110.221,12.1589 110.795,13.1485 C111.369,14.1208 111.656,15.2667 111.656,16.5862 C111.656,17.5932 111.43,18.496 110.978,19.2947 C110.525,20.0759 109.882,20.6923 109.046,21.1437 C108.228,21.5951 107.28,21.8208 106.201,21.8208 Z" id="Path"></path>
                        <ellipse id="Oval" cx="114.955" cy="19.3741" rx="2.04481" ry="2.04022"></ellipse>
                    </g>
                </g>
            </g>
        </g>
    </g>
</svg>