<svg width="154" height="29" viewBox="0 0 154 29" fill="none" xmlns="http://www.w3.org/2000/svg">
<g clip-path="url(#clip0_1_121)">
<path d="M58.8 20.7L57.6 17.7H52L50.8 20.7H47.8L53.4 7.4H56.1L61.8 20.7H58.8ZM54.8 10.9L53 15.2H56.5L54.8 10.9ZM70.3 20.7H65.2V7.5H70.3C74.4 7.5 77.3 10.3 77.3 14.1C77.3 17.8 74.4 20.7 70.3 20.7ZM74.3 14.1C74.3 11.8 72.7 10.1 70.3 10.1H68.1V18H70.3C72.7 18.1 74.3 16.5 74.3 14.1ZM86.6 20.7H81.5V7.5H86.6C90.7 7.5 93.6 10.3 93.6 14.1C93.6 17.8 90.7 20.7 86.6 20.7ZM90.5 14.1C90.5 11.8 88.9 10.1 86.5 10.1H84.3V18H86.5C88.9 18.1 90.5 16.5 90.5 14.1ZM97.8 20.7V7.5H107.8V10.1H100.7V12.8H106.9V15.4H100.7V18.1H107.8V20.7H97.8ZM117.8 16.8H115.6V20.8H112.7V7.5H118.1C121.2 7.5 123.1 9.4 123.1 12.1C123.1 15.2 120.8 16.8 117.8 16.8ZM120.2 12.1C120.2 10.8 119.3 10.1 117.8 10.1H115.6V14.1H117.9C119.4 14.2 120.2 13.3 120.2 12.1ZM135.7 20.7L134.5 17.7H128.9L127.7 20.7H124.7L130.4 7.4H133.1L138.8 20.7H135.7ZM131.7 10.9L129.9 15.2H133.4L131.7 10.9ZM150.3 20.7L147.5 16.5H145.2V20.7H142.3V7.5H148.3C151.4 7.5 153.3 9.1 153.3 11.9C153.3 14 152.1 15.4 150.5 16L153.7 20.7H150.3ZM150.3 12C150.3 10.8 149.4 10.1 148 10.1H145.1V13.9H148C149.5 13.9 150.3 13.2 150.3 12ZM12.9 28.6H0L18.2 0H31.1L12.9 28.6ZM30 28.6H42.9L34.4 15.2H21.5L30 28.6Z" fill="black"/>
</g>
<defs>
<clipPath id="clip0_1_121">
<rect width="154" height="29" fill="white"/>
</clipPath>
</defs>
</svg>
