<svg width="158" height="16" viewBox="0 0 158 16" fill="none" xmlns="http://www.w3.org/2000/svg">
<g clip-path="url(#clip0_1_128)">
<path fill-rule="evenodd" clip-rule="evenodd" d="M150.747 2.87194L157.687 15.3229L153.902 15.3229L152.279 12.3849H142.184L140.562 15.3229H136.776L143.452 2.9255C145.44 -0.765793 148.706 -0.789854 150.747 2.87194ZM145.905 4.91341L143.446 9.6809L151.017 9.6809L148.558 4.91341C147.826 3.4928 146.638 3.49204 145.905 4.91341Z" fill="black"/>
<path fill-rule="evenodd" clip-rule="evenodd" d="M117.127 4.04812H124.157V15.3229H127.943V4.04812H134.974V0.72113H117.127V4.04812Z" fill="black"/>
<path fill-rule="evenodd" clip-rule="evenodd" d="M99.821 0.72113H103.607V9.61435C103.607 11.0534 104.774 12.22 106.214 12.22H116.227V15.3229L104.44 15.1918C101.889 15.1634 99.821 13.0706 99.821 10.521V0.72113Z" fill="black"/>
<path fill-rule="evenodd" clip-rule="evenodd" d="M83.3879 0.558518C83.3879 0.558518 94.0347 -0.188714 93.4915 8.40446C93.1579 13.6817 89.1459 15.5032 83.3879 15.5032C75.1731 15.5032 73.5017 12.0994 73.5017 8.03084C73.5017 -0.188714 83.3879 0.558518 83.3879 0.558518ZM89.6972 8.06809C89.6972 7.76612 89.9607 3.5384 83.4628 3.73972C77.0527 3.73972 77.3161 7.46414 77.3161 8.06809C77.3161 8.67205 77.3161 12.2958 83.4628 12.2958C89.9607 12.5978 89.6972 8.37007 89.6972 8.06809Z" fill="black"/>
<path fill-rule="evenodd" clip-rule="evenodd" d="M49.8865 0.72113C49.8865 0.72113 54.3923 10.2802 56.1959 13.6447C58.2866 16.7036 62.0224 16.4766 63.9475 13.6447C65.0291 11.7984 70.0766 0.72113 70.0766 0.72113H66.1107L61.2945 10.8762C60.5694 12.4052 59.3939 12.4055 58.6686 10.8762L53.8524 0.72113H49.8865Z" fill="black"/>
<path fill-rule="evenodd" clip-rule="evenodd" d="M26.9634 2.52258C26.9634 1.52767 27.7691 0.72113 28.7664 0.72113H44.2692L44.2692 3.96597H30.5688V6.48974H42.8562V9.73458H30.5688V12.2583H44.2692L44.2692 15.3229H28.7664C27.7706 15.3229 26.9634 14.5171 26.9634 13.5215V2.52258Z" fill="black"/>
<path fill-rule="evenodd" clip-rule="evenodd" d="M9.87147 0.540833C16.4989 0.540833 19.8127 2.29464 19.8127 4.6748C19.8127 7.05496 17.2637 7.68132 17.2637 7.68132C17.2637 7.68132 20.3225 8.43295 20.3225 11.0637C20.3225 14.8218 14.0774 15.3229 9.48912 15.3229H1.21337C0.71734 15.3229 0.312622 14.9189 0.312622 14.4205V1.44326C0.312622 0.943883 0.716373 0.540833 1.21443 0.540833H9.87147ZM12.1972 9.68096L4.27854 9.68091V12.3402L4.29291 12.3403C4.60027 12.3429 9.75692 12.3849 12.0301 12.3849C14.3736 12.3849 15.6355 11.9496 15.6355 11.0028C15.6355 9.72597 13.7854 9.68244 12.1972 9.68096ZM12.6173 3.91227L4.27854 3.9123V6.39134L4.29671 6.39145C4.67669 6.39393 10.9071 6.43435 12.478 6.43601L12.5709 6.43606C14.0131 6.43606 15.6355 6.39134 15.6355 5.12417C15.6355 3.87246 13.8765 3.91115 12.6173 3.91227Z" fill="black"/>
</g>
<defs>
<clipPath id="clip0_1_128">
<rect width="157.375" height="15.8637" fill="white" transform="translate(0.312622)"/>
</clipPath>
</defs>
</svg>
