<svg width="152" height="29" viewBox="0 0 152 29" fill="none" xmlns="http://www.w3.org/2000/svg">
<path d="M12.863 27.2856L18.4804 24.4844L5.62732 18.0706L0.0429688 20.8537L12.863 27.2856Z" fill="black"/>
<path d="M20.121 23.6632L25.7194 20.8719L5.62067 10.8498L0.0222778 13.6411L20.121 23.6632Z" fill="black"/>
<path d="M20.1003 16.4358L25.7037 13.6411L20.1053 10.8498L14.502 13.6444L20.1003 16.4358Z" fill="black"/>
<path d="M5.6017 3.62073L0 6.41042L12.8622 12.8242L18.4647 10.0295L5.6017 3.62073Z" fill="black"/>
<path d="M20.1045 9.21908L25.7219 6.41782L20.1202 3.62482L14.4987 6.42608L20.1045 9.21908Z" fill="black"/>
<path d="M12.8622 0L7.24481 2.80291L12.8663 5.60417L18.4837 2.80291L12.8622 0Z" fill="black"/>
<path d="M44.3559 9.02744C43.2611 8.03265 41.8239 7.49984 40.3452 7.54049C37.0483 7.64199 34.4283 10.3439 34.4283 13.6424C34.4283 16.9408 37.0483 19.6428 40.3452 19.7443C41.8378 19.7921 43.2944 19.2806 44.4294 18.3102V20.0359C43.194 20.7436 41.7937 21.1126 40.37 21.1057C38.3632 21.2005 36.4093 20.4447 34.9887 19.0241C33.5681 17.6034 32.8123 15.6496 32.9071 13.6428C32.8453 11.6452 33.6117 9.71086 35.0249 8.29768C36.4381 6.8845 38.3724 6.1181 40.37 6.17992C41.774 6.17238 43.1531 6.55073 44.3567 7.27366L44.3559 9.02744Z" fill="black"/>
<path d="M49.3282 16.8795L47.8206 20.8661H46.2642L51.8552 6.42615H53.7758L59.4403 20.8661H57.836L56.3293 16.8795H49.3282ZM52.8044 7.64215L49.79 15.6155H55.8468L52.8044 7.64215Z" fill="black"/>
<path d="M63.3691 20.8661H61.8615V6.40135C62.7718 6.27232 63.6891 6.19922 64.6083 6.18243C68.4975 6.18243 70.2256 7.98165 70.2256 10.6557C70.3105 12.641 69.0058 14.4192 67.0865 14.934L71.8778 20.8661H70.0051L65.5326 15.2752H63.3691V20.8661ZM63.3691 14.0352H64.8751C67.2575 14.0352 68.6668 12.9167 68.6668 10.7053C68.6668 8.8573 67.5243 7.49674 64.5826 7.49674C64.291 7.49674 63.707 7.52069 63.3675 7.54548L63.3691 14.0352Z" fill="black"/>
<path d="M74.1892 6.37818C75.1734 6.25812 76.1635 6.19304 77.1549 6.18323C83.7636 6.18323 86.0039 9.61066 86.0039 13.3057C86.0039 17.366 83.6454 21.109 77.3498 21.109C76.2927 21.1033 75.237 21.0302 74.1892 20.8901V6.37818ZM75.696 19.6997C76.2524 19.7671 76.8125 19.7996 77.3729 19.7971C81.5034 19.7971 84.4228 17.7319 84.4228 13.3305C84.4228 9.92705 82.2593 7.54792 77.1053 7.54792C76.6435 7.54792 76.2057 7.57271 75.6952 7.62062L75.696 19.6997Z" fill="black"/>
<path d="M88.2575 18.3383C89.2587 19.2654 90.5644 19.7942 91.9286 19.8252C93.6543 19.8252 95.1371 19.071 95.1371 17.1751C95.1371 15.4494 93.8484 14.7927 92.1227 14.1608C89.5462 13.2124 88.1575 12.3615 88.1575 9.9064C88.1575 7.45127 90.1996 6.18901 92.3631 6.18901C93.6113 6.1595 94.8312 6.5632 95.8154 7.33149V8.88701C94.8758 8.01059 93.6476 7.50891 92.3631 7.47688C90.7341 7.47688 89.6164 8.44918 89.6164 9.93201C89.6164 11.3182 90.4425 11.9972 92.5333 12.7275C95.2074 13.6511 96.6175 14.6481 96.6175 17.176C96.6175 19.8261 94.5267 21.1139 91.9253 21.1139C90.6111 21.1611 89.3188 20.7673 88.2542 19.9954L88.2575 18.3383Z" fill="black"/>
<path d="M104.455 20.8661H102.944V7.7388H98.1796V6.42615H109.223V7.7388H104.458L104.455 20.8661Z" fill="black"/>
<path d="M111.29 16.8795L109.784 20.8661H108.228L113.819 6.42615H115.74L121.403 20.8661H119.799L118.292 16.8795H111.29ZM114.767 7.64215L111.752 15.6155H117.805L114.767 7.64215Z" fill="black"/>
<path d="M133.74 9.02744C132.645 8.03245 131.208 7.49962 129.729 7.54049C126.432 7.64199 123.812 10.3439 123.812 13.6424C123.812 16.9408 126.432 19.6428 129.729 19.7443C131.221 19.792 132.678 19.2805 133.813 18.3102V20.0359C132.578 20.7436 131.177 21.1126 129.753 21.1057C127.747 21.2005 125.793 20.4447 124.372 19.0241C122.952 17.6034 122.196 15.6496 122.291 13.6428C122.229 11.6452 122.995 9.71086 124.408 8.29768C125.822 6.8845 127.756 6.1181 129.753 6.17992C131.157 6.17238 132.537 6.55073 133.74 7.27366V9.02744Z" fill="black"/>
<path d="M136.932 6.42615H138.439V20.8661H136.932V6.42615ZM145.052 6.42615H146.924L140.409 13.6222L147.386 20.8661H145.442L138.537 13.7676L145.052 6.42615Z" fill="black"/>
<path d="M150.139 18.5977C150.726 18.592 151.258 18.9412 151.487 19.4818C151.715 20.0225 151.595 20.6476 151.182 21.0647C150.769 21.4818 150.145 21.6083 149.602 21.385C149.059 21.1617 148.705 20.6328 148.705 20.0458C148.693 19.6606 148.839 19.2874 149.111 19.0135C149.382 18.7397 149.754 18.5893 150.139 18.5977ZM150.139 21.3188C150.657 21.3306 151.13 21.0277 151.336 20.5526C151.542 20.0776 151.441 19.525 151.078 19.1547C150.716 18.7844 150.166 18.6702 149.687 18.8658C149.207 19.0615 148.894 19.5279 148.894 20.0458C148.877 20.3834 149.002 20.7126 149.238 20.9542C149.475 21.1958 149.801 21.328 150.139 21.3188ZM149.946 20.8612H149.568V19.2296C149.734 19.1965 149.903 19.1791 150.073 19.1776C150.511 19.1776 150.78 19.3759 150.78 19.7559C150.787 19.9641 150.665 20.1553 150.473 20.2366L150.935 20.8587H150.487L150.101 20.3209H149.947L149.946 20.8612ZM149.946 20.0351H150.078C150.271 20.0351 150.398 19.9599 150.398 19.7757C150.398 19.6055 150.285 19.5163 150.078 19.5163C150.033 19.5167 149.989 19.52 149.946 19.5262V20.0351Z" fill="#FFF8EE"/>
</svg>
