<svg width="115" height="25" viewBox="0 0 115 25" fill="none" xmlns="http://www.w3.org/2000/svg">
<g clip-path="url(#clip0_1_164)">
<path d="M0 12.4907C0 5.60459 5.41328 0.17218 12.3759 0.17218C16.0677 0.17218 19.4916 1.75982 21.6531 4.43777C22.0548 4.9351 22.1887 5.26028 22.1887 5.62372C22.1887 6.31233 21.5766 6.88618 20.8497 6.88618C20.3715 6.88618 19.989 6.71403 19.6638 6.31233C17.7892 3.95956 15.3408 2.77362 12.4142 2.77362C7.00092 2.77362 2.92662 6.96269 2.92662 12.4907C2.92662 18.0188 7.00092 22.2079 12.4142 22.2079C15.3408 22.2079 17.7892 20.9837 19.6638 18.6692C19.989 18.2675 20.3907 18.0953 20.8497 18.0953C21.5766 18.0953 22.1887 18.6692 22.1887 19.3578C22.1887 19.7212 22.0357 20.0464 21.6531 20.5437C19.5682 23.2217 16.0868 24.8093 12.3759 24.8093C5.41328 24.7902 0 19.3769 0 12.4907ZM27.3725 23.2791V2.02762C27.3725 1.2051 27.9463 0.554744 28.788 0.554744C29.5913 0.554744 30.2034 1.2051 30.2034 2.02762V22.2461H40.3414C41.1065 22.2461 41.6421 22.7817 41.6421 23.5086C41.6421 24.1972 41.1065 24.7711 40.3414 24.7711H28.8645C27.9846 24.7711 27.3725 24.1207 27.3725 23.2791ZM91.5476 23.5277C91.5476 24.2163 90.9737 24.7902 90.2086 24.7902C89.7687 24.7902 89.3861 24.5415 88.9844 24.0251L81.7922 14.3844H76.3789V23.3364C76.3789 24.1398 75.7668 24.7711 74.9634 24.7711C74.1409 24.7711 73.548 24.1207 73.548 23.3364V2.02762C73.548 1.22423 74.1601 0.593001 74.9826 0.593001H81.907C86.4595 0.593001 89.52 3.36659 89.52 7.47915C89.52 10.6544 87.722 13.0455 84.7953 13.9827L91.0503 22.4757C91.3754 22.82 91.5476 23.1834 91.5476 23.5277ZM76.3981 11.8786H81.8496C84.8527 11.8786 86.6508 10.2145 86.6508 7.51741C86.6508 4.83946 84.8145 3.11792 81.8496 3.11792H76.3981V11.8786ZM99.7536 1.66418V23.3173C99.7536 24.1398 99.1415 24.7902 98.3381 24.7902C97.5156 24.7902 96.9226 24.1398 96.9226 23.3173V1.66418C96.9226 0.841667 97.4965 0.191308 98.3381 0.191308C99.1415 0.17218 99.7536 0.822539 99.7536 1.66418ZM114.769 23.5277C114.769 24.2163 114.195 24.7902 113.469 24.7902C113.105 24.7902 112.742 24.618 112.34 24.2163L100.959 12.5864C100.71 12.2995 100.519 11.9743 100.519 11.6108C100.519 11.2474 100.691 10.9222 100.997 10.5971L111.326 0.746026C111.766 0.344334 112.053 0.17218 112.416 0.17218C113.143 0.17218 113.717 0.746026 113.717 1.43464C113.717 1.83633 113.545 2.16151 113.105 2.56321L103.656 11.63L114.234 22.4948C114.616 22.82 114.769 23.1069 114.769 23.5277ZM68.0582 22.5331L58.9149 1.14772C58.6279 0.49736 58.188 0.17218 57.5759 0.17218C56.9638 0.17218 56.5238 0.49736 56.2369 1.14772L47.0936 22.5139C46.9406 22.8774 46.8832 23.1643 46.8832 23.4129C46.8832 24.1398 47.4953 24.7902 48.2605 24.7902C48.8726 24.7902 49.3508 24.4267 49.5994 23.8529L51.3401 19.7021L51.3975 19.5491L52.4495 17.0241L57.5759 4.39951L62.5492 17.0433L63.6395 19.5682L65.5524 23.872C65.8393 24.4459 66.2792 24.8093 66.9296 24.8093C67.6565 24.8093 68.3068 24.1589 68.3068 23.4321C68.3068 23.1834 68.2303 22.8774 68.0582 22.5331Z" fill="black"/>
</g>
<defs>
<clipPath id="clip0_1_164">
<rect width="114.769" height="24.8667" fill="white"/>
</clipPath>
</defs>
</svg>
