<svg width="173" height="31" viewBox="0 0 173 31" fill="none" xmlns="http://www.w3.org/2000/svg">
<g clip-path="url(#clip0_1_171)">
<path fill-rule="evenodd" clip-rule="evenodd" d="M27.515 14.7719V14.4649L24.915 12.2269H24.612C23.897 13.0169 22.793 13.6089 21.558 13.6089C19.63 13.6089 18.113 12.1389 18.113 10.1209C18.113 8.10291 19.63 6.63291 21.558 6.63291C22.793 6.63291 23.897 7.2249 24.612 8.0149H24.915L27.515 5.77691V5.46991C26.15 3.80291 24.006 2.72791 21.579 2.72791C17.117 2.72791 13.738 5.8869 13.738 10.1209C13.738 10.2849 13.775 10.4359 13.786 10.5969C15.612 11.8389 17.224 12.8329 18.612 13.7429C20.613 15.0089 22.228 16.1739 23.558 17.2569C25.216 16.8379 26.56 15.9289 27.515 14.7719ZM15.367 14.6929C16.409 15.9729 17.88 16.8909 19.615 17.2829C18.443 16.6239 17.308 15.9769 16.251 15.2609C15.941 15.0689 15.665 14.8829 15.367 14.6929Z" fill="black"/>
<path fill-rule="evenodd" clip-rule="evenodd" d="M42.571 16.5709L41.921 13.7629L41.683 13.6089C41.553 13.6749 41.445 13.7629 41.12 13.7629C40.621 13.7629 40.318 13.2359 40.058 12.8199C39.625 12.1609 39.278 11.8099 38.975 11.6569C40.556 10.9549 41.618 9.63891 41.618 7.75191C41.618 4.83391 39.625 2.99091 35.921 2.99091H29.465V17.2509H33.754V12.2489H34.144C35.097 12.2489 36.311 14.3109 36.874 15.2329C38.044 17.0979 38.975 17.5139 40.643 17.5139C41.423 17.5139 42.073 17.2289 42.463 16.8779L42.571 16.5709ZM37.242 7.99291C37.242 8.93691 36.549 9.39691 35.747 9.39691H33.754V6.50091H35.747C36.549 6.50091 37.242 7.02791 37.242 7.99291Z" fill="black"/>
<path fill-rule="evenodd" clip-rule="evenodd" d="M59.143 10.1209C59.143 5.8869 55.764 2.72791 51.28 2.72791C46.795 2.72791 43.416 5.8869 43.416 10.1209C43.416 14.3549 46.795 17.5139 51.28 17.5139C55.764 17.5139 59.143 14.3329 59.143 10.1209ZM54.767 10.1209C54.767 12.1609 53.207 13.6089 51.28 13.6089C49.352 13.6089 47.792 12.1609 47.792 10.1209C47.792 8.0809 49.352 6.63291 51.28 6.63291C53.207 6.63291 54.767 8.0809 54.767 10.1209Z" fill="black"/>
<path fill-rule="evenodd" clip-rule="evenodd" d="M80.61 2.99115H76.516L73.981 10.8891L71.295 2.99115H68.696L66.031 10.8451L63.497 2.99115H59.402L59.207 3.32015L64.45 17.2511H67.049L69.995 9.48515L72.963 17.2511H75.563L80.805 3.32015L80.61 2.99115Z" fill="black"/>
<path fill-rule="evenodd" clip-rule="evenodd" d="M96.51 10.0991C96.51 5.84315 93.673 2.99115 89.059 2.99115H82.495V17.2511H89.059C93.673 17.2511 96.51 14.3991 96.51 10.0991ZM92.135 10.1212C92.135 12.4462 90.769 13.7411 88.885 13.7411H86.784V6.50115H88.885C90.769 6.50115 92.135 7.79615 92.135 10.1212Z" fill="black"/>
<path fill-rule="evenodd" clip-rule="evenodd" d="M119.232 6.50115H123.521V2.99115H110.654V6.50115H114.943V17.2511H119.232V6.50115Z" fill="black"/>
<path fill-rule="evenodd" clip-rule="evenodd" d="M137.233 7.75117C137.233 4.83317 135.24 2.99017 131.536 2.99017H125.08V17.2502H129.37V12.2482H130.388L133.052 17.2502H137.32L137.515 16.9212L134.655 11.6342C136.193 10.9102 137.233 9.61617 137.233 7.75117ZM132.857 7.99217C132.857 8.93617 132.164 9.39617 131.362 9.39617H129.37V6.50017H131.362C132.164 6.50017 132.857 7.02717 132.857 7.99217Z" fill="black"/>
<path fill-rule="evenodd" clip-rule="evenodd" d="M139.832 17.2511H144.121V2.99115H139.832V17.2511Z" fill="black"/>
<path fill-rule="evenodd" clip-rule="evenodd" d="M154.996 9.37515L159.848 3.32015L159.653 2.99115H155.083L151.118 8.05915V2.99115H146.829V17.2511H151.118V12.8631L151.898 11.9422L155.538 17.2511H160.022L160.217 16.9222L154.996 9.37515Z" fill="black"/>
<path fill-rule="evenodd" clip-rule="evenodd" d="M161.386 2.99017V17.2512H172.173V13.7412H165.674V11.7662H170.57V8.47517H165.674V6.50117H172.109V2.99017H161.386Z" fill="black"/>
<path fill-rule="evenodd" clip-rule="evenodd" d="M103.766 17.4199C106.908 17.4199 109.635 15.8849 109.635 12.9249C109.635 9.69886 106.886 8.86486 104.46 8.16286C103.506 7.87786 102.53 7.54786 102.53 6.84586C102.53 6.34086 103.072 6.03386 103.896 6.03386C105.305 6.03386 106.496 6.91186 107.102 7.48286H107.405L109.419 5.06986V4.76286C108.358 3.55686 106.193 2.63586 103.809 2.63586C100.473 2.63586 98.157 4.43386 98.157 7.04386C98.157 9.85286 100.711 11.0819 102.877 11.6959C104.286 12.0909 105.241 12.1569 105.241 12.9249C105.241 13.4739 104.568 13.8029 103.527 13.8029C102.205 13.8029 100.603 12.9469 99.824 12.1789H99.521L97.529 14.6799V14.9869C98.806 16.4119 101.101 17.4199 103.766 17.4199Z" fill="black"/>
<path fill-rule="evenodd" clip-rule="evenodd" d="M29.82 30.5269C28.781 28.1489 26.694 25.0979 18.518 20.7409C14.748 18.6449 8.30701 15.4179 2.51401 9.28485C3.03901 11.4989 5.72901 16.3639 17.299 22.4389C20.503 24.1919 25.921 25.8359 29.82 30.5269Z" fill="black"/>
<path fill-rule="evenodd" clip-rule="evenodd" d="M29.298 26.4539C28.312 23.6439 26.532 20.0459 18.091 14.7019C13.98 12.0079 7.945 8.62488 0 -0.00012207C0.568 2.32488 3.078 8.37088 15.73 16.2199C19.886 19.0359 25.25 20.7729 29.298 26.4539Z" fill="black"/>
</g>
<defs>
<clipPath id="clip0_1_171">
<rect width="173" height="31" fill="white"/>
</clipPath>
</defs>
</svg>
