<svg width="149" height="41" viewBox="0 0 149 41" fill="none" xmlns="http://www.w3.org/2000/svg">
<path fill-rule="evenodd" clip-rule="evenodd" d="M20.1681 0C31.1909 0 40.1419 8.83245 40.3331 19.8094L40.3362 20.1681C40.3362 31.1909 31.5038 40.1419 20.5268 40.3331L20.1681 40.3362C9.14532 40.3362 0.194342 31.5038 0.00312201 20.5268L0 20.1681C0 9.14532 8.83245 0.194342 19.8094 0.00312201L20.1681 0ZM15.9315 12.4628C15.9315 11.7942 15.4301 11.4042 14.7615 11.6271L9.58023 13.5213C8.91167 13.7442 8.41026 14.4684 8.41026 15.1927V27.7838C8.41026 28.4524 8.91167 28.8424 9.58023 28.6195L14.7615 26.7253C15.4301 26.5024 15.9315 25.7782 15.9315 25.0539V12.4628ZM16.8205 12.4628V25.0539C16.8205 25.7782 17.3219 26.5024 17.9905 26.7253L23.1718 28.6195C23.8404 28.8424 24.3418 28.4524 24.3418 27.7838V15.1927C24.3418 14.4684 23.8404 13.7442 23.1718 13.5213L17.9905 11.6271C17.3219 11.4042 16.8205 11.7942 16.8205 12.4628ZM32.8635 12.5181C32.8635 11.7938 32.3063 11.4038 31.6378 11.6267L26.4565 13.3538C25.7879 13.5766 25.2308 14.3009 25.2308 15.0252V27.6163C25.2308 28.3406 25.7879 28.7306 26.4565 28.5077L31.6378 26.7806C32.3063 26.5578 32.8635 25.8335 32.8635 25.1092V12.5181Z" fill="black"/>
<path d="M62.2094 26.0823V24.3587H53.4236V19.4536H61.4116V17.7792H53.4236V13.3863H62.0617V11.6133H51.5128V26.0823H62.2094ZM66.3167 26.0823V20.4878C66.3167 19.1285 66.5908 18.1896 67.1391 17.6708C67.6874 17.1521 68.2965 16.8927 68.9662 16.8927C69.7017 16.8927 70.204 17.1389 70.4732 17.6314C70.6439 17.9597 70.7293 18.4818 70.7293 19.1975V26.0823H72.5318V19.9461C72.5318 18.856 72.7829 18.0779 73.2853 17.6117C73.7876 17.1455 74.3868 16.9124 75.0828 16.9124C75.5884 16.9124 76.0169 17.0437 76.3682 17.3064C76.7195 17.569 76.8951 18.0517 76.8951 18.7543V26.0823H78.737V19.0596C78.737 18.1272 78.5991 17.3852 78.3233 16.8336C77.8111 15.8092 76.8459 15.2971 75.4275 15.2971C74.7643 15.2971 74.1668 15.4333 73.6349 15.7058C73.1031 15.9783 72.6401 16.3969 72.2461 16.9616C72.0097 16.502 71.7471 16.154 71.4582 15.9176C70.946 15.5039 70.2697 15.2971 69.4292 15.2971C68.6872 15.2971 68.024 15.4973 67.4396 15.8979C67.0981 16.1343 66.7173 16.5118 66.297 17.0306V15.5335H64.5438V26.0823H66.3167ZM85.9272 26.4172C87.3586 26.4172 88.4782 25.8656 89.2859 24.7625C90.0935 23.6593 90.4974 22.2738 90.4974 20.606C90.4974 18.8462 90.0886 17.5149 89.2711 16.612C88.4536 15.7091 87.3882 15.2577 86.0749 15.2577C85.4445 15.2577 84.8601 15.3906 84.3217 15.6566C83.7833 15.9225 83.3203 16.3083 82.9329 16.8139V11.5641H81.2092V26.0823H82.8443V24.7329C83.2185 25.2386 83.5698 25.6063 83.8982 25.8361C84.4497 26.2235 85.1261 26.4172 85.9272 26.4172ZM85.8188 24.8511C84.545 24.8511 83.6749 24.27 83.2087 23.1078C82.9592 22.4905 82.8344 21.6861 82.8344 20.6946C82.8344 19.3223 83.1381 18.3373 83.7455 17.7398C84.3529 17.1422 85.0604 16.8435 85.8681 16.8435C86.7939 16.8435 87.4949 17.2079 87.971 17.9368C88.447 18.6656 88.6851 19.5849 88.6851 20.6946C88.6851 21.9422 88.447 22.9469 87.971 23.7086C87.4949 24.4703 86.7775 24.8511 85.8188 24.8511ZM96.6829 26.4566C97.2213 26.4566 97.704 26.4041 98.1308 26.299C98.9253 26.1152 99.5918 25.7606 100.13 25.2353C100.452 24.9332 100.743 24.5442 101.002 24.0681C101.261 23.592 101.414 23.1603 101.46 22.7729H99.7166C99.5852 23.2391 99.362 23.6495 99.0468 24.0041C98.4952 24.6148 97.7565 24.9201 96.8306 24.9201C95.8391 24.9201 95.107 24.5967 94.6342 23.9499C94.1614 23.3031 93.9086 22.4446 93.8758 21.3742H101.608C101.608 20.3105 101.555 19.5357 101.45 19.0498C101.332 18.3406 101.095 17.7201 100.741 17.1882C100.373 16.63 99.838 16.1753 99.1354 15.824C98.4328 15.4727 97.7073 15.2971 96.9587 15.2971C95.4747 15.2971 94.273 15.8257 93.3537 16.8828C92.4344 17.94 91.9748 19.3157 91.9748 21.0098C91.9748 22.7302 92.4312 24.0681 93.3439 25.0235C94.2566 25.9789 95.3696 26.4566 96.6829 26.4566ZM99.7855 19.9658H93.925C93.9579 19.0596 94.2501 18.3127 94.8016 17.725C95.3532 17.1373 96.0361 16.8435 96.8503 16.8435C97.9863 16.8435 98.7973 17.2703 99.2832 18.1239C99.5458 18.5835 99.7133 19.1975 99.7855 19.9658ZM105.607 26.0823V20.015C105.607 19.2664 105.846 18.6049 106.326 18.0303C106.805 17.4558 107.491 17.1685 108.384 17.1685C108.489 17.1685 108.586 17.1718 108.675 17.1783C108.763 17.1849 108.86 17.198 108.965 17.2177V15.3463C108.775 15.3266 108.64 15.3135 108.561 15.3069C108.483 15.3004 108.427 15.2971 108.394 15.2971C107.691 15.2971 107.071 15.5515 106.532 16.0604C105.994 16.5693 105.656 17.001 105.518 17.3556V15.5335H103.834V26.0823H105.607ZM112.56 26.0823L112.56 17.4534C112.559 17.1111 112.551 16.6073 112.536 15.9422C112.519 15.2166 112.511 14.6765 112.511 14.322V13.8787L116.668 26.0823H118.608L122.735 13.8787C122.735 14.6601 122.728 15.3923 122.715 16.0752C122.702 16.7581 122.696 17.2473 122.696 17.5428V26.0823H124.557V11.6133H121.78L117.653 23.8465L113.496 11.6133H110.689V26.0823H112.56ZM130.142 26.4369C130.956 26.4369 131.701 26.2629 132.378 25.9149C133.054 25.5669 133.573 25.1565 133.934 24.6837C133.993 25.1039 134.095 25.429 134.239 25.6588C134.515 26.0922 134.958 26.3089 135.569 26.3089C135.818 26.3089 136.015 26.299 136.16 26.2793C136.304 26.2596 136.515 26.2104 136.79 26.1316V24.8216C136.679 24.8413 136.574 24.8561 136.475 24.8659C136.377 24.8758 136.288 24.8807 136.209 24.8807C135.966 24.8807 135.807 24.8249 135.731 24.7132C135.656 24.6016 135.618 24.4539 135.618 24.27V18.1928C135.618 17.1948 135.234 16.4593 134.466 15.9865C133.691 15.5138 132.683 15.2774 131.442 15.2774C130.372 15.2774 129.431 15.5318 128.62 16.0407C127.809 16.5496 127.387 17.4541 127.354 18.7543H129.009C129.075 18.2093 129.216 17.7989 129.433 17.5231C129.82 17.024 130.477 16.7745 131.403 16.7745C132.204 16.7745 132.819 16.9108 133.249 17.1833C133.679 17.4558 133.895 17.8941 133.895 18.4982C133.895 18.7937 133.855 19.0202 133.776 19.1778C133.638 19.4667 133.366 19.6374 132.959 19.69L130.132 20.0446C129.14 20.1693 128.339 20.5009 127.729 21.0394C127.118 21.5778 126.813 22.3362 126.813 23.3146C126.813 24.2076 127.123 24.9513 127.743 25.5455C128.364 26.1398 129.163 26.4369 130.142 26.4369ZM130.556 24.9299C130.043 24.9299 129.6 24.7822 129.226 24.4867C128.852 24.1912 128.664 23.7874 128.664 23.2752C128.664 22.5989 128.937 22.1064 129.482 21.7978C129.804 21.6139 130.286 21.4793 130.93 21.3939L132.003 21.2561C132.332 21.2167 132.667 21.151 133.008 21.0591C133.35 20.9671 133.629 20.8522 133.845 20.7143V22.1425C133.845 23.2325 133.353 24.0172 132.368 24.4966C131.783 24.7855 131.179 24.9299 130.556 24.9299ZM140.159 30.2881V24.9004C140.546 25.3797 140.898 25.7179 141.213 25.9149C141.751 26.2629 142.418 26.4369 143.212 26.4369C144.223 26.4369 145.11 26.125 145.872 25.5012C147.073 24.5163 147.674 22.8747 147.674 20.5764C147.674 18.8757 147.257 17.5674 146.423 16.6514C145.589 15.7354 144.575 15.2774 143.38 15.2774C142.572 15.2774 141.869 15.4744 141.272 15.8683C140.852 16.131 140.464 16.502 140.11 16.9813V15.5827H138.386V30.2881H140.159ZM142.976 24.8905C141.754 24.8905 140.914 24.3455 140.454 23.2555C140.211 22.6842 140.09 21.9915 140.09 21.1773C140.09 20.166 140.211 19.3321 140.454 18.6755C140.907 17.4476 141.748 16.8336 142.976 16.8336C144.197 16.8336 145.038 17.4147 145.497 18.577C145.74 19.1811 145.862 19.9034 145.862 20.7439C145.862 22.1228 145.588 23.1587 145.039 23.8514C144.491 24.5442 143.803 24.8905 142.976 24.8905Z" fill="black"/>
</svg>
