<svg width="135" height="37" viewBox="0 0 135 37" fill="none" xmlns="http://www.w3.org/2000/svg">
<g clip-path="url(#clip0_1_190)">
<path fill-rule="evenodd" clip-rule="evenodd" d="M5.32269 36.0558C6.61351 36.0619 7.71653 35.7285 8.65969 35.031C9.25108 34.5939 9.7209 33.9889 9.11005 33.284C8.82444 32.9545 8.16729 32.7931 7.52316 33.3474C7.01966 33.7807 6.08422 33.9406 5.32269 33.8764C4.58218 33.8139 3.75639 33.413 3.29149 32.9243C2.9306 32.5448 2.6779 32.0144 2.57208 31.5278H9.30042C9.92198 31.5278 10.4218 31.1259 10.4218 30.491C10.4218 27.6986 8.07225 25.4765 5.32269 25.4765C2.42402 25.4765 0.160034 27.8885 0.160034 30.7661C0.160034 33.6437 2.42405 36.0419 5.32269 36.0558ZM5.32269 27.5488C7.16894 27.5808 8.24254 28.883 8.45409 29.7294H2.46629C2.63553 28.8618 3.52268 27.5176 5.32269 27.5488ZM23.1042 27.7405C24.2679 27.7405 25.2412 28.714 25.2412 29.9198V34.9343C25.2412 35.5476 25.7702 36.0557 26.3838 36.0557C26.9973 36.0557 27.5051 35.5479 27.5051 34.9343V29.9198C27.5051 27.4654 25.5374 25.4765 23.1042 25.4765C21.7712 25.4765 20.5652 26.0266 19.7824 26.9365C18.9783 26.0266 17.7934 25.4765 16.4605 25.4765C15.6565 25.4765 14.8736 25.7093 14.1966 26.1113C14.0273 25.7093 13.6252 25.4765 13.1809 25.4765C12.5673 25.4765 12.0595 25.9636 12.0595 26.6191V34.9343C12.0595 35.5687 12.5705 36.0557 13.1809 36.0557C13.8176 36.0557 14.3235 35.5211 14.3235 34.8959V29.9198C14.3235 28.7137 15.2968 27.7405 16.4605 27.7405C17.6453 27.7405 18.6192 28.6926 18.6398 29.8563C18.6401 29.8772 18.6398 29.8988 18.6398 29.9198V34.9343C18.6398 35.5476 19.1899 36.0557 19.7824 36.0557C20.396 36.0557 20.9037 35.5479 20.9037 34.9343V29.9198C20.9037 29.8986 20.903 29.8772 20.9037 29.8563C20.9451 28.6926 21.8982 27.7405 23.1042 27.7405ZM29.4266 34.9131C29.4266 35.5267 29.9344 36.0557 30.5692 36.0557C31.1404 36.0557 31.5847 35.6537 31.6905 35.1459C32.4945 35.696 33.5102 36.0557 34.568 36.0557C37.4244 36.0557 39.7096 33.6437 39.7096 30.7872C39.7096 27.8886 37.4244 25.4765 34.568 25.4765C33.5313 25.4765 32.5157 25.815 31.7328 26.3652V22.3874C31.7328 21.7738 31.225 21.2449 30.5692 21.2449C29.9344 21.2449 29.4266 21.7739 29.4266 22.3874V34.9131ZM32.5792 28.6503C33.1081 28.1001 33.7852 27.7828 34.568 27.7828C35.3298 27.7828 36.028 28.1001 36.557 28.6503C37.0859 29.1792 37.4033 29.9409 37.4033 30.7872C37.4033 31.5913 37.0859 32.353 36.557 32.882C36.028 33.4321 35.3298 33.7495 34.568 33.7495C33.7852 33.7495 33.1081 33.4321 32.5792 32.882C32.0502 32.353 31.7328 31.5913 31.7328 30.7872C31.7328 29.9409 32.0502 29.1792 32.5792 28.6503ZM46.1809 36.0558C47.5305 36.0621 48.6746 35.6976 49.6455 34.9337C50.1935 34.5028 50.5153 33.9151 49.9682 33.284C49.6826 32.9543 48.9521 32.8289 48.3814 33.3474C47.8896 33.7942 46.9425 33.9407 46.1809 33.8764C45.4403 33.8138 44.6147 33.4131 44.1497 32.9243C43.7887 32.5447 43.5361 32.0144 43.4303 31.5278H50.1586C50.8484 31.5278 51.3167 31.0359 51.28 30.3853C51.112 27.5289 48.9314 25.4765 46.1809 25.4765C43.2822 25.4765 41.0182 27.8885 41.0182 30.7661C41.0182 33.6437 43.2822 36.0418 46.1809 36.0558ZM46.1809 27.5488C48.0273 27.5809 49.1008 28.883 49.3123 29.7294H43.3245C43.4937 28.8618 44.3808 27.5175 46.1809 27.5488ZM58.2323 25.4977C57.1743 25.4847 56.2616 25.8537 55.5663 26.3229C55.4156 26.4245 55.2489 26.5979 55.1219 26.746V26.5979C55.1219 25.9843 54.593 25.4977 53.9582 25.4977C53.3446 25.4977 52.8368 25.9848 52.8368 26.5979V34.9343C52.8368 35.5475 53.3446 36.0557 53.9582 36.0557C54.593 36.0557 55.1219 35.5479 55.1219 34.9343V31.0698C55.1219 30.169 55.6247 29.336 56.2002 28.7619C56.782 28.1816 57.3817 27.7605 58.2323 27.7193C58.8662 27.6886 59.3536 27.1904 59.3536 26.5979C59.3536 25.9843 58.8667 25.5055 58.2323 25.4977Z" fill="black"/>
<path fill-rule="evenodd" clip-rule="evenodd" d="M66.2337 36.2323C65.4711 36.2323 64.7679 36.0936 64.1242 35.8163C63.4804 35.539 62.9233 35.1602 62.4529 34.6799C61.9825 34.1996 61.6136 33.6325 61.3462 32.9789C61.0788 32.3253 60.9451 31.6271 60.9451 30.8843V30.8546C60.9451 30.1118 61.0763 29.4161 61.3388 28.7674C61.6012 28.1187 61.9701 27.5493 62.4455 27.059C62.9209 26.5688 63.4854 26.1825 64.139 25.9003C64.7927 25.618 65.5156 25.4769 66.3079 25.4769C66.7833 25.4769 67.2166 25.5165 67.6078 25.5957C67.999 25.675 68.358 25.7864 68.6848 25.93C69.0116 26.0736 69.3137 26.2444 69.591 26.4425C69.8683 26.6406 70.1307 26.8584 70.3783 27.0961L69.2048 28.448C68.7888 28.0617 68.3481 27.7498 67.8826 27.5121C67.4171 27.2744 66.8873 27.1556 66.2931 27.1556C65.7979 27.1556 65.3399 27.2521 64.919 27.4452C64.4981 27.6384 64.1341 27.9008 63.8271 28.2326C63.5201 28.5643 63.2824 28.9531 63.114 29.3987C62.9456 29.8444 62.8615 30.3198 62.8615 30.8249V30.8546C62.8615 31.3597 62.9456 31.8375 63.114 32.2881C63.2824 32.7388 63.5201 33.1324 63.8271 33.4691C64.1341 33.8059 64.4981 34.0708 64.919 34.2639C65.3399 34.457 65.7979 34.5536 66.2931 34.5536C66.9269 34.5536 67.4716 34.4323 67.9272 34.1897C68.3828 33.947 68.8334 33.6177 69.279 33.2017L70.4526 34.3902C70.1852 34.6774 69.9054 34.9324 69.6133 35.1552C69.3212 35.3781 69.0067 35.5712 68.67 35.7346C68.3332 35.898 67.9643 36.0218 67.5632 36.106C67.1621 36.1902 66.7189 36.2323 66.2337 36.2323ZM72.369 25.6552H74.1962V29.9781H79.1579V25.6552H80.9851V36.054H79.1579V31.6716H74.1962V36.054H72.369V25.6552ZM83.6591 25.6552H91.3691V27.2892H85.4864V29.993H90.7006V31.6271H85.4864V34.4199H91.4434V36.054H83.6591V25.6552ZM98.4403 36.2323C97.6778 36.2323 96.9746 36.0936 96.3309 35.8163C95.6871 35.539 95.13 35.1602 94.6596 34.6799C94.1892 34.1996 93.8203 33.6325 93.5529 32.9789C93.2855 32.3253 93.1518 31.6271 93.1518 30.8843V30.8546C93.1518 30.1118 93.283 29.4161 93.5455 28.7674C93.8079 28.1187 94.1768 27.5493 94.6521 27.059C95.1276 26.5688 95.692 26.1825 96.3457 25.9003C96.9993 25.618 97.7223 25.4769 98.5146 25.4769C98.99 25.4769 99.4233 25.5165 99.8145 25.5957C100.206 25.675 100.565 25.7864 100.891 25.93C101.218 26.0736 101.52 26.2444 101.798 26.4425C102.075 26.6406 102.337 26.8584 102.585 27.0961L101.411 28.448C100.995 28.0617 100.555 27.7498 100.089 27.5121C99.6238 27.2744 99.0939 27.1556 98.4998 27.1556C98.0046 27.1556 97.5466 27.2521 97.1257 27.4452C96.7047 27.6384 96.3408 27.9008 96.0337 28.2326C95.7267 28.5643 95.4891 28.9531 95.3207 29.3987C95.1523 29.8444 95.0681 30.3198 95.0681 30.8249V30.8546C95.0681 31.3597 95.1523 31.8375 95.3207 32.2881C95.4891 32.7388 95.7267 33.1324 96.0337 33.4691C96.3408 33.8059 96.7047 34.0708 97.1257 34.2639C97.5466 34.457 98.0046 34.5536 98.4998 34.5536C99.1336 34.5536 99.6783 34.4323 100.134 34.1897C100.589 33.947 101.04 33.6177 101.486 33.2017L102.659 34.3902C102.392 34.6774 102.112 34.9324 101.82 35.1552C101.528 35.3781 101.213 35.5712 100.877 35.7346C100.54 35.898 100.171 36.0218 99.7699 36.106C99.3688 36.1902 98.9256 36.2323 98.4403 36.2323ZM104.576 25.6552H106.403V30.8843L111.35 25.6552H113.593L109.27 30.1267L113.786 36.054H111.573L108.022 31.3745L106.403 33.0383V36.054H104.576V25.6552ZM119.609 36.2174C118.936 36.2174 118.327 36.1209 117.782 35.9277C117.237 35.7346 116.772 35.4449 116.386 35.0587C116 34.6724 115.702 34.1946 115.494 33.6251C115.286 33.0557 115.182 32.3946 115.182 31.6419V25.6552H117.01V31.5676C117.01 32.5382 117.242 33.276 117.708 33.7811C118.173 34.2862 118.817 34.5387 119.639 34.5387C120.451 34.5387 121.09 34.2961 121.555 33.8108C122.021 33.3255 122.254 32.6026 122.254 31.6419V25.6552H124.081V31.5528C124.081 32.3253 123.974 33.0037 123.762 33.588C123.549 34.1723 123.249 34.6601 122.863 35.0513C122.477 35.4425 122.009 35.7346 121.459 35.9277C120.909 36.1209 120.293 36.2174 119.609 36.2174ZM130.543 31.0626C131.236 31.0626 131.783 30.8892 132.185 30.5426C132.586 30.196 132.786 29.7503 132.786 29.2056V29.1759C132.786 28.5619 132.583 28.0989 132.177 27.7869C131.771 27.4749 131.226 27.3189 130.543 27.3189H128.419V31.0626H130.543ZM126.591 25.6552H130.692C131.296 25.6552 131.843 25.7369 132.333 25.9003C132.823 26.0637 133.239 26.2989 133.581 26.6059C133.923 26.9129 134.185 27.2793 134.368 27.7052C134.552 28.1311 134.643 28.6064 134.643 29.1313V29.161C134.643 29.7454 134.534 30.2579 134.316 30.6986C134.098 31.1393 133.801 31.5082 133.425 31.8053C133.049 32.1024 132.608 32.3277 132.103 32.4813C131.598 32.6347 131.058 32.7115 130.484 32.7115H128.419V36.054H126.591V25.6552Z" fill="black"/>
<path fill-rule="evenodd" clip-rule="evenodd" d="M50.0821 0.192749C50.9245 0.192749 51.6136 0.881865 51.6136 1.72425V4.85016H54.7395C55.5819 4.85016 56.271 5.53928 56.271 6.38166C56.271 7.22401 55.5819 7.91312 54.7395 7.91312H51.6136V11.039C51.6136 11.8814 50.9245 12.5705 50.0821 12.5705C49.2397 12.5705 48.5506 11.8814 48.5506 11.039V7.91312H45.4247C44.5823 7.91312 43.8932 7.22401 43.8932 6.38166C43.8932 5.53928 44.5823 4.85016 45.4247 4.85016H48.5506V1.72425C48.5506 0.881865 49.2397 0.192749 50.0821 0.192749Z" fill="black"/>
<path fill-rule="evenodd" clip-rule="evenodd" d="M8.68128 7.19938C8.36833 5.51599 9.22712 4.84686 10.5593 4.84686H27.4224C28.5946 4.84686 29.2151 5.60783 28.9858 6.7928H32.1696C31.9403 5.60783 32.561 4.84686 33.7332 4.84686H41.6655C41.491 5.32904 41.3955 5.84852 41.3955 6.38966C41.3955 6.95244 41.4986 7.49181 41.6867 7.99015H35.809L38.5767 16.5106H47.5518L47.932 14.5125C48.5936 14.8878 49.3573 15.1027 50.1697 15.1027C50.4601 15.1027 50.7443 15.0749 51.0199 15.0225L50.4381 18.1515C50.2253 19.2961 49.5355 19.6539 48.2833 19.6539H37.944C36.6144 19.6539 36.1727 19.2376 35.7892 18.0526L33.1667 9.94931H27.9889L25.3664 18.0526C24.9829 19.2376 24.5413 19.6539 23.2116 19.6539H12.8723C11.6201 19.6539 10.9303 19.2961 10.7175 18.1515L8.68128 7.19938ZM43.214 9.74652C42.289 9.74652 41.5345 10.8405 41.5345 12.1818C41.5345 13.5231 42.289 14.617 43.214 14.617C44.139 14.617 44.8935 13.5231 44.8935 12.1818C44.8935 10.8405 44.139 9.74652 43.214 9.74652ZM17.9414 9.74652C18.8665 9.74652 19.6209 10.8405 19.6209 12.1818C19.6209 13.5231 18.8665 14.617 17.9414 14.617C17.0164 14.617 16.262 13.5231 16.262 12.1818C16.262 10.8405 17.0164 9.74652 17.9414 9.74652ZM11.9826 7.99015H25.3465L22.5789 16.5106H13.6037L11.9826 7.99015Z" fill="black"/>
</g>
<defs>
<clipPath id="clip0_1_190">
<rect width="135" height="37" fill="white"/>
</clipPath>
</defs>
</svg>
