<svg width="120" height="22" viewBox="0 0 120 22" fill="none" xmlns="http://www.w3.org/2000/svg">
<g clip-path="url(#clip0_1_209)">
<path d="M92.8884 0.231129C90.5228 0.967566 89.2704 2.56033 89.0095 5.1978C88.8182 7.28723 89.6009 8.93136 91.4621 10.3015C92.0013 10.6954 93.358 11.5346 94.4887 12.1511C95.6541 12.8019 96.8543 13.624 97.2891 14.0693C97.9675 14.7544 98.0718 14.9599 98.1414 15.7648C98.2284 16.878 97.8979 17.6316 97.0804 18.1111C96.4194 18.5222 95.2366 18.5564 94.5408 18.2139C93.7755 17.82 92.9754 16.7924 92.7319 15.9361C92.6275 15.5079 92.4536 15.1311 92.3492 15.0969C92.2622 15.0626 91.3577 15.2168 90.3489 15.4394C88.5399 15.8162 88.5225 15.8333 88.5573 16.2957C88.6095 17.1007 89.5835 18.9161 90.4532 19.8238C91.636 21.074 93.0797 21.7248 94.9061 21.8276C98.1588 22.0331 100.716 20.8171 101.829 18.5393C102.386 17.3918 102.525 15.0969 102.107 13.8638C101.446 11.9114 100.02 10.5926 96.5064 8.69159C93.619 7.11596 92.9406 6.37952 93.2015 5.02653C93.445 3.72492 94.6974 3.00561 96.0715 3.3824C96.8543 3.58791 97.8631 4.58125 98.1936 5.50607C98.4371 6.19113 98.4371 6.19113 99.1503 5.96849C99.4286 5.86573 100.229 5.64309 100.924 5.43757C102.142 5.09504 102.177 5.06079 102.072 4.6155C101.864 3.74205 100.907 2.18354 100.211 1.56699C99.8286 1.22446 99.0807 0.744923 98.5415 0.505152C97.7066 0.111244 97.2891 0.0427384 95.6541 0.00848554C94.2973 -0.0257673 93.4972 0.0427384 92.8884 0.231129ZM0 10.9337L0 21.85H2.01951H4.03902V17.1342V12.4183L6.86634 12.4533L9.67683 12.5057L9.72732 17.1691L9.76098 21.85H11.7805H13.8L13.7663 10.9687L13.7159 0.104796L11.7468 0.0523981L9.76098 0V4.38397V8.75048H6.9H4.03902V4.38397V0.017466H2.01951H0L0 10.9337ZM23.4271 0.15732C23.3286 0.31464 18.4 21.448 18.4 21.6927C18.4 21.7801 19.2379 21.85 20.2729 21.85H22.1457L22.6714 19.5776L23.1971 17.3052L25.9243 17.3402L28.6514 17.3926L28.7664 17.917C28.8321 18.1967 29.0457 19.2105 29.2429 20.1544L29.6043 21.85H31.4771C32.5121 21.85 33.35 21.815 33.35 21.7626C33.35 21.6577 28.8157 1.62564 28.5693 0.64676L28.405 0H25.9571C24.61 0 23.4764 0.06992 23.4271 0.15732ZM26.7621 8.75748C27.2057 10.8026 27.6164 12.7604 27.6821 13.075L27.7971 13.6344H25.8914C24.84 13.6344 23.9857 13.5645 23.9857 13.4771C23.9857 13.3897 24.3471 11.6766 24.7907 9.66644C25.2343 7.67372 25.645 5.7684 25.7107 5.45376C25.7764 5.13912 25.8586 4.8944 25.8914 4.92936C25.9243 4.96432 26.3186 6.69484 26.7621 8.75748ZM36.8 10.9163V21.8326H38.8394H40.8788V17.3858V12.9217L41.8305 12.974L42.7823 13.0263L44.4988 17.3858L46.2323 21.7454L48.4076 21.7977L50.6 21.85L50.481 21.4664C50.4131 21.2397 49.5633 19.1471 48.5946 16.8104C47.6259 14.4562 46.8271 12.4508 46.8271 12.3462C46.8271 12.2416 47.099 11.9974 47.4389 11.8056C50.549 10.0967 50.719 3.83639 47.7108 1.48224C46.3172 0.401077 45.1956 0.174381 40.7599 0.0697526L36.8 0V10.9163ZM44.4138 3.87127C45.5865 4.41185 46.0963 6.0336 45.6374 7.7251C45.2805 9.01552 44.1249 9.62586 42.0345 9.62586H40.8788V6.57418V3.52251H42.2894C43.2921 3.52251 43.8869 3.62713 44.4138 3.87127ZM54.0502 0.12236C54.0336 0.20976 55.2129 5.12164 56.6581 11.0648L59.2826 21.85H61.5583H63.834L64.0001 21.1858C65.329 15.8369 69 0.47196 69 0.27968C69 0.03496 68.7176 0 67.123 0H65.2293L64.0333 5.19156C61.7909 14.823 61.5915 15.6621 61.4753 15.295C61.4254 15.1027 60.6613 11.8864 59.7809 8.14568C58.9172 4.40496 58.1198 1.03132 58.0368 0.66424L57.8541 0H55.9604C54.9139 0 54.0502 0.05244 54.0502 0.12236ZM73.6 10.925V21.85H79.35H85.1V20.0146V18.1792H81.3239H77.5478L77.5821 15.33L77.6336 12.4982L80.3455 12.4458L83.0403 12.3933V10.5754V8.74H80.294H77.5306L77.5821 6.24036L77.6336 3.7582L81.2037 3.70576L84.7567 3.6708V1.8354V0H79.1784H73.6V10.925ZM105.921 0.12236C105.852 0.1748 105.8 1.01384 105.8 1.95776V3.6708H108.215H110.63V12.7604V21.85H112.7H114.77L114.804 12.7954L114.856 3.7582L117.237 3.70576L119.6 3.65332V1.8354V0H112.821C109.077 0 105.973 0.05244 105.921 0.12236Z" fill="black"/>
</g>
<defs>
<clipPath id="clip0_1_209">
<rect width="120" height="22" fill="white"/>
</clipPath>
</defs>
</svg>
