<svg width="148" height="35" viewBox="0 0 148 35" fill="none" xmlns="http://www.w3.org/2000/svg">
<g clip-path="url(#clip0_1_216)">
<path d="M50.3298 26.8353V18.877H43.3345V26.8353H39.7663V7.97333H43.3345V15.7335H50.3298V7.97333H53.8983V26.8353H50.3298Z" fill="black"/>
<path d="M63.4993 21.6245H60.9507C59.8175 21.6245 59.5061 21.9358 59.5061 22.9836C59.5061 23.9469 59.8175 24.3715 60.894 24.3715C61.9136 24.3715 62.8481 24.0317 63.4993 23.6637V21.6245ZM66.9546 26.8353H64.1224L63.8677 25.9009C62.6215 26.7224 61.1488 27.1186 59.7612 27.1186C57.2404 27.1186 56.1641 25.3911 56.1641 23.0121C56.1641 20.208 57.3821 19.1322 60.1858 19.1322H63.4993V17.6876C63.4993 16.1582 63.0746 15.6203 60.8652 15.6203C59.6194 15.6203 58.2599 15.7902 57.0423 16.0449L56.6176 13.4112C57.9201 13.0147 59.8175 12.7596 61.3468 12.7596C65.6802 12.7596 66.9546 14.289 66.9546 17.7442V26.8353Z" fill="black"/>
<path d="M73.6384 27.1184C72.1657 27.1184 70.155 26.7786 68.8807 26.3254L69.362 23.6917C70.523 24.0315 72.0524 24.2866 73.4685 24.2866C74.9979 24.2866 75.2245 23.9468 75.2245 22.8987C75.2245 22.0494 75.0545 21.6244 72.8169 21.0861C69.4468 20.2649 69.0503 19.4153 69.0503 16.753C69.0503 13.9775 70.2683 12.7595 74.2049 12.7595C75.4792 12.7595 77.15 12.9294 78.3395 13.2411L78 15.9885C76.9523 15.7901 75.2811 15.592 74.2049 15.592C72.704 15.592 72.4489 15.9319 72.4489 16.7812C72.4489 17.8859 72.5337 17.9707 74.403 18.4523C78.2547 19.4719 78.6231 19.9817 78.6231 22.8139C78.6231 25.4761 77.8019 27.1184 73.6384 27.1184Z" fill="black"/>
<path d="M88.9037 26.8352V17.2062C88.9037 16.4698 88.5924 16.1014 87.799 16.1014C86.9497 16.1014 85.4488 16.6116 84.2027 17.2628V26.8352H80.7471V7.40683L84.2027 6.92554V14.0908C85.7321 13.2978 87.7709 12.7595 89.2436 12.7595C91.5379 12.7595 92.359 14.374 92.359 16.8382V26.8352H88.9037Z" fill="black"/>
<path d="M94.908 13.0426H98.3629V26.8352H94.908V13.0426ZM94.908 7.0954H98.3629V11.0886H94.908V7.0954Z" fill="black"/>
<path d="M100.77 13.1562C100.77 9.70098 102.781 7.69031 107.482 7.69031C109.238 7.69031 111.051 7.91653 112.608 8.31339L112.212 11.4003C110.683 11.1171 108.898 10.9186 107.596 10.9186C105.132 10.9186 104.339 11.7683 104.339 13.7793V21.0297C104.339 23.0404 105.132 23.89 107.596 23.89C108.898 23.89 110.683 23.6916 112.212 23.4084L112.608 26.4953C111.051 26.8921 109.238 27.1184 107.482 27.1184C102.781 27.1184 100.77 25.1077 100.77 21.6528V13.1562Z" fill="black"/>
<path d="M119.689 15.7053C117.848 15.7053 117.14 16.5264 117.14 18.0843V21.7943C117.14 23.3518 117.848 24.1733 119.689 24.1733C121.53 24.1733 122.238 23.3518 122.238 21.7943V18.0843C122.238 16.5264 121.53 15.7053 119.689 15.7053ZM119.689 27.1184C114.96 27.1184 113.685 24.5132 113.685 21.6807V18.1972C113.685 15.3654 114.96 12.7595 119.689 12.7595C124.419 12.7595 125.694 15.3654 125.694 18.1972V21.6807C125.694 24.5132 124.419 27.1184 119.689 27.1184Z" fill="black"/>
<path d="M134.87 15.9317C133.539 16.5263 132.462 17.1494 131.216 17.9428V26.8351H127.761V13.0429H130.678L130.904 14.5723C131.669 14.0625 133.312 13.0996 134.53 12.7597L134.87 15.9317Z" fill="black"/>
<path d="M139.729 23.8051C140.635 24.0036 141.796 24.1732 142.788 24.1732C144.034 24.1732 144.515 23.5786 144.515 22.3324V17.4611C144.515 16.3285 144.09 15.7055 142.816 15.7055C141.683 15.7055 140.465 16.2719 139.729 16.9513V23.8051ZM147.97 22.2473C147.97 25.306 146.611 27.1186 143.411 27.1186C142.193 27.1186 140.805 26.9487 139.729 26.7221V32.4146L136.274 32.8963V13.0429H139.021L139.361 14.2042C140.578 13.3261 141.995 12.7596 143.722 12.7596C146.498 12.7596 147.97 14.4023 147.97 17.5462V22.2473Z" fill="black"/>
<path d="M13.6141 -0.00012207L0 7.85375V26.7182L5.11502 29.6712V10.8067L13.6141 5.90008V-0.00012207Z" fill="black"/>
<path d="M19.0489 -0.00012207V15.024H13.614V9.41661L8.49933 12.3696V31.6181L13.614 34.5785V19.5971H19.0489V25.1675L24.1636 22.2138V2.95318L19.0489 -0.00012207Z" fill="black"/>
<path d="M19.049 34.5841L32.663 26.7302V7.86578L27.548 4.91248V23.7769L19.049 28.6839V34.5841Z" fill="black"/>
</g>
<defs>
<clipPath id="clip0_1_216">
<rect width="148" height="34.6274" fill="white"/>
</clipPath>
</defs>
</svg>
