<svg width="146" height="35" viewBox="0 0 146 35" fill="none" xmlns="http://www.w3.org/2000/svg">
<g clip-path="url(#clip0_1_254)">
<path d="M23.801 5.43911C25.5869 5.43911 27.0345 6.88811 27.0345 8.67525C27.0345 9.86122 26.3953 10.8951 25.4446 11.4586C25.7129 11.9848 25.9525 12.5275 26.1779 13.0775C27.0288 15.1539 27.5689 17.3894 27.7316 19.7312C27.7441 20.0099 27.7576 20.2883 27.7576 20.5701C27.7576 22.7153 27.3906 24.7742 26.721 26.6907C26.5307 27.1957 26.2456 27.8554 25.9101 28.3331C25.6951 28.6196 25.415 28.9439 25.0452 29.2679C24.7703 29.5065 24.4521 29.7451 24.0899 29.9446C23.7316 30.143 23.314 30.3034 22.9018 30.3565C22.4704 30.4185 22.0151 30.3444 21.6675 30.1003C21.3133 29.8622 21.06 29.4456 20.9134 28.9745C20.621 28.0203 20.6534 26.939 20.7429 25.9611C20.841 24.9751 21.0195 24.0588 21.1966 23.2804C21.5252 21.8577 21.848 20.8905 21.9017 20.733L21.9026 20.7268C21.8358 20.8856 21.447 21.8278 21.0185 23.233C20.7865 24.0029 20.5426 24.9119 20.3731 25.9118C20.2161 26.9099 20.0899 28.0091 20.3454 29.133C20.4766 29.6852 20.75 30.2674 21.2482 30.6609C21.7468 31.0612 22.3702 31.1849 22.9299 31.1986C23.5193 31.2026 24.0425 31.068 24.517 30.8872C24.5707 30.8664 24.6167 30.8394 24.669 30.8173C23.8517 32.049 22.8871 33.1715 21.8084 34.1734C21.2423 34.5793 20.1247 35.0641 18.5578 34.2497C16.2961 33.0744 14.0346 32.9122 13.8997 32.9034C13.8933 32.903 11.5609 33.0376 9.22854 34.2497C7.89105 34.9449 6.88124 34.6928 6.26139 34.3518C5.09958 33.3035 4.06633 32.1161 3.19858 30.8064C3.25493 30.8301 3.30418 30.859 3.36195 30.8813C3.83643 31.0621 4.35968 31.1967 4.94899 31.1927C5.50871 31.1792 6.13211 31.0552 6.63074 30.655C7.1289 30.2617 7.40236 29.6792 7.53353 29.1271C7.789 28.0035 7.66257 26.904 7.50583 25.9059C7.3363 24.9062 7.09243 23.997 6.8604 23.2271C6.43194 21.8221 6.04315 20.8799 5.97877 20.7267L5.97121 20.7103L5.97723 20.7273C5.97979 20.7348 5.98296 20.7441 5.9867 20.7553L6.01595 20.8433C6.12326 21.1704 6.40071 22.0552 6.68236 23.2745C6.85946 24.0531 7.03798 24.9692 7.136 25.9552C7.2255 26.9331 7.25793 28.0144 6.96553 28.9688C6.81897 29.4397 6.56563 29.8565 6.21143 30.0944C5.86386 30.3384 5.40879 30.4126 4.97717 30.3508C4.56496 30.2975 4.1473 30.1373 3.78908 29.9387C3.42682 29.7394 3.10861 29.5008 2.83373 29.2619C2.56144 29.0236 2.3351 28.7831 2.14852 28.5587C2.14237 28.5513 2.13621 28.543 2.13006 28.5357C2.07749 28.4719 2.03417 28.4129 1.98823 28.3523C1.5675 27.762 1.22395 26.8779 1.04543 26.3647C0.446414 24.5408 0.11731 22.5944 0.11731 20.5701C0.11731 20.2883 0.130805 20.0097 0.143117 19.731C0.306012 17.3887 0.846312 15.1525 1.69772 13.0756C1.92312 12.5258 2.16249 11.9834 2.43075 11.4574C1.48132 10.8934 0.842997 9.86028 0.842997 8.67525C0.842997 6.88811 2.29082 5.43911 4.07651 5.43911H23.801ZM13.8789 12.785C11.6627 12.785 9.86642 14.5762 9.86642 16.7859C9.86642 18.9954 11.6627 20.7868 13.8789 20.7868C16.0948 20.7868 17.8911 18.9954 17.8911 16.7859C17.8911 14.5762 16.0948 12.785 13.8789 12.785ZM8.09058 8.06265C6.45581 8.06265 5.13052 9.3841 5.13052 11.0141C5.13052 12.6442 6.45581 13.9656 8.09058 13.9656C9.72534 13.9656 11.0504 12.6442 11.0504 11.0141C11.0504 9.3841 9.72534 8.06265 8.09058 8.06265ZM19.7988 8.06265C18.164 8.06265 16.8387 9.3841 16.8387 11.0141C16.8387 12.6442 18.164 13.9656 19.7988 13.9656C21.4335 13.9656 22.7586 12.6442 22.7586 11.0141C22.7586 9.3841 21.4335 8.06265 19.7988 8.06265ZM4.11363 7.01323C3.22208 7.01323 2.49947 7.74461 2.49947 8.64696C2.49947 9.23216 2.80599 9.74176 3.26284 10.0303C3.82147 9.10172 4.4449 8.21772 5.13052 7.38762C4.85227 7.15727 4.50121 7.01323 4.11363 7.01323ZM23.7763 7.01323C23.3882 7.01323 23.0369 7.15769 22.7586 7.38891C23.4436 8.21868 24.0664 9.10208 24.6246 10.0303C25.0824 9.74211 25.3897 9.23223 25.3897 8.64632C25.3897 7.74432 24.6673 7.01323 23.7763 7.01323ZM13.9446 0.0608521C15.3562 0.0608521 15.8587 0.486207 15.8587 0.486207L15.0694 2.66929C17.0337 2.86532 18.8469 3.57368 20.3906 4.65205H7.49847C9.04223 3.57368 10.8554 2.86508 12.8198 2.66929L12.0304 0.486207C12.0304 0.486207 12.5329 0.0608521 13.9446 0.0608521Z" fill="black"/>
<path d="M8.15623 9.76794C8.88278 9.76794 9.47175 10.3552 9.47175 11.0797C9.47175 11.8042 8.88278 12.3915 8.15623 12.3915C7.42967 12.3915 6.8407 11.8042 6.8407 11.0797C6.8407 10.9652 6.85683 10.855 6.88434 10.7493C6.99203 10.8127 7.11704 10.8496 7.25082 10.8496C7.6498 10.8496 7.97311 10.5272 7.97311 10.1296C7.97311 10.0087 7.94274 9.89496 7.89008 9.79491C7.97595 9.77717 8.0649 9.76794 8.15623 9.76794ZM19.7329 9.76794C20.4594 9.76794 21.0484 10.3552 21.0484 11.0797C21.0484 11.8042 20.4594 12.3915 19.7329 12.3915C19.0063 12.3915 18.4173 11.8042 18.4173 11.0797C18.4173 10.9652 18.4335 10.855 18.461 10.7493C18.5687 10.8127 18.6937 10.8496 18.8275 10.8496C19.2264 10.8496 19.5498 10.5272 19.5498 10.1296C19.5498 10.0087 19.5196 9.89496 19.4667 9.79491C19.5526 9.77717 19.6416 9.76794 19.7329 9.76794ZM16.0494 14.5355C16.0494 14.5415 16.048 14.547 16.0477 14.5527C16.0571 14.8073 15.9718 15.2531 15.3963 15.71C14.8686 16.129 14.4565 16.2848 14.2078 16.3443V20.7734C14.1204 20.7789 14.0333 20.7868 13.9444 20.7868C13.8556 20.7868 13.7687 20.7789 13.6813 20.7734V16.3443C13.4326 16.2851 13.0205 16.1293 12.4924 15.71C11.9144 15.2512 11.8308 14.8038 11.8411 14.5496C11.8409 14.5449 11.8397 14.5403 11.8397 14.5355C11.8397 14.4821 11.8495 14.4315 11.8634 14.3826C11.8708 14.3535 11.8771 14.3361 11.8771 14.3361C11.9333 14.1886 12.0492 14.0707 12.196 14.012C12.439 13.8727 12.9391 13.7064 13.9447 13.7037C13.9487 13.7037 13.9523 13.7035 13.9566 13.7035C13.9607 13.7035 13.9643 13.7033 13.9686 13.7033C15.697 13.7078 15.9352 14.1981 15.9352 14.1981C15.9668 14.2399 15.9922 14.2864 16.0113 14.3361C16.0113 14.3361 16.0171 14.3509 16.0235 14.3759C16.0389 14.427 16.0494 14.4797 16.0494 14.5355Z" fill="black"/>
<path d="M2.23643 27.0833C2.23643 27.0833 2.02461 26.8025 1.79151 26.3275C1.55701 25.8547 1.31901 25.1864 1.16704 24.4991C1.01273 23.812 0.939088 23.1108 0.924125 22.5842C0.910798 22.057 0.943062 21.7051 0.943062 21.7051C0.943062 21.7051 0.968546 21.7903 1.00338 21.9394C1.03728 22.0882 1.08591 22.3008 1.14389 22.5561C1.25565 23.0654 1.38985 23.7418 1.54275 24.4115C1.68841 25.0829 1.85744 25.7473 1.99702 26.2462C2.06786 26.4967 2.12701 26.7052 2.16839 26.8512C2.21468 26.9977 2.23643 27.0833 2.23643 27.0833Z" fill="black"/>
<path d="M22.364 22.8857C22.364 22.8857 22.3579 23.1197 22.3203 23.4593C22.2805 23.7986 22.2029 24.242 22.1099 24.6812C22.0133 25.1197 21.9029 25.5552 21.8034 25.882C21.7572 26.0459 21.7018 26.1809 21.6738 26.2773C21.6411 26.3729 21.6169 26.4275 21.6169 26.4275C21.6169 26.4275 21.5776 26.1963 21.5747 25.8506C21.5732 25.5056 21.6201 25.0487 21.7162 24.6017C21.8136 24.1549 21.9588 23.7195 22.0977 23.4026C22.2388 23.0859 22.364 22.8857 22.364 22.8857Z" fill="black"/>
<path d="M4.07808 5.83625C4.07808 5.83625 3.83702 5.92977 3.52294 6.12112C3.3646 6.21392 3.1883 6.33069 3.012 6.46857C2.83428 6.60453 2.65963 6.76615 2.49892 6.94024C2.33326 7.11097 2.19453 7.30448 2.06148 7.48744C1.9419 7.67903 1.82586 7.85888 1.74149 8.02505C1.64648 8.18595 1.58007 8.32934 1.53139 8.43006C1.48129 8.53005 1.44702 8.58736 1.44702 8.58736C1.44702 8.58736 1.44749 8.52262 1.45837 8.40943C1.47538 8.29841 1.47467 8.1296 1.53305 7.94208C1.57393 7.74809 1.65948 7.53324 1.76701 7.30832C1.88352 7.08795 2.03548 6.8671 2.21533 6.66928C2.5814 6.27722 3.05832 6.00938 3.43739 5.9125C3.81693 5.80747 4.07808 5.83625 4.07808 5.83625Z" fill="black"/>
<path d="M62.0816 23.0015C62.7948 22.2774 63.1514 21.3439 63.1514 20.2034C63.1514 19.0785 62.7906 18.1509 62.0697 17.417C61.348 16.6837 60.4774 16.3168 59.4561 16.3168C58.4352 16.3168 57.5678 16.6837 56.8546 17.417C56.1414 18.1509 55.7852 19.0785 55.7852 20.2034C55.7852 21.3439 56.1414 22.2774 56.8546 23.0015C57.5678 23.7277 58.4352 24.0897 59.4561 24.0897C60.4929 24.0897 61.3684 23.7277 62.0816 23.0015ZM59.4561 13.6776C61.3684 13.6776 62.9813 14.2929 64.2942 15.5224C65.6068 16.753 66.2631 18.3131 66.2631 20.2034C66.2631 22.0938 65.6106 23.6535 64.3062 24.8841C63.0014 26.1146 61.3849 26.7299 59.4561 26.7299C57.5432 26.7299 55.9348 26.1146 54.6304 24.8841C53.3252 23.6535 52.6731 22.0938 52.6731 20.2034C52.6731 18.3131 53.3252 16.753 54.6304 15.5224C55.9348 14.2929 57.5432 13.6776 59.4561 13.6776ZM85.2823 18.59H90.6548C90.6386 17.8571 90.4074 17.2545 89.9623 16.7819C89.5161 16.309 88.9691 16.0727 88.3209 16.0727C87.5266 16.0727 86.8657 16.297 86.3394 16.7452C85.8124 17.1934 85.4604 17.8087 85.2823 18.59ZM88.3209 13.6776C90.0389 13.6776 91.3845 14.2357 92.3559 15.3515C93.3301 16.4683 93.816 17.8818 93.816 19.592L93.7432 20.7414H85.185C85.2981 21.801 85.7035 22.6229 86.4006 23.2092C87.0969 23.7959 87.932 24.0897 88.9045 24.0897C89.488 24.0897 90.0716 23.9721 90.6548 23.7355C91.2383 23.4992 91.6673 23.2668 91.9427 23.0382L92.3815 22.696L93.6684 24.8474C93.6213 24.8961 93.5486 24.966 93.4502 25.055C93.3536 25.1451 93.1393 25.2956 92.8066 25.5071C92.4739 25.7187 92.1296 25.907 91.7734 26.0691C91.4164 26.2323 90.959 26.3834 90.3997 26.5212C89.8407 26.6596 89.2691 26.7299 88.6856 26.7299C86.6922 26.7299 85.0834 26.0977 83.8601 24.8357C82.6361 23.5723 82.0241 22.0284 82.0241 20.2034C82.0241 18.2813 82.6077 16.7127 83.7748 15.4987C84.9419 14.2851 86.4571 13.6776 88.3209 13.6776ZM118.28 23.075C118.879 22.3823 119.179 21.4418 119.179 20.2529C119.179 19.0785 118.896 18.134 118.328 17.417C117.761 16.7007 117.016 16.3415 116.092 16.3415C115.216 16.3415 114.479 16.6721 113.879 17.3319C113.28 17.9917 112.98 18.9739 112.98 20.2765C112.98 21.3199 113.248 22.2202 113.783 22.9778C114.317 23.7355 115.071 24.1145 116.044 24.1145C116.934 24.1145 117.68 23.7683 118.28 23.075ZM116.773 13.6776C118.442 13.6776 119.779 14.2802 120.784 15.486C121.789 16.6919 122.291 18.2647 122.291 20.2034C122.291 22.1588 121.756 23.7355 120.687 24.9325C119.617 26.1302 118.255 26.7299 116.603 26.7299C115.873 26.7299 115.212 26.5904 114.621 26.3135C114.029 26.0373 113.62 25.7682 113.393 25.5071L113.053 25.0918H113.004C113.037 25.3846 113.053 25.7438 113.053 26.1669V31.3244H109.99V17.1478C109.99 16.7897 109.811 16.6106 109.455 16.6106H107.315C106.959 16.6106 106.724 16.7572 106.611 17.0507L102.162 28.3183C101.74 29.3934 101.132 30.2037 100.339 30.7498C99.5438 31.2958 98.6613 31.5688 97.6881 31.5688C97.1046 31.5688 96.5537 31.4629 96.0351 31.2513C95.5166 31.0387 95.1438 30.8271 94.9165 30.6152L94.5526 30.2976L95.7428 28.0979C96.2456 28.6687 96.8369 28.9534 97.5177 28.9534C98.4417 28.9534 99.1226 28.4243 99.5603 27.365L99.9738 26.4113L94.4777 13.9704H96.8615C97.2996 13.9704 97.64 14.0605 97.8828 14.2396C98.1259 14.4186 98.3286 14.7203 98.4909 15.1438L101.409 22.5356L103.867 15.3493L103.937 15.1438C104.196 14.3625 104.747 13.9704 105.59 13.9704H111.23C112.267 13.9704 112.785 14.3702 112.785 15.1685V15.657H112.834C112.867 15.6086 112.911 15.5394 112.968 15.4493C113.024 15.3603 113.166 15.201 113.393 14.9725C113.62 14.745 113.867 14.5454 114.135 14.3741C114.402 14.2032 114.774 14.0439 115.253 13.8973C115.731 13.7511 116.238 13.6776 116.773 13.6776ZM133.126 23.0015C133.84 22.2774 134.196 21.3439 134.196 20.2034C134.196 19.0785 133.836 18.1509 133.115 17.417C132.393 16.6837 131.522 16.3168 130.501 16.3168C129.48 16.3168 128.612 16.6837 127.9 17.417C127.187 18.1509 126.829 19.0785 126.829 20.2034C126.829 21.3439 127.187 22.2774 127.9 23.0015C128.612 23.7277 129.48 24.0897 130.501 24.0897C131.538 24.0897 132.413 23.7277 133.126 23.0015ZM130.501 13.6776C132.413 13.6776 134.026 14.2929 135.339 15.5224C136.652 16.753 137.308 18.3131 137.308 20.2034C137.308 22.0938 136.656 23.6535 135.351 24.8841C134.046 26.1146 132.43 26.7299 130.501 26.7299C128.588 26.7299 126.98 26.1146 125.675 24.8841C124.37 23.6535 123.718 22.0938 123.718 20.2034C123.718 18.3131 124.37 16.753 125.675 15.5224C126.98 14.2929 128.588 13.6776 130.501 13.6776ZM145.306 23.8206L145.864 23.7722V26.4845C145.606 26.5339 145.289 26.5586 144.917 26.5586C144.495 26.5586 144.09 26.53 143.701 26.4724C143.312 26.4163 142.866 26.2895 142.364 26.0938C141.861 25.8978 141.428 25.6417 141.063 25.3242C140.699 25.0066 140.39 24.5507 140.139 23.9552C139.888 23.3607 139.762 22.6642 139.762 21.8652V16.4397H138.158V13.9704H139.835V10.5737H142.85V13.9704H145.671V16.4397H142.85V21.4743C142.85 22.3707 143.106 22.986 143.616 23.3201C144.127 23.6535 144.689 23.8206 145.306 23.8206ZM47.356 10.8377C47.356 9.72969 47.9068 9.1748 49.0093 9.1748H50.5407V26.5288H47.356V19.2454H39.7463V26.5288H36.5615V9.1748H38.0933C38.6768 9.1748 39.0981 9.30938 39.3577 9.57852C39.6166 9.84766 39.7463 10.2669 39.7463 10.8377V16.5324H47.356V10.8377ZM75.6226 13.6776C78.5074 13.6776 79.9502 15.2586 79.9502 18.4187V26.4361H78.5158C77.9322 26.4361 77.5106 26.3054 77.2514 26.0454C76.9921 25.7841 76.8628 25.3609 76.8628 24.7742V19.0548C76.8628 18.2241 76.7205 17.5918 76.437 17.1606C76.1535 16.7293 75.6472 16.5128 74.9175 16.5128C74.1067 16.5128 73.4061 16.7452 72.8145 17.209C72.2225 17.6741 71.8139 18.2894 71.587 19.0548C71.4247 19.5436 71.3438 20.0975 71.3438 20.7166V26.4361H68.2806V13.9704H69.6178C70.7034 13.9704 71.2465 14.4356 71.2465 15.3642V15.7304L71.198 16.2684H71.2465C71.587 15.5839 72.1217 14.9816 72.8507 14.4593C73.5804 13.9379 74.5044 13.6776 75.6226 13.6776Z" fill="black"/>
</g>
<defs>
<clipPath id="clip0_1_254">
<rect width="146" height="34.7619" fill="white"/>
</clipPath>
</defs>
</svg>
