<svg width="135" height="35" viewBox="0 0 135 35" fill="none" xmlns="http://www.w3.org/2000/svg">
<g clip-path="url(#clip0_1_268)">
<path fill-rule="evenodd" clip-rule="evenodd" d="M47.2432 22.0519C47.2432 22.6301 46.8196 23.1051 46.2168 23.1051C45.6305 23.1051 45.2068 22.6287 45.2068 22.0519V12.0119C45.2068 11.4342 45.6305 10.9587 46.2332 10.9587C46.8196 10.9587 47.2432 11.4351 47.2432 12.0119V22.0519ZM60.4055 12.0119V21.1865C60.4055 22.4269 59.7705 23.1237 58.7605 23.1237H58.6796C57.7187 23.1237 57.2618 22.546 56.855 21.6965L54.8023 17.5342L52.9778 13.2365L53.0268 17.3987L53.0432 22.0365C53.0432 22.6137 52.62 23.0892 52.0168 23.0892C51.4305 23.0892 51.0073 22.6133 51.0073 22.036V12.8619C51.0073 11.7233 51.6423 10.9246 52.7505 10.9246H52.8318C53.8582 10.9246 54.2814 11.5028 54.6891 12.3519L56.7087 16.481L58.4355 20.4906L58.3868 16.651L58.3705 12.0137C58.3705 11.4356 58.7937 10.9606 59.3968 10.9606C59.9818 10.9592 60.4055 11.4342 60.4055 12.0119ZM68.5673 22.036C68.5673 22.6133 68.1441 23.0887 67.5409 23.0887C66.955 23.0887 66.5314 22.6128 66.5314 22.0356V12.9469H64.0064C63.4855 12.9469 63.0623 12.5392 63.0623 11.9446C63.0623 11.3669 63.4855 10.9601 64.0064 10.9601H71.0923C71.6132 10.9601 72.0368 11.3678 72.0368 11.9624C72.0368 12.5401 71.6132 12.9469 71.0923 12.9469H68.5673V22.036ZM74.6923 21.696V12.2674C74.6923 11.3842 75.1646 10.8919 76.0282 10.9256H81.8928C82.4137 10.9256 82.8368 11.3496 82.8368 11.9274C82.8368 12.5056 82.4137 12.9124 81.8928 12.9124H76.7119V15.8346H81.2896C81.795 15.8346 82.2018 16.2256 82.2018 16.786C82.2018 17.3465 81.795 17.7369 81.2896 17.7369H76.7119V21.1006H81.8928C82.4137 21.1006 82.8368 21.5251 82.8368 22.1028C82.8368 22.681 82.4137 23.0878 81.8928 23.0878H75.9791C75.1323 23.0887 74.6605 22.5965 74.6923 21.696ZM93.9318 23.1396C94.5018 22.8333 94.6814 22.2046 94.4041 21.7124L92.3678 17.9415C94.0459 17.6019 95.0237 16.3106 95.0237 14.5606C95.0237 12.7265 93.9164 10.9256 91.2605 10.9256H87.4C86.5368 10.8919 86.0646 11.3846 86.0646 12.2674V22.0533C86.0646 22.6301 86.4878 23.106 87.0741 23.106C87.6773 23.106 88.1005 22.631 88.1005 22.0533L88.0841 18.3496H90.2341L92.4987 22.7156C92.7746 23.2078 93.3778 23.4287 93.9318 23.1396ZM91.3082 16.4287H88.0828V12.9115H91.2918C92.3668 12.9115 92.97 13.6246 92.97 14.6615C92.97 15.6978 92.4 16.4287 91.3082 16.4287ZM99.2255 22.1883C98.0041 21.0496 97.45 19.2665 97.45 17.0237C97.45 14.7642 97.9878 12.9978 99.1937 11.8765C99.9428 11.1969 100.952 10.7383 102.419 10.7383C103.706 10.7383 104.7 11.0446 105.449 11.7065C106.101 12.2501 106.573 13.0156 106.85 14.0856C106.996 14.646 106.622 15.2069 106.003 15.3256C105.417 15.4274 104.945 15.0369 104.765 14.4765C104.57 13.9328 104.309 13.5424 104 13.2696C103.576 12.8787 103.055 12.7087 102.37 12.7087C101.637 12.7087 101.001 12.9296 100.529 13.4224C99.845 14.1356 99.5514 15.4101 99.5514 17.0237C99.5514 18.621 99.8287 19.8951 100.545 20.6083C101.018 21.1006 101.637 21.3215 102.354 21.3215C103.103 21.3215 103.673 21.1178 104.146 20.6592C104.406 20.4033 104.611 20.0969 104.749 19.7587C104.96 19.2315 105.4 18.8406 105.97 18.9769C106.54 19.1133 106.899 19.6906 106.72 20.251C106.426 21.1851 105.921 21.9328 105.237 22.4428C104.488 23.0033 103.56 23.2924 102.387 23.2924C100.888 23.2924 99.9428 22.8333 99.2255 22.1883ZM114.181 10.7383C110.645 10.7383 109.147 13.2187 109.147 17.0237C109.147 20.9483 110.63 23.3096 114.181 23.3096C117.667 23.3096 119.199 20.9483 119.199 17.0237C119.199 13.1506 117.684 10.7383 114.181 10.7383ZM114.165 12.726C116.103 12.726 117.113 14.1351 117.113 17.0237C117.113 19.9115 116.086 21.3215 114.165 21.3215C112.226 21.3215 111.248 19.9124 111.248 17.0237C111.248 14.1365 112.258 12.726 114.165 12.726ZM135 22.036C135 22.6142 134.576 23.0892 133.974 23.0892C133.387 23.0892 132.964 22.6133 132.964 22.036V17.4828L133.013 13.0487L131.595 17.551L130.162 21.9851C129.918 22.7665 129.413 23.0724 128.777 23.0724C128.109 23.0724 127.62 22.7496 127.36 21.9687L125.894 17.5519L124.541 13.1178L124.59 17.4837V22.0369C124.59 22.6146 124.166 23.0901 123.564 23.0901C122.977 23.0901 122.554 22.6137 122.554 22.0369V12.9483C122.554 11.6906 123.205 10.9601 124.346 10.9601C125.421 10.9601 126.024 11.5542 126.365 12.6419L127.864 17.2792L128.776 20.4396L129.705 17.2792L131.204 12.6419C131.546 11.5542 132.133 10.9601 133.208 10.9601C134.348 10.9601 134.983 11.6733 134.983 12.9483L135 22.036Z" fill="black"/>
<path d="M28.7645 18.7592C28.7655 19.061 28.6495 19.3515 28.4409 19.5696C28.2373 19.7828 27.955 19.9042 27.66 19.9055C27.3645 19.9046 27.0823 19.7833 26.8782 19.5696C26.67 19.3515 26.5541 19.061 26.555 18.7596V8.52282C26.555 8.21827 26.6714 7.92736 26.8786 7.71236C27.0823 7.49873 27.365 7.37736 27.66 7.37645C27.9527 7.37645 28.2341 7.49736 28.4409 7.71236C28.6491 7.93054 28.7655 8.221 28.7645 8.52236V18.7592ZM28.3814 25.8524C28.235 26.0037 24.1259 29.5551 16.5923 29.5551C9.05864 29.5551 4.97682 26.0228 4.80318 25.8715C4.69318 25.7751 4.60318 25.6578 4.53818 25.5269C4.33636 25.121 4.39 24.6328 4.67545 24.2805C4.86273 24.0537 5.13409 23.9119 5.42727 23.8874C5.71818 23.8642 6.00591 23.9615 6.22773 24.1574C6.29136 24.2046 9.96273 27.2919 16.5832 27.2919C23.2036 27.2919 26.9018 24.1855 26.9386 24.1574C27.16 23.9642 27.45 23.8678 27.7432 23.8901C28.0373 23.9142 28.31 24.0551 28.5 24.2805C28.6864 24.506 28.7791 24.7987 28.7591 25.0942C28.74 25.3878 28.6077 25.6633 28.3905 25.8619L28.3814 25.8524ZM4.41045 8.52282C4.42727 8.21827 4.55955 7.93191 4.77864 7.72827C4.99455 7.52554 5.28364 7.41918 5.57955 7.43373C5.85227 7.44964 6.10909 7.57009 6.30136 7.771C6.49364 7.97236 6.60727 8.24009 6.62045 8.52282V18.741C6.62045 19.0446 6.50409 19.336 6.29682 19.551C6.09273 19.7642 5.81045 19.8855 5.51545 19.8865C5.22045 19.8855 4.93818 19.7642 4.73409 19.551C4.52546 19.3328 4.40955 19.0424 4.41045 18.7405V8.52282ZM9.95364 6.25009C9.97 5.94554 10.1023 5.65918 10.3214 5.45554C10.5373 5.25282 10.8264 5.14645 11.1223 5.161C11.395 5.17691 11.6523 5.29736 11.8445 5.49827C12.0368 5.69964 12.1505 5.96736 12.1632 6.25009V21.4015C12.1641 21.7033 12.0482 21.9937 11.8395 22.2119C11.6359 22.4251 11.3536 22.5465 11.0586 22.5474C10.7632 22.5465 10.4809 22.4255 10.2768 22.2119C10.0686 21.9937 9.95273 21.7033 9.95364 21.4015V6.25009ZM15.5236 5.68191C15.5236 5.37782 15.64 5.08645 15.8473 4.87191C16.0514 4.65827 16.3336 4.53691 16.6291 4.536C16.9218 4.536 17.2027 4.65691 17.41 4.87191C17.6173 5.08645 17.7336 5.37827 17.7336 5.68191V22.1592C17.7336 22.4633 17.6173 22.7546 17.41 22.9692C17.2064 23.1828 16.9236 23.3042 16.6286 23.3051C16.3336 23.3042 16.0509 23.1828 15.8473 22.9692C15.6391 22.751 15.5227 22.4605 15.5236 22.1592V5.68191ZM21.0027 6.25009C21.0027 5.946 21.1191 5.65463 21.3264 5.44009C21.5305 5.22645 21.8127 5.10509 22.1082 5.10418C22.4009 5.10418 22.6818 5.22509 22.8891 5.44009C23.0964 5.65463 23.2127 5.94645 23.2127 6.25009V21.4015C23.2136 21.7033 23.0977 21.9937 22.8891 22.2119C22.685 22.4251 22.4027 22.5465 22.1077 22.5474C21.8127 22.5465 21.5305 22.4251 21.3264 22.2119C21.1177 21.9937 21.0018 21.7033 21.0027 21.4015V6.25009ZM29.0664 8.90856e-05H4.15455C3.61091 -0.00354728 3.07182 0.10418 2.57091 0.315998C2.065 0.530089 1.60727 0.843271 1.22455 1.23691C0.836818 1.636 0.53 2.10691 0.321818 2.62282C0.111364 3.14373 0.00227273 3.69963 0 4.26145V29.8296C0.00227273 30.3915 0.111818 30.9474 0.322273 31.4683C0.530454 31.9842 0.837273 32.4551 1.225 32.8542C1.60773 33.2478 2.06545 33.561 2.57136 33.7751C3.07227 33.9869 3.61136 34.0946 4.155 34.091H29.0659C29.6091 34.0946 30.1473 33.9874 30.6477 33.776C31.1527 33.5624 31.61 33.2505 31.9927 32.8578C32.3805 32.4596 32.6877 31.9901 32.8964 31.4751C33.1073 30.9551 33.2177 30.3996 33.2209 29.8387V4.26145C33.2186 3.70054 33.11 3.14509 32.9 2.62509C32.6923 2.10963 32.3864 1.63918 31.9991 1.24054C31.6173 0.846907 31.1609 0.533726 30.6564 0.318726C30.1564 0.106453 29.6186 -0.00172935 29.0755 0.000543381" fill="black"/>
</g>
<defs>
<clipPath id="clip0_1_268">
<rect width="135" height="34.5455" fill="white"/>
</clipPath>
</defs>
</svg>
