<svg width="132" height="47" viewBox="0 0 132 47" fill="none" xmlns="http://www.w3.org/2000/svg">
<g clip-path="url(#clip0_1_272)">
<path d="M131.163 10.2774V46.0327H0V10.2774L7.07842 10.2766L7.0792 31.5868H124.515L124.514 10.2766L131.163 10.2774Z" fill="black"/>
<path d="M124.515 0V31.5869H7.07922V0H124.515ZM50.7043 11.607C47.7217 11.607 46.0328 13.9428 46.0328 17.0332C46.0328 19.8361 47.542 22.4234 51.3512 22.4594C52.6448 22.4594 53.9025 22.136 55.0165 21.4891L54.226 19.6924C53.4354 20.1236 52.537 20.3752 51.6027 20.3752C49.8778 20.3752 48.7279 19.333 48.692 17.7519H55.304V17.141C55.304 13.6912 53.6151 11.607 50.7043 11.607ZM93.2514 11.607C90.2688 11.607 88.5798 13.9428 88.5798 17.0332C88.5798 19.8361 90.0891 22.4234 93.8982 22.4594C95.1919 22.4594 96.4496 22.136 97.5636 21.4891L96.773 19.6924C95.9824 20.1236 95.0841 20.3752 94.1497 20.3752C92.4249 20.3752 91.2749 19.333 91.239 17.7519H97.851V17.141C97.851 13.6912 96.1621 11.607 93.2514 11.607ZM39.4926 11.607C36.4022 11.607 34.318 13.9068 34.318 16.9973C34.318 20.1236 36.4022 22.4234 39.4926 22.4234C42.583 22.4234 44.6672 20.0877 44.6672 16.9973C44.6672 13.9068 42.583 11.607 39.4926 11.607ZM62.1317 11.607H61.8442C58.8975 11.6789 56.5617 14.1584 56.6695 17.1051C56.6695 20.1236 58.5382 22.4234 61.8801 22.3875C63.1378 22.3875 64.3956 22.0641 65.4377 21.3813L64.683 19.5846C63.9643 20.0158 63.1378 20.2673 62.2754 20.2673C60.4786 20.2673 59.3287 19.1174 59.3287 16.9973C59.3287 15.0927 60.4427 13.6553 62.3832 13.6553C63.2816 13.6553 64.18 13.9428 64.8987 14.4818V12.2898C64.0721 11.8226 63.1019 11.5711 62.1317 11.607ZM108.093 19.4768C107.302 19.4408 106.619 20.0877 106.583 20.8782L106.59 21.0281C106.66 21.8145 107.279 22.3875 108.057 22.3875C108.847 22.3875 109.458 21.7766 109.494 20.986C109.53 20.1955 108.883 19.5127 108.093 19.4768ZM31.3713 6.71985H28.784L28.748 19.8361C28.748 21.4532 29.6105 22.3156 31.3354 22.3156C32.0181 22.3156 32.665 22.2078 33.2758 21.9563L32.7728 19.9439C32.5571 20.0517 32.3415 20.0877 32.1259 20.0877C31.6588 20.0877 31.3713 19.8721 31.3713 19.1534V6.71985ZM20.7345 6.71985H18.1472V22.2078H20.7345V17.4285H20.7705L24.4358 22.2078H27.4903L22.8906 16.3864L27.131 11.8586H24.1484L20.7705 15.4521H20.7345V6.71985ZM114.453 11.8586H111.83V22.2078H114.453V11.8586ZM69.4983 6.71985H66.911V22.1719H69.4983V17.3925H69.5343L73.1996 22.1719H76.2541L71.6544 16.3504L75.8948 11.8586H72.9122L69.5343 15.4521H69.4983V6.71985ZM83.4411 11.5711C82.1475 11.5711 80.9616 12.146 79.8835 13.0085L79.632 11.8586H77.404V22.1719H79.9914V14.949C80.7101 14.3381 81.6084 13.9428 82.5427 13.8709C83.8723 13.8709 84.1239 14.913 84.1239 16.1708V22.1719H86.7471V15.3442C86.7471 12.3976 85.0941 11.5711 83.4411 11.5711ZM105.002 11.5711C103.96 11.5711 103.098 12.0742 102.163 13.0085L101.876 11.8586H99.6837V22.1719H102.271V14.8771C103.098 14.1225 103.673 13.835 104.355 13.835C104.787 13.835 105.182 13.9787 105.541 14.1943L106.475 12.0023C106.044 11.7148 105.505 11.5711 105.002 11.5711ZM39.4926 13.6912C41.1097 13.6912 41.9721 15.0927 41.9721 16.9973C41.9721 18.9377 41.1097 20.3033 39.4926 20.3033C37.8755 20.3033 37.0131 18.9377 37.0131 16.9973C37.0131 15.0927 37.8755 13.6912 39.4926 13.6912ZM50.6325 13.5834C51.998 13.5834 52.5729 14.7334 52.6089 15.9192H48.6201C48.6201 14.6615 49.3388 13.5834 50.6325 13.5834ZM93.2154 13.5834C94.581 13.5834 95.1559 14.7334 95.1919 15.9192H91.2031C91.2031 14.6615 91.9218 13.5834 93.2154 13.5834ZM113.087 6.97139C112.189 7.00733 111.506 7.72603 111.542 8.6244V8.69627C111.542 9.52278 112.261 10.2055 113.123 10.1696H113.195C114.094 10.1337 114.776 9.41497 114.741 8.5166C114.705 7.61822 113.986 6.93546 113.087 6.97139Z" fill="black"/>
</g>
<defs>
<clipPath id="clip0_1_272">
<rect width="131.163" height="47" fill="white"/>
</clipPath>
</defs>
</svg>
