<svg width="133" height="35" viewBox="0 0 133 35" fill="none" xmlns="http://www.w3.org/2000/svg">
<path fill-rule="evenodd" clip-rule="evenodd" d="M0 29.3174H14.5144V24.5523H5.25259V6.37203H0V29.3174Z" fill="black"/>
<path fill-rule="evenodd" clip-rule="evenodd" d="M21.8629 29.3174V13.5134H16.6098V29.3174H21.8629ZM19.2364 11.3555C21.0682 11.3555 22.2084 10.1419 22.2084 8.62433C22.1743 7.074 21.0682 5.89454 19.2713 5.89454C17.4741 5.89454 16.2993 7.074 16.2993 8.62433C16.2993 10.1419 17.4392 11.3555 19.2021 11.3555H19.2364Z" fill="black"/>
<path fill-rule="evenodd" clip-rule="evenodd" d="M24.3019 29.3174H29.555V20.4915C29.555 20.0191 29.5892 19.5472 29.7281 19.2096C30.1076 18.2663 30.9719 17.2889 32.4232 17.2889C34.3242 17.2889 35.0846 18.7386 35.0846 20.8619V29.3174H40.3372V20.2553C40.3372 15.4009 37.7454 13.142 34.2893 13.142C31.4556 13.142 30.2113 14.726 29.5201 15.8049H29.5551V13.5134H24.302C24.371 14.9963 24.3019 29.3174 24.3019 29.3174Z" fill="black"/>
<path fill-rule="evenodd" clip-rule="evenodd" d="M47.7479 6.37203H42.4946V29.3174H47.7479V24.1936L49.0607 22.5408L53.1734 29.3174H59.6356L52.7242 19.507L58.7719 12.8324H52.4479C52.4479 12.8324 48.1281 18.8041 47.7479 19.5122V6.37203Z" fill="black"/>
<path fill-rule="evenodd" clip-rule="evenodd" d="M73.6837 22.725C73.7527 22.3191 73.8566 21.5404 73.8566 20.6603C73.8566 16.5747 71.7826 12.4274 66.3227 12.4274C60.482 12.4274 57.7866 17.0466 57.7866 21.236C57.7866 26.4178 61.0696 29.6541 66.8063 29.6541C69.0874 29.6541 71.1951 29.3173 72.9233 28.6093L72.2318 25.1401C70.8151 25.6101 69.3636 25.8449 67.5668 25.8449C65.1131 25.8449 62.9706 24.838 62.7976 22.6914L73.6837 22.7241V22.725ZM62.7633 19.1712C62.9015 17.8225 63.8001 15.833 66.0464 15.833C68.4304 15.833 68.9837 17.9576 68.9837 19.1712H62.7633Z" fill="black"/>
<path fill-rule="evenodd" clip-rule="evenodd" d="M86.8228 6.37202V14.3149H86.7538C85.9934 13.2033 84.4033 12.4616 82.2959 12.4616C78.2522 12.4616 74.6928 15.6978 74.7271 21.2262C74.7271 26.3509 77.9412 29.6882 81.9499 29.6882C84.127 29.6882 86.2005 28.744 87.2372 26.9233H87.3412L87.5485 29.3173H92.2142C92.145 28.2048 92.0754 26.2831 92.0754 24.3956V6.37202H86.8228ZM86.8228 22.002C86.8228 22.4061 86.7882 22.8111 86.7189 23.1478C86.4083 24.5976 85.1638 25.6087 83.6436 25.6087C81.4663 25.6087 80.0493 23.8559 80.0493 21.0915C80.0493 18.4959 81.2591 16.4059 83.6779 16.4059C85.3019 16.4059 86.4426 17.518 86.7538 18.9C86.8228 19.204 86.8228 19.5412 86.8228 19.8442V22.002Z" fill="black"/>
<path fill-rule="evenodd" clip-rule="evenodd" d="M97.3588 2.50718C97.3588 1.12288 98.5095 0 99.929 0H129.568C130.987 0 132.138 1.12288 132.138 2.50718V32.4928C132.138 33.8776 130.987 35 129.568 35H99.929C98.5095 35 97.3588 33.8776 97.3588 32.4928V2.50718ZM107.902 29.2986V13.4942H102.648V29.2986H107.902ZM105.275 11.3363C107.107 11.3363 108.247 10.1227 108.247 8.60606C108.213 7.05527 107.107 5.87534 105.31 5.87534C103.513 5.87534 102.338 7.05527 102.338 8.60606C102.338 10.1227 103.478 11.3363 105.241 11.3363H105.275ZM116.061 29.2986H110.808C110.808 29.2986 110.877 14.9771 110.808 13.4942H116.061V15.7318C116.76 14.6549 118.009 13.1233 120.796 13.1233C124.252 13.1233 126.843 15.3821 126.843 20.2366V29.2986H121.591V20.8436C121.591 18.719 120.83 17.2697 118.929 17.2697C117.478 17.2697 116.614 18.2471 116.234 19.1909C116.095 19.5285 116.061 20.0004 116.061 20.4727V29.2986ZM116.061 15.7318V15.7862H116.026C116.038 15.7682 116.05 15.7501 116.061 15.7318Z" fill="black"/>
</svg>
