<svg width="140" height="34" viewBox="0 0 140 34" fill="none" xmlns="http://www.w3.org/2000/svg">
<g clip-path="url(#clip0_1_280)">
<path d="M49.1476 5.63926H53.3659V28.173H49.1476V5.63926ZM61.2665 28.1719H57.0504V12.5435H61.2665V28.1719ZM61.2665 8.80105H57.0504V5.63703H61.2665V8.80105ZM68.5908 12.5435L68.7781 14.7814C69.2985 13.9823 69.9383 13.3615 70.6972 12.9179C71.4584 12.4744 72.3099 12.2537 73.255 12.2537C74.8342 12.2537 76.0657 12.7497 76.9528 13.7415C77.8388 14.7334 78.2813 16.2881 78.2813 18.4068V28.1719H74.0496V18.4001C74.0496 17.3469 73.8378 16.6013 73.4132 16.1622C72.9886 15.7253 72.3489 15.5058 71.4918 15.5058C70.9335 15.5058 70.4331 15.6195 69.9906 15.8446C69.5479 16.0725 69.1662 16.403 68.8773 16.8086V28.1741H64.6612V12.5435H68.5908ZM86.8048 21.6276H85.6491V28.1708H81.4319V5.63703H85.6491V18.4224H86.6889L90.3143 12.5413H95.198L90.1996 19.6182L95.9625 28.1708H91.1235L86.8048 21.6276ZM98.3765 28.1708V15.5047H96.0506V12.5413H98.3765V10.8093C98.3765 9.05626 98.8803 7.70663 99.8911 6.7582C100.902 5.80978 102.324 5.33612 104.153 5.33612C104.511 5.33612 104.875 5.36064 105.244 5.41525C105.615 5.46652 106.022 5.5423 106.465 5.63926L106.104 8.7743C105.881 8.73576 105.657 8.70157 105.432 8.67177C105.181 8.64064 104.928 8.62612 104.674 8.6283C103.991 8.6283 103.472 8.81554 103.122 9.19223C102.77 9.5667 102.594 10.1072 102.594 10.8093V12.5435H105.701V15.5047H102.594V28.1708H98.3765ZM112.284 28.1719H108.068V12.5435H112.284V28.1719ZM112.284 8.80105H108.068V5.63703H112.284V8.80105Z" fill="black"/>
<path d="M123.97 16.1667L122.425 16.1233C121.8 16.1233 121.284 16.2537 120.88 16.5156C120.469 16.78 120.147 17.1622 119.956 17.6122V28.1708H115.754V12.5413H119.669L119.856 14.8528C120.222 14.0347 120.694 13.3972 121.278 12.9381C121.851 12.4849 122.563 12.2429 123.294 12.2527C123.505 12.2527 123.701 12.2694 123.879 12.3039C124.058 12.3363 124.237 12.3775 124.421 12.4265L123.97 16.1667ZM132.651 15.5025C131.871 15.5025 131.254 15.8012 130.802 16.3974C130.349 16.9959 130.069 17.7794 129.965 18.7523L130.009 18.8259H135.179V18.4492C135.179 17.5531 134.971 16.8376 134.55 16.3038C134.132 15.7722 133.498 15.5025 132.651 15.5025ZM133.027 28.474C130.775 28.474 128.974 27.7529 127.625 26.3074C126.275 24.863 125.603 23.0297 125.603 20.8041V20.2268C125.603 17.9076 126.241 15.9929 127.518 14.4917C128.794 12.9905 130.505 12.2449 132.652 12.2537C134.762 12.2537 136.397 12.8901 137.564 14.1607C138.729 15.4312 139.311 17.1497 139.311 19.3174V21.6143H129.981L129.951 21.699C130.029 22.7255 130.373 23.5691 130.985 24.23C131.595 24.8931 132.426 25.2241 133.476 25.2241C134.41 25.2241 135.186 25.1294 135.801 24.9422C136.503 24.7155 137.181 24.4179 137.823 24.0539L138.964 26.6618C138.327 27.1823 137.494 27.6158 136.464 27.9602C135.435 28.3034 134.29 28.474 133.027 28.474Z" fill="black"/>
<path d="M39.1952 0.221741C39.3491 0.222595 39.4877 0.315103 39.5474 0.456897C39.6033 0.597729 39.5705 0.758309 39.4638 0.865912L34.637 5.2358C34.5283 5.34323 34.4953 5.5057 34.5534 5.64704C34.6143 5.78729 34.7527 5.87794 34.9056 5.87774H37.7297C37.8471 5.87854 37.9578 5.93267 38.0306 6.02485C38.1027 6.11685 38.1278 6.23714 38.0986 6.35028L37.9493 6.91867L37.8835 7.17054C35.7972 15.0789 33.1191 23.7607 28.3636 28.3747C25.3478 31.3704 21.2276 33.2127 16.6192 33.2127C7.44029 33.2127 0 25.8248 0 16.7183C0 7.60742 7.44029 0.221741 16.6192 0.221741H39.1952ZM18.8414 12.6348H12.4945C10.9622 12.6379 9.72124 13.8799 9.7194 15.4121V21.7558C9.72063 23.2879 10.9624 24.5296 12.4945 24.5308H18.8414C20.3744 24.5308 21.6175 23.2888 21.6187 21.7558V20.5666H19.2393V21.758C19.2363 21.9761 19.0596 22.1519 18.8414 22.1536H12.4945C12.2781 22.1495 12.104 21.9744 12.1011 21.758V15.4121C12.1011 15.1948 12.2816 15.0143 12.4945 15.0143H18.8414C19.0604 15.0161 19.2375 15.1932 19.2393 15.4121V16.5991H21.6187V15.4121C21.6175 13.8788 20.3748 12.6361 18.8414 12.6348ZM23.6014 7.87489H17.2533C15.7212 7.87857 14.4802 9.12004 14.4771 10.6522V11.8413H16.8566V10.6522C16.8566 10.4382 17.0404 10.2543 17.2533 10.2543H23.6014C23.8165 10.2543 23.9982 10.4382 23.9982 10.6522V16.9969C23.9964 17.2155 23.8199 17.3924 23.6014 17.3948H17.2533C17.0357 17.3901 16.8607 17.2145 16.8566 16.9969V15.8078H14.4771V16.9969C14.479 18.5296 15.7207 19.7718 17.2533 19.7742H23.6014C25.1341 19.7724 26.3758 18.5297 26.3765 16.9969V10.6522C26.3758 9.11945 25.1341 7.87674 23.6014 7.87489Z" fill="black"/>
</g>
<defs>
<clipPath id="clip0_1_280">
<rect width="139.31" height="33.6667" fill="white"/>
</clipPath>
</defs>
</svg>
