<svg width="146" height="21" viewBox="0 0 146 21" fill="none" xmlns="http://www.w3.org/2000/svg">
<g clip-path="url(#clip0_1_291)">
<path fill-rule="evenodd" clip-rule="evenodd" d="M3.51356 0L11.0072 11.5853L9.07539 14.5574L3.72396 6.27084V20.9298H0V0H3.51356ZM116.361 1.83953V6.15938H119.829V8.77904H116.361V15.8854C116.361 17.5019 116.892 18.2545 118.626 18.2545C119.046 18.2545 119.493 18.2545 119.829 18.2265V20.8462C119.297 20.9018 118.654 20.9298 118.067 20.9298L117.963 20.9294C114.541 20.899 113.061 19.3608 113.061 15.7742V8.77904H110.517V6.15938H113.061V1.83953H116.361ZM20.9127 0V20.9298H17.1887V0H20.9127ZM105.85 1.83953V6.15938H109.317V8.77904H105.85V15.8854C105.85 17.5019 106.381 18.2545 108.115 18.2545C108.534 18.2545 108.982 18.2545 109.317 18.2265V20.8462C108.786 20.9018 108.142 20.9298 107.555 20.9298L107.451 20.9294C104.03 20.899 102.55 19.3608 102.55 15.7742V8.77904H100.006V6.15938H102.55V1.83953H105.85ZM127.851 5.82452C132.017 5.82452 134.87 8.97384 134.87 13.4605L134.87 13.5244C134.869 13.8332 134.866 14.2892 134.814 14.5755H124.132C124.44 16.7772 126.061 18.2544 128.298 18.2544C129.752 18.2544 130.955 17.5855 131.906 16.4149L134.227 18.059C132.856 19.8985 130.787 20.9297 128.326 20.9297C123.768 20.9297 120.776 17.8084 120.776 13.3774C120.776 9.00189 123.601 5.82452 127.851 5.82452ZM29.6129 5.82452C34.3943 5.82452 35.8207 8.38857 35.8207 12.0951V20.595H32.521V19.3969C31.4863 20.4001 29.9483 20.9297 28.2705 20.9297C25.1106 20.9297 22.8179 18.979 22.8179 16.2195C22.8179 13.4605 25.1106 11.5098 28.2705 11.5098C30.0604 11.5098 31.4023 12.0395 32.521 12.9033V11.5379C32.521 9.72646 31.7382 8.52787 29.2213 8.52787C27.907 8.52787 26.6209 8.97384 25.5304 9.86576L23.6289 7.97066C25.3067 6.54909 27.4037 5.82452 29.6129 5.82452ZM92.3551 5.82452C97.1365 5.82452 98.5629 8.38857 98.5629 12.0951V20.595H95.2632V19.3969C94.2285 20.4001 92.6905 20.9297 91.0127 20.9297C87.8533 20.9297 85.5602 18.979 85.5602 16.2195C85.5602 13.4605 87.8533 11.5098 91.0127 11.5098C92.8026 11.5098 94.1445 12.0395 95.2632 12.9033V11.5379C95.2632 9.72646 94.4804 8.52787 91.9635 8.52787C90.6492 8.52787 89.3631 8.97384 88.2726 9.86576L86.3711 7.97066C88.0489 6.54909 90.146 5.82452 92.3551 5.82452ZM42.2348 6.15946V20.5957H38.9351V6.15946H42.2348ZM144.911 5.82452C145.219 5.82452 145.554 5.85258 145.834 5.88015V8.61155C145.554 8.5835 145.079 8.55593 144.659 8.55593C142.954 8.55593 141.388 9.4198 140.549 10.7296V20.595H137.249V6.15924H140.549V7.91455C141.527 6.60472 142.981 5.82452 144.911 5.82452ZM78.6284 5.82452C81.6486 5.82452 83.3263 7.69206 83.3263 11.1475V20.595H80.0266V11.6772C80.0266 9.64278 79.3836 8.49982 77.566 8.49982C76.3357 8.49982 74.9652 9.25244 74.2105 10.2837C74.2663 10.7016 74.2663 11.1195 74.2663 11.5654V20.595H70.9666V11.6772C70.9666 9.64278 70.3794 8.49982 68.506 8.49982C67.2476 8.49982 65.961 9.19682 65.1782 10.1444V20.595H61.8785V6.15924H65.1782V7.60838C66.3527 6.54909 67.8625 5.82452 69.5966 5.82452C71.4699 5.82452 72.84 6.57715 73.567 7.97066C74.8254 6.80013 76.3915 5.82452 78.6284 5.82452ZM53.6493 5.82452C56.6971 5.82452 58.7665 7.71963 58.7665 11.2312V20.595H55.4668V11.7048C55.4668 9.67035 54.5719 8.49982 52.6704 8.49982L52.5968 8.50046C51.0042 8.52854 49.5549 9.46257 48.7839 10.451V20.595H45.4842V6.15924H48.7839V7.83136C49.9021 6.71645 51.5522 5.82452 53.6493 5.82452ZM91.8519 14.1848C90.062 14.1848 88.9157 14.8538 88.9157 16.2192C88.9157 17.5852 90.062 18.2541 91.8519 18.2541L91.9274 18.2536C93.1605 18.2372 94.3861 17.8185 95.2632 16.9719V15.4671C94.3406 14.6308 93.1661 14.1848 91.8519 14.1848ZM29.1096 14.1848C27.3198 14.1848 26.1734 14.8538 26.1734 16.2192C26.1734 17.5852 27.3198 18.2541 29.1096 18.2541L29.1851 18.2536C30.4178 18.2372 31.6439 17.8185 32.521 16.9719V15.4671C31.5984 14.6308 30.4239 14.1848 29.1096 14.1848ZM127.851 8.50009L127.789 8.50049C125.755 8.52693 124.408 9.86027 124.104 12.0673H131.542C131.374 9.86604 129.836 8.50009 127.851 8.50009ZM40.5852 0C41.7316 0 42.6265 0.86387 42.6265 2.00684L42.626 2.05363C42.6019 3.17282 41.7159 4.01318 40.5852 4.01318C39.4384 4.01318 38.544 3.14931 38.544 2.00684C38.544 0.86387 39.4384 0 40.5852 0Z" fill="black"/>
</g>
<defs>
<clipPath id="clip0_1_291">
<rect width="145.833" height="21" fill="white"/>
</clipPath>
</defs>
</svg>
