<svg width="120" height="45" viewBox="0 0 120 45" fill="none" xmlns="http://www.w3.org/2000/svg">
<g clip-path="url(#clip0_1_299)">
<path d="M111.941 8.51279C111.897 3.63367 108.806 0.52744 103.678 0.205095C102.535 0.131835 99.0476 0.117183 96.7619 0.205095C95.4285 0.249051 94.0659 1.42121 91.326 3.83879C90.989 4.13183 90.652 4.43953 90.3003 4.74722C89.1428 5.75821 88.0732 6.7692 87.282 7.60436C85.978 8.98165 85.5384 9.6996 85.5677 10.4908C85.5824 11.2088 85.5824 13.1282 85.5677 15.1502C85.5677 16.2051 85.5677 17.2747 85.5677 18.2271C85.5677 19.956 86.315 21.9633 87.5604 23.5751C88.9963 25.4505 90.8278 26.5055 92.7033 26.5494L92.7912 23.3113C90.8718 23.2674 88.8058 20.2784 88.8058 18.2124C88.8058 17.2747 88.8058 16.1904 88.8058 15.1502C88.8058 13.8315 88.8205 12.5567 88.8058 11.619H96.7912V3.5311C96.8644 3.48715 96.9231 3.45784 96.967 3.44319C99.2527 3.36993 102.505 3.38458 103.458 3.44319C106.901 3.66297 108.659 5.37726 108.689 8.55674C108.689 8.87909 108.674 9.28934 108.674 9.6703C108.659 10.0366 108.659 10.4175 108.659 10.7545H111.897C111.897 10.4469 111.912 10.0952 111.912 9.74356C111.927 9.31865 111.941 8.89374 111.941 8.51279Z" fill="black"/>
<path d="M7.63368 10.7839C5.74357 10.7839 4.21976 11.6776 3.06225 13.4505V10.989H0.0878906V30.1978H3.0476V22.945C4.45419 24.4982 6.05126 25.2747 7.82415 25.2747C9.59705 25.2747 11.1502 24.6007 12.4835 23.2381C13.8168 21.8754 14.4762 20.1172 14.4762 17.9487C14.4762 15.7802 13.8022 14.0366 12.4688 12.7326C11.1355 11.4286 9.52379 10.7839 7.63368 10.7839ZM10.2271 21.3626C9.36262 22.2124 8.35163 22.6374 7.17947 22.6374C6.02196 22.6374 5.02562 22.2124 4.21976 21.348C3.4139 20.4982 3.00364 19.3993 3.00364 18.0513C3.00364 16.7179 3.4139 15.5897 4.21976 14.7106C5.02562 13.8168 6.02196 13.3773 7.20877 13.3773C8.39558 13.3773 9.40657 13.8168 10.2564 14.7106C11.1062 15.6044 11.5311 16.7179 11.5311 18.0659C11.5165 19.4139 11.0916 20.5128 10.2271 21.3626Z" fill="black"/>
<path d="M29.011 16.5421C28.9963 14.8278 28.3516 13.4359 27.0769 12.3809C25.8022 11.3113 24.2051 10.7839 22.2857 10.7839C21.0696 10.7839 19.9121 11.0476 18.8132 11.5897C17.7143 12.1319 16.8058 12.967 16.0586 14.1099C15.3113 15.2527 14.945 16.5714 14.945 18.0659C14.945 20.2344 15.663 21.978 17.0842 23.3113C18.5201 24.63 20.2198 25.2894 22.2124 25.2894C24.4835 25.2894 26.4615 24.4249 28.1465 22.696L26.4029 20.7619C25.3773 21.9927 24.0732 22.608 22.5055 22.608C20.9231 22.608 19.6776 22.0366 18.7546 20.9084L29.0256 16.6007L29.011 16.5421ZM17.8461 18.608C17.8315 18.5055 17.8168 18.3297 17.8168 18.1099C17.8168 16.6593 18.3003 15.5311 19.2527 14.7253C20.2198 13.9194 21.2747 13.5091 22.4469 13.5091C23.9853 13.5091 25.0549 14.0952 25.6557 15.2527L17.8461 18.608Z" fill="black"/>
<path d="M36.5861 10.7839C34.4762 10.7839 32.7033 11.4872 31.2967 12.8938C29.8901 14.3004 29.1868 16.0146 29.1868 18.0366C29.1868 20.0586 29.8901 21.7875 31.2967 23.1795C32.7033 24.5861 34.4762 25.2894 36.5861 25.2894C38.696 25.2894 40.4688 24.5861 41.8754 23.1795C43.282 21.7729 43.9853 20.0586 43.9853 18.0366C43.9853 16.0146 43.282 14.2857 41.8754 12.8938C40.4688 11.4725 38.696 10.7839 36.5861 10.7839ZM39.7656 21.348C38.9304 22.1978 37.8608 22.6374 36.5714 22.6374C35.282 22.6374 34.2271 22.2124 33.3773 21.348C32.5421 20.4982 32.1172 19.3846 32.1172 18.022C32.1172 16.6593 32.5421 15.5604 33.3773 14.696C34.2124 13.8461 35.282 13.4066 36.5714 13.4066C37.8608 13.4066 38.9157 13.8315 39.7656 14.696C40.6007 15.5458 41.0256 16.6593 41.0256 18.022C41.0256 19.3846 40.6154 20.4982 39.7656 21.348Z" fill="black"/>
<path d="M52.9084 10.7839C51.0183 10.7839 49.4945 11.6776 48.337 13.4505V10.989H45.3773V30.1978H48.337V22.945C49.7436 24.4982 51.3406 25.2747 53.1135 25.2747C54.8864 25.2747 56.4395 24.6007 57.7729 23.2381C59.1062 21.8754 59.7655 20.1172 59.7655 17.9487C59.7655 15.7802 59.0915 14.0366 57.7582 12.7326C56.4102 11.4286 54.7985 10.7839 52.9084 10.7839ZM55.5018 21.3626C54.6373 22.2124 53.6263 22.6374 52.4542 22.6374C51.2967 22.6374 50.3003 22.2124 49.4945 21.348C48.6886 20.4982 48.2784 19.3993 48.2784 18.0513C48.2784 16.7179 48.6886 15.5897 49.4945 14.7106C50.3003 13.8168 51.2967 13.3773 52.4835 13.3773C53.6703 13.3773 54.6813 13.8168 55.5311 14.7106C56.3809 15.6044 56.8058 16.7179 56.8058 18.0659C56.8058 19.4139 56.3663 20.5128 55.5018 21.3626Z" fill="black"/>
<path d="M65.5824 22.5494C64.5275 22.5494 64 21.8461 64 20.4395V6.56409H61.0403V20.7765C61.0403 22.2564 61.4212 23.3846 62.1978 24.1319C62.9597 24.8938 63.9853 25.2747 65.2601 25.2747C66.5348 25.2747 67.5165 24.8645 68.2198 24.0586L66.9304 21.8901C66.6374 22.3297 66.1978 22.5494 65.5824 22.5494Z" fill="black"/>
<path d="M81.4066 16.5421C81.3919 14.8278 80.7472 13.4359 79.4725 12.3809C78.1978 11.3113 76.6007 10.7839 74.6813 10.7839C73.4652 10.7839 72.3077 11.0476 71.2088 11.5897C70.1099 12.1319 69.2014 12.967 68.4542 14.1099C67.7069 15.2527 67.3406 16.5714 67.3406 18.0659C67.3406 20.2344 68.0586 21.978 69.4798 23.3113C70.9157 24.63 72.6154 25.2894 74.608 25.2894C76.8791 25.2894 78.8571 24.4249 80.5421 22.696L78.7985 20.7619C77.7729 21.9927 76.4688 22.608 74.9011 22.608C73.3187 22.608 72.0732 22.0366 71.1502 20.9084L81.4212 16.6007L81.4066 16.5421ZM70.2417 18.608C70.2271 18.5055 70.2124 18.3297 70.2124 18.1099C70.2124 16.6593 70.6959 15.5311 71.6483 14.7253C72.6154 13.9194 73.6703 13.5091 74.8425 13.5091C76.3809 13.5091 77.4505 14.0952 78.0513 15.2527L70.2417 18.608Z" fill="black"/>
<path d="M51.5458 33.7582C50.9304 32.9084 50.2124 32.2637 49.4066 31.8388C48.6007 31.4139 47.6923 31.1941 46.6813 31.1941C44.9377 31.1941 43.4579 31.8242 42.2124 33.0696C40.9817 34.315 40.3516 35.8242 40.3516 37.5824C40.3516 39.3846 40.967 40.9084 42.1831 42.1685C43.4139 43.4286 44.8791 44.0439 46.6227 44.0439C47.5897 44.0439 48.4981 43.8388 49.3187 43.4432C50.1392 43.033 50.8718 42.4322 51.5311 41.641V43.7363H53.0842V26.7839H51.5311V33.7582H51.5458ZM51.0329 40.1905C50.6227 40.9377 50.022 41.5238 49.26 41.9487C48.4835 42.3883 47.6776 42.5934 46.8132 42.5934C45.9633 42.5934 45.1575 42.3736 44.4102 41.9341C43.663 41.4945 43.0769 40.8791 42.6373 40.1026C42.1978 39.3113 41.978 38.4908 41.978 37.6264C41.978 36.7619 42.1978 35.9414 42.6373 35.1502C43.0769 34.3736 43.663 33.7729 44.4102 33.3333C45.1575 32.9084 45.9633 32.6886 46.8278 32.6886C48.1905 32.6886 49.3333 33.1575 50.271 34.1099C51.2088 35.0623 51.663 36.2491 51.663 37.6557C51.6483 38.6081 51.4432 39.4432 51.0329 40.1905Z" fill="black"/>
<path d="M60.7179 31.1942C58.8278 31.1942 57.2601 31.8828 56.0293 33.2454C54.9011 34.4909 54.3443 35.9561 54.3443 37.6557C54.3443 39.37 54.945 40.8498 56.1318 42.1392C57.3187 43.4139 58.8571 44.0586 60.7326 44.0586C62.608 44.0586 64.1318 43.4139 65.3187 42.1392C66.5055 40.8645 67.1062 39.37 67.1062 37.6557C67.1062 35.9561 66.5494 34.4762 65.4212 33.2454C64.1758 31.8828 62.608 31.1942 60.7179 31.1942ZM64.8644 40.1612C64.4395 40.9231 63.8535 41.5092 63.1209 41.9341C62.3883 42.3443 61.597 42.5641 60.7179 42.5641C59.8388 42.5641 59.0476 42.359 58.315 41.9341C57.5824 41.5238 57.011 40.9231 56.5714 40.1612C56.1465 39.3993 55.9267 38.5788 55.9267 37.685C55.9267 36.3077 56.3956 35.1502 57.3333 34.1832C58.271 33.2161 59.3992 32.7326 60.7033 32.7326C62.0073 32.7326 63.1209 33.2161 64.0732 34.1832C65.011 35.1502 65.4945 36.3224 65.4945 37.685C65.4945 38.5788 65.2894 39.3993 64.8644 40.1612Z" fill="black"/>
<path d="M74.5055 42.6081C73.5238 42.6081 72.6447 42.3883 71.8535 41.9634C71.0622 41.5238 70.4469 40.9231 69.9927 40.1319C69.5384 39.3407 69.3187 38.5055 69.3187 37.6117C69.3187 36.2491 69.8168 35.0769 70.7985 34.1246C71.7802 33.1722 73.0256 32.6887 74.5055 32.6887C76.3663 32.6887 77.8461 33.4066 78.9157 34.8425L80.1612 34.0659C79.7949 33.4506 79.3553 32.9524 78.8278 32.5421C78.3003 32.1465 77.6703 31.8242 76.9084 31.5751C76.1612 31.326 75.3699 31.2088 74.5641 31.2088C73.2747 31.2088 72.1172 31.4872 71.0623 32.0586C70.022 32.63 69.2014 33.4213 68.6007 34.4322C68 35.4432 67.7069 36.5421 67.7069 37.7289C67.7069 39.4872 68.337 40.9817 69.6117 42.2125C70.8864 43.4432 72.4835 44.0586 74.4176 44.0586C75.6776 44.0586 76.7912 43.8095 77.7875 43.326C78.7692 42.8425 79.5604 42.1539 80.1465 41.2747L78.9011 40.4542C77.7582 41.8901 76.293 42.6081 74.5055 42.6081Z" fill="black"/>
<path d="M116.278 17.0696C115.722 16.5714 115.179 16.1172 114.799 15.7509C114.637 15.6044 114.462 15.4285 114.271 15.2381C112.821 13.8022 110.857 11.8388 108.659 11.8388H102.769C98.359 11.8388 94.7692 15.4285 94.7692 19.8535V29.0696C94.7692 33.4798 98.359 37.0842 102.769 37.0842H111.985C116.396 37.0842 119.985 33.4945 119.985 29.0696V21.6703C120 20.4542 118.989 19.4432 116.278 17.0696ZM116.015 21.1868C115.707 20.9084 115.429 20.6447 115.165 20.4102C115.458 20.674 115.751 20.9377 116.015 21.1868ZM112 33.8315H102.784C100.147 33.8315 98.0073 31.6923 98.0073 29.0549V19.8388C98.0073 17.2014 100.147 15.0622 102.784 15.0622H108.674C108.85 15.0622 109.07 15.1355 109.304 15.2674V22.3296H116.777V29.0549C116.777 31.6923 114.637 33.8315 112 33.8315Z" fill="black"/>
</g>
<defs>
<clipPath id="clip0_1_299">
<rect width="120" height="45" fill="white"/>
</clipPath>
</defs>
</svg>
