<svg width="129" height="41" viewBox="0 0 129 41" fill="none" xmlns="http://www.w3.org/2000/svg">
<g clip-path="url(#clip0_1_343)">
<path d="M26.5839 19.1019C26.598 19.0667 26.6121 19.03 26.6276 18.9948C26.6092 19.037 26.5923 19.0793 26.5754 19.1216C26.5782 19.116 26.581 19.1089 26.5839 19.1019Z" fill="black"/>
<path d="M27.0012 17.9557C26.9772 18.0304 26.9547 18.1037 26.9293 18.177C26.9547 18.1037 26.9772 18.029 27.0012 17.9557Z" fill="black"/>
<path d="M24.5213 22.5517C25.2473 21.6635 25.8719 20.6724 26.371 19.5854C25.917 20.5723 25.3474 21.5056 24.6707 22.3642C24.6214 22.4277 24.572 22.4897 24.5213 22.5517Z" fill="black"/>
<path d="M23.2214 19.6574C22.2091 17.9952 21.0502 16.4768 19.7701 15.1107C16.6501 16.3654 13.2834 17.0619 9.82089 17.1013C10.351 20.4032 10.726 23.8587 10.726 27.0294C10.726 27.1112 10.7232 27.1901 10.7232 27.2691C11.3576 27.4171 12.0033 27.52 12.6561 27.575C12.6645 27.5764 12.673 27.5764 12.68 27.5778C12.7801 27.5863 12.8802 27.5933 12.9803 27.599C13.0015 27.6004 13.0212 27.6018 13.0424 27.6032C13.1298 27.6074 13.2158 27.6117 13.3032 27.6159C13.3398 27.6173 13.3765 27.6173 13.4132 27.6187C13.4836 27.6215 13.5555 27.623 13.626 27.6244H13.7882C13.8417 27.6244 13.8953 27.6258 13.9489 27.6244C14.0208 27.6244 14.0913 27.623 14.1632 27.6201C14.1998 27.6201 14.2351 27.6187 14.2717 27.6187C14.3592 27.6159 14.4466 27.6117 14.534 27.6074C14.5537 27.606 14.5749 27.6046 14.5946 27.6032C14.6961 27.5976 14.7962 27.5919 14.8963 27.5835C14.9034 27.5835 14.9118 27.5821 14.9189 27.5821C15.5829 27.5285 16.2399 27.427 16.8842 27.2804C16.887 27.2804 16.8884 27.279 16.8912 27.279C16.9927 27.255 17.0942 27.231 17.1957 27.2056C17.207 27.2028 17.2169 27.2 17.2282 27.1972C17.3212 27.1732 17.4143 27.1478 17.5073 27.1225C17.5271 27.1168 17.5468 27.1112 17.5665 27.1055C17.6511 27.0816 17.7343 27.0576 17.8189 27.0322C17.8485 27.0238 17.8781 27.0139 17.9091 27.004C17.9824 26.9815 18.0572 26.9575 18.1305 26.9335C18.1714 26.9209 18.2122 26.9068 18.2531 26.8927C18.3166 26.8701 18.38 26.849 18.4434 26.8264C18.4956 26.8081 18.5492 26.7883 18.6014 26.7686C18.6535 26.7503 18.7057 26.7305 18.7593 26.7108C18.8213 26.6868 18.8847 26.6614 18.9482 26.6361C18.9905 26.6191 19.0342 26.6022 19.0765 26.5839C19.1441 26.5571 19.2118 26.5275 19.2781 26.4993C19.3175 26.4824 19.357 26.4655 19.3965 26.4486C19.4458 26.4274 19.4924 26.4049 19.5403 26.3823C20.6005 25.9015 21.6015 25.2869 22.5151 24.5481C22.5165 24.5481 22.5165 24.5467 22.5179 24.5467C22.5996 24.4804 22.68 24.4142 22.759 24.3465C22.7674 24.3394 22.7773 24.331 22.7857 24.3239C22.8576 24.2633 22.9267 24.2013 22.9972 24.1407C23.0155 24.1237 23.0339 24.1082 23.0522 24.0913C23.1114 24.0377 23.1706 23.9828 23.2298 23.9278C23.258 23.9024 23.2862 23.877 23.313 23.8502C23.3624 23.8051 23.4103 23.7586 23.4582 23.7121C23.4949 23.6754 23.533 23.6388 23.5696 23.6021C23.6063 23.5654 23.6429 23.5274 23.6796 23.4907C23.7275 23.4428 23.774 23.3949 23.8192 23.3469C23.8459 23.3187 23.8713 23.2919 23.8981 23.2637C23.9531 23.2045 24.0081 23.1453 24.0616 23.0861C24.0786 23.0678 24.0941 23.0509 24.111 23.0325C24.173 22.962 24.2351 22.893 24.2957 22.821C24.3027 22.8126 24.3112 22.8041 24.3182 22.7943C24.3859 22.7153 24.4536 22.635 24.5198 22.5546C24.5198 22.5532 24.5213 22.5532 24.5213 22.5518C24.572 22.4897 24.6213 22.4277 24.6707 22.3643C24.2421 21.4465 23.7599 20.5428 23.2214 19.6574Z" fill="black"/>
<path d="M10.7232 27.2705C11.3661 27.4185 12.0118 27.52 12.6561 27.575C12.0033 27.52 11.3576 27.4171 10.7232 27.269V27.2705Z" fill="black"/>
<path d="M27.6427 13.9968C27.6412 14.0673 27.6398 14.1392 27.6384 14.2111C27.6398 14.1392 27.6427 14.0673 27.6427 13.9968Z" fill="black"/>
<path d="M27.5947 14.9668C27.5383 15.6308 27.4326 16.2878 27.2831 16.9321C27.4354 16.2779 27.5383 15.6224 27.5947 14.9668Z" fill="black"/>
<path d="M27.1041 17.6145C27.0801 17.6977 27.0548 17.7823 27.0294 17.8655C27.0562 17.7823 27.0801 17.6977 27.1041 17.6145Z" fill="black"/>
<path d="M3.08191 22.4925C2.34456 21.5775 1.72988 20.5752 1.24771 19.5135C1.74115 20.6034 2.36148 21.6001 3.08191 22.4925Z" fill="black"/>
<path d="M1.03905 19.0314C1.04187 19.0384 1.04469 19.0455 1.04751 19.0511C1.03059 19.0102 1.01509 18.9679 0.998169 18.9271C1.01227 18.9623 1.02496 18.9961 1.03905 19.0314Z" fill="black"/>
<path d="M10.7232 27.2705C10.7133 27.2677 10.7035 27.2648 10.6936 27.2634C10.6908 27.262 10.688 27.262 10.6851 27.262C10.5836 27.2381 10.4835 27.2127 10.382 27.1859C10.3708 27.1831 10.3609 27.1802 10.3496 27.1774C10.2566 27.1535 10.1635 27.1281 10.0719 27.1027C10.0507 27.0971 10.031 27.09 10.0098 27.0844C9.92666 27.0604 9.84348 27.0364 9.7617 27.0097C9.73069 27.0012 9.69967 26.9913 9.66866 26.9815C9.59534 26.9575 9.52203 26.9349 9.45013 26.9096C9.40784 26.8955 9.36554 26.8814 9.32465 26.8673C9.26121 26.8447 9.19918 26.8236 9.13715 26.801C9.08357 26.7813 9.03141 26.7615 8.97783 26.7418C8.92567 26.7221 8.87351 26.7037 8.82134 26.6826C8.7579 26.6586 8.69587 26.6332 8.63243 26.6064C8.59577 26.5923 8.56052 26.5782 8.52387 26.5641C8.51823 26.5613 8.51118 26.5585 8.50413 26.5557C8.43646 26.5261 8.36879 26.4965 8.30111 26.4683C8.26305 26.4514 8.22357 26.4344 8.18551 26.4175C8.13616 26.395 8.08541 26.371 8.03607 26.3484C6.95331 25.8494 5.96361 25.2248 5.07682 24.5001C5.07682 24.5001 5.07541 24.4987 5.074 24.4987C4.99364 24.4325 4.91328 24.3648 4.83433 24.2971C4.82587 24.2887 4.816 24.2816 4.80754 24.2732C4.73705 24.2125 4.66656 24.1505 4.59747 24.0885C4.57915 24.073 4.56082 24.0561 4.54249 24.0405C4.48328 23.9856 4.42406 23.9306 4.36626 23.8756C4.33806 23.8502 4.30987 23.8234 4.28308 23.7981C4.23515 23.7515 4.18721 23.705 4.13928 23.6585C4.10262 23.6218 4.06456 23.5852 4.0279 23.5471C3.99125 23.5104 3.95459 23.4738 3.91793 23.4357C3.87141 23.3878 3.82488 23.3399 3.77836 23.2905C3.75298 23.2637 3.72761 23.2355 3.70223 23.2087C3.64725 23.1495 3.59226 23.0889 3.53869 23.0297C3.52177 23.0114 3.50626 22.993 3.49075 22.9747C3.42872 22.9056 3.36669 22.8351 3.30607 22.7632C3.29902 22.7548 3.29197 22.7449 3.28351 22.7364C3.21584 22.6575 3.14957 22.5771 3.08472 22.4954C3.08331 22.494 3.0819 22.4925 3.0819 22.4925C2.36147 21.6001 1.74115 20.6034 1.2477 19.5136C1.22656 19.4656 1.204 19.4191 1.18426 19.3712C1.16593 19.3317 1.14902 19.2922 1.1321 19.2527C1.1039 19.1851 1.0757 19.1188 1.04751 19.0511C1.04469 19.0455 1.04187 19.0384 1.03905 19.0314C1.02495 18.9962 1.01226 18.9623 0.998164 18.9271C0.971377 18.8608 0.946 18.796 0.920623 18.7311C0.903705 18.686 0.886787 18.6409 0.871279 18.5958C0.847311 18.5323 0.823344 18.4703 0.800787 18.4054C0.785279 18.3617 0.769771 18.3166 0.755672 18.2715C0.733115 18.2066 0.710557 18.1418 0.68941 18.0769C0.676721 18.0346 0.662623 17.9923 0.649934 17.9515C0.627377 17.881 0.60623 17.8119 0.585082 17.7414C0.573803 17.7047 0.563934 17.6695 0.554066 17.6328C0.530098 17.5539 0.508951 17.4749 0.486394 17.396C0.480754 17.3692 0.473705 17.3438 0.466656 17.3184C0.441279 17.2254 0.418721 17.1309 0.394754 17.0365C0.393344 17.0266 0.390525 17.0167 0.387705 17.0055C0.266459 16.4965 0.172 15.9791 0.108557 15.4575C0.107148 15.442 0.105738 15.4279 0.104328 15.4138C0.0831806 21.2025 0 40.4242 0 40.4242C0 40.4242 10.5724 38.473 10.7232 27.2705Z" fill="black"/>
<path d="M2.08937 6.50079H2.08373C2.07387 6.5163 2.064 6.53181 2.05413 6.54873C1.98928 6.65587 1.92583 6.76584 1.8638 6.87863C1.93711 6.75033 2.01324 6.62486 2.08937 6.50079Z" fill="black"/>
<path d="M0.112768 15.4575C0.109948 15.435 0.107129 15.4124 0.104309 15.3884V15.4138C0.105719 15.4293 0.107129 15.4434 0.108538 15.4575H0.112768Z" fill="black"/>
<path d="M3.2835 22.7364C3.21583 22.6561 3.14957 22.5757 3.08472 22.4954C3.14957 22.5757 3.21583 22.6575 3.2835 22.7364Z" fill="black"/>
<path d="M9.8209 17.1014C9.25978 13.6021 8.52526 10.2777 7.87815 7.65404C5.99742 7.06614 4.05608 6.67843 2.08936 6.50079C2.01182 6.62486 1.9371 6.75033 1.86378 6.87863C0.86985 8.64797 0.108538 10.9559 0.108538 13.8742C0.108538 14.0758 0.107129 14.6074 0.104309 15.3884C0.107129 15.4124 0.109948 15.4349 0.112768 15.4589C1.06441 15.8001 2.04283 16.0947 3.04946 16.3358C5.31929 16.88 7.58913 17.1267 9.8209 17.1014Z" fill="black"/>
<path d="M8.18551 26.4175C8.13476 26.395 8.08683 26.371 8.03607 26.3484C8.08683 26.371 8.13617 26.395 8.18551 26.4175Z" fill="black"/>
<path d="M8.03606 26.3484C6.9815 25.8606 5.98475 25.2417 5.07681 24.5001C5.9636 25.2248 6.95331 25.8493 8.03606 26.3484Z" fill="black"/>
<path d="M0.108551 15.4575C0.171994 15.9791 0.266453 16.4965 0.387699 17.0055C0.265043 16.4923 0.174813 15.9749 0.11278 15.4575H0.108551Z" fill="black"/>
<path d="M0.998165 18.927C0.971378 18.8608 0.946001 18.7959 0.920624 18.7311C0.946001 18.7959 0.971378 18.8622 0.998165 18.927Z" fill="black"/>
<path d="M10.6936 27.2634C10.7035 27.2648 10.7134 27.2677 10.7233 27.2705V27.2691C10.7134 27.2677 10.7035 27.2648 10.6936 27.2634Z" fill="black"/>
<path d="M0.466647 17.3185C0.44127 17.2254 0.417302 17.131 0.394745 17.0365C0.418712 17.131 0.44127 17.2254 0.466647 17.3185Z" fill="black"/>
<path d="M10.726 27.0294C10.726 23.8587 10.351 20.4032 9.82092 17.1013C7.58915 17.1267 5.31932 16.88 3.04948 16.3358C2.04286 16.0947 1.06443 15.8 0.112793 15.4575C0.174826 15.9749 0.265055 16.4923 0.387711 17.0055C0.390531 17.0167 0.39335 17.0266 0.39476 17.0365C0.417318 17.1309 0.441285 17.2254 0.466662 17.3184C0.473711 17.3438 0.48076 17.3692 0.4864 17.396C0.508957 17.4749 0.530105 17.5539 0.554072 17.6328C0.563941 17.6695 0.57381 17.7047 0.585088 17.7414C0.606236 17.8105 0.627383 17.881 0.649941 17.9515C0.662629 17.9923 0.676727 18.0346 0.689416 18.0769C0.710564 18.1418 0.733121 18.2066 0.755678 18.2715C0.769777 18.3166 0.785285 18.3617 0.800793 18.4054C0.823351 18.4689 0.847318 18.5323 0.871285 18.5958C0.886793 18.6409 0.903711 18.686 0.920629 18.7311C0.946006 18.796 0.971384 18.8608 0.99817 18.9271C1.01509 18.968 1.0306 19.0102 1.04751 19.0511C1.07571 19.1188 1.10391 19.1851 1.1321 19.2527C1.14902 19.2922 1.16594 19.3317 1.18427 19.3712C1.20401 19.4191 1.22656 19.4656 1.24771 19.5136C1.72987 20.5752 2.34456 21.5776 3.08191 22.4925C3.08191 22.4925 3.08332 22.494 3.08473 22.4954C3.14958 22.5757 3.21584 22.6561 3.28351 22.7364C3.29197 22.7449 3.29902 22.7548 3.30607 22.7632C3.36669 22.8351 3.42873 22.9056 3.49076 22.9747C3.50627 22.993 3.52319 23.0114 3.5387 23.0297C3.59227 23.0889 3.64725 23.1495 3.70224 23.2087C3.72761 23.2355 3.75299 23.2637 3.77837 23.2905C3.82489 23.3399 3.87142 23.3878 3.91794 23.4357C3.9546 23.4738 3.99125 23.5104 4.02791 23.5471C4.06456 23.5852 4.10263 23.6218 4.13928 23.6585C4.18722 23.705 4.23515 23.7515 4.28309 23.798C4.30988 23.8234 4.33807 23.8502 4.36627 23.8756C4.42407 23.932 4.48328 23.9856 4.5425 24.0405C4.56083 24.056 4.57915 24.073 4.59748 24.0885C4.66656 24.1519 4.73706 24.2125 4.80755 24.2732C4.81601 24.2816 4.82587 24.2887 4.83433 24.2971C4.91328 24.3648 4.99365 24.4325 5.07542 24.4987L5.07683 24.5001C5.98476 25.2417 6.98011 25.8606 8.03607 26.3484C8.08683 26.371 8.13476 26.395 8.18551 26.4175C8.22358 26.4344 8.26306 26.4514 8.30112 26.4683C8.36879 26.4965 8.43647 26.5261 8.50414 26.5557C8.54643 26.5726 8.59014 26.5895 8.63243 26.6064C8.69588 26.6332 8.75791 26.6586 8.82135 26.6826C8.87352 26.7037 8.92568 26.722 8.97784 26.7418C9.03142 26.7615 9.08358 26.7827 9.13715 26.801C9.19919 26.8236 9.26122 26.8447 9.32466 26.8673C9.36555 26.8814 9.40784 26.8955 9.45014 26.9096C9.52204 26.9349 9.59535 26.9575 9.66866 26.9815C9.69968 26.9913 9.73069 27.0012 9.7603 27.0097C9.84348 27.0364 9.92666 27.0604 10.0098 27.0844C10.031 27.09 10.0507 27.0971 10.0719 27.1027C10.1635 27.1281 10.2566 27.1535 10.3496 27.1774C10.3609 27.1802 10.3708 27.1831 10.382 27.1859C10.4821 27.2127 10.5836 27.238 10.6852 27.262C10.688 27.262 10.6908 27.262 10.6936 27.2634C10.7035 27.2662 10.7134 27.2677 10.7232 27.2691C10.7232 27.1901 10.726 27.1112 10.726 27.0294Z" fill="black"/>
<path d="M0.649935 17.9514C0.627378 17.8809 0.606231 17.8104 0.585083 17.7413C0.606231 17.8118 0.627378 17.8809 0.649935 17.9514Z" fill="black"/>
<path d="M10.6851 27.262C10.5836 27.238 10.4821 27.2126 10.382 27.1859C10.4835 27.2126 10.5836 27.238 10.6851 27.262Z" fill="black"/>
<path d="M8.52386 26.5641C8.56051 26.5782 8.59576 26.5923 8.63241 26.6064C8.59012 26.5895 8.54641 26.5726 8.50412 26.5557C8.51117 26.5585 8.51822 26.5613 8.52386 26.5641Z" fill="black"/>
<path d="M26.6121 8.56197C26.6107 8.55492 26.6064 8.54929 26.6036 8.54224C26.6219 8.58453 26.6389 8.62683 26.6558 8.67053C26.6403 8.63388 26.6276 8.59863 26.6121 8.56197Z" fill="black"/>
<path d="M27.2253 10.4243C27.2225 10.4131 27.2197 10.4032 27.2169 10.3919C27.1929 10.2989 27.1675 10.2058 27.1422 10.1128C27.1365 10.093 27.1309 10.0733 27.1252 10.0521C27.1013 9.96896 27.0773 9.88578 27.0519 9.80119C27.0435 9.77159 27.0336 9.74057 27.0237 9.71096C27.0012 9.63624 26.9772 9.56293 26.9532 9.48962C26.9406 9.44873 26.925 9.40644 26.9109 9.36414C26.8898 9.30211 26.8687 9.23867 26.8461 9.17664C26.8278 9.12306 26.808 9.06949 26.7883 9.01733C26.7686 8.96516 26.7502 8.913 26.7305 8.86083C26.7065 8.79739 26.6811 8.73395 26.6558 8.67051C26.6388 8.6268 26.6219 8.58451 26.6036 8.54221C26.5768 8.47454 26.5472 8.40687 26.519 8.33919C26.5021 8.30113 26.4852 8.26165 26.4683 8.22218C26.4457 8.17142 26.4217 8.12067 26.3992 8.0685C26.1933 7.61595 25.9635 7.17326 25.7098 6.74326C25.7084 6.74185 25.7084 6.74185 25.7069 6.74044C25.6534 6.65021 25.5998 6.56139 25.5448 6.47257C25.5406 6.46552 25.5364 6.45847 25.5307 6.45142C25.4814 6.37106 25.4292 6.2907 25.377 6.21034C25.3658 6.19483 25.3559 6.17792 25.3446 6.16241C25.2995 6.09332 25.253 6.02424 25.2065 5.95657C25.1867 5.92837 25.167 5.90018 25.1472 5.87198C25.1092 5.817 25.0711 5.76342 25.0316 5.70844C25.0006 5.66614 24.9696 5.62244 24.9386 5.58015C24.9104 5.54349 24.8836 5.50683 24.8554 5.47018C24.8089 5.40673 24.7609 5.3447 24.713 5.28408C24.7017 5.26857 24.689 5.25306 24.6778 5.23896C20.9713 0.53998 14.4804 -1.31959 8.62537 0.989718C8.6155 0.993947 8.60423 0.996767 8.59436 1.001C8.58167 1.00664 8.56898 1.01228 8.55629 1.01651C8.55488 1.01791 8.55347 1.01791 8.55206 1.01932C7.7837 1.32667 7.05905 1.69887 6.38232 2.12746C6.38232 2.12746 6.38373 2.13591 6.38796 2.14578C6.45141 2.35585 7.10134 4.49739 7.87816 7.65401C12.3361 9.04834 16.457 11.5719 19.7701 15.1106C22.4911 14.0152 25.0246 12.494 27.269 10.6076C27.2549 10.547 27.2394 10.485 27.2253 10.4243Z" fill="black"/>
<path d="M27.2973 10.7288C27.2747 10.6273 27.2507 10.5258 27.2254 10.4243C27.2395 10.4849 27.255 10.547 27.2691 10.609C27.2789 10.6485 27.2888 10.688 27.2973 10.7288Z" fill="black"/>
<path d="M25.7098 6.74329C25.9635 7.17329 26.1934 7.61597 26.3992 8.06853C26.1905 7.61033 25.9607 7.16765 25.7098 6.74329Z" fill="black"/>
<path d="M27.3 10.7373C27.4467 11.3816 27.5482 12.0386 27.6003 12.7026C27.5482 12.047 27.4495 11.3915 27.3 10.7373Z" fill="black"/>
<path d="M19.7701 15.1106C21.0503 16.4768 22.2092 17.9951 23.2214 19.6573C23.76 20.5427 24.2421 21.4464 24.6707 22.3642C25.3475 21.5056 25.917 20.5723 26.371 19.5854C26.3936 19.5375 26.4161 19.4896 26.4373 19.4416C26.4542 19.4022 26.4711 19.3627 26.488 19.3232C26.5176 19.2569 26.5472 19.1893 26.5754 19.1216C26.5923 19.0793 26.6093 19.037 26.6262 18.9947C26.653 18.9313 26.6783 18.8678 26.7023 18.8044C26.7235 18.7522 26.7418 18.7001 26.7615 18.6479C26.7813 18.5957 26.8024 18.5422 26.8207 18.4886C26.8433 18.4266 26.8658 18.3631 26.887 18.3011C26.9011 18.2602 26.9152 18.2179 26.9293 18.177C26.9547 18.1037 26.9772 18.0304 27.0012 17.9557C27.0111 17.9261 27.0209 17.895 27.0294 17.8654C27.0548 17.7823 27.0801 17.6977 27.1041 17.6145C27.1097 17.5948 27.1154 17.575 27.121 17.5539C27.1478 17.4622 27.1732 17.3692 27.1972 17.2761C27.2 17.2649 27.2028 17.2536 27.2056 17.2437C27.2324 17.1422 27.2564 17.0407 27.2803 16.9392C27.2817 16.9364 27.2817 16.9335 27.2832 16.9321C27.4326 16.2878 27.5383 15.6309 27.5947 14.9668C27.5947 14.9598 27.5961 14.9513 27.5961 14.9443C27.6046 14.8442 27.6116 14.7427 27.6187 14.6426C27.6201 14.6228 27.6201 14.6017 27.6215 14.5819C27.6272 14.4945 27.6314 14.4071 27.6342 14.3197C27.6356 14.283 27.637 14.2464 27.6384 14.2111C27.6398 14.1392 27.6413 14.0673 27.6427 13.9969C27.6441 13.9433 27.6441 13.8897 27.6441 13.8361V13.674C27.6427 13.6021 27.6413 13.5316 27.6398 13.4597C27.6384 13.423 27.6384 13.3864 27.637 13.3511C27.6342 13.2637 27.63 13.1763 27.6257 13.0889C27.6243 13.0678 27.6243 13.048 27.6229 13.0269C27.6173 12.9268 27.6102 12.8267 27.6032 12.7266C27.6018 12.7181 27.6018 12.7111 27.6004 12.7026C27.5482 12.0386 27.4467 11.3816 27.3001 10.7373C27.2987 10.7345 27.2987 10.7317 27.2987 10.7289C27.2888 10.688 27.2789 10.6485 27.2691 10.6076C25.0246 12.494 22.4911 14.0152 19.7701 15.1106Z" fill="black"/>
<path d="M7.87817 7.65406C7.10135 4.49744 6.45142 2.3559 6.38797 2.14583C6.38375 2.13596 6.38234 2.1275 6.38234 2.1275C6.31889 2.17685 3.90102 3.50068 2.08515 6.49799C2.08515 6.49799 2.08515 6.4994 2.08374 6.50081H2.08938C4.05611 6.67845 5.99745 7.06616 7.87817 7.65406Z" fill="black"/>
<path fill-rule="evenodd" clip-rule="evenodd" d="M43.0832 15.9326C44.9287 15.9326 46.4654 16.5458 47.6933 17.7752C48.9199 19.0032 49.5346 20.5314 49.5346 22.3586C49.5346 24.1674 48.9199 25.6914 47.6933 26.9293C46.4654 28.1671 44.9287 28.7846 43.0832 28.7846H38.4885V35.9254H35.8338V15.9326H43.0832ZM43.0832 26.3005C44.1871 26.3005 45.1007 25.9241 45.8239 25.1726C46.5471 24.4198 46.9081 23.4822 46.9081 22.3586C46.9081 21.2166 46.5471 20.2734 45.8239 19.5319C45.1007 18.7889 44.1871 18.4167 43.0832 18.4167H38.4885V26.3005H43.0832Z" fill="black"/>
<path d="M58.6182 21.273C60.2931 21.273 61.6338 21.8017 62.6432 22.8591C63.6513 23.915 64.1546 25.3489 64.1546 27.1577V35.9254H61.6719V27.3001C61.6719 26.1384 61.3589 25.2389 60.7301 24.6002C60.1027 23.963 59.2371 23.6444 58.1332 23.6444C56.8968 23.6444 55.8972 24.0292 55.1359 24.8004C54.3746 25.5716 53.9953 26.7573 53.9953 28.356V35.9254H51.5112V15.9326H53.9953V23.7008C55.0033 22.0823 56.5443 21.273 58.6182 21.273Z" fill="black"/>
<path fill-rule="evenodd" clip-rule="evenodd" d="M79.2708 34.1265C77.8046 35.573 76.0254 36.2963 73.9332 36.2963C71.8396 36.2963 70.066 35.573 68.6097 34.1265C67.1547 32.6786 66.4272 30.898 66.4272 28.7847C66.4272 26.6713 67.1547 24.8921 68.6097 23.4442C70.066 21.9977 71.8396 21.2731 73.9332 21.2731C76.0254 21.2731 77.8046 21.9977 79.2708 23.4442C80.7357 24.8921 81.4674 26.6713 81.4674 28.7847C81.4674 30.898 80.7357 32.6786 79.2708 34.1265ZM73.9332 33.8685C75.36 33.8685 76.5597 33.3836 77.5297 32.4122C78.4997 31.4408 78.9847 30.2326 78.9847 28.7847C78.9847 27.3382 78.4997 26.1285 77.5297 25.1572C76.5597 24.1872 75.36 23.7008 73.9332 23.7008C72.5248 23.7008 71.3363 24.1872 70.3663 25.1572C69.395 26.1285 68.91 27.3382 68.91 28.7847C68.91 30.2326 69.395 31.4408 70.3663 32.4122C71.3363 33.3836 72.5248 33.8685 73.9332 33.8685Z" fill="black"/>
<path d="M86.4046 24.0433C87.2237 22.2726 88.7069 21.3872 90.8583 21.3872V23.9869C89.6402 23.9291 88.5927 24.2534 87.7186 24.9583C86.8431 25.6632 86.4046 26.7953 86.4046 28.356V35.9254H83.9219V21.6452H86.4046V24.0433Z" fill="black"/>
<path fill-rule="evenodd" clip-rule="evenodd" d="M94.1503 29.9281C94.3984 31.204 94.9835 32.1937 95.9055 32.8986C96.829 33.6021 97.9653 33.9545 99.3173 33.9545C101.201 33.9545 102.57 33.2595 103.427 31.8694L105.539 33.0692C104.15 35.222 102.057 36.2963 99.2595 36.2963C96.9953 36.2963 95.1541 35.5871 93.7372 34.1688C92.3189 32.7505 91.6112 30.9558 91.6112 28.7847C91.6112 26.6333 92.3048 24.8442 93.6949 23.416C95.0836 21.9879 96.8811 21.2731 99.0889 21.2731C101.181 21.2731 102.888 22.0118 104.211 23.4865C105.533 24.9626 106.195 26.739 106.195 28.8143C106.195 29.1752 106.166 29.5474 106.11 29.9281H94.1503ZM99.0889 23.6148C97.7566 23.6148 96.6527 23.9912 95.7772 24.7441C94.9017 25.4955 94.3603 26.5007 94.1503 27.7569H103.684C103.474 26.4049 102.942 25.3771 102.085 24.6722C101.229 23.9687 100.229 23.6148 99.0889 23.6148Z" fill="black"/>
<path d="M110.544 25.4589C110.544 25.9974 110.824 26.4317 111.386 26.7573C111.945 27.083 112.613 27.3593 113.389 27.5877C114.164 27.8147 114.944 28.0445 115.728 28.2757C116.513 28.5055 117.177 28.9384 117.72 29.5714C118.264 30.2058 118.536 31.0193 118.536 32.0132C118.536 33.3074 118.037 34.3451 117.038 35.1261C116.038 35.9072 114.759 36.2963 113.199 36.2963C111.81 36.2963 110.62 35.9918 109.632 35.3827C108.642 34.7737 107.937 33.9644 107.52 32.955L109.66 31.727C109.888 32.4122 110.317 32.955 110.944 33.3554C111.572 33.7544 112.323 33.9545 113.199 33.9545C114.016 33.9545 114.693 33.7981 115.226 33.4851C115.757 33.1707 116.024 32.6815 116.024 32.016C116.024 31.4648 115.748 31.0221 115.196 30.6894C114.644 30.3566 113.98 30.0747 113.204 29.8421C112.429 29.608 111.649 29.374 110.865 29.1385C110.08 28.9031 109.412 28.4802 108.861 27.8711C108.309 27.2621 108.033 26.481 108.033 25.5294C108.033 24.2915 108.514 23.2722 109.474 22.4728C110.435 21.6735 111.638 21.2731 113.084 21.2731C114.245 21.2731 115.278 21.5353 116.182 22.0583C117.085 22.5828 117.765 23.3117 118.222 24.2436L116.138 25.4152C115.625 24.1971 114.607 23.5866 113.084 23.5866C112.381 23.5866 111.782 23.7502 111.287 24.0758C110.792 24.4015 110.544 24.8625 110.544 25.4589Z" fill="black"/>
<path d="M128.884 24.0434H125.089V31.7834C125.089 32.4883 125.226 32.9888 125.502 33.2835C125.779 33.5795 126.201 33.7318 126.772 33.7403C127.343 33.7501 128.047 33.736 128.884 33.698V35.9255C126.716 36.2117 125.127 36.0341 124.118 35.3968C123.11 34.7596 122.605 33.5556 122.605 31.7834V24.0434H119.78V21.6453H122.605V18.3886L125.089 17.6456V21.6453H128.884V24.0434Z" fill="black"/>
</g>
<defs>
<clipPath id="clip0_1_343">
<rect width="129" height="40.4623" fill="white"/>
</clipPath>
</defs>
</svg>
