<svg width="185" height="29" viewBox="0 0 185 29" fill="none" xmlns="http://www.w3.org/2000/svg">
<g clip-path="url(#clip0_1_318)">
<path d="M22.0188 0C22.9748 0 24.1481 0.677605 24.6264 1.50681L30.977 12.5056C31.4548 13.3339 31.4548 14.69 30.977 15.5178L24.6264 26.5162C24.1481 27.3463 22.9748 28.023 22.0188 28.023H9.31707C8.36153 28.023 7.18732 27.3463 6.70955 26.5162L0.357982 15.5178C-0.119327 14.69 -0.119327 13.3339 0.357982 12.5056L6.70955 1.50681C7.18732 0.677605 8.36153 0 9.31707 0H22.0188ZM12.4432 7.0843H7.21673C6.68107 7.0843 6.22903 7.53773 6.22903 8.07154V19.2853H8.20396V14.7231H12.4432C14.6855 14.7231 16.3761 13.073 16.3761 10.8858C16.3761 8.71929 14.6855 7.0843 12.4432 7.0843ZM21.5388 10.2472C19.2018 10.2472 17.4396 11.9249 17.4396 14.1502V19.272H19.3764V14.1636C19.3764 12.8286 20.2447 11.9314 21.5388 11.9314C22.8329 11.9314 23.7021 12.8286 23.7021 14.1636V19.272H25.637V14.1502C25.637 11.9249 23.8757 10.2472 21.5388 10.2472Z" fill="black"/>
<path d="M14.382 10.8858C14.382 12.1427 13.4021 13.0918 12.1011 13.0918H8.2041V8.71747H12.1011C13.4242 8.71747 14.382 9.6289 14.382 10.8858Z" fill="black"/>
<path d="M45.407 9.12407H41.8826V12.8856H45.407C46.4659 12.8856 47.3792 12.1368 47.3792 10.9864C47.3792 9.81821 46.4659 9.12407 45.407 9.12407ZM45.7355 14.894H41.8826V19.2767H39.5452V8.2843C39.5452 7.64482 40.0748 7.1156 40.7139 7.1156H45.7355C48.1464 7.1156 49.735 8.88656 49.735 10.9864C49.735 13.0868 48.1464 14.894 45.7355 14.894Z" fill="black"/>
<path d="M53.186 15.3139V19.2766H50.9584V10.3841H53.1313V11.9906C53.5149 11.1692 54.8297 10.2197 56.1624 10.2197V12.3196C54.1902 12.3196 53.186 13.5429 53.186 15.3139Z" fill="black"/>
<path d="M61.3829 11.936C60.2326 11.936 59.4107 12.6301 59.2467 13.9812H63.4097C63.282 12.7031 62.6246 11.936 61.3829 11.936ZM59.2279 15.5518C59.2646 16.8845 60.4333 17.6696 62.077 17.6696C62.9168 17.6696 63.8664 17.5419 64.6882 17.3228L65.0897 18.9302C64.0855 19.2582 63.1543 19.4232 62.0587 19.4232C58.8448 19.4232 57.0554 17.5603 57.0554 14.8209C57.0554 12.3742 58.6803 10.2197 61.3829 10.2197C63.9578 10.2197 65.528 12.1183 65.528 14.8761V15.5518H59.2279Z" fill="black"/>
<path d="M71.7187 19.4232C68.7602 19.4232 66.8064 17.4142 66.8064 14.8209C66.8064 12.2286 68.7602 10.2197 71.7187 10.2197C72.5405 10.2197 73.3073 10.329 74.0377 10.6033L73.6725 12.2102C73.0514 12.0637 72.4308 12.009 71.9011 12.009C69.9656 12.009 69.0345 13.1593 69.0345 14.8209C69.0345 16.4826 69.9656 17.6513 71.9011 17.6513C72.5222 17.6513 72.9967 17.5603 73.6725 17.3779L74.0377 19.0028C73.4166 19.2403 72.4491 19.4232 71.7187 19.4232Z" fill="black"/>
<path d="M76.2291 19.2766V10.3841H78.4567V19.2766H76.2291ZM76.2291 8.90489V6.76825H78.4567V8.90489H76.2291Z" fill="black"/>
<path d="M84.0994 19.4232C82.9486 19.4232 81.5612 19.0942 80.4656 18.6197L80.9585 17.0674C82.0358 17.451 83.1677 17.7064 84.081 17.7064C85.2497 17.7064 85.6517 17.3596 85.6517 16.8662C85.6517 16.3369 85.3044 16.1909 83.9533 15.6428C81.5791 14.6753 80.794 14.2008 80.794 12.7031C80.794 11.0415 82.0725 10.2197 84.3916 10.2197C85.2497 10.2197 86.5461 10.3658 87.5141 10.6947L87.1305 12.3196C86.4 12.1183 85.3044 11.936 84.4278 11.936C83.2592 11.936 82.9307 12.1551 82.9307 12.6301C82.9307 13.2145 83.3506 13.3601 84.9208 13.9812C87.1488 14.8577 87.8246 15.2776 87.8246 16.7752C87.8246 18.3638 86.3454 19.4232 84.0994 19.4232Z" fill="black"/>
<path d="M89.7786 19.2766V10.3841H92.0062V19.2766H89.7786ZM89.7786 8.90489V6.76825H92.0062V8.90489H89.7786Z" fill="black"/>
<path d="M98.3788 11.9543C96.9546 11.9543 96.1144 13.1047 96.1144 14.8209C96.1144 16.5377 96.9546 17.6696 98.3788 17.6696C99.8033 17.6696 100.68 16.5377 100.68 14.8209C100.68 13.1047 99.8033 11.9543 98.3788 11.9543ZM98.3788 19.4232C95.6762 19.4232 93.8689 17.2681 93.8689 14.8209C93.8689 12.3742 95.6762 10.2197 98.3788 10.2197C101.081 10.2197 102.908 12.3742 102.908 14.8209C102.908 17.2681 101.081 19.4232 98.3788 19.4232Z" fill="black"/>
<path d="M110.686 19.2766V13.9628C110.686 12.8671 110.193 12.2102 109.079 12.2102C108.075 12.2102 106.998 13.0867 106.998 14.328V19.2766H104.77V10.3841H106.943V11.7903C107.509 10.9496 108.659 10.2197 109.974 10.2197C111.983 10.2197 112.914 11.5891 112.914 13.6343V19.2766H110.686Z" fill="black"/>
<path d="M125.861 19.3685C125.642 19.3685 125.404 19.3129 125.24 19.0942L118.191 9.96378V19.2766H116.585V7.80876C116.585 7.35258 116.968 6.98737 117.406 6.98737C117.662 6.98737 117.88 7.06087 118.046 7.27954L125.075 16.3916V7.11554H126.683V18.565C126.683 19.0396 126.3 19.3685 125.861 19.3685Z" fill="black"/>
<path d="M135.247 19.2766V17.7243C134.645 18.7106 133.513 19.4231 132.179 19.4231C130.171 19.4231 129.166 18.1263 129.166 16.1545V10.3841H130.792V15.9533C130.792 17.2681 131.358 17.9618 132.672 17.9618C133.932 17.9618 135.229 16.8661 135.229 15.0952V10.3841H136.836V19.2766H135.247Z" fill="black"/>
<path d="M142.277 19.4232C140.817 19.4232 139.867 18.729 139.867 16.8299V11.5891H138.662V10.3842H139.867V7.86438H141.474V10.3842H143.209V11.5891H141.474V16.7931C141.474 17.8709 141.858 18.1631 142.497 18.1631C142.734 18.1631 143.063 18.1263 143.355 18.0716L143.519 19.2583C143.136 19.3685 142.625 19.4232 142.277 19.4232Z" fill="black"/>
<path d="M147.153 14.9859V19.2766H145.546V10.3841H147.135V12.1551C147.628 11.1876 148.833 10.238 150.185 10.238V11.6438C148.468 11.6438 147.153 13.3417 147.153 14.9859Z" fill="black"/>
<path d="M151.846 19.2766V10.3841H153.453V19.2766H151.846ZM151.846 8.90488V6.95062H153.453V8.90488H151.846Z" fill="black"/>
<path d="M159.37 19.4232C157.909 19.4232 156.96 18.729 156.96 16.8299V11.5891H155.754V10.3842H156.96V7.86438H158.566V10.3842H160.301V11.5891H158.566V16.7931C158.566 17.8709 158.95 18.1631 159.589 18.1631C159.826 18.1631 160.155 18.1263 160.448 18.0716L160.612 19.2583C160.228 19.3685 159.717 19.4232 159.37 19.4232Z" fill="black"/>
<path d="M162.638 19.2766V10.3841H164.245V19.2766H162.638ZM162.638 8.90488V6.95062H164.245V8.90488H162.638Z" fill="black"/>
<path d="M170.765 11.5344C169.084 11.5344 168.062 12.8671 168.062 14.8209C168.062 16.7752 169.084 18.1079 170.765 18.1079C172.444 18.1079 173.485 16.7752 173.485 14.8209C173.485 12.8671 172.444 11.5344 170.765 11.5344ZM170.765 19.4232C168.134 19.4232 166.455 17.2861 166.455 14.8209C166.455 12.3563 168.134 10.2197 170.765 10.2197C173.394 10.2197 175.092 12.3563 175.092 14.8209C175.092 17.2861 173.412 19.4232 170.765 19.4232Z" fill="black"/>
<path d="M182.871 19.2766V13.689C182.871 12.3742 182.305 11.6801 180.99 11.6801C179.73 11.6801 178.434 12.7941 178.434 14.566V19.2766H176.827V10.3841H178.415V11.936C179.018 10.9496 180.15 10.2197 181.484 10.2197C183.492 10.2197 184.478 11.5344 184.478 13.5066V19.2766H182.871Z" fill="black"/>
</g>
<defs>
<clipPath id="clip0_1_318">
<rect width="185" height="28.662" fill="white"/>
</clipPath>
</defs>
</svg>
