<svg width="143" height="24" viewBox="0 0 143 24" fill="none" xmlns="http://www.w3.org/2000/svg">
<g clip-path="url(#clip0_1_641)">
<path d="M139.467 18.2767H143V0.0055542H139.467V18.2767ZM130.579 10.0585C131.233 9.97648 131.7 9.87255 131.98 9.74909C132.484 9.5342 132.737 9.19897 132.737 8.74496C132.737 8.19094 132.545 7.80882 132.16 7.59862C131.776 7.38764 131.212 7.28214 130.468 7.28214C129.633 7.28214 129.042 7.48844 128.695 7.90181C128.448 8.20735 128.283 8.62072 128.2 9.14114H124.791C124.866 7.95964 125.196 6.98911 125.782 6.22879C126.717 5.03869 128.32 4.44402 130.593 4.44402C132.071 4.44402 133.385 4.73706 134.534 5.3239C135.682 5.90997 136.257 7.01802 136.257 8.64572V14.8432C136.257 15.273 136.266 15.7934 136.281 16.4052C136.306 16.8678 136.377 17.182 136.492 17.3468C136.608 17.5125 136.782 17.6485 137.014 17.7563V18.2767H133.171C133.063 18.004 132.988 17.7477 132.947 17.5086C132.906 17.2687 132.873 16.996 132.848 16.6905C132.36 17.2195 131.799 17.6696 131.162 18.0415C130.403 18.4791 129.542 18.6987 128.584 18.6987C127.361 18.6987 126.351 18.3494 125.554 17.6508C124.756 16.953 124.357 15.9629 124.357 14.6822C124.357 13.0217 124.998 11.8191 126.278 11.0752C126.981 10.6704 128.014 10.3813 129.378 10.2078L130.579 10.0585ZM132.724 11.7073C132.501 11.848 132.276 11.9613 132.048 12.048C131.821 12.1348 131.51 12.2153 131.113 12.2903L130.319 12.4387C129.576 12.5708 129.042 12.7318 128.72 12.9224C128.175 13.2444 127.902 13.7445 127.902 14.422C127.902 15.0252 128.069 15.4613 128.405 15.7293C128.739 15.9981 129.146 16.1325 129.625 16.1325C130.386 16.1325 131.086 15.909 131.726 15.4628C132.366 15.0166 132.699 14.2032 132.724 13.0217V11.7073ZM121.079 6.21629C122.174 7.38138 122.721 9.09191 122.721 11.3479C122.721 13.7281 122.186 15.5418 121.116 16.7897C120.046 18.0376 118.667 18.6612 116.982 18.6612C115.907 18.6612 115.015 18.3924 114.305 17.8555C113.916 17.5578 113.537 17.1241 113.164 16.5537V23.5943H109.669V4.76597H113.052V6.76172C113.433 6.17487 113.837 5.71227 114.267 5.37313C115.053 4.76988 115.986 4.46825 117.069 4.46825C118.647 4.46825 119.984 5.05119 121.079 6.21629ZM118.363 8.75747C117.889 7.95573 117.119 7.55486 116.052 7.55486C114.772 7.55486 113.891 8.16202 113.412 9.37713C113.164 10.0218 113.04 10.84 113.04 11.8316C113.04 13.4015 113.458 14.5048 114.291 15.1409C114.788 15.5128 115.374 15.6988 116.052 15.6988C117.036 15.6988 117.785 15.3183 118.302 14.558C118.818 13.7976 119.076 12.7857 119.076 11.5214C119.076 10.4805 118.839 9.55842 118.363 8.75747ZM96.1945 20.8679L96.6415 20.8921C96.9884 20.9093 97.319 20.8968 97.6323 20.8554C97.9464 20.814 98.2106 20.7187 98.4262 20.5702C98.6325 20.4295 98.824 20.1365 99.0021 19.6903C99.1803 19.2434 99.2522 18.9714 99.2186 18.8722L94.2613 4.76597H98.1902L101.14 14.7322L103.93 4.76597H107.685L103.05 18.054C102.157 20.6155 101.45 22.2042 100.93 22.8199C100.409 23.4357 99.3678 23.7436 97.8066 23.7436C97.4917 23.7436 97.24 23.7412 97.0502 23.7373C96.8603 23.7334 96.575 23.7185 96.1945 23.6935V20.8679ZM85.8071 7.40639V4.89022H87.6911V1.12142H91.1871V4.89022H93.3814V7.40639H91.1871V14.5455C91.1871 15.0995 91.2575 15.4449 91.3981 15.5808C91.538 15.7176 91.9678 15.7856 92.6867 15.7856C92.7945 15.7856 92.9078 15.7832 93.0282 15.7793C93.1477 15.7754 93.2649 15.7692 93.3814 15.7606V18.401L91.7076 18.4627C90.0377 18.5205 88.8976 18.2314 88.2865 17.5953C87.8896 17.1906 87.6911 16.5662 87.6911 15.7238V7.40639H85.8071ZM82.9564 16.6342C81.8164 18.0439 80.0847 18.7479 77.7623 18.7479C75.4407 18.7479 73.7091 18.0439 72.569 16.6342C71.4289 15.2253 70.8577 13.5296 70.8577 11.5464C70.8577 9.59593 71.4289 7.90572 72.569 6.4765C73.7091 5.0465 75.4407 4.33228 77.7623 4.33228C80.0847 4.33228 81.8164 5.0465 82.9564 6.4765C84.0965 7.90572 84.667 9.59593 84.667 11.5464C84.667 13.5296 84.0965 15.2253 82.9564 16.6342ZM80.13 14.6822C80.6841 13.9469 80.9607 12.9013 80.9607 11.5464C80.9607 10.1906 80.6841 9.1474 80.13 8.41599C79.5768 7.68458 78.7829 7.31965 77.7506 7.31965C76.7168 7.31965 75.9221 7.68458 75.3642 8.41599C74.8062 9.1474 74.5273 10.1906 74.5273 11.5464C74.5273 12.9013 74.8062 13.9469 75.3642 14.6822C75.9221 15.4175 76.7168 15.7856 77.7506 15.7856C78.7829 15.7856 79.5768 15.4175 80.13 14.6822ZM61.8464 7.40639V4.89022H63.7304V1.12142H67.2264V4.89022H69.4207V7.40639H67.2264V14.5455C67.2264 15.0995 67.2968 15.4449 67.4366 15.5808C67.5773 15.7176 68.0071 15.7856 68.726 15.7856C68.8338 15.7856 68.9471 15.7832 69.0667 15.7793C69.187 15.7754 69.3042 15.7692 69.4207 15.7606V18.401L67.7469 18.4627C66.0778 18.5205 64.9369 18.2314 64.3258 17.5953C63.9288 17.1906 63.7304 16.5662 63.7304 15.7238V7.40639H61.8464ZM58.9957 16.6342C57.8556 18.0439 56.124 18.7479 53.8016 18.7479C51.48 18.7479 49.7492 18.0439 48.6083 16.6342C47.4682 15.2253 46.8978 13.5296 46.8978 11.5464C46.8978 9.59593 47.4682 7.90572 48.6083 6.4765C49.7492 5.0465 51.48 4.33228 53.8016 4.33228C56.124 4.33228 57.8556 5.0465 58.9957 6.4765C60.1366 7.90572 60.7063 9.59593 60.7063 11.5464C60.7063 13.5296 60.1366 15.2253 58.9957 16.6342ZM56.1701 14.6822C56.7234 13.9469 57 12.9013 57 11.5464C57 10.1906 56.7234 9.1474 56.1701 8.41599C55.6161 7.68458 54.823 7.31965 53.7899 7.31965C52.7561 7.31965 51.9614 7.68458 51.4035 8.41599C50.8455 9.1474 50.5673 10.1906 50.5673 11.5464C50.5673 12.9013 50.8455 13.9469 51.4035 14.6822C51.9614 15.4175 52.7561 15.7856 53.7899 15.7856C54.823 15.7856 55.6161 15.4175 56.1701 14.6822ZM45.3545 4.44949C45.3998 4.45418 45.5014 4.46043 45.6577 4.46825V8.08779C45.435 8.06278 45.2365 8.04637 45.0638 8.03856C44.8895 8.02996 44.7489 8.02606 44.6418 8.02606C43.2204 8.02606 42.2663 8.48866 41.7787 9.41386C41.506 9.93507 41.3692 10.736 41.3692 11.8191V18.2767H37.8114V4.76597H41.1833V7.12117C41.7287 6.22019 42.2038 5.60443 42.6086 5.27389C43.2704 4.72065 44.1292 4.44402 45.1873 4.44402C45.2537 4.44402 45.3092 4.44559 45.3545 4.44949ZM33.6347 10.3688C32.5439 11.2611 30.9865 11.7073 28.9611 11.7073H25.0813V18.2767H21.2891V0.00633562H29.2463C31.081 0.00633562 32.5439 0.476751 33.6347 1.41914C34.7256 2.36076 35.2702 3.81967 35.2702 5.7951C35.2702 7.95182 34.7256 9.47637 33.6347 10.3688ZM30.7403 3.78685C30.2402 3.38207 29.5393 3.1789 28.6391 3.1789H25.0813V8.55899H28.6391C29.5393 8.55899 30.2402 8.34019 30.7403 7.90181C31.2405 7.46422 31.4905 6.76953 31.4905 5.81932C31.4905 4.86912 31.2405 4.19163 30.7403 3.78685Z" fill="black"/>
<path d="M8.98632 6.25138C10.4968 6.25138 11.7213 5.02689 11.7213 3.51641C11.7213 2.00592 10.4968 0.781433 8.98632 0.781433C7.47583 0.781433 6.25134 2.00592 6.25134 3.51641C6.25134 5.02689 7.47583 6.25138 8.98632 6.25138Z" fill="black"/>
<path d="M2.73497 11.7213C4.24546 11.7213 5.46995 10.4969 5.46995 8.98638C5.46995 7.47589 4.24546 6.2514 2.73497 6.2514C1.22449 6.2514 0 7.47589 0 8.98638C0 10.4969 1.22449 11.7213 2.73497 11.7213Z" fill="black"/>
<path d="M8.98632 17.1913C10.4968 17.1913 11.7213 15.9668 11.7213 14.4563C11.7213 12.9458 10.4968 11.7213 8.98632 11.7213C7.47583 11.7213 6.25134 12.9458 6.25134 14.4563C6.25134 15.9668 7.47583 17.1913 8.98632 17.1913Z" fill="black"/>
</g>
<defs>
<clipPath id="clip0_1_641">
<rect width="143" height="24" fill="white"/>
</clipPath>
</defs>
</svg>
