<svg width="92" height="27" viewBox="0 0 92 27" fill="none" xmlns="http://www.w3.org/2000/svg">
<g clip-path="url(#clip0_1_652)">
<path d="M47.0923 25.3745H50.5696V15.5564C50.5696 13.2 52.2585 11.3345 54.4442 11.3345C56.6299 11.3345 58.5176 13.1018 58.5176 15.5564V25.3745H62.2929V15.36C62.2929 11.1382 58.8156 7.89819 55.0403 7.89819C53.6494 7.89819 51.861 8.3891 50.5696 10.1564V8.29088H47.0923V25.3745Z" fill="black"/>
<path d="M82.6599 7.89856C77.5931 7.89856 73.619 11.9239 73.619 16.9312C73.619 22.0367 77.4937 25.7676 82.6599 25.7676C87.8262 25.7676 91.8002 22.0367 91.8002 16.9312C91.8002 11.9239 87.9256 7.89856 82.6599 7.89856ZM82.6599 22.2334C79.7788 22.2334 77.4937 19.8771 77.4937 16.9316C77.4937 13.7897 79.8782 11.5316 82.6599 11.5316C85.6405 11.5316 88.0249 13.7897 88.0249 16.9316C88.0249 19.8771 85.7399 22.2334 82.6599 22.2334Z" fill="black"/>
<path d="M73.0232 25.3746V21.7419C70.4401 23.0182 67.9563 22.0364 67.9563 19.1892V11.7274H72.6258V8.29104H67.9563V3.87286H64.2804V18.5997C64.2804 24.6871 68.4531 26.7492 73.0232 25.3746Z" fill="black"/>
<path d="M35.9651 7.89856C30.8982 7.89856 26.9242 11.9239 26.9242 16.9312C26.9242 22.0367 30.7989 25.7676 35.9651 25.7676C41.1314 25.7676 45.1053 22.0367 45.1053 16.9312C45.1053 11.9239 41.2306 7.89856 35.9651 7.89856ZM35.9651 22.2334C33.084 22.2334 30.7989 19.8771 30.7989 16.9316C30.7989 13.7897 33.084 11.5316 35.9651 11.5316C38.9456 11.5316 41.33 13.7897 41.33 16.9316C41.33 19.8771 38.9456 22.2334 35.9651 22.2334Z" fill="black"/>
<path d="M12.6176 0.436646C5.46437 0.436646 0 5.83665 0 13.2001C0 20.2691 5.46426 25.8652 12.6176 25.8652C19.9696 25.8652 25.434 20.2688 25.434 13.2984C25.434 5.83654 19.9697 0.436646 12.6176 0.436646ZM12.6176 22.0366C7.65007 22.0366 3.97418 18.3058 3.97418 13.2003C3.97418 7.89847 7.65018 3.97116 12.6176 3.97116C17.6846 3.97116 21.3605 7.89847 21.3605 13.1021C21.3605 18.3058 17.6846 22.0366 12.6176 22.0366Z" fill="black"/>
<path d="M24.8379 26.3574C17.6846 25.5719 13.1145 22.0374 10.8292 15.3608L14.4059 14.1827C16.1941 19.4845 19.572 22.1355 25.235 22.7245L24.8379 26.3574Z" fill="black"/>
</g>
<defs>
<clipPath id="clip0_1_652">
<rect width="91.8" height="27" fill="white"/>
</clipPath>
</defs>
</svg>
