<svg width="154" height="28" viewBox="0 0 154 28" fill="none" xmlns="http://www.w3.org/2000/svg">
<g clip-path="url(#clip0_1_666)">
<path d="M3.6693 22.0752V12.5826C4.04563 11.7705 4.50615 11.154 5.05085 10.7331C5.59555 10.3122 6.24919 10.1017 7.01177 10.1017C7.43763 10.1017 7.7793 10.1364 8.0368 10.2057C8.29429 10.275 8.49731 10.3097 8.64587 10.3097C8.81423 10.3097 8.94793 10.2725 9.04697 10.1983C9.146 10.124 9.21038 9.99771 9.24009 9.81945L9.71546 7.07119C9.22028 6.72457 8.59635 6.55125 7.84368 6.55125C6.93254 6.55125 6.11054 6.8236 5.37767 7.3683C4.6448 7.913 4.00602 8.65577 3.46132 9.59662L3.23849 7.75454C3.18897 7.41782 3.08993 7.18013 2.94138 7.04148C2.79282 6.90283 2.53038 6.83351 2.15404 6.83351H0V22.0752H3.6693ZM18.6139 22.298C19.1487 22.298 19.7008 22.2584 20.2703 22.1792C20.8397 22.1 21.3993 21.9638 21.9489 21.7707C22.4986 21.5775 23.0259 21.32 23.531 20.9982C24.0361 20.6763 24.4917 20.2777 24.8977 19.8023L23.8281 18.4653C23.7489 18.3564 23.6548 18.2722 23.5459 18.2128C23.4369 18.1534 23.3082 18.1236 23.1596 18.1236C22.9319 18.1236 22.6966 18.193 22.454 18.3316C22.2114 18.4703 21.9291 18.6238 21.6072 18.7921C21.2854 18.9605 20.909 19.114 20.4782 19.2527C20.0474 19.3913 19.5349 19.4606 18.9407 19.4606C17.7324 19.4606 16.7619 19.0942 16.029 18.3613C15.2962 17.6285 14.8753 16.4796 14.7663 14.9149H24.1847C24.353 14.9149 24.4917 14.8926 24.6006 14.848C24.7096 14.8035 24.7962 14.7292 24.8606 14.6252C24.925 14.5212 24.9695 14.3776 24.9943 14.1944C25.019 14.0112 25.0314 13.7809 25.0314 13.5036C25.0314 12.4043 24.868 11.4263 24.5412 10.5696C24.2144 9.71299 23.7588 8.99002 23.1745 8.40075C22.5902 7.81149 21.8945 7.36335 21.0873 7.05634C20.2802 6.74932 19.3963 6.59582 18.4356 6.59582C17.2967 6.59582 16.2741 6.79389 15.368 7.19004C14.4618 7.58618 13.6942 8.12345 13.0654 8.80185C12.4365 9.48025 11.9537 10.2775 11.617 11.1936C11.2802 12.1097 11.1119 13.0876 11.1119 14.1275C11.1119 15.4645 11.305 16.6406 11.6912 17.6557C12.0775 18.6708 12.6073 19.5225 13.2808 20.2108C13.9542 20.8991 14.7465 21.4191 15.6576 21.7707C16.5688 22.1222 17.5542 22.298 18.6139 22.298ZM21.7335 12.7014H14.8406C15.009 11.5922 15.3952 10.7355 15.9993 10.1314C16.6034 9.52729 17.4403 9.22523 18.5099 9.22523C19.0546 9.22523 19.53 9.31684 19.936 9.50006C20.3421 9.68327 20.6788 9.93334 20.9462 10.2503C21.2136 10.5672 21.4116 10.9361 21.5404 11.357C21.6691 11.7779 21.7335 12.226 21.7335 12.7014ZM32.6077 22.298C33.1425 22.298 33.6402 22.2411 34.1007 22.1272C34.5612 22.0133 34.992 21.8524 35.3931 21.6444C35.7942 21.4364 36.1681 21.1888 36.5147 20.9016C36.8613 20.6144 37.1931 20.2925 37.51 19.936L37.8071 21.4067C37.9557 21.8524 38.2676 22.0752 38.743 22.0752H40.9862V0H37.3169V8.05165C36.8415 7.59608 36.3018 7.23213 35.6976 6.95978C35.0935 6.68743 34.3656 6.55125 33.5139 6.55125C32.5136 6.55125 31.6124 6.7518 30.8102 7.1529C30.008 7.55399 29.3197 8.11107 28.7453 8.82413C28.1709 9.5372 27.7302 10.379 27.4232 11.3496C27.1161 12.3201 26.9626 13.3699 26.9626 14.4989C26.9626 15.7468 27.0988 16.856 27.3712 17.8265C27.6435 18.7971 28.0298 19.6117 28.5299 20.2703C29.03 20.9288 29.6267 21.4315 30.32 21.7781C31.0132 22.1247 31.7758 22.298 32.6077 22.298ZM33.8556 19.3864C33.3802 19.3864 32.9494 19.2997 32.5631 19.1264C32.1769 18.9531 31.8501 18.6708 31.5827 18.2796C31.3153 17.8884 31.1098 17.3833 30.9662 16.7644C30.8226 16.1454 30.7508 15.3902 30.7508 14.4989C30.7508 13.6175 30.835 12.8524 31.0033 12.2037C31.1717 11.5551 31.4118 11.0203 31.7238 10.5994C32.0358 10.1785 32.4171 9.86402 32.8677 9.65604C33.3183 9.44806 33.8209 9.34408 34.3755 9.34408C34.94 9.34408 35.4674 9.44806 35.9576 9.65604C36.4478 9.86402 36.9009 10.2205 37.3169 10.7256V17.5591C36.8415 18.1435 36.3364 18.5941 35.8016 18.911C35.2668 19.2279 34.6181 19.3864 33.8556 19.3864ZM48.6219 27.0518V20.8125C49.0972 21.2779 49.6345 21.6419 50.2337 21.9044C50.8329 22.1668 51.5633 22.298 52.4249 22.298C53.4251 22.298 54.3288 22.0975 55.136 21.6964C55.9431 21.2953 56.6314 20.7382 57.2009 20.0251C57.7704 19.3121 58.2086 18.4703 58.5156 17.4997C58.8226 16.5292 58.9761 15.4744 58.9761 14.3355C58.9761 13.0876 58.8399 11.9809 58.5676 11.0153C58.2952 10.0497 57.909 9.23761 57.4089 8.57902C56.9087 7.92043 56.3145 7.41782 55.6262 7.07119C54.9379 6.72457 54.1778 6.55125 53.3459 6.55125C52.2763 6.55125 51.3429 6.76913 50.5457 7.20489C49.7484 7.64065 49.0428 8.21011 48.4288 8.91327L48.1316 7.502C48.0821 7.27422 47.9732 7.10585 47.8048 6.99691C47.6365 6.88797 47.4334 6.83351 47.1958 6.83351H44.9526V27.0518H48.6219ZM51.5633 19.5052C50.9987 19.5052 50.4714 19.4037 49.9811 19.2007C49.4909 18.9976 49.0378 18.6386 48.6219 18.1236V11.2901C49.0873 10.7058 49.59 10.2527 50.1297 9.93087C50.6694 9.609 51.3206 9.44806 52.0832 9.44806C52.5685 9.44806 53.0018 9.5372 53.383 9.71546C53.7643 9.89373 54.0887 10.176 54.3561 10.5622C54.6235 10.9485 54.829 11.4511 54.9726 12.07C55.1162 12.689 55.188 13.4442 55.188 14.3355C55.188 15.2169 55.1038 15.982 54.9354 16.6307C54.7671 17.2794 54.5269 17.8166 54.215 18.2425C53.903 18.6683 53.5217 18.9853 53.0711 19.1932C52.6205 19.4012 52.1179 19.5052 51.5633 19.5052ZM68.2311 22.298C68.7659 22.298 69.318 22.2584 69.8874 22.1792C70.4569 22.1 71.0165 21.9638 71.5661 21.7707C72.1158 21.5775 72.6431 21.32 73.1482 20.9982C73.6533 20.6763 74.1089 20.2777 74.5149 19.8023L73.4453 18.4653C73.3661 18.3564 73.272 18.2722 73.1631 18.2128C73.0541 18.1534 72.9254 18.1236 72.7768 18.1236C72.549 18.1236 72.3138 18.193 72.0712 18.3316C71.8286 18.4703 71.5463 18.6238 71.2244 18.7921C70.9026 18.9605 70.5262 19.114 70.0954 19.2527C69.6646 19.3913 69.1521 19.4606 68.5579 19.4606C67.3496 19.4606 66.3791 19.0942 65.6462 18.3613C64.9133 17.6285 64.4924 16.4796 64.3835 14.9149H73.8019C73.9702 14.9149 74.1089 14.8926 74.2178 14.848C74.3267 14.8035 74.4134 14.7292 74.4778 14.6252C74.5421 14.5212 74.5867 14.3776 74.6115 14.1944C74.6362 14.0112 74.6486 13.7809 74.6486 13.5036C74.6486 12.4043 74.4852 11.4263 74.1584 10.5696C73.8316 9.71299 73.376 8.99002 72.7917 8.40075C72.2074 7.81149 71.5116 7.36335 70.7045 7.05634C69.8973 6.74932 69.0134 6.59582 68.0528 6.59582C66.9139 6.59582 65.8913 6.79389 64.9851 7.19004C64.079 7.58618 63.3114 8.12345 62.6826 8.80185C62.0537 9.48025 61.5709 10.2775 61.2341 11.1936C60.8974 12.1097 60.7291 13.0876 60.7291 14.1275C60.7291 15.4645 60.9222 16.6406 61.3084 17.6557C61.6947 18.6708 62.2245 19.5225 62.898 20.2108C63.5714 20.8991 64.3637 21.4191 65.2748 21.7707C66.186 22.1222 67.1714 22.298 68.2311 22.298ZM71.3507 12.7014H64.4578C64.6261 11.5922 65.0124 10.7355 65.6165 10.1314C66.2206 9.52729 67.0575 9.22523 68.1271 9.22523C68.6718 9.22523 69.1472 9.31684 69.5532 9.50006C69.9592 9.68327 70.296 9.93334 70.5634 10.2503C70.8308 10.5672 71.0288 10.9361 71.1576 11.357C71.2863 11.7779 71.3507 12.226 71.3507 12.7014ZM81.3039 22.0752V11.0525C81.799 10.5573 82.3239 10.1661 82.8785 9.87887C83.4331 9.59167 84.0274 9.44806 84.6612 9.44806C85.5228 9.44806 86.169 9.70308 86.5998 10.2131C87.0306 10.7232 87.246 11.4436 87.246 12.3746V22.0752H90.9153V12.3746C90.9153 11.5229 90.8039 10.743 90.5811 10.0349C90.3582 9.32674 90.0314 8.71767 89.6006 8.20763C89.1698 7.6976 88.6325 7.30145 87.9888 7.0192C87.3451 6.73694 86.6072 6.59582 85.7753 6.59582C85.2604 6.59582 84.785 6.64534 84.3492 6.74437C83.9135 6.84341 83.5049 6.98701 83.1236 7.17518C82.7424 7.36335 82.3809 7.58618 82.0392 7.84368C81.6975 8.10117 81.3732 8.38837 81.0662 8.70529L80.8136 7.502C80.6651 7.05634 80.3531 6.83351 79.8777 6.83351H77.6346V22.0752H81.3039ZM100.349 22.298C100.883 22.298 101.423 22.2584 101.968 22.1792C102.512 22.1 103.04 21.9638 103.55 21.7707C104.06 21.5775 104.553 21.32 105.028 20.9982C105.503 20.6763 105.944 20.2777 106.35 19.8023L105.295 18.4653C105.147 18.2375 104.924 18.1236 104.627 18.1236C104.399 18.1236 104.194 18.1954 104.01 18.339C103.827 18.4827 103.612 18.6411 103.364 18.8144C103.117 18.9877 102.812 19.1462 102.451 19.2898C102.089 19.4334 101.616 19.5052 101.032 19.5052C100.448 19.5052 99.9227 19.3938 99.4572 19.171C98.9917 18.9481 98.5956 18.6213 98.2688 18.1905C97.942 17.7597 97.6919 17.2274 97.5186 16.5935C97.3453 15.9597 97.2586 15.2367 97.2586 14.4246C97.2586 13.6423 97.3378 12.9416 97.4963 12.3226C97.6548 11.7036 97.8949 11.1762 98.2168 10.7405C98.5386 10.3047 98.9422 9.97048 99.4275 9.73774C99.9128 9.50501 100.477 9.38864 101.121 9.38864C101.626 9.38864 102.049 9.44559 102.391 9.55948C102.733 9.67337 103.027 9.80212 103.275 9.94572C103.523 10.0893 103.736 10.2181 103.914 10.332C104.092 10.4459 104.275 10.5028 104.463 10.5028C104.662 10.5028 104.813 10.4632 104.917 10.384C105.021 10.3047 105.127 10.1958 105.236 10.0571L106.202 8.72015C105.518 8.0368 104.748 7.5119 103.892 7.14547C103.035 6.77903 102.037 6.59582 100.898 6.59582C99.6998 6.59582 98.6402 6.79389 97.7191 7.19004C96.7981 7.58618 96.0256 8.13336 95.4017 8.83156C94.7777 9.52977 94.3048 10.3567 93.983 11.3124C93.6611 12.2681 93.5002 13.3055 93.5002 14.4246C93.5002 15.6725 93.6809 16.7842 94.0424 17.7597C94.4039 18.7352 94.8941 19.5597 95.5131 20.2331C96.1321 20.9066 96.8575 21.4191 97.6894 21.7707C98.5213 22.1222 99.4077 22.298 100.349 22.298ZM110.777 4.69432C111.104 4.69432 111.411 4.63242 111.698 4.50863C111.985 4.38483 112.235 4.21895 112.448 4.01097C112.661 3.80299 112.832 3.56036 112.961 3.28305C113.09 3.00575 113.154 2.70864 113.154 2.39173C113.154 2.06491 113.09 1.75789 112.961 1.47069C112.832 1.18348 112.661 0.935893 112.448 0.727917C112.235 0.519941 111.985 0.354055 111.698 0.230259C111.411 0.106464 111.104 0.0445663 110.777 0.0445663C110.46 0.0445663 110.161 0.106464 109.878 0.230259C109.596 0.354055 109.351 0.519941 109.143 0.727917C108.935 0.935893 108.769 1.18348 108.645 1.47069C108.522 1.75789 108.46 2.06491 108.46 2.39173C108.46 2.70864 108.522 3.00575 108.645 3.28305C108.769 3.56036 108.935 3.80299 109.143 4.01097C109.351 4.21895 109.596 4.38483 109.878 4.50863C110.161 4.63242 110.46 4.69432 110.777 4.69432ZM112.604 22.0752V6.83351H108.935V22.0752H112.604ZM120.656 22.0752V0H116.987V22.0752H120.656Z" fill="black"/>
<path d="M126.182 22.2832C126.489 22.2832 126.781 22.2262 127.059 22.1124C127.336 21.9985 127.574 21.8425 127.772 21.6444C127.97 21.4463 128.128 21.2111 128.247 20.9388C128.366 20.6664 128.425 20.3718 128.425 20.0549C128.425 19.7479 128.366 19.4557 128.247 19.1784C128.128 18.9011 127.97 18.6634 127.772 18.4653C127.574 18.2673 127.336 18.1088 127.059 17.99C126.781 17.8711 126.489 17.8117 126.182 17.8117C125.865 17.8117 125.568 17.8711 125.291 17.99C125.013 18.1088 124.773 18.2673 124.57 18.4653C124.367 18.6634 124.209 18.9011 124.095 19.1784C123.981 19.4557 123.924 19.7479 123.924 20.0549C123.924 20.3718 123.981 20.6664 124.095 20.9388C124.209 21.2111 124.367 21.4463 124.57 21.6444C124.773 21.8425 125.013 21.9985 125.291 22.1124C125.568 22.2262 125.865 22.2832 126.182 22.2832Z" fill="black"/>
<path d="M133.565 4.69431C133.892 4.69431 134.199 4.63241 134.486 4.50862C134.773 4.38482 135.024 4.21894 135.236 4.01096C135.449 3.80298 135.62 3.56034 135.749 3.28304C135.878 3.00574 135.942 2.70863 135.942 2.39172C135.942 2.0649 135.878 1.75788 135.749 1.47068C135.62 1.18347 135.449 0.935882 135.236 0.727906C135.024 0.51993 134.773 0.354044 134.486 0.230249C134.199 0.106453 133.892 0.0445557 133.565 0.0445557C133.248 0.0445557 132.949 0.106453 132.667 0.230249C132.384 0.354044 132.139 0.51993 131.931 0.727906C131.723 0.935882 131.557 1.18347 131.434 1.47068C131.31 1.75788 131.248 2.0649 131.248 2.39172C131.248 2.70863 131.31 3.00574 131.434 3.28304C131.557 3.56034 131.723 3.80298 131.931 4.01096C132.139 4.21894 132.384 4.38482 132.667 4.50862C132.949 4.63241 133.248 4.69431 133.565 4.69431ZM135.392 22.0752V6.83349H131.723V22.0752H135.392ZM146.044 22.298C147.183 22.298 148.215 22.1148 149.141 21.7484C150.067 21.3819 150.857 20.857 151.511 20.1737C152.164 19.4903 152.669 18.6634 153.026 17.6928C153.382 16.7223 153.561 15.6329 153.561 14.4246C153.561 13.2263 153.382 12.1418 153.026 11.1713C152.669 10.2007 152.164 9.37873 151.511 8.70528C150.857 8.03183 150.067 7.51189 149.141 7.14546C148.215 6.77902 147.183 6.59581 146.044 6.59581C144.905 6.59581 143.87 6.77902 142.939 7.14546C142.008 7.51189 141.213 8.03183 140.555 8.70528C139.896 9.37873 139.386 10.2007 139.025 11.1713C138.663 12.1418 138.482 13.2263 138.482 14.4246C138.482 15.6329 138.663 16.7223 139.025 17.6928C139.386 18.6634 139.896 19.4903 140.555 20.1737C141.213 20.857 142.008 21.3819 142.939 21.7484C143.87 22.1148 144.905 22.298 146.044 22.298ZM146.044 19.4755C144.756 19.4755 143.806 19.0471 143.192 18.1905C142.578 17.3338 142.271 16.0884 142.271 14.4543C142.271 12.8202 142.578 11.5699 143.192 10.7033C143.806 9.83677 144.756 9.40349 146.044 9.40349C147.311 9.40349 148.25 9.83429 148.859 10.6959C149.468 11.5575 149.773 12.8103 149.773 14.4543C149.773 16.0983 149.468 17.3462 148.859 18.1979C148.25 19.0496 147.311 19.4755 146.044 19.4755Z" fill="black"/>
</g>
<defs>
<clipPath id="clip0_1_666">
<rect width="154" height="28" fill="white"/>
</clipPath>
</defs>
</svg>
