<svg width="154" height="22" viewBox="0 0 154 22" fill="none" xmlns="http://www.w3.org/2000/svg">
<g clip-path="url(#clip0_1_684)">
<path d="M98.0271 0.0182495H99.207L111.019 16.2682C111.703 17.2151 112.709 18.8739 112.709 18.8739H112.767C112.767 18.8739 112.62 17.3051 112.62 16.2682V0.0182495H113.888V20.7342H112.709L100.899 4.48425C100.216 3.5374 99.207 1.88407 99.207 1.88407H99.1508C99.1508 1.88407 99.2966 3.45332 99.2966 4.48425V20.7342H98.0271V0.0182495Z" fill="black"/>
<path d="M128.871 11.9759C128.714 8.36165 126.562 6.73665 124.097 6.73665C121.374 6.73665 118.863 8.51291 118.326 11.9759H128.871ZM124.13 5.58234C128.154 5.58234 130.171 8.7487 130.171 12.3291C130.171 12.654 130.104 13.1302 130.104 13.1302H118.237C118.237 17.4225 121.138 19.8769 124.578 19.8769C127.414 19.8769 129.162 18.0111 129.162 18.0111L129.846 19.0475C129.846 19.0475 127.772 21.0925 124.578 21.0925C120.399 21.0925 116.936 18.0723 116.936 13.3655C116.936 8.36165 120.342 5.58234 124.13 5.58234Z" fill="black"/>
<path d="M137.331 12.9231L132.568 5.93549H134.07L137.656 11.3259C137.892 11.7071 138.16 12.1553 138.16 12.1553H138.216C138.216 12.1553 138.485 11.7071 138.721 11.3259L142.296 5.93549H143.809L139.046 12.9231L144.369 20.7341H142.833L138.754 14.6098C138.485 14.1948 138.216 13.752 138.216 13.752H138.16C138.16 13.752 137.925 14.1669 137.623 14.6098L133.543 20.7341H131.997L137.331 12.9231Z" fill="black"/>
<path d="M148.157 7.15128H146.207V6.02529H148.157V1.82251H149.401V6.02529H153.278V7.15128H149.401V15.2877C149.401 19.1989 151.743 19.6975 152.931 19.6975C153.346 19.6975 153.604 19.6413 153.604 19.6413V20.7956C153.604 20.7956 153.312 20.8518 152.864 20.8518C151.329 20.8518 148.157 20.2915 148.157 15.3773V7.15128Z" fill="black"/>
<path d="M35.1933 10.3789C37.9164 10.3789 39.631 8.42348 39.631 5.61035C39.631 3.77835 38.7179 2.29867 37.2049 1.61504C36.6163 1.35182 35.961 1.20056 34.3081 1.20056H29.5675V10.3789H35.1933ZM28.2953 0.0183716H34.3639C36.2859 0.0183716 37.2666 0.225381 38.096 0.640312C39.8106 1.49759 40.9649 3.24597 40.9649 5.61035C40.9649 8.56926 39.2499 10.7883 36.8238 11.3257V11.3819C36.8238 11.3819 37.0308 11.6173 37.2945 12.1218L41.9401 20.7339H40.4325L35.5182 11.5615H29.5675V20.7339H28.2953V0.0183716Z" fill="black"/>
<path d="M54.9615 11.9759C54.8157 8.36165 52.6534 6.73665 50.1985 6.73665C47.4758 6.73665 44.9593 8.51291 44.4274 11.9759H54.9615ZM50.2268 5.58234C54.256 5.58234 56.2671 8.7487 56.2671 12.3291C56.2671 12.654 56.2054 13.1302 56.2054 13.1302H44.3374C44.3374 17.4225 47.24 19.8769 50.6692 19.8769C53.5161 19.8769 55.2586 18.0111 55.2586 18.0111L55.9422 19.0475C55.9422 19.0475 53.8689 21.0925 50.6692 21.0925C46.5002 21.0925 43.0377 18.0723 43.0377 13.3655C43.0377 8.36165 46.439 5.58234 50.2268 5.58234Z" fill="black"/>
<path d="M60.7659 7.15128H58.8105V6.02529H60.7659V1.82251H62.0043V6.02529H65.8818V7.15128H62.0043V15.2877C62.0043 19.1989 64.3468 19.6975 65.529 19.6975C65.9439 19.6975 66.2126 19.6413 66.2126 19.6413V20.7956C66.2126 20.7956 65.9156 20.8518 65.4677 20.8518C63.9318 20.8518 60.7659 20.2915 60.7659 15.3773V7.15128Z" fill="black"/>
<path d="M73.3117 19.9383C76.5388 19.9383 78.3713 16.5933 78.3713 13.6627V12.8612H77.4249C74.9088 12.8612 69.5238 12.8612 69.5238 16.7112C69.5238 18.28 70.7956 19.9383 73.3117 19.9383ZM77.3961 11.7069H78.3713V11.2028C78.3713 7.91902 76.6855 6.79258 74.3202 6.79258C71.7429 6.79258 70.0841 8.21606 70.0841 8.21606L69.3726 7.20752C69.3726 7.20752 71.1493 5.58252 74.376 5.58252C77.7827 5.58252 79.6156 7.47622 79.6156 11.175V20.7339H78.3713V18.7845C78.3713 17.9829 78.4947 17.4506 78.4947 17.4506H78.433C78.4609 17.4506 77.1 21.0927 73.25 21.0927C70.8573 21.0927 68.2238 19.7592 68.2238 16.8003C68.2238 11.7686 74.763 11.7069 77.3961 11.7069Z" fill="black"/>
<path d="M84.4674 5.93526H85.7117V20.7339H84.4674V5.93526ZM84.3508 0.0183716H85.8296V2.17574H84.3508V0.0183716Z" fill="black"/>
<path d="M90.6233 0.0182495H91.8672V17.3608C91.8672 19.4341 92.9315 19.6695 93.6114 19.6695C93.8472 19.6695 94.0597 19.6411 94.0597 19.6411V20.7955C94.0597 20.7955 93.7906 20.8517 93.5223 20.8517C92.6669 20.8517 90.6233 20.5268 90.6233 17.7474V0.0182495Z" fill="black"/>
<path d="M7.77449 13.3965H14.5244V19.6735L20.6748 13.5706V0.595741H7.59901L1.44861 6.69862H7.77449V13.3965ZM13.9244 21.1111V13.9919H7.17448V7.29406H0L7.35042 0.000305176H21.2748V13.8173L13.9244 21.1111Z" fill="black"/>
<path d="M20.9749 13.9916H14.225C14.0591 13.9916 13.9247 13.8582 13.9247 13.6941V7.29375H7.47455C7.30867 7.29375 7.17432 7.16031 7.17432 6.9958V0.297947C7.17432 0.133436 7.30867 0 7.47455 0C7.63997 0 7.77432 0.133436 7.77432 0.297947V6.69831H14.1007L20.7629 0.0872819C20.8799 -0.0287893 21.07 -0.0287893 21.1869 0.0872819C21.3044 0.20381 21.3044 0.392083 21.1869 0.508611L14.5247 7.11919V13.3962H20.9749C21.1403 13.3962 21.2747 13.5296 21.2747 13.6941C21.2747 13.8582 21.1403 13.9916 20.9749 13.9916Z" fill="black"/>
</g>
<defs>
<clipPath id="clip0_1_684">
<rect width="154" height="21.4777" fill="white"/>
</clipPath>
</defs>
</svg>
