<svg width="120" height="40" viewBox="0 0 120 40" fill="none" xmlns="http://www.w3.org/2000/svg">
<g clip-path="url(#clip0_1_710)">
<path d="M11.2219 0.33661C9.02476 0.893386 7.79803 3.00471 7.96715 5.21751C8.28196 9.3413 7.18012 11.7609 2.52817 13.9035H2.52947C2.41369 13.9568 2.30051 14.0154 2.19124 14.0791L2.18604 14.083C1.74894 14.3354 1.36388 14.658 1.04517 15.0327C1.04126 15.0379 1.03736 15.0431 1.03346 15.047C0.956705 15.1367 0.882555 15.2317 0.814909 15.328C0.812308 15.3332 0.808405 15.3358 0.805803 15.341C0.665308 15.5387 0.541725 15.7481 0.435052 15.968C0.433752 15.9706 0.432451 15.9719 0.43115 15.9745C0.380416 16.0786 0.334885 16.1852 0.294557 16.2932C0.289354 16.3062 0.285451 16.3179 0.280248 16.3309C0.23992 16.435 0.206098 16.5417 0.174876 16.6496C0.169673 16.6653 0.16577 16.6796 0.163169 16.6952C0.131947 16.8031 0.104629 16.9137 0.082514 17.0256C0.0799122 17.036 0.0786114 17.0438 0.0773105 17.0516C0.0564964 17.1661 0.0382841 17.2793 0.0252753 17.395C0.0252753 17.399 0.0239744 17.4055 0.0239744 17.4094C0.0122665 17.5238 0.00576208 17.637 0.00185944 17.7528C0.00185944 17.771 0.000558561 17.7866 0.000558561 17.8061C-0.0020432 17.9167 0.00185944 18.0286 0.00966472 18.1405C0.00966472 18.1613 0.0122665 18.1821 0.0135674 18.2016C0.0213726 18.3161 0.0343814 18.4292 0.0525938 18.5398C0.0551955 18.5567 0.0577973 18.5736 0.060399 18.5893C0.0799122 18.7089 0.103328 18.8273 0.134549 18.947C0.164469 19.0667 0.200894 19.1812 0.23862 19.2969C0.243823 19.3125 0.249027 19.3269 0.25423 19.3425C0.291956 19.4504 0.334885 19.5558 0.381716 19.6586C0.389522 19.6781 0.398628 19.6963 0.406433 19.7158C0.453265 19.816 0.503999 19.9175 0.558636 20.015C0.566441 20.0293 0.575548 20.0449 0.584654 20.0592C0.641892 20.1594 0.701733 20.257 0.768078 20.3506C0.770679 20.3545 0.773281 20.3585 0.777184 20.3624C0.842228 20.4586 0.912475 20.551 0.986626 20.6407C0.991829 20.6472 0.997033 20.6538 1.00224 20.6629C1.07639 20.75 1.15184 20.8346 1.23119 20.9152C1.2416 20.9256 1.2507 20.936 1.26111 20.9478C1.34046 21.0284 1.42112 21.1052 1.50698 21.178C1.51738 21.1858 1.52649 21.1936 1.5369 21.204C1.62536 21.2782 1.71642 21.351 1.80878 21.4187C1.81138 21.42 1.81399 21.4213 1.81659 21.4239C2.01302 21.5657 2.22246 21.688 2.43971 21.7972C2.44361 21.7998 2.44881 21.8024 2.45402 21.805C2.56069 21.8584 2.66996 21.9052 2.78054 21.9481C2.78574 21.952 2.79225 21.9533 2.79745 21.9546C3.25666 22.1329 3.74839 22.2343 4.25314 22.2499H4.26094C4.38713 22.2525 4.51461 22.2512 4.6421 22.2434C8.32879 22.0899 10.8681 22.9823 12.4071 25.0182C12.7947 25.5685 13.1407 26.1929 13.4347 26.9006C13.4413 26.9162 13.4491 26.9305 13.4543 26.9461C14.1997 28.8558 15.8622 30.1996 17.7862 30.1645C18.0984 30.1593 18.4171 30.1216 18.7423 30.0409C20.3541 29.6311 21.5288 28.3784 21.9113 26.8746C21.9217 26.8303 21.9282 26.7848 21.9386 26.7393C21.9594 26.6456 21.9802 26.5532 21.9958 26.4596C22.0167 26.3243 22.031 26.1877 22.0388 26.0485C22.0388 26.0433 22.0401 26.0381 22.0401 26.0342C22.0622 25.64 22.0245 25.2381 21.9347 24.8374C21.9256 24.7997 21.9217 24.7632 21.9113 24.7255C21.3558 22.5257 19.2341 21.2079 17.0304 21.4681C17.0122 21.4707 16.9953 21.4707 16.977 21.472C15.8921 21.5527 14.936 21.4889 14.0579 21.364C11.2233 20.9621 9.32917 19.107 8.71515 16.837C7.82665 13.5601 9.53731 10.4262 13.3996 8.81965C15.6189 7.89602 17.1305 5.84323 16.5386 3.50946C16.0378 1.52692 14.2556 0.206522 12.2991 0.204983C11.9439 0.201318 11.5823 0.245548 11.2219 0.33661Z" fill="black"/>
<path d="M18.3287 10.0357C18.0178 10.0396 17.6977 10.0774 17.3725 10.1593C15.7607 10.5678 14.5873 11.8205 14.2036 13.3257C14.1919 13.3699 14.1854 13.4154 14.1763 13.461C14.1554 13.5546 14.1333 13.647 14.119 13.7406C14.0982 13.8759 14.0839 14.0138 14.0774 14.1517C14.0761 14.1582 14.0748 14.1621 14.0748 14.166C14.054 14.5602 14.0904 14.9622 14.1815 15.3641C14.1906 15.4019 14.1945 15.4396 14.2049 15.476V15.4773C14.7603 17.6745 16.8808 18.9936 19.0858 18.7334C19.104 18.7308 19.1209 18.7308 19.1391 18.7282C20.224 18.6476 21.1802 18.7126 22.0596 18.8362C24.8942 19.2382 26.787 21.0945 27.401 23.3646C28.2895 26.6415 26.5788 29.7753 22.7165 31.3806C20.4972 32.3042 18.9869 34.357 19.5775 36.6895C20.1707 39.0337 22.5513 40.4529 24.8955 39.8597C27.0927 39.3029 28.3194 37.1916 28.1503 34.9775C27.8355 30.855 28.9373 28.4341 33.588 26.2915C33.7038 26.2382 33.8169 26.1797 33.9262 26.1159C33.9288 26.1146 33.9314 26.1133 33.9314 26.1133C34.3685 25.8609 34.7523 25.537 35.071 25.1624C35.0749 25.1585 35.0788 25.1533 35.0827 25.1481C35.1594 25.0557 35.2323 24.9633 35.3012 24.8671C35.3038 24.8606 35.3077 24.858 35.309 24.8528C35.4495 24.655 35.5744 24.4469 35.6798 24.2257L35.6824 24.2205C35.7331 24.1152 35.7787 24.0072 35.8203 23.9005C35.8242 23.8875 35.8294 23.8758 35.8333 23.8641C35.8736 23.76 35.9088 23.6534 35.94 23.5454C35.9452 23.5311 35.9478 23.5155 35.9517 23.5024C35.9829 23.3919 36.0102 23.2826 36.0323 23.1707C36.0336 23.1616 36.0349 23.1525 36.0375 23.1434C36.0597 23.0315 36.0766 22.9171 36.0896 22.8013C36.0896 22.7974 36.0909 22.7909 36.0909 22.787C36.1039 22.6725 36.1091 22.558 36.113 22.4422C36.113 22.424 36.1143 22.4084 36.1143 22.3889C36.1169 22.2783 36.113 22.1664 36.1065 22.0546C36.1065 22.0338 36.1039 22.0142 36.1026 21.9947C36.0948 21.8803 36.0805 21.7671 36.0636 21.6552C36.061 21.6383 36.0571 21.6214 36.0558 21.6058C36.0362 21.4861 36.0128 21.3677 35.9816 21.248C35.9504 21.1283 35.9153 21.0139 35.8762 20.8981C35.871 20.8838 35.8658 20.8669 35.8606 20.8526C35.8229 20.7446 35.7787 20.6379 35.7331 20.5351C35.7253 20.5169 35.7175 20.4974 35.7084 20.4792C35.6616 20.3777 35.6109 20.2776 35.5562 20.18C35.5484 20.1657 35.5393 20.1501 35.5302 20.1345C35.4717 20.0356 35.4131 19.9367 35.3468 19.8431C35.3442 19.8379 35.3416 19.834 35.3377 19.8301C35.2726 19.7338 35.2024 19.6414 35.1282 19.5517C35.1217 19.5452 35.1178 19.5374 35.1126 19.5309C35.0385 19.4437 34.9617 19.3578 34.8837 19.2772C34.8733 19.2668 34.8628 19.2551 34.8524 19.246C34.7731 19.1653 34.6924 19.0886 34.6066 19.0157C34.5962 19.0066 34.5871 18.9988 34.5767 18.9897C34.4882 18.9142 34.3971 18.8427 34.3035 18.7751C34.3009 18.7725 34.297 18.7698 34.297 18.7698C34.0992 18.6281 33.8911 18.5032 33.6738 18.3952C33.6699 18.3926 33.6647 18.39 33.6595 18.3874C33.5529 18.3354 33.4436 18.2872 33.333 18.2443C33.3265 18.2404 33.3213 18.2391 33.3148 18.2378C32.8569 18.0596 32.3652 17.9581 31.8604 17.9438H31.8526C31.7264 17.9399 31.6002 17.9425 31.4728 17.9503V17.949C27.7848 18.1051 25.2467 17.2114 23.7065 15.1768C23.3201 14.6265 22.9741 14.0008 22.6788 13.2931C22.6723 13.2788 22.6645 13.2632 22.658 13.2476C21.923 11.3613 20.2917 10.0292 18.3976 10.0292C18.3768 10.0357 18.3521 10.0357 18.3287 10.0357Z" fill="black"/>
<path d="M51.49 26.7901C52.743 26.7901 53.198 26.3921 53.198 25.6511C53.198 24.7401 52.344 24.3701 50.92 23.9431C48.329 23.1731 45.51 22.1211 45.51 18.8181C45.51 16.3971 47.076 14.8311 50.635 14.8311C53.197 14.8311 55.191 15.4001 55.191 15.4001C55.334 15.4581 55.447 15.5711 55.476 15.6851C55.476 15.6851 55.761 17.8491 55.761 17.9621C55.761 18.1341 55.648 18.2471 55.476 18.2471C55.334 18.2471 53.056 17.6781 50.636 17.6781C49.497 17.6781 48.928 18.0761 48.928 18.8181C48.928 19.7281 49.782 20.0981 51.206 20.5261C53.797 21.2951 56.616 22.3191 56.616 25.6511C56.616 27.9291 54.765 29.6371 51.491 29.6371C48.359 29.6371 46.081 28.7831 46.081 28.7831C45.938 28.7251 45.825 28.6111 45.797 28.4981C45.797 28.4981 45.512 26.3341 45.512 26.2201C45.512 26.0491 45.626 25.9361 45.797 25.9361C45.937 25.9361 48.928 26.7901 51.49 26.7901Z" fill="black"/>
<path d="M62.51 20.81H68.888C68.775 19.216 68.063 17.678 66.069 17.678C63.365 17.678 62.709 19.016 62.51 20.81ZM62.51 23.658C62.738 25.48 63.507 26.79 66.354 26.79C68.632 26.79 71.052 26.221 71.195 26.221C71.366 26.221 71.479 26.335 71.479 26.506C71.479 26.591 71.195 28.783 71.195 28.783C71.166 28.926 71.081 29.04 70.911 29.068C70.911 29.068 68.917 29.637 66.354 29.637C60.232 29.637 58.951 26.305 58.951 22.234C58.951 18.162 60.262 14.859 66.069 14.859C70.109 14.859 72.363 17.109 72.363 22.234V23.373C72.363 23.516 72.219 23.658 72.05 23.658H62.51Z" fill="black"/>
<path d="M75.58 8.54003C75.58 8.36903 75.694 8.25503 75.865 8.25503L78.713 7.97003C78.883 7.97003 78.998 8.08403 78.998 8.25503V27.077C78.998 28.216 79.282 28.956 79.282 29.07C79.282 29.241 79.168 29.355 78.998 29.355H76.15C76.036 29.355 75.921 29.241 75.865 29.07C75.865 29.07 75.58 28.216 75.58 27.077V8.54003Z" fill="black"/>
<path d="M83.19 8.54003C83.19 8.36903 83.304 8.25503 83.475 8.25503L86.323 7.97003C86.493 7.97003 86.607 8.08403 86.607 8.25503V27.077C86.607 28.216 86.891 28.956 86.891 29.07C86.891 29.241 86.777 29.355 86.607 29.355H83.759C83.645 29.355 83.531 29.241 83.475 29.07C83.475 29.07 83.19 28.216 83.19 27.077V8.54003Z" fill="black"/>
<path d="M93.55 20.81H99.928C99.815 19.216 99.103 17.678 97.109 17.678C94.403 17.678 93.749 19.016 93.55 20.81ZM93.55 23.658C93.778 25.48 94.547 26.79 97.394 26.79C99.672 26.79 102.092 26.221 102.235 26.221C102.406 26.221 102.519 26.335 102.519 26.506C102.519 26.591 102.235 28.783 102.235 28.783C102.207 28.926 102.121 29.04 101.951 29.068C101.951 29.068 99.957 29.637 97.394 29.637C91.272 29.637 89.991 26.305 89.991 22.234C89.991 18.162 91.302 14.859 97.109 14.859C101.149 14.859 103.403 17.109 103.403 22.234V23.373C103.403 23.516 103.259 23.658 103.09 23.658H93.55Z" fill="black"/>
<path d="M112.88 26.79C115.727 26.79 116.581 25.082 116.581 22.234C116.581 19.386 115.727 17.678 112.88 17.678C110.032 17.678 109.178 19.386 109.178 22.234C109.177 25.082 110.032 26.79 112.88 26.79ZM112.88 14.83C117.151 14.83 119.998 17.108 119.998 22.234C119.998 27.359 117.15 29.637 112.88 29.637C108.609 29.637 105.761 27.359 105.761 22.234C105.761 17.108 108.608 14.83 112.88 14.83Z" fill="black"/>
</g>
<defs>
<clipPath id="clip0_1_710">
<rect width="120" height="40" fill="white"/>
</clipPath>
</defs>
</svg>
