<svg width="159" height="38" viewBox="0 0 159 38" fill="none" xmlns="http://www.w3.org/2000/svg">
<g clip-path="url(#clip0_1_725)">
<path fill-rule="evenodd" clip-rule="evenodd" d="M49.8394 22.7012C49.8394 26.5305 46.2765 28.0622 42.7136 28.0872C41.3448 28.0866 39.9901 27.8106 38.7302 27.2757C37.4703 26.7409 36.3308 25.958 35.3796 24.9738L37.3359 23.0258C37.9941 23.8236 38.8134 24.4732 39.7401 24.9323C40.6669 25.3914 41.6801 25.6495 42.7136 25.6897C45.0111 25.6897 46.8759 24.8572 46.8759 22.9176C46.8759 21.2027 45.0528 20.4868 41.9394 19.1715C39.3754 18.0893 36.3119 16.799 36.3119 13.4442C36.3119 10.8053 38.8093 8.05819 42.9716 8.05819C44.3126 8.04406 45.6405 8.32279 46.8627 8.87491C48.0848 9.42703 49.1717 10.2392 50.0475 11.2548L48.0913 13.1279C47.4119 12.3356 46.5761 11.6922 45.6364 11.238C44.6967 10.7839 43.6732 10.5289 42.6303 10.489C40.8322 10.489 39.3005 11.4879 39.3005 13.1778C39.3005 15.5587 42.0476 16.4244 44.1038 17.2402C46.8342 18.3141 49.8394 19.696 49.8394 22.7012ZM60.8196 27.954V20.5867C60.8196 17.9478 59.7624 16.7657 57.4897 16.7657C55.2171 16.7657 54.1599 17.9478 54.1599 20.5867V27.954H51.5043V7.36725H54.2265V16.6492C54.7646 15.949 55.4668 15.3922 56.2711 15.0277C57.0755 14.6633 57.9571 14.5026 58.8383 14.5597C61.5854 14.5597 63.5084 16.0415 63.5084 19.7876V27.9706L60.8196 27.954Z" fill="black"/>
<path d="M66.8632 11.4047C66.5642 11.4097 66.2705 11.3255 66.0194 11.163C65.7684 11.0005 65.5714 10.7669 65.4535 10.4921C65.3356 10.2172 65.3022 9.91353 65.3575 9.61962C65.4127 9.32571 65.5542 9.05491 65.7639 8.84168C65.9736 8.62845 66.242 8.48244 66.535 8.42225C66.8279 8.36206 67.1321 8.39041 67.4089 8.50368C67.6857 8.61695 67.9225 8.81002 68.0892 9.05832C68.2559 9.30662 68.3449 9.5989 68.345 9.89797C68.3494 10.0949 68.3143 10.2908 68.2418 10.474C68.1692 10.6572 68.0606 10.824 67.9225 10.9644C67.7843 11.1049 67.6194 11.2163 67.4374 11.2919C67.2555 11.3675 67.0602 11.4059 66.8632 11.4047ZM65.5146 27.954V14.6763H68.2617V27.9957L65.5146 27.954ZM72.9069 26.131V32.7906H70.1847V14.6763H72.9069V16.4744C73.4294 15.8671 74.0771 15.38 74.8057 15.0466C75.5342 14.7132 76.3263 14.5415 77.1275 14.5431C80.8236 14.5431 83.4375 17.0405 83.4375 21.3027C83.4375 25.3151 80.8236 28.0872 77.1275 28.0872C76.3248 28.083 75.5324 27.9062 74.8042 27.5686C74.0759 27.2311 73.4288 26.7407 72.9069 26.131ZM72.9069 21.3027C72.9069 23.9666 74.3054 25.8396 76.8111 25.8396C79.3168 25.8396 80.7487 23.9666 80.7487 21.3027C80.7487 18.6388 79.3501 16.7658 76.8444 16.7658C74.3387 16.7658 72.9069 18.6638 72.9069 21.3027Z" fill="black"/>
<path fill-rule="evenodd" clip-rule="evenodd" d="M103.4 22.7012C103.4 26.5305 99.837 28.0622 96.2741 28.0872C94.904 28.0872 93.5479 27.8116 92.2865 27.2767C91.0251 26.7418 89.8842 25.9587 88.9318 24.9738L90.888 23.0258C91.5475 23.8242 92.3682 24.4742 93.2964 24.9333C94.2246 25.3923 95.2393 25.6501 96.2741 25.6897C98.5633 25.6897 100.436 24.8572 100.436 22.9176C100.436 21.2027 98.6133 20.4868 95.4999 19.1715C92.9359 18.0893 89.8808 16.799 89.8808 13.4442C89.8808 10.8053 92.3781 8.05819 96.4988 8.05819C97.8398 8.04406 99.1677 8.32279 100.39 8.87491C101.612 9.42703 102.699 10.2392 103.575 11.2548L101.618 13.1279C100.939 12.3356 100.103 11.6922 99.1636 11.238C98.2239 10.7839 97.2005 10.5289 96.1575 10.489C94.3677 10.489 92.8277 11.4879 92.8277 13.1778C92.8277 15.5587 95.5748 16.4244 97.631 17.2402C100.386 18.3141 103.4 19.696 103.4 22.7012ZM114.372 27.954V20.5867C114.372 17.9478 113.323 16.7657 111.042 16.7657C108.761 16.7657 107.712 17.9478 107.712 20.5867V27.954H105.057V7.36725H107.779V16.6492C108.315 15.9483 109.015 15.3898 109.818 15.0226C110.621 14.6554 111.501 14.4907 112.382 14.5431C115.121 14.5431 117.052 16.0248 117.052 19.7709V27.954H114.372Z" fill="black"/>
<path d="M129.498 19.7957V27.9539H126.776V26.5304C125.827 27.8207 124.137 28.0871 122.821 28.0871C120.366 28.0871 118.409 26.7135 118.409 24.1245C118.409 21.1443 120.84 19.7208 124.403 19.7208H126.776C126.776 18.1308 126.226 16.7656 124.511 16.7656C123.311 16.777 122.164 17.2582 121.315 18.1059L119.6 16.8155C120.264 16.115 121.061 15.5534 121.944 15.1633C122.827 14.7732 123.779 14.5623 124.744 14.5429C127.858 14.5429 129.498 16.1829 129.498 19.7957ZM126.776 22.1433H124.769C122.055 22.1433 121.131 22.776 121.131 23.9913C121.131 25.2067 122.239 25.8644 123.454 25.8644C126.01 25.8644 126.784 24.7822 126.784 23.367L126.776 22.1433ZM134.026 26.1308V32.7905H131.312V14.6761H134.026V16.4742C134.549 15.8669 135.197 15.3798 135.925 15.0464C136.654 14.713 137.446 14.5413 138.247 14.5429C141.943 14.5429 144.557 17.0403 144.557 21.3025C144.557 25.315 141.943 28.0871 138.247 28.0871C137.444 28.0829 136.652 27.906 135.924 27.5684C135.195 27.2309 134.548 26.7406 134.026 26.1308ZM134.026 21.3025C134.026 23.9664 135.425 25.8394 137.93 25.8394C140.436 25.8394 141.843 23.9664 141.843 21.3025C141.843 18.6386 140.445 16.7656 137.93 16.7656C135.416 16.7656 134.026 18.6636 134.026 21.3025ZM148.045 22.4097C148.045 24.5491 149.976 25.8644 151.924 25.8644C152.649 25.8563 153.364 25.7051 154.03 25.4194C154.696 25.1336 155.299 24.719 155.803 24.1995L157.418 25.6979C156.722 26.4597 155.873 27.0657 154.926 27.476C153.979 27.8864 152.956 28.0918 151.924 28.0787C147.912 28.0787 145.381 25.3316 145.381 21.419C145.381 17.5065 148.153 14.5013 151.924 14.5013C155.695 14.5013 158.209 17.3816 158.209 21.161V22.3764L148.045 22.4097ZM151.924 16.7656C150.966 16.7265 150.03 17.0632 149.317 17.7038C148.603 18.3445 148.167 19.2384 148.103 20.1953H155.487C155.502 19.7294 155.419 19.2655 155.244 18.8336C155.068 18.4017 154.804 18.0115 154.468 17.6882C154.132 17.3649 153.732 17.1157 153.294 16.9568C152.856 16.7978 152.389 16.7327 151.924 16.7656ZM22.6347 9.40664C22.6347 7.62218 22.1607 5.86975 21.2611 4.32863C20.3742 2.92018 19.0832 1.81193 17.5567 1.14863C15.5807 0.326648 13.4523 -0.0649744 11.3132 -0.000169906C6.52655 -0.000169906 3.19671 1.43166 1.41524 4.26203C-1.74811 9.25679 1.20713 16.9654 2.51409 19.8374C2.40625 20.287 2.26146 20.7269 2.08121 21.1527C1.54834 22.5184 1.49841 24.0252 1.93969 25.4232C2.02422 25.6417 2.15393 25.84 2.32033 26.0049C2.48674 26.1699 2.68609 26.2979 2.90535 26.3805C3.23833 26.5012 3.60462 26.5012 3.9376 26.3805V26.7801C3.57543 26.7437 3.2122 26.8382 2.91367 27.0465C2.38291 27.4488 1.99726 28.0126 1.81483 28.6531C1.60964 29.2835 1.54152 29.9505 1.61504 30.6094C1.66079 31.0998 1.8308 31.5704 2.10901 31.9768C2.38722 32.3832 2.76444 32.7119 3.20504 32.932C3.02074 33.4963 3.00117 34.1014 3.14862 34.6765C3.29606 35.2515 3.60441 35.7726 4.0375 36.1786C4.52766 36.6938 5.1652 37.0448 5.8627 37.1834C6.5602 37.322 7.2835 37.2414 7.93341 36.9528C8.56284 36.6486 9.12368 36.2193 9.58169 35.6912C10.0397 35.1631 10.3853 34.5471 10.5973 33.881C10.9419 32.9596 11.163 31.9967 11.2549 31.0173C11.3555 31.995 11.585 32.9552 11.9375 33.8727C12.1597 34.54 12.5147 35.1555 12.9811 35.6819C13.4475 36.2084 14.0157 36.6351 14.6514 36.9361C15.1163 37.1383 15.6178 37.2431 16.1248 37.2441C16.5917 37.2458 17.054 37.1522 17.4835 36.969C17.9129 36.7858 18.3004 36.5168 18.6222 36.1786C19.0591 35.7683 19.3649 35.2381 19.5012 34.6545C19.6375 34.0708 19.5981 33.46 19.3881 32.8987C19.8066 32.6707 20.1629 32.3436 20.4256 31.9459C20.6883 31.5482 20.8494 31.0922 20.8948 30.6177C20.9696 29.9583 20.8986 29.2904 20.6867 28.6615C20.5043 28.0209 20.1186 27.4571 19.5879 27.0548C19.2922 26.8471 18.9318 26.7526 18.5723 26.7884C18.5654 26.6553 18.5654 26.5219 18.5723 26.3888C18.9029 26.5098 19.2656 26.5098 19.5962 26.3888C19.817 26.3072 20.018 26.1796 20.1859 26.0146C20.3537 25.8496 20.4847 25.6509 20.5702 25.4315C21.0041 24.0319 20.9513 22.5267 20.4203 21.161C20.2482 20.8281 20.1008 20.4831 19.9791 20.1287C20.836 18.3006 21.5134 16.3937 22.002 14.4347C22.4365 12.7945 22.6493 11.1034 22.6347 9.40664ZM18.4724 19.9789C18.6056 20.5766 18.7887 21.161 19.0218 21.7271C19.5296 22.8842 19.3631 24.9154 19.0218 25.0569C18.6805 25.1984 18.7138 23.2005 17.848 21.7271C17.7319 21.536 17.6262 21.3387 17.5317 21.136C17.7315 22.3431 17.873 24.0829 17.257 25.0819C16.5327 26.3306 17.8647 30.3597 18.2559 30.4096C18.8054 30.4929 18.2559 27.9122 18.7304 28.2202C19.4297 28.7031 19.9958 31.1755 18.4724 31.7166C17.0822 32.2077 14.4849 28.2202 15.2674 25.0569C15.6836 23.7832 14.9511 21.111 14.7263 20.0621C15.1124 22.5178 15.0984 25.0198 14.6847 27.471C13.9022 32.3909 15.4755 34.1307 15.9916 33.9309C16.6992 33.6479 16.2747 32.4408 16.2747 32.266C16.5993 31.6916 19.2549 33.5147 17.5483 35.2545C16.0666 36.8362 12.129 35.8206 12.5536 27.9039C12.6985 25.6344 12.245 23.3666 11.2383 21.3275C10.1681 23.3463 9.68364 25.6242 9.83975 27.9039C10.2726 35.8206 6.5099 36.8362 5.01148 35.2545C3.3299 33.4481 5.82729 31.6333 6.17692 32.1994C6.17692 32.1994 5.69409 33.6229 6.41001 33.8643C6.91781 34.0558 8.49116 32.5324 7.70865 27.6125C7.26788 25.1011 7.26788 22.532 7.70865 20.0205C7.46723 21.0944 6.65975 23.7666 7.0843 25.0153C7.86682 28.1537 5.33613 32.1411 3.94593 31.675C2.42252 31.1339 2.98027 28.6615 3.68786 28.1786C4.16237 27.8623 3.60462 30.4512 4.16237 30.368C4.55362 30.318 5.88556 26.2889 5.16132 25.0402C4.5453 24.0413 4.68682 22.3015 4.87828 21.0944C4.78686 21.2971 4.68402 21.4944 4.57027 21.6854C3.73781 23.1422 3.73781 25.1152 3.38818 25.0153C3.03854 24.9154 2.88038 22.8592 3.38818 21.6854C3.66603 21.0232 3.87524 20.3342 4.01252 19.6293C2.73886 16.9987 -4.03737 1.42334 11.3132 1.42334C27.4713 1.42334 19.1467 18.6303 18.489 19.9789H18.4724ZM4.47038 16.7573C4.47038 16.4609 4.55826 16.1712 4.72291 15.9248C4.88756 15.6784 5.12158 15.4863 5.39538 15.3729C5.66918 15.2595 5.97047 15.2298 6.26113 15.2876C6.5518 15.3454 6.8188 15.4882 7.02835 15.6977C7.23791 15.9073 7.38063 16.1743 7.43844 16.4649C7.49626 16.7556 7.46659 17.0569 7.35317 17.3307C7.23976 17.6045 7.0477 17.8385 6.80129 18.0032C6.55487 18.1678 6.26517 18.2557 5.96881 18.2557C5.57207 18.2535 5.19221 18.0949 4.91167 17.8144C4.63113 17.5339 4.47256 17.154 4.47038 16.7573ZM16.5411 18.239C16.7378 18.238 16.9325 18.1981 17.1138 18.1218C17.2952 18.0455 17.4598 17.9342 17.5982 17.7943C17.7365 17.6544 17.846 17.4886 17.9203 17.3063C17.9946 17.1241 18.0323 16.9291 18.0312 16.7323C18.0301 16.5355 17.9902 16.3409 17.9139 16.1595C17.8376 15.9781 17.7263 15.8135 17.5864 15.6752C17.4465 15.5368 17.2807 15.4274 17.0985 15.3531C16.9162 15.2788 16.7212 15.2411 16.5244 15.2422C16.127 15.2444 15.7467 15.4044 15.4673 15.687C15.1878 15.9695 15.0321 16.3515 15.0343 16.7489C15.0365 17.1463 15.1965 17.5266 15.4791 17.8061C15.7616 18.0855 16.1436 18.2413 16.5411 18.239Z" fill="black"/>
</g>
<defs>
<clipPath id="clip0_1_725">
<rect width="159" height="37.4607" fill="white"/>
</clipPath>
</defs>
</svg>
