<svg width="103" height="60" viewBox="0 0 103 60" fill="none" xmlns="http://www.w3.org/2000/svg">
<g clip-path="url(#clip0_1_731)">
<path d="M4.83666 59.4293C3.09896 59.4293 1.56399 59.2266 0.173828 57.8654L1.96945 56.0698C2.86726 56.9676 4.05469 57.1124 4.89458 57.1124C5.85031 57.1124 6.83501 56.7938 6.83501 55.9829C6.83501 55.4326 6.54539 55.0561 5.67654 54.9692L3.93884 54.7955C1.96945 54.5927 0.753061 53.7528 0.753061 51.7255C0.753061 49.4665 2.75142 48.2212 4.98146 48.2212C6.6902 48.2212 8.10932 48.5108 9.1809 49.4955L7.50113 51.2042C6.86397 50.625 5.90824 50.4802 4.9525 50.4802C3.85196 50.4802 3.38857 50.9725 3.38857 51.5228C3.38857 51.9283 3.56234 52.3916 4.51808 52.4785L6.25578 52.6523C8.4279 52.855 9.52844 54.0135 9.52844 55.867C9.47052 58.2709 7.41424 59.4293 4.83666 59.4293Z" fill="black"/>
<path d="M14.2493 59.3135C12.0192 59.3135 11.0635 57.7496 11.0635 56.1856V50.7698H9.90503V48.6556H11.0635V45.4119H13.7859V48.6556H15.7263V50.7408H13.7859V56.0119C13.7859 56.649 14.0755 56.9966 14.7416 56.9966H15.7263V59.3135H14.2493Z" fill="black"/>
<path d="M16.9426 46.4835V44.2534H19.7519V46.4835H16.9426ZM17.0005 59.3135V48.366H19.7229V59.3135H17.0005Z" fill="black"/>
<path d="M25.9208 59.4293C23.7197 59.4293 21.0262 58.2419 21.0262 53.8108C21.0262 49.3796 23.7486 48.2212 25.9208 48.2212C27.4268 48.2212 28.5852 48.6845 29.541 49.6982L27.6874 51.5518C27.1082 50.9436 26.6448 50.6829 25.9208 50.6829C25.2546 50.6829 24.7623 50.9146 24.3568 51.4069C23.9224 51.9283 23.7486 52.6813 23.7486 53.8397C23.7486 54.9982 23.9514 55.7512 24.3568 56.2725C24.7623 56.7649 25.2546 56.9965 25.9208 56.9965C26.6448 56.9965 27.1082 56.7359 27.6874 56.1277L29.541 57.9523C28.5563 58.9659 27.4268 59.4293 25.9208 59.4293Z" fill="black"/>
<path d="M37.071 59.3135L34.3776 54.7375L33.2191 56.0408V59.3135H30.4967V44.3403H33.2191V52.8261L36.8683 48.337H40.1699L36.2601 52.7681L40.4595 59.3135H37.071Z" fill="black"/>
<path d="M42.7475 54.6796C42.7475 56.0987 43.6164 57.1124 45.1513 57.1124C46.3388 57.1124 46.947 56.7649 47.642 56.0698L49.2928 57.6916C48.1923 58.7922 47.0918 59.4293 45.1224 59.4293C42.5448 59.4293 40.0541 58.2419 40.0541 53.8108C40.0541 50.2485 41.9945 48.2212 44.8327 48.2212C47.8737 48.2212 49.6114 50.4512 49.6114 53.4632V54.6796H42.7475ZM46.6573 51.6386C46.3677 50.9725 45.7595 50.5091 44.8327 50.5091C43.906 50.5091 43.2978 51.0015 43.0082 51.6386C42.8344 52.0441 42.7765 52.3337 42.7475 52.8261H46.918C46.889 52.3337 46.8311 52.0441 46.6573 51.6386Z" fill="black"/>
<path d="M56.8518 51.349C56.4174 50.9146 56.0698 50.6829 55.4037 50.6829C54.5638 50.6829 53.6371 51.3201 53.6371 52.7102V59.3135H50.9147V48.366H53.5791V49.4086C54.1005 48.7714 55.172 48.2212 56.3305 48.2212C57.4021 48.2212 58.1551 48.4818 58.9081 49.2638L56.8518 51.349Z" fill="black"/>
<path d="M71.2168 48.2212C69.8556 48.2212 68.8709 48.6556 67.9442 49.6113C67.2491 48.6556 66.2644 48.2212 65.048 48.2212C64.0343 48.2212 63.0207 48.6266 62.3256 49.3507V48.366H59.6611V59.3135H62.3835V52.6813C62.3835 51.1753 63.3393 50.6829 64.2081 50.6829C65.077 50.6829 66.0037 51.1753 66.0037 52.6813V59.3135H68.7261V52.6233C68.7261 51.2042 69.7108 50.6829 70.5507 50.6829C71.4196 50.6829 72.3463 51.1753 72.3463 52.6813V59.3135H75.0687V52.3048C75.0687 51.1173 74.7502 50.0747 73.8813 49.1769C73.3021 48.5977 72.3174 48.2212 71.2168 48.2212Z" fill="black"/>
<path d="M83.091 54.9692C83.091 56.4752 82.1353 56.9676 81.2664 56.9676C80.3976 56.9676 79.4708 56.4752 79.4708 54.9692V48.366H76.7484V55.3747C76.7484 56.5621 76.9801 57.6047 77.849 58.4736C78.4572 59.0818 79.355 59.4293 80.4265 59.4293C81.4402 59.4293 82.4539 59.0528 83.1489 58.2998V59.3135H85.8134V48.366H83.091V54.9692Z" fill="black"/>
<path d="M90.3025 56.0119V44.3403H87.5801V56.1856C87.5801 57.7495 88.5358 59.3135 90.7659 59.3135H92.3298V56.9965H91.2872C90.5921 56.9965 90.3025 56.678 90.3025 56.0119Z" fill="black"/>
<path d="M102.38 53.4632C102.38 50.4512 100.642 48.2212 97.6009 48.2212C94.7627 48.2212 92.8223 50.2485 92.8223 53.8108C92.8223 58.2419 95.313 59.4293 97.8906 59.4293C99.8599 59.4293 100.932 58.8211 102.061 57.6916L100.41 56.0698C99.7151 56.7649 99.1359 57.1124 97.9195 57.1124C96.3845 57.1124 95.5157 56.0698 95.5157 54.6796H102.38V53.4632ZM95.5157 52.8261C95.5447 52.3337 95.6026 52.0441 95.7764 51.6386C96.066 50.9725 96.6742 50.5091 97.6009 50.5091C98.5277 50.5091 99.1359 51.0015 99.4255 51.6386C99.5993 52.0441 99.6572 52.3337 99.6862 52.8261H95.5157Z" fill="black"/>
<path fill-rule="evenodd" clip-rule="evenodd" d="M56.3305 41.1255C55.954 41.2993 55.4327 41.2704 54.8824 41.2993C54.419 41.2993 53.7529 41.3283 53.4923 41.0676C53.3475 40.9228 53.2895 40.6622 53.2895 40.4884C53.2895 40.2857 53.3185 40.054 53.3764 39.8223C53.4343 39.5616 53.4923 39.2141 53.3764 39.0982C53.2606 38.9245 52.8261 39.0113 52.6234 38.8665C52.3917 38.7217 52.3338 38.4321 52.2469 38.0556C52.2179 37.9398 52.16 37.8529 52.1311 37.766C52.0731 37.2157 52.2469 36.4917 52.3628 35.9414C52.5076 35.3622 52.6524 34.8119 52.7682 34.2616C52.913 33.4507 52.971 32.5239 52.913 31.6551C52.8841 31.2207 52.8261 30.8731 52.8841 30.4966C52.942 30.1491 53.0868 29.8595 53.1737 29.5119C53.2026 29.3961 53.1737 29.2802 53.2026 29.1644C53.2026 29.0485 53.2895 28.9616 53.2895 28.8748C53.2895 28.6431 53.2316 28.3535 53.2026 28.0638C53.1447 27.2819 53.2026 26.2103 53.2606 25.5442C53.2895 25.3125 53.3764 25.0518 53.2316 24.936C52.4207 24.936 51.6966 25.0808 50.9436 25.1677C48.9453 25.4283 46.4256 25.4573 44.4852 25.0808C44.3114 25.0518 44.1087 25.0518 43.9349 24.9939C42.5737 24.6753 41.2994 24.0961 40.3147 23.3141C40.1699 23.1983 39.9961 23.0535 39.8224 22.9376C39.6486 22.8218 39.4748 22.619 39.33 22.5611C38.548 22.1846 37.5054 22.619 37.1868 23.1114C37.071 23.3141 36.9552 23.5748 36.8393 23.8065C36.7235 24.0382 36.6076 24.2699 36.5207 24.5016C35.9994 25.689 35.4202 26.8185 34.8989 28.0059C34.6093 28.701 34.2617 29.454 34.03 30.207C33.5666 31.8289 34.0011 34.0299 34.3776 35.5649C34.4065 35.7097 34.4934 35.8545 34.5513 35.9993C34.6672 36.3758 34.9278 36.8682 35.2175 37.1288C35.3623 37.2736 35.6229 37.3316 35.7967 37.4764C35.9994 37.6501 36.1732 38.0266 36.347 38.3452C36.4049 38.4611 36.5207 38.6348 36.6076 38.7797C36.8103 39.1272 36.8683 39.4458 36.4918 39.6485C36.2021 39.7933 35.7677 39.8512 35.3623 39.8802C35.1885 39.9381 35.2464 40.1698 35.1306 40.2857C35.0726 40.3436 34.783 40.4594 34.6382 40.5173C34.1169 40.6622 33.1901 40.6622 32.7847 40.5173C32.5819 40.4305 32.3503 40.2857 32.2923 40.1119C32.1765 39.7933 32.4371 39.3589 32.2054 39.1272C32.0896 39.0113 31.8869 39.0403 31.6841 38.9534C31.3945 38.8376 31.1339 38.5769 31.018 38.2294C30.6994 37.4185 30.9022 36.1731 30.8732 35.1884C30.8732 34.8988 30.8153 34.5802 30.8153 34.2616C30.7863 33.6824 30.6705 33.1032 30.5836 32.5239C30.5546 32.2343 30.4677 32.0026 30.4098 31.742C30.3229 31.3365 30.236 30.8731 30.1202 30.4677C29.9754 30.0043 29.9754 29.5698 30.1492 29.1644C30.1781 29.0485 30.294 28.9616 30.3809 28.8168C30.4677 28.5851 30.4967 28.3245 30.4967 28.1218C30.4388 28.0059 30.1492 28.0928 30.0912 27.977C29.9175 26.7026 29.7437 25.4573 29.6279 24.1251C29.5989 23.6906 29.5989 23.2272 29.541 22.7639C29.4541 21.866 29.541 20.9393 29.4541 20.0704C29.4251 19.636 29.3093 19.2305 29.2514 18.8251C29.1065 17.6666 28.788 16.1896 29.0197 14.9732C29.1645 14.1912 29.4541 13.583 29.8885 13.0038C30.2071 12.5983 30.5257 12.2218 30.9022 11.8743C31.2497 11.5267 31.6552 11.2081 32.0896 10.8896C32.3502 10.6868 32.6399 10.4551 32.9584 10.3393C33.6246 10.0207 34.4934 9.76007 35.4202 9.73111C36.347 9.70214 37.3896 9.67318 38.2874 9.84695C39.1562 9.99176 40.0251 10.1655 40.8939 10.3393C41.7338 10.5131 42.5448 10.7448 43.3557 10.9475C43.4715 10.9765 43.5584 11.0344 43.6453 11.0633C43.906 11.1213 44.1956 11.1502 44.4562 11.2371C45.2092 11.4398 46.165 11.5267 47.0628 11.5267C48.0475 11.5267 48.9163 11.4978 49.7272 11.295C49.8431 11.2661 49.93 11.2081 50.0748 11.1502C50.1906 11.0923 50.3644 11.1213 50.4802 11.0633C50.5671 11.0344 50.654 10.9475 50.7409 10.9185C51.2043 10.6868 51.6098 10.4841 52.0152 10.1945C52.3338 9.9628 52.6234 9.76007 53.0578 9.5863C53.2606 9.49941 53.4343 9.41253 53.6371 9.3546C54.0425 9.2098 54.5059 9.09395 54.8245 8.89122C55.3168 8.57264 55.6933 8.10925 56.0988 7.76171C56.5332 7.38521 56.9677 7.03767 57.431 6.66117C58.3578 5.93713 59.2846 5.27101 60.1534 4.57593C60.5879 4.22839 61.0802 3.88085 61.6015 3.59123C62.6152 3.012 63.6288 2.34588 65.0769 2.23004C65.6562 2.20107 66.2354 2.17211 66.8146 2.259C66.9594 2.28796 67.1911 2.37484 67.3359 2.34588C67.4807 2.31692 67.5966 2.08523 67.7124 1.8825C67.9152 1.50599 68.0889 1.24534 68.2627 0.781952C68.3786 0.492336 68.3206 0.202719 68.6102 0.231681C68.8999 0.231681 68.8709 1.01365 68.8709 1.30326C68.8999 1.6508 68.8419 2.11419 68.8999 2.34588C68.9288 2.51965 69.1605 2.75135 69.3922 2.75135C69.566 2.75135 69.6529 2.6355 69.7977 2.51965C69.9425 2.43277 70.0873 2.37484 70.2031 2.28796C70.4348 2.11419 70.7244 1.82457 70.9561 1.56392C71.1589 1.36119 71.4775 0.897799 71.796 0.926761C72.3753 0.984684 71.796 1.82457 71.6802 2.11419C71.3906 2.78031 71.1009 3.24369 70.7534 3.88085C70.6086 4.1415 70.29 4.48904 70.29 4.7497C70.29 4.92347 70.4348 5.06828 70.5217 5.24205C70.5507 5.32893 70.5796 5.44478 70.6086 5.53166C70.8113 5.99505 70.9561 6.63221 71.1009 7.15352C71.2458 7.58794 71.3326 8.08029 71.5064 8.51471C71.6512 8.94914 71.8829 9.3546 72.0567 9.76007C72.1146 9.87591 72.1146 10.0207 72.1436 10.1076C72.5201 11.0344 72.8676 12.106 73.302 13.0038C73.4758 13.3803 73.7365 13.8147 73.7365 14.365C73.7365 14.9442 73.4179 15.2338 73.1572 15.6682C73.0124 15.8999 72.8097 16.2475 72.607 16.3344C72.4621 16.3923 72.2594 16.3344 72.1146 16.3633C71.8829 16.3923 71.7381 16.5371 71.5354 16.5661C70.9851 16.624 70.4928 16.2185 70.3479 15.8131C70.29 15.6682 70.319 15.4945 70.29 15.3207C70.1742 14.6835 69.8556 14.365 69.3922 13.9305C69.1026 13.6699 68.8709 13.4672 68.5234 13.2644C68.0021 13.0038 67.4518 12.83 66.9015 12.5404C66.6988 12.4245 66.4671 12.3377 66.2933 12.3666C66.0037 12.4245 65.7141 12.8879 65.4824 13.1775C64.0633 15.0311 62.8179 16.9426 61.4567 18.7671C60.5589 19.9835 59.5742 21.1999 58.8502 22.5901C58.6764 22.9376 58.5606 23.3431 58.4157 23.7485C58.2709 24.154 58.213 24.5884 58.0682 24.9939C57.5469 26.4999 57.3731 28.3535 56.8808 29.9463C56.8229 30.1201 56.8229 30.2939 56.7649 30.4966C56.5332 31.3075 56.3305 32.2343 56.0698 33.1032C55.8671 33.7403 55.8092 34.6092 55.7802 35.4491C55.7513 36.231 55.7223 37.3605 56.0119 37.8529C56.1567 38.1135 56.707 38.2294 56.9097 38.49C57.0545 38.6928 57.1414 39.0693 57.2862 39.301C57.3731 39.4747 57.6627 39.8512 57.6338 40.1119C57.6048 40.3146 57.431 40.4594 57.2862 40.5173C57.1125 40.6042 56.8808 40.5463 56.707 40.6332C56.4464 40.778 56.5332 41.0097 56.3305 41.1255Z" fill="black"/>
</g>
<defs>
<clipPath id="clip0_1_731">
<rect width="102.712" height="60" fill="white"/>
</clipPath>
</defs>
</svg>
