<svg width="106" height="38" viewBox="0 0 106 38" fill="none" xmlns="http://www.w3.org/2000/svg">
<path d="M39.6401 11.8844V13.9232H41.5237H43.4074V20.9457V27.9682H45.743H48.0787V20.9457V13.9232H50.0377H51.9966V11.8844V9.84565H45.8184H39.6401V11.8844ZM54.1063 18.9069V27.9682H56.4419H58.7776V18.9069V9.84565H56.4419H54.1063V18.9069ZM62.575 18.8616L62.6202 27.8927H67.7436H72.867L72.9122 25.8841L72.9574 23.8906H70.1546H67.3669V16.8681V9.84565H64.9559H62.5448L62.575 18.8616ZM75.3534 18.922V27.9984L79.4672 27.9229C82.6166 27.8776 83.7618 27.802 84.3947 27.6208C87.4688 26.7147 89.9099 24.2379 90.799 21.0967C91.3264 19.2694 91.0401 16.6567 90.1209 14.8293C89.3072 13.2134 87.6044 11.5371 85.9468 10.6914C84.5002 9.96647 83.6111 9.84565 79.3165 9.84565H75.3534V18.922ZM83.5659 14.331C84.4248 14.784 85.2235 15.6751 85.6906 16.7171C86.5044 18.4689 86.1578 20.8853 84.9221 22.3502C84.1084 23.2865 83.0084 23.7547 81.3809 23.8604L80.0247 23.9359V18.9069V13.893L81.5015 13.9534C82.6015 13.9987 83.1139 14.0893 83.5659 14.331ZM93.7374 18.9069V27.9682L98.8307 27.938L103.909 27.8927L103.954 25.8841L103.999 23.8906H101.197H98.4088V22.3804V20.8702L101.016 20.84L103.608 20.7947L103.653 18.7861L103.698 16.7926H101.046H98.4088V15.3579V13.9232L101.166 13.893L103.909 13.8477L103.954 11.8391L103.999 9.84565H98.8608H93.7374V18.9069ZM16.2183 0.336605C16.2683 0.336605 16.7034 0.567403 17.3443 0.930091L17.8608 1.22529C18.2271 1.43651 18.6336 1.67453 19.058 1.92697L19.5539 2.21557C20.874 2.98639 22.1404 3.74558 22.5093 3.98119C22.9244 4.24625 24.8248 5.39485 26.7033 6.52136C29.0406 7.89084 30.3731 8.81855 30.81 9.39285C31.9887 10.8828 32.1127 11.5934 32.1202 18.6597L32.1203 20.2614C32.1169 25.3551 32.0742 26.4861 31.813 27.381L31.7732 27.5107C31.7456 27.5966 31.7158 27.6821 31.6837 27.7704C31.1376 29.2945 29.9581 30.421 27.4242 31.9009C26.3538 32.5415 24.3224 33.7564 22.9462 34.5957C18.4901 37.3347 18.0095 37.5335 16.2839 37.5556C15.0169 37.5556 14.5145 37.4451 13.6189 36.9592C12.6186 36.4336 10.3192 35.0798 8.03563 33.6994L7.4142 33.3229C4.83479 31.7564 2.43002 30.2497 2.12911 29.9792C1.80146 29.67 1.29905 28.919 0.993237 28.3005L0.447144 27.1961L0.448167 16.9284C0.454457 12.3908 0.499385 11.6789 0.820294 10.9326L0.866887 10.8279C0.899175 10.7574 0.933947 10.685 0.971394 10.6077C1.56117 9.28241 2.50046 8.42096 4.64114 7.18401C5.51489 6.67598 6.75999 5.92497 7.37161 5.50529C8.00508 5.08561 8.57302 4.75429 8.61671 4.75429C8.68224 4.75429 10.3642 3.76031 12.3957 2.54544C14.4053 1.33058 16.131 0.336605 16.2183 0.336605ZM16.1528 4.99726C15.9781 4.99726 15.2572 5.37276 14.5364 5.83662C13.8155 6.30047 11.6748 7.60369 9.77443 8.75229C6.10468 10.939 5.23093 11.668 4.64114 12.927C4.40645 13.4355 4.24037 16.014 4.18679 18.6656L4.175 19.3891C4.1467 21.6764 4.20528 23.8828 4.37902 24.7222C4.79405 26.8206 5.42752 27.417 10.1021 30.2443C14.4271 32.8507 15.7159 33.3809 17.0921 33.0937C17.1576 33.0808 17.2195 33.0681 17.28 33.0543L17.3997 33.0251C18.0153 32.8635 18.6381 32.509 21.723 30.664L22.044 30.4721L22.6471 30.1103C26.4989 27.7931 27.0315 27.3292 27.6208 26.158C27.7369 25.9185 27.8293 25.7271 27.9029 25.5282L27.9491 25.3938C28.1597 24.7333 28.1852 23.8664 28.1883 20.9339L28.1884 19.2177C28.1824 15.8493 28.0951 13.8776 27.9266 13.3025C27.5116 11.933 26.4194 10.9611 22.837 8.84064C21.0458 7.7804 18.8614 6.47718 18.0095 5.94706C17.1576 5.41694 16.3276 4.97517 16.1528 4.99726ZM16.0436 14.3407C16.1528 14.3627 16.6334 15.1358 17.0921 16.0415C17.5508 16.925 18.0095 17.6981 18.1187 17.7423C18.228 17.7864 19.0799 17.3889 19.9973 16.8808C20.9147 16.3728 21.6793 15.9973 21.723 16.0415C21.7666 16.0856 22.2035 16.9471 22.7059 17.9411L23.6015 19.7523L22.4438 20.3929C18.5119 22.6459 16.3931 23.6841 16.1965 23.4411C16.0873 23.3085 15.6504 22.4692 15.2135 21.5857C14.7766 20.7242 14.3835 19.9953 14.3398 19.9953C14.2961 19.9953 13.5534 20.3929 12.7015 20.9009C11.8496 21.4089 11.0195 21.7624 10.8666 21.6961C10.7356 21.6298 10.2113 20.8126 9.73074 19.8848C8.90068 18.2503 8.87883 18.184 9.29386 17.9411C10.9321 16.9471 15.8907 14.3186 16.0436 14.3407Z" fill="black"/>
</svg>
