<svg width="110" height="32" viewBox="0 0 110 32" fill="none" xmlns="http://www.w3.org/2000/svg">
<g clip-path="url(#clip0_1_756)">
<path d="M100.365 20.1465L109.079 9.77499H101.933L95.0626 18.7913H95.004V9.77499H83.2087L79.1542 15.6697L75.0999 9.77499H55.4405V12.161C54.3688 10.845 52.763 10.0705 50.7973 9.77499H40.0035V31.8422H45.7789V24.4786H49.0491C54.085 24.4786 56.913 22.1806 56.913 16.9373C56.913 16.0435 56.8114 15.2396 56.616 14.52H60.2125V31.8424H65.9859V14.5198H71.5462L76.2674 21.1773V31.8422H82.0408V21.1773L89.2284 11.0445V31.8422H95.004V22.2099H95.0626L102.514 31.8422H109.997L100.365 20.1465ZM46.7509 19.8239H45.7787V14.285H46.7509C48.9901 14.285 50.9049 14.3143 50.9049 17.1132C50.9049 19.8239 48.8414 19.8239 46.7509 19.8239Z" fill="black"/>
<path d="M38.3447 1.11083C39.0569 1.85031 39.4107 2.73622 39.4107 3.76879C39.4107 4.77405 39.0569 5.63855 38.3447 6.364C37.6308 7.09168 36.7607 7.45342 35.7261 7.45342C34.6955 7.45342 33.8231 7.09168 33.1112 6.364C32.4013 5.63855 32.0435 4.77405 32.0435 3.76879C32.0435 2.73597 32.4013 1.85031 33.1112 1.11083C33.8231 0.371588 34.6955 0 35.7261 0C36.7609 0 37.6308 0.371588 38.3447 1.11083Z" fill="black"/>
<path d="M32.7886 9.77499V30.8448L26.5713 22.74C29.7241 22.1806 31.4334 19.5286 31.4334 16.466C31.4334 12.4236 29.0102 10.311 25.5778 9.77499H0V14.5198H4.77405V31.8422H10.5475V14.5198H15.0828V31.8422H20.8564V23.2993H20.915L26.3658 31.8422H38.56V9.77499H32.7886ZM21.4175 19.5871H20.8564V14.0485H21.4175C23.3011 14.0485 25.4228 14.4024 25.4228 16.8177C25.423 19.2333 23.3011 19.5871 21.4175 19.5871Z" fill="black"/>
<path d="M100.365 20.1465L109.079 9.77499H101.933L95.0626 18.7913H95.0041V9.77499H83.2087L79.1542 15.6697L75.1 9.77499H55.4405V12.161C54.3688 10.845 52.7631 10.0705 50.7974 9.77499H40.0036V31.8422H45.7789V24.4786H49.0492C54.0851 24.4786 56.9131 22.1806 56.9131 16.9373C56.9131 16.0435 56.8114 15.2396 56.616 14.52H60.2126V31.8424H65.986V14.5198H71.5463L76.2674 21.1773V31.8422H82.0408V21.1773L89.2285 11.0445V31.8422H95.0041V22.2099H95.0626L102.514 31.8422H109.997L100.365 20.1465ZM46.751 19.8239H45.7787V14.285H46.751C48.9901 14.285 50.9049 14.3143 50.9049 17.1132C50.9049 19.8239 48.8415 19.8239 46.751 19.8239ZM38.3447 1.11083C39.0569 1.85031 39.4108 2.73622 39.4108 3.76879C39.4108 4.77405 39.0569 5.63855 38.3447 6.364C37.6308 7.09168 36.7607 7.45342 35.7261 7.45342C34.6955 7.45342 33.8232 7.09168 33.1112 6.364C32.4013 5.63855 32.0435 4.77405 32.0435 3.76879C32.0435 2.73597 32.4013 1.85031 33.1112 1.11083C33.8232 0.371588 34.6955 0 35.7261 0C36.7609 0 37.6308 0.371588 38.3447 1.11083ZM32.7886 9.77499V30.8448L26.5713 22.74C29.7241 22.1806 31.4334 19.5286 31.4334 16.466C31.4334 12.4236 29.0102 10.311 25.5778 9.77499H0V14.5198H4.77405V31.8422H10.5475V14.5198H15.0828V31.8422H20.8564V23.2993H20.915L26.3658 31.8422H38.56V9.77499H32.7886ZM21.4175 19.5871H20.8564V14.0485H21.4175C23.3011 14.0485 25.4228 14.4024 25.4228 16.8177C25.423 19.2333 23.3011 19.5871 21.4175 19.5871Z" fill="black"/>
</g>
<defs>
<clipPath id="clip0_1_756">
<rect width="110" height="32" fill="white"/>
</clipPath>
</defs>
</svg>
