<svg width="118" height="37" viewBox="0 0 118 37" fill="none" xmlns="http://www.w3.org/2000/svg">
<g clip-path="url(#clip0_1_783)">
<mask id="mask0_1_783" style="mask-type:luminance" maskUnits="userSpaceOnUse" x="0" y="0" width="118" height="37">
<mask id="mask1_1_783" style="mask-type:luminance" maskUnits="userSpaceOnUse" x="0" y="0" width="118" height="37">
<path d="M117.012 0.692383H0.692383V36.142H117.012V0.692383Z" fill="white"/>
</mask>
<g mask="url(#mask1_1_783)">
<path d="M0.931945 9.6545V13.7824H8.27113L0.692383 28.1257H15.5923V23.9714H8.66025L15.8513 9.6545H0.931945ZM29.6822 21.544C29.1901 22.23 28.5401 22.7876 27.7872 23.1696C27.0343 23.5516 26.2005 23.7469 25.3562 23.7388C22.6573 23.7388 20.6245 21.6894 20.6245 18.9102C20.6245 16.3484 22.4358 14.0442 25.2454 14.0442C26.1036 14.0417 26.9506 14.2387 27.7195 14.6196C28.4885 15.0005 29.1585 15.5549 29.6766 16.239V21.544H29.6822ZM34.4886 10.0201H29.8677V11.4478C28.377 10.2608 26.5222 9.62495 24.6167 9.64757C19.7369 9.64757 15.818 13.6717 15.818 18.9033C15.808 21.1846 16.6217 23.3929 18.1098 25.1222C19.6995 26.95 22.2142 28.1215 24.8757 28.1215C26.7018 28.1472 28.4753 27.5101 29.8677 26.3283V27.756H34.4886V10.0201ZM36.4868 36.0451H41.2933V26.518C42.6646 27.5879 44.3607 28.1562 46.0998 28.1285C48.7613 28.1285 51.3134 26.957 52.9031 25.1291C54.3798 23.3958 55.1804 21.1872 55.1574 18.9102C55.1574 13.6786 51.2386 9.6545 46.3587 9.6545C44.4533 9.63187 42.5985 10.2677 41.1078 11.4547V10.0201H36.4868V36.0451ZM41.6783 16.2431C42.1964 15.559 42.8664 15.0047 43.6354 14.6238C44.4043 14.2429 45.2513 14.0459 46.1095 14.0483C48.9191 14.0483 50.7304 16.3525 50.7304 18.9143C50.7304 21.6935 48.6976 23.743 45.9987 23.743C45.1555 23.7492 44.3231 23.5527 43.5717 23.17C42.8203 22.7873 42.1719 22.2296 41.681 21.544V16.239L41.6783 16.2431ZM61.4622 28.1299V16.239C62.1269 15.3251 63.7914 14.0442 65.8242 14.0442C66.932 14.0442 67.8944 14.4097 68.5231 15.0315C69.1891 15.6906 69.5963 16.6046 69.5963 18.3549V28.1202H74.4027V18.7274C74.4027 15.6906 73.7367 13.8988 72.5541 12.5085C71.7886 11.6095 70.8361 10.8885 69.7632 10.3955C68.6903 9.9026 67.5228 9.64971 66.3421 9.6545C64.4959 9.64873 62.7052 10.2851 61.2767 11.4547V10.0201H56.6557V28.1257L61.4622 28.1299ZM81.2559 10.0201H76.4494V28.1257H81.2559V10.0201ZM78.8533 6.76452C80.5912 6.76452 81.9967 5.44762 81.9967 3.72914C81.9967 2.01067 80.5926 0.692383 78.8533 0.692383C77.1141 0.692383 75.7113 2.00928 75.7113 3.72914C75.7113 5.44901 77.1155 6.76452 78.8533 6.76452ZM99.464 26.6163C97.3758 28.1271 95.0328 28.1257 94.2905 28.1257C91.4061 28.1257 89.3054 27.1771 88.0785 25.5681C87.1549 24.3606 86.7478 22.7875 86.7478 20.2631V14.0442H83.2541V10.0201H86.7478V5.08205H91.5543V10.0201H95.4731V14.0442H91.5543V20.8114C91.5543 21.9096 91.7384 22.5673 92.1456 23.0437C92.6261 23.5976 93.4029 23.9216 94.5855 23.9216C95.4712 23.8784 96.3439 23.6913 97.1694 23.3677C97.7235 24.5859 98.5019 25.6889 99.464 26.6191V26.6163ZM107.472 28.1285C112.907 28.1285 117.012 24.031 117.012 18.9102C117.012 13.7894 112.907 9.6545 107.472 9.6545C102.037 9.6545 97.9338 13.788 97.9338 18.9102C97.9338 24.0324 102.038 28.1285 107.472 28.1285ZM107.472 14.0442C110.283 14.0442 112.205 16.239 112.205 18.9102C112.205 21.5814 110.283 23.7388 107.472 23.7388C104.661 23.7388 102.74 21.58 102.74 18.9102C102.74 16.2404 104.662 14.0442 107.472 14.0442Z" fill="white"/>
</g>
</mask>
<g mask="url(#mask0_1_783)">
<path d="M117.704 0H0V36.7375H117.704V0Z" fill="black"/>
</g>
</g>
<defs>
<clipPath id="clip0_1_783">
<rect width="117.704" height="36.7375" fill="white"/>
</clipPath>
</defs>
</svg>
