<svg height="29" viewBox="0 0 154 29" width="154" xmlns="http://www.w3.org/2000/svg"><path d="m58.8 20.7-1.2-3h-5.6l-1.2 3h-3l5.6-13.3h2.7l5.7 13.3zm-4-9.8-1.8 4.3h3.5zm15.5 9.8h-5.1v-13.2h5.1c4.1 0 7 2.8 7 6.6 0 3.7-2.9 6.6-7 6.6m4-6.6c0-2.3-1.6-4-4-4h-2.2v7.9h2.2c2.4.1 4-1.5 4-3.9zm12.3 6.6h-5.1v-13.2h5.1c4.1 0 7 2.8 7 6.6 0 3.7-2.9 6.6-7 6.6m3.9-6.6c0-2.3-1.6-4-4-4h-2.2v7.9h2.2c2.4.1 4-1.5 4-3.9zm7.3 6.6v-13.2h10v2.6h-7.1v2.7h6.2v2.6h-6.2v2.7h7.1v2.6zm20-3.9h-2.2v4h-2.9v-13.3h5.4c3.1 0 5 1.9 5 4.6 0 3.1-2.3 4.7-5.3 4.7m2.4-4.7c0-1.3-.9-2-2.4-2h-2.2v4h2.3c1.5.1 2.3-.8 2.3-2zm15.5 8.6-1.2-3h-5.6l-1.2 3h-3l5.7-13.3h2.7l5.7 13.3zm-4-9.8-1.8 4.3h3.5zm18.6 9.8-2.8-4.2h-2.3v4.2h-2.9v-13.2h6c3.1 0 5 1.6 5 4.4 0 2.1-1.2 3.5-2.8 4.1l3.2 4.7zm0-8.7c0-1.2-.9-1.9-2.3-1.9h-2.9v3.8h2.9c1.5 0 2.3-.7 2.3-1.9zm-137.4 16.6h-12.9l18.2-28.6h12.9zm17.1 0h12.9l-8.5-13.4h-12.9z" fill="#fff"/></svg>