<svg width="185" height="34" xmlns="http://www.w3.org/2000/svg"><g fill="none"><path fill="#00EBE5" d="M15.571 33.03L22.371 29.639 6.812 21.875 0.052 25.244z"/><path fill="#00EBE5" d="M24.357 28.645L31.134 25.266 6.804 13.134 0.027 16.513z"/><path fill="#00EBE5" d="M24.332 19.896L31.115 16.513 24.338 13.134 17.555 16.517z"/><path fill="#37EB77" d="M6.781 4.383L0 7.76 15.57 15.524 22.352 12.141z"/><path fill="#37EB77" d="M24.337 11.16L31.137 7.769 24.356 4.388 17.551 7.779z"/><path fill="#37EB77" d="M15.57 0L8.77 3.393 15.575 6.784 22.375 3.393z"/><g transform="translate(38.834 6.485)"><g fill="#FFF"><path d="M14.86 4.443a6.936 6.936 0 0 0-4.855-1.8 7.39 7.39 0 0 0 0 14.773 7.251 7.251 0 0 0 4.944-1.736v2.089a9.789 9.789 0 0 1-4.914 1.295 8.636 8.636 0 0 1-9.034-9.034A8.767 8.767 0 0 1 10.035.996c1.7-.01 3.369.449 4.826 1.324l-.001 2.123zm6.019 9.505l-1.825 4.826H17.17l6.768-17.48h2.325l6.857 17.48h-1.942l-1.824-4.826h-8.475zm4.208-11.182l-3.649 9.652h7.332l-3.683-9.652zm12.789 16.008h-1.825V1.264a27.234 27.234 0 0 1 3.325-.265c4.708 0 6.8 2.178 6.8 5.415a5.135 5.135 0 0 1-3.8 5.179l5.8 7.181h-2.267l-5.414-6.768h-2.619v6.768zm0-8.269h1.823c2.884 0 4.59-1.354 4.59-4.031 0-2.237-1.383-3.884-4.944-3.884-.353 0-1.06.029-1.471.059l.002 7.856zm13.098-9.269A32.283 32.283 0 0 1 54.564 1c8 0 10.712 4.149 10.712 8.622 0 4.915-2.855 9.446-10.476 9.446a30.071 30.071 0 0 1-3.826-.265V1.236zm1.824 16.126c.674.082 1.352.121 2.03.118 5 0 8.534-2.5 8.534-7.828 0-4.12-2.619-7-8.858-7-.559 0-1.089.03-1.707.088l.001 14.622zm15.206-1.648a6.767 6.767 0 0 0 4.444 1.8c2.089 0 3.884-.913 3.884-3.208 0-2.089-1.56-2.884-3.649-3.649-3.119-1.148-4.8-2.178-4.8-5.15 0-2.972 2.472-4.5 5.091-4.5a6.54 6.54 0 0 1 4.179 1.383v1.883a6.359 6.359 0 0 0-4.179-1.707c-1.972 0-3.325 1.177-3.325 2.972 0 1.678 1 2.5 3.531 3.384 3.237 1.118 4.944 2.325 4.944 5.385 0 3.208-2.531 4.767-5.68 4.767A7.135 7.135 0 0 1 68 17.72l.004-2.006z"/><path d="M87.611 18.774L85.783 18.774 85.783 2.883 80.015 2.883 80.015 1.294 93.383 1.294 93.383 2.883 87.615 2.883z"/><path d="M95.886 13.948l-1.824 4.826h-1.883l6.768-17.48h2.325l6.856 17.48h-1.942l-1.824-4.826h-8.476zm4.208-11.182l-3.649 9.652h7.327l-3.678-9.652zm22.968 1.677a6.936 6.936 0 0 0-4.856-1.8 7.39 7.39 0 0 0 0 14.773 7.252 7.252 0 0 0 4.944-1.736v2.089a9.789 9.789 0 0 1-4.914 1.295 8.636 8.636 0 0 1-9.034-9.034 8.767 8.767 0 0 1 9.034-9.034c1.7-.01 3.369.449 4.826 1.324v2.123zm3.864-3.149h1.824v17.48h-1.824V1.294zm9.829 0h2.266l-7.886 8.711 8.446 8.769h-2.354l-8.358-8.593 7.886-8.887z"/></g><path d="M142.913 16.028a1.753 1.753 0 1 1-1.736 1.753 1.7 1.7 0 0 1 1.736-1.753zm0 3.294a1.542 1.542 0 1 0-1.507-1.541 1.469 1.469 0 0 0 1.507 1.541zm-.234-.554h-.457v-1.975c.201-.04.406-.061.611-.063.531 0 .856.24.856.7a.609.609 0 0 1-.371.582l.559.753h-.542l-.468-.651h-.186l-.002.654zm0-1h.16c.234 0 .388-.091.388-.314 0-.206-.137-.314-.388-.314-.054 0-.107.004-.16.012v.616z" fill="#281E78"/></g></g></svg>