<?xml version="1.0" encoding="UTF-8"?>
<svg width="120px" height="26px" viewBox="0 0 120 26" version="1.1" xmlns="http://www.w3.org/2000/svg" xmlns:xlink="http://www.w3.org/1999/xlink">
    <title>4652A6CA-46D0-43FD-B391-D5F175E04A03@1x</title>
    <g id="Symbols" stroke="none" stroke-width="1" fill="none" fill-rule="evenodd">
        <g id="2021-/-sponsor-grid" transform="translate(0.000000, -102.000000)" fill="#555555" fill-rule="nonzero">
            <g id="sponsors" transform="translate(0.000000, 1.000000)">
                <g id="row-2" transform="translate(0.000000, 73.000000)">
                    <g id="Clark" transform="translate(0.000000, 28.000000)">
                        <path d="M0,13.06 C0,5.86 5.66,0.18 12.94,0.18 C16.8,0.18 20.38,1.84 22.64,4.64 C23.06,5.16 23.2,5.5 23.2,5.88 C23.2,6.6 22.56,7.2 21.8,7.2 C21.3,7.2 20.9,7.02 20.56,6.6 C18.6,4.14 16.04,2.9 12.98,2.9 C7.32,2.9 3.06,7.28 3.06,13.06 C3.06,18.84 7.32,23.22 12.98,23.22 C16.04,23.22 18.6,21.94 20.56,19.52 C20.9,19.1 21.32,18.92 21.8,18.92 C22.56,18.92 23.2,19.52 23.2,20.24 C23.2,20.62 23.04,20.96 22.64,21.48 C20.46,24.28 16.82,25.94 12.94,25.94 C5.66,25.92 0,20.26 0,13.06 Z M28.62,24.34 L28.62,2.12 C28.62,1.26 29.22,0.58 30.1,0.58 C30.94,0.58 31.58,1.26 31.58,2.12 L31.58,23.26 L42.18,23.26 C42.98,23.26 43.54,23.82 43.54,24.58 C43.54,25.3 42.98,25.9 42.18,25.9 L30.18,25.9 C29.26,25.9 28.62,25.22 28.62,24.34 L28.62,24.34 Z M95.72,24.6 C95.72,25.32 95.12,25.92 94.32,25.92 C93.86,25.92 93.46,25.66 93.04,25.12 L85.52,15.04 L79.86,15.04 L79.86,24.4 C79.86,25.24 79.22,25.9 78.38,25.9 C77.52,25.9 76.9,25.22 76.9,24.4 L76.9,2.12 C76.9,1.28 77.54,0.62 78.4,0.62 L85.64,0.62 C90.4,0.62 93.6,3.52 93.6,7.82 C93.6,11.14 91.72,13.64 88.66,14.62 L95.2,23.5 C95.54,23.86 95.72,24.24 95.72,24.6 Z M79.88,12.42 L85.58,12.42 C88.72,12.42 90.6,10.68 90.6,7.86 C90.6,5.06 88.68,3.26 85.58,3.26 L79.88,3.26 L79.88,12.42 Z M104.3,1.74 L104.3,24.38 C104.3,25.24 103.66,25.92 102.82,25.92 C101.96,25.92 101.34,25.24 101.34,24.38 L101.34,1.74 C101.34,0.88 101.94,0.2 102.82,0.2 C103.66,0.18 104.3,0.86 104.3,1.74 Z M120,24.6 C120,25.32 119.4,25.92 118.64,25.92 C118.26,25.92 117.88,25.74 117.46,25.32 L105.56,13.16 C105.3,12.86 105.1,12.52 105.1,12.14 C105.1,11.76 105.28,11.42 105.6,11.08 L116.4,0.78 C116.86,0.36 117.16,0.18 117.54,0.18 C118.3,0.18 118.9,0.78 118.9,1.5 C118.9,1.92 118.72,2.26 118.26,2.68 L108.38,12.16 L119.44,23.52 C119.84,23.86 120,24.16 120,24.6 Z M71.16,23.56 L61.6,1.2 C61.3,0.52 60.84,0.18 60.2,0.18 C59.56,0.18 59.1,0.52 58.8,1.2 L49.24,23.54 C49.08,23.92 49.02,24.22 49.02,24.48 C49.02,25.24 49.66,25.92 50.46,25.92 C51.1,25.92 51.6,25.54 51.86,24.94 L53.68,20.6 L53.74,20.44 L54.84,17.8 L60.2,4.6 L65.4,17.82 L66.54,20.46 L68.54,24.96 C68.84,25.56 69.3,25.94 69.98,25.94 C70.74,25.94 71.42,25.26 71.42,24.5 C71.42,24.24 71.34,23.92 71.16,23.56 L71.16,23.56 Z" id="Shape"></path>
                    </g>
                </g>
            </g>
        </g>
    </g>
</svg>