<?xml version="1.0" encoding="UTF-8"?>
<svg width="120px" height="81px" viewBox="0 0 120 81" version="1.1" xmlns="http://www.w3.org/2000/svg" xmlns:xlink="http://www.w3.org/1999/xlink">
    <title>0726AA94-7931-4CED-91CF-678215BACE01@1x</title>
    <g id="EmberFest-2021" stroke="none" stroke-width="1" fill="none" fill-rule="evenodd">
        <g id="2021-Desktop-HD---Location-announced" transform="translate(-793.000000, -5816.000000)" fill="#555555" fill-rule="nonzero">
            <g id="sponsors" transform="translate(0.000000, 5506.000000)">
                <g transform="translate(150.000000, 236.000000)" id="sposors">
                    <g id="row-2" transform="translate(0.000000, 74.000000)">
                        <g id="Crowdstrike" transform="translate(643.000000, 0.000000)">
                            <path d="M82.2115385,49.3269231 C80.5192308,49.1538462 77.5384615,48.75 73.7884615,50.6346154 C70.0384615,52.5192308 68.5769231,52.5961538 66.7307692,52.4038462 C67.2692308,53.3846154 68.3653846,54.75 71.8076923,54.9807692 C75.25,55.2307692 76.8846154,55.3269231 75.0769231,59.6153846 C75.1153846,58.3269231 74.8076923,55.8269231 71.4038462,56.25 C68,56.6923077 67.1923077,59.7692308 70.8461538,61.2884615 C69.6538462,61.5192308 67.1346154,61.6730769 65.3269231,56.9615385 C64.0769231,57.5 62.1538462,58.5961538 58.6538462,55.9038462 C59.8653846,56.3461538 61.3653846,56.3653846 61.3653846,56.3653846 C58.2692308,54.8846154 55.3076923,52.1346154 53.4038462,49.5384615 C54.9038462,50.6538462 56.5769231,51.7692308 58.25,51.9807692 C56.2692308,49.5576923 51.6923077,44.7307692 46.0769231,39.75 C49.6923077,42.0961538 54.0384615,45.8269231 61.1538462,45 C68.3076923,44.1730769 73.0961538,42.5384615 82.2115385,49.3269231 M51.7115385,47.6346154 C47.25,45.6923077 46.2884615,45.3076923 40.5384615,43.8461538 C34.7884615,42.3846154 29.1538462,39.3461538 25.3653846,34.6153846 C28.0384615,36.5769231 33.4615385,40.5 39.0576923,40.0576923 C38.2115385,38.8076923 36.6346154,37.8461538 34.7692308,36.8653846 C36.9038462,37.4038462 43.2884615,39.0192308 51.7115385,47.6346154 M42,31.1153846 C40.8461538,27.8076923 38.7692308,23.5769231 28.9230769,17.2884615 C24.1153846,14.1153846 17.0769231,10.1346154 7.80769231,0 C8.46153846,2.73076923 11.3846154,9.84615385 26.1538462,19.0769231 C31,22.3846154 37.2692308,24.4230769 42,31.1153846 M42.5961538,35.9038462 C41.3846154,33.1153846 38.9423077,29.5192308 29.4038462,24.4038462 C25,21.9423077 17.4807692,18.1538462 10.7115385,10.9423077 C11.3269231,13.5384615 14.4615385,19.2692308 27.9807692,26.4038462 C31.7307692,28.4423077 38.0576923,30.3846154 42.5961538,35.9038462" id="Shape"></path>
                            <path d="M51.8653846,21.4423077 C33.25,16.1153846 25.8653846,9.40384615 20.1346154,2.36538462 C22.75,10.4615385 28.9807692,13.3653846 35.6346154,18.7884615 C42.2884615,24.2307692 42.6730769,27.1538462 44.6346154,30.3653846 C49,37.5192308 49.7115385,38.7115385 54.0384615,41.8269231 C59.1538462,45.2115385 65.3269231,42.9230769 72.1153846,43.9807692 C78.9038462,45.0384615 84.5,50.2115385 85.7115385,52.2115385 C87.1346154,49.6730769 83.7307692,46.0192308 82.8269231,45.0961538 C83.3269231,41.7692308 75.4615385,40.3076923 72.4807692,39.1730769 C71.9038462,38.9423077 70.4423077,38.6153846 71.7115385,35.6346154 C73.4038462,31.5192308 75.1730769,27.9423077 51.8653846,21.4423077 M78.7115385,43.2692308 C82.2307692,43.8076923 82.0576923,44.5576923 82.0961538,45.8461538 C80.5961538,44.2115385 78.7115385,43.2692308 78.7115385,43.2692308 M5.19230769,69.4038462 C7.69230769,69.4038462 8.94230769,70.7307692 8.94230769,70.7307692 L8.55769231,71.2115385 C8.55769231,71.2115385 7.30769231,70.0192308 5.21153846,70.0192308 C2.63461538,70.0192308 0.673076923,72.0384615 0.673076923,74.7692308 C0.673076923,77.5 2.61538462,79.6538462 5.26923077,79.6538462 C7.51923077,79.6538462 8.82692308,78.2307692 8.82692308,78.2307692 L9.23076923,78.6730769 C9.23076923,78.6730769 7.82692308,80.2692308 5.26923077,80.2692308 C2.21153846,80.2692308 8.97231508e-16,77.8076923 8.97231508e-16,74.7692308 C-0.0192307692,71.7115385 2.25,69.4038462 5.19230769,69.4038462 M13.2115385,69.5961538 L16.2884615,69.5961538 C17.2692308,69.5961538 17.7692308,69.6923077 18.1730769,69.9038462 C19.0384615,70.3461538 19.6346154,71.2307692 19.6346154,72.4230769 C19.6346154,73.9230769 18.7692308,75.0384615 17.5384615,75.3269231 L17.5384615,75.3653846 C17.5384615,75.3653846 17.6346154,75.4807692 17.7692308,75.7307692 L20.1346154,80.0961538 L19.3653846,80.0961538 L16.8653846,75.4423077 L13.8461538,75.4423077 L13.8461538,80.0961538 L13.1923077,80.0961538 L13.1923077,69.5961538 L13.2115385,69.5961538 Z M16.7115385,74.8461538 C18.0961538,74.8461538 18.9615385,73.8461538 18.9615385,72.4230769 C18.9615385,71.5 18.5,70.75 17.7307692,70.4038462 C17.4230769,70.2692308 17.0961538,70.1923077 16.25,70.1923077 L13.8461538,70.1923077 L13.8461538,74.8461538 L16.7115385,74.8461538 L16.7115385,74.8461538 Z M28.5961538,69.4038462 C31.5192308,69.4038462 33.9038462,71.75 33.9038462,74.7692308 C33.9038462,77.8653846 31.5192308,80.2692308 28.5961538,80.2692308 C25.6730769,80.2692308 23.2884615,77.8461538 23.2884615,74.7692308 C23.2884615,71.75 25.6730769,69.4038462 28.5961538,69.4038462 M28.5961538,79.6538462 C31.1538462,79.6538462 33.2307692,77.5192308 33.2307692,74.7692308 C33.2307692,72.0769231 31.1538462,70.0192308 28.5961538,70.0192308 C26.0384615,70.0192308 23.9615385,72.0769231 23.9615385,74.7692308 C23.9615385,77.5384615 26.0384615,79.6538462 28.5961538,79.6538462 M43.0961538,70.5 C43.0961538,70.5 42.8846154,71.5 42.6923077,72.1730769 L40.4615385,80.0961538 L39.6538462,80.0961538 L36.8846154,69.5961538 L37.5576923,69.5961538 L39.7884615,78.1538462 C39.9230769,78.6730769 40.0384615,79.2884615 40.0384615,79.2884615 L40.0769231,79.2884615 C40.0961538,79.2884615 40.2115385,78.6923077 40.3653846,78.1538462 L42.7692308,69.5961538 L43.5,69.5961538 L45.9038462,78.1538462 C46.0576923,78.6730769 46.1730769,79.2884615 46.1923077,79.2884615 L46.2307692,79.2884615 C46.2307692,79.2884615 46.3461538,78.6730769 46.4807692,78.1538462 L48.7692308,69.5961538 L49.4423077,69.5961538 L46.5961538,80.0961538 L45.7884615,80.0961538 L43.5576923,72.1730769 C43.3653846,71.5 43.1538462,70.5 43.1538462,70.5 L43.1346154,70.5 L43.0961538,70.5 Z M53.1538462,69.5961538 L56.4615385,69.5961538 C59.5769231,69.5961538 61.6923077,71.5192308 61.6923077,74.8461538 C61.6923077,78.1923077 59.5769231,80.0961538 56.4615385,80.0961538 L53.1538462,80.0961538 L53.1538462,69.5961538 Z M56.3461538,79.5 C59.1346154,79.5 61.0192308,77.8653846 61.0192308,74.8461538 C61.0192308,71.8461538 59.1346154,70.1923077 56.3461538,70.1923077 L53.7884615,70.1923077 L53.7884615,79.5 L56.3461538,79.5 Z M65.6153846,77.75 C65.6153846,77.75 66.75,78.8846154 68.3076923,78.8846154 C69.3076923,78.8846154 70.1346154,78.3269231 70.1346154,77.3269231 C70.1346154,75.0384615 65,75.5192308 65,72.2692308 C65,70.6153846 66.4230769,69.3076923 68.4230769,69.3076923 C70.3846154,69.3076923 71.4230769,70.3653846 71.4230769,70.3653846 L70.75,71.5961538 C70.75,71.5961538 69.7692308,70.6730769 68.4230769,70.6730769 C67.2884615,70.6730769 66.5,71.3846154 66.5,72.2115385 C66.5,74.4038462 71.6346154,73.8269231 71.6346154,77.25 C71.6346154,78.8846154 70.3653846,80.2307692 68.2692308,80.2307692 C66.0192308,80.2307692 64.75,78.8269231 64.75,78.8269231 L65.6153846,77.75 Z" id="Shape"></path>
                            <polygon id="Path" points="77.5576923 70.7884615 73.9230769 70.7884615 73.9230769 69.5 82.6730769 69.5 82.6730769 70.7884615 79.0384615 70.7884615 79.0384615 80.0961538 77.5576923 80.0961538"></polygon>
                            <path d="M85.6730769,69.5 L88.9230769,69.5 C90.0384615,69.5 90.5,69.5961538 90.9038462,69.7307692 C91.9807692,70.1346154 92.6923077,71.2115385 92.6923077,72.5961538 C92.6923077,73.9423077 91.9423077,75.0961538 90.7884615,75.4615385 L90.7884615,75.5 C90.7884615,75.5 90.9038462,75.6346154 91.0961538,75.9807692 L93.3461538,80.0961538 L91.6730769,80.0961538 L89.4423077,75.8846154 L87.1730769,75.8846154 L87.1730769,80.0961538 L85.6923077,80.0961538 L85.6923077,69.5 L85.6730769,69.5 Z M89.3076923,74.5961538 C90.4615385,74.5961538 91.1923077,73.8653846 91.1923077,72.6730769 C91.1923077,71.8846154 90.9038462,71.3461538 90.3461538,71.0384615 C90.0576923,70.8846154 89.7115385,70.8076923 88.8846154,70.8076923 L87.1730769,70.8076923 L87.1730769,74.5961538 L89.3076923,74.5961538 Z" id="Shape"></path>
                            <rect id="Rectangle" x="96.7884615" y="69.5" width="1.48076923" height="10.5961538"></rect>
                            <polygon id="Path" points="102.653846 69.5 104.153846 69.5 104.153846 73.9615385 105.730769 73.9615385 108.403846 69.5 110.038462 69.5 106.961538 74.5192308 106.961538 74.5576923 110.230769 80.0961538 108.538462 80.0961538 105.730769 75.2307692 104.153846 75.2307692 104.153846 80.0961538 102.653846 80.0961538"></polygon>
                            <polygon id="Path" points="113.5 69.5 119.653846 69.5 119.653846 70.7884615 115 70.7884615 115 74.1153846 118.788462 74.1153846 118.788462 75.4038462 115 75.4038462 115 78.8076923 119.923077 78.8076923 119.923077 80.0961538 113.5 80.0961538"></polygon>
                        </g>
                    </g>
                </g>
            </g>
        </g>
    </g>
</svg>