<?xml version="1.0" encoding="UTF-8" standalone="no"?>
<!DOCTYPE svg PUBLIC "-//W3C//DTD SVG 1.1//EN" "http://www.w3.org/Graphics/SVG/1.1/DTD/svg11.dtd">
<svg width="173px" height="31px" viewBox="0 0 173 31" version="1.1" xmlns="http://www.w3.org/2000/svg" xmlns:xlink="http://www.w3.org/1999/xlink" xml:space="preserve" xmlns:serif="http://www.serif.com/" style="fill-rule:evenodd;clip-rule:evenodd;stroke-linejoin:round;stroke-miterlimit:2;">
    <g transform="matrix(1,0,0,1,0,-0.9998)">
        <g id="Home">
            <g id="Group-24">
                <g id="Group-7" transform="matrix(1,0,0,1,13,3.5267)">
                    <path id="Fill-1" d="M14.515,12.245L14.515,11.938L11.915,9.7L11.612,9.7C10.897,10.49 9.793,11.082 8.558,11.082C6.63,11.082 5.113,9.612 5.113,7.594C5.113,5.576 6.63,4.106 8.558,4.106C9.793,4.106 10.897,4.698 11.612,5.488L11.915,5.488L14.515,3.25L14.515,2.943C13.15,1.276 11.006,0.201 8.579,0.201C4.117,0.201 0.738,3.36 0.738,7.594C0.738,7.758 0.775,7.909 0.786,8.07C2.612,9.312 4.224,10.306 5.612,11.216C7.613,12.482 9.228,13.647 10.558,14.73C12.216,14.311 13.56,13.402 14.515,12.245M2.367,12.166C3.409,13.446 4.88,14.364 6.615,14.756C5.443,14.097 4.308,13.45 3.251,12.734C2.941,12.542 2.665,12.356 2.367,12.166"/>
                    <path id="Fill-3" d="M29.571,14.044L28.921,11.236L28.683,11.082C28.553,11.148 28.445,11.236 28.12,11.236C27.621,11.236 27.318,10.709 27.058,10.293C26.625,9.634 26.278,9.283 25.975,9.13C27.556,8.428 28.618,7.112 28.618,5.225C28.618,2.307 26.625,0.464 22.921,0.464L16.465,0.464L16.465,14.724L20.754,14.724L20.754,9.722L21.144,9.722C22.097,9.722 23.311,11.784 23.874,12.706C25.044,14.571 25.975,14.987 27.643,14.987C28.423,14.987 29.073,14.702 29.463,14.351L29.571,14.044ZM24.242,5.466C24.242,6.41 23.549,6.87 22.747,6.87L20.754,6.87L20.754,3.974L22.747,3.974C23.549,3.974 24.242,4.501 24.242,5.466Z"/>
                    <path id="Fill-5" d="M46.143,7.594C46.143,3.36 42.764,0.201 38.28,0.201C33.795,0.201 30.416,3.36 30.416,7.594C30.416,11.828 33.795,14.987 38.28,14.987C42.764,14.987 46.143,11.806 46.143,7.594M41.767,7.594C41.767,9.634 40.207,11.082 38.28,11.082C36.352,11.082 34.792,9.634 34.792,7.594C34.792,5.554 36.352,4.106 38.28,4.106C40.207,4.106 41.767,5.554 41.767,7.594"/>
                </g>
                <path id="Fill-8" d="M80.61,3.991L76.516,3.991L73.981,11.889L71.295,3.991L68.696,3.991L66.031,11.845L63.497,3.991L59.402,3.991L59.207,4.32L64.45,18.251L67.049,18.251L69.995,10.485L72.963,18.251L75.563,18.251L80.805,4.32L80.61,3.991Z"/>
                <path id="Fill-9" d="M96.51,11.099C96.51,6.843 93.673,3.991 89.059,3.991L82.495,3.991L82.495,18.251L89.059,18.251C93.673,18.251 96.51,15.399 96.51,11.099M92.135,11.121C92.135,13.446 90.769,14.741 88.885,14.741L86.784,14.741L86.784,7.501L88.885,7.501C90.769,7.501 92.135,8.796 92.135,11.121"/>
                <path id="Fill-11" d="M119.232,7.501L123.521,7.501L123.521,3.991L110.654,3.991L110.654,7.501L114.943,7.501L114.943,18.251L119.232,18.251L119.232,7.501Z"/>
                <path id="Fill-12" d="M137.233,8.751C137.233,5.833 135.24,3.99 131.536,3.99L125.08,3.99L125.08,18.25L129.37,18.25L129.37,13.248L130.388,13.248L133.052,18.25L137.32,18.25L137.515,17.921L134.655,12.634C136.193,11.91 137.233,10.616 137.233,8.751M132.857,8.992C132.857,9.936 132.164,10.396 131.362,10.396L129.37,10.396L129.37,7.5L131.362,7.5C132.164,7.5 132.857,8.027 132.857,8.992"/>
                <path id="Fill-14" d="M139.832,18.251L144.121,18.251L144.121,3.991L139.832,3.991L139.832,18.251Z"/>
                <path id="Fill-15" d="M154.996,10.375L159.848,4.32L159.653,3.991L155.083,3.991L151.118,9.059L151.118,3.991L146.829,3.991L146.829,18.251L151.118,18.251L151.118,13.863L151.898,12.942L155.538,18.251L160.022,18.251L160.217,17.922L154.996,10.375Z"/>
                <path id="Fill-16" d="M161.386,3.99L161.386,18.251L172.173,18.251L172.173,14.741L165.674,14.741L165.674,12.766L170.57,12.766L170.57,9.475L165.674,9.475L165.674,7.501L172.109,7.501L172.109,3.99L161.386,3.99Z"/>
                <g id="Group-23" transform="matrix(1,0,0,1,0,0.5267)">
                    <path id="Fill-17" d="M103.766,17.893C106.908,17.893 109.635,16.358 109.635,13.398C109.635,10.172 106.886,9.338 104.46,8.636C103.506,8.351 102.53,8.021 102.53,7.319C102.53,6.814 103.072,6.507 103.896,6.507C105.305,6.507 106.496,7.385 107.102,7.956L107.405,7.956L109.419,5.543L109.419,5.236C108.358,4.03 106.193,3.109 103.809,3.109C100.473,3.109 98.157,4.907 98.157,7.517C98.157,10.326 100.711,11.555 102.877,12.169C104.286,12.564 105.241,12.63 105.241,13.398C105.241,13.947 104.568,14.276 103.527,14.276C102.205,14.276 100.603,13.42 99.824,12.652L99.521,12.652L97.529,15.153L97.529,15.46C98.806,16.885 101.101,17.893 103.766,17.893"/>
                    <path id="Fill-19" d="M29.82,31C28.781,28.622 26.694,25.571 18.518,21.214C14.748,19.118 8.307,15.891 2.514,9.758C3.039,11.972 5.729,16.837 17.299,22.912C20.503,24.665 25.921,26.309 29.82,31"/>
                    <path id="Fill-21" d="M29.298,26.927C28.312,24.117 26.532,20.519 18.091,15.175C13.98,12.481 7.945,9.098 0,0.473C0.568,2.798 3.078,8.844 15.73,16.693C19.886,19.509 25.25,21.246 29.298,26.927"/>
                </g>
            </g>
        </g>
    </g>
</svg>
