<svg height="418" viewBox="0 0 624 418" width="624" xmlns="http://www.w3.org/2000/svg"><g fill="#ec3825" transform="translate(-1)"><path d="m428.5 256.5c-8.8-.9-24.3-3-43.8 6.8s-27.1 10.2-36.7 9.2c2.8 5.1 8.5 12.2 26.4 13.4 17.9 1.3 26.4 1.8 17 24.1.2-6.7-1.4-19.7-19.1-17.5-17.7 2.3-21.9 18.3-2.9 26.2-6.2 1.2-19.3 2-28.7-22.5-6.5 2.8-16.5 8.5-34.7-5.5 6.3 2.3 14.1 2.4 14.1 2.4-16.1-7.7-31.5-22-41.4-35.5 7.8 5.8 16.5 11.6 25.2 12.7-10.3-12.6-34.1-37.7-63.3-63.6 18.8 12.2 41.4 31.6 78.4 27.3 37.2-4.3 62.1-12.8 109.5 22.5m-158.6-8.8c-23.2-10.1-28.2-12.1-58.1-19.7s-59.2-23.4-78.9-48c13.9 10.2 42.1 30.6 71.2 28.3-4.4-6.5-12.6-11.5-22.3-16.6 11.1 2.8 44.3 11.2 88.1 56m-50.5-85.9c-6-17.2-16.8-39.2-68-71.9-25-16.5-61.6-37.2-109.8-89.9 3.4 14.2 18.6 51.2 95.4 99.2 25.2 17.2 57.8 27.8 82.4 62.6m3.1 24.9c-6.3-14.5-19-33.2-68.6-59.8-22.9-12.8-62-32.5-97.2-70 3.2 13.5 19.5 43.3 89.8 80.4 19.5 10.6 52.4 20.7 76 49.4"/><path d="m270.7 111.5c-96.8-27.7-135.2-62.6-165-99.2 13.6 42.1 46 57.2 80.6 85.4 34.6 28.3 36.6 43.5 46.8 60.2 22.7 37.2 26.4 43.4 48.9 59.6 26.6 17.6 58.7 5.7 94 11.2s64.4 32.4 70.7 42.8c7.4-13.2-10.3-32.2-15-37 2.6-17.3-38.3-24.9-53.8-30.8-3-1.2-10.6-2.9-4-18.4 8.8-21.4 18-40-103.2-73.8m139.6 113.5c18.3 2.8 17.4 6.7 17.6 13.4-7.8-8.5-17.6-13.4-17.6-13.4m-382.3 135.9c13 0 19.5 6.9 19.5 6.9l-2 2.5s-6.5-6.2-17.4-6.2c-13.4 0-23.6 10.5-23.6 24.7s10.1 25.4 23.9 25.4c11.7 0 18.5-7.4 18.5-7.4l2.1 2.3s-7.3 8.3-20.6 8.3c-15.9 0-27.4-12.8-27.4-28.6-.1-15.9 11.7-27.9 27-27.9m41.7 1h16c5.1 0 7.7.5 9.8 1.6 4.5 2.3 7.6 6.9 7.6 13.1 0 7.8-4.5 13.6-10.9 15.1v.2s.5.6 1.2 1.9l12.3 22.7h-4l-13-24.2h-15.7v24.2h-3.4v-54.6zm18.2 27.3c7.2 0 11.7-5.2 11.7-12.6 0-4.8-2.4-8.7-6.4-10.5-1.6-.7-3.3-1.1-7.7-1.1h-12.5v24.2zm61.8-28.3c15.2 0 27.6 12.2 27.6 27.9 0 16.1-12.4 28.6-27.6 28.6s-27.6-12.6-27.6-28.6c0-15.7 12.4-27.9 27.6-27.9m0 53.3c13.3 0 24.1-11.1 24.1-25.4 0-14-10.8-24.7-24.1-24.7s-24.1 10.7-24.1 24.7c0 14.4 10.8 25.4 24.1 25.4m75.4-47.6s-1.1 5.2-2.1 8.7l-11.6 41.2h-4.2l-14.4-54.6h3.5l11.6 44.5c.7 2.7 1.3 5.9 1.3 5.9h.2c.1 0 .7-3.1 1.5-5.9l12.5-44.5h3.8l12.5 44.5c.8 2.7 1.4 5.9 1.5 5.9h.2s.6-3.2 1.3-5.9l11.9-44.5h3.5l-14.8 54.6h-4.2l-11.6-41.2c-1-3.5-2.1-8.7-2.1-8.7h-.1zm52.3-4.7h17.2c16.2 0 27.2 10 27.2 27.3 0 17.4-11 27.3-27.2 27.3h-17.2zm16.6 51.5c14.5 0 24.3-8.5 24.3-24.2 0-15.6-9.8-24.2-24.3-24.2h-13.3v48.4zm48.2-9.1s5.9 5.9 14 5.9c5.2 0 9.5-2.9 9.5-8.1 0-11.9-26.7-9.4-26.7-26.3 0-8.6 7.4-15.4 17.8-15.4 10.2 0 15.6 5.5 15.6 5.5l-3.5 6.4s-5.1-4.8-12.1-4.8c-5.9 0-10 3.7-10 8 0 11.4 26.7 8.4 26.7 26.2 0 8.5-6.6 15.5-17.5 15.5-11.7 0-18.3-7.3-18.3-7.3z"/><path d="m404.3 368.1h-18.9v-6.7h45.5v6.7h-18.9v48.4h-7.7z"/><path d="m446.5 361.4h16.9c5.8 0 8.2.5 10.3 1.2 5.6 2.1 9.3 7.7 9.3 14.9 0 7-3.9 13-9.9 14.9v.2s.6.7 1.6 2.5l11.7 21.4h-8.7l-11.6-21.9h-11.8v21.9h-7.7v-55.1zm18.9 26.5c6 0 9.8-3.8 9.8-10 0-4.1-1.5-6.9-4.4-8.5-1.5-.8-3.3-1.2-7.6-1.2h-8.9v19.7z"/><path d="m504.3 361.4h7.7v55.1h-7.7z"/><path d="m534.8 361.4h7.8v23.2h8.2l13.9-23.2h8.5l-16 26.1v.2l17 28.8h-8.8l-14.6-25.3h-8.2v25.3h-7.8z"/><path d="m591.2 361.4h32v6.7h-24.2v17.3h19.7v6.7h-19.7v17.7h25.6v6.7h-33.4z"/></g></svg>