<svg width="135" height="37" xmlns="http://www.w3.org/2000/svg"><g fill="none" fill-rule="evenodd"><path d="M5.323 36.056c1.29.006 2.394-.328 3.337-1.025.591-.437 1.06-1.042.45-1.747-.286-.33-.943-.49-1.587.063-.503.434-1.439.594-2.2.53-.74-.063-1.567-.464-2.031-.953-.361-.38-.614-.91-.72-1.396H9.3c.622 0 1.122-.402 1.122-1.037 0-2.792-2.35-5.014-5.1-5.014-2.898 0-5.162 2.411-5.162 5.29 0 2.877 2.264 5.275 5.163 5.289zm0-8.507c1.846.032 2.92 1.334 3.131 2.18H2.466a2.798 2.798 0 0 1 2.857-2.18zm17.781.191c1.164 0 2.137.974 2.137 2.18v5.014c0 .614.53 1.122 1.143 1.122s1.121-.508 1.121-1.122V29.92c0-2.455-1.968-4.443-4.4-4.443-1.334 0-2.54.55-3.323 1.46-.804-.91-1.989-1.46-3.322-1.46-.804 0-1.586.232-2.263.634-.17-.402-.572-.634-1.016-.634a1.12 1.12 0 0 0-1.121 1.142v8.315c0 .635.51 1.122 1.12 1.122.638 0 1.144-.535 1.144-1.16V29.92c0-1.206.973-2.18 2.136-2.18 1.185 0 2.16.953 2.18 2.116v5.078c0 .614.55 1.122 1.142 1.122.614 0 1.122-.508 1.122-1.122V29.92v-.064a2.196 2.196 0 0 1 2.2-2.116zm6.323 7.173c0 .614.507 1.143 1.142 1.143a1.14 1.14 0 0 0 1.122-.91c.804.55 1.82.91 2.877.91 2.856 0 5.142-2.412 5.142-5.269 0-2.898-2.286-5.31-5.142-5.31a5.008 5.008 0 0 0-2.835.888v-3.978c0-.613-.508-1.142-1.164-1.142-.635 0-1.142.529-1.142 1.142v12.526zm3.152-6.263c.53-.55 1.206-.867 1.989-.867.762 0 1.46.317 1.989.867.529.53.846 1.29.846 2.137 0 .804-.317 1.566-.846 2.095a2.74 2.74 0 0 1-1.989.867c-.783 0-1.46-.317-1.989-.867a2.977 2.977 0 0 1-.846-2.095c0-.846.317-1.608.846-2.137zm13.602 7.406c1.35.006 2.494-.358 3.465-1.122.548-.431.87-1.019.322-1.65-.285-.33-1.016-.455-1.587.063-.491.447-1.438.594-2.2.53-.74-.063-1.566-.464-2.031-.953-.361-.38-.614-.91-.72-1.396h6.729c.69 0 1.158-.492 1.121-1.143-.168-2.856-2.349-4.908-5.1-4.908-2.898 0-5.162 2.411-5.162 5.29 0 2.877 2.264 5.275 5.163 5.289zm0-8.507c1.846.032 2.92 1.334 3.131 2.18h-5.987a2.798 2.798 0 0 1 2.856-2.18zm12.051-2.051c-1.058-.013-1.97.356-2.666.825a2.52 2.52 0 0 0-.444.423v-.148c0-.614-.529-1.1-1.164-1.1-.613 0-1.121.487-1.121 1.1v8.336a1.13 1.13 0 0 0 1.121 1.122c.635 0 1.164-.508 1.164-1.122V31.07c0-.901.503-1.734 1.078-2.308.582-.58 1.182-1.002 2.032-1.043.634-.03 1.122-.529 1.122-1.121 0-.614-.487-1.093-1.122-1.1z" fill="#FFF"/><path d="M66.234 36.232a5.276 5.276 0 0 1-2.11-.416 5.18 5.18 0 0 1-1.671-1.136 5.235 5.235 0 0 1-1.107-1.701 5.478 5.478 0 0 1-.401-2.095v-.03c0-.742.131-1.438.394-2.087a5.204 5.204 0 0 1 2.8-2.867c.654-.282 1.377-.423 2.169-.423.475 0 .909.04 1.3.119a5.044 5.044 0 0 1 1.983.847c.277.198.54.415.787.653l-1.173 1.352a5.863 5.863 0 0 0-1.322-.936c-.466-.238-.996-.356-1.59-.356-.495 0-.953.096-1.374.29-.421.192-.785.455-1.092.787-.307.331-.545.72-.713 1.166a4 4 0 0 0-.253 1.426v.03c0 .505.085.982.253 1.433.168.45.406.844.713 1.181.307.337.671.602 1.092.795.42.193.879.29 1.374.29.634 0 1.179-.122 1.634-.364a6.425 6.425 0 0 0 1.352-.988l1.174 1.188a6.694 6.694 0 0 1-.84.765 5.53 5.53 0 0 1-.943.58 4.765 4.765 0 0 1-1.107.371 6.483 6.483 0 0 1-1.33.126zm6.135-10.577h1.827v4.323h4.962v-4.323h1.827v10.399h-1.827v-4.382h-4.962v4.382H72.37V25.655zm11.29 0h7.71v1.634h-5.883v2.704h5.215v1.634h-5.215v2.793h5.957v1.634H83.66V25.655zM98.44 36.232a5.275 5.275 0 0 1-2.11-.416 5.181 5.181 0 0 1-1.67-1.136 5.235 5.235 0 0 1-1.107-1.701 5.478 5.478 0 0 1-.401-2.095v-.03c0-.742.131-1.438.393-2.087a5.264 5.264 0 0 1 1.107-1.708 5.204 5.204 0 0 1 1.694-1.159c.653-.282 1.376-.423 2.169-.423.475 0 .908.04 1.3.119a5.044 5.044 0 0 1 1.983.847c.277.198.54.415.787.653l-1.174 1.352a5.863 5.863 0 0 0-1.322-.936c-.465-.238-.995-.356-1.59-.356-.494 0-.952.096-1.373.29-.421.192-.785.455-1.092.787-.307.331-.545.72-.713 1.166a4.001 4.001 0 0 0-.253 1.426v.03c0 .505.084.982.253 1.433.168.45.406.844.713 1.181.307.337.67.602 1.092.795.42.193.879.29 1.374.29.634 0 1.178-.122 1.634-.364a6.424 6.424 0 0 0 1.352-.988l1.173 1.188a6.692 6.692 0 0 1-.84.765 5.53 5.53 0 0 1-.942.58 4.764 4.764 0 0 1-1.107.371 6.483 6.483 0 0 1-1.33.126zm6.136-10.577h1.827v5.23l4.947-5.23h2.243l-4.323 4.472 4.516 5.927h-2.213l-3.55-4.68-1.62 1.664v3.016h-1.827V25.655zm15.033 10.562a5.44 5.44 0 0 1-1.827-.29 3.686 3.686 0 0 1-1.396-.868 3.872 3.872 0 0 1-.892-1.434c-.208-.57-.312-1.23-.312-1.983v-5.987h1.828v5.913c0 .97.232 1.708.698 2.213.465.505 1.109.758 1.931.758.812 0 1.45-.243 1.916-.728.466-.485.699-1.208.699-2.17v-5.986h1.827v5.898c0 .772-.107 1.45-.32 2.035a3.995 3.995 0 0 1-.898 1.463 3.634 3.634 0 0 1-1.404.877c-.55.193-1.166.29-1.85.29zm10.934-5.154c.693 0 1.24-.174 1.642-.52.4-.347.601-.793.601-1.337v-.03c0-.614-.203-1.077-.609-1.39-.406-.311-.95-.467-1.634-.467h-2.124v3.744h2.124zm-3.952-5.408h4.1a5.17 5.17 0 0 1 1.642.245c.49.164.906.399 1.248.706.342.307.604.673.787 1.1.183.425.275.9.275 1.425v.03c0 .584-.109 1.097-.327 1.538-.218.44-.515.81-.891 1.106a3.974 3.974 0 0 1-1.322.676 5.541 5.541 0 0 1-1.62.23h-2.064v3.343h-1.828V25.655zM50.082.193c.842 0 1.532.689 1.532 1.531V4.85h3.125c.843 0 1.532.69 1.532 1.532 0 .842-.69 1.531-1.532 1.531h-3.125v3.126c0 .842-.69 1.531-1.532 1.531-.842 0-1.531-.689-1.531-1.531V7.913h-3.126c-.843 0-1.532-.689-1.532-1.531 0-.843.69-1.532 1.532-1.532h3.126V1.724c0-.842.689-1.531 1.531-1.531z" fill="#2DB561"/><path d="M8.681 7.2c-.313-1.684.546-2.353 1.878-2.353h16.863c1.173 0 1.793.76 1.564 1.946h3.184c-.23-1.185.391-1.946 1.563-1.946h7.932a4.525 4.525 0 0 0 .022 3.143h-5.878l2.768 8.52h8.975l.38-1.998a4.522 4.522 0 0 0 3.088.51l-.582 3.13c-.213 1.144-.902 1.502-2.155 1.502H37.944c-1.33 0-1.771-.416-2.155-1.601l-2.622-8.104h-5.178l-2.623 8.104c-.383 1.185-.825 1.6-2.154 1.6h-10.34c-1.252 0-1.942-.357-2.155-1.502L8.681 7.2zm34.533 2.547c-.925 0-1.68 1.093-1.68 2.435 0 1.341.755 2.435 1.68 2.435.925 0 1.68-1.094 1.68-2.435 0-1.342-.755-2.435-1.68-2.435zm-25.273 0c.925 0 1.68 1.093 1.68 2.435 0 1.341-.755 2.435-1.68 2.435-.925 0-1.679-1.094-1.679-2.435 0-1.342.754-2.435 1.68-2.435zM11.983 7.99h13.364l-2.768 8.52h-8.975l-1.621-8.52z" fill="#FFF"/></g></svg>