<svg width="142" height="39" xmlns="http://www.w3.org/2000/svg" xmlns:xlink="http://www.w3.org/1999/xlink"><defs><linearGradient x1="100.015%" y1="99.916%" x2=".052%" y2="-.047%" id="a"><stop stop-color="#FF9C40" offset="0%"/><stop stop-color="#FF5757" offset="100%"/></linearGradient><path d="M59.175 24.81v-1.64h-8.357v-4.665h7.598v-1.593h-7.598v-4.179h8.216v-1.686H49V24.81h10.175zm3.907 0v-5.322c0-1.293.26-2.186.782-2.68.522-.493 1.1-.74 1.738-.74.7 0 1.177.235 1.434.703.162.313.243.81.243 1.49v6.549h1.715v-5.837c0-1.037.239-1.777.716-2.22a2.427 2.427 0 0 1 1.71-.666c.481 0 .889.125 1.223.375.334.25.501.71.501 1.377v6.971h1.752v-6.68c0-.887-.131-1.593-.393-2.118-.488-.974-1.406-1.461-2.755-1.461-.63 0-1.2.13-1.705.389-.506.259-.946.657-1.321 1.194-.225-.437-.475-.768-.75-.993-.487-.393-1.13-.59-1.93-.59-.705 0-1.336.19-1.892.571-.325.225-.687.584-1.087 1.078v-1.424h-1.668V24.81h1.687zm18.654.319c1.361 0 2.426-.525 3.194-1.574.769-1.05 1.153-2.368 1.153-3.954 0-1.674-.389-2.94-1.167-3.8-.777-.858-1.79-1.288-3.04-1.288-.6 0-1.155.127-1.668.38a3.74 3.74 0 0 0-1.32 1.1V11h-1.64v13.81h1.555v-1.284c.356.481.69.831 1.003 1.05.524.368 1.168.553 1.93.553zm-.103-1.49c-1.212 0-2.04-.553-2.483-1.658-.238-.588-.356-1.353-.356-2.296 0-1.305.289-2.242.866-2.81.578-.569 1.251-.853 2.02-.853.88 0 1.547.346 2 1.04.453.693.679 1.568.679 2.623 0 1.187-.226 2.143-.68 2.867-.452.725-1.135 1.087-2.046 1.087zm10.334 1.527c.512 0 .97-.05 1.377-.15.756-.175 1.39-.512 1.902-1.012.306-.287.582-.657.829-1.11.247-.453.392-.863.436-1.232h-1.659a2.937 2.937 0 0 1-.637 1.171c-.524.581-1.227.871-2.108.871-.943 0-1.64-.307-2.09-.922-.449-.616-.69-1.432-.72-2.45h7.354c0-1.012-.05-1.75-.15-2.211-.112-.675-.337-1.265-.674-1.771-.35-.531-.86-.964-1.527-1.298a4.577 4.577 0 0 0-2.071-.501c-1.412 0-2.555.503-3.43 1.508-.874 1.006-1.31 2.314-1.31 3.926 0 1.636.433 2.91 1.302 3.818.868.909 1.926 1.363 3.176 1.363zm2.95-6.174h-5.574c.032-.862.31-1.573.834-2.132a2.565 2.565 0 0 1 1.949-.838c1.08 0 1.852.406 2.314 1.218.25.437.41 1.021.478 1.752zm5.538 5.818v-5.771c0-.712.228-1.342.684-1.888.456-.547 1.109-.82 1.958-.82.1 0 .192.003.277.01.084.006.176.018.276.037v-1.78c-.181-.019-.31-.031-.384-.038a2.215 2.215 0 0 0-.16-.01c-.668 0-1.258.243-1.77.727s-.834.895-.965 1.232v-1.733h-1.602V24.81h1.686zm6.615 0v-8.208a82.347 82.347 0 0 0-.024-1.437 74.983 74.983 0 0 1-.023-1.542v-.421l3.954 11.608h1.845l3.926-11.608c0 .743-.006 1.44-.019 2.089-.012.65-.019 1.115-.019 1.396v8.123h1.771V11.047h-2.642l-3.926 11.636-3.953-11.636h-2.67V24.81h1.78zm16.723.337c.775 0 1.484-.165 2.127-.496.644-.331 1.137-.722 1.48-1.171.057.4.154.709.291.927.262.412.684.619 1.265.619.237 0 .425-.01.562-.029.137-.018.337-.065.6-.14V23.61a4.05 4.05 0 0 1-.3.042c-.094.01-.178.014-.253.014-.231 0-.383-.053-.455-.16a.74.74 0 0 1-.107-.42v-5.782c0-.949-.366-1.649-1.097-2.098-.737-.45-1.695-.675-2.876-.675-1.018 0-1.913.242-2.684.726-.771.484-1.173 1.345-1.204 2.581h1.574c.062-.518.197-.908.403-1.17.368-.475.993-.713 1.874-.713.762 0 1.347.13 1.756.39.41.258.614.675.614 1.25 0 .28-.037.496-.112.646-.132.275-.39.438-.778.488l-2.689.337c-.943.118-1.705.434-2.286.946-.58.512-.871 1.234-.871 2.164 0 .85.295 1.557.885 2.122.59.566 1.35.848 2.281.848zm.394-1.433a1.98 1.98 0 0 1-1.265-.422c-.356-.28-.534-.665-.534-1.152 0-.643.26-1.112.778-1.406.306-.174.765-.302 1.377-.384l1.021-.13c.313-.038.631-.1.956-.188.325-.088.59-.197.796-.328v1.358c0 1.037-.468 1.784-1.405 2.24a3.846 3.846 0 0 1-1.724.412zm9.135 5.097v-5.125c.368.456.703.777 1.002.965.513.33 1.146.496 1.902.496.962 0 1.805-.296 2.53-.89 1.143-.937 1.714-2.498 1.714-4.684 0-1.618-.396-2.863-1.19-3.734-.793-.871-1.758-1.307-2.894-1.307-.769 0-1.437.188-2.005.562-.4.25-.769.603-1.106 1.059v-1.33h-1.64V28.81h1.687zm2.68-5.135c-1.162 0-1.962-.518-2.4-1.555-.23-.543-.346-1.202-.346-1.977 0-.962.116-1.755.347-2.38.43-1.168 1.23-1.752 2.398-1.752 1.162 0 1.962.553 2.399 1.659.231.574.347 1.261.347 2.061 0 1.312-.261 2.297-.783 2.956-.521.659-1.176.988-1.963.988z" id="b"/></defs><g transform="translate(.5)" fill="none" fill-rule="evenodd"><path d="M19.184 0c10.6 0 19.185 8.585 19.185 19.184 0 10.6-8.586 19.185-19.185 19.185C8.585 38.369 0 29.783 0 19.184 0 8.585 8.585 0 19.184 0z" fill="url(#a)"/><path d="M15.154 23.832c0 .689-.477 1.378-1.113 1.59l-4.928 1.801C8.477 27.435 8 27.064 8 26.43V14.452c0-.69.477-1.378 1.113-1.59l4.928-1.802c.636-.212 1.113.159 1.113.795v11.977zm.846 0c0 .689.477 1.378 1.113 1.59l4.928 1.801c.636.212 1.113-.159 1.113-.794V14.452c0-.69-.477-1.378-1.113-1.59l-4.928-1.802c-.636-.212-1.113.159-1.113.795v11.977zm15.26.052c0 .69-.53 1.378-1.166 1.59l-4.928 1.643C24.53 27.33 24 26.958 24 26.27V14.292c0-.689.53-1.378 1.166-1.59l4.928-1.642c.636-.212 1.166.158 1.166.847v11.977z" fill="#FFF"/><g fill-rule="nonzero"><use fill="#000" xlink:href="#b"/><use fill="#FFF" xlink:href="#b"/></g></g></svg>