<?xml version="1.0" encoding="UTF-8"?>
<svg width="141px" height="39px" viewBox="0 0 141 39" version="1.1" xmlns="http://www.w3.org/2000/svg" xmlns:xlink="http://www.w3.org/1999/xlink">
    <title>EmberMap</title>
    <g id="Symbols" stroke="none" stroke-width="1" fill="none" fill-rule="evenodd">
        <g id="2021-/-sponsor-grid" transform="translate(-441.000000, -510.000000)" fill="#000000">
            <g id="sponsors" transform="translate(0.000000, 1.070008)">
                <g id="row-6" transform="translate(0.326247, 499.155851)">
                    <g id="EmberMap" transform="translate(440.673753, 9.774141)">
                        <g id="Group">
                            <path d="M19.1842976,-2.52242671e-13 C29.6693887,-2.52242671e-13 38.1837336,8.40160201 38.3656255,18.8430992 L38.3685952,19.1842976 C38.3685952,29.6693887 29.9669932,38.1837336 19.5254961,38.3656255 L19.1842976,38.3685952 C8.69920654,38.3685952 0.184861616,29.9669932 0.00296971373,19.5254961 L-2.62900812e-13,19.1842976 C-2.62900812e-13,8.69920654 8.40160201,0.184861616 18.8430992,0.00296971373 L19.1842976,-2.52242671e-13 Z M15.1543651,11.8548118 C15.1543651,11.2188682 14.6774075,10.8479012 14.0414639,11.0598824 L14.0414639,11.0598824 L9.11290124,12.8617225 C8.47695768,13.0737036 8,13.7626425 8,14.4515814 L8,14.4515814 L8,26.4285186 C8,27.0644621 8.47695768,27.4354292 9.11290124,27.223448 L9.11290124,27.223448 L14.0414639,25.4216079 C14.6774075,25.2096267 15.1543651,24.5206879 15.1543651,23.831749 L15.1543651,23.831749 Z M16,11.8548118 L16,23.831749 C16,24.5206879 16.4769577,25.2096267 17.1129012,25.4216079 L22.0414639,27.223448 C22.6774075,27.4354292 23.1543651,27.0644621 23.1543651,26.4285186 L23.1543651,14.4515814 C23.1543651,13.7626425 22.6774075,13.0737036 22.0414639,12.8617225 L17.1129012,11.0598824 C16.4769577,10.8479012 16,11.2188682 16,11.8548118 Z M31.2603557,11.9074382 C31.2603557,11.2184993 30.7304028,10.8475323 30.0944592,11.0595135 L30.0944592,11.0595135 L25.1658965,12.7023677 C24.529953,12.9143489 24,13.6032877 24,14.2922266 L24,14.2922266 L24,26.2691638 C24,26.9581026 24.529953,27.3290697 25.1658965,27.1170885 L25.1658965,27.1170885 L30.0944592,25.4742343 C30.7304028,25.2622531 31.2603557,24.5733143 31.2603557,23.8843754 L31.2603557,23.8843754 Z" id="Combined-Shape"></path>
                        </g>
                        <path d="M59.1748344,24.8100422 L59.1748344,23.1704511 L50.8176039,23.1704511 L50.8176039,18.504643 L58.4159379,18.504643 L58.4159379,16.9118973 L50.8176039,16.9118973 L50.8176039,12.7332821 L59.034298,12.7332821 L59.034298,11.0468455 L49,11.0468455 L49,24.8100422 L59.1748344,24.8100422 Z M63.0817459,24.8100422 L63.0817459,19.4883977 C63.0817459,18.195463 63.342519,17.3022762 63.8640651,16.8088373 C64.3856113,16.3153984 64.9649335,16.068679 65.6020318,16.068679 C66.3015907,16.068679 66.7794144,16.3029063 67.0355029,16.7713609 C67.1979005,17.083664 67.2790993,17.5802259 67.2790993,18.2610466 L67.2790993,18.2610466 L67.2790993,24.8100422 L68.9936432,24.8100422 L68.9936432,18.9730977 C68.9936432,17.9362514 69.2325551,17.1960931 69.7103788,16.7526227 C70.1882025,16.3091524 70.7581556,16.0874172 71.4202382,16.0874172 C71.9011849,16.0874172 72.3087404,16.2123384 72.6429047,16.4621809 C72.977069,16.7120233 73.1441512,17.1711089 73.1441512,17.8394375 L73.1441512,17.8394375 L73.1441512,24.8100422 L74.8961715,24.8100422 L74.8961715,18.1298793 C74.8961715,17.2429386 74.7650042,16.5371336 74.5026696,16.0124644 C74.0154768,15.0380788 73.0973057,14.550886 71.7481564,14.550886 C71.1173042,14.550886 70.5489126,14.6804918 70.0429816,14.9397034 C69.5370506,15.1989149 69.0967033,15.5971014 68.7219396,16.1342626 C68.4970813,15.6970383 68.2472389,15.3659971 67.9724122,15.1411389 C67.4852194,14.747637 66.841875,14.550886 66.0423791,14.550886 C65.3365742,14.550886 64.7057219,14.7413909 64.1498225,15.1224007 C63.8250272,15.3472589 63.4627557,15.7064074 63.0630077,16.1998463 L63.0630077,16.1998463 L63.0630077,14.7757442 L61.3953093,14.7757442 L61.3953093,24.8100422 L63.0817459,24.8100422 Z M81.7356089,25.1285914 C83.0972504,25.1285914 84.1622039,24.6039222 84.9304695,23.5545839 C85.698735,22.5052455 86.0828678,21.1873265 86.0828678,19.6008268 C86.0828678,17.9268823 85.6940505,16.6604933 84.9164158,15.8016599 C84.1387811,14.9428264 83.1253576,14.5134097 81.8761453,14.5134097 C81.2765234,14.5134097 80.7206239,14.6398924 80.2084469,14.8928579 C79.6962698,15.1458234 79.2559225,15.5127795 78.8874048,15.9937263 L78.8874048,15.9937263 L78.8874048,11 L77.2478137,11 L77.2478137,24.8100422 L78.803083,24.8100422 L78.803083,23.5264766 C79.1591085,24.0074233 79.4932728,24.3572028 79.8055759,24.5758149 C80.3302451,24.9443326 80.9735894,25.1285914 81.7356089,25.1285914 Z M81.6325489,23.6389057 C80.420813,23.6389057 79.5932098,23.0861292 79.1497394,21.9805763 C78.9123891,21.3934465 78.7937139,20.628304 78.7937139,19.6851487 C78.7937139,18.3797218 79.0825943,17.4428126 79.660355,16.874421 C80.2381157,16.3060293 80.9111288,16.0218335 81.6793944,16.0218335 C82.5600891,16.0218335 83.2268561,16.36849 83.6796956,17.0618028 C84.1325351,17.7551156 84.3589548,18.6295643 84.3589548,19.6851487 C84.3589548,20.8719004 84.1325351,21.8275478 83.6796956,22.552091 C83.2268561,23.2766341 82.5444739,23.6389057 81.6325489,23.6389057 Z M91.9666579,25.1660677 C92.4788349,25.1660677 92.9379204,25.1160993 93.3439145,25.0161623 C94.0996879,24.8412725 94.7336632,24.5039852 95.2458402,24.0043003 C95.5518972,23.7169815 95.8282855,23.3469023 96.0750049,22.8940628 C96.3217243,22.4412234 96.4669453,22.0305448 96.5106677,21.6620272 L96.5106677,21.6620272 L94.8523383,21.6620272 C94.7274171,22.1054976 94.515051,22.4958764 94.21524,22.8331637 C93.6905709,23.4140475 92.9878889,23.7044893 92.1071943,23.7044893 C91.1640389,23.7044893 90.4676031,23.3968708 90.0178866,22.7816337 C89.5681702,22.1663967 89.3276968,21.3497241 89.2964665,20.3316161 L89.2964665,20.3316161 L96.6512041,20.3316161 C96.6512041,19.3197541 96.6012356,18.5827188 96.5012986,18.1205102 C96.3888695,17.4459356 96.1640113,16.8556828 95.8267239,16.3497518 C95.4769445,15.8188365 94.9678905,15.3862968 94.2995619,15.0521325 C93.6312333,14.7179682 92.9410435,14.550886 92.2289925,14.550886 C90.8173825,14.550886 89.6743533,15.053694 88.7999046,16.0593099 C87.925456,17.0649258 87.4882317,18.3734757 87.4882317,19.9849596 C87.4882317,21.6214278 87.922333,22.8940628 88.7905355,23.8028648 C89.6587381,24.7116668 90.7174455,25.1660677 91.9666579,25.1660677 Z M94.917922,18.9918358 L89.343312,18.9918358 C89.3745423,18.1298793 89.652492,17.4193898 90.1771612,16.8603673 C90.7018304,16.3013448 91.3514208,16.0218335 92.1259324,16.0218335 C93.2065011,16.0218335 93.9778897,16.4278275 94.4400983,17.2398156 C94.6899407,17.6770399 94.8492153,18.2610466 94.917922,18.9918358 L94.917922,18.9918358 Z M100.455056,24.8100422 L100.455056,19.0386813 C100.455056,18.3266303 100.683037,17.6973396 101.138999,17.1508092 C101.594962,16.6042788 102.247675,16.3310136 103.09714,16.3310136 C103.197077,16.3310136 103.289206,16.3341366 103.373528,16.3403827 C103.45785,16.3466287 103.549979,16.3591209 103.649916,16.3778591 L103.649916,16.3778591 L103.649916,14.5977315 C103.46878,14.5789933 103.340736,14.5665012 103.265783,14.5602551 C103.190831,14.5540091 103.137739,14.550886 103.106509,14.550886 C102.43818,14.550886 101.847927,14.7929209 101.33575,15.2769907 C100.823573,15.7610605 100.501901,16.171739 100.370734,16.5090263 L100.370734,16.5090263 L100.370734,14.7757442 L98.768619,14.7757442 L98.768619,24.8100422 L100.455056,24.8100422 Z M107.069635,24.8100422 L107.069472,16.6020341 C107.068279,16.2763931 107.060526,15.7972356 107.046212,15.1645616 C107.030597,14.4743718 107.022789,13.9606332 107.022789,13.6233459 L107.022789,13.2017367 L110.976546,24.8100422 L112.822258,24.8100422 L116.747907,13.2017367 C116.747907,13.9450181 116.741661,14.6414539 116.729169,15.2910443 C116.716677,15.9406347 116.710431,16.4059663 116.710431,16.6870391 L116.710431,24.8100422 L118.481189,24.8100422 L118.481189,11.0468455 L115.839105,11.0468455 L111.913456,22.6832583 L107.959699,11.0468455 L105.289507,11.0468455 L105.289507,24.8100422 L107.069635,24.8100422 Z M123.793465,25.1473296 C124.567976,25.1473296 125.276904,24.9818089 125.920249,24.6507677 C126.563593,24.3197264 127.057032,23.9293475 127.400565,23.4796311 C127.45678,23.8793791 127.553594,24.1885591 127.691007,24.4071713 C127.953342,24.8194113 128.374951,25.0255314 128.955835,25.0255314 C129.193185,25.0255314 129.380567,25.0161623 129.51798,24.9974241 C129.655394,24.9786859 129.855268,24.9318404 130.117602,24.8568877 L130.117602,24.8568877 L130.117602,23.6107984 C130.011419,23.6295366 129.911482,23.6435902 129.817791,23.6529593 C129.7241,23.6623284 129.639779,23.667013 129.564826,23.667013 C129.333721,23.667013 129.182254,23.6139214 129.110425,23.5077384 C129.038595,23.4015553 129.00268,23.261019 129.00268,23.0861292 L129.00268,23.0861292 L129.00268,17.3053992 C129.00268,16.3559978 128.637286,15.6564389 127.906496,15.2067225 C127.169461,14.7570061 126.210691,14.5321478 125.030185,14.5321478 C124.012077,14.5321478 123.117329,14.7741827 122.34594,15.2582525 C121.574551,15.7423223 121.173242,16.6027173 121.142012,17.8394375 L121.142012,17.8394375 L122.716019,17.8394375 C122.77848,17.3210144 122.91277,16.9306355 123.11889,16.6683009 C123.487408,16.1936002 124.112014,15.9562499 124.992709,15.9562499 C125.754728,15.9562499 126.340296,16.0858557 126.749413,16.3450672 C127.158531,16.6042788 127.363089,17.0212034 127.363089,17.5958411 C127.363089,17.8769138 127.325613,18.092403 127.25066,18.2423084 C127.119493,18.5171352 126.860281,18.6795328 126.473025,18.7295013 L126.473025,18.7295013 L123.784096,19.0667886 C122.84094,19.1854637 122.078921,19.5008899 121.498037,20.0130669 C120.917153,20.525244 120.626712,21.2466641 120.626712,22.1773273 C120.626712,23.0267916 120.921838,23.7341581 121.512091,24.2994267 C122.102344,24.8646953 122.862802,25.1473296 123.793465,25.1473296 Z M124.186967,23.7138584 C123.699774,23.7138584 123.278165,23.573322 122.922139,23.2922493 C122.566114,23.0111765 122.388101,22.6270437 122.388101,22.1398509 C122.388101,21.4965065 122.647313,21.0280519 123.165736,20.734487 C123.471793,20.5595973 123.930878,20.431553 124.542992,20.3503542 L124.542992,20.3503542 L125.564223,20.2191869 C125.876526,20.1817106 126.195076,20.11925 126.519871,20.0318051 C126.844666,19.9443602 127.110124,19.8350542 127.316244,19.7038869 L127.316244,19.7038869 L127.316244,21.0624053 C127.316244,22.0992515 126.847789,22.8456559 125.91088,23.3016184 C125.35498,23.5764451 124.780343,23.7138584 124.186967,23.7138584 Z M133.321832,28.8106447 L133.321832,23.6857511 C133.690349,24.1417136 134.024514,24.4633858 134.324325,24.6507677 C134.836502,24.9818089 135.470477,25.1473296 136.22625,25.1473296 C137.188144,25.1473296 138.031362,24.8506416 138.755905,24.2572658 C139.898935,23.3203565 140.470449,21.7588411 140.470449,19.5727196 C140.470449,17.9549896 140.073824,16.7104618 139.280575,15.8391362 C138.487325,14.9678106 137.522308,14.5321478 136.385525,14.5321478 C135.617259,14.5321478 134.948931,14.7195297 134.380539,15.0942934 C133.980791,15.3441359 133.612274,15.6970383 133.274986,16.1530008 L133.274986,16.1530008 L133.274986,14.8225897 L131.635395,14.8225897 L131.635395,28.8106447 L133.321832,28.8106447 Z M136.001392,23.6763821 C134.839625,23.6763821 134.040129,23.1579589 133.602905,22.1211127 C133.3718,21.5777053 133.256248,20.9187458 133.256248,20.1442342 C133.256248,19.1823407 133.3718,18.3890909 133.602905,17.7644847 C134.033883,16.5964712 134.833379,16.0124644 136.001392,16.0124644 C137.16316,16.0124644 137.962656,16.5652409 138.39988,17.6707938 C138.630984,18.2454315 138.746536,18.9324983 138.746536,19.7319941 C138.746536,21.0436671 138.485763,22.0289833 137.964217,22.6879428 C137.442671,23.3469023 136.788396,23.6763821 136.001392,23.6763821 Z" fill-rule="nonzero"></path>
                    </g>
                </g>
            </g>
        </g>
    </g>
</svg>