<?xml version="1.0" encoding="UTF-8"?>
<svg width="120px" height="22px" viewBox="0 0 120 22" version="1.1" xmlns="http://www.w3.org/2000/svg" xmlns:xlink="http://www.w3.org/1999/xlink">
    <title>Harvest</title>
    <g id="Symbols" stroke="none" stroke-width="1" fill="none" fill-rule="evenodd">
        <g id="2021-/-sponsor-grid" transform="translate(-485.000000, -10.000000)" fill="#000000" fill-rule="nonzero">
            <g id="sponsors" transform="translate(0.000000, 1.070008)">
                <g id="row-1" transform="translate(112.000000, 0.000000)">
                    <g id="Harvest" transform="translate(373.000000, 8.929992)">
                        <path d="M92.8884112,0.231129334 C90.5228169,0.967566494 89.2704434,2.56032593 89.0095323,5.19779856 C88.8181974,7.28722492 89.6009309,8.93136369 91.462097,10.3014793 C92.0013133,10.6953876 93.3580513,11.5345834 94.4886662,12.1511355 C95.6540693,12.8019404 96.8542605,13.6240098 97.2891124,14.0692974 C97.9674814,14.7543552 98.0718459,14.9598725 98.1414222,15.7648155 C98.2283925,16.8780344 97.8979051,17.6315981 97.0803835,18.1111385 C96.4194086,18.5221732 95.2366115,18.5564261 94.5408484,18.2138972 C93.7755091,17.819989 92.9753816,16.7924022 92.7318645,15.9360799 C92.6275001,15.5079188 92.4535593,15.131137 92.3491949,15.0968841 C92.2622245,15.0626312 91.3577325,15.2167692 90.3488761,15.439413 C88.5398922,15.8161948 88.5224981,15.8333213 88.5572863,16.2957353 C88.6094685,17.1006782 89.5835368,18.9160815 90.4532406,19.8237831 C91.6360378,21.0740136 93.0797461,21.7248185 94.906124,21.8275772 C98.1588162,22.0330946 100.715745,20.8171169 101.828966,18.5392997 C102.385577,17.3918278 102.524729,15.0968841 102.107271,13.86378 C101.446297,11.9113652 100.019982,10.5926289 96.506379,8.69159346 C93.6189624,7.11596046 92.9405934,6.3795233 93.2015046,5.0265341 C93.4450217,3.72492423 94.6973951,3.00561352 96.0715271,3.38239532 C96.8542605,3.58791267 97.863117,4.58124651 98.1936044,5.50607458 C98.4371215,6.1911324 98.4371215,6.1911324 99.1502786,5.96848861 C99.4285838,5.86572993 100.228711,5.64308614 100.924474,5.43756879 C102.14206,5.09503988 102.176848,5.06078699 102.072483,4.6154994 C101.863754,3.74205068 100.90708,2.18354413 100.211317,1.56699209 C99.8286475,1.22446318 99.0807023,0.744922701 98.5414859,0.505152463 C97.7065703,0.111244215 97.2891124,0.0427384323 95.6540693,0.0084855411 C94.2973314,-0.0257673501 93.4972039,0.0427384323 92.8884112,0.231129334 Z M1.06948571e-18,10.933733 L1.33792663e-15,21.85 L2.0195122,21.85 L4.03902439,21.85 L4.03902439,17.1341727 L4.03902439,12.4183453 L6.86634146,12.4532774 L9.67682927,12.5056755 L9.72731707,17.1691047 L9.76097561,21.85 L11.7804878,21.85 L13.8,21.85 L13.7663415,10.9686651 L13.7158537,0.104796163 L11.7468293,0.0523980815 L9.76097561,0 L9.76097561,4.38397282 L9.76097561,8.75047962 L6.9,8.75047962 L4.03902439,8.75047962 L4.03902439,4.38397282 L4.03902439,0.0174660272 L2.0195122,0.0174660272 L-1.33578766e-15,0.0174660272 L1.06948571e-18,10.933733 Z M23.4271429,0.15732 C23.3285714,0.31464 18.4,21.44796 18.4,21.69268 C18.4,21.78008 19.2378571,21.85 20.2728571,21.85 L22.1457143,21.85 L22.6714286,19.5776 L23.1971429,17.3052 L25.9242857,17.34016 L28.6514286,17.3926 L28.7664286,17.917 C28.8321429,18.19668 29.0457143,19.21052 29.2428571,20.15444 L29.6042857,21.85 L31.4771429,21.85 C32.5121429,21.85 33.35,21.81504 33.35,21.7626 C33.35,21.65772 28.8157143,1.62564 28.5692857,0.64676 L28.405,0 L25.9571429,0 C24.61,0 23.4764286,0.06992 23.4271429,0.15732 Z M26.7621429,8.75748 C27.2057143,10.80264 27.6164286,12.7604 27.6821429,13.07504 L27.7971429,13.6344 L25.8914286,13.6344 C24.84,13.6344 23.9857143,13.56448 23.9857143,13.47708 C23.9857143,13.38968 24.3471429,11.67664 24.7907143,9.66644 C25.2342857,7.67372 25.645,5.7684 25.7107143,5.45376 C25.7764286,5.13912 25.8585714,4.8944 25.8914286,4.92936 C25.9242857,4.96432 26.3185714,6.69484 26.7621429,8.75748 Z M36.8,10.9162809 L36.8,21.8325619 L38.8394089,21.8325619 L40.8788177,21.8325619 L40.8788177,17.385834 L40.8788177,12.921668 L41.8305419,12.9739824 L42.782266,13.0262969 L44.4987685,17.385834 L46.232266,21.7453711 L48.4076355,21.7976856 L50.6,21.85 L50.4810345,21.4663607 C50.4130542,21.2396648 49.5633005,19.147087 48.5945813,16.8103751 C47.6258621,14.4562251 46.8270936,12.450838 46.8270936,12.3462091 C46.8270936,12.2415802 47.0990148,11.9974461 47.4389163,11.8056265 C50.5490148,10.0966879 50.7189655,3.83639266 47.7108374,1.48224262 C46.3172414,0.401077414 45.1955665,0.174381484 40.7598522,0.0697525938 L36.8,0 L36.8,10.9162809 Z M44.4137931,3.87126895 C45.5864532,4.41185156 46.0963054,6.03359936 45.6374384,7.72509976 C45.2805419,9.01552275 44.1248768,9.62585794 42.0344828,9.62585794 L40.8788177,9.62585794 L40.8788177,6.57418196 L40.8788177,3.52250599 L42.2894089,3.52250599 C43.2921182,3.52250599 43.8869458,3.62713488 44.4137931,3.87126895 Z M54.0501733,0.12236 C54.0335624,0.20976 55.2129376,5.12164 56.6580875,11.06484 L59.2826127,21.85 L61.5583085,21.85 L63.8340043,21.85 L64.0001135,21.18576 C65.328987,15.83688 69,0.47196 69,0.27968 C69,0.03496 68.7176144,-3.55271368e-15 67.1229662,0 L65.2293215,0 L64.0333354,5.19156 C61.7908614,14.82304 61.5915303,15.66208 61.4752539,15.295 C61.4254212,15.10272 60.6613189,11.8864 59.7809402,8.14568 C58.9171725,4.40496 58.1198484,1.03132 58.0367938,0.66424 L57.8540737,0 L55.960429,0 C54.9139411,0 54.0501733,0.05244 54.0501733,0.12236 Z M73.6,10.925 L73.6,21.85 L79.35,21.85 L85.1,21.85 L85.1,20.0146 L85.1,18.1792 L81.3238806,18.1792 L77.5477612,18.1792 L77.5820896,15.32996 L77.6335821,12.4982 L80.3455224,12.44576 L83.0402985,12.39332 L83.0402985,10.5754 L83.0402985,8.74 L80.2940299,8.74 L77.530597,8.74 L77.5820896,6.24036 L77.6335821,3.7582 L81.2037313,3.70576 L84.7567164,3.6708 L84.7567164,1.8354 L84.7567164,0 L79.1783582,0 L73.6,0 L73.6,10.925 Z M105.92075,0.12236 C105.85175,0.1748 105.8,1.01384 105.8,1.95776 L105.8,3.6708 L108.215,3.6708 L110.63,3.6708 L110.63,12.7604 L110.63,21.85 L112.7,21.85 L114.77,21.85 L114.8045,12.79536 L114.85625,3.7582 L117.23675,3.70576 L119.6,3.65332 L119.6,1.8354 L119.6,0 L112.82075,0 C109.0775,0 105.9725,0.05244 105.92075,0.12236 Z" id="Combined-Shape"></path>
                    </g>
                </g>
            </g>
        </g>
    </g>
</svg>