<?xml version="1.0" encoding="UTF-8"?>
<svg width="120px" height="22px" viewBox="0 0 120 22" version="1.1" xmlns="http://www.w3.org/2000/svg" xmlns:xlink="http://www.w3.org/1999/xlink">
    <title>DA44B387-F6FD-48E2-80DF-51174629ECF8@1x</title>
    <g id="Symbols" stroke="none" stroke-width="1" fill="none" fill-rule="evenodd">
        <g id="2021-/-sponsor-grid" transform="translate(-485.000000, -10.000000)" fill="#555555" fill-rule="nonzero">
            <g id="sponsors" transform="translate(0.000000, 1.000000)">
                <g id="row-1" transform="translate(112.000000, 0.000000)">
                    <g id="Harvest" transform="translate(373.000000, 9.000000)">
                        <path d="M9.76097561,0 L11.7468293,0.0523980815 L13.7158537,0.104796163 L13.7663415,10.9686651 L13.8,21.85 L9.76097561,21.85 L9.72731707,17.1691047 L9.67682927,12.5056755 L6.86634146,12.4532774 L4.03902439,12.4183453 L4.03902439,21.85 L1.33792663e-15,21.85 L-1.33578766e-15,0.0174660272 L4.03902439,0.0174660272 L4.03902439,8.75047962 L9.76097561,8.75047962 L9.76097561,0 Z M28.405,0 L28.5692857,0.64676 C28.8157143,1.62564 33.35,21.65772 33.35,21.7626 C33.35,21.81504 32.5121429,21.85 31.4771429,21.85 L31.4771429,21.85 L29.6042857,21.85 L29.2428571,20.15444 C29.2297143,20.091512 29.2164984,20.0282732 29.2032582,19.964962 L29.1239143,19.5861302 C28.9662,18.8343504 28.819,18.140744 28.7664286,17.917 L28.7664286,17.917 L28.6514286,17.3926 L25.9242857,17.34016 L23.1971429,17.3052 L22.6714286,19.5776 L22.1457143,21.85 L20.2728571,21.85 C19.2378571,21.85 18.4,21.78008 18.4,21.69268 C18.4,21.579497 19.4542522,16.9981119 20.5973252,12.0902583 L20.7833145,11.2921826 L20.7833145,11.2921826 L20.969946,10.4923084 C22.183156,5.2957845 23.3790893,0.2340135 23.4271429,0.15732 C23.4764286,0.06992 24.61,0 25.9571429,0 L28.405,0 Z M36.8,0 L40.7598522,0.0697525938 C45.1955665,0.174381484 46.3172414,0.401077414 47.7108374,1.48224262 C50.7189655,3.83639266 50.5490148,10.0966879 47.4389163,11.8056265 C47.0990148,11.9974461 46.8270936,12.2415802 46.8270936,12.3462091 C46.8270936,12.450838 47.6258621,14.4562251 48.5945813,16.8103751 C49.1827322,18.229093 49.7270298,19.5578177 50.0791333,20.4335913 L50.1951833,20.7232892 C50.3565629,21.1278516 50.4591837,21.3934942 50.4810345,21.4663607 L50.4810345,21.4663607 L50.6,21.85 L48.4076355,21.7976856 L46.232266,21.7453711 L44.4987685,17.385834 L42.782266,13.0262969 L41.8305419,12.9739824 L40.8788177,12.921668 L40.8788177,21.8325619 L36.8,21.8325619 L36.8,0 Z M57.8540737,0 L58.0367938,0.66424 C58.1198484,1.03132 58.9171725,4.40496 59.7809402,8.14568 C60.5661428,11.4819978 61.2588509,14.4011706 61.4348037,15.1297681 L61.4610064,15.237707 C61.4677796,15.2653772 61.4725603,15.2846065 61.4752539,15.295 C61.5915303,15.66208 61.7908614,14.82304 64.0333354,5.19156 L64.0333354,5.19156 L65.2293215,0 L67.5098708,0.000907977316 C68.7645897,0.00766608696 69,0.05624 69,0.27968 C69,0.398006154 67.6097939,6.26218414 66.2307172,12.0021165 L66.0584919,12.7185363 C65.2559907,16.0548456 64.477145,19.2656492 64.0001135,21.18576 L64.0001135,21.18576 L63.8340043,21.85 L59.2826127,21.85 L56.6580875,11.06484 C55.4630597,6.15027077 54.4497691,1.94091999 54.1442052,0.581635538 L54.1062144,0.410680671 C54.067374,0.233316627 54.0479373,0.134125385 54.0501733,0.12236 C54.0501733,0.05244 54.9139411,0 55.960429,0 L57.8540737,0 Z M84.7567164,0 L84.7567164,3.6708 L81.2037313,3.70576 L77.6335821,3.7582 L77.5820896,6.24036 L77.530597,8.74 L80.2940299,8.74 L83.0402985,8.74 L83.0402985,12.39332 L80.3455224,12.44576 L77.6335821,12.4982 L77.5820896,15.32996 L77.5477612,18.1792 L85.1,18.1792 L85.1,21.85 L73.6,21.85 L73.6,0 L84.7567164,0 Z M119.6,0 L119.6,3.65332 L117.23675,3.70576 L114.85625,3.7582 L114.8045,12.79536 L114.77,21.85 L110.63,21.85 L110.63,3.6708 L105.8,3.6708 L105.800598,1.7821705 C105.806536,0.912032656 105.856062,0.1715225 105.92075,0.12236 C105.969703,0.0562194595 108.750745,0.00572026297 112.219712,0.000454142499 L119.6,0 Z M92.8884112,0.231129334 C93.4972039,0.0427384323 94.2973314,-0.0257673501 95.6540693,0.0084855411 C97.2891124,0.0427384323 97.7065703,0.111244215 98.5414859,0.505152463 C99.0807023,0.744922701 99.8286475,1.22446318 100.211317,1.56699209 C100.90708,2.18354413 101.863754,3.74205068 102.072483,4.6154994 C102.176848,5.06078699 102.14206,5.09503988 100.924474,5.43756879 C100.228711,5.64308614 99.4285838,5.86572993 99.1502786,5.96848861 C98.4371215,6.1911324 98.4371215,6.1911324 98.1936044,5.50607458 C97.863117,4.58124651 96.8542605,3.58791267 96.0715271,3.38239532 C94.6973951,3.00561352 93.4450217,3.72492423 93.2015046,5.0265341 C92.9405934,6.3795233 93.6189624,7.11596046 96.506379,8.69159346 C100.019982,10.5926289 101.446297,11.9113652 102.107271,13.86378 C102.524729,15.0968841 102.385577,17.3918278 101.828966,18.5392997 C100.715745,20.8171169 98.1588162,22.0330946 94.906124,21.8275772 C93.0797461,21.7248185 91.6360378,21.0740136 90.4532406,19.8237831 C89.5835368,18.9160815 88.6094685,17.1006782 88.5572863,16.2957353 C88.5224981,15.8333213 88.5398922,15.8161948 90.3488761,15.439413 C91.3577325,15.2167692 92.2622245,15.0626312 92.3491949,15.0968841 C92.4535593,15.131137 92.6275001,15.5079188 92.7318645,15.9360799 C92.9753816,16.7924022 93.7755091,17.819989 94.5408484,18.2138972 C95.2366115,18.5564261 96.4194086,18.5221732 97.0803835,18.1111385 C97.8979051,17.6315981 98.2283925,16.8780344 98.1414222,15.7648155 C98.0718459,14.9598725 97.9674814,14.7543552 97.2891124,14.0692974 C96.8542605,13.6240098 95.6540693,12.8019404 94.4886662,12.1511355 C93.3580513,11.5345834 92.0013133,10.6953876 91.462097,10.3014793 C89.6009309,8.93136369 88.8181974,7.28722492 89.0095323,5.19779856 C89.2704434,2.56032593 90.5228169,0.967566494 92.8884112,0.231129334 Z M25.8914286,4.92936 C25.8585714,4.8944 25.7764286,5.13912 25.7107143,5.45376 C25.645,5.7684 25.2342857,7.67372 24.7907143,9.66644 C24.3471429,11.67664 23.9857143,13.38968 23.9857143,13.47708 C23.9857143,13.56448 24.84,13.6344 25.8914286,13.6344 L25.8914286,13.6344 L27.7971429,13.6344 L27.6821429,13.07504 C27.6164286,12.7604 27.2057143,10.80264 26.7621429,8.75748 C26.3185714,6.69484 25.9242857,4.96432 25.8914286,4.92936 Z M42.2894089,3.52250599 L40.8788177,3.52250599 L40.8788177,9.62585794 L42.0344828,9.62585794 C44.1248768,9.62585794 45.2805419,9.01552275 45.6374384,7.72509976 C46.0963054,6.03359936 45.5864532,4.41185156 44.4137931,3.87126895 C43.8869458,3.62713488 43.2921182,3.52250599 42.2894089,3.52250599 L42.2894089,3.52250599 Z" id="Combined-Shape"></path>
                    </g>
                </g>
            </g>
        </g>
    </g>
</svg>