<?xml version="1.0" encoding="UTF-8"?>
<svg width="168px" height="40px" viewBox="0 0 168 40" version="1.1" xmlns="http://www.w3.org/2000/svg" xmlns:xlink="http://www.w3.org/1999/xlink">
    <title>Honeypot</title>
    <g id="Symbols" stroke="none" stroke-width="1" fill="none" fill-rule="evenodd">
        <g id="2021-/-sponsor-grid" transform="translate(-809.000000, -1.000000)" fill="#000000" fill-rule="nonzero">
            <g id="sponsors" transform="translate(0.000000, 1.070008)">
                <g id="row-1" transform="translate(112.000000, 0.000000)">
                    <g id="Honeypot" transform="translate(697.135029, 0.000000)">
                        <g id="Group-4">
                            <path d="M27.2524742,6.18867924 C29.3075118,6.18867924 30.9732284,7.85602171 30.9732284,9.9124562 C30.9732284,11.2771412 30.2376323,12.4667758 29.1437734,13.1151716 C29.4524515,13.7207591 29.7281637,14.3451604 29.9875296,14.9780144 C30.9666897,17.367372 31.5881323,19.9396874 31.7753006,22.6344292 C31.78974,22.9550825 31.8052693,23.2754631 31.8052693,23.599661 C31.8052693,26.0680913 31.3829825,28.4372717 30.6125137,30.642581 C30.3934696,31.2236287 30.0654482,31.9827262 29.6793964,32.5324175 C29.4320182,32.8620687 29.1097181,33.2353462 28.6841621,33.6080784 C28.3678558,33.8826514 28.0016924,34.1572244 27.5848546,34.3868077 C27.1726484,34.6150278 26.6920588,34.7996216 26.2177355,34.8606984 C25.7213445,34.9321365 25.1974366,34.8467925 24.7974902,34.5659481 C24.3899154,34.2919205 24.0984015,33.8125766 23.9297593,33.2705199 C23.5932921,32.1725005 23.6306167,30.9283332 23.7336003,29.8030474 C23.8463917,28.6684911 24.0518137,27.6140981 24.2556011,26.7183958 C24.6337046,25.0812716 25.0052216,23.9683156 25.0669743,23.787137 L25.068,23.78 C24.9911267,23.9627509 24.543751,25.0469041 24.0507239,26.6638629 C23.7837297,27.5497493 23.5031134,28.5956898 23.3080443,29.7463332 C23.1274145,30.8947955 22.9822024,32.1596853 23.2761684,33.4529323 C23.4271018,34.0882402 23.7417736,34.7581766 24.3149936,35.211072 C24.8887587,35.6716022 25.6061011,35.8139329 26.2501563,35.8297474 C26.928267,35.8343828 27.530366,35.6795093 28.0763418,35.4714665 C28.1381864,35.447472 28.1910403,35.4163883 28.2512502,35.3910305 C27.310777,36.8083398 26.2008442,38.0999508 24.9595937,39.2527756 C24.3081825,39.7198496 23.0222515,40.2777208 21.2192237,39.3405735 C18.616716,37.9881584 16.0144645,37.8015468 15.8591421,37.7914789 C15.851824,37.791022 13.1679879,37.9458955 10.4841519,39.3405735 C8.9451213,40.1405707 7.78315186,39.8504559 7.06989607,39.4580919 C5.73301824,38.2518249 4.54407694,36.8855038 3.54557331,35.378488 C3.61041474,35.4057544 3.66708289,35.4390195 3.733559,35.4646499 C4.27953477,35.6726928 4.88163383,35.8275662 5.55974447,35.8229308 C6.20379974,35.807389 6.92114219,35.6647855 7.49490716,35.2042555 C8.06812725,34.7516326 8.38279894,34.0814237 8.53373236,33.4461158 C8.82769837,32.1531414 8.6822138,30.8879789 8.50185652,29.7395166 C8.30678733,28.5891458 8.02617103,27.5429328 7.75917688,26.6570462 C7.26614981,25.0403363 6.81877418,23.9562048 6.74469772,23.7798849 L6.736,23.761 L6.7429266,23.7805928 C6.7458672,23.7892202 6.74951022,23.7999605 6.75382291,23.8127696 L6.78747328,23.9140974 C6.91096137,24.2904434 7.23021102,25.3085432 7.55429974,26.7115792 C7.75808712,27.6075541 7.96350915,28.6616746 8.07630055,29.7962308 C8.179284,30.9215166 8.2166087,32.165684 7.88014158,33.2639759 C7.71149936,33.8057601 7.41998534,34.2853766 7.01241059,34.5591316 C6.61246427,34.8399759 6.0888288,34.9253198 5.59216519,34.8541544 C5.11784192,34.792805 4.63725244,34.6084838 4.22504618,34.3799911 C3.80820837,34.1506804 3.44204497,33.8761074 3.12573864,33.6012617 C2.81242918,33.3269614 2.55197367,33.0502071 2.33728856,32.791994 C2.33020506,32.7835414 2.32312153,32.7739981 2.31603801,32.7655456 C2.25555567,32.6921989 2.20569859,32.6243055 2.15284465,32.5545034 C1.66871343,31.8752965 1.27339862,30.8579858 1.06797659,30.2673949 C0.378695782,28.1686974 -5.54223334e-13,25.9290325 -5.54223334e-13,23.599661 C-5.54223334e-13,23.2754631 0.0155292522,22.9548098 0.0296962881,22.6341565 C0.217137078,19.9388695 0.838852024,17.365736 1.81855709,14.9758331 C2.07792283,14.3432518 2.35336271,13.7191231 2.66204064,13.1138083 C1.56954418,12.4648671 0.835037821,11.2760506 0.835037821,9.9124562 C0.835037821,7.85602171 2.50102682,6.18867924 4.555792,6.18867924 L27.2524742,6.18867924 Z M15.8352563,14.6415094 C13.2851572,14.6415094 11.2181574,16.7025438 11.2181574,19.2452831 C11.2181574,21.7877507 13.2851572,23.8490566 15.8352563,23.8490566 C18.3850828,23.8490566 20.4520825,21.7877507 20.4520825,19.2452831 C20.4520825,16.7025438 18.3850828,14.6415094 15.8352563,14.6415094 Z M9.17472047,9.20754717 C7.29362156,9.20754717 5.76862783,10.7281235 5.76862783,12.6037736 C5.76862783,14.4794236 7.29362156,15.9999999 9.17472047,15.9999999 C11.0558194,15.9999999 12.5805398,14.4794236 12.5805398,12.6037736 C12.5805398,10.7281235 11.0558194,9.20754717 9.17472047,9.20754717 Z M22.6471687,9.20754717 C20.7660697,9.20754717 19.241076,10.7281235 19.241076,12.6037736 C19.241076,14.4794236 20.7660697,15.9999999 22.6471687,15.9999999 C24.5282676,15.9999999 26.0529881,14.4794236 26.0529881,12.6037736 C26.0529881,10.7281235 24.5282676,9.20754717 22.6471687,9.20754717 Z M4.59850506,8 C3.57261428,8 2.74111139,8.84158221 2.74111139,9.87990862 C2.74111139,10.5532841 3.09382912,11.1396751 3.6195168,11.4716981 C4.26232521,10.4031878 4.97968962,9.38599014 5.76862783,8.43080668 C5.44844364,8.16573709 5.04448558,8 4.59850506,8 Z M27.2240034,8 C26.7774894,8 26.3732425,8.1662202 26.0529881,8.43228223 C26.8411611,9.38708836 27.5578051,10.4036099 28.2002109,11.4716981 C28.7269239,11.1400806 29.0805045,10.5533727 29.0805045,9.87916597 C29.0805045,8.84124975 28.2492515,8 27.2240034,8 Z M15.9108079,4.36983782e-13 C17.5351743,4.36983782e-13 18.1133663,0.489449266 18.1133663,0.489449266 L17.2050893,3.00149592 C19.4654667,3.2270562 21.5518439,4.04216157 23.3282231,5.28301887 L8.49339262,5.28301887 C10.269772,4.04216157 12.3561491,3.22678045 14.6165266,3.00149592 L13.7082495,0.489449266 C13.7082495,0.489449266 14.2864415,4.36983782e-13 15.9108079,4.36983782e-13 Z" id="Combined-Shape"></path>
                            <path d="M9.25027174,11.1698113 C10.0863052,11.1698113 10.76403,11.8456001 10.76403,12.6792453 C10.76403,13.5128905 10.0863052,14.1886792 9.25027174,14.1886792 C8.41423831,14.1886792 7.73651352,13.5128905 7.73651352,12.6792453 C7.73651352,12.5475168 7.75507385,12.4206874 7.78673558,12.299029 C7.91065303,12.3719696 8.05449555,12.4144275 8.20843706,12.4144275 C8.66753215,12.4144275 9.03955747,12.0434649 9.03955747,11.5859535 C9.03955747,11.4468766 9.00462039,11.3159646 8.94402639,11.2008383 C9.04283282,11.1804258 9.14518755,11.1698113 9.25027174,11.1698113 Z M22.571344,11.1698113 C23.4073775,11.1698113 24.0851024,11.8456001 24.0851024,12.6792453 C24.0851024,13.5128905 23.4073775,14.1886792 22.571344,14.1886792 C21.7353106,14.1886792 21.0575858,13.5128905 21.0575858,12.6792453 C21.0575858,12.5475168 21.0761463,12.4206874 21.1078079,12.299029 C21.2317254,12.3719696 21.3755679,12.4144275 21.5295094,12.4144275 C21.9886045,12.4144275 22.3606299,12.0434649 22.3606299,11.5859535 C22.3606299,11.4468766 22.3259657,11.3159646 22.2650988,11.2008383 C22.3639052,11.1804258 22.4662599,11.1698113 22.571344,11.1698113 Z M18.3328211,16.6558202 C18.3328211,16.6626846 18.3311681,16.6689996 18.3308925,16.6755895 C18.3416369,16.9685577 18.2435608,17.4814581 17.5812711,18.0072635 C16.9740803,18.4894119 16.4999537,18.6687072 16.2137145,18.7370758 L16.2137145,23.8336805 C16.113159,23.8399958 16.0128788,23.8490566 15.9106702,23.8490566 C15.8084615,23.8490566 15.7084569,23.8399958 15.6079014,23.8336805 L15.6079014,18.7370758 C15.3216621,18.6689819 14.8475355,18.4896863 14.2397938,18.0072635 C13.5747492,17.4792616 13.4786015,16.9644392 13.4904477,16.6720199 C13.4901722,16.6665286 13.4887948,16.6613117 13.4887948,16.6558202 C13.4887948,16.594316 13.5000901,16.5361068 13.5160688,16.4798196 C13.5246091,16.4463219 13.531772,16.426278 13.531772,16.426278 L13.5325984,16.426278 C13.5973397,16.2565926 13.7298528,16.1209541 13.8987311,16.0534093 C14.1783584,15.8930593 14.7538672,15.7016826 15.9109457,15.6986623 L15.9109457,15.6981132 C15.9156291,15.6981132 15.9197615,15.6983878 15.9247205,15.6983878 C15.9294039,15.6983878 15.9335363,15.6981132 15.9384951,15.6981132 L15.9384951,15.6986623 C17.9272927,15.7038792 18.20141,16.2675755 18.20141,16.2675755 L18.2011345,16.2681246 C18.2374999,16.3161747 18.2669778,16.3691671 18.2890173,16.426278 L18.2895684,16.426278 C18.2895684,16.426278 18.2956293,16.4433016 18.3030676,16.4721316 C18.3206993,16.5308899 18.3328211,16.5915704 18.3328211,16.6558202 Z" id="Combined-Shape"></path>
                            <path d="M2.43835974,31.0943396 C2.43835974,31.0943396 2.19462174,30.7712204 1.92640234,30.2246358 C1.65656879,29.6805217 1.38269983,28.9115695 1.20783262,28.120655 C1.03027514,27.330015 0.9455318,26.523178 0.928314106,25.9172952 C0.912979597,25.3105889 0.950105251,24.9056604 0.950105251,24.9056604 C0.950105251,24.9056604 0.979429137,25.0036668 1.01951408,25.1752466 C1.05852292,25.346552 1.11448043,25.5911562 1.181199,25.8849008 C1.30979365,26.4710177 1.46421485,27.2493038 1.64015818,28.0199032 C1.80776167,28.7924244 2.00226782,29.5569841 2.16287662,30.1310217 C2.24439164,30.4192759 2.31245534,30.6592131 2.36007303,30.8272241 C2.41334028,30.9957841 2.43835974,31.0943396 2.43835974,31.0943396" id="Fill-13"></path>
                            <path d="M25.5988606,26.264151 C25.5988606,26.264151 25.5918397,26.5334217 25.5485914,26.9241496 C25.5028154,27.3146059 25.4135102,27.8248889 25.3065125,28.3302811 C25.1953023,28.8348581 25.0683654,29.3359029 24.9537852,29.7119581 C24.9007076,29.9005292 24.8369584,30.0559508 24.8046624,30.1668111 C24.7670308,30.2768562 24.7392282,30.3396226 24.7392282,30.3396226 C24.7392282,30.3396226 24.6940139,30.0736125 24.6906439,29.6758199 C24.688959,29.2788425 24.742879,28.7530716 24.8535275,28.2387128 C24.9655803,27.7246256 25.1326764,27.223581 25.2924708,26.8589377 C25.4547928,26.4945663 25.5988606,26.264151 25.5988606,26.264151" id="Fill-14"></path>
                            <path d="M4.55762125,6.64565832 C4.55762125,6.64565832 4.28024168,6.75326823 3.91883241,6.97345463 C3.7366321,7.08023675 3.5337643,7.21461117 3.33089649,7.37326678 C3.12639704,7.52971502 2.92543283,7.71568699 2.74051312,7.91600696 C2.54988264,8.11246399 2.39025341,8.33513371 2.23715077,8.54566281 C2.09954874,8.76612514 1.96602583,8.97306724 1.86894298,9.16428177 C1.7596228,9.34942596 1.68320744,9.51442781 1.62718765,9.63031539 C1.56953621,9.7453752 1.5301048,9.81132075 1.5301048,9.81132075 C1.5301048,9.81132075 1.53064868,9.7368216 1.54315797,9.60658603 C1.5627377,9.47883377 1.56192188,9.28458411 1.62909124,9.06881247 C1.676137,8.84559092 1.77457955,8.59836406 1.89831259,8.33954847 C2.03237939,8.08597541 2.2072373,7.8318505 2.41418421,7.60421417 C2.83542043,7.15308038 3.38419688,6.8448746 3.82038986,6.73340178 C4.25712671,6.61254759 4.55762125,6.64565832 4.55762125,6.64565832" id="Fill-15"></path>
                        </g>
                        <g id="Group" transform="translate(41.935773, 10.487230)">
                            <path d="M29.3655617,15.9101775 C30.1862172,15.077002 30.596545,14.0028154 30.596545,12.6904625 C30.596545,11.3959924 30.181366,10.328715 29.3518168,9.48415958 C28.5214589,8.64041704 27.5196932,8.21813935 26.3444983,8.21813935 C25.1697077,8.21813935 24.1715804,8.64041704 23.3509248,9.48415958 C22.5302693,10.328715 22.1203459,11.3959924 22.1203459,12.6904625 C22.1203459,14.0028154 22.5302693,15.077002 23.3509248,15.9101775 C24.1715804,16.7457914 25.1697077,17.1623792 26.3444983,17.1623792 C27.5374808,17.1623792 28.5449062,16.7457914 29.3655617,15.9101775 Z M26.3444983,5.1813165 C28.5449062,5.1813165 30.4008813,5.88931241 31.9116151,7.30408493 C33.4219447,8.72007674 34.1771095,10.515265 34.1771095,12.6904625 C34.1771095,14.8656599 33.4263916,16.6604419 31.9253601,18.0764337 C30.4239244,19.4924255 28.5639066,20.2004213 26.3444983,20.2004213 C24.143282,20.2004213 22.2925623,19.4924255 20.7915308,18.0764337 C19.2896908,16.6604419 18.5393771,14.8656599 18.5393771,12.6904625 C18.5393771,10.515265 19.2896908,8.72007674 20.7915308,7.30408493 C22.2925623,5.88931241 24.143282,5.1813165 26.3444983,5.1813165 Z M56.0622589,10.8339038 L62.244261,10.8339038 C62.2256648,9.99056767 61.9596592,9.29720314 61.4474569,8.75340375 C60.934042,8.20919795 60.3046032,7.93729826 59.5587365,7.93729826 C58.644696,7.93729826 57.8842759,8.19537943 57.2786887,8.71113535 C56.6722929,9.22689126 56.2672207,9.93488716 56.0622589,10.8339038 Z M59.5587365,5.1813165 C61.5355865,5.1813165 63.0839168,5.82347123 64.2017062,7.10737425 C65.3227298,8.39249655 65.8818266,10.0190176 65.8818266,11.9869373 L65.7981439,13.3094509 L55.9502778,13.3094509 C56.0804508,14.528732 56.5469711,15.4744877 57.3490305,16.1491567 C58.1502814,16.8242319 59.1112165,17.1623792 60.2302187,17.1623792 C60.9017008,17.1623792 61.5731831,17.027039 62.244261,16.7547329 C62.9157431,16.4828332 63.4093492,16.2154043 63.726292,15.9524459 L64.2312175,15.5586181 L65.7120357,18.0341652 C65.6578644,18.0902522 65.5741819,18.1707247 65.460988,18.2731443 C65.3498154,18.3767832 65.1032145,18.5499211 64.7203766,18.793371 C64.3375389,19.0368207 63.9413604,19.2534464 63.5314369,19.4399964 C63.1207048,19.6277656 62.5943534,19.8017164 61.9507654,19.9602229 C61.3075817,20.1195423 60.6498445,20.2004213 59.9783623,20.2004213 C57.6845695,20.2004213 55.8334456,19.4729169 54.425799,18.0207531 C53.0173439,16.5669637 52.3131163,14.790471 52.3131163,12.6904625 C52.3131163,10.4786865 52.9845986,8.67374405 54.3275629,7.27685432 C55.6705272,5.88037101 57.4141171,5.1813165 59.5587365,5.1813165 Z M94.0321714,15.9947143 C94.7218454,15.1977108 95.0670866,14.1153957 95.0670866,12.7473623 C95.0670866,11.3959924 94.7412501,10.3092065 94.0879598,9.48415958 C93.4346695,8.65992555 92.5776302,8.24658923 91.5144163,8.24658923 C90.506991,8.24658923 89.6588456,8.62700495 88.9683631,9.38621067 C88.2786889,10.1454164 87.9334477,11.27569 87.9334477,12.7745929 C87.9334477,13.9751784 88.2414966,15.0111608 88.8571904,15.8829469 C89.4720757,16.7547329 90.3392216,17.190829 91.4590323,17.190829 C92.4834368,17.190829 93.3416887,16.7925305 94.0321714,15.9947143 Z M92.2978796,5.1813165 C94.2181328,5.1813165 95.7567607,5.87468104 96.9137638,7.26222295 C98.0695539,8.64976486 98.6480554,10.4595845 98.6480554,12.6904625 C98.6480554,14.9404426 98.0323617,16.7547329 96.8017826,18.1321141 C95.5707993,19.5103083 94.0038729,20.2004213 92.102216,20.2004213 C91.2629642,20.2004213 90.5021398,20.0398826 89.8217638,19.7212438 C89.1401751,19.4034178 88.6704205,19.0937205 88.4088619,18.793371 L88.0171302,18.3154128 L87.9617462,18.3154128 C87.9989384,18.6523407 88.0171302,19.0656771 88.0171302,19.5525767 L88.0171302,25.4872243 L84.4927584,25.4872243 L84.4927584,9.17446217 C84.4927584,8.76234516 84.2865839,8.55628665 83.8770647,8.55628665 L81.4155025,8.55628665 C81.0055789,8.55628665 80.7351263,8.72495386 80.6049535,9.06269474 L75.4853566,22.0281237 C74.9998359,23.2652877 74.3000553,24.1976313 73.3876319,24.8259674 C72.4727829,25.4543037 71.4572722,25.7684717 70.3374614,25.7684717 C69.6659793,25.7684717 69.0320936,25.6465437 68.4354002,25.4030938 C67.8387069,25.1584249 67.4097831,24.914975 67.1482242,24.6711187 L66.7294071,24.3057408 L68.0990528,21.7745132 C68.6775542,22.4312993 69.3579302,22.7588795 70.1413935,22.7588795 C71.2046072,22.7588795 71.9880705,22.1500519 72.4917832,20.9311771 L72.9676017,19.8338241 L66.6432989,5.51824452 L69.3862287,5.51824452 C69.8903457,5.51824452 70.2820772,5.62188341 70.5614236,5.82794192 C70.8411741,6.03400044 71.0744344,6.38108913 71.2612042,6.86839514 L74.6186151,15.3741002 L77.4472489,7.10493568 L77.5276974,6.86839514 C77.8256398,5.96937853 78.4595254,5.51824452 79.4297586,5.51824452 L85.9194054,5.51824452 C87.1127922,5.51824452 87.7090813,5.97831993 87.7090813,6.89684504 L87.7090813,7.45893364 L87.7656781,7.45893364 C87.8032747,7.40325313 87.854212,7.32359343 87.9197028,7.21995453 C87.9843848,7.11753492 88.1473032,6.93423632 88.4088619,6.67127804 C88.6704205,6.40953902 88.954618,6.17990774 89.2626671,5.98279064 C89.5703117,5.78607993 89.9984271,5.60278135 90.5486302,5.43411413 C91.0988332,5.26585334 91.6821859,5.1813165 92.2978796,5.1813165 Z M111.115471,15.9101775 C111.936531,15.077002 112.346454,14.0028154 112.346454,12.6904625 C112.346454,11.3959924 111.932083,10.328715 111.10213,9.48415958 C110.272176,8.64041704 109.269198,8.21813935 108.095216,8.21813935 C106.920021,8.21813935 105.921489,8.64041704 105.101642,9.48415958 C104.280987,10.328715 103.869851,11.3959924 103.869851,12.6904625 C103.869851,14.0028154 104.280987,15.077002 105.101642,15.9101775 C105.921489,16.7457914 106.920021,17.1623792 108.095216,17.1623792 C109.288198,17.1623792 110.294815,16.7457914 111.115471,15.9101775 Z M108.095216,5.1813165 C110.294815,5.1813165 112.150386,5.88931241 113.661928,7.30408493 C115.172258,8.72007674 115.927423,10.515265 115.927423,12.6904625 C115.927423,14.8656599 115.176705,16.6604419 113.675673,18.0764337 C112.174238,19.4924255 110.31422,20.2004213 108.095216,20.2004213 C105.893999,20.2004213 104.04328,19.4924255 102.541844,18.0764337 C101.040408,16.6604419 100.290095,14.8656599 100.290095,12.6904625 C100.290095,10.515265 101.040408,8.72007674 102.541844,7.30408493 C104.04328,5.88931241 105.893999,5.1813165 108.095216,5.1813165 Z M125.130247,16.8526819 L125.773026,16.7970013 L125.773026,19.9179546 C125.475488,19.9748543 125.110842,20.0033043 124.682727,20.0033043 C124.197206,20.0033043 123.731898,19.9703837 123.28357,19.9041361 C122.836454,19.8395141 122.323443,19.6936068 121.744942,19.4684462 C121.16644,19.2428792 120.668387,18.9482196 120.248357,18.5828417 C119.829136,18.2174638 119.473788,17.6927665 119.185143,17.0075305 C118.896499,16.3235138 118.751368,15.5220396 118.751368,14.6027017 L118.751368,8.35957596 L116.905096,8.35957596 L116.905096,5.51824452 L118.835455,5.51824452 L118.835455,1.60963568 L122.304039,1.60963568 L122.304039,5.51824452 L125.550277,5.51824452 L125.550277,8.35957596 L122.304039,8.35957596 L122.304039,14.152787 C122.304039,15.1842987 122.598747,15.8922947 123.186142,16.2767747 C123.773942,16.6604419 124.421168,16.8526819 125.130247,16.8526819 Z M12.4210053,1.9134585 C12.4210053,0.63849688 13.0548909,0 14.3234707,0 L16.0856566,0 L16.0856566,19.9689798 L12.4210053,19.9689798 L12.4210053,11.5880478 L3.66465135,11.5880478 L3.66465135,19.9689798 L0,19.9689798 L0,0 L1.76259017,0 C2.43407235,0 2.91878465,0.154848702 3.21753559,0.464546107 C3.51547801,0.774243511 3.66465135,1.25667241 3.66465135,1.9134585 L3.66465135,8.46628167 L12.4210053,8.46628167 L12.4210053,1.9134585 Z M44.9470234,5.1813165 C48.2664334,5.1813165 49.9267448,7.00048393 49.9267448,10.6367867 L49.9267448,19.862274 L48.2761357,19.862274 C47.6046536,19.862274 47.1195371,19.7118961 46.8211904,19.4127658 C46.5228436,19.1120098 46.3740745,18.6251101 46.3740745,17.9500349 L46.3740745,11.3687618 C46.3740745,10.4128454 46.2103477,9.68534096 45.8841068,9.18909355 C45.5578659,8.69284613 44.9753219,8.44370635 44.1356659,8.44370635 C43.202625,8.44370635 42.3965231,8.71113535 41.7157428,9.24477405 C41.0345583,9.78003846 40.5643995,10.4880344 40.303245,11.3687618 C40.1164751,11.9312568 40.0234945,12.5685344 40.0234945,13.281001 L40.0234945,19.862274 L36.4987184,19.862274 L36.4987184,5.51824452 L38.0373465,5.51824452 C39.2865216,5.51824452 39.9115135,6.05350893 39.9115135,7.12200562 L39.9115135,7.54347046 L39.855725,8.16245884 L39.9115135,8.16245884 C40.303245,7.37480323 40.9185345,6.68184514 41.757382,6.08073955 C42.5970378,5.48085323 43.6602517,5.1813165 44.9470234,5.1813165 Z" id="Combined-Shape"></path>
                        </g>
                    </g>
                </g>
            </g>
        </g>
    </g>
</svg>