<svg clip-rule="evenodd" fill-rule="evenodd" stroke-linejoin="round" stroke-miterlimit="1.41421" viewBox="0 0 1125 268" xmlns="http://www.w3.org/2000/svg"><path d="m213.799 152.12c.097 2.148.201 4.295.201 6.467 0 16.538-2.829 32.412-7.991 47.187-1.468 3.893-3.666 8.979-6.252 12.662-1.658 2.209-3.817 4.71-6.668 7.207-2.12 1.84-4.573 3.679-7.366 5.218-2.762 1.529-5.982 2.766-9.159 3.175-3.326.478-6.836-.093-9.516-1.975-2.731-1.836-4.684-5.048-5.814-8.679-2.254-7.357-2.004-15.693-1.314-23.233.756-7.601 2.132-14.665 3.497-20.667 2.775-12.013 5.496-19.814 5.496-19.814s-3.251 7.584-6.868 19.449c-1.789 5.935-3.669 12.943-4.976 20.652-1.211 7.695-2.184 16.17-.214 24.835 1.011 4.256 3.12 8.745 6.96 11.779 3.844 3.086 8.651 4.039 12.966 4.145 4.543.031 8.577-1.006 12.235-2.4.415-.161.769-.369 1.172-.539-6.301 9.496-13.738 18.15-22.054 25.874-4.364 3.129-12.98 6.867-25.061.588-17.981-9.344-35.961-10.382-35.961-10.382s-17.982 1.038-35.963 10.382c-10.312 5.36-18.097 3.416-22.876.787-8.957-8.082-16.923-17.236-23.613-27.333.434.183.814.405 1.26.577 3.658 1.394 7.692 2.432 12.235 2.401 4.315-.104 9.121-1.06 12.966-4.145 3.84-3.033 5.948-7.523 6.96-11.78 1.969-8.663.995-17.139-.214-24.834-1.307-7.708-3.187-14.717-4.976-20.653-3.618-11.863-6.869-19.447-6.869-19.447s2.722 7.801 5.497 19.813c1.365 6.003 2.741 13.065 3.497 20.667.69 7.539.94 15.875-1.314 23.234-1.13 3.63-3.083 6.843-5.814 8.677-2.68 1.882-6.188 2.454-9.516 1.977-3.178-.411-6.398-1.646-9.159-3.177-2.793-1.536-5.247-3.376-7.366-5.217-2.099-1.838-3.844-3.693-5.282-5.423-.048-.056-.095-.12-.143-.177-.405-.491-.739-.946-1.093-1.414-3.244-4.55-5.893-11.366-7.269-15.323-4.618-14.062-7.155-29.067-7.155-44.674 0-2.172.104-4.321.199-6.469 1.256-18.059 5.421-35.299 11.985-51.311 1.738-4.238 3.583-8.42 5.651-12.475-7.319-4.348-12.241-12.313-12.241-21.449 0-13.779 11.163-24.95 24.93-24.95h152.067c13.769 0 24.929 11.171 24.929 24.95 0 9.143-4.928 17.113-12.257 21.458 2.068 4.057 3.915 8.241 5.653 12.481 6.561 16.008 10.724 33.243 11.978 51.298zm-155.989-116.255c11.902-8.313 25.881-13.777 41.025-15.286l-6.085-16.831s3.874-3.279 14.757-3.279 14.757 3.279 14.757 3.279l-6.085 16.831c15.144 1.511 29.123 6.973 41.025 15.286z" fill="#ffc600"/><path d="m85.194 84.914c0 12.567-10.215 22.755-22.819 22.755-12.603 0-22.82-10.188-22.82-22.755s10.217-22.754 22.82-22.754c12.604 0 22.819 10.187 22.819 22.754zm90.266 0c0 12.567-10.216 22.755-22.819 22.755-12.604 0-22.821-10.188-22.821-22.755s10.217-22.754 22.821-22.754c12.603 0 22.819 10.187 22.819 22.754zm-37.526 44.498c0 17.035-13.849 30.846-30.933 30.846-17.086 0-30.935-13.811-30.935-30.846 0-17.036 13.849-30.845 30.935-30.845 17.084 0 30.933 13.809 30.933 30.845z" fill="#fffffe"/><path d="m31.715 54.069c2.988 0 5.694 1.11 7.84 2.886-5.286 6.4-10.093 13.215-14.4 20.374-3.522-2.224-5.885-6.153-5.885-10.665 0-6.956 5.571-12.595 12.445-12.595zm151.591 0c6.869 0 12.438 5.636 12.438 12.59 0 4.518-2.369 8.449-5.898 10.67-4.304-7.156-9.106-13.966-14.386-20.364 2.145-1.782 4.854-2.896 7.846-2.896zm-120.424 21.238c5.601 0 10.142 4.528 10.142 10.113s-4.541 10.113-10.142 10.113c-5.602 0-10.143-4.528-10.143-10.113 0-.883.125-1.732.337-2.547.83.488 1.794.773 2.825.773 3.076 0 5.569-2.486 5.569-5.551 0-.932-.234-1.809-.64-2.58.662-.137 1.347-.208 2.052-.208zm89.251 0c5.601 0 10.142 4.528 10.142 10.113s-4.541 10.113-10.142 10.113c-5.602 0-10.142-4.528-10.142-10.113 0-.883.124-1.732.336-2.547.83.488 1.794.773 2.825.773 3.076 0 5.569-2.486 5.569-5.551 0-.932-.232-1.809-.64-2.58.662-.137 1.348-.208 2.052-.208zm-28.398 36.756c0 .046-.011.088-.013.133.072 1.962-.585 5.399-5.023 8.922-4.068 3.23-7.245 4.431-9.162 4.889v34.148c-.674.042-1.346.103-2.031.103s-1.355-.061-2.028-.103v-34.148c-1.918-.456-5.095-1.657-9.167-4.889-4.455-3.538-5.1-6.987-5.02-8.946-.002-.037-.011-.072-.011-.109 0-.412.075-.802.182-1.179.058-.225.106-.359.106-.359h.005c.434-1.137 1.322-2.046 2.453-2.498 1.874-1.074 5.73-2.357 13.482-2.377v-.004c.031 0 .059.002.092.002.032 0 .059-.002.093-.002v.004c13.325.035 15.161 3.812 15.161 3.812l-.002.003c.244.322.441.677.589 1.06h.004s.04.114.09.307c.118.394.2.801.2 1.231z" fill="#171717"/><g fill="#fffffe"><path d="m17.242 208.801s-1.633-2.165-3.43-5.827c-1.808-3.645-3.643-8.797-4.815-14.097-1.189-5.297-1.757-10.703-1.873-14.762-.102-4.065.146-6.778.146-6.778s.197.657.465 1.806c.262 1.148.637 2.787 1.084 4.755.861 3.927 1.896 9.141 3.075 14.304 1.123 5.176 2.426 10.299 3.502 14.145.546 1.931 1.002 3.539 1.321 4.664.357 1.13.525 1.79.525 1.79"/><path d="m172.417 176.439s-.047 1.804-.337 4.422c-.306 2.616-.905 6.035-1.622 9.421-.745 3.381-1.595 6.738-2.363 9.257-.356 1.264-.783 2.305-.999 3.048-.252.737-.438 1.158-.438 1.158s-.303-1.783-.326-4.448c-.011-2.66.35-6.182 1.091-9.629.751-3.444 1.871-6.801 2.941-9.244 1.088-2.441 2.053-3.985 2.053-3.985"/><path d="m31.441 44.995s-1.859.721-4.28 2.196c-1.221.716-2.58 1.616-3.939 2.679-1.37 1.048-2.717 2.294-3.956 3.636-1.277 1.317-2.347 2.808-3.372 4.219-.922 1.477-1.817 2.864-2.467 4.145-.733 1.24-1.245 2.346-1.62 3.122-.386.771-.651 1.213-.651 1.213s.004-.499.088-1.372c.131-.856.126-2.157.576-3.603.315-1.495.974-3.152 1.803-4.886.899-1.699 2.07-3.402 3.457-4.927 2.822-3.022 6.499-5.087 9.421-5.834 2.926-.81 4.94-.588 4.94-.588"/></g><path d="m478.624 177.332c5.498-5.583 8.247-12.78 8.247-21.572 0-8.673-2.781-15.824-8.339-21.483-5.564-5.653-12.276-8.482-20.149-8.482-7.872 0-14.559 2.829-20.057 8.482-5.499 5.659-8.245 12.81-8.245 21.483 0 8.792 2.746 15.989 8.245 21.572 5.498 5.598 12.185 8.389 20.057 8.389 7.992 0 14.742-2.791 20.241-8.389zm-20.241-71.884c14.742 0 27.177 4.744 37.299 14.223 10.119 9.487 15.179 21.515 15.179 36.089 0 14.573-5.03 26.598-15.087 36.086-10.059 9.487-22.521 14.23-37.391 14.23-14.749 0-27.148-4.743-37.205-14.23-10.063-9.488-15.09-21.513-15.09-36.086 0-14.574 5.027-26.602 15.09-36.089 10.057-9.479 22.456-14.223 37.205-14.223zm199.109 37.873h41.419c-.125-5.651-1.907-10.296-5.339-13.94-3.44-3.646-7.657-5.468-12.654-5.468-6.124 0-11.219 1.73-15.276 5.185-4.063 3.456-6.777 8.199-8.15 14.223zm23.426-37.873c13.245 0 23.619 4.303 31.108 12.905 7.511 8.61 11.257 19.508 11.257 32.693l-.561 8.861h-65.981c.872 8.169 3.998 14.506 9.372 19.026 5.368 4.523 11.807 6.788 19.304 6.788 4.499 0 8.998-.906 13.494-2.731 4.499-1.822 7.806-3.613 9.93-5.375l3.383-2.639 9.921 16.586c-.363.376-.924.915-1.682 1.602-.745.694-2.397 1.854-4.962 3.485s-5.22 3.083-7.966 4.332c-2.752 1.259-6.278 2.424-10.59 3.486-4.31 1.067-8.717 1.609-13.216 1.609-15.368 0-27.771-4.874-37.202-14.603-9.436-9.741-14.155-21.643-14.155-35.713 0-14.819 4.499-26.912 13.497-36.272 8.998-9.356 20.68-14.04 35.049-14.04zm230.972 72.45c4.621-5.34 6.934-12.591 6.934-21.757 0-9.054-2.183-16.336-6.56-21.864-4.377-5.522-10.12-8.291-17.243-8.291-6.75 0-12.432 2.548-17.059 7.635-4.62 5.087-6.934 12.66-6.934 22.702 0 8.044 2.064 14.985 6.19 20.826 4.119 5.841 9.929 8.763 17.432 8.763 6.863 0 12.614-2.669 17.24-8.014zm-11.62-72.45c12.866 0 23.175 4.646 30.927 13.942 7.743 9.297 11.619 21.423 11.619 36.37 0 15.074-4.125 27.23-12.37 36.459-8.247 9.234-18.746 13.857-31.487 13.857-5.623 0-10.72-1.075-15.279-3.21-4.566-2.13-7.714-4.205-9.466-6.217l-2.625-3.202h-.371c.249 2.257.371 5.027.371 8.289v39.762h-23.613v-109.296c0-2.761-1.382-4.141-4.125-4.141h-16.493c-2.746 0-4.558 1.13-5.43 3.393l-34.302 86.868c-3.253 8.289-7.941 14.536-14.054 18.745-6.13 4.21-12.934 6.315-20.437 6.315-4.499 0-8.746-.817-12.743-2.448-3.998-1.639-6.872-3.27-8.625-4.904l-2.806-2.448 9.177-16.959c3.876 4.4 8.435 6.595 13.684 6.595 7.123 0 12.372-4.079 15.747-12.246l3.188-7.352-42.373-95.914h18.378c3.378 0 6.002.694 7.874 2.075 1.874 1.38 3.437 3.706 4.688 6.971l22.495 56.988 18.952-55.403.539-1.585c1.996-6.024 6.243-9.046 12.744-9.046h43.48c7.996 0 11.991 3.082 11.991 9.236v3.766h.379c.252-.373.594-.906 1.032-1.601.434-.686 1.525-1.914 3.278-3.676 1.752-1.754 3.656-3.292 5.72-4.613 2.061-1.318 4.93-2.546 8.616-3.676 3.687-1.127 7.595-1.694 11.72-1.694zm126.078 71.884c5.501-5.583 8.248-12.78 8.248-21.572 0-8.673-2.777-15.824-8.337-21.483-5.561-5.653-12.281-8.482-20.147-8.482-7.873 0-14.564 2.829-20.057 8.482-5.498 5.659-8.253 12.81-8.253 21.483 0 8.792 2.755 15.989 8.253 21.572 5.493 5.598 12.184 8.389 20.057 8.389 7.993 0 14.738-2.791 20.236-8.389zm-20.236-71.884c14.738 0 27.17 4.744 37.297 14.223 10.12 9.487 15.179 21.515 15.179 36.089 0 14.573-5.03 26.598-15.087 36.086-10.059 9.487-22.521 14.23-37.389 14.23-14.748 0-27.148-4.743-37.207-14.23-10.06-9.488-15.087-21.513-15.087-36.086 0-14.574 5.027-26.602 15.087-36.089 10.059-9.479 22.459-14.223 37.207-14.223zm114.135 78.198 4.307-.373v20.911c-1.994.381-4.437.572-7.305.572-3.253 0-6.371-.221-9.375-.665-2.995-.433-6.433-1.41-10.309-2.919-3.875-1.511-7.212-3.485-10.027-5.933-2.808-2.448-5.189-5.964-7.123-10.555-1.934-4.583-2.906-9.953-2.906-16.112v-41.829h-12.37v-19.037h12.933v-26.188h23.239v26.188h21.75v19.037h-21.75v38.814c0 6.911 1.975 11.655 5.911 14.231 3.938 2.57 8.274 3.858 13.025 3.858zm-755.152-100.092c0-8.543 4.247-12.821 12.747-12.821h11.806v133.793h-24.553v-56.153h-58.667v56.153h-24.554v-133.793h11.81c4.499 0 7.746 1.038 9.748 3.113 1.996 2.075 2.996 5.307 2.996 9.708v43.904h58.667zm217.924 21.894c22.24 0 33.365 12.189 33.365 36.552v61.811h-11.06c-4.498 0-7.749-1.008-9.748-3.012-1.999-2.015-2.995-5.277-2.995-9.8v-44.095c0-6.404-1.097-11.279-3.283-14.604-2.186-3.324-6.089-4.994-11.715-4.994-6.251 0-11.652 1.792-16.213 5.367-4.564 3.587-7.714 8.33-9.464 14.231-1.251 3.769-1.874 8.039-1.874 12.812v44.095h-23.616v-96.105h10.309c8.369 0 12.557 3.586 12.557 10.745v2.824l-.374 4.147h.374c2.624-5.277 6.747-9.92 12.367-13.948 5.626-4.019 12.749-6.026 21.37-6.026z" fill="#fff"/></svg>