<?xml version="1.0" encoding="UTF-8"?>
<svg width="168px" height="40px" viewBox="0 0 168 40" version="1.1" xmlns="http://www.w3.org/2000/svg" xmlns:xlink="http://www.w3.org/1999/xlink">
    <title>EDE8BF78-2554-49DC-ACF0-F0072216F6D5@1x</title>
    <g id="Symbols" stroke="none" stroke-width="1" fill="none" fill-rule="evenodd">
        <g id="2021-/-sponsor-grid" transform="translate(-809.000000, -1.000000)" fill="#555555" fill-rule="nonzero">
            <g id="sponsors" transform="translate(0.000000, 1.000000)">
                <g id="row-1" transform="translate(112.000000, 0.000000)">
                    <g id="Honeypot" transform="translate(697.000000, 0.000000)">
                        <g id="Group-4">
                            <path d="M27.3875034,6.25868737 C29.442541,6.25868737 31.1082576,7.92602984 31.1082576,9.98246433 C31.1082576,11.3471494 30.3726615,12.5367839 29.2788027,13.1851797 C29.5874807,13.7907672 29.863193,14.4151686 30.1225588,15.0480225 C31.101719,17.4373801 31.7231615,20.0096955 31.9103299,22.7044373 C31.9247693,23.0250906 31.9402985,23.3454712 31.9402985,23.6696691 C31.9402985,26.1380994 31.5180118,28.5072799 30.747543,30.7125891 C30.5284988,31.2936369 30.2004775,32.0527343 29.8144257,32.6024257 C29.5670475,32.9320769 29.2447473,33.3053543 28.8191913,33.6780866 C28.5028851,33.9526596 28.1367216,34.2272325 27.7198839,34.4568158 C27.3076776,34.685036 26.8270881,34.8696297 26.3527648,34.9307066 C25.8563737,35.0021446 25.3324658,34.9168006 24.9325194,34.6359563 C24.5249446,34.3619287 24.2334307,33.8825848 24.0647885,33.3405281 C23.7283213,32.2425087 23.765646,30.9983413 23.8686296,29.8730555 C23.9814209,28.7384993 24.186843,27.6841063 24.3906303,26.7884039 C24.7687339,25.1512797 25.1402509,24.0383237 25.2020035,23.8571451 L25.2030292,23.8500081 C25.1261559,24.0327591 24.6787803,25.1169122 24.1857531,26.733871 C23.918759,27.6197575 23.6381427,28.6656979 23.4430736,29.8163413 C23.2624437,30.9648036 23.1172316,32.2296934 23.4111976,33.5229404 C23.562131,34.1582484 23.8768028,34.8281848 24.4500228,35.2810801 C25.0237879,35.7416103 25.7411303,35.883941 26.3851855,35.8997555 C27.0632963,35.9043909 27.6653952,35.7495175 28.211371,35.5414746 C28.2732157,35.5174801 28.3260696,35.4863964 28.3862794,35.4610387 C27.4458063,36.8783479 26.3358734,38.169959 25.094623,39.3227837 C24.4432118,39.7898578 23.1572807,40.347729 21.354253,39.4105816 C18.7517452,38.0581666 16.1494938,37.8715549 15.9941714,37.861487 C15.9868533,37.8610301 13.3030172,38.0159036 10.6191811,39.4105816 C9.08015054,40.2105788 7.9181811,39.920464 7.20492531,39.5281 C5.86804748,38.321833 4.67910618,36.9555119 3.68060255,35.4484961 C3.74544399,35.4757625 3.80211213,35.5090276 3.86858824,35.5346581 C4.41456401,35.7427009 5.01666307,35.8975743 5.69477372,35.892939 C6.33882899,35.8773972 7.05617143,35.7347936 7.6299364,35.2742636 C8.20315649,34.8216407 8.51782818,34.1514318 8.6687616,33.5161239 C8.96272761,32.2231496 8.81724304,30.957987 8.63688576,29.8095248 C8.44181657,28.6591539 8.16120027,27.6129409 7.89420612,26.7270543 C7.40117905,25.1103445 6.95380342,24.026213 6.87972696,23.849893 L6.87102924,23.8310081 L6.87795584,23.8506009 C6.88089645,23.8592284 6.88453946,23.8699687 6.88885215,23.8827777 L6.92250253,23.9841055 C7.04599062,24.3604515 7.36524026,25.3785513 7.68932899,26.7815873 C7.89311636,27.6775622 8.09853839,28.7316827 8.21132979,29.866239 C8.31431324,30.9915248 8.35163794,32.2356921 8.01517082,33.333984 C7.8465286,33.8757682 7.55501458,34.3553848 7.14743984,34.6291397 C6.74749351,34.909984 6.22385804,34.9953279 5.72719443,34.9241625 C5.25287116,34.8628131 4.77228169,34.6784919 4.36007542,34.4499993 C3.94323761,34.2206885 3.57707421,33.9461155 3.26076788,33.6712699 C2.94745842,33.3969696 2.68700291,33.1202152 2.47231781,32.8620021 C2.4652343,32.8535496 2.45815078,32.8440063 2.45106725,32.8355537 C2.39058491,32.762207 2.34072784,32.6943136 2.2878739,32.6245115 C1.80374267,31.9453046 1.40842786,30.9279939 1.20300584,30.337403 C0.513725024,28.2387055 0.135029242,25.9990406 0.135029242,23.6696691 C0.135029242,23.3454712 0.150558494,23.0248179 0.16472553,22.7041646 C0.352166319,20.0088776 0.973881266,17.4357442 1.95358633,15.0458412 C2.21295207,14.4132599 2.48839196,13.7891312 2.79706988,13.1838164 C1.70457342,12.5348753 0.970067063,11.3460587 0.970067063,9.98246433 C0.970067063,7.92602984 2.63605606,6.25868737 4.69082124,6.25868737 L27.3875034,6.25868737 Z M15.9702855,14.7115176 C13.4201865,14.7115176 11.3531867,16.7725519 11.3531867,19.3152912 C11.3531867,21.8577588 13.4201865,23.9190648 15.9702855,23.9190648 C18.5201121,23.9190648 20.5871118,21.8577588 20.5871118,19.3152912 C20.5871118,16.7725519 18.5201121,14.7115176 15.9702855,14.7115176 Z M9.30974972,9.2775553 C7.42865081,9.2775553 5.90365707,10.7981317 5.90365707,12.6737817 C5.90365707,14.5494317 7.42865081,16.0700081 9.30974972,16.0700081 C11.1908486,16.0700081 12.7155691,14.5494317 12.7155691,12.6737817 C12.7155691,10.7981317 11.1908486,9.2775553 9.30974972,9.2775553 Z M22.7821979,9.2775553 C20.901099,9.2775553 19.3761052,10.7981317 19.3761052,12.6737817 C19.3761052,14.5494317 20.901099,16.0700081 22.7821979,16.0700081 C24.6632969,16.0700081 26.1880173,14.5494317 26.1880173,12.6737817 C26.1880173,10.7981317 24.6632969,9.2775553 22.7821979,9.2775553 Z M4.7335343,8.07000813 C3.70764352,8.07000813 2.87614063,8.91159034 2.87614063,9.94991675 C2.87614063,10.6232923 3.22885836,11.2096833 3.75454604,11.5417062 C4.39735445,10.4731959 5.11471887,9.45599827 5.90365707,8.50081481 C5.58347288,8.23574522 5.17951482,8.07000813 4.7335343,8.07000813 Z M27.3590327,8.07000813 C26.9125187,8.07000813 26.5082718,8.23622833 26.1880173,8.50229036 C26.9761903,9.45709649 27.6928343,10.473618 28.3352401,11.5417062 C28.8619531,11.2100887 29.2155337,10.6233808 29.2155337,9.9491741 C29.2155337,8.91125788 28.3842807,8.07000813 27.3590327,8.07000813 Z M16.0458372,0.0700081297 C17.6702036,0.0700081297 18.2483955,0.559457396 18.2483955,0.559457396 L17.3401185,3.07150404 C19.600496,3.29706433 21.6868731,4.1121697 23.4632524,5.353027 L8.62842187,5.353027 C10.4048012,4.1121697 12.4911783,3.29678858 14.7515559,3.07150404 L13.8432788,0.559457396 C13.8432788,0.559457396 14.4214707,0.0700081297 16.0458372,0.0700081297 Z" id="Combined-Shape"></path>
                            <path d="M9.38530099,11.2398194 C10.2213344,11.2398194 10.8990592,11.9156082 10.8990592,12.7492534 C10.8990592,13.5828986 10.2213344,14.2586874 9.38530099,14.2586874 C8.54926755,14.2586874 7.87154276,13.5828986 7.87154276,12.7492534 C7.87154276,12.617525 7.89010309,12.4906955 7.92176482,12.3690372 C8.04568227,12.4419777 8.18952479,12.4844357 8.3434663,12.4844357 C8.80256139,12.4844357 9.17458672,12.1134731 9.17458672,11.6559616 C9.17458672,11.5168847 9.13964963,11.3859727 9.07905563,11.2708464 C9.17786206,11.2504339 9.28021679,11.2398194 9.38530099,11.2398194 Z M22.7063733,11.2398194 C23.5424067,11.2398194 24.2201316,11.9156082 24.2201316,12.7492534 C24.2201316,13.5828986 23.5424067,14.2586874 22.7063733,14.2586874 C21.8703399,14.2586874 21.1926151,13.5828986 21.1926151,12.7492534 C21.1926151,12.617525 21.2111755,12.4906955 21.2428372,12.3690372 C21.3667546,12.4419777 21.5105972,12.4844357 21.6645387,12.4844357 C22.1236337,12.4844357 22.4956591,12.1134731 22.4956591,11.6559616 C22.4956591,11.5168847 22.4609949,11.3859727 22.4001281,11.2708464 C22.4989345,11.2504339 22.6012891,11.2398194 22.7063733,11.2398194 Z M18.4678503,16.7258284 C18.4678503,16.7326927 18.4661973,16.7390078 18.4659218,16.7455976 C18.4766661,17.0385658 18.37859,17.5514663 17.7163003,18.0772716 C17.1091096,18.55942 16.634983,18.7387154 16.3487437,18.8070839 L16.3487437,23.9036887 C16.2481882,23.9100039 16.1479081,23.9190648 16.0456994,23.9190648 C15.9434907,23.9190648 15.8434861,23.9100039 15.7429306,23.9036887 L15.7429306,18.8070839 C15.4566913,18.73899 14.9825648,18.5596945 14.374823,18.0772716 C13.7097784,17.5492697 13.6136307,17.0344473 13.625477,16.7420281 C13.6252015,16.7365367 13.623824,16.7313199 13.623824,16.7258284 C13.623824,16.6643242 13.6351193,16.6061149 13.651098,16.5498278 C13.6596383,16.51633 13.6668012,16.4962861 13.6668012,16.4962861 L13.6676277,16.4962861 C13.732369,16.3266007 13.864882,16.1909622 14.0337604,16.1234175 C14.3133877,15.9630675 14.8888964,15.7716907 16.0459749,15.7686704 L16.0459749,15.7681213 C16.0506584,15.7681213 16.0547907,15.768396 16.0597497,15.768396 C16.0644331,15.768396 16.0685655,15.7681213 16.0735243,15.7681213 L16.0735243,15.7686704 C18.0623219,15.7738873 18.3364393,16.3375836 18.3364393,16.3375836 L18.3361637,16.3381327 C18.3725291,16.3861828 18.402007,16.4391752 18.4240466,16.4962861 L18.4245976,16.4962861 C18.4245976,16.4962861 18.4306585,16.5133097 18.4380969,16.5421397 C18.4557285,16.6008981 18.4678503,16.6615785 18.4678503,16.7258284 Z" id="Combined-Shape"></path>
                            <path d="M2.57338899,31.1643478 C2.57338899,31.1643478 2.32965099,30.8412285 2.06143158,30.2946439 C1.79159803,29.7505299 1.51772907,28.9815776 1.34286186,28.1906631 C1.16530438,27.4000231 1.08056104,26.5931861 1.06334335,25.9873033 C1.04800884,25.380597 1.08513449,24.9756685 1.08513449,24.9756685 C1.08513449,24.9756685 1.11445838,25.0736749 1.15454332,25.2452548 C1.19355216,25.4165601 1.24950967,25.6611643 1.31622824,25.954909 C1.4448229,26.5410258 1.59924409,27.3193119 1.77518742,28.0899113 C1.94279091,28.8624325 2.13729706,29.6269922 2.29790587,30.2010299 C2.37942088,30.489284 2.44748458,30.7292212 2.49510227,30.8972322 C2.54836952,31.0657922 2.57338899,31.1643478 2.57338899,31.1643478" id="Fill-13"></path>
                            <path d="M25.7338899,26.3341591 C25.7338899,26.3341591 25.726869,26.6034299 25.6836206,26.9941578 C25.6378446,27.384614 25.5485394,27.894897 25.4415418,28.4002893 C25.3303315,28.9048663 25.2033946,29.405911 25.0888145,29.7819663 C25.0357369,29.9705373 24.9719876,30.125959 24.9396916,30.2368193 C24.90206,30.3468643 24.8742575,30.4096307 24.8742575,30.4096307 C24.8742575,30.4096307 24.8290431,30.1436206 24.8256731,29.7458281 C24.8239882,29.3488506 24.8779082,28.8230797 24.9885567,28.3087209 C25.1006096,27.7946337 25.2677057,27.2935891 25.4275,26.9289458 C25.5898221,26.5645745 25.7338899,26.3341591 25.7338899,26.3341591" id="Fill-14"></path>
                            <path d="M4.69265049,6.71566645 C4.69265049,6.71566645 4.41527093,6.82327636 4.05386166,7.04346276 C3.87166134,7.15024488 3.66879354,7.2846193 3.46592573,7.44327491 C3.26142628,7.59972315 3.06046207,7.78569512 2.87554236,7.98601509 C2.68491188,8.18247212 2.52528266,8.40514184 2.37218001,8.61567094 C2.23457799,8.83613327 2.10105507,9.04307537 2.00397222,9.2342899 C1.89465204,9.41943409 1.81823669,9.58443594 1.7622169,9.70032352 C1.70456545,9.81538333 1.66513404,9.88132888 1.66513404,9.88132888 C1.66513404,9.88132888 1.66567793,9.80682973 1.67818721,9.67659416 C1.69776694,9.5488419 1.69695112,9.35459224 1.76412048,9.1388206 C1.81116624,8.91559904 1.90960879,8.66837219 2.03334184,8.4095566 C2.16740863,8.15598354 2.34226654,7.90185863 2.54921345,7.6742223 C2.97044967,7.22308851 3.51922612,6.91488273 3.9554191,6.80340991 C4.39215596,6.68255572 4.69265049,6.71566645 4.69265049,6.71566645" id="Fill-15"></path>
                        </g>
                        <g id="Group" transform="translate(41.940299, 10.447761)">
                            <path d="M29.4960655,16.0196542 C30.316721,15.1864787 30.7270488,14.112292 30.7270488,12.7999391 C30.7270488,11.505469 30.3118699,10.4381916 29.4823206,9.59363621 C28.6519627,8.74989367 27.650197,8.32761599 26.4750021,8.32761599 C25.3002115,8.32761599 24.3020842,8.74989367 23.4814287,9.59363621 C22.6607731,10.4381916 22.2508497,11.505469 22.2508497,12.7999391 C22.2508497,14.112292 22.6607731,15.1864787 23.4814287,16.0196542 C24.3020842,16.8552681 25.3002115,17.2718558 26.4750021,17.2718558 C27.6679846,17.2718558 28.67541,16.8552681 29.4960655,16.0196542 Z M26.4750021,5.29079313 C28.67541,5.29079313 30.5313851,5.99878904 32.042119,7.41356157 C33.5524485,8.82955337 34.3076133,10.6247416 34.3076133,12.7999391 C34.3076133,14.9751366 33.5568954,16.7699185 32.0558639,18.1859103 C30.5544282,19.6019021 28.6944104,20.3098979 26.4750021,20.3098979 C24.2737858,20.3098979 22.4230661,19.6019021 20.9220346,18.1859103 C19.4201946,16.7699185 18.6698809,14.9751366 18.6698809,12.7999391 C18.6698809,10.6247416 19.4201946,8.82955337 20.9220346,7.41356157 C22.4230661,5.99878904 24.2737858,5.29079313 26.4750021,5.29079313 Z M56.1927627,10.9433804 L62.3747648,10.9433804 C62.3561687,10.1000443 62.090163,9.40667978 61.5779607,8.86288039 C61.0645458,8.31867458 60.435107,8.0467749 59.6892403,8.0467749 C58.7751999,8.0467749 58.0147797,8.30485606 57.4091925,8.82061199 C56.8027967,9.3363679 56.3977245,10.0443638 56.1927627,10.9433804 Z M59.6892403,5.29079313 C61.6660903,5.29079313 63.2144206,5.93294787 64.33221,7.21685088 C65.4532336,8.50197318 66.0123304,10.1284942 66.0123304,12.0964139 L65.9286478,13.4189275 L56.0807816,13.4189275 C56.2109546,14.6382086 56.6774749,15.5839643 57.4795343,16.2586333 C58.2807852,16.9337085 59.2417203,17.2718558 60.3607225,17.2718558 C61.0322046,17.2718558 61.7036869,17.1365157 62.3747648,16.8642096 C63.0462469,16.5923099 63.539853,16.3248809 63.8567958,16.0619225 L64.3617213,15.6680948 L65.8425396,18.1436418 C65.7883682,18.1997288 65.7046857,18.2802013 65.5914918,18.3826209 C65.4803193,18.4862599 65.2337184,18.6593978 64.8508804,18.9028476 C64.4680427,19.1462973 64.0718642,19.362923 63.6619407,19.549473 C63.2512087,19.7372422 62.7248572,19.911193 62.0812693,20.0696996 C61.4380855,20.229019 60.7803484,20.3098979 60.1088661,20.3098979 C57.8150733,20.3098979 55.9639494,19.5823936 54.5563028,18.1302297 C53.1478478,16.6764403 52.4436201,14.8999476 52.4436201,12.7999391 C52.4436201,10.5881632 53.1151024,8.78322069 54.4580667,7.38633096 C55.801031,5.98984764 57.5446209,5.29079313 59.6892403,5.29079313 Z M94.1626752,16.1041909 C94.8523493,15.3071875 95.1975904,14.2248723 95.1975904,12.8568389 C95.1975904,11.505469 94.8717539,10.4186831 94.2184636,9.59363621 C93.5651733,8.76940218 92.708134,8.35606587 91.6449201,8.35606587 C90.6374948,8.35606587 89.7893494,8.73648158 89.0988669,9.4956873 C88.4091927,10.254893 88.0639515,11.3851666 88.0639515,12.8840695 C88.0639515,14.084655 88.3720004,15.1206375 88.9876942,15.9924236 C89.6025796,16.8642096 90.4697254,17.3003057 91.5895361,17.3003057 C92.6139406,17.3003057 93.4721925,16.9020072 94.1626752,16.1041909 Z M92.4283834,5.29079313 C94.3486366,5.29079313 95.8872645,5.98415767 97.0442676,7.37169958 C98.2000578,8.75924149 98.7785593,10.5690611 98.7785593,12.7999391 C98.7785593,15.0499193 98.1628655,16.8642096 96.9322864,18.2415907 C95.7013031,19.6197849 94.1343767,20.3098979 92.2327199,20.3098979 C91.3934681,20.3098979 90.6326436,20.1493593 89.9522676,19.8307204 C89.270679,19.5128945 88.8009243,19.2031972 88.5393657,18.9028476 L88.147634,18.4248894 L88.09225,18.4248894 C88.1294422,18.7618173 88.147634,19.1751537 88.147634,19.6620533 L88.147634,25.5967009 L84.6232622,25.5967009 L84.6232622,9.28393881 C84.6232622,8.87182179 84.4170878,8.66576328 84.0075685,8.66576328 L81.5460063,8.66576328 C81.1360827,8.66576328 80.8656301,8.83443049 80.7354573,9.17217137 L75.6158604,22.1376003 C75.1303397,23.3747643 74.4305591,24.3071079 73.5181357,24.935444 C72.6032867,25.5637803 71.587776,25.8779484 70.4679652,25.8779484 C69.7964831,25.8779484 69.1625975,25.7560203 68.565904,25.5125704 C67.9692107,25.2679015 67.5402869,25.0244516 67.2787281,24.7805954 L66.8599109,24.4152175 L68.2295566,21.8839899 C68.8080581,22.540776 69.488434,22.8683561 70.2718973,22.8683561 C71.335111,22.8683561 72.1185743,22.2595285 72.622287,21.0406537 L73.0981055,19.9433007 L66.7738027,5.62772115 L69.5167325,5.62772115 C70.0208496,5.62772115 70.412581,5.73136004 70.6919275,5.93741855 C70.9716779,6.14347707 71.2049382,6.49056576 71.3917081,6.97787178 L74.749119,15.4835769 L77.5777527,7.21441231 L77.6582012,6.97787178 C77.9561436,6.07885516 78.5900293,5.62772115 79.5602624,5.62772115 L86.0499093,5.62772115 C87.243296,5.62772115 87.8395851,6.08779657 87.8395851,7.00632167 L87.8395851,7.56841027 L87.8961819,7.56841027 C87.9337785,7.51272976 87.9847158,7.43307006 88.0502066,7.32943116 C88.1148887,7.22701155 88.277807,7.04371296 88.5393657,6.78075467 C88.8009243,6.51901566 89.0851218,6.28938437 89.3931709,6.09226727 C89.7008155,5.89555657 90.1289309,5.71225799 90.679134,5.54359076 C91.229337,5.37532997 91.8126897,5.29079313 92.4283834,5.29079313 Z M111.245974,16.0196542 C112.067034,15.1864787 112.476958,14.112292 112.476958,12.7999391 C112.476958,11.505469 112.062587,10.4381916 111.232634,9.59363621 C110.40268,8.74989367 109.399702,8.32761599 108.22572,8.32761599 C107.050525,8.32761599 106.051993,8.74989367 105.232146,9.59363621 C104.411491,10.4381916 104.000354,11.505469 104.000354,12.7999391 C104.000354,14.112292 104.411491,15.1864787 105.232146,16.0196542 C106.051993,16.8552681 107.050525,17.2718558 108.22572,17.2718558 C109.418702,17.2718558 110.425319,16.8552681 111.245974,16.0196542 Z M108.22572,5.29079313 C110.425319,5.29079313 112.28089,5.99878904 113.792432,7.41356157 C115.302762,8.82955337 116.057927,10.6247416 116.057927,12.7999391 C116.057927,14.9751366 115.307209,16.7699185 113.806177,18.1859103 C112.304741,19.6019021 110.444724,20.3098979 108.22572,20.3098979 C106.024503,20.3098979 104.173784,19.6019021 102.672348,18.1859103 C101.170912,16.7699185 100.420598,14.9751366 100.420598,12.7999391 C100.420598,10.6247416 101.170912,8.82955337 102.672348,7.41356157 C104.173784,5.99878904 106.024503,5.29079313 108.22572,5.29079313 Z M125.260751,16.9621585 L125.90353,16.9064779 L125.90353,20.0274312 C125.605992,20.0843309 125.241346,20.1127809 124.813231,20.1127809 C124.32771,20.1127809 123.862402,20.0798603 123.414074,20.0136127 C122.966958,19.9489907 122.453947,19.8030834 121.875446,19.5779228 C121.296944,19.3523558 120.798891,19.0576963 120.378861,18.6923184 C119.95964,18.3269404 119.604292,17.8022431 119.315647,17.1170072 C119.027003,16.4329904 118.881872,15.6315163 118.881872,14.7121783 L118.881872,8.4690526 L117.035599,8.4690526 L117.035599,5.62772115 L118.965959,5.62772115 L118.965959,1.71911231 L122.434543,1.71911231 L122.434543,5.62772115 L125.680781,5.62772115 L125.680781,8.4690526 L122.434543,8.4690526 L122.434543,14.2622636 C122.434543,15.2937754 122.729251,16.0017713 123.316646,16.3862513 C123.904446,16.7699185 124.551672,16.9621585 125.260751,16.9621585 Z M12.5515091,2.02293513 C12.5515091,0.747973513 13.1853947,0.109476633 14.4539746,0.109476633 L16.2161604,0.109476633 L16.2161604,20.0784564 L12.5515091,20.0784564 L12.5515091,11.6975244 L3.79515516,11.6975244 L3.79515516,20.0784564 L0.130503814,20.0784564 L0.130503814,0.109476633 L1.89309399,0.109476633 C2.56457616,0.109476633 3.04928846,0.264325336 3.3480394,0.57402274 C3.64598182,0.883720145 3.79515516,1.36614904 3.79515516,2.02293513 L3.79515516,8.5757583 L12.5515091,8.5757583 L12.5515091,2.02293513 Z M45.0775272,5.29079313 C48.3969372,5.29079313 50.0572487,7.10996057 50.0572487,10.7462633 L50.0572487,19.9717506 L48.4066396,19.9717506 C47.7351575,19.9717506 47.2500409,19.8213727 46.9516942,19.5222424 C46.6533475,19.2214864 46.5045784,18.7345867 46.5045784,18.0595115 L46.5045784,11.4782384 C46.5045784,10.522322 46.3408515,9.7948176 46.0146106,9.29857018 C45.6883697,8.80232276 45.1058257,8.55318299 44.2661697,8.55318299 C43.3331288,8.55318299 42.5270269,8.82061199 41.8462466,9.35425069 C41.1650621,9.88951509 40.6949033,10.597511 40.4337488,11.4782384 C40.246979,12.0407334 40.1539984,12.678011 40.1539984,13.3904776 L40.1539984,19.9717506 L36.6292222,19.9717506 L36.6292222,5.62772115 L38.1678503,5.62772115 C39.4170254,5.62772115 40.0420173,6.16298557 40.0420173,7.23148225 L40.0420173,7.65294709 L39.9862288,8.27193548 L40.0420173,8.27193548 C40.4337488,7.48427987 41.0490384,6.79132178 41.8878858,6.19021618 C42.7275416,5.59032987 43.7907555,5.29079313 45.0775272,5.29079313 Z" id="Combined-Shape"></path>
                        </g>
                    </g>
                </g>
            </g>
        </g>
    </g>
</svg>