<svg id="Ebene_1" xmlns="http://www.w3.org/2000/svg" viewBox="0 0 365 128.1"><style>.st0{fill:#dddcde}.st1{fill:#ad0e3a}.st2{fill:#fff}</style><path class="st0" d="M0 28.6H365V128.1H0z"/><path class="st1" d="M19.7 0H346.5V87.9H19.7z"/><path class="st2" d="M50.5 18.7h7.2V43h.1l9.4-10h8.3L63.7 45.6l12.8 16.2H68L57.8 48.5h-.1v13.3h-7.2V18.7zm29.6 0h7.2v34.6c0 2 .8 2.6 2.1 2.6.6 0 1.2-.1 1.8-.4l1.4 5.6c-1.7.7-3.5 1-5.4 1-4.8 0-7.2-2.4-7.2-6.9l.1-36.5zm15.4 28.6c0-8.6 5.8-15 14.4-15s14.4 6.4 14.4 15-5.8 15.1-14.4 15.1S95.5 56 95.5 47.3zm21.3 0c0-5.3-2.4-9.2-6.9-9.2S103 42 103 47.3c0 5.4 2.4 9.2 6.9 9.2s6.9-3.8 6.9-9.2zm11.3.1c0-8.6 4.7-15.1 13-15.1 8.1 0 12.8 5.8 12.8 15.4v1.7h-18.4c.1 4.4 3.3 7.3 8.1 7.3 2.6 0 5.1-.7 7.3-1.9l2.2 5c-3.1 1.8-6.6 2.7-10.2 2.7-10.6-.1-14.8-7.3-14.8-15.1zm18.3-3.1c-.1-3.3-1.7-6.5-5.5-6.5-3.6 0-5.6 3-5.6 6.5h11.1zm11.3 3.3c-.3-8.2 6.2-15.1 14.4-15.3h.8c2.7-.1 5.4.6 7.7 1.9v6.1c-2-1.5-4.5-2.3-7-2.3-5.4 0-8.5 4-8.5 9.3 0 5.9 3.2 9.1 8.2 9.1 2.4 0 4.7-.7 6.7-1.9l2.1 5c-2.9 1.9-6.4 2.8-9.9 2.8-9.3.1-14.5-6.3-14.5-14.7zm28.5-28.9h7.2V43h.1l9.4-10h8.3l-11.8 12.5 12.8 16.2h-8.5l-10.2-13.3h-.1v13.3h-7.2v-43zM215.4 33h6.2l.7 3.2c3-2.4 6.3-4 9.9-4 4.6 0 9.2 2.3 9.2 10.5v19h-7.3V45c0-3.5-.7-6.4-4.4-6.4-2.6.2-5.1 1.3-7.1 3v20.1h-7.2V33zm31.1 14.4c0-8.6 4.7-15.1 13-15.1 8.1 0 12.8 5.8 12.8 15.4v1.7h-18.4c.1 4.4 3.3 7.3 8.1 7.3 2.6 0 5.1-.7 7.3-1.9l2.2 5c-3.1 1.8-6.6 2.7-10.2 2.7-10.6-.1-14.8-7.3-14.8-15.1zm18.4-3.1c-.1-3.3-1.7-6.5-5.5-6.5-3.6 0-5.6 3-5.6 6.5h11.1zM277.4 33h6.1l.8 3.2c2.6-2.6 5-4 7.9-4 1.4 0 2.9.4 4.1 1.2l-2.6 6.1c-1-.6-2.1-1-3.3-1-1.9 0-3.5.8-5.8 2.9v20.3h-7.2V33zm19.2 25.1c.1-2.2 2-4 4.2-3.9 2.2.1 4 2 3.9 4.2-.1 2.2-1.8 3.9-4 3.9-2.3 0-4.1-1.8-4.1-4.2 0 .1 0 .1 0 0zM310.4 24c-.1-2.5 1.8-4.5 4.3-4.6 2.5-.1 4.5 1.8 4.6 4.3.1 2.5-1.8 4.5-4.3 4.6h-.2c-2.4.1-4.4-1.8-4.4-4.1V24zm.8 9h7.3v28.8h-7.3V33z"/></svg>