<svg width="121" height="33" xmlns="http://www.w3.org/2000/svg"><g transform="matrix(1 0 0 -1 .262 32.221)" fill="none" fill-rule="evenodd"><path d="M88.132 29.628c0 1.252 1.041 2.268 2.325 2.268h26.81c1.285 0 2.326-1.016 2.326-2.268V2.504c0-1.253-1.041-2.268-2.325-2.268h-26.81c-1.285 0-2.326 1.015-2.326 2.268v27.124z" fill="#FFF" fill-rule="nonzero"/><path fill="#FFF" d="M0.0641332207 5.37644526L13.1935065 5.37644526 13.1935065 9.6868238 4.8154911 9.6868238 4.8154911 26.1321722 0.0641332207 26.1321722z"/><path d="M19.84 5.376v14.296H15.09V5.376h4.752zm-2.375 16.248c1.657 0 2.688 1.098 2.688 2.47-.03 1.403-1.031 2.47-2.657 2.47-1.625 0-2.688-1.067-2.688-2.47 0-1.372 1.031-2.47 2.626-2.47h.03zm4.582-16.248h4.752v7.984c0 .427.03.854.156 1.16.344.853 1.126 1.737 2.438 1.737 1.72 0 2.408-1.311 2.408-3.232V5.376h4.751v8.198c0 4.39-2.344 6.434-5.47 6.434-2.564 0-3.69-1.433-4.315-2.409h.032v2.073h-4.752c.063-1.341 0-14.296 0-14.296zm21.209 20.756h-4.752V5.376h4.752v4.635l1.187 1.495 3.72-6.13h5.846l-6.252 8.875 5.47 6.037h-5.72s-3.908-5.402-4.251-6.042v11.886z" fill="#FFF"/><path d="M66.716 11.34c.063.367.157 1.071.157 1.867 0 3.696-1.876 7.448-6.815 7.448-5.283 0-7.722-4.179-7.722-7.968 0-4.688 2.97-7.615 8.16-7.615 2.063 0 3.97.304 5.533.945l-.626 3.138c-1.281-.425-2.594-.637-4.22-.637-2.22 0-4.157.91-4.314 2.852l9.847-.03zm-9.878 3.214c.125 1.22.938 3.02 2.97 3.02 2.156 0 2.657-1.922 2.657-3.02h-5.627zm21.764 11.578v-7.185h-.063c-.688 1.006-2.126 1.677-4.032 1.677-3.658 0-6.878-2.928-6.847-7.928 0-4.636 2.908-7.655 6.534-7.655 1.97 0 3.845.854 4.783 2.501h.094l.187-2.166h4.22a79.196 79.196 0 0 0-.125 4.453v16.303h-4.751zm0-14.138c0-.366-.032-.732-.094-1.037-.281-1.311-1.407-2.226-2.782-2.226-1.97 0-3.251 1.586-3.251 4.086 0 2.348 1.094 4.239 3.282 4.239 1.469 0 2.5-1.006 2.782-2.256.063-.275.063-.58.063-.854v-1.952z" fill="#FFF"/><path d="M97.669 5.393V19.69h-4.752V5.393h4.752zm-2.376 16.249c1.657 0 2.688 1.097 2.688 2.47-.03 1.402-1.03 2.47-2.657 2.47-1.625 0-2.688-1.068-2.688-2.47 0-1.373 1.031-2.47 2.626-2.47h.031zm5.005-16.249h4.752v7.984c0 .427.031.854.156 1.16.344.853 1.126 1.737 2.439 1.737 1.719 0 2.407-1.31 2.407-3.232V5.393h4.751v8.198c0 4.39-2.344 6.434-5.47 6.434-2.564 0-3.69-1.433-4.315-2.409h.032v2.074h-4.752c.063-1.342 0-14.297 0-14.297z" fill="#0A2137"/></g></svg>