<svg width="121" height="29" xmlns="http://www.w3.org/2000/svg"><g fill="none"><path d="M42.335 4.858h3.634v19.41h-3.634V4.858zm10.44 19.409h-3.633V10.805h3.632v13.462zm0-16.686h-3.633V4.856h3.632V7.58zm6.308 3.224l.161 1.927c.449-.688 1-1.223 1.654-1.605.655-.382 1.389-.572 2.203-.572 1.36 0 2.42.427 3.185 1.282.763.854 1.144 2.193 1.144 4.018v8.412h-3.645V15.85c0-.908-.182-1.55-.548-1.928-.366-.376-.917-.566-1.655-.566-.48 0-.912.098-1.293.292-.381.197-.71.481-.96.83v9.79H55.7V10.806h3.384zm15.69 7.825h-.996v5.636h-3.633V4.856h3.633v11.013h.896l3.123-5.066h4.206l-4.305 6.096 4.964 7.367h-4.169l-3.72-5.636zm9.967 5.636v-10.91h-2.003v-2.553h2.003V9.31c0-1.51.434-2.673 1.305-3.49.87-.817 2.095-1.225 3.67-1.225.309 0 .623.022.94.069.32.044.67.11 1.053.193l-.311 2.7a15.021 15.021 0 0 0-.58-.088 4.963 4.963 0 0 0-.652-.038c-.588 0-1.036.162-1.337.486-.304.323-.455.788-.455 1.393v1.494h2.676v2.55h-2.676v10.91H84.74zm11.98 0h-3.632V10.806h3.632v13.462zm0-16.685h-3.632V4.856h3.632V7.58z" fill="#FFF"/><path d="M106.786 13.926l-1.331-.038c-.539 0-.983.113-1.33.338a2.097 2.097 0 0 0-.796.945v9.095h-3.62V10.803h3.372l.161 1.99c.315-.704.722-1.253 1.225-1.648a2.742 2.742 0 0 1 1.737-.59c.181 0 .35.014.504.043.153.028.308.064.466.106l-.388 3.222zm7.478-.572c-.672 0-1.204.257-1.593.77-.39.516-.631 1.19-.72 2.029l.037.063h4.453v-.324c0-.772-.18-1.388-.541-1.848-.36-.458-.906-.69-1.636-.69m.324 11.173c-1.94 0-3.492-.621-4.654-1.866-1.162-1.244-1.741-2.824-1.741-4.74v-.498c0-1.998.55-3.647 1.65-4.94 1.098-1.293 2.572-1.935 4.422-1.928 1.817 0 3.226.548 4.23 1.643 1.004 1.094 1.506 2.574 1.506 4.442v1.978h-8.037l-.026.073c.067.884.364 1.611.89 2.18.526.572 1.242.857 2.146.857.805 0 1.473-.082 2.003-.243a9.363 9.363 0 0 0 1.741-.765l.983 2.246c-.548.448-1.266.822-2.153 1.118-.886.296-1.873.443-2.96.443" fill="#FFF"/><path d="M33.994.746a.328.328 0 0 0 .072-.352.331.331 0 0 0-.304-.203H14.316C6.409.191 0 6.553 0 14.401c0 7.844 6.409 14.208 14.316 14.208a14.26 14.26 0 0 0 10.116-4.167c4.096-3.975 6.403-11.453 8.2-18.265l.057-.217.129-.49a.324.324 0 0 0-.059-.28.333.333 0 0 0-.26-.127h-2.432a.33.33 0 0 1-.303-.199.324.324 0 0 1 .072-.354L33.994.746z" fill="#E52F19"/><path d="M20.33 6.783h-5.468a2.397 2.397 0 0 0-2.392 2.393V10.2h2.05V9.176a.35.35 0 0 1 .342-.343h5.468c.185 0 .342.158.342.343v5.465a.346.346 0 0 1-.342.343h-5.468a.35.35 0 0 1-.342-.343v-1.024h-2.05v1.024a2.395 2.395 0 0 0 2.392 2.392h5.468a2.393 2.393 0 0 0 2.39-2.392V9.176c0-1.32-1.07-2.391-2.39-2.393m-3.758 11.96a.346.346 0 0 1-.342.34h-5.467a.346.346 0 0 1-.34-.34v-5.467c0-.187.156-.343.34-.343h5.467a.346.346 0 0 1 .342.343v1.022h2.05v-1.022a2.394 2.394 0 0 0-2.392-2.392h-5.467a2.395 2.395 0 0 0-2.39 2.392v5.464a2.392 2.392 0 0 0 2.39 2.39h5.467c1.32 0 2.391-1.07 2.392-2.39v-1.024h-2.05v1.026z" fill="#FFF"/></g></svg>