<?xml version="1.0" encoding="UTF-8"?>
<svg width="121px" height="29px" viewBox="0 0 121 29" version="1.1" xmlns="http://www.w3.org/2000/svg" xmlns:xlink="http://www.w3.org/1999/xlink">
    <title>C62CC034-AC8B-4681-80EA-8CA472FFD5B1@1x</title>
    <g id="Symbols" stroke="none" stroke-width="1" fill="none" fill-rule="evenodd">
        <g id="2021-/-sponsor-grid" transform="translate(-856.000000, -401.000000)" fill="#555555" fill-rule="nonzero">
            <g id="sponsors" transform="translate(0.000000, 1.000000)">
                <g id="row-5" transform="translate(112.000000, 393.000000)">
                    <g id="Linkfire" transform="translate(744.000000, 7.000000)">
                        <path d="M42.33504,4.8576 L45.96864,4.8576 L45.96864,24.26784 L42.33504,24.26784 L42.33504,4.8576 Z M52.77408,24.26688 L49.1424,24.26688 L49.1424,10.8048 L52.77408,10.8048 L52.77408,24.26688 Z M52.77408,7.58112 L49.1424,7.58112 L49.1424,4.85568 L52.77408,4.85568 L52.77408,7.58112 Z M59.0832,10.8048 L59.24448,12.73248 C59.6928,12.04416 60.24384,11.50944 60.8976,11.12736 C61.55328,10.74528 62.28672,10.5552 63.1008,10.5552 C64.46112,10.5552 65.52192,10.9824 66.28608,11.8368 C67.04928,12.6912 67.4304,14.0304 67.4304,15.85536 L67.4304,24.26688 L63.78528,24.26688 L63.78528,15.8496 C63.78528,14.9424 63.60288,14.30016 63.23712,13.92192 C62.87136,13.5456 62.32032,13.35648 61.58208,13.35648 C61.10112,13.35648 60.67008,13.4544 60.28896,13.64832 C59.9076058,13.8446393 59.5787686,14.1293682 59.32992,14.47872 L59.32992,24.2688 L55.69824,24.2688 L55.69824,10.8048 L59.0832,10.8048 L59.0832,10.8048 Z M74.77248,18.62976 L73.77696,18.62976 L73.77696,24.26592 L70.14432,24.26592 L70.14432,4.85568 L73.77696,4.85568 L73.77696,15.8688 L74.67264,15.8688 L77.79552,10.80288 L82.00224,10.80288 L77.69664,16.89888 L82.6608,24.26592 L78.49248,24.26592 L74.77248,18.62976 Z M84.74016,24.26592 L84.74016,13.35552 L82.73664,13.35552 L82.73664,10.80288 L84.74016,10.80288 L84.74016,9.31104 C84.74016,7.80096 85.17408,6.6384 86.0448,5.82144 C86.91552,5.00448 88.14048,4.59648 89.71584,4.59648 C90.024,4.59648 90.33792,4.6176 90.65568,4.66464 C90.97536,4.7088 91.32576,4.77408 91.70784,4.8576 L91.3968,7.55808 C91.2044322,7.52488129 91.0114356,7.4954357 90.81792,7.46976 C90.6013795,7.44294422 90.3833064,7.43043708 90.16512,7.43232 C89.57664,7.43232 89.12928,7.5936 88.82784,7.91808 C88.52448,8.24064 88.3728,8.70624 88.3728,9.31104 L88.3728,10.8048 L91.04928,10.8048 L91.04928,13.35552 L88.3728,13.35552 L88.3728,24.26592 L84.74016,24.26592 Z M96.72,24.26688 L93.08832,24.26688 L93.08832,10.8048 L96.72,10.8048 L96.72,24.26688 Z M96.72,7.58112 L93.08832,7.58112 L93.08832,4.85568 L96.72,4.85568 L96.72,7.58112 Z" id="Shape"></path>
                        <g id="Group" transform="translate(98.880000, 9.600000)">
                            <path d="M7.9056,4.32576 L6.57504,4.28832 C6.03648,4.28832 5.592,4.40064 5.24448,4.62624 C4.89036152,4.85406098 4.61304437,5.18322874 4.44864,5.57088 L4.44864,14.66592 L0.82848,14.66592 L0.82848,1.20288 L4.20096,1.20288 L4.36224,3.19392 C4.67712,2.48928 5.08416,1.94016 5.5872,1.54464 C6.08112968,1.15429661 6.69434524,0.945823657 7.32384,0.95424 C7.50528,0.95424 7.67424,0.96864 7.82784,0.9984 C7.98144,1.02624 8.136,1.06176 8.2944,1.104 L7.9056,4.32576 L7.9056,4.32576 Z M15.384,3.7536 C14.712,3.7536 14.18016,4.01088 13.79136,4.52448 C13.40064,5.04 13.15968,5.71488 13.0704,6.55296 L13.10784,6.61632 L17.56128,6.61632 L17.56128,6.29184 C17.56128,5.52 17.38176,4.90368 17.01984,4.44384 C16.65984,3.98592 16.1136,3.7536 15.384,3.7536 M15.70752,14.92704 C13.76736,14.92704 12.216,14.30592 11.0544,13.0608 C9.89184,11.81664 9.31296,10.23744 9.31296,8.32032 L9.31296,7.82304 C9.31296,5.82528 9.86208,4.176 10.96224,2.88288 C12.06144,1.58976 13.53504,0.94752 15.38496,0.955131935 C17.20224,0.955131935 18.61056,1.50336 19.61568,2.59776 C20.61888,3.69216 21.12096,5.17248 21.12096,7.03968 L21.12096,9.01824 L13.08384,9.01824 L13.05792,9.0912 C13.12512,9.97536 13.42176,10.70208 13.9488,11.27136 C14.47392,11.84256 15.19008,12.12768 16.0944,12.12768 C16.89888,12.12768 17.56704,12.04608 18.09696,11.8848 C18.7019083,11.6895377 19.2853985,11.4331751 19.8384,11.11968 L20.82144,13.36608 C20.27328,13.8144 19.5552,14.18784 18.66816,14.48448 C17.78208,14.78016 16.7952,14.92704 15.70752,14.92704" id="Shape"></path>
                        </g>
                        <g id="Group">
                            <path d="M33.76224,0.19104 C33.894782,0.191776004 34.0141212,0.271461354 34.0656,0.3936 C34.113766,0.514911286 34.0854987,0.653232293 33.9936,0.74592 L33.9936,0.74592 L29.83584,4.51008 C29.7421991,4.60261971 29.7137544,4.7425676 29.76384,4.86432 C29.8162895,4.98512361 29.9355017,5.06321514 30.0672,5.06304 L30.0672,5.06304 L32.49984,5.06304 C32.6009992,5.06373204 32.696363,5.11035438 32.75904,5.18976 C32.8211042,5.26900261 32.8427499,5.372618 32.8176,5.47008 L32.8176,5.47008 L32.68896,5.95968 L32.63232,6.17664 C30.8352,12.9888 28.52832,20.4672 24.432,24.4416 C21.83424,27.02208 18.28512,28.60896 14.31552,28.60896 C6.40896,28.60896 -5.25801624e-13,22.24512 -5.25801624e-13,14.40096 C-5.25801624e-13,6.55296 6.40896,0.19104 14.31552,0.19104 L14.31552,0.19104 Z M16.22976,10.88352 L10.76256,10.88352 C9.4427259,10.886164 8.37374433,11.9560042 8.37216,13.27584 L8.37216,18.74016 C8.37321876,20.0599027 9.44281734,21.1295012 10.76256,21.13056 L16.22976,21.13056 C17.5502524,21.13056 18.6210202,20.060652 18.62208,18.74016 L18.62208,17.71584 L16.57248,17.71584 L16.57248,18.74208 C16.5698767,18.9299566 16.4176482,19.0813322 16.22976,19.08288 L10.76256,19.08288 C10.5761713,19.0792726 10.4262343,18.9284861 10.42368,18.74208 L10.42368,13.27584 C10.42368,13.08864 10.5792,12.93312 10.76256,12.93312 L16.22976,12.93312 C16.4183868,12.9346854 16.5709146,13.0872132 16.57248,13.27584 L16.57248,14.29824 L18.62208,14.29824 L18.62208,13.27584 C18.6210212,11.9550369 17.5505631,10.8845788 16.22976,10.88352 Z M20.32992,6.78336 L14.86176,6.78336 C13.5419885,6.78652863 12.4730389,7.85590731 12.4704,9.17568 L12.4704,10.2 L14.52,10.2 L14.52,9.17568 C14.52,8.99136 14.6784,8.83296 14.86176,8.83296 L20.32992,8.83296 C20.5152,8.83296 20.67168,8.99136 20.67168,9.17568 L20.67168,14.64096 C20.6701227,14.8292169 20.5181718,14.9815946 20.32992,14.98368 L14.86176,14.98368 C14.6743578,14.9795941 14.5235602,14.8283729 14.52,14.64096 L14.52,13.61664 L12.4704,13.61664 L12.4704,14.64096 C12.4719857,15.9611698 13.541551,17.0311644 14.86176,17.03328 L20.32992,17.03328 C21.6501925,17.0316913 22.7197914,15.9612333 22.72032,14.64096 L22.72032,9.17568 C22.7197914,7.85540667 21.6501925,6.78494867 20.32992,6.78336 Z" id="Combined-Shape"></path>
                        </g>
                    </g>
                </g>
            </g>
        </g>
    </g>
</svg>