<?xml version="1.0" encoding="UTF-8"?>
<svg width="1000px" height="144px" viewBox="0 0 1000 144" version="1.1" xmlns="http://www.w3.org/2000/svg" xmlns:xlink="http://www.w3.org/1999/xlink">
    <title>logo</title>
    <g id="Symbols" stroke="none" stroke-width="1" fill="none" fill-rule="evenodd">
        <g id="logo" fill="#000000">
            <path d="M24.0929635,0 L75.4777414,79.4422754 L62.2312632,99.822336 L25.5357189,43.0000741 L25.5357189,143.518519 L0,143.518519 L0,0 L24.0929635,0 Z M797.903165,12.6139323 L797.903165,42.2357221 L821.681199,42.2357221 L821.681199,60.1991652 L797.903165,60.1991652 L797.903165,108.928631 C797.903165,120.013174 801.547256,125.174036 813.434579,125.174036 C816.313276,125.174036 819.378242,125.174038 821.681199,124.981645 L821.681199,124.981645 L821.681199,142.945082 C818.037108,143.326493 813.627624,143.518889 809.600836,143.518889 L809.600836,143.518889 L808.885885,143.515732 C785.427052,143.307241 775.276612,132.759723 775.276612,108.165806 L775.276612,108.165806 L775.276612,60.1991652 L757.828324,60.1991652 L757.828324,42.2357221 L775.276612,42.2357221 L775.276612,12.6139323 L797.903165,12.6139323 Z M143.401376,0 L143.401376,143.518519 L117.865668,143.518519 L117.865668,0 L143.401376,0 Z M725.827425,12.6139323 L725.827425,42.2357221 L749.602071,42.2357221 L749.602071,60.1991652 L725.827425,60.1991652 L725.827425,108.928631 C725.827425,120.013174 729.468128,125.174036 741.358838,125.174036 C744.234148,125.174036 747.3025,125.174038 749.602071,124.981645 L749.602071,124.981645 L749.602071,142.945082 C745.961366,143.326493 741.548496,143.518889 737.521708,143.518889 L737.521708,143.518889 L736.806759,143.515732 C713.347993,143.307241 703.200873,132.759723 703.200873,108.165806 L703.200873,108.165806 L703.200873,60.1991652 L685.752586,60.1991652 L685.752586,42.2357221 L703.200873,42.2357221 L703.200873,12.6139323 L725.827425,12.6139323 Z M876.691442,39.9395978 C905.261625,39.9395978 924.819805,61.5348818 924.819805,92.3009006 L924.819805,92.3009006 L924.819692,92.7384948 C924.818104,94.8563761 924.794292,97.9833602 924.437109,99.9459949 L924.437109,99.9459949 L851.189609,99.9459949 C853.299521,115.043791 864.421439,125.17312 879.759793,125.17312 C889.730231,125.17312 897.976835,120.586057 904.496229,112.559551 L904.496229,112.559551 L920.410329,123.833115 C911.015629,136.446677 896.825362,143.517971 879.952835,143.517971 C848.697,143.517971 828.180384,122.11508 828.180384,91.7304711 C828.180384,61.7272726 847.548907,39.9395978 876.691442,39.9395978 Z M203.060087,39.9395978 C235.84672,39.9395978 245.627509,57.5216266 245.627509,82.937767 L245.627509,82.937767 L245.627509,141.222751 L223.000971,141.222751 L223.000971,133.007232 C215.905836,139.886128 205.359657,143.517971 193.85504,143.517971 C172.18694,143.517971 156.465884,130.141584 156.465884,111.219555 C156.465884,92.3009006 172.18694,78.9245158 193.85504,78.9245158 C206.128437,78.9245158 215.330097,82.5563579 223.000971,88.4800402 L223.000971,88.4800402 L223.000971,79.1169106 C223.000971,66.6957419 217.633054,58.4768417 200.374436,58.4768417 C191.36243,58.4768417 182.543466,61.5348788 175.065635,67.650954 L175.065635,67.650954 L162.026843,54.6559823 C173.53146,44.9080651 187.911382,39.9395978 203.060087,39.9395978 Z M633.292383,39.9395978 C666.079016,39.9395978 675.859805,57.5216266 675.859805,82.937767 L675.859805,82.937767 L675.859805,141.222751 L653.233266,141.222751 L653.233266,133.007232 C646.138131,139.886128 635.591952,143.517971 624.087335,143.517971 C602.422622,143.517971 586.698179,130.141584 586.698179,111.219555 C586.698179,92.3009006 602.422622,78.9245158 624.087335,78.9245158 C636.360732,78.9245158 645.562393,82.5563579 653.233266,88.4800402 L653.233266,88.4800402 L653.233266,79.1169106 C653.233266,66.6957419 647.86535,58.4768417 630.606731,58.4768417 C621.594726,58.4768417 612.775761,61.5348788 605.29793,67.650954 L605.29793,67.650954 L592.259138,54.6559823 C603.763755,44.9080651 618.143678,39.9395978 633.292383,39.9395978 Z M289.610139,42.2363281 L289.610139,141.22766 L266.983597,141.22766 L266.983597,42.2363281 L289.610139,42.2363281 Z M993.675001,39.9395978 C995.78491,39.9395978 998.084474,40.1319909 1000.00134,40.3210087 L1000.00134,40.3210087 L1000.00134,59.0506482 C998.084474,58.8582551 994.826475,58.669236 991.947787,58.669236 C980.253539,58.669236 969.514338,64.5929189 963.763735,73.5746401 L963.763735,73.5746401 L963.763735,141.22276 L941.137243,141.22276 L941.137243,42.234814 L963.763735,42.234814 L963.763735,54.2711969 C970.472773,45.2894757 980.443194,39.9395978 993.675001,39.9395978 Z M539.1661,39.9395978 C559.875758,39.9395978 571.380368,52.7455542 571.380368,76.4402857 L571.380368,76.4402857 L571.380368,141.22276 L548.75384,141.22276 L548.75384,80.072125 C548.75384,66.1219361 544.344359,58.2844504 531.88131,58.2844504 C523.445046,58.2844504 514.046961,63.4453109 508.872087,70.5166018 C509.254783,73.3822466 509.254783,76.2478934 509.254783,79.3059312 L509.254783,141.22276 L486.628251,141.22276 L486.628251,80.072125 C486.628251,66.1219361 482.601471,58.2844504 469.755725,58.2844504 C461.126418,58.2844504 452.30407,63.0638997 446.936154,69.5613866 L446.936154,69.5613866 L446.936154,141.22276 L424.309625,141.22276 L424.309625,42.234814 L446.936154,42.234814 L446.936154,52.1717492 C454.989722,44.908065 465.342856,39.9395978 477.233552,39.9395978 C490.079298,39.9395978 499.473996,45.1004583 504.459215,54.6559835 C513.088522,46.6294775 523.827745,39.9395978 539.1661,39.9395978 Z M367.880807,39.9395978 C388.780123,39.9395978 402.970385,52.9345715 402.970385,77.0140887 L402.970385,77.0140887 L402.970385,141.22276 L380.343854,141.22276 L380.343854,80.2611464 C380.343854,66.3109575 374.20716,58.2844504 361.168372,58.2844504 L361.168372,58.2844504 L360.663655,58.288904 C349.742958,58.4814323 339.805026,64.8862136 334.518441,71.6642098 L334.518441,71.6642098 L334.518441,141.22276 L311.891909,141.22276 L311.891909,42.234814 L334.518441,42.234814 L334.518441,53.7007683 C342.185926,46.0556735 353.500887,39.9395978 367.880807,39.9395978 Z M629.841219,97.2674334 C617.567827,97.2674334 609.707303,101.854491 609.707303,111.217621 C609.707303,120.584127 617.567827,125.171185 629.841219,125.171185 L629.841219,125.171185 L630.358953,125.16774 C638.814565,125.055202 647.219178,122.183691 653.23314,116.378482 L653.23314,116.378482 L653.23314,106.060136 C646.906789,100.325471 638.85322,97.2674334 629.841219,97.2674334 Z M199.608923,97.2674334 C187.335532,97.2674334 179.475007,101.854491 179.475007,111.217621 C179.475007,120.584127 187.335532,125.171185 199.608923,125.171185 L199.608923,125.171185 L200.126462,125.16774 C208.579017,125.055202 216.986883,122.183691 223.000844,116.378482 L223.000844,116.378482 L223.000844,106.060136 C216.674493,100.325471 208.620925,97.2674334 199.608923,97.2674334 Z M876.691129,58.2863137 L876.266961,58.2890628 C862.317009,58.4704072 853.085082,67.6132952 850.99962,82.7472387 L850.99962,82.7472387 L902.003324,82.7472387 C900.851845,67.6528199 890.305664,58.2863137 876.691129,58.2863137 L876.691129,58.2863137 Z M278.298669,0 C286.159198,0 292.295897,5.92368236 292.295897,13.7611705 L292.295897,13.7611705 L292.292454,14.0820345 C292.127445,21.7564643 286.05152,27.5189656 278.298669,27.5189656 C270.434754,27.5189656 264.301441,21.5952832 264.301441,13.7611705 C264.301441,5.92368236 270.434754,0 278.298669,0 Z"></path>
        </g>
    </g>
</svg>
