<?xml version="1.0" encoding="UTF-8"?>
<svg width="120px" height="45px" viewBox="0 0 120 45" version="1.1" xmlns="http://www.w3.org/2000/svg" xmlns:xlink="http://www.w3.org/1999/xlink">
    <title>D1E64277-C520-421A-87DA-88FCD0592114@1x</title>
    <g id="Symbols" stroke="none" stroke-width="1" fill="none" fill-rule="evenodd">
        <g id="2021-/-sponsor-grid" transform="translate(-485.000000, -187.000000)" fill="#555555" fill-rule="nonzero">
            <g id="sponsors" transform="translate(0.000000, 1.000000)">
                <g id="row-3" transform="translate(112.000000, 186.000000)">
                    <g id="peopledoc" transform="translate(373.000000, 0.000000)">
                        <g id="Group">
                            <path d="M111.941392,8.51282051 C111.897436,3.63369963 108.805861,0.527472527 103.677656,0.205128205 C102.534799,0.131868132 99.047619,0.117216117 96.7619048,0.205128205 C95.4285714,0.249084249 94.0659341,1.42124542 91.3260073,3.83882784 C90.989011,4.13186813 90.6520147,4.43956044 90.3003663,4.74725275 C89.1428571,5.75824176 88.0732601,6.76923077 87.2820513,7.6043956 C85.978022,8.98168498 85.5384615,9.6996337 85.5677656,10.4908425 C85.5824176,11.2087912 85.5824176,13.1282051 85.5677656,15.1501832 C85.5677656,16.2051282 85.5677656,17.2747253 85.5677656,18.2271062 C85.5677656,19.956044 86.3150183,21.96337 87.5604396,23.5750916 C88.996337,25.4505495 90.8278388,26.5054945 92.7032967,26.5494505 L92.7912088,23.3113553 C90.8717949,23.2673993 88.8058608,20.2783883 88.8058608,18.2124542 C88.8058608,17.2747253 88.8058608,16.1904762 88.8058608,15.1501832 C88.8058608,13.8315018 88.8205128,12.5567766 88.8058608,11.6190476 L96.7912088,11.6190476 L96.7912088,3.53113553 C96.8644689,3.48717949 96.9230769,3.45787546 96.967033,3.44322344 C99.2527473,3.36996337 102.505495,3.38461538 103.457875,3.44322344 C106.901099,3.66300366 108.659341,5.37728938 108.688645,8.55677656 C108.688645,8.87912088 108.673993,9.28937729 108.673993,9.67032967 C108.659341,10.03663 108.659341,10.4175824 108.659341,10.7545788 L111.897436,10.7545788 C111.897436,10.4468864 111.912088,10.0952381 111.912088,9.74358974 C111.92674,9.31868132 111.941392,8.89377289 111.941392,8.51282051 Z" id="Path"></path>
                            <path d="M7.63369963,10.7838828 C5.74358974,10.7838828 4.21978022,11.6776557 3.06227106,13.4505495 L3.06227106,10.989011 L0.0879120879,10.989011 L0.0879120879,30.1978022 L3.04761905,30.1978022 L3.04761905,22.9450549 C4.45421245,24.4981685 6.05128205,25.2747253 7.82417582,25.2747253 C9.5970696,25.2747253 11.1501832,24.6007326 12.4835165,23.2380952 C13.8168498,21.8754579 14.4761905,20.1172161 14.4761905,17.9487179 C14.4761905,15.7802198 13.8021978,14.03663 12.4688645,12.7326007 C11.1355311,11.4285714 9.52380952,10.7838828 7.63369963,10.7838828 Z M10.2271062,21.3626374 C9.36263736,22.2124542 8.35164835,22.6373626 7.17948718,22.6373626 C6.02197802,22.6373626 5.02564103,22.2124542 4.21978022,21.3479853 C3.41391941,20.4981685 3.003663,19.3992674 3.003663,18.0512821 C3.003663,16.7179487 3.41391941,15.5897436 4.21978022,14.7106227 C5.02564103,13.8168498 6.02197802,13.3772894 7.20879121,13.3772894 C8.3956044,13.3772894 9.40659341,13.8168498 10.2564103,14.7106227 C11.1062271,15.6043956 11.5311355,16.7179487 11.5311355,18.0659341 C11.5164835,19.4139194 11.0915751,20.5128205 10.2271062,21.3626374 Z" id="Shape"></path>
                            <path d="M29.010989,16.5421245 C28.996337,14.8278388 28.3516484,13.4358974 27.0769231,12.3809524 C25.8021978,11.3113553 24.2051282,10.7838828 22.2857143,10.7838828 C21.0695971,10.7838828 19.9120879,11.047619 18.8131868,11.5897436 C17.7142857,12.1318681 16.8058608,12.967033 16.0586081,14.1098901 C15.3113553,15.2527473 14.9450549,16.5714286 14.9450549,18.0659341 C14.9450549,20.2344322 15.6630037,21.978022 17.0842491,23.3113553 C18.5201465,24.6300366 20.2197802,25.2893773 22.2124542,25.2893773 C24.4835165,25.2893773 26.4615385,24.4249084 28.1465201,22.6959707 L26.4029304,20.7619048 C25.3772894,21.992674 24.0732601,22.6080586 22.5054945,22.6080586 C20.9230769,22.6080586 19.6776557,22.03663 18.7545788,20.9084249 L29.025641,16.6007326 L29.010989,16.5421245 Z M17.8461538,18.6080586 C17.8315018,18.5054945 17.8168498,18.3296703 17.8168498,18.1098901 C17.8168498,16.6593407 18.3003663,15.5311355 19.2527473,14.7252747 C20.2197802,13.9194139 21.2747253,13.5091575 22.4468864,13.5091575 C23.985348,13.5091575 25.0549451,14.0952381 25.6556777,15.2527473 L17.8461538,18.6080586 Z" id="Shape"></path>
                            <path d="M36.5860806,10.7838828 C34.4761905,10.7838828 32.7032967,11.4871795 31.2967033,12.8937729 C29.8901099,14.3003663 29.1868132,16.014652 29.1868132,18.03663 C29.1868132,20.0586081 29.8901099,21.7875458 31.2967033,23.1794872 C32.7032967,24.5860806 34.4761905,25.2893773 36.5860806,25.2893773 C38.6959707,25.2893773 40.4688645,24.5860806 41.8754579,23.1794872 C43.2820513,21.7728938 43.985348,20.0586081 43.985348,18.03663 C43.985348,16.014652 43.2820513,14.2857143 41.8754579,12.8937729 C40.4688645,11.4725275 38.6959707,10.7838828 36.5860806,10.7838828 Z M39.7655678,21.3479853 C38.9304029,22.1978022 37.8608059,22.6373626 36.5714286,22.6373626 C35.2820513,22.6373626 34.2271062,22.2124542 33.3772894,21.3479853 C32.5421245,20.4981685 32.1172161,19.3846154 32.1172161,18.021978 C32.1172161,16.6593407 32.5421245,15.5604396 33.3772894,14.6959707 C34.2124542,13.8461538 35.2820513,13.4065934 36.5714286,13.4065934 C37.8608059,13.4065934 38.9157509,13.8315018 39.7655678,14.6959707 C40.6007326,15.5457875 41.025641,16.6593407 41.025641,18.021978 C41.025641,19.3846154 40.6153846,20.4981685 39.7655678,21.3479853 Z" id="Shape"></path>
                            <path d="M52.9084249,10.7838828 C51.018315,10.7838828 49.4945055,11.6776557 48.3369963,13.4505495 L48.3369963,10.989011 L45.3772894,10.989011 L45.3772894,30.1978022 L48.3369963,30.1978022 L48.3369963,22.9450549 C49.7435897,24.4981685 51.3406593,25.2747253 53.1135531,25.2747253 C54.8864469,25.2747253 56.4395604,24.6007326 57.7728938,23.2380952 C59.1062271,21.8754579 59.7655678,20.1172161 59.7655678,17.9487179 C59.7655678,15.7802198 59.0915751,14.03663 57.7582418,12.7326007 C56.4102564,11.4285714 54.7985348,10.7838828 52.9084249,10.7838828 Z M55.5018315,21.3626374 C54.6373626,22.2124542 53.6263736,22.6373626 52.4542125,22.6373626 C51.2967033,22.6373626 50.3003663,22.2124542 49.4945055,21.3479853 C48.6886447,20.4981685 48.2783883,19.3992674 48.2783883,18.0512821 C48.2783883,16.7179487 48.6886447,15.5897436 49.4945055,14.7106227 C50.3003663,13.8168498 51.2967033,13.3772894 52.4835165,13.3772894 C53.6703297,13.3772894 54.6813187,13.8168498 55.5311355,14.7106227 C56.3809524,15.6043956 56.8058608,16.7179487 56.8058608,18.0659341 C56.8058608,19.4139194 56.3663004,20.5128205 55.5018315,21.3626374 Z" id="Shape"></path>
                            <path d="M65.5824176,22.5494505 C64.5274725,22.5494505 64,21.8461538 64,20.4395604 L64,6.56410256 L61.040293,6.56410256 L61.040293,20.7765568 C61.040293,22.2564103 61.4212454,23.3846154 62.1978022,24.1318681 C62.959707,24.8937729 63.985348,25.2747253 65.2600733,25.2747253 C66.5347985,25.2747253 67.5164835,24.8644689 68.2197802,24.0586081 L66.9304029,21.8901099 C66.6373626,22.3296703 66.1978022,22.5494505 65.5824176,22.5494505 Z" id="Path"></path>
                            <path d="M81.4065934,16.5421245 C81.3919414,14.8278388 80.7472527,13.4358974 79.4725275,12.3809524 C78.1978022,11.3113553 76.6007326,10.7838828 74.6813187,10.7838828 C73.4652015,10.7838828 72.3076923,11.047619 71.2087912,11.5897436 C70.1098901,12.1318681 69.2014652,12.967033 68.4542125,14.1098901 C67.7069597,15.2527473 67.3406593,16.5714286 67.3406593,18.0659341 C67.3406593,20.2344322 68.0586081,21.978022 69.4798535,23.3113553 C70.9157509,24.6300366 72.6153846,25.2893773 74.6080586,25.2893773 C76.8791209,25.2893773 78.8571429,24.4249084 80.5421245,22.6959707 L78.7985348,20.7619048 C77.7728938,21.992674 76.4688645,22.6080586 74.9010989,22.6080586 C73.3186813,22.6080586 72.0732601,22.03663 71.1501832,20.9084249 L81.4212454,16.6007326 L81.4065934,16.5421245 Z M70.2417582,18.6080586 C70.2271062,18.5054945 70.2124542,18.3296703 70.2124542,18.1098901 C70.2124542,16.6593407 70.6959707,15.5311355 71.6483516,14.7252747 C72.6153846,13.9194139 73.6703297,13.5091575 74.8424908,13.5091575 C76.3809524,13.5091575 77.4505495,14.0952381 78.0512821,15.2527473 L70.2417582,18.6080586 Z" id="Shape"></path>
                        </g>
                        <g id="Group" transform="translate(40.293040, 26.666667)">
                            <path d="M11.2527473,7.09157509 C10.6373626,6.24175824 9.91941392,5.5970696 9.11355311,5.17216117 C8.30769231,4.74725275 7.3992674,4.52747253 6.38827839,4.52747253 C4.64468864,4.52747253 3.16483516,5.15750916 1.91941392,6.4029304 C0.688644689,7.64835165 0.0586080586,9.15750916 0.0586080586,10.9157509 C0.0586080586,12.7179487 0.673992674,14.2417582 1.89010989,15.5018315 C3.12087912,16.7619048 4.58608059,17.3772894 6.32967033,17.3772894 C7.2967033,17.3772894 8.20512821,17.1721612 9.02564103,16.7765568 C9.84615385,16.3663004 10.5787546,15.7655678 11.2380952,14.974359 L11.2380952,17.0695971 L12.7912088,17.0695971 L12.7912088,0.117216117 L11.2380952,0.117216117 L11.2380952,7.09157509 L11.2527473,7.09157509 Z M10.7399267,13.5238095 C10.3296703,14.2710623 9.72893773,14.8571429 8.96703297,15.2820513 C8.19047619,15.7216117 7.38461538,15.9267399 6.52014652,15.9267399 C5.67032967,15.9267399 4.86446886,15.7069597 4.11721612,15.2673993 C3.36996337,14.8278388 2.78388278,14.2124542 2.34432234,13.4358974 C1.9047619,12.6446886 1.68498168,11.8241758 1.68498168,10.959707 C1.68498168,10.0952381 1.9047619,9.27472527 2.34432234,8.48351648 C2.78388278,7.70695971 3.36996337,7.10622711 4.11721612,6.66666667 C4.86446886,6.24175824 5.67032967,6.02197802 6.53479853,6.02197802 C7.8974359,6.02197802 9.04029304,6.49084249 9.97802198,7.44322344 C10.9157509,8.3956044 11.3699634,9.58241758 11.3699634,10.989011 C11.3553114,11.9413919 11.1501832,12.7765568 10.7399267,13.5238095 Z" id="Shape"></path>
                            <path d="M20.4249084,4.52747253 C18.5347985,4.52747253 16.967033,5.21611722 15.7362637,6.57875458 C14.6080586,7.82417582 14.0512821,9.28937729 14.0512821,10.989011 C14.0512821,12.7032967 14.6520147,14.1831502 15.8388278,15.4725275 C17.025641,16.7472527 18.5641026,17.3919414 20.4395604,17.3919414 C22.3150183,17.3919414 23.8388278,16.7472527 25.025641,15.4725275 C26.2124542,14.1978022 26.8131868,12.7032967 26.8131868,10.989011 C26.8131868,9.28937729 26.2564103,7.80952381 25.1282051,6.57875458 C23.8827839,5.21611722 22.3150183,4.52747253 20.4249084,4.52747253 Z M24.5714286,13.4945055 C24.1465201,14.2564103 23.5604396,14.8424908 22.8278388,15.2673993 C22.0952381,15.6776557 21.3040293,15.8974359 20.4249084,15.8974359 C19.5457875,15.8974359 18.7545788,15.6923077 18.021978,15.2673993 C17.2893773,14.8571429 16.7179487,14.2564103 16.2783883,13.4945055 C15.8534799,12.7326007 15.6336996,11.9120879 15.6336996,11.018315 C15.6336996,9.64102564 16.1025641,8.48351648 17.040293,7.51648352 C17.978022,6.54945055 19.1062271,6.06593407 20.4102564,6.06593407 C21.7142857,6.06593407 22.8278388,6.54945055 23.7802198,7.51648352 C24.7179487,8.48351648 25.2014652,9.65567766 25.2014652,11.018315 C25.2014652,11.9120879 24.996337,12.7326007 24.5714286,13.4945055 Z" id="Shape"></path>
                            <path d="M34.2124542,15.9413919 C33.2307692,15.9413919 32.3516484,15.7216117 31.5604396,15.2967033 C30.7692308,14.8571429 30.1538462,14.2564103 29.6996337,13.4652015 C29.2454212,12.6739927 29.025641,11.8388278 29.025641,10.9450549 C29.025641,9.58241758 29.5238095,8.41025641 30.5054945,7.45787546 C31.4871795,6.50549451 32.7326007,6.02197802 34.2124542,6.02197802 C36.0732601,6.02197802 37.5531136,6.73992674 38.6227106,8.17582418 L39.8681319,7.3992674 C39.5018315,6.78388278 39.0622711,6.28571429 38.5347985,5.87545788 C38.007326,5.47985348 37.3772894,5.15750916 36.6153846,4.90842491 C35.8681319,4.65934066 35.0769231,4.54212454 34.2710623,4.54212454 C32.981685,4.54212454 31.8241758,4.82051282 30.7692308,5.39194139 C29.7289377,5.96336996 28.9084249,6.75457875 28.3076923,7.76556777 C27.7069597,8.77655678 27.4139194,9.87545788 27.4139194,11.0622711 C27.4139194,12.8205128 28.043956,14.3150183 29.3186813,15.5457875 C30.5934066,16.7765568 32.1904762,17.3919414 34.1245421,17.3919414 C35.3846154,17.3919414 36.4981685,17.1428571 37.4945055,16.6593407 C38.4761905,16.1758242 39.2673993,15.4871795 39.8534799,14.6080586 L38.6080586,13.7875458 C37.4652015,15.2234432 36,15.9413919 34.2124542,15.9413919 Z" id="Path"></path>
                        </g>
                        <path d="M116.278388,17.0695971 C115.721612,16.5714286 115.179487,16.1172161 114.798535,15.7509158 C114.637363,15.6043956 114.461538,15.4285714 114.271062,15.2380952 C112.820513,13.8021978 110.857143,11.8388278 108.659341,11.8388278 L102.769231,11.8388278 C98.3589744,11.8388278 94.7692308,15.4285714 94.7692308,19.8534799 L94.7692308,29.0695971 C94.7692308,33.4798535 98.3589744,37.0842491 102.769231,37.0842491 L111.985348,37.0842491 C116.395604,37.0842491 119.985505,33.4945055 119.985505,29.0695971 L119.985505,21.6703297 C120,20.4542125 118.989011,19.4432234 116.278388,17.0695971 Z M116.014652,21.1868132 C115.70696,20.9084249 115.428571,20.6446886 115.164835,20.4102564 C115.457875,20.6739927 115.750916,20.9377289 116.014652,21.1868132 Z M112,33.8315018 L102.783883,33.8315018 C100.14652,33.8315018 98.007326,31.6923077 98.007326,29.0549451 L98.007326,19.8388278 C98.007326,17.2014652 100.14652,15.0622711 102.783883,15.0622711 L108.673993,15.0622711 C108.849817,15.0622711 109.069597,15.1355311 109.304029,15.2673993 L109.304029,22.3296703 L116.776557,22.3296703 L116.776557,29.0549451 C116.776557,31.6923077 114.637363,33.8315018 112,33.8315018 Z" id="Shape"></path>
                    </g>
                </g>
            </g>
        </g>
    </g>
</svg>