<svg enable-background="new 0 0 841.9 299.7" viewBox="0 0 841.9 299.7" xmlns="http://www.w3.org/2000/svg"><g fill="#085784"><path d="m778 57.1c-.3-33.3-21.4-54.5-56.4-56.7-7.8-.5-31.6-.6-47.2 0-9.1.3-18.4 8.3-37.1 24.8-2.3 2-4.6 4.1-7 6.2-7.9 6.9-15.2 13.8-20.6 19.5-8.9 9.4-11.9 14.3-11.7 19.7.1 4.9.1 18 0 31.8v21c0 11.8 5.1 25.5 13.6 36.5 9.8 12.8 22.3 20 35.1 20.3l.6-22.1c-13.1-.3-27.2-20.7-27.2-34.8 0-6.4 0-13.8 0-20.9 0-9 .1-17.7 0-24.1h54.5v-55.2c.5-.3.9-.5 1.2-.6 15.6-.5 37.8-.4 44.3 0 23.5 1.5 35.5 13.2 35.7 34.9 0 2.2-.1 5-.1 7.6-.1 2.5-.1 5.1-.1 7.4h22.1c0-2.1.1-4.5.1-6.9.1-2.9.2-5.8.2-8.4z"/><path d="m66.1 72.6c-12.9 0-23.3 6.1-31.2 18.2v-16.8h-20.3v131.1h20.2v-49.5c9.6 10.6 20.5 15.9 32.6 15.9s22.7-4.6 31.8-13.9 13.6-21.3 13.6-36.1-4.6-26.7-13.7-35.6-20.1-13.3-33-13.3zm17.7 72.2c-5.9 5.8-12.8 8.7-20.8 8.7-7.9 0-14.7-2.9-20.2-8.8-5.5-5.8-8.3-13.3-8.3-22.5 0-9.1 2.8-16.8 8.3-22.8 5.5-6.1 12.3-9.1 20.4-9.1s15 3 20.8 9.1 8.7 13.7 8.7 22.9c-.1 9.2-3 16.7-8.9 22.5z"/><path d="m212 111.9c-.1-11.7-4.5-21.2-13.2-28.4-8.7-7.3-19.6-10.9-32.7-10.9-8.3 0-16.2 1.8-23.7 5.5s-13.7 9.4-18.8 17.2-7.6 16.8-7.6 27c0 14.8 4.9 26.7 14.6 35.8 9.8 9 21.4 13.5 35 13.5 15.5 0 29-5.9 40.5-17.7l-11.9-13.2c-7 8.4-15.9 12.6-26.6 12.6-10.8 0-19.3-3.9-25.6-11.6l70.1-29.4zm-76.2 14.1c-.1-.7-.2-1.9-.2-3.4 0-9.9 3.3-17.6 9.8-23.1 6.6-5.5 13.8-8.3 21.8-8.3 10.5 0 17.8 4 21.9 11.9z"/><path d="m263.7 72.6c-14.4 0-26.5 4.8-36.1 14.4s-14.4 21.3-14.4 35.1 4.8 25.6 14.4 35.1c9.6 9.6 21.7 14.4 36.1 14.4s26.5-4.8 36.1-14.4 14.4-21.3 14.4-35.1-4.8-25.6-14.4-35.1c-9.6-9.7-21.7-14.4-36.1-14.4zm21.7 72.1c-5.7 5.8-13 8.8-21.8 8.8s-16-2.9-21.8-8.8c-5.7-5.8-8.6-13.4-8.6-22.7s2.9-16.8 8.6-22.7c5.7-5.8 13-8.8 21.8-8.8s16 2.9 21.8 8.8c5.7 5.8 8.6 13.4 8.6 22.7s-2.8 16.9-8.6 22.7z"/><path d="m375.1 72.6c-12.9 0-23.3 6.1-31.2 18.2v-16.8h-20.2v131.1h20.2v-49.5c9.6 10.6 20.5 15.9 32.6 15.9s22.7-4.6 31.8-13.9 13.6-21.3 13.6-36.1-4.6-26.7-13.7-35.6c-9.2-8.9-20.2-13.3-33.1-13.3zm17.7 72.2c-5.9 5.8-12.8 8.7-20.8 8.7-7.9 0-14.7-2.9-20.2-8.8-5.5-5.8-8.3-13.3-8.3-22.5 0-9.1 2.8-16.8 8.3-22.8 5.5-6.1 12.3-9.1 20.4-9.1s15 3 20.8 9.1 8.7 13.7 8.7 22.9-3 16.7-8.9 22.5z"/><path d="m461.6 152.9c-7.2 0-10.8-4.8-10.8-14.4v-94.7h-20.2v97c0 10.1 2.6 17.8 7.9 22.9 5.2 5.2 12.2 7.8 20.9 7.8s15.4-2.8 20.2-8.3l-8.8-14.8c-2 3-5 4.5-9.2 4.5z"/><path d="m569.6 111.9c-.1-11.7-4.5-21.2-13.2-28.4-8.7-7.3-19.6-10.9-32.7-10.9-8.3 0-16.2 1.8-23.7 5.5s-13.7 9.4-18.8 17.2-7.6 16.8-7.6 27c0 14.8 4.9 26.7 14.6 35.8 9.8 9 21.4 13.5 35 13.5 15.5 0 29-5.9 40.5-17.7l-11.9-13.2c-7 8.4-15.9 12.6-26.6 12.6-10.8 0-19.3-3.9-25.6-11.6l70.1-29.4zm-76.2 14.1c-.1-.7-.2-1.9-.2-3.4 0-9.9 3.3-17.6 9.8-23.1 6.6-5.5 13.8-8.3 21.8-8.3 10.5 0 17.8 4 21.9 11.9z"/></g><path d="m365.8 229.4c-4.2-5.8-9.1-10.2-14.6-13.1s-11.7-4.4-18.6-4.4c-11.9 0-22 4.3-30.5 12.8-8.4 8.5-12.7 18.8-12.7 30.8 0 12.3 4.2 22.7 12.5 31.3 8.4 8.6 18.4 12.8 30.3 12.8 6.6 0 12.8-1.4 18.4-4.1 5.6-2.8 10.6-6.9 15.1-12.3v14.3h10.6v-115.7h-10.6v47.6zm-3.5 43.9c-2.8 5.1-6.9 9.1-12.1 12-5.3 3-10.8 4.4-16.7 4.4-5.8 0-11.3-1.5-16.4-4.5s-9.1-7.2-12.1-12.5c-3-5.4-4.5-11-4.5-16.9s1.5-11.5 4.5-16.9c3-5.3 7-9.4 12.1-12.4 5.1-2.9 10.6-4.4 16.5-4.4 9.3 0 17.1 3.2 23.5 9.7s9.5 14.6 9.5 24.2c-.1 6.5-1.5 12.2-4.3 17.3z" fill="#31a6ea"/><path d="m428.4 211.9c-12.9 0-23.6 4.7-32 14-7.7 8.5-11.5 18.5-11.5 30.1 0 11.7 4.1 21.8 12.2 30.6 8.1 8.7 18.6 13.1 31.4 13.1s23.2-4.4 31.3-13.1 12.2-18.9 12.2-30.6c0-11.6-3.8-21.7-11.5-30.1-8.5-9.3-19.2-14-32.1-14zm28.3 61.2c-2.9 5.2-6.9 9.2-11.9 12.1-5 2.8-10.4 4.3-16.4 4.3s-11.4-1.4-16.4-4.3c-5-2.8-8.9-6.9-11.9-12.1-2.9-5.2-4.4-10.8-4.4-16.9 0-9.4 3.2-17.3 9.6-23.9s14.1-9.9 23-9.9 16.5 3.3 23 9.9c6.4 6.6 9.7 14.6 9.7 23.9 0 6.1-1.4 11.7-4.3 16.9z" fill="#31a6ea"/><path d="m522.5 289.8c-6.7 0-12.7-1.5-18.1-4.4-5.4-3-9.6-7.1-12.7-12.5s-4.6-11.1-4.6-17.2c0-9.3 3.4-17.3 10.1-23.8s15.2-9.8 25.3-9.8c12.7 0 22.8 4.9 30.1 14.7l8.5-5.3c-2.5-4.2-5.5-7.6-9.1-10.4-3.6-2.7-7.9-4.9-13.1-6.6-5.1-1.7-10.5-2.5-16-2.5-8.8 0-16.7 1.9-23.9 5.8-7.1 3.9-12.7 9.3-16.8 16.2s-6.1 14.4-6.1 22.5c0 12 4.3 22.2 13 30.6s19.6 12.6 32.8 12.6c8.6 0 16.2-1.7 23-5 6.7-3.3 12.1-8 16.1-14l-8.5-5.6c-7.8 9.8-17.8 14.7-30 14.7z" fill="#31a6ea"/><path d="m807.6 115.5c-3.8-3.4-7.5-6.5-10.1-9-1.1-1-2.3-2.2-3.6-3.5-9.9-9.8-23.3-23.2-38.3-23.2h-40.2c-30.1 0-54.6 24.5-54.6 54.7v62.9c0 30.1 24.5 54.7 54.6 54.7h62.9c30.1 0 54.6-24.5 54.6-54.7v-50.5c.1-8.3-6.8-15.2-25.3-31.4zm-1.8 28.1c-2.1-1.9-4-3.7-5.8-5.3 2 1.8 4 3.6 5.8 5.3zm-27.4 86.3h-62.9c-18 0-32.6-14.6-32.6-32.6v-62.9c0-18 14.6-32.6 32.6-32.6h40.2c1.2 0 2.7.5 4.3 1.4v48.2h51v45.9c0 18-14.6 32.6-32.6 32.6z" fill="#31a6ea"/></svg>