<?xml version="1.0" encoding="utf-8"?>
<!-- Generator: Adobe Illustrator 21.0.2, SVG Export Plug-In . SVG Version: 6.00 Build 0)  -->
<svg version="1.1" id="Calque_1" xmlns="http://www.w3.org/2000/svg" xmlns:xlink="http://www.w3.org/1999/xlink" x="0px" y="0px"
	 viewBox="0 0 841.9 299.7" style="enable-background:new 0 0 841.9 299.7;" xml:space="preserve">
<style type="text/css">
	.st0{fill:#085784;}
	.st1{fill:#31A6EA;}
</style>
<g>
	<path class="st0" d="M778,57.1c-0.3-33.3-21.4-54.5-56.4-56.7c-7.8-0.5-31.6-0.6-47.2,0c-9.1,0.3-18.4,8.3-37.1,24.8
		c-2.3,2-4.6,4.1-7,6.2c-7.9,6.9-15.2,13.8-20.6,19.5c-8.9,9.4-11.9,14.3-11.7,19.7c0.1,4.9,0.1,18,0,31.8c0,7.2,0,14.5,0,21
		c0,11.8,5.1,25.5,13.6,36.5c9.8,12.8,22.3,20,35.1,20.3l0.6-22.1c-13.1-0.3-27.2-20.7-27.2-34.8c0-6.4,0-13.8,0-20.9
		c0-9,0.1-17.7,0-24.1h54.5l0-55.2c0.5-0.3,0.9-0.5,1.2-0.6c15.6-0.5,37.8-0.4,44.3,0c23.5,1.5,35.5,13.2,35.7,34.9
		c0,2.2-0.1,5-0.1,7.6c-0.1,2.5-0.1,5.1-0.1,7.4h22.1c0-2.1,0.1-4.5,0.1-6.9C777.9,62.6,778,59.7,778,57.1z"/>
	<path class="st0" d="M66.1,72.6c-12.9,0-23.3,6.1-31.2,18.2V74H14.6v131.1h20.2v-49.5c9.6,10.6,20.5,15.9,32.6,15.9
		s22.7-4.6,31.8-13.9c9.1-9.3,13.6-21.3,13.6-36.1c0-14.8-4.6-26.7-13.7-35.6C90,77,79,72.6,66.1,72.6z M83.8,144.8
		c-5.9,5.8-12.8,8.7-20.8,8.7c-7.9,0-14.7-2.9-20.2-8.8c-5.5-5.8-8.3-13.3-8.3-22.5c0-9.1,2.8-16.8,8.3-22.8
		c5.5-6.1,12.3-9.1,20.4-9.1c8.1,0,15,3,20.8,9.1c5.8,6.1,8.7,13.7,8.7,22.9C92.6,131.5,89.7,139,83.8,144.8z"/>
	<path class="st0" d="M212,111.9c-0.1-11.7-4.5-21.2-13.2-28.4c-8.7-7.3-19.6-10.9-32.7-10.9c-8.3,0-16.2,1.8-23.7,5.5
		c-7.5,3.7-13.7,9.4-18.8,17.2c-5.1,7.8-7.6,16.8-7.6,27c0,14.8,4.9,26.7,14.6,35.8c9.8,9,21.4,13.5,35,13.5
		c15.5,0,29-5.9,40.5-17.7l-11.9-13.2c-7,8.4-15.9,12.6-26.6,12.6c-10.8,0-19.3-3.9-25.6-11.6l70.1-29.4L212,111.9z M135.8,126
		c-0.1-0.7-0.2-1.9-0.2-3.4c0-9.9,3.3-17.6,9.8-23.1c6.6-5.5,13.8-8.3,21.8-8.3c10.5,0,17.8,4,21.9,11.9L135.8,126z"/>
	<path class="st0" d="M263.7,72.6c-14.4,0-26.5,4.8-36.1,14.4c-9.6,9.6-14.4,21.3-14.4,35.1c0,13.8,4.8,25.6,14.4,35.1
		c9.6,9.6,21.7,14.4,36.1,14.4s26.5-4.8,36.1-14.4c9.6-9.6,14.4-21.3,14.4-35.1c0-13.8-4.8-25.6-14.4-35.1
		C290.2,77.3,278.1,72.6,263.7,72.6z M285.4,144.7c-5.7,5.8-13,8.8-21.8,8.8c-8.8,0-16-2.9-21.8-8.8c-5.7-5.8-8.6-13.4-8.6-22.7
		c0-9.3,2.9-16.8,8.6-22.7c5.7-5.8,13-8.8,21.8-8.8c8.8,0,16,2.9,21.8,8.8c5.7,5.8,8.6,13.4,8.6,22.7
		C294,131.3,291.2,138.9,285.4,144.7z"/>
	<path class="st0" d="M375.1,72.6c-12.9,0-23.3,6.1-31.2,18.2V74h-20.2v131.1h20.2v-49.5c9.6,10.6,20.5,15.9,32.6,15.9
		s22.7-4.6,31.8-13.9c9.1-9.3,13.6-21.3,13.6-36.1c0-14.8-4.6-26.7-13.7-35.6C399,77,388,72.6,375.1,72.6z M392.8,144.8
		c-5.9,5.8-12.8,8.7-20.8,8.7c-7.9,0-14.7-2.9-20.2-8.8c-5.5-5.8-8.3-13.3-8.3-22.5c0-9.1,2.8-16.8,8.3-22.8
		c5.5-6.1,12.3-9.1,20.4-9.1c8.1,0,15,3,20.8,9.1c5.8,6.1,8.7,13.7,8.7,22.9C401.7,131.5,398.7,139,392.8,144.8z"/>
	<path class="st0" d="M461.6,152.9c-7.2,0-10.8-4.8-10.8-14.4V43.8h-20.2v97c0,10.1,2.6,17.8,7.9,22.9c5.2,5.2,12.2,7.8,20.9,7.8
		c8.7,0,15.4-2.8,20.2-8.3l-8.8-14.8C468.8,151.4,465.8,152.9,461.6,152.9z"/>
	<path class="st0" d="M569.6,111.9c-0.1-11.7-4.5-21.2-13.2-28.4c-8.7-7.3-19.6-10.9-32.7-10.9c-8.3,0-16.2,1.8-23.7,5.5
		c-7.5,3.7-13.7,9.4-18.8,17.2c-5.1,7.8-7.6,16.8-7.6,27c0,14.8,4.9,26.7,14.6,35.8c9.8,9,21.4,13.5,35,13.5
		c15.5,0,29-5.9,40.5-17.7l-11.9-13.2c-7,8.4-15.9,12.6-26.6,12.6c-10.8,0-19.3-3.9-25.6-11.6l70.1-29.4L569.6,111.9z M493.4,126
		c-0.1-0.7-0.2-1.9-0.2-3.4c0-9.9,3.3-17.6,9.8-23.1c6.6-5.5,13.8-8.3,21.8-8.3c10.5,0,17.8,4,21.9,11.9L493.4,126z"/>
</g>
<g>
	<path class="st1" d="M365.8,229.4c-4.2-5.8-9.1-10.2-14.6-13.1c-5.5-2.9-11.7-4.4-18.6-4.4c-11.9,0-22,4.3-30.5,12.8
		c-8.4,8.5-12.7,18.8-12.7,30.8c0,12.3,4.2,22.7,12.5,31.3c8.4,8.6,18.4,12.8,30.3,12.8c6.6,0,12.8-1.4,18.4-4.1
		c5.6-2.8,10.6-6.9,15.1-12.3v14.3h10.6V181.8h-10.6V229.4z M362.3,273.3c-2.8,5.1-6.9,9.1-12.1,12c-5.3,3-10.8,4.4-16.7,4.4
		c-5.8,0-11.3-1.5-16.4-4.5c-5.1-3-9.1-7.2-12.1-12.5c-3-5.4-4.5-11-4.5-16.9c0-5.9,1.5-11.5,4.5-16.9c3-5.3,7-9.4,12.1-12.4
		c5.1-2.9,10.6-4.4,16.5-4.4c9.3,0,17.1,3.2,23.5,9.7c6.4,6.5,9.5,14.6,9.5,24.2C366.5,262.5,365.1,268.2,362.3,273.3z"/>
	<path class="st1" d="M428.4,211.9c-12.9,0-23.6,4.7-32,14c-7.7,8.5-11.5,18.5-11.5,30.1c0,11.7,4.1,21.8,12.2,30.6
		c8.1,8.7,18.6,13.1,31.4,13.1c12.8,0,23.2-4.4,31.3-13.1c8.1-8.7,12.2-18.9,12.2-30.6c0-11.6-3.8-21.7-11.5-30.1
		C452,216.6,441.3,211.9,428.4,211.9z M456.7,273.1c-2.9,5.2-6.9,9.2-11.9,12.1c-5,2.8-10.4,4.3-16.4,4.3c-6,0-11.4-1.4-16.4-4.3
		c-5-2.8-8.9-6.9-11.9-12.1c-2.9-5.2-4.4-10.8-4.4-16.9c0-9.4,3.2-17.3,9.6-23.9c6.4-6.6,14.1-9.9,23-9.9c8.9,0,16.5,3.3,23,9.9
		c6.4,6.6,9.7,14.6,9.7,23.9C461,262.3,459.6,267.9,456.7,273.1z"/>
	<path class="st1" d="M522.5,289.8c-6.7,0-12.7-1.5-18.1-4.4c-5.4-3-9.6-7.1-12.7-12.5c-3.1-5.4-4.6-11.1-4.6-17.2
		c0-9.3,3.4-17.3,10.1-23.8c6.7-6.5,15.2-9.8,25.3-9.8c12.7,0,22.8,4.9,30.1,14.7l8.5-5.3c-2.5-4.2-5.5-7.6-9.1-10.4
		c-3.6-2.7-7.9-4.9-13.1-6.6c-5.1-1.7-10.5-2.5-16-2.5c-8.8,0-16.7,1.9-23.9,5.8c-7.1,3.9-12.7,9.3-16.8,16.2
		c-4.1,6.9-6.1,14.4-6.1,22.5c0,12,4.3,22.2,13,30.6c8.7,8.4,19.6,12.6,32.8,12.6c8.6,0,16.2-1.7,23-5c6.7-3.3,12.1-8,16.1-14
		l-8.5-5.6C544.7,284.9,534.7,289.8,522.5,289.8z"/>
</g>
<path class="st1" d="M807.6,115.5c-3.8-3.4-7.5-6.5-10.1-9c-1.1-1-2.3-2.2-3.6-3.5c-9.9-9.8-23.3-23.2-38.3-23.2h-40.2
	c-30.1,0-54.6,24.5-54.6,54.7v62.9c0,30.1,24.5,54.7,54.6,54.7h62.9c30.1,0,54.6-24.5,54.6-54.7v-50.5
	C833,138.6,826.1,131.7,807.6,115.5z M805.8,143.6c-2.1-1.9-4-3.7-5.8-5.3C802,140.1,804,141.9,805.8,143.6z M778.4,229.9h-62.9
	c-18,0-32.6-14.6-32.6-32.6v-62.9c0-18,14.6-32.6,32.6-32.6h40.2c1.2,0,2.7,0.5,4.3,1.4v48.2h51v45.9
	C811,215.3,796.4,229.9,778.4,229.9z"/>
</svg>
