<?xml version="1.0" encoding="UTF-8"?>
<svg width="50px" height="50px" viewBox="0 0 50 50" version="1.1" xmlns="http://www.w3.org/2000/svg" xmlns:xlink="http://www.w3.org/1999/xlink">
    <title>564585A7-F7FE-4755-8112-2611C9D0A02E@1x</title>
    <g id="Symbols" stroke="none" stroke-width="1" fill="none" fill-rule="evenodd">
        <g id="2021-/-sponsor-grid" transform="translate(-256.000000, -505.000000)" fill="#555555" fill-rule="nonzero">
            <g id="sponsors" transform="translate(0.000000, 1.000000)">
                <g id="row-6" transform="translate(0.000000, 499.000000)">
                    <g id="Phorest" transform="translate(256.000000, 5.000000)">
                        <path d="M42.6748101,7.3218232 C52.4376554,17.0848066 52.4364123,32.9117403 42.6748101,42.6747238 C32.9118267,52.4366022 17.0847548,52.4377072 7.32177141,42.6747238 C-2.44024516,32.9117403 -2.44093577,17.0848066 7.32177141,7.3218232 C17.0840642,-2.44060773 32.9118267,-2.44060773 42.6748101,7.3218232 Z M9.57276504,36.075198 C8.93864902,36.4881815 8.72248879,37.3611096 9.49072084,38.1008886 C9.88436725,38.4801704 11.0926545,39.1394246 12.5734556,39.1066897 C13.8053617,39.0794798 14.8190358,37.9488168 14.8190358,37.9488168 C14.8190358,37.9488168 15.8289805,36.7548942 15.2553617,36.1903914 C14.6108866,35.5564135 13.9215219,36.1388721 13.9215219,36.1388721 C12.6363009,37.5536511 11.2818811,36.5812754 11.0930689,36.1711925 C10.869312,35.6850047 10.2071573,35.6620765 9.57276504,36.075198 Z M15.0715219,16.6087616 L14.969586,16.7105138 C13.6759825,18.0194805 6.30395841,26.1245406 14.7081242,34.3920489 C18.3585385,37.9833472 25.1787043,41.6492312 33.3403065,34.8243693 C33.3403065,34.8243693 35.9811905,32.8952257 34.103428,31.2314135 L34.0918791,31.2354517 C33.8308597,31.3243477 29.1711155,32.7900126 22.7376822,26.4890102 C16.1146159,20.0025461 17.868207,16.4189826 17.868207,16.4189826 C17.868207,16.4189826 16.1485938,15.5492312 15.0715219,16.6087616 Z M24.9769087,10.5180157 C21.461338,12.5597217 19.2862485,15.28804 19.0824101,15.5493591 L19.0666877,15.5696732 L19.0666877,15.5696732 C19.0666877,15.5696732 19.0648679,15.5725095 19.0614594,15.5781354 L19.0466985,15.6033353 C18.81474,16.0106181 16.7739471,20.0721163 24.1585385,25.516082 C30.3078479,30.0495074 34.1701407,28.9316897 35.1324335,28.5129052 C36.5441739,27.8985406 38.2135109,25.7026842 39.1222126,23.5943969 C40.030638,21.4863859 40.7139253,15.8611096 39.265859,11.9388721 C38.6679308,10.5261649 37.6702788,9.62892732 35.9981794,9.33431406 C34.3258037,9.0397008 28.672765,8.37146876 24.9769087,10.5180157 Z" id="Combined-Shape"></path>
                    </g>
                </g>
            </g>
        </g>
    </g>
</svg>