<svg version="1.1" xmlns="http://www.w3.org/2000/svg" viewBox="0 0 800 362">
<style type="text/css">
  .st0{fill:#6D4887;}
  .st1{fill:#FFFFFF;}
</style>
<g>
  <path class="st0" d="M272,309c-70.7-70.7-70.7-185.3,0-256s185.3-70.7,256,0s70.7,185.3,0,256C457.3,379.6,342.7,379.6,272,309"/>
  <path class="st1" d="M502.3,90.3c-4.3-10.2-11.6-16.7-23.7-18.9c-12.1-2.1-53-7-79.8,8.6C372,95.5,356,116.6,356,116.6 s-19.5,30.4,36.9,72c44.5,32.8,72.5,24.7,79.5,21.7c10.2-4.4,22.3-20.3,28.9-35.6C507.9,159.4,512.8,118.7,502.3,90.3 M465,230 c0,0-34.3,12.6-82.3-34.3c-48-47-35.3-72.9-35.3-72.9s-12.4-6.3-20.2,1.4c-6.7,6.6-65.4,67-2.6,128.8c26.4,26,75.8,52.5,134.9,3.1 C459.4,256,478.5,242,465,230 M318.8,265.5c-9.3,10.2-19.1,3.2-20.5,0.2c-1.6-3.5-6.4-3.7-11-0.7c-4.6,3-6.2,9.3-0.6,14.7 c2.9,2.7,11.6,7.5,22.3,7.3c8.9-0.2,16.3-8.4,16.3-8.4s7.3-8.6,3.2-12.7C323.8,261.3,318.8,265.5,318.8,265.5"/>
</g>
</svg>
