<svg clip-rule="evenodd" fill-rule="evenodd" stroke-linejoin="round" stroke-miterlimit="1.41421" viewBox="0 0 362 362" xmlns="http://www.w3.org/2000/svg"><g fill-rule="nonzero"><path d="m53.01 308.965c-70.677-70.684-70.682-185.271 0-255.955 70.679-70.68 185.272-70.68 255.956 0 70.683 70.684 70.674 185.271 0 255.955-70.684 70.676-185.272 70.684-255.956 0" fill="#6d4887"/><path d="m283.328 90.299c-4.329-10.228-11.552-16.724-23.658-18.857-12.108-2.133-53.036-6.971-79.794 8.57-26.758 15.54-42.79 36.574-42.79 36.574s-19.529 30.438 36.865 72.012c44.521 32.822 72.484 24.729 79.451 21.697 10.221-4.448 22.307-20.346 28.886-35.61 6.577-15.262 11.524-55.989 1.04-84.386m-37.376 139.678s-34.34 12.626-82.288-34.335c-47.951-46.962-35.255-72.907-35.255-72.907s-12.45-6.297-20.248 1.374c-6.693 6.585-65.359 67.043-2.631 128.751 26.429 26.001 75.807 52.542 134.897 3.13 0 0 19.12-13.967 5.525-26.013m-146.117 35.53c-9.305 10.243-19.111 3.203-20.478.234-1.62-3.52-6.414-3.686-11.007-.695-4.591 2.99-6.156 9.31-.594 14.666 2.85 2.746 11.598 7.519 22.319 7.282 8.919-.197 16.258-8.383 16.258-8.383s7.312-8.644 3.159-12.731c-4.666-4.59-9.657-.373-9.657-.373" fill="#fff"/></g></svg>