<svg width="214" height="33" xmlns="http://www.w3.org/2000/svg"><g fill="none"><path d="M29.517 16.292c0-2.562-2.028-4.494-4.718-4.494s-4.72 1.932-4.72 4.494v5.897h2.23v-5.882c0-1.537 1-2.57 2.49-2.57 1.49 0 2.49 1.033 2.49 2.57v5.882h2.228v-5.897zm-10.662-3.759c0-2.494-1.947-4.376-4.528-4.376H8.309c-.617 0-1.137.522-1.137 1.136v12.911h2.274v-5.253h4.88c2.582 0 4.529-1.9 4.529-4.418zm16.81 5.333L28.354 30.53c-.551.956-1.902 1.735-3.003 1.735H10.727c-1.1 0-2.452-.779-3.002-1.735L.412 17.866c-.55-.953-.55-2.514 0-3.468L7.725 1.735C8.275.78 9.627 0 10.727 0h14.624c1.101 0 2.452.78 3.003 1.735l7.311 12.663c.55.954.55 2.515 0 3.468zM16.56 12.533c0 1.447-1.129 2.54-2.627 2.54H9.446v-5.036h4.486c1.524 0 2.627 1.05 2.627 2.496z" fill="#00B3E4"/><path d="M52.28 10.505h-4.058v4.33h4.057c1.22 0 2.271-.861 2.271-2.186 0-1.345-1.051-2.144-2.27-2.144zm.378 6.643h-4.436v5.046H45.53V9.538c0-.736.61-1.346 1.346-1.346h5.782c2.775 0 4.604 2.04 4.604 4.457 0 2.418-1.829 4.5-4.604 4.5z" fill="#FFF"/><path d="M61.236 17.632v4.562H58.67V11.956h2.502v1.85c.441-.946 1.955-2.04 3.49-2.04v2.418c-2.271 0-3.427 1.409-3.427 3.448z" fill="#FFF"/><path d="M70.673 13.742c-1.324 0-2.27.8-2.46 2.355h4.794c-.147-1.471-.904-2.355-2.334-2.355zm-2.48 4.164c.041 1.534 1.387 2.438 3.28 2.438.966 0 2.06-.147 3.006-.4l.462 1.851a10.766 10.766 0 0 1-3.49.568c-3.7 0-5.76-2.145-5.76-5.299 0-2.817 1.87-5.298 4.982-5.298 2.965 0 4.773 2.186 4.773 5.362v.778h-7.254z" fill="#FFF"/><path d="M82.574 22.363c-3.407 0-5.656-2.313-5.656-5.299 0-2.985 2.25-5.298 5.656-5.298.946 0 1.829.126 2.67.442l-.421 1.85a9.027 9.027 0 0 0-2.04-.231c-2.228 0-3.3 1.324-3.3 3.237s1.072 3.259 3.3 3.259c.716 0 1.262-.105 2.04-.315l.42 1.87c-.715.274-1.829.485-2.67.485z" fill="#FFF"/><path d="M87.766 22.194V11.956h2.565v10.238h-2.565zm0-11.941v-2.46h2.565v2.46h-2.565z" fill="#FFF"/><path d="M96.828 22.363c-1.325 0-2.922-.379-4.184-.925l.568-1.787c1.24.441 2.543.735 3.595.735 1.345 0 1.808-.4 1.808-.967 0-.61-.4-.778-1.955-1.409-2.734-1.114-3.638-1.66-3.638-3.384 0-1.913 1.472-2.86 4.142-2.86.988 0 2.481.169 3.595.547l-.441 1.871c-.841-.232-2.103-.442-3.112-.442-1.345 0-1.724.253-1.724.8 0 .672.484.84 2.292 1.555 2.565 1.01 3.343 1.493 3.343 3.217 0 1.83-1.703 3.049-4.289 3.049z" fill="#FFF"/><path d="M103.367 22.194V11.956h2.564v10.238h-2.564zm0-11.941v-2.46h2.564v2.46h-2.564z" fill="#FFF"/><path d="M113.268 13.764c-1.64 0-2.607 1.324-2.607 3.3 0 1.977.968 3.28 2.607 3.28 1.64 0 2.65-1.303 2.65-3.28 0-1.976-1.01-3.3-2.65-3.3zm0 8.599c-3.111 0-5.192-2.481-5.192-5.299 0-2.817 2.08-5.298 5.192-5.298s5.215 2.481 5.215 5.298c0 2.818-2.103 5.299-5.215 5.299z" fill="#FFF"/><path d="M127.439 22.194v-6.118c0-1.261-.568-2.018-1.85-2.018-1.157 0-2.397 1.01-2.397 2.439v5.697h-2.565V11.956h2.502v1.619c.652-.968 1.976-1.809 3.49-1.809 2.312 0 3.385 1.577 3.385 3.932v6.496h-2.565z" fill="#FFF"/><path d="M144.91 22.3c-.252 0-.525-.064-.714-.316l-8.116-10.512v10.722h-1.85V8.991c0-.526.441-.946.946-.946.295 0 .546.085.736.336l8.094 10.492V8.193h1.85v13.182c0 .546-.44.925-.946.925z" fill="#FFF"/><path d="M155.717 22.194v-1.787a4.136 4.136 0 0 1-3.532 1.956c-2.313 0-3.47-1.493-3.47-3.763v-6.644h1.872v6.412c0 1.514.652 2.312 2.166 2.312 1.45 0 2.943-1.261 2.943-3.3v-5.424h1.85v10.238h-1.83z" fill="#FFF"/><path d="M163.811 22.363c-1.682 0-2.775-.8-2.775-2.986v-6.034h-1.387v-1.387h1.387V9.055h1.85v2.9h1.997v1.388h-1.997v5.992c0 1.24.442 1.577 1.178 1.577.273 0 .652-.042.988-.105l.189 1.366a5.78 5.78 0 0 1-1.43.19z" fill="#FFF"/><path d="M169.425 17.254v4.94h-1.85V11.956h1.829v2.039c.567-1.114 1.955-2.207 3.511-2.207v1.618c-1.976 0-3.49 1.955-3.49 3.848z" fill="#FFF"/><path d="M174.828 22.194V11.956h1.85v10.238h-1.85zm0-11.941v-2.25h1.85v2.25h-1.85z" fill="#FFF"/><path d="M183.49 22.363c-1.682 0-2.774-.8-2.774-2.986v-6.034h-1.388v-1.387h1.388V9.055h1.85v2.9h1.997v1.388h-1.998v5.992c0 1.24.442 1.577 1.178 1.577.273 0 .652-.042.988-.105l.19 1.366a5.78 5.78 0 0 1-1.43.19z" fill="#FFF"/><path d="M187.254 22.194V11.956h1.85v10.238h-1.85zm0-11.941v-2.25h1.85v2.25h-1.85z" fill="#FFF"/><path d="M196.61 13.28c-1.935 0-3.112 1.535-3.112 3.784 0 2.25 1.177 3.785 3.112 3.785 1.934 0 3.132-1.535 3.132-3.785s-1.198-3.784-3.132-3.784zm0 9.083c-3.028 0-4.962-2.46-4.962-5.299 0-2.838 1.934-5.298 4.962-5.298 3.027 0 4.982 2.46 4.982 5.298s-1.934 5.299-4.982 5.299z" fill="#FFF"/><path d="M210.549 22.194v-6.433c0-1.514-.652-2.313-2.166-2.313-1.45 0-2.943 1.283-2.943 3.323v5.423h-1.85V11.956h1.829v1.786a4.155 4.155 0 0 1 3.532-1.976c2.313 0 3.448 1.514 3.448 3.785v6.643h-1.85z" fill="#FFF"/></g></svg>