<?xml version="1.0" encoding="UTF-8"?>
<svg width="213px" height="33px" viewBox="0 0 213 33" version="1.1" xmlns="http://www.w3.org/2000/svg" xmlns:xlink="http://www.w3.org/1999/xlink">
    <title>PrecisionNutrition</title>
    <g id="Symbols" stroke="none" stroke-width="1" fill="none" fill-rule="evenodd">
        <g id="2021-/-sponsor-grid" transform="translate(0.000000, -296.000000)" fill="#000000" fill-rule="nonzero">
            <g id="sponsors" transform="translate(0.000000, 1.070008)">
                <g id="PrecisionNutrition" transform="translate(0.000000, 294.929992)">
                    <path d="M25.3514194,0 C26.4521085,0 27.8029783,0.780161666 28.3535873,1.73486797 L35.6654211,14.3983463 C36.2155012,15.3519948 36.2155012,16.913376 35.6654211,17.8664955 L28.3535873,30.529445 C27.8029783,31.4852091 26.4521085,32.2643129 25.3514194,32.2643129 L10.7272229,32.2643129 C9.62706272,32.2643129 8.27513512,31.4852091 7.72505503,30.529445 L0.412163375,17.8664955 C-0.137387792,16.913376 -0.137387792,15.3519948 0.412163375,14.3983463 L7.72505503,1.73486797 C8.27513512,0.780161666 9.62706272,0 10.7272229,0 L25.3514194,0 Z M14.326545,8.1565241 L8.3089862,8.1565241 C7.69226179,8.1565241 7.1718014,8.67857126 7.1718014,9.29317998 L7.1718014,22.2041944 L9.44564208,22.2041944 L9.44564208,16.9514585 L14.326545,16.9514585 C16.908219,16.9514585 18.8546562,15.0515665 18.8546562,12.5333633 C18.8546562,10.0389616 16.908219,8.1565241 14.326545,8.1565241 Z M24.7986947,11.7981601 C22.1080626,11.7981601 20.0791133,13.7297875 20.0791133,16.2918913 L20.0791133,22.1888556 L22.3090534,22.1888556 L22.3090534,16.30723 C22.3090534,14.7701793 23.3087182,13.7371924 24.7986947,13.7371924 C26.2886713,13.7371924 27.2893939,14.7701793 27.2893939,16.30723 L27.2893939,22.1888556 L29.5172183,22.1888556 L29.5172183,16.2918913 C29.5172183,13.7297875 27.4893269,11.7981601 24.7986947,11.7981601 Z" id="Combined-Shape"></path>
                    <path d="M16.5586008,12.5333633 C16.5586008,13.980497 15.4304077,15.0732523 13.9324973,15.0732523 L9.44564208,15.0732523 L9.44564208,10.0368459 L13.9324973,10.0368459 C15.455796,10.0368459 16.5586008,11.0862295 16.5586008,12.5333633 Z" id="Path"></path>
                    <path d="M52.2794266,10.5049429 L48.2215281,10.5049429 L48.2215281,14.8357658 L52.2794266,14.8357658 C53.4985945,14.8357658 54.5500937,13.973621 54.5500937,12.6491974 C54.5500937,11.3041458 53.4985945,10.5049429 52.2794266,10.5049429 Z M52.6576067,17.1482179 L48.2215281,17.1482179 L48.2215281,22.1941448 L45.530367,22.1941448 L45.530367,9.5380714 C45.530367,8.80181036 46.1402154,8.19249087 46.8759476,8.19249087 L52.6576067,8.19249087 C55.4333954,8.19249087 57.2624117,10.2314897 57.2624117,12.6491974 C57.2624117,15.0674341 55.4333954,17.1482179 52.6576067,17.1482179 Z" id="Shape"></path>
                    <path d="M61.2356825,17.6316536 L61.2356825,22.1941448 L58.6709341,22.1941448 L58.6709341,11.9557792 L61.1727407,11.9557792 L61.1727407,13.8054235 C61.6143915,12.8597089 63.1281696,11.7664247 64.6625757,11.7664247 L64.6625757,14.1841325 C62.3919085,14.1841325 61.2356825,15.5926548 61.2356825,17.6316536 Z" id="Path"></path>
                    <path d="M70.6732585,13.7424816 C69.3488349,13.7424816 68.4025914,14.5416845 68.2137658,16.0972475 L73.0068675,16.0972475 C72.8598269,14.6257833 72.1029378,13.7424816 70.6732585,13.7424816 Z M68.19208,17.9056358 C68.2343938,19.4400419 69.5799743,20.3439716 71.4724614,20.3439716 C72.439333,20.3439716 73.5326171,20.196931 74.4788607,19.9446346 L74.9411395,21.7953368 C73.7849135,22.1729879 72.7127862,22.3628713 71.4513045,22.3628713 C67.750958,22.3628713 65.6908023,20.2180879 65.6908023,17.0641191 C65.6908023,14.2470743 67.5616035,11.7664247 70.6732585,11.7664247 C73.6378728,11.7664247 75.4457322,13.9524641 75.4457322,17.1275899 L75.4457322,17.9056358 L68.19208,17.9056358 Z" id="Shape"></path>
                    <path d="M82.5735008,22.3628713 C79.1672356,22.3628713 76.9177254,20.0498903 76.9177254,17.0641191 C76.9177254,14.0794057 79.1672356,11.7664247 82.5735008,11.7664247 C83.5197443,11.7664247 84.4025171,11.8923084 85.2435049,12.2080755 L84.823011,14.0582488 C84.1079069,13.8895223 83.3933317,13.8265804 82.7834833,13.8265804 C80.55513,13.8265804 79.4830027,15.151004 79.4830027,17.0641191 C79.4830027,18.9772342 80.55513,20.3228147 82.7834833,20.3228147 C83.4985874,20.3228147 84.044965,20.2180879 84.823011,20.0081054 L85.2435049,21.8789066 C84.5284008,22.1523599 83.4144886,22.3628713 82.5735008,22.3628713 Z" id="Path"></path>
                    <path d="M87.7664684,22.1941448 L87.7664684,11.9557792 L90.3312168,11.9557792 L90.3312168,22.1941448 L87.7664684,22.1941448 Z M87.7664684,10.2526466 L87.7664684,7.79262496 L90.3312168,7.79262496 L90.3312168,10.2526466 L87.7664684,10.2526466 Z" id="Shape"></path>
                    <path d="M96.82798,22.3628713 C95.5030275,22.3628713 93.9056795,21.9841624 92.6441978,21.4377847 L93.2117323,19.6505534 C94.4520572,20.0922042 95.7553238,20.3862855 96.8068231,20.3862855 C98.1524036,20.3862855 98.6152114,19.9869485 98.6152114,19.418885 C98.6152114,18.8095655 98.2153455,18.641368 96.6597824,18.0103626 C93.9263075,16.8964504 93.0223778,16.3500728 93.0223778,14.6257833 C93.0223778,12.7126682 94.494371,11.7664247 97.1643751,11.7664247 C98.1524036,11.7664247 99.6450248,11.9346223 100.759466,12.3133312 L100.317815,14.1841325 C99.4768272,13.9524641 98.2153455,13.7424816 97.2061601,13.7424816 C95.8605795,13.7424816 95.4823995,13.994778 95.4823995,14.5416845 C95.4823995,15.2144748 95.9658352,15.3821434 97.7736946,16.0972475 C100.338972,17.1064329 101.117018,17.5898687 101.117018,19.3141582 C101.117018,21.1431745 99.4138853,22.3628713 96.82798,22.3628713 Z" id="Path"></path>
                    <path d="M103.366528,22.1941448 L103.366528,11.9557792 L105.931277,11.9557792 L105.931277,22.1941448 L103.366528,22.1941448 Z M103.366528,10.2526466 L103.366528,7.79262496 L105.931277,7.79262496 L105.931277,10.2526466 L103.366528,10.2526466 Z" id="Shape"></path>
                    <path d="M113.268499,13.7636385 C111.628837,13.7636385 110.661436,15.0880622 110.661436,17.0641191 C110.661436,19.0407049 111.628837,20.3439716 113.268499,20.3439716 C114.908689,20.3439716 115.917875,19.0407049 115.917875,17.0641191 C115.917875,15.0880622 114.908689,13.7636385 113.268499,13.7636385 Z M113.268499,22.3628713 C110.156844,22.3628713 108.07606,19.8816928 108.07606,17.0641191 C108.07606,14.2470743 110.156844,11.7664247 113.268499,11.7664247 C116.380154,11.7664247 118.483152,14.2470743 118.483152,17.0641191 C118.483152,19.8816928 116.380154,22.3628713 113.268499,22.3628713 Z" id="Shape"></path>
                    <path d="M127.438879,22.1941448 L127.438879,16.0760906 C127.438879,14.8146089 126.871345,14.0582488 125.588706,14.0582488 C124.43248,14.0582488 123.192155,15.0674341 123.192155,16.4965845 L123.192155,22.1941448 L120.626878,22.1941448 L120.626878,11.9557792 L123.129213,11.9557792 L123.129213,13.574813 C123.780847,12.6068836 125.10527,11.7664247 126.619048,11.7664247 C128.9315,11.7664247 130.004156,13.3431446 130.004156,15.6979106 L130.004156,22.1941448 L127.438879,22.1941448 Z" id="Path"></path>
                    <path d="M144.910269,22.2999295 C144.657973,22.2999295 144.384519,22.2359298 144.195694,21.9841624 L136.079897,11.4718145 L136.079897,22.1941448 L134.230253,22.1941448 L134.230253,8.99063593 C134.230253,8.46541523 134.671374,8.04492131 135.175967,8.04492131 C135.470577,8.04492131 135.721816,8.12954902 135.912228,8.38131644 L144.00581,18.8725074 L144.00581,8.19249087 L145.856513,8.19249087 L145.856513,21.3748429 C145.856513,21.9212205 145.415391,22.2999295 144.910269,22.2999295 Z" id="Path"></path>
                    <path d="M155.716698,22.1941448 L155.716698,20.4069135 C155.02328,21.5425115 153.720013,22.3628713 152.184549,22.3628713 C149.872097,22.3628713 148.715871,20.8697212 148.715871,18.599583 L148.715871,11.9557792 L150.587201,11.9557792 L150.587201,18.3679147 C150.587201,19.8816928 151.238835,20.6803668 152.752613,20.6803668 C154.203449,20.6803668 155.69607,19.418885 155.69607,17.3798862 L155.69607,11.9557792 L157.546243,11.9557792 L157.546243,22.1941448 L155.716698,22.1941448 Z" id="Path"></path>
                    <path d="M163.811338,22.3628713 C162.129363,22.3628713 161.036078,21.5636684 161.036078,19.3771001 L161.036078,13.3431446 L159.648713,13.3431446 L159.648713,11.9557792 L161.036078,11.9557792 L161.036078,9.05463563 L162.886252,9.05463563 L162.886252,11.9557792 L164.883466,11.9557792 L164.883466,13.3431446 L162.886252,13.3431446 L162.886252,19.3347862 C162.886252,20.57564 163.327903,20.9120351 164.063635,20.9120351 C164.337088,20.9120351 164.715797,20.8697212 165.052192,20.8067794 L165.241018,22.1729879 C164.799367,22.2999295 164.211204,22.3628713 163.811338,22.3628713 Z" id="Path"></path>
                    <path d="M169.4248,17.2540025 L169.4248,22.1941448 L167.574627,22.1941448 L167.574627,11.9557792 L169.403643,11.9557792 L169.403643,13.994778 C169.971177,12.8808658 171.359072,11.7875816 172.915164,11.7875816 L172.915164,13.4060865 C170.938578,13.4060865 169.4248,15.3609865 169.4248,17.2540025 Z" id="Path"></path>
                    <path d="M174.828279,22.1941448 L174.828279,11.9557792 L176.678452,11.9557792 L176.678452,22.1941448 L174.828279,22.1941448 Z M174.828279,10.2526466 L174.828279,8.00260746 L176.678452,8.00260746 L176.678452,10.2526466 L174.828279,10.2526466 Z" id="Shape"></path>
                    <path d="M183.490454,22.3628713 C181.808478,22.3628713 180.715723,21.5636684 180.715723,19.3771001 L180.715723,13.3431446 L179.327828,13.3431446 L179.327828,11.9557792 L180.715723,11.9557792 L180.715723,9.05463563 L182.565367,9.05463563 L182.565367,11.9557792 L184.562581,11.9557792 L184.562581,13.3431446 L182.565367,13.3431446 L182.565367,19.3347862 C182.565367,20.57564 183.007018,20.9120351 183.74275,20.9120351 C184.016203,20.9120351 184.394912,20.8697212 184.731307,20.8067794 L184.920133,22.1729879 C184.478482,22.2999295 183.890319,22.3628713 183.490454,22.3628713 Z" id="Path"></path>
                    <path d="M187.253742,22.1941448 L187.253742,11.9557792 L189.103915,11.9557792 L189.103915,22.1941448 L187.253742,22.1941448 Z M187.253742,10.2526466 L187.253742,8.00260746 L189.103915,8.00260746 L189.103915,10.2526466 L187.253742,10.2526466 Z" id="Shape"></path>
                    <path d="M196.609864,13.2802028 C194.675063,13.2802028 193.498209,14.8146089 193.498209,17.0641191 C193.498209,19.3141582 194.675063,20.8485643 196.609864,20.8485643 C198.543607,20.8485643 199.741618,19.3141582 199.741618,17.0641191 C199.741618,14.8146089 198.543607,13.2802028 196.609864,13.2802028 Z M196.609864,22.3628713 C193.581779,22.3628713 191.648035,19.9023208 191.648035,17.0641191 C191.648035,14.2264463 193.581779,11.7664247 196.609864,11.7664247 C199.636891,11.7664247 201.59232,14.2264463 201.59232,17.0641191 C201.59232,19.9023208 199.658048,22.3628713 196.609864,22.3628713 Z" id="Shape"></path>
                    <path d="M210.548576,22.1941448 L210.548576,15.7608524 C210.548576,14.2470743 209.896942,13.4478714 208.383164,13.4478714 C206.932328,13.4478714 205.439707,14.7305101 205.439707,16.7705667 L205.439707,22.1941448 L203.589534,22.1941448 L203.589534,11.9557792 L205.41855,11.9557792 L205.41855,13.7424816 C206.112497,12.6068836 207.415764,11.7664247 208.951228,11.7664247 C211.26368,11.7664247 212.398749,13.2802028 212.398749,15.5508699 L212.398749,22.1941448 L210.548576,22.1941448 Z" id="Path"></path>
                </g>
            </g>
        </g>
    </g>
</svg>