<svg width="130" height="23" xmlns="http://www.w3.org/2000/svg"><g fill="none"><path d="M126.788 16.615H130V.005h-3.212v16.61zm-8.08-7.47c.594-.075 1.02-.17 1.274-.282.458-.196.688-.5.688-.913 0-.504-.175-.851-.524-1.042-.35-.192-.862-.288-1.538-.288-.76 0-1.297.188-1.612.563-.225.278-.375.654-.45 1.127h-3.1c.068-1.074.369-1.956.901-2.647.85-1.082 2.308-1.623 4.374-1.623 1.344 0 2.538.266 3.583.8 1.043.533 1.566 1.54 1.566 3.02v5.634c0 .39.008.864.022 1.42.023.42.087.706.192.856.105.15.263.274.474.372v.473h-3.494a3.567 3.567 0 0 1-.203-.698 8.764 8.764 0 0 1-.09-.744c-.444.481-.954.89-1.533 1.228-.69.398-1.472.598-2.344.598-1.112 0-2.03-.318-2.754-.953-.725-.634-1.088-1.534-1.088-2.699 0-1.51.582-2.602 1.747-3.279.638-.368 1.577-.63 2.817-.788l1.092-.136zm1.95 1.498c-.203.128-.407.23-.614.31a5.18 5.18 0 0 1-.85.22l-.722.135c-.676.12-1.16.266-1.454.44-.495.292-.743.747-.743 1.363 0 .548.152.945.456 1.188.305.245.675.367 1.11.367.691 0 1.329-.203 1.91-.609.582-.406.885-1.145.907-2.22v-1.194zm-10.586-4.992c.995 1.06 1.493 2.614 1.493 4.665 0 2.164-.487 3.813-1.46 4.947-.972 1.135-2.226 1.702-3.758 1.702-.977 0-1.788-.245-2.434-.733-.353-.27-.698-.665-1.037-1.183v6.4H99.7V4.333h3.076v1.814c.346-.533.714-.954 1.104-1.262.714-.549 1.562-.823 2.547-.823 1.435 0 2.65.53 3.646 1.59zm-2.469 2.31c-.431-.729-1.132-1.093-2.101-1.093-1.164 0-1.964.552-2.4 1.657-.226.586-.338 1.33-.338 2.231 0 1.427.38 2.43 1.137 3.008.451.339.985.508 1.6.508.895 0 1.576-.346 2.046-1.038.47-.69.704-1.61.704-2.76 0-.946-.215-1.785-.648-2.513zM87.45 18.971l.406.022c.315.015.616.004.9-.034.286-.037.526-.124.722-.259.188-.128.362-.394.524-.8.162-.406.227-.653.197-.743L85.692 4.333h3.572l2.682 9.06 2.536-9.06h3.414l-4.214 12.08c-.812 2.328-1.454 3.773-1.928 4.332-.473.56-1.42.84-2.839.84-.286 0-.515-.002-.688-.006a19.08 19.08 0 0 1-.777-.04v-2.568zM78.006 6.733V4.446h1.713V1.019h3.178v3.427h1.995v2.287h-1.995v6.49c0 .504.064.818.192.941.127.125.518.187 1.172.187a9.605 9.605 0 0 0 .631-.023v2.4l-1.522.056c-1.518.053-2.554-.21-3.11-.788-.36-.368-.54-.936-.54-1.702v-7.56h-1.714zm-2.591 8.389c-1.037 1.282-2.61 1.922-4.722 1.922-2.11 0-3.685-.64-4.721-1.922-1.037-1.28-1.556-2.822-1.556-4.625 0-1.773.52-3.31 1.556-4.61 1.036-1.3 2.61-1.949 4.721-1.949s3.685.65 4.722 1.95c1.036 1.299 1.555 2.836 1.555 4.609 0 1.803-.519 3.344-1.555 4.625zm-2.57-1.775c.504-.668.756-1.619.756-2.85 0-1.233-.252-2.181-.756-2.846-.502-.665-1.224-.997-2.163-.997-.94 0-1.662.332-2.17.997-.506.665-.76 1.613-.76 2.846 0 1.231.254 2.182.76 2.85.508.669 1.23 1.004 2.17 1.004.939 0 1.66-.335 2.163-1.004zM56.224 6.733V4.446h1.713V1.019h3.178v3.427h1.995v2.287h-1.995v6.49c0 .504.064.818.191.941.128.125.519.187 1.172.187a9.526 9.526 0 0 0 .632-.023v2.4l-1.522.056c-1.517.053-2.555-.21-3.11-.788-.36-.368-.541-.936-.541-1.702v-7.56h-1.713zm-2.592 8.389c-1.036 1.282-2.61 1.922-4.721 1.922s-3.684-.64-4.722-1.922c-1.036-1.28-1.555-2.822-1.555-4.625 0-1.773.519-3.31 1.555-4.61 1.038-1.3 2.611-1.949 4.722-1.949 2.11 0 3.685.65 4.721 1.95 1.038 1.299 1.555 2.836 1.555 4.609 0 1.803-.517 3.344-1.555 4.625zm-2.568-1.775c.503-.668.754-1.619.754-2.85 0-1.233-.251-2.181-.754-2.846-.504-.665-1.225-.997-2.164-.997-.94 0-1.662.332-2.17.997-.507.665-.76 1.613-.76 2.846 0 1.231.253 2.182.76 2.85.508.669 1.23 1.004 2.17 1.004.939 0 1.66-.335 2.164-1.004zM41.23 4.045c.042.004.134.01.276.017v3.29a8.245 8.245 0 0 0-.924-.056c-1.292 0-2.16.421-2.602 1.262-.248.474-.373 1.202-.373 2.187v5.87h-3.234V4.333h3.065v2.14c.496-.818.928-1.378 1.296-1.679.602-.503 1.382-.754 2.344-.754.06 0 .111.001.152.005zM30.577 9.426c-.992.811-2.407 1.217-4.249 1.217h-3.527v5.972h-3.447V.005h7.233c1.668 0 2.998.428 3.99 1.285.992.856 1.487 2.182 1.487 3.978 0 1.96-.495 3.347-1.487 4.158zm-2.631-5.983c-.455-.368-1.092-.553-1.91-.553H22.8v4.89h3.235c.818 0 1.455-.198 1.91-.597.454-.397.682-1.029.682-1.893 0-.864-.228-1.48-.682-1.847z" fill="#FFF"/><g transform="translate(0 .71)" fill="#55F3A4"><circle cx="8.169" cy="2.486" r="2.486"/><circle cx="2.486" cy="7.459" r="2.486"/><circle cx="8.169" cy="12.432" r="2.486"/></g></g></svg>