<svg version="1.1" xmlns="http://www.w3.org/2000/svg" viewBox="0 0 140 38.3">
<style type="text/css">
  .st0{fill-rule:evenodd;clip-rule:evenodd;fill:#414660;}
  .st1{fill-rule:evenodd;clip-rule:evenodd;fill:#6B5AED;}
</style>
<g>
  <path class="st0" d="M41,17.3c0,1.1,0.1,2.1,0.3,3.1s0.6,1.8,1.1,2.5c0.5,0.7,1.1,1.2,1.9,1.6s1.7,0.6,2.8,0.6c1,0,2-0.2,2.8-0.5 c0.9-0.4,1.5-0.7,2-1.1V10c-0.4-0.1-0.9-0.2-1.5-0.3s-1.5-0.1-2.7-0.1c-2,0-3.7,0.7-4.9,2S41,14.8,41,17.3L41,17.3z M37.9,12.7 c0.5-1.4,1.2-2.6,2.1-3.5c0.9-1,2-1.7,3.3-2.2s2.8-0.8,4.4-0.8c1.8,0,3.3,0.1,4.7,0.4s2.5,0.5,3.4,0.7v29.8L52,37.8V27 c-0.5,0.3-1.2,0.6-2.1,0.9c-0.9,0.3-2,0.5-3.2,0.5c-1.5,0-2.9-0.3-4-0.8c-1.2-0.5-2.2-1.3-3-2.3c-0.8-1-1.4-2.2-1.9-3.5 s-0.6-2.9-0.6-4.5C37.1,15.6,37.4,14.1,37.9,12.7z M79.7,17.3c0,1.7-0.2,3.2-0.7,4.6c-0.5,1.4-1.2,2.5-2.1,3.5 c-0.9,1-1.9,1.8-3.2,2.3c-1.2,0.5-2.6,0.8-4,0.8c-1.4,0-2.8-0.3-4-0.8c-1.2-0.5-2.3-1.3-3.2-2.3c-0.9-1-1.6-2.2-2.1-3.5 c-0.5-1.4-0.7-2.9-0.7-4.6c0-1.7,0.2-3.2,0.7-4.6c0.5-1.4,1.2-2.6,2.1-3.6c0.9-1,1.9-1.8,3.2-2.3c1.2-0.5,2.6-0.8,4-0.8 c1.4,0,2.8,0.3,4,0.8C75,7.4,76.1,8.2,77,9.2c0.9,1,1.6,2.2,2.1,3.6C79.5,14.1,79.7,15.6,79.7,17.3z M75.8,17.3 c0-2.4-0.5-4.3-1.6-5.7c-1.1-1.4-2.5-2.1-4.4-2.1s-3.3,0.7-4.4,2.1c-1.1,1.4-1.6,3.3-1.6,5.7s0.5,4.3,1.6,5.7 c1.1,1.4,2.5,2.1,4.4,2.1s3.3-0.7,4.4-2.1S75.8,19.7,75.8,17.3z M83.9,7.2c0.9-0.2,2-0.5,3.5-0.7c1.4-0.2,3.1-0.4,5-0.4 c1.7,0,3.1,0.2,4.2,0.7s2,1.2,2.7,2s1.1,1.9,1.4,3.1c0.3,1.2,0.4,2.5,0.4,4v12h-3.8V16.8c0-1.3-0.1-2.4-0.3-3.4 c-0.2-0.9-0.5-1.7-0.9-2.3c-0.4-0.6-1-1-1.6-1.3c-0.7-0.3-1.5-0.4-2.5-0.4c-0.4,0-0.8,0-1.3,0s-0.8,0.1-1.2,0.1 c-0.4,0-0.7,0.1-1.1,0.1c-0.3,0.1-0.5,0.1-0.7,0.1v18h-3.8V7.2z M109.6,6.6h8v3.2h-8v9.9c0,1.1,0.1,2,0.2,2.7 c0.2,0.7,0.4,1.2,0.7,1.6c0.3,0.4,0.7,0.7,1.2,0.8c0.5,0.2,1.1,0.2,1.7,0.2c1.1,0,2.1-0.1,2.7-0.4s1.2-0.4,1.4-0.6l0.7,3.2 c-0.4,0.2-1,0.4-2,0.7c-0.9,0.3-2,0.4-3.3,0.4c-1.4,0-2.6-0.2-3.6-0.6s-1.7-0.9-2.3-1.7c-0.6-0.7-1-1.7-1.2-2.7s-0.3-2.3-0.3-3.8 V0.7l3.8-0.7L109.6,6.6z M139.9,17.3c0,1.7-0.2,3.2-0.7,4.6c-0.5,1.4-1.2,2.5-2.1,3.5c-0.9,1-1.9,1.8-3.2,2.3 c-1.2,0.5-2.6,0.8-4,0.8c-1.4,0-2.8-0.3-4-0.8c-1.2-0.5-2.3-1.3-3.2-2.3c-0.9-1-1.6-2.2-2.1-3.5c-0.5-1.4-0.7-2.9-0.7-4.6 c0-1.7,0.2-3.2,0.7-4.6c0.5-1.4,1.2-2.6,2.1-3.6c0.9-1,1.9-1.8,3.2-2.3c1.2-0.5,2.6-0.8,4-0.8c1.4,0,2.8,0.3,4,0.8 c1.2,0.5,2.3,1.3,3.2,2.3c0.9,1,1.6,2.2,2.1,3.6C139.7,14.1,139.9,15.6,139.9,17.3L139.9,17.3z M136,17.3c0-2.4-0.5-4.3-1.6-5.7 c-1.1-1.4-2.5-2.1-4.4-2.1c-1.8,0-3.3,0.7-4.4,2.1s-1.6,3.3-1.6,5.7s0.5,4.3,1.6,5.7c1.1,1.4,2.5,2.1,4.4,2.1s3.3-0.7,4.4-2.1 C135.4,21.6,136,19.7,136,17.3z"/>
  <path class="st1" d="M3.7,12.4C1.5,10.2,0.2,7.2,0,4c3.1,0.2,6.1,1.5,8.3,3.8c2.2,2.2,3.6,5.2,3.7,8.4C8.9,16,5.9,14.7,3.7,12.4z M21.8,12.4c-2.2,2.2-5.2,3.6-8.3,3.8C13.6,13,15,10,17.2,7.8c2.2-2.2,5.2-3.6,8.3-3.8C25.4,7.2,24,10.2,21.8,12.4z M21.8,21.2 c2.2,2.2,3.6,5.2,3.7,8.4c-3.1-0.2-6.1-1.5-8.3-3.8c-2.2-2.2-3.6-5.2-3.7-8.4C16.6,17.7,19.6,19,21.8,21.2z M3.7,21.2 C6,19,9,17.7,12.1,17.5c-0.2,3.2-1.5,6.2-3.8,8.4c-2.2,2.2-5.2,3.6-8.3,3.8C0.2,26.5,1.5,23.5,3.7,21.2z"/>
</g>
</svg>
