<svg width="154" height="28" xmlns="http://www.w3.org/2000/svg"><g fill="none"><path d="M3.67 22.075v-9.492c.376-.813.836-1.429 1.38-1.85.546-.42 1.2-.631 1.962-.631.426 0 .767.034 1.025.104.257.069.46.104.609.104a.654.654 0 0 0 .401-.112c.099-.074.163-.2.193-.379l.475-2.748c-.495-.346-1.119-.52-1.871-.52-.911 0-1.733.273-2.466.817-.733.545-1.372 1.288-1.917 2.229l-.223-1.842c-.049-.337-.148-.575-.297-.714-.148-.138-.41-.207-.787-.207H0v15.241h3.67zm14.944.223c.535 0 1.087-.04 1.656-.119a8.647 8.647 0 0 0 1.679-.408 7.665 7.665 0 0 0 1.582-.773c.505-.322.96-.72 1.367-1.196l-1.07-1.337a.853.853 0 0 0-.282-.252.795.795 0 0 0-.386-.09c-.228 0-.463.07-.706.209a26.24 26.24 0 0 1-.847.46 7.21 7.21 0 0 1-1.129.46c-.43.14-.943.209-1.537.209-1.209 0-2.18-.367-2.912-1.1-.733-.733-1.154-1.881-1.263-3.446h9.419c.168 0 .307-.022.416-.067a.541.541 0 0 0 .26-.223c.064-.104.109-.247.133-.43a5.31 5.31 0 0 0 .037-.691c0-1.1-.163-2.078-.49-2.934-.327-.857-.782-1.58-1.367-2.17a5.806 5.806 0 0 0-2.087-1.344c-.807-.307-1.69-.46-2.651-.46-1.14 0-2.162.198-3.068.594a6.819 6.819 0 0 0-2.303 1.612 7.055 7.055 0 0 0-1.448 2.392 8.437 8.437 0 0 0-.505 2.934c0 1.337.193 2.513.58 3.528.385 1.015.915 1.867 1.589 2.555a6.618 6.618 0 0 0 2.377 1.56 8.142 8.142 0 0 0 2.956.527zm3.12-9.597H14.84c.168-1.109.554-1.965 1.158-2.57.604-.604 1.441-.906 2.51-.906.546 0 1.021.092 1.427.275.406.183.743.433 1.01.75.268.317.466.686.594 1.107.13.42.194.869.194 1.344zm10.874 9.597c.534 0 1.032-.057 1.493-.17.46-.115.891-.276 1.292-.484a6.293 6.293 0 0 0 1.122-.742 9.11 9.11 0 0 0 .995-.966l.297 1.47c.149.446.46.67.936.67h2.243V0h-3.67v8.052a5.72 5.72 0 0 0-1.618-1.092c-.604-.273-1.332-.409-2.184-.409-1 0-1.902.2-2.704.602a6.17 6.17 0 0 0-2.065 1.671c-.574.713-1.015 1.555-1.322 2.526-.307.97-.46 2.02-.46 3.149 0 1.248.136 2.357.408 3.328.273.97.659 1.785 1.159 2.443a5.097 5.097 0 0 0 1.79 1.508c.693.347 1.456.52 2.288.52zm1.248-2.912c-.476 0-.907-.086-1.293-.26a2.35 2.35 0 0 1-.98-.846c-.268-.392-.473-.897-.617-1.516-.143-.619-.215-1.374-.215-2.265 0-.882.084-1.647.252-2.295.169-.649.409-1.184.72-1.605.313-.42.694-.735 1.145-.943.45-.208.953-.312 1.508-.312.564 0 1.091.104 1.582.312.49.208.943.565 1.359 1.07v6.833c-.475.584-.98 1.035-1.515 1.352-.535.317-1.184.475-1.946.475zm14.766 7.666v-6.24c.475.466 1.013.83 1.612 1.092.599.263 1.33.394 2.19.394 1.001 0 1.905-.2 2.712-.602a6.074 6.074 0 0 0 2.065-1.67c.57-.714 1.008-1.556 1.315-2.526.307-.97.46-2.026.46-3.164 0-1.248-.136-2.355-.408-3.32-.273-.966-.659-1.778-1.16-2.437a5.117 5.117 0 0 0-1.782-1.508 4.997 4.997 0 0 0-2.28-.52c-1.07 0-2.003.218-2.8.654a7.693 7.693 0 0 0-2.117 1.708l-.297-1.411a.764.764 0 0 0-.327-.505 1.097 1.097 0 0 0-.61-.163h-2.242v20.218h3.669zm2.941-7.547a4.094 4.094 0 0 1-1.582-.304c-.49-.203-.943-.562-1.36-1.077V11.29c.466-.584.969-1.037 1.509-1.36.54-.321 1.19-.482 1.953-.482.485 0 .919.09 1.3.267.381.179.706.461.973.847.267.386.473.89.617 1.508.143.619.215 1.374.215 2.266 0 .88-.084 1.646-.253 2.295-.168.648-.408 1.186-.72 1.611a2.926 2.926 0 0 1-1.144.951c-.45.208-.953.312-1.508.312zm16.668 2.793c.535 0 1.087-.04 1.656-.119a8.647 8.647 0 0 0 1.68-.408 7.665 7.665 0 0 0 1.581-.773c.505-.322.96-.72 1.367-1.196l-1.07-1.337a.853.853 0 0 0-.282-.252.795.795 0 0 0-.386-.09c-.228 0-.463.07-.706.209a26.24 26.24 0 0 1-.847.46 7.21 7.21 0 0 1-1.129.46c-.43.14-.943.209-1.537.209-1.208 0-2.179-.367-2.912-1.1-.733-.733-1.154-1.881-1.262-3.446h9.418c.168 0 .307-.022.416-.067a.541.541 0 0 0 .26-.223c.064-.104.109-.247.133-.43a5.31 5.31 0 0 0 .038-.691c0-1.1-.164-2.078-.49-2.934-.327-.857-.783-1.58-1.367-2.17a5.806 5.806 0 0 0-2.088-1.344c-.807-.307-1.69-.46-2.651-.46-1.14 0-2.162.198-3.068.594a6.819 6.819 0 0 0-2.302 1.612 7.055 7.055 0 0 0-1.449 2.392 8.437 8.437 0 0 0-.505 2.934c0 1.337.193 2.513.58 3.528.386 1.015.916 1.867 1.589 2.555a6.618 6.618 0 0 0 2.377 1.56 8.142 8.142 0 0 0 2.956.527zm3.12-9.597h-6.893c.168-1.109.554-1.965 1.159-2.57.604-.604 1.44-.906 2.51-.906.545 0 1.02.092 1.426.275.406.183.743.433 1.01.75.268.317.466.686.595 1.107.128.42.193.869.193 1.344zm9.953 9.374V11.052a6.389 6.389 0 0 1 1.575-1.173 3.82 3.82 0 0 1 1.782-.43c.862 0 1.508.254 1.939.764.43.51.646 1.23.646 2.162v9.7h3.67v-9.7c0-.852-.112-1.632-.335-2.34a5.224 5.224 0 0 0-.98-1.827 4.374 4.374 0 0 0-1.612-1.189c-.644-.282-1.382-.423-2.214-.423-.515 0-.99.05-1.426.148a5.525 5.525 0 0 0-1.225.431 6.794 6.794 0 0 0-1.085.669 8.358 8.358 0 0 0-.973.861l-.252-1.203c-.149-.446-.46-.668-.936-.668h-2.243v15.241h3.669zm19.045.223c.534 0 1.074-.04 1.619-.119a7.505 7.505 0 0 0 1.582-.408 7.147 7.147 0 0 0 1.478-.773c.475-.322.916-.72 1.322-1.196l-1.055-1.337c-.148-.227-.371-.341-.668-.341a.974.974 0 0 0-.617.215c-.183.144-.398.302-.646.475a4.476 4.476 0 0 1-.913.476c-.362.143-.835.215-1.42.215-.583 0-1.108-.111-1.574-.334a3.228 3.228 0 0 1-1.188-.98c-.327-.431-.577-.964-.75-1.597-.174-.634-.26-1.357-.26-2.17 0-.782.079-1.482.237-2.101.159-.62.399-1.147.72-1.583a3.21 3.21 0 0 1 1.211-1.002c.486-.233 1.05-.35 1.694-.35.505 0 .928.058 1.27.171.342.114.636.243.884.387.248.143.46.272.639.386.178.114.361.17.55.17.198 0 .349-.039.453-.118.104-.08.21-.188.319-.327l.966-1.337a7.314 7.314 0 0 0-2.31-1.575c-.857-.366-1.855-.55-2.994-.55-1.198 0-2.258.199-3.179.595a6.505 6.505 0 0 0-2.317 1.642 7.05 7.05 0 0 0-1.419 2.48c-.322.956-.483 1.994-.483 3.113 0 1.247.18 2.36.542 3.335.362.975.852 1.8 1.471 2.473a6.208 6.208 0 0 0 2.176 1.538 6.76 6.76 0 0 0 2.66.527zm10.428-17.604c.327 0 .634-.062.921-.185a2.45 2.45 0 0 0 .75-.498 2.45 2.45 0 0 0 .513-.728 2.09 2.09 0 0 0 .193-.891c0-.327-.064-.634-.193-.921a2.396 2.396 0 0 0-.513-.743 2.45 2.45 0 0 0-.75-.498 2.302 2.302 0 0 0-.92-.185c-.318 0-.617.061-.9.185a2.38 2.38 0 0 0-.735.498 2.357 2.357 0 0 0-.683 1.664c0 .317.062.614.185.891a2.38 2.38 0 0 0 1.233 1.226c.283.123.582.185.9.185zm1.827 17.381V6.834h-3.669v15.241h3.67zm8.052 0V0h-3.67v22.075h3.67z" fill="#FFF"/><path d="M126.182 22.283c.307 0 .6-.057.877-.17a2.15 2.15 0 0 0 1.188-1.174c.119-.273.178-.567.178-.884 0-.307-.06-.6-.178-.877a2.248 2.248 0 0 0-.475-.713 2.248 2.248 0 0 0-.713-.475 2.202 2.202 0 0 0-.877-.178c-.317 0-.614.06-.891.178a2.34 2.34 0 0 0-.72.475 2.094 2.094 0 0 0-.476.713c-.114.278-.17.57-.17.877 0 .317.056.611.17.884.114.272.272.507.475.705.203.198.444.354.72.468.278.114.575.171.892.171z" fill="#C00"/><path d="M133.565 4.694c.327 0 .634-.062.921-.185a2.45 2.45 0 0 0 .75-.498 2.45 2.45 0 0 0 .513-.728 2.09 2.09 0 0 0 .193-.891c0-.327-.064-.634-.193-.921a2.396 2.396 0 0 0-.512-.743 2.45 2.45 0 0 0-.75-.498 2.302 2.302 0 0 0-.922-.185c-.317 0-.616.061-.898.185a2.38 2.38 0 0 0-.736.498 2.357 2.357 0 0 0-.683 1.664c0 .317.062.614.186.891.123.277.29.52.497.728.208.208.453.374.736.498.282.123.581.185.898.185zm1.828 17.381V6.834h-3.67v15.241h3.67zm10.65.223c1.14 0 2.172-.183 3.098-.55a6.583 6.583 0 0 0 2.37-1.574c.653-.684 1.158-1.51 1.515-2.481.356-.97.535-2.06.535-3.268 0-1.199-.179-2.283-.535-3.254-.357-.97-.862-1.792-1.515-2.466a6.679 6.679 0 0 0-2.37-1.56c-.926-.366-1.958-.55-3.097-.55s-2.174.184-3.105.55a6.74 6.74 0 0 0-2.384 1.56c-.659.674-1.169 1.496-1.53 2.466-.362.97-.543 2.055-.543 3.254 0 1.208.181 2.297.543 3.268.361.97.871 1.797 1.53 2.48a6.642 6.642 0 0 0 2.384 1.575c.931.367 1.966.55 3.105.55zm0-2.823c-1.287 0-2.237-.428-2.851-1.285-.614-.856-.921-2.102-.921-3.736 0-1.634.307-2.884.92-3.75.615-.867 1.565-1.3 2.853-1.3 1.268 0 2.206.43 2.815 1.292.61.862.914 2.114.914 3.758 0 1.644-.305 2.892-.914 3.744-.61.852-1.547 1.277-2.815 1.277z" fill="#FFF"/></g></svg>