<?xml version="1.0" encoding="UTF-8"?>
<svg width="154px" height="28px" viewBox="0 0 154 28" version="1.1" xmlns="http://www.w3.org/2000/svg" xmlns:xlink="http://www.w3.org/1999/xlink">
    <title>redpencil.io</title>
    <g id="Symbols" stroke="none" stroke-width="1" fill="none" fill-rule="evenodd">
        <g id="2021-/-sponsor-grid" transform="translate(-112.000000, -197.000000)" fill="#000000" fill-rule="nonzero">
            <g id="sponsors" transform="translate(0.000000, 1.070008)">
                <g id="row-3" transform="translate(112.000000, 186.074556)">
                    <g id="redpencil.io" transform="translate(0.000000, 9.855436)">
                        <path d="M3.66929509,22.0751923 L3.66929509,12.5825625 C4.04563304,11.7704648 4.50615186,11.1539638 5.05085154,10.7330595 C5.59555121,10.3121552 6.24919082,10.1017031 7.01177037,10.1017031 C7.43762648,10.1017031 7.77930173,10.1363658 8.03679612,10.2056912 C8.29429051,10.2750166 8.49731494,10.3096793 8.64586939,10.3096793 C8.81423111,10.3096793 8.94793012,10.2725407 9.04696643,10.1982635 C9.14600273,10.1239862 9.21037633,9.99771495 9.24008722,9.8194496 L9.24008722,9.8194496 L9.71546148,7.07119215 C9.22027996,6.72456508 8.59635124,6.55125155 7.84367533,6.55125155 C6.93254132,6.55125155 6.11054,6.82360139 5.37767134,7.36830106 C4.64480269,7.91300074 4.00601852,8.65577302 3.46131885,9.59661792 L3.46131885,9.59661792 L3.23848716,7.75454265 C3.18896901,7.41781922 3.0899327,7.18013209 2.94137825,7.04148126 C2.79282379,6.90283043 2.53037758,6.83350502 2.15403963,6.83350502 L2.15403963,6.83350502 L0,6.83350502 L0,22.0751923 L3.66929509,22.0751923 Z M18.6138735,22.298024 C19.1486695,22.298024 19.7007969,22.2584095 20.2702557,22.1791804 C20.8397144,22.0999514 21.3992695,21.9637765 21.948921,21.7706557 C22.4985725,21.5775349 23.0259408,21.3200405 23.531026,20.9981725 C24.0361111,20.6763045 24.4916781,20.2776834 24.897727,19.8023091 L24.897727,19.8023091 L23.8281349,18.465319 C23.7489059,18.3563791 23.6548214,18.2721982 23.5458814,18.2127764 C23.4369415,18.1533546 23.3081943,18.1236437 23.1596398,18.1236437 C22.9318563,18.1236437 22.6966451,18.1929692 22.4540062,18.33162 C22.2113672,18.4702708 21.9291138,18.6237771 21.6072458,18.7921388 C21.2853778,18.9605005 20.9090398,19.1140068 20.4782319,19.2526576 C20.047424,19.3913084 19.5349111,19.4606339 18.9406933,19.4606339 C17.7324503,19.4606339 16.7618946,19.0941995 16.0290259,18.3613309 C15.2961573,17.6284622 14.875253,16.4796411 14.766313,14.9148675 L14.766313,14.9148675 L24.1846656,14.9148675 C24.3530273,14.9148675 24.4916781,14.8925843 24.6006181,14.848018 C24.709558,14.8034516 24.7962148,14.7291744 24.8605884,14.6251863 C24.924962,14.5211982 24.9695283,14.3775955 24.9942874,14.1943784 C25.0190465,14.0111612 25.031426,13.7809018 25.031426,13.5036001 C25.031426,12.4042972 24.8680161,11.4263136 24.5411963,10.5696496 C24.2143765,9.71298558 23.7588095,8.99002055 23.1744953,8.40075454 C22.5901811,7.81148853 21.894451,7.36334925 21.0873052,7.05633671 C20.2801593,6.74932416 19.3962603,6.59581789 18.4356081,6.59581789 C17.2966906,6.59581789 16.2741408,6.7938905 15.3679586,7.19003572 C14.4617764,7.58618093 13.694245,8.12345289 13.0653645,8.80185157 C12.436484,9.48025026 11.953682,10.2774925 11.6169585,11.1935783 C11.2802351,12.1096641 11.1118734,13.0876477 11.1118734,14.1275289 C11.1118734,15.464519 11.3049942,16.6405751 11.6912358,17.6556972 C12.0774773,18.6708193 12.6073216,19.5225316 13.2807685,20.2108339 C13.9542153,20.8991362 14.7465058,21.4190768 15.6576398,21.7706557 C16.5687738,22.1222345 17.554185,22.298024 18.6138735,22.298024 Z M21.7335171,12.7014061 L14.8405902,12.7014061 C15.008952,11.5921995 15.3951936,10.7355354 15.999315,10.131414 C16.6034365,9.52729251 17.4402932,9.22523178 18.5098853,9.22523178 C19.054585,9.22523178 19.5299593,9.31684036 19.9360081,9.50005752 C20.342057,9.68327469 20.6787804,9.93334135 20.9461784,10.2502575 C21.2135765,10.5671737 21.4116491,10.9360839 21.5403963,11.3569882 C21.6691435,11.7778925 21.7335171,12.2260318 21.7335171,12.7014061 L21.7335171,12.7014061 Z M32.6077033,22.298024 C33.1424993,22.298024 33.6401568,22.2410781 34.1006756,22.1271864 C34.5611944,22.0132946 34.9920023,21.8523606 35.3930994,21.6443844 C35.7941964,21.4364081 36.1680585,21.1888174 36.5146855,20.9016121 C36.8613126,20.6144068 37.1930842,20.2925388 37.5100004,19.9360081 L37.5100004,19.9360081 L37.8071093,21.4066972 C37.9556638,21.8523606 38.2676281,22.0751923 38.7430024,22.0751923 L38.7430024,22.0751923 L40.9861747,22.0751923 L40.9861747,0 L37.3168796,0 L37.3168796,8.05165157 C36.8415053,7.59608457 36.3017575,7.23212615 35.697636,6.95977631 C35.0935145,6.68742647 34.3655977,6.55125155 33.5138855,6.55125155 C32.5136188,6.55125155 31.6123884,6.75180007 30.8101944,7.1528971 C30.0080003,7.55399414 29.319698,8.11107335 28.7452874,8.82413474 C28.1708769,9.53719614 27.7301653,10.3790047 27.4231528,11.3495605 C27.1161402,12.3201163 26.9626339,13.3699011 26.9626339,14.498915 C26.9626339,15.7467724 27.0988089,16.855979 27.3711587,17.8265348 C27.6435085,18.7970906 28.0297501,19.6116642 28.5298835,20.2702557 C29.0300168,20.9288471 29.6267105,21.4314563 30.3199647,21.7780834 C31.0132188,22.1247105 31.7757983,22.298024 32.6077033,22.298024 Z M33.8555607,19.3863566 C33.3801865,19.3863566 32.9493786,19.2996999 32.563137,19.1263863 C32.1768954,18.9530728 31.8500756,18.6708193 31.5826775,18.2796259 C31.3152795,17.8884325 31.1097792,17.3833474 30.9661766,16.7643705 C30.8225739,16.1453936 30.7507726,15.3902417 30.7507726,14.498915 C30.7507726,13.6174919 30.8349534,12.8524364 31.0033152,12.2037486 C31.1716769,11.5550608 31.4118399,11.0202648 31.7238043,10.5993605 C32.0357686,10.1784562 32.4170584,9.86401594 32.8676736,9.6560397 C33.3182888,9.44806346 33.820898,9.34407534 34.3755013,9.34407534 C34.9400083,9.34407534 35.4673766,9.44806346 35.9576063,9.6560397 C36.447836,9.86401594 36.9009271,10.2205466 37.3168796,10.7256318 L37.3168796,10.7256318 L37.3168796,17.5591368 C36.8415053,18.143451 36.3364202,18.5940662 35.8016241,18.9109824 C35.2668281,19.2278985 34.6181403,19.3863566 33.8555607,19.3863566 Z M48.6218738,27.0517666 L48.6218738,20.8124794 C49.097248,21.2779501 49.63452,21.6419085 50.2336896,21.9043547 C50.8328593,22.1668009 51.563252,22.298024 52.4248679,22.298024 C53.4251345,22.298024 54.3288408,22.0974755 55.1359867,21.6963784 C55.9431326,21.2952814 56.6314349,20.7382022 57.2008936,20.0251408 C57.7703524,19.3120794 58.208588,18.4702708 58.5156006,17.499715 C58.8226131,16.5291592 58.9761194,15.4744226 58.9761194,14.3355051 C58.9761194,13.0876477 58.8399445,11.980917 58.5675947,11.015313 C58.2952448,10.049709 57.9090032,9.23761131 57.4088699,8.57901989 C56.9087365,7.92042846 56.3145187,7.41781922 55.6262164,7.07119215 C54.9379141,6.72456508 54.1778104,6.55125155 53.3459055,6.55125155 C52.2763134,6.55125155 51.3428962,6.76913142 50.545654,7.20489116 C49.7484117,7.6406509 49.0427781,8.21010965 48.428753,8.91326742 L48.428753,8.91326742 L48.1316441,7.50200008 C48.0821259,7.27421658 47.973186,7.10585486 47.8048242,6.99691492 C47.6364625,6.88797499 47.4334381,6.83350502 47.195751,6.83350502 L47.195751,6.83350502 L44.9525787,6.83350502 L44.9525787,27.0517666 L48.6218738,27.0517666 Z M51.563252,19.5052002 C50.9987451,19.5052002 50.4713767,19.403688 49.981147,19.2006636 C49.4909173,18.9976391 49.0378262,18.6386325 48.6218738,18.1236437 L48.6218738,18.1236437 L48.6218738,11.2901387 C49.0873444,10.7058245 49.5899536,10.2527334 50.1297015,9.93086545 C50.6694494,9.60899746 51.3206131,9.44806346 52.0831926,9.44806346 C52.5684705,9.44806346 53.0017543,9.53719614 53.3830441,9.71546148 C53.7643339,9.89372683 54.0886778,10.1759803 54.3560758,10.5622219 C54.6234738,10.9484635 54.8289742,11.4510727 54.9725768,12.0700496 C55.1161794,12.6890265 55.1879808,13.4441784 55.1879808,14.3355051 C55.1879808,15.2169282 55.1037999,15.9819837 54.9354382,16.6306715 C54.7670765,17.2793593 54.5269134,17.8166312 54.2149491,18.2424873 C53.9029847,18.6683434 53.5216949,18.9852596 53.0710797,19.1932358 C52.6204646,19.4012121 52.1178553,19.5052002 51.563252,19.5052002 Z M68.2310621,22.298024 C68.7658581,22.298024 69.3179855,22.2584095 69.8874443,22.1791804 C70.456903,22.0999514 71.0164581,21.9637765 71.5661096,21.7706557 C72.1157611,21.5775349 72.6431294,21.3200405 73.1482146,20.9981725 C73.6532998,20.6763045 74.1088668,20.2776834 74.5149156,19.8023091 L74.5149156,19.8023091 L73.4453235,18.465319 C73.3660945,18.3563791 73.27201,18.2721982 73.16307,18.2127764 C73.0541301,18.1533546 72.9253829,18.1236437 72.7768285,18.1236437 C72.549045,18.1236437 72.3138337,18.1929692 72.0711948,18.33162 C71.8285558,18.4702708 71.5463024,18.6237771 71.2244344,18.7921388 C70.9025664,18.9605005 70.5262284,19.1140068 70.0954205,19.2526576 C69.6646126,19.3913084 69.1520997,19.4606339 68.5578819,19.4606339 C67.349639,19.4606339 66.3790832,19.0941995 65.6462145,18.3613309 C64.9133459,17.6284622 64.4924416,16.4796411 64.3835016,14.9148675 L64.3835016,14.9148675 L73.8018542,14.9148675 C73.9702159,14.9148675 74.1088668,14.8925843 74.2178067,14.848018 C74.3267466,14.8034516 74.4134034,14.7291744 74.477777,14.6251863 C74.5421506,14.5211982 74.5867169,14.3775955 74.611476,14.1943784 C74.6362351,14.0111612 74.6486146,13.7809018 74.6486146,13.5036001 C74.6486146,12.4042972 74.4852047,11.4263136 74.1583849,10.5696496 C73.8315651,9.71298558 73.3759981,8.99002055 72.7916839,8.40075454 C72.2073697,7.81148853 71.5116397,7.36334925 70.7044938,7.05633671 C69.8973479,6.74932416 69.0134489,6.59581789 68.0527967,6.59581789 C66.9138792,6.59581789 65.8913294,6.7938905 64.9851472,7.19003572 C64.078965,7.58618093 63.3114336,8.12345289 62.6825531,8.80185157 C62.0536726,9.48025026 61.5708706,10.2774925 61.2341472,11.1935783 C60.8974237,12.1096641 60.729062,13.0876477 60.729062,14.1275289 C60.729062,15.464519 60.9221828,16.6405751 61.3084244,17.6556972 C61.694666,18.6708193 62.2245102,19.5225316 62.8979571,20.2108339 C63.5714039,20.8991362 64.3636944,21.4190768 65.2748284,21.7706557 C66.1859624,22.1222345 67.1713736,22.298024 68.2310621,22.298024 Z M71.3507057,12.7014061 L64.4577789,12.7014061 C64.6261406,11.5921995 65.0123822,10.7355354 65.6165036,10.131414 C66.2206251,9.52729251 67.0574819,9.22523178 68.127074,9.22523178 C68.6717736,9.22523178 69.1471479,9.31684036 69.5531967,9.50005752 C69.9592456,9.68327469 70.295969,9.93334135 70.5633671,10.2502575 C70.8307651,10.5671737 71.0288377,10.9360839 71.1575849,11.3569882 C71.2863321,11.7778925 71.3507057,12.2260318 71.3507057,12.7014061 L71.3507057,12.7014061 Z M81.3038543,22.0751923 L81.3038543,11.0524516 C81.7990358,10.5572701 82.3239282,10.1660767 82.8785315,9.87887139 C83.4331348,9.5916661 84.0273527,9.44806346 84.661185,9.44806346 C85.5228009,9.44806346 86.1690128,9.70308195 86.5998207,10.2131189 C87.0306286,10.7231559 87.2460326,11.443645 87.2460326,12.3745863 L87.2460326,12.3745863 L87.2460326,22.0751923 L90.9153277,22.0751923 L90.9153277,12.3745863 C90.9153277,11.522874 90.8039118,10.7429631 90.5810801,10.0348536 C90.3582484,9.32674399 90.0314286,8.71767072 89.6006207,8.20763375 C89.1698128,7.69759678 88.6325408,7.30145156 87.9888049,7.01919809 C87.3450689,6.73694462 86.6072484,6.59581789 85.7753434,6.59581789 C85.2603547,6.59581789 84.7849804,6.64533604 84.3492207,6.74437235 C83.9134609,6.84340865 83.5049362,6.98701129 83.1236464,7.17518027 C82.7423566,7.36334925 82.3808741,7.58618093 82.0391989,7.84367533 C81.6975236,8.10116972 81.3731797,8.388375 81.0661672,8.70529118 L81.0661672,8.70529118 L80.8136246,7.50200008 C80.6650701,7.05633671 80.3531058,6.83350502 79.8777315,6.83350502 L79.8777315,6.83350502 L77.6345592,6.83350502 L77.6345592,22.0751923 L81.3038543,22.0751923 Z M100.348536,22.298024 C100.883332,22.298024 101.42308,22.2584095 101.967779,22.1791804 C102.512479,22.0999514 103.039847,21.9637765 103.549884,21.7706557 C104.059921,21.5775349 104.552627,21.3200405 105.028001,20.9981725 C105.503375,20.6763045 105.944087,20.2776834 106.350136,19.8023091 L106.350136,19.8023091 L105.295399,18.465319 C105.146845,18.2375355 104.924013,18.1236437 104.626904,18.1236437 C104.399121,18.1236437 104.19362,18.1954451 104.010403,18.3390477 C103.827186,18.4826504 103.611782,18.6411084 103.364191,18.814422 C103.1166,18.9877355 102.812064,19.1461936 102.450581,19.2897962 C102.089099,19.4333989 101.6162,19.5052002 101.031886,19.5052002 C100.447572,19.5052002 99.9226796,19.3937844 99.4572089,19.1709527 C98.9917383,18.948121 98.5955931,18.6213012 98.2687733,18.1904933 C97.9419535,17.7596853 97.6918868,17.2273652 97.5185733,16.5935328 C97.3452597,15.9597005 97.258603,15.2367355 97.258603,14.4246378 C97.258603,13.642251 97.337832,12.9415691 97.4962901,12.3225922 C97.6547482,11.7036153 97.8949112,11.176247 98.2167792,10.7404872 C98.5386472,10.3047275 98.9422201,9.97047997 99.427498,9.73774465 C99.9127759,9.50500934 100.477283,9.38864168 101.121019,9.38864168 C101.626104,9.38864168 102.049484,9.44558755 102.391159,9.5594793 C102.732835,9.67337106 103.027468,9.80211825 103.275058,9.94572089 C103.522649,10.0893235 103.735577,10.2180707 103.913843,10.3319625 C104.092108,10.4458542 104.275325,10.5028001 104.463494,10.5028001 C104.661567,10.5028001 104.812597,10.4631856 104.916585,10.3839565 C105.020573,10.3047275 105.127037,10.1957876 105.235977,10.0571367 L105.235977,10.0571367 L106.201581,8.72014662 C105.518231,8.03679612 104.748224,7.51190371 103.891559,7.14546938 C103.034895,6.77903505 102.037105,6.59581789 100.898187,6.59581789 C99.6998479,6.59581789 98.6401594,6.7938905 97.7191218,7.19003572 C96.7980841,7.58618093 96.025601,8.13335652 95.4016723,8.83156247 C94.7777435,9.52976841 94.3048452,10.3567216 93.9829772,11.3124219 C93.6611092,12.2681222 93.5001752,13.3055275 93.5001752,14.4246378 C93.5001752,15.6724952 93.6809165,16.7841777 94.042399,17.7596853 C94.4038815,18.7351929 94.8941112,19.5596702 95.5130881,20.233117 C96.132065,20.9065639 96.8575059,21.4190768 97.6894109,21.7706557 C98.5213158,22.1222345 99.4076908,22.298024 100.348536,22.298024 Z M110.777059,4.69432084 C111.103878,4.69432084 111.410891,4.63242315 111.698096,4.50862777 C111.985301,4.38483239 112.235368,4.21894658 112.448296,4.01097034 C112.661224,3.8029941 112.832062,3.56035515 112.960809,3.2830535 C113.089556,3.00575185 113.15393,2.70864293 113.15393,2.39172676 C113.15393,2.06490695 113.089556,1.75789441 112.960809,1.47068912 C112.832062,1.18348384 112.661224,0.935893079 112.448296,0.727916839 C112.235368,0.519940599 111.985301,0.354054789 111.698096,0.230259408 C111.410891,0.106464027 111.103878,0.0445663371 110.777059,0.0445663371 C110.460142,0.0445663371 110.160558,0.106464027 109.878304,0.230259408 C109.596051,0.354054789 109.350936,0.519940599 109.14296,0.727916839 C108.934983,0.935893079 108.769097,1.18348384 108.645302,1.47068912 C108.521507,1.75789441 108.459609,2.06490695 108.459609,2.39172676 C108.459609,2.70864293 108.521507,3.00575185 108.645302,3.2830535 C108.769097,3.56035515 108.934983,3.8029941 109.14296,4.01097034 C109.350936,4.21894658 109.596051,4.38483239 109.878304,4.50862777 C110.160558,4.63242315 110.460142,4.69432084 110.777059,4.69432084 Z M112.604278,22.0751923 L112.604278,6.83350502 L108.934983,6.83350502 L108.934983,22.0751923 L112.604278,22.0751923 Z M120.65593,22.0751923 L120.65593,0 L116.986635,0 L116.986635,22.0751923 L120.65593,22.0751923 Z" id="redpencil"></path>
                        <path d="M126.182156,22.2831685 C126.489168,22.2831685 126.781325,22.2262227 127.058627,22.1123309 C127.335929,21.9984392 127.573616,21.842457 127.771688,21.6443844 C127.969761,21.4463118 128.128219,21.2111005 128.247063,20.9387507 C128.365906,20.6664009 128.425328,20.3717679 128.425328,20.0548517 C128.425328,19.7478391 128.365906,19.455682 128.247063,19.1783804 C128.128219,18.9010787 127.969761,18.6633916 127.771688,18.465319 C127.573616,18.2672464 127.335929,18.1087883 127.058627,17.9899447 C126.781325,17.8711012 126.489168,17.8116794 126.182156,17.8116794 C125.86524,17.8116794 125.568131,17.8711012 125.290829,17.9899447 C125.013527,18.1087883 124.773364,18.2672464 124.57034,18.465319 C124.367315,18.6633916 124.208857,18.9010787 124.094966,19.1783804 C123.981074,19.455682 123.924128,19.7478391 123.924128,20.0548517 C123.924128,20.3717679 123.981074,20.6664009 124.094966,20.9387507 C124.208857,21.2111005 124.367315,21.4463118 124.57034,21.6443844 C124.773364,21.842457 125.013527,21.9984392 125.290829,22.1123309 C125.568131,22.2262227 125.86524,22.2831685 126.182156,22.2831685 Z" id="."></path>
                        <path d="M133.565312,4.69432084 C133.892132,4.69432084 134.199145,4.63242315 134.48635,4.50862777 C134.773555,4.38483239 135.023622,4.21894658 135.23655,4.01097034 C135.449478,3.8029941 135.620316,3.56035515 135.749063,3.2830535 C135.87781,3.00575185 135.942184,2.70864293 135.942184,2.39172676 C135.942184,2.06490695 135.87781,1.75789441 135.749063,1.47068912 C135.620316,1.18348384 135.449478,0.935893079 135.23655,0.727916839 C135.023622,0.519940599 134.773555,0.354054789 134.48635,0.230259408 C134.199145,0.106464027 133.892132,0.0445663371 133.565312,0.0445663371 C133.248396,0.0445663371 132.948811,0.106464027 132.666558,0.230259408 C132.384304,0.354054789 132.139189,0.519940599 131.931213,0.727916839 C131.723237,0.935893079 131.557351,1.18348384 131.433556,1.47068912 C131.30976,1.75789441 131.247863,2.06490695 131.247863,2.39172676 C131.247863,2.70864293 131.30976,3.00575185 131.433556,3.2830535 C131.557351,3.56035515 131.723237,3.8029941 131.931213,4.01097034 C132.139189,4.21894658 132.384304,4.38483239 132.666558,4.50862777 C132.948811,4.63242315 133.248396,4.69432084 133.565312,4.69432084 Z M135.392532,22.0751923 L135.392532,6.83350502 L131.723237,6.83350502 L131.723237,22.0751923 L135.392532,22.0751923 Z M146.043887,22.298024 C147.182804,22.298024 148.215258,22.1148068 149.141247,21.7483725 C150.067237,21.3819382 150.857051,20.8570458 151.510691,20.1736953 C152.16433,19.4903448 152.669415,18.6633916 153.025946,17.6928358 C153.382477,16.72228 153.560742,15.6328807 153.560742,14.4246378 C153.560742,13.2262985 153.382477,12.1418509 153.025946,11.1712952 C152.669415,10.2007394 152.16433,9.37873805 151.510691,8.70529118 C150.857051,8.03184431 150.067237,7.51190371 149.141247,7.14546938 C148.215258,6.77903505 147.182804,6.59581789 146.043887,6.59581789 C144.904969,6.59581789 143.87004,6.77903505 142.939098,7.14546938 C142.008157,7.51190371 141.213391,8.03184431 140.554799,8.70529118 C139.896208,9.37873805 139.386171,10.2007394 139.024689,11.1712952 C138.663206,12.1418509 138.482465,13.2262985 138.482465,14.4246378 C138.482465,15.6328807 138.663206,16.72228 139.024689,17.6928358 C139.386171,18.6633916 139.896208,19.4903448 140.554799,20.1736953 C141.213391,20.8570458 142.008157,21.3819382 142.939098,21.7483725 C143.87004,22.1148068 144.904969,22.298024 146.043887,22.298024 Z M146.043887,19.4754893 C144.756415,19.4754893 143.805666,19.0471573 143.191641,18.1904933 C142.577616,17.3338292 142.270603,16.0884477 142.270603,14.4543487 C142.270603,12.8202496 142.577616,11.5699163 143.191641,10.7033486 C143.805666,9.83678096 144.756415,9.40349712 146.043887,9.40349712 C147.311551,9.40349712 148.24992,9.83430505 148.858994,10.6959209 C149.468067,11.5575368 149.772603,12.810346 149.772603,14.4543487 C149.772603,16.0983513 149.468067,17.3462088 148.858994,18.197921 C148.24992,19.0496332 147.311551,19.4754893 146.043887,19.4754893 Z" id="io"></path>
                    </g>
                </g>
            </g>
        </g>
    </g>
</svg>