<?xml version="1.0" encoding="UTF-8" standalone="no"?>
<!DOCTYPE svg PUBLIC "-//W3C//DTD SVG 1.1//EN" "http://www.w3.org/Graphics/SVG/1.1/DTD/svg11.dtd">
<svg width="100%" height="100%" viewBox="0 0 337 47" version="1.1" xmlns="http://www.w3.org/2000/svg" xmlns:xlink="http://www.w3.org/1999/xlink" xml:space="preserve" xmlns:serif="http://www.serif.com/" style="fill-rule:evenodd;clip-rule:evenodd;stroke-linejoin:round;stroke-miterlimit:2;">
    <g transform="matrix(1,0,0,1,-9.1701,-27.8698)">
        <g transform="matrix(1,0,0,1,223.684,73.2427)">
            <path d="M0,-45.333L2.582,-45.333L28.43,-9.773C29.927,-7.701 32.129,-4.071 32.129,-4.071L32.256,-4.071C32.256,-4.071 31.933,-7.504 31.933,-9.773L31.933,-45.333L34.708,-45.333L34.708,0L32.129,0L6.284,-35.56C4.789,-37.632 2.582,-41.25 2.582,-41.25L2.459,-41.25C2.459,-41.25 2.778,-37.816 2.778,-35.56L2.778,0L0,0L0,-45.333Z" style="fill:rgb(35,31,32);fill-rule:nonzero;"/>
        </g>
        <g transform="matrix(1,0,0,1,291.18,60.0357)">
            <path d="M0,-5.959C-0.343,-13.868 -5.053,-17.424 -10.446,-17.424C-16.406,-17.424 -21.9,-13.537 -23.075,-5.959L0,-5.959ZM-10.374,-19.95C-1.569,-19.95 2.845,-13.021 2.845,-5.186C2.845,-4.475 2.698,-3.433 2.698,-3.433L-23.271,-3.433C-23.271,5.96 -16.921,11.331 -9.395,11.331C-3.188,11.331 0.638,7.248 0.638,7.248L2.133,9.516C2.133,9.516 -2.404,13.991 -9.395,13.991C-18.54,13.991 -26.117,7.382 -26.117,-2.918C-26.117,-13.868 -18.663,-19.95 -10.374,-19.95" style="fill:rgb(35,31,32);fill-rule:nonzero;"/>
        </g>
        <g transform="matrix(1,0,0,1,309.693,57.9514)">
            <path d="M0,-1.802L-10.423,-17.093L-7.137,-17.093L0.711,-5.297C1.227,-4.463 1.814,-3.482 1.814,-3.482L1.937,-3.482C1.937,-3.482 2.526,-4.463 3.041,-5.297L10.864,-17.093L14.175,-17.093L3.752,-1.802L15.401,15.291L12.041,15.291L3.114,1.889C2.526,0.981 1.937,0.012 1.937,0.012L1.814,0.012C1.814,0.012 1.3,0.92 0.639,1.889L-8.289,15.291L-11.673,15.291L0,-1.802Z" style="fill:rgb(35,31,32);fill-rule:nonzero;"/>
        </g>
        <g transform="matrix(1,0,0,1,333.384,61.839)">
            <path d="M0,-18.32L-4.268,-18.32L-4.268,-20.784L0,-20.784L0,-29.981L2.722,-29.981L2.722,-20.784L11.207,-20.784L11.207,-18.32L2.722,-18.32L2.722,-0.515C2.722,8.044 7.847,9.135 10.446,9.135C11.354,9.135 11.919,9.012 11.919,9.012L11.919,11.538C11.919,11.538 11.28,11.661 10.3,11.661C6.94,11.661 0,10.435 0,-0.319L0,-18.32Z" style="fill:rgb(35,31,32);fill-rule:nonzero;"/>
        </g>
        <g transform="matrix(1,0,0,1,86.1841,50.57)">
            <path d="M0,0.012C5.959,0.012 9.711,-4.267 9.711,-10.423C9.711,-14.432 7.713,-17.67 4.402,-19.166C3.114,-19.742 1.68,-20.073 -1.937,-20.073L-12.311,-20.073L-12.311,0.012L0,0.012ZM-15.095,-22.66L-1.815,-22.66C2.391,-22.66 4.537,-22.207 6.352,-21.299C10.104,-19.423 12.63,-15.597 12.63,-10.423C12.63,-3.948 8.877,0.908 3.568,2.084L3.568,2.207C3.568,2.207 4.021,2.722 4.598,3.826L14.764,22.672L11.465,22.672L0.711,2.6L-12.311,2.6L-12.311,22.672L-15.095,22.672L-15.095,-22.66Z" style="fill:rgb(35,31,32);fill-rule:nonzero;"/>
        </g>
        <g transform="matrix(1,0,0,1,129.443,60.0357)">
            <path d="M0,-5.959C-0.319,-13.868 -5.051,-17.424 -10.423,-17.424C-16.381,-17.424 -21.888,-13.537 -23.052,-5.959L0,-5.959ZM-10.361,-19.95C-1.544,-19.95 2.857,-13.021 2.857,-5.186C2.857,-4.475 2.722,-3.433 2.722,-3.433L-23.249,-3.433C-23.249,5.96 -16.897,11.331 -9.393,11.331C-3.163,11.331 0.65,7.248 0.65,7.248L2.146,9.516C2.146,9.516 -2.391,13.991 -9.393,13.991C-18.516,13.991 -26.093,7.382 -26.093,-2.918C-26.093,-13.868 -18.65,-19.95 -10.361,-19.95" style="fill:rgb(35,31,32);fill-rule:nonzero;"/>
        </g>
        <g transform="matrix(1,0,0,1,142.145,61.839)">
            <path d="M0,-18.32L-4.279,-18.32L-4.279,-20.784L0,-20.784L0,-29.981L2.71,-29.981L2.71,-20.784L11.195,-20.784L11.195,-18.32L2.71,-18.32L2.71,-0.515C2.71,8.044 7.836,9.135 10.423,9.135C11.331,9.135 11.919,9.012 11.919,9.012L11.919,11.538C11.919,11.538 11.269,11.661 10.289,11.661C6.928,11.661 0,10.435 0,-0.319L0,-18.32Z" style="fill:rgb(35,31,32);fill-rule:nonzero;"/>
        </g>
        <g transform="matrix(1,0,0,1,169.599,42.612)">
            <path d="M0,28.889C7.062,28.889 11.072,21.569 11.072,15.156L11.072,13.402L9.001,13.402C3.495,13.402 -8.289,13.402 -8.289,21.827C-8.289,25.26 -5.506,28.889 0,28.889M8.938,10.876L11.072,10.876L11.072,9.773C11.072,2.587 7.383,0.122 2.207,0.122C-3.433,0.122 -7.063,3.237 -7.063,3.237L-8.62,1.03C-8.62,1.03 -4.732,-2.526 2.329,-2.526C9.784,-2.526 13.795,1.618 13.795,9.712L13.795,30.63L11.072,30.63L11.072,26.364C11.072,24.61 11.342,23.445 11.342,23.445L11.207,23.445C11.268,23.445 8.29,31.415 -0.135,31.415C-5.371,31.415 -11.134,28.497 -11.134,22.022C-11.134,11.011 3.176,10.876 8.938,10.876" style="fill:rgb(35,31,32);fill-rule:nonzero;"/>
        </g>
        <g transform="matrix(1,0,0,1,-0.125,1.027)">
            <path d="M194.136,39.831L196.859,39.831L196.859,72.215L194.136,72.215L194.136,39.831ZM193.881,26.883L197.117,26.883L197.117,31.604L193.881,31.604L193.881,26.883Z" style="fill:rgb(35,31,32);fill-rule:nonzero;"/>
        </g>
        <g transform="matrix(1,0,0,1,207.482,73.4997)">
            <path d="M0,-45.59L2.722,-45.59L2.722,-7.639C2.722,-3.102 5.051,-2.587 6.539,-2.587C7.055,-2.587 7.52,-2.649 7.52,-2.649L7.52,-0.123C7.52,-0.123 6.931,0 6.344,0C4.472,0 0,-0.711 0,-6.793L0,-45.59Z" style="fill:rgb(35,31,32);fill-rule:nonzero;"/>
        </g>
        <g transform="matrix(1,0,0,1,26.1831,44.7521)">
            <path d="M0,12.433L14.771,12.433L14.771,26.169L28.23,12.814L28.23,-15.579L-0.384,-15.579L-13.843,-2.224L0,-2.224L0,12.433ZM13.458,29.315L13.458,13.736L-1.313,13.736L-1.313,-0.921L-17.013,-0.921L-0.928,-16.882L29.543,-16.882L29.543,13.354L13.458,29.315Z" style="fill:rgb(35,31,32);fill-rule:nonzero;"/>
        </g>
        <g transform="matrix(1,0,0,1,55.0698,27.8068)">
            <path d="M0,30.681L-14.771,30.681C-15.134,30.681 -15.428,30.389 -15.428,30.03L-15.428,16.024L-29.543,16.024C-29.906,16.024 -30.2,15.732 -30.2,15.372L-30.2,0.715C-30.2,0.355 -29.906,0.063 -29.543,0.063C-29.181,0.063 -28.887,0.355 -28.887,0.715L-28.887,14.721L-15.043,14.721L-0.464,0.254C-0.208,0 0.208,0 0.464,0.254C0.721,0.509 0.721,0.921 0.464,1.176L-14.115,15.642L-14.115,29.378L0,29.378C0.362,29.378 0.656,29.67 0.656,30.03C0.656,30.389 0.362,30.681 0,30.681" style="fill:rgb(35,31,32);fill-rule:nonzero;"/>
        </g>
    </g>
</svg>
