<?xml version="1.0" encoding="UTF-8"?>
<svg width="120px" height="40px" viewBox="0 0 120 40" version="1.1" xmlns="http://www.w3.org/2000/svg" xmlns:xlink="http://www.w3.org/1999/xlink">
    <title>Selleo</title>
    <g id="Symbols" stroke="none" stroke-width="1" fill="none" fill-rule="evenodd">
        <g id="2021-/-sponsor-grid" transform="translate(-113.000000, -395.000000)" fill="#000000" fill-rule="nonzero">
            <g id="sponsors" transform="translate(0.000000, 1.070008)">
                <g id="Selleo" transform="translate(112.999765, 394.134753)">
                    <g id="Group">
                        <path d="M11.2221936,0.131626289 C9.02500726,0.688402929 7.79827742,2.79973117 7.96739182,5.01252805 C8.28220478,9.13631765 7.18035942,11.5559544 2.52841254,13.6985038 L2.52971342,13.6985038 C2.4139351,13.7518399 2.30075854,13.8103795 2.19148462,13.8741226 C2.19018374,13.8754235 2.18758198,13.8767244 2.1862811,13.8780252 C1.74918542,14.130396 1.36412494,14.4530142 1.04540934,14.8276676 C1.0415067,14.8328712 1.03760406,14.8380747 1.03370142,14.8419773 C0.956949501,14.931738 0.882799341,15.0267023 0.815153581,15.1229674 C0.812551821,15.1281709 0.808649181,15.1307727 0.806047421,15.1359762 C0.665552381,15.33371 0.541968781,15.5431516 0.435296621,15.7630004 C0.433995741,15.7656021 0.432694861,15.766903 0.431393981,15.7695048 C0.380659661,15.8735752 0.335128861,15.9802473 0.294801581,16.0882204 C0.289598061,16.1012292 0.285695421,16.1129371 0.280491901,16.1259459 C0.240164621,16.2300163 0.206341741,16.3366884 0.175120621,16.4446615 C0.169917101,16.460272 0.166014461,16.4745817 0.163412701,16.4901923 C0.132191581,16.5981653 0.104873101,16.7087401 0.0827581412,16.8206158 C0.0801563812,16.8310228 0.0788555012,16.8388281 0.0775546212,16.8466334 C0.0567405412,16.9611108 0.0385282212,17.0742874 0.0255194212,17.1900657 C0.0255194212,17.1939684 0.0242185412,17.2004728 0.0242185412,17.2043754 C0.0125106212,17.3188528 0.00600622124,17.4320294 0.00210358124,17.5478077 C0.00210358124,17.56602 0.000802701236,17.5816306 0.000802701236,17.6011438 C-0.00179905876,17.7117186 0.00210358124,17.8235943 0.00990886124,17.93547 C0.00990886124,17.956284 0.0125106212,17.9770981 0.0138115012,17.9966113 C0.0216167812,18.1110888 0.0346255812,18.2242653 0.0528379012,18.3348401 C0.0554396612,18.3517516 0.0580414212,18.368663 0.0606431812,18.3842736 C0.0801563812,18.5039545 0.103572221,18.6223346 0.134793341,18.7420156 C0.164713581,18.8616965 0.201138221,18.976174 0.238863741,19.0919523 C0.244067261,19.1075628 0.249270781,19.1218725 0.254474301,19.1374831 C0.292199821,19.2454561 0.335128861,19.3508274 0.381960541,19.4535969 C0.389765821,19.4731101 0.398871981,19.4913224 0.406677261,19.5108356 C0.453508941,19.6110034 0.504243261,19.712472 0.558880221,19.810038 C0.566685501,19.8243477 0.575791661,19.8399583 0.584897821,19.854268 C0.642136541,19.9544357 0.701977021,20.0520017 0.768321901,20.1456651 C0.770923661,20.1495677 0.773525421,20.1534704 0.777428061,20.157373 C0.842472061,20.2536381 0.912719581,20.3460006 0.986869741,20.4357613 C0.992073261,20.4422657 0.997276781,20.4487701 1.0024803,20.4578763 C1.07663046,20.5450352 1.1520815,20.6295924 1.23143518,20.710247 C1.24184222,20.720654 1.25094838,20.7310611 1.26135542,20.742769 C1.3407091,20.8234236 1.42136366,20.9001755 1.50722174,20.9730248 C1.51762878,20.98083 1.52673494,20.9886353 1.53714198,20.9990424 C1.62560182,21.0731925 1.71666342,21.1460418 1.8090259,21.2136876 C1.81162766,21.2149884 1.81422942,21.2162893 1.81683118,21.2188911 C2.01326406,21.360687 2.22270574,21.4829697 2.4399527,21.5922436 C2.44385534,21.5948454 2.44905886,21.5974472 2.45426238,21.6000489 C2.56093454,21.653385 2.67020846,21.7002167 2.78078326,21.7431457 C2.78598678,21.7470484 2.79249118,21.7483492 2.7976947,21.7496501 C3.25690534,21.9278707 3.74863798,22.0293393 4.25337942,22.0449499 L4.2611847,22.0449499 C4.38737006,22.0475516 4.5148563,22.0462508 4.64234254,22.0384455 C8.32903646,21.8849416 10.8683542,22.7773453 12.4072953,24.8132225 C12.7949575,25.3634948 13.1409916,25.9879172 13.4349905,26.6955959 C13.4414949,26.7112064 13.4493001,26.7255161 13.4545037,26.7411267 C14.1999079,28.6508185 15.8624325,29.9946276 17.7864341,29.9595038 C18.0986453,29.9543003 18.4173609,29.9165748 18.7425809,29.8359202 C20.3543712,29.426143 21.5290658,28.1733956 21.9115245,26.6695783 C21.9219316,26.6253484 21.928436,26.5798176 21.938843,26.5342868 C21.9596571,26.4406234 21.9804712,26.3482609 21.9960817,26.2545976 C22.0168958,26.119306 22.0312055,25.9827136 22.0390108,25.8435195 C22.0390108,25.838316 22.0403117,25.8331124 22.0403117,25.8292098 C22.0624266,25.4350432 22.0247011,25.0330712 21.9349404,24.6324002 C21.9258342,24.5946747 21.9219316,24.55825 21.9115245,24.5205245 C21.3560488,22.3207364 19.2343135,21.002945 17.0306228,21.263121 C17.0124105,21.2657228 16.995499,21.2657228 16.9772867,21.2670236 C15.8923528,21.3476782 14.936206,21.2839351 14.058112,21.1590506 C11.2234945,20.7570787 9.32941318,18.9020238 8.71539782,16.6319882 C7.82689678,13.3550715 9.53755398,10.2212516 13.3998667,8.61466477 C15.619168,7.69103997 17.1307905,5.63825133 16.5388901,3.30447261 C16.0380513,1.32193149 14.2558457,0.00153828945 12.2993222,0 C11.944182,-0.00366523055 11.5825373,0.0405646895 11.2221936,0.131626289" id="Path"></path>
                        <path d="M18.328901,9.83098757 C18.0179907,9.83489021 17.6979742,9.87261573 17.3727542,9.95457117 C15.7609639,10.3630475 14.5875701,11.6157949 14.2038105,13.1209131 C14.1921026,13.165143 14.1855982,13.2106738 14.1764921,13.2562046 C14.155678,13.349868 14.133563,13.4422304 14.1192533,13.5358938 C14.0984393,13.6711853 14.0841296,13.8090786 14.0776252,13.9469719 C14.0763243,13.9534763 14.0750234,13.9573789 14.0750234,13.9612816 C14.0542093,14.3554482 14.090634,14.7574201 14.1816956,15.159392 C14.1908017,15.1971176 14.1947044,15.2348431 14.2051114,15.2712677 L14.2051114,15.2725686 C14.7605872,17.4697549 16.8810216,18.7888472 19.0860132,18.5286712 C19.1042255,18.5260695 19.1211369,18.5260695 19.1393493,18.5234677 C20.2242832,18.4428132 21.18043,18.5078572 22.0598249,18.6314408 C24.8944424,19.0334127 26.7872228,20.8897684 27.4012381,23.159804 C28.2897392,26.4367208 26.579082,29.5705407 22.7167693,31.1758266 C20.497468,32.0994514 18.9871463,34.15224 19.5777458,36.4847179 C20.1709471,38.8289036 22.5515575,40.2481637 24.8957433,39.6549624 C27.0929296,39.0981858 28.3196594,36.9868576 28.150545,34.7727598 C27.8357321,30.6502711 28.9375774,28.2293334 33.5882234,26.086784 C33.7040017,26.033448 33.8171783,25.9749084 33.9264522,25.9111652 C33.929054,25.9098644 33.9303549,25.9085635 33.9316557,25.9085635 C34.3687514,25.6561928 34.752511,25.3322736 35.0712266,24.9576202 C35.0751293,24.9537176 35.0790319,24.948514 35.0829345,24.9433105 C35.1596865,24.850948 35.2325357,24.7585856 35.3014824,24.6623204 C35.3040841,24.655816 35.3079868,24.6532143 35.3092877,24.6480108 C35.4497827,24.450277 35.5746672,24.2421362 35.6800385,24.0209866 C35.6813393,24.0196857 35.6826402,24.017084 35.6826402,24.0157831 C35.7333745,23.9104118 35.7789053,23.8024388 35.8205335,23.6957666 C35.8244361,23.6827578 35.8296397,23.6710499 35.8335423,23.659342 C35.8738696,23.5552716 35.9089933,23.4485994 35.9402145,23.3406264 C35.945418,23.3263167 35.9480197,23.3107061 35.9519224,23.2976973 C35.9831435,23.1871225 36.010462,23.0778486 36.0325769,22.9659729 C36.0338778,22.9568668 36.0351787,22.9477606 36.0377805,22.9386544 C36.0598954,22.8267788 36.0768069,22.7123013 36.0898157,22.596523 C36.0898157,22.5926204 36.0911165,22.586116 36.0911165,22.5822133 C36.1041253,22.4677359 36.1093289,22.3532584 36.1132315,22.2374801 C36.1132315,22.2192678 36.1145324,22.2036572 36.1145324,22.184144 C36.1171341,22.0735692 36.1132315,21.9616936 36.1067271,21.8498179 C36.1067271,21.8290038 36.1041253,21.8094906 36.1028245,21.7899774 C36.0950192,21.6755 36.0807095,21.5623234 36.0637981,21.4504477 C36.0611963,21.4335363 36.0572937,21.4166248 36.0559928,21.4010143 C36.0364796,21.2813333 36.0130637,21.1629532 35.9818426,21.0432723 C35.9506215,20.9235913 35.9154977,20.8091139 35.8764713,20.6933356 C35.8712678,20.6790259 35.8660643,20.6621144 35.8608608,20.6478048 C35.8231353,20.5398317 35.7789053,20.4331596 35.7333745,20.33039 C35.7255693,20.3121777 35.717764,20.2926645 35.7086578,20.2744522 C35.6618261,20.1729836 35.6110918,20.0728158 35.5564549,19.9752498 C35.5486496,19.9609401 35.5395434,19.9453296 35.5304373,19.929719 C35.4718977,19.8308521 35.4133581,19.7319852 35.3470132,19.6383219 C35.3444114,19.6331184 35.3418097,19.6292157 35.337907,19.6253131 C35.272863,19.529048 35.2026155,19.4366855 35.1284653,19.3469248 C35.1219609,19.3404204 35.1180583,19.3326151 35.1128548,19.3261107 C35.0387046,19.2389517 34.9619527,19.1530936 34.8838999,19.0724391 C34.8734929,19.062032 34.8630858,19.0503241 34.8526788,19.041218 C34.7733251,18.9605634 34.6926705,18.8838115 34.6068125,18.8109622 C34.5964054,18.801856 34.5872993,18.7940508 34.5768922,18.7849446 C34.4884324,18.7094936 34.3973708,18.6379452 34.3037074,18.5702994 C34.3011057,18.5676976 34.2985039,18.5663968 34.297203,18.5650959 C34.0994693,18.4233 33.8913285,18.2984155 33.6740815,18.1904424 C33.6701789,18.1878407 33.6649753,18.1852389 33.6597718,18.1826372 C33.5530997,18.130602 33.4438257,18.0824694 33.3332509,18.0395404 C33.3267465,18.0356377 33.321543,18.0343368 33.3150386,18.033036 C32.8571289,17.8548154 32.3653962,17.7533468 31.8606548,17.7390371 L31.8528495,17.7390371 C31.7266641,17.7351344 31.6004788,17.7377362 31.4729925,17.7455415 L31.4729925,17.7442406 C27.7849977,17.9003462 25.2469809,17.0066416 23.7067389,14.9720653 C23.3203776,14.4217931 22.9743435,13.7960698 22.6790437,13.0883911 C22.6725393,13.0740814 22.6647341,13.0584708 22.6582297,13.0428603 C21.9232325,11.1565843 20.2919289,9.82448317 18.3978477,9.82448317 C18.3770336,9.83098757 18.3523169,9.83098757 18.328901,9.83098757" id="Path"></path>
                    </g>
                    <g id="Group" transform="translate(45.510235, 7.765239)">
                        <path d="M5.98,18.82 C7.233,18.82 7.688,18.422 7.688,17.681 C7.688,16.77 6.834,16.4 5.41,15.973 C2.819,15.203 0,14.151 0,10.848 C0,8.427 1.566,6.861 5.125,6.861 C7.687,6.861 9.681,7.43 9.681,7.43 C9.824,7.488 9.937,7.601 9.966,7.715 C9.966,7.715 10.251,9.879 10.251,9.992 C10.251,10.164 10.138,10.277 9.966,10.277 C9.824,10.277 7.546,9.708 5.126,9.708 C3.987,9.708 3.418,10.106 3.418,10.848 C3.418,11.758 4.272,12.128 5.696,12.556 C8.287,13.325 11.106,14.349 11.106,17.681 C11.106,19.959 9.255,21.667 5.981,21.667 C2.849,21.667 0.571,20.813 0.571,20.813 C0.428,20.755 0.315,20.641 0.287,20.528 C0.287,20.528 0.002,18.364 0.002,18.25 C0.002,18.079 0.116,17.966 0.287,17.966 C0.427,17.966 3.418,18.82 5.98,18.82" id="Path"></path>
                        <path d="M17,12.84 L23.378,12.84 C23.265,11.246 22.553,9.708 20.559,9.708 C17.855,9.708 17.199,11.046 17,12.84 M17,15.688 C17.228,17.51 17.997,18.82 20.844,18.82 C23.122,18.82 25.542,18.251 25.685,18.251 C25.856,18.251 25.969,18.365 25.969,18.536 C25.969,18.621 25.685,20.813 25.685,20.813 C25.656,20.956 25.571,21.07 25.401,21.098 C25.401,21.098 23.407,21.667 20.844,21.667 C14.722,21.667 13.441,18.335 13.441,14.264 C13.441,10.192 14.752,6.889 20.559,6.889 C24.599,6.889 26.853,9.139 26.853,14.264 L26.853,15.403 C26.853,15.546 26.709,15.688 26.54,15.688 L17,15.688 Z" id="Shape"></path>
                        <path d="M30.07,0.57 C30.07,0.399 30.184,0.285 30.355,0.285 L33.203,0 C33.373,0 33.488,0.114 33.488,0.285 L33.488,19.107 C33.488,20.246 33.772,20.986 33.772,21.1 C33.772,21.271 33.658,21.385 33.488,21.385 L30.64,21.385 C30.526,21.385 30.411,21.271 30.355,21.1 C30.355,21.1 30.07,20.246 30.07,19.107 L30.07,0.57" id="Path"></path>
                        <path d="M37.68,0.57 C37.68,0.399 37.794,0.285 37.965,0.285 L40.813,0 C40.983,0 41.097,0.114 41.097,0.285 L41.097,19.107 C41.097,20.246 41.381,20.986 41.381,21.1 C41.381,21.271 41.267,21.385 41.097,21.385 L38.249,21.385 C38.135,21.385 38.021,21.271 37.965,21.1 C37.965,21.1 37.68,20.246 37.68,19.107 L37.68,0.57" id="Path"></path>
                        <path d="M48.04,12.84 L54.418,12.84 C54.305,11.246 53.593,9.708 51.599,9.708 C48.893,9.708 48.239,11.046 48.04,12.84 M48.04,15.688 C48.268,17.51 49.037,18.82 51.884,18.82 C54.162,18.82 56.582,18.251 56.725,18.251 C56.896,18.251 57.009,18.365 57.009,18.536 C57.009,18.621 56.725,20.813 56.725,20.813 C56.697,20.956 56.611,21.07 56.441,21.098 C56.441,21.098 54.447,21.667 51.884,21.667 C45.762,21.667 44.481,18.335 44.481,14.264 C44.481,10.192 45.792,6.889 51.599,6.889 C55.639,6.889 57.893,9.139 57.893,14.264 L57.893,15.403 C57.893,15.546 57.749,15.688 57.58,15.688 L48.04,15.688 L48.04,15.688 Z" id="Shape"></path>
                        <path d="M67.37,18.82 C70.217,18.82 71.071,17.112 71.071,14.264 C71.071,11.416 70.217,9.708 67.37,9.708 C64.522,9.708 63.6679991,11.416 63.6679991,14.264 C63.667,17.112 64.522,18.82 67.37,18.82 M67.37,6.86 C71.641,6.86 74.488,9.138 74.488,14.264 C74.488,19.389 71.64,21.667 67.37,21.667 C63.099,21.667 60.251,19.389 60.251,14.264 C60.251,9.138 63.098,6.86 67.37,6.86" id="Shape"></path>
                    </g>
                </g>
            </g>
        </g>
    </g>
</svg>