<svg width="121" height="42" xmlns="http://www.w3.org/2000/svg"><defs><radialGradient cx="45.431%" cy="11.905%" fx="45.431%" fy="11.905%" r="139.428%" gradientTransform="matrix(1 0 0 .73586 0 .031)" id="a"><stop stop-color="#00D0FE" offset="0%"/><stop stop-color="#0093E9" offset="69.1%"/><stop stop-color="#0077B2" offset="100%"/></radialGradient><radialGradient cx="26.515%" cy="5.021%" fx="26.515%" fy="5.021%" r="145.793%" gradientTransform="matrix(1 0 0 .73572 0 .013)" id="b"><stop stop-color="#F79606" offset="0%"/><stop stop-color="#F96603" offset="100%"/></radialGradient></defs><g fill="none"><g transform="translate(.96 .734)"><path d="M11.262.602C9.065 1.16 7.838 3.27 8.007 5.483c.315 4.124-.787 6.544-5.44 8.686h.002a3.96 3.96 0 0 0-.338.176l-.005.004a4.36 4.36 0 0 0-1.141.95l-.012.014a3.78 3.78 0 0 0-.218.28c-.003.006-.007.008-.01.014-.14.197-.264.407-.37.627l-.004.006c-.05.104-.096.21-.137.319l-.014.038a3.807 3.807 0 0 0-.117.364 3.948 3.948 0 0 0-.138.7l-.001.014a5.016 5.016 0 0 0-.022.343l-.002.054c-.002.11.002.222.01.334 0 .021.002.042.003.061.008.115.021.228.04.339l.007.049c.02.12.043.238.074.358.03.12.067.234.104.35l.016.045c.038.108.08.214.127.316l.025.058a4.618 4.618 0 0 0 .178.343 3.54 3.54 0 0 0 .193.303c.065.096.135.189.21.278.005.007.01.013.015.023.074.087.15.171.229.252l.03.032a3.73 3.73 0 0 0 .276.257 5.318 5.318 0 0 0 .28.22c.196.141.405.264.622.373l.015.008c.106.053.216.1.326.143.006.004.012.005.017.006.46.179.951.28 1.456.296H4.3c.126.002.253 0 .38-.007 3.688-.153 6.227.739 7.766 2.775.387.55.734 1.175 1.028 1.882.006.016.014.03.019.046.745 1.91 2.408 3.253 4.332 3.218.312-.005.63-.043.956-.123a4.379 4.379 0 0 0 3.169-3.167c.01-.044.017-.09.027-.135.021-.094.042-.186.058-.28a4.27 4.27 0 0 0 .043-.41V26.3a4.36 4.36 0 0 0-.105-1.197c-.009-.038-.013-.074-.023-.112-.555-2.2-2.677-3.517-4.88-3.257l-.054.004c-1.085.08-2.041.017-2.92-.108-2.834-.402-4.728-2.257-5.342-4.527-.889-3.277.822-6.411 4.684-8.018 2.22-.923 3.731-2.976 3.14-5.31A4.38 4.38 0 0 0 11.261.602" fill="url(#a)"/><path d="M18.368 10.302c-.31.004-.63.041-.956.123a4.377 4.377 0 0 0-3.169 3.167c-.011.044-.018.09-.027.135-.02.094-.043.186-.057.28-.021.135-.035.273-.042.41l-.002.015c-.021.394.015.796.106 1.198.01.038.013.076.024.112v.001C14.8 17.94 16.92 19.26 19.125 19c.019-.002.036-.002.054-.005a13.454 13.454 0 0 1 2.92.108c2.835.402 4.728 2.258 5.342 4.528.888 3.277-.822 6.411-4.685 8.017-2.219.923-3.73 2.976-3.139 5.308a4.378 4.378 0 0 0 5.318 3.17c2.197-.556 3.424-2.667 3.255-4.882-.315-4.122.787-6.543 5.438-8.686a3.96 3.96 0 0 0 .338-.175l.005-.003a4.358 4.358 0 0 0 1.37-1.246c.003-.007.007-.01.008-.014a4.204 4.204 0 0 0 .511-.953c.004-.013.01-.024.013-.036.04-.104.076-.21.107-.319.005-.014.008-.03.011-.043a4.245 4.245 0 0 0 .138-.7l.002-.015a4.34 4.34 0 0 0 .022-.345l.001-.053a4.11 4.11 0 0 0-.008-.335 4.169 4.169 0 0 0-.043-.4c-.002-.016-.006-.033-.007-.048a3.883 3.883 0 0 0-.18-.708l-.016-.046a4.25 4.25 0 0 0-.127-.317l-.025-.056a4.306 4.306 0 0 0-.178-.345c-.059-.098-.117-.197-.183-.291a3.618 3.618 0 0 0-.219-.291c-.007-.007-.01-.015-.016-.021a5.366 5.366 0 0 0-.229-.254l-.03-.031a3.73 3.73 0 0 0-.247-.23c-.01-.01-.02-.017-.03-.026a4.304 4.304 0 0 0-.273-.215c-.002-.003-.005-.004-.006-.005a4.52 4.52 0 0 0-.623-.375l-.015-.008a4.278 4.278 0 0 0-.344-.15 4.35 4.35 0 0 0-1.455-.293h-.008a4.12 4.12 0 0 0-.38.006v-.001c-3.687.156-6.225-.738-7.766-2.772a9.9 9.9 0 0 1-1.027-1.884l-.021-.045c-.735-1.887-2.367-3.219-4.26-3.219-.021.007-.046.007-.07.007" fill="url(#b)"/></g><g transform="translate(46 8)" fill="#FFF"><path d="M6.49 19.79c1.253 0 1.708-.398 1.708-1.139 0-.911-.854-1.281-2.278-1.708-2.591-.77-5.41-1.822-5.41-5.125 0-2.421 1.566-3.987 5.125-3.987 2.562 0 4.556.569 4.556.569.143.058.256.171.285.285 0 0 .285 2.164.285 2.277 0 .172-.113.285-.285.285-.142 0-2.42-.569-4.84-.569-1.139 0-1.708.398-1.708 1.14 0 .91.854 1.28 2.278 1.708 2.591.769 5.41 1.793 5.41 5.125 0 2.278-1.851 3.986-5.125 3.986-3.132 0-5.41-.854-5.41-.854-.143-.058-.256-.172-.284-.285 0 0-.285-2.164-.285-2.278 0-.171.114-.284.285-.284.14 0 3.131.854 5.693.854m11.02-5.98h6.378c-.113-1.594-.825-3.132-2.819-3.132-2.704 0-3.36 1.338-3.559 3.132m0 2.848c.228 1.822.997 3.132 3.844 3.132 2.278 0 4.698-.569 4.841-.569.171 0 .284.114.284.285 0 .085-.284 2.277-.284 2.277-.029.143-.114.257-.284.285 0 0-1.994.569-4.557.569-6.122 0-7.403-3.332-7.403-7.403 0-4.072 1.311-7.375 7.118-7.375 4.04 0 6.294 2.25 6.294 7.375v1.139c0 .143-.144.285-.313.285h-9.54zM30.58 1.54c0-.171.114-.285.285-.285L33.713.97c.17 0 .285.114.285.285v18.822c0 1.139.284 1.879.284 1.993 0 .171-.114.285-.284.285H31.15c-.114 0-.229-.114-.285-.285 0 0-.285-.854-.285-1.993V1.54m7.61 0c0-.171.114-.285.285-.285L41.323.97c.17 0 .284.114.284.285v18.822c0 1.139.284 1.879.284 1.993 0 .171-.114.285-.284.285h-2.848c-.114 0-.228-.114-.284-.285 0 0-.285-.854-.285-1.993V1.54m10.36 12.27h6.378c-.113-1.594-.825-3.132-2.819-3.132-2.706 0-3.36 1.338-3.559 3.132m0 2.848c.228 1.822.997 3.132 3.844 3.132 2.278 0 4.698-.569 4.841-.569.171 0 .284.114.284.285 0 .085-.284 2.277-.284 2.277-.028.143-.114.257-.284.285 0 0-1.994.569-4.557.569-6.122 0-7.403-3.332-7.403-7.403 0-4.072 1.311-7.375 7.118-7.375 4.04 0 6.294 2.25 6.294 7.375v1.139c0 .143-.144.285-.313.285h-9.54zm19.33 3.132c2.847 0 3.701-1.708 3.701-4.556s-.854-4.556-3.701-4.556c-2.848 0-3.702 1.708-3.702 4.556-.001 2.848.854 4.556 3.702 4.556m0-11.96c4.271 0 7.118 2.278 7.118 7.404 0 5.125-2.848 7.403-7.118 7.403-4.271 0-7.119-2.278-7.119-7.403 0-5.126 2.847-7.404 7.119-7.404"/></g></g></svg>