<?xml version="1.0" encoding="UTF-8"?>
<svg width="194px" height="34px" viewBox="0 0 194 34" version="1.1" xmlns="http://www.w3.org/2000/svg" xmlns:xlink="http://www.w3.org/1999/xlink">
    <title>D820AD52-D40A-49FB-8C63-02EE8E9E1D44@1x</title>
    <g id="Symbols" stroke="none" stroke-width="1" fill="none" fill-rule="evenodd">
        <g id="2021-/-sponsor-grid" transform="translate(-112.000000, -7.000000)" fill="#555555">
            <g id="sponsors" transform="translate(0.000000, 1.000000)">
                <g id="row-1" transform="translate(112.000000, 0.000000)">
                    <g id="Simplabs" transform="translate(0.000000, 6.000000)">
                        <path d="M130.861111,0.925925926 L130.861111,22.037037 C130.753704,23.3759259 131.206481,24.7018519 132.111111,25.6944444 C132.935185,26.4814815 134.314815,26.9074074 136.277778,26.9444444 L136.712963,24.3333333 C136.290741,24.2787037 135.872222,24.1925926 135.462963,24.0740741 C135.150926,23.9916667 134.864815,23.8324074 134.62963,23.6111111 C134.415741,23.3935185 134.264815,23.1212963 134.194444,22.8240741 C134.092593,22.4092593 134.04537,21.9824074 134.055556,21.5555556 L134.055556,0.925925926 L130.861111,0.925925926 Z M161.018519,0.925925926 L161.018519,26.1111111 C161.75,26.3148148 162.675926,26.5092593 163.796296,26.712963 C165.097222,26.9240741 166.413889,27.0231481 167.731481,27.0092593 C168.994444,27.0296296 170.25,26.8157407 171.435185,26.3796296 C172.478704,25.9824074 173.425926,25.3666667 174.212963,24.5740741 C175.003704,23.7555556 175.610185,22.7768519 175.990741,21.7037037 C176.434259,20.487963 176.653704,19.2018519 176.638889,17.9074074 C176.652778,16.6527778 176.472222,15.4027778 176.101852,14.2037037 C175.784259,13.1472222 175.258333,12.1648148 174.555556,11.3148148 C173.864815,10.5175926 173.003704,9.88425926 172.037037,9.46296296 C170.962963,8.9962963 169.800926,8.76666667 168.62963,8.78703704 C167.702778,8.77592593 166.77963,8.91666667 165.898148,9.2037037 C165.286111,9.39166667 164.696296,9.6462963 164.138889,9.96296296 L164.138889,0.925925926 L161.018519,0.925925926 Z M69.8425926,1.94444444 C69.3046296,1.93425926 68.7824074,2.13333333 68.3888889,2.5 C67.9814815,2.88055556 67.7666667,3.425 67.8055556,3.98148148 C67.7712963,4.54537037 67.9842593,5.0962963 68.3888889,5.49074074 C69.2287037,6.19537037 70.4657407,6.19537037 71.3055556,5.49074074 C71.7111111,5.1 71.9305556,4.5537037 71.9074074,3.99074074 C71.9342593,3.4287037 71.7101852,2.88240741 71.2962963,2.5 C70.9018519,2.13425926 70.3805556,1.93518519 69.8425926,1.94444444 Z M57.0185185,8.75 C55.3240741,8.65185185 53.6444444,9.125 52.25,10.0925926 C51.1018519,10.9675926 50.4537037,12.3537037 50.5185185,13.7962963 C50.4462963,15.0944444 51.0101852,16.3490741 52.0277778,17.1574074 C52.5203704,17.5555556 53.0657407,17.8824074 53.6481481,18.1296296 C54.2777778,18.4074074 54.9259259,18.6944444 55.6203704,18.962963 C56.6935185,19.3472222 57.7185185,19.8537037 58.6759259,20.4722222 C59.275,20.8740741 59.625,21.5574074 59.6018519,22.2777778 C59.6435185,22.9453704 59.2768519,23.5759259 58.6759259,23.8703704 C57.7657407,24.262963 56.7768519,24.437963 55.787037,24.3796296 C54.7083333,24.4157407 53.6296296,24.2805556 52.5925926,23.9814815 L50.9074074,23.4074074 L50.9074074,26.2777778 C51.2222222,26.3888889 51.6018519,26.5092593 52.0833333,26.6481481 C53.2962963,26.9351852 54.5416667,27.0592593 55.787037,27.0185185 C57.6064815,27.1333333 59.4203704,26.7083333 61,25.7962963 C62.2333333,24.9824074 62.9407407,23.5675926 62.8518519,22.0925926 C62.875,21.3796296 62.7490741,20.6703704 62.4814815,20.0092593 C62.2407407,19.45 61.8768519,18.9537037 61.4166667,18.5555556 C60.875,18.1185185 60.2731481,17.762963 59.6296296,17.5 C58.962963,17.2037037 58.2314815,16.8888889 57.3888889,16.5740741 C56.75,16.3518519 56.2037037,16.1481481 55.7407407,15.9444444 C55.3305556,15.775 54.9425926,15.5574074 54.5833333,15.2962963 C54.3037037,15.087963 54.0759259,14.8185185 53.9166667,14.5092593 C53.7583333,14.1935185 53.6796296,13.8435185 53.6851852,13.4907407 C53.6555556,12.8009259 54.0490741,12.1583333 54.6759259,11.8703704 C55.4009259,11.5138889 56.2018519,11.3388889 57.0092593,11.3611111 C57.887963,11.3425926 58.7657407,11.4361111 59.6203704,11.6388889 C60.1722222,11.7685185 60.7092593,11.9546296 61.2222222,12.1944444 L61.2222222,9.32407407 L61.1111111,9.25925926 C60.7777778,9.16666667 60.3888889,9.08333333 59.9537037,9.00925926 C59.5185185,8.93518519 59.0277778,8.85185185 58.5648148,8.7962963 C58.0666667,8.74814815 57.5657407,8.72685185 57.0648148,8.73148148 L57.0185185,8.75 Z M147.481481,8.75 C146.436111,8.74444444 145.392593,8.8287037 144.361111,9 C143.806481,9.09444444 143.258333,9.22685185 142.722222,9.39814815 L142.722222,12.0833333 C143.287963,11.8851852 143.87037,11.7398148 144.462963,11.6481481 C145.37963,11.487037 146.309259,11.4092593 147.240741,11.4166667 C147.928704,11.3972222 148.613889,11.5231481 149.25,11.787037 C149.722222,11.9898148 150.136111,12.3083333 150.453704,12.712963 C150.753704,13.1111111 150.965741,13.5685185 151.074074,14.0555556 C151.185185,14.5574074 151.240741,15.0694444 151.240741,15.5833333 L151.240741,16.462963 C151.148148,16.462963 150.981481,16.3888889 150.75,16.3518519 L149.962963,16.212963 C149.657407,16.1574074 149.333333,16.1111111 148.990741,16.0740741 C148.648148,16.037037 148.314815,16.0740741 148,16.0740741 C147.028704,16.0703704 146.060185,16.1731481 145.111111,16.3796296 C144.27037,16.5481481 143.464815,16.8611111 142.731481,17.3055556 C142.057407,17.7212963 141.5,18.3009259 141.111111,18.9907407 C140.692593,19.7490741 140.484259,20.6064815 140.509259,21.4722222 C140.483333,22.3546296 140.657407,23.2314815 141.018519,24.037037 C141.337037,24.7324074 141.831481,25.3324074 142.453704,25.7777778 C143.122222,26.225 143.87037,26.5398148 144.657407,26.7037037 C145.568519,26.9138889 146.500926,27.0166667 147.435185,27.0092593 C148.138889,27.0092593 148.842593,27.0092593 149.564815,26.9166667 C150.287037,26.8240741 150.935185,26.7962963 151.555556,26.7314815 C152.175926,26.6666667 152.731481,26.6018519 153.222222,26.5185185 L154.37963,26.3333333 L154.37963,15.4166667 C154.388889,14.5009259 154.274074,13.587963 154.037037,12.7037037 C153.582407,11.0722222 152.335185,9.77592593 150.722222,9.25925926 C149.677778,8.91203704 148.581481,8.74907407 147.481481,8.77777778 L147.481481,8.75 Z M188.037037,8.75 C186.363889,8.66111111 184.707407,9.13425926 183.333333,10.0925926 C182.176852,10.9638889 181.518519,12.3490741 181.574074,13.7962963 C181.525,15.087963 182.080556,16.3314815 183.074074,17.1574074 C183.574074,17.5546296 184.125,17.8814815 184.712963,18.1296296 C185.342593,18.4074074 186,18.6944444 186.685185,18.962963 C187.752778,19.3462963 188.772222,19.8527778 189.722222,20.4722222 C190.318519,20.8759259 190.667593,21.5583333 190.648148,22.2777778 C190.687963,22.9453704 190.321296,23.5740741 189.722222,23.8703704 C188.812037,24.262963 187.823148,24.437037 186.833333,24.3796296 C185.75463,24.4148148 184.675926,24.2805556 183.638889,23.9814815 C182.851852,23.7222222 182.296296,23.5185185 181.925926,23.3796296 L181.925926,26.2777778 C182.240741,26.3796296 182.638889,26.5092593 183.12963,26.6481481 C184.342593,26.9351852 185.587963,27.0592593 186.833333,27.0185185 C188.652778,27.1333333 190.466667,26.7083333 192.046296,25.7962963 C193.277778,24.9814815 193.985185,23.5675926 193.898148,22.0925926 C193.919444,21.3796296 193.793519,20.6703704 193.527778,20.0092593 C193.276852,19.4490741 192.902778,18.9527778 192.435185,18.5555556 C191.926852,18.1222222 191.359259,17.7638889 190.75,17.4907407 C190.092593,17.1944444 189.351852,16.8796296 188.5,16.5648148 C187.861111,16.3425926 187.314815,16.1388889 186.861111,15.9351852 C186.450926,15.7666667 186.062037,15.5490741 185.703704,15.287037 C185.42037,15.0805556 185.188889,14.8111111 185.027778,14.5 C184.871296,14.1833333 184.791667,13.8342593 184.796296,13.4814815 C184.771296,12.7898148 185.166667,12.1481481 185.796296,11.8611111 C186.514815,11.5037037 187.309259,11.3287037 188.111111,11.3518519 C188.999074,11.3333333 189.885185,11.4268519 190.75,11.6296296 C191.290741,11.7527778 191.818519,11.9296296 192.324074,12.1574074 L192.324074,9.33333333 L192.185185,9.28703704 C191.851852,9.19444444 191.462963,9.11111111 191.027778,9.03703704 C190.592593,8.96296296 190.101852,8.87962963 189.611111,8.82407407 C189.112963,8.77592593 188.612037,8.75462963 188.111111,8.75925926 L188.037037,8.75 Z M84.3333333,8.81481481 C83.325,8.84537037 82.3194444,8.94444444 81.3240741,9.11111111 C80.1203704,9.31481481 79.1574074,9.49074074 78.4259259,9.66666667 L78.4259259,26.6018519 L81.5740741,26.6018519 L81.5740741,11.8981481 C81.6666667,11.8981481 81.8518519,11.8240741 82.1296296,11.787037 L83.0555556,11.6759259 C83.3888889,11.6759259 83.7314815,11.6759259 84.1018519,11.6111111 C84.4722222,11.5462963 84.7962963,11.5648148 85.1203704,11.5648148 C85.7555556,11.5472222 86.387963,11.6666667 86.9722222,11.9166667 C87.4546296,12.1416667 87.8574074,12.5055556 88.1296296,12.962963 C88.4435185,13.537037 88.6472222,14.1657407 88.7314815,14.8148148 C88.8611111,15.687963 88.9231481,16.5703704 88.9166667,17.4537037 L88.9166667,26.5740741 L92.0925926,26.5740741 L92.0925926,16.8055556 C92.0935185,16.0777778 92.0472222,15.3509259 91.9537037,14.6296296 C91.8657407,14.0018519 91.7268519,13.3824074 91.537037,12.7777778 C91.9731481,12.45 92.4574074,12.1907407 92.9722222,12.0092593 C93.8175926,11.7055556 94.712963,11.5638889 95.6111111,11.5925926 C96.2675926,11.5703704 96.9222222,11.6898148 97.5277778,11.9444444 C98.0064815,12.1611111 98.4101852,12.5157407 98.6851852,12.962963 C98.9972222,13.537037 99.1953704,14.1657407 99.2685185,14.8148148 C99.3851852,15.6898148 99.4407407,16.5712963 99.4351852,17.4537037 L99.4351852,26.5740741 L102.611111,26.5740741 L102.611111,16.8055556 C102.618519,15.7351852 102.531481,14.6666667 102.351852,13.6111111 C102.199074,12.7148148 101.85463,11.862037 101.342593,11.1111111 C100.832407,10.3768519 100.125926,9.8 99.3055556,9.44444444 C98.2407407,9.01851852 97.0990741,8.82037037 95.9537037,8.86111111 C95.2842593,8.8537037 94.6157407,8.925 93.962963,9.07407407 C93.3972222,9.20740741 92.8398148,9.37777778 92.2962963,9.58333333 C91.8583333,9.74351852 91.4342593,9.93888889 91.0277778,10.1666667 C90.6851852,10.3703704 90.4444444,10.5185185 90.287037,10.6296296 C89.7481481,10.0231481 89.0712963,9.55277778 88.3148148,9.25925926 C87.3935185,8.93518519 86.4203704,8.78518519 85.4444444,8.81481481 L84.3148148,8.81481481 L84.3333333,8.81481481 Z M115.009259,8.81481481 C114.055556,8.84444444 113.105556,8.94351852 112.166667,9.11111111 C111.037037,9.32407407 110.092593,9.53703704 109.342593,9.71296296 L109.342593,32.8055556 L112.537037,32.8055556 L112.537037,25.8333333 C113.093519,26.1509259 113.683333,26.4055556 114.296296,26.5925926 C115.172222,26.8731481 116.088889,27.0083333 117.009259,26.9907407 C118.186111,27.0101852 119.353704,26.7796296 120.435185,26.3148148 C121.396296,25.8925926 122.250926,25.2592593 122.935185,24.462963 C123.647222,23.6212963 124.182407,22.6453704 124.509259,21.5925926 C124.871296,20.3916667 125.042593,19.1425926 125.018519,17.8888889 C125.037963,16.5962963 124.825,15.3101852 124.388889,14.0925926 C123.635185,11.9138889 121.930556,10.1916667 119.759259,9.41666667 C118.575,8.975 117.318519,8.76203704 116.055556,8.78703704 L114.962963,8.78703704 L115.009259,8.81481481 Z M68.2962963,9.18518519 L68.2962963,26.5925926 L71.4907407,26.5925926 L71.4907407,9.19444444 L68.2962963,9.18518519 Z M168.296296,11.5277778 C169.100926,11.5055556 169.899074,11.6703704 170.62963,12.0092593 C171.262963,12.3231481 171.809259,12.787963 172.222222,13.3611111 C172.662037,13.962037 172.977778,14.6453704 173.148148,15.3703704 C173.330556,16.2 173.417593,17.0481481 173.407407,17.8981481 C173.52037,19.6009259 172.973148,21.2824074 171.87963,22.5925926 C170.812037,23.7166667 169.308333,24.325 167.759259,24.2592593 C167.041667,24.2675926 166.324074,24.2305556 165.611111,24.1481481 C165.149074,24.0916667 164.691667,24.0046296 164.240741,23.8888889 L164.240741,12.8703704 C164.75463,12.4824074 165.322222,12.1703704 165.925926,11.9444444 C166.687037,11.6481481 167.498148,11.5 168.314815,11.5092593 L168.296296,11.5277778 Z M116.046296,11.5925926 C117.590741,11.5231481 119.091667,12.1203704 120.166667,13.2314815 C121.251852,14.5203704 121.799074,16.1796296 121.694444,17.8611111 C121.698148,18.7027778 121.60463,19.5416667 121.416667,20.3611111 C121.244444,21.0861111 120.92963,21.7685185 120.490741,22.3703704 C120.07963,22.9435185 119.532407,23.4046296 118.898148,23.712963 C118.166667,24.0574074 117.363889,24.2259259 116.555556,24.2037037 C115.089815,24.1962963 113.663889,23.7268519 112.481481,22.8611111 L112.481481,11.9259259 C112.898148,11.8166667 113.322222,11.7398148 113.75,11.6944444 C114.497222,11.6194444 115.249074,11.5888889 116,11.6018519 L116.046296,11.5925926 Z M148.240741,18.5185185 C148.860185,18.512037 149.47963,18.5518519 150.092593,18.6388889 C150.475,18.6833333 150.85,18.7833333 151.203704,18.9351852 L151.203704,24.1203704 C150.725,24.2203704 150.238889,24.2824074 149.75,24.3055556 L147.759259,24.3055556 C146.725926,24.3574074 145.696296,24.1342593 144.777778,23.6574074 C144.009259,23.1435185 143.587963,22.2435185 143.685185,21.3240741 C143.656481,20.8009259 143.810185,20.2833333 144.12037,19.8611111 C144.42037,19.4953704 144.800926,19.2046296 145.231481,19.0092593 C145.7,18.7925926 146.2,18.6518519 146.712963,18.5925926 C147.22037,18.5398148 147.730556,18.5148148 148.240741,18.5185185 Z" id="Shape"></path>
                        <path d="M18.5185185,19.75 L18.5185185,33.7037037 C23.2657407,33.2564815 27.6083333,30.8194444 30.462963,27 L18.5185185,19.75 Z" id="Path" fill-rule="nonzero"></path>
                        <path d="M32.1388889,24.2777778 C33.2796296,21.975 33.8759259,19.4407407 33.8796641,16.8703704 C33.8972222,8.16481481 27.187963,0.796296296 18.5185185,0 L18.5185185,16.0092593 L32.1388889,24.2777778 Z M1.7037037,9.50925926 C0.585185185,11.7953704 0.00185185185,14.3064815 0,16.8518519 C0.00555555556,25.5342593 6.69814815,32.8722222 15.3425926,33.6759259 L15.3425926,17.8055556 L1.7037037,9.50925926 Z" id="Shape" fill-rule="nonzero"></path>
                        <path d="M15.3425926,14.0648148 L15.3425926,0 C10.5666667,0.452777778 6.20277778,2.91944444 3.35185185,6.77777778 L15.3425926,14.0648148 Z" id="Path" fill-rule="nonzero"></path>
                    </g>
                </g>
            </g>
        </g>
    </g>
</svg>