<svg width="102" height="59" xmlns="http://www.w3.org/2000/svg"><g transform="translate(.75)" fill="none" fill-rule="evenodd"><path d="M4.756 58.439c-1.709 0-3.218-.2-4.585-1.538l1.766-1.766c.882.883 2.05 1.026 2.876 1.026.94 0 1.908-.314 1.908-1.111 0-.541-.285-.911-1.14-.997l-1.708-.17c-1.936-.2-3.133-1.026-3.133-3.02 0-2.22 1.966-3.446 4.158-3.446 1.68 0 3.076.285 4.13 1.254l-1.652 1.68c-.626-.57-1.566-.712-2.506-.712-1.082 0-1.538.484-1.538 1.025 0 .399.17.854 1.11.94l1.71.17c2.135.2 3.218 1.34 3.218 3.162-.057 2.364-2.08 3.503-4.614 3.503zm9.256-.114c-2.193 0-3.133-1.538-3.133-3.076v-5.325h-1.14v-2.08h1.14v-3.189h2.677v3.19h1.908v2.05h-1.908v5.183c0 .627.285.969.94.969h.968v2.278h-1.452zm2.648-12.616v-2.193h2.763v2.193H16.66zm.057 12.616V47.56h2.677v10.765h-2.677zm8.772.114c-2.165 0-4.813-1.168-4.813-5.525s2.677-5.497 4.813-5.497c1.48 0 2.62.456 3.56 1.453l-1.823 1.823c-.57-.599-1.025-.855-1.737-.855-.655 0-1.14.228-1.538.712-.427.513-.598 1.253-.598 2.392 0 1.14.2 1.88.598 2.393.399.484.883.712 1.538.712.712 0 1.167-.257 1.737-.855l1.823 1.794c-.969.997-2.08 1.453-3.56 1.453z" fill="#FFF" fill-rule="nonzero"/><path fill="#FFF" fill-rule="nonzero" d="M36.4530741 58.3249185L33.8045304 53.8252422 32.6653719 55.1067956 32.6653719 58.3249185 29.9883492 58.3249185 29.9883492 43.6012941 32.6653719 43.6012941 32.6653719 51.9456306 36.2537213 47.5313911 39.5003232 47.5313911 35.6556631 51.8886726 39.7851129 58.3249185z"/><path d="M42.035 53.768c0 1.396.854 2.393 2.364 2.393 1.167 0 1.765-.342 2.449-1.026l1.623 1.595c-1.082 1.082-2.164 1.709-4.1 1.709-2.535 0-4.985-1.168-4.985-5.525 0-3.503 1.908-5.497 4.7-5.497 2.99 0 4.698 2.193 4.698 5.155v1.196h-6.749zm3.845-2.99c-.285-.655-.883-1.11-1.795-1.11-.91 0-1.509.483-1.794 1.11-.17.399-.228.683-.256 1.168h4.1c-.028-.485-.085-.77-.255-1.168zm10.024-.285c-.427-.427-.769-.655-1.424-.655-.826 0-1.737.627-1.737 1.994v6.493h-2.677V47.56h2.62v1.025c.513-.626 1.566-1.168 2.706-1.168 1.053 0 1.794.257 2.534 1.026l-2.022 2.05z" fill="#FFF" fill-rule="nonzero"/><path d="M70.03 47.417c-1.339 0-2.307.428-3.218 1.367-.684-.94-1.652-1.367-2.848-1.367-.997 0-1.994.4-2.677 1.111v-.968h-2.62v10.765h2.677v-6.522c0-1.48.94-1.965 1.794-1.965.854 0 1.766.484 1.766 1.965v6.522h2.677v-6.579c0-1.395.968-1.908 1.794-1.908.854 0 1.765.484 1.765 1.965v6.522h2.677v-6.892c0-1.168-.313-2.193-1.167-3.076-.57-.57-1.538-.94-2.62-.94zm11.676 6.636c0 1.481-.94 1.965-1.794 1.965-.854 0-1.766-.484-1.766-1.965V47.56H75.47v6.892c0 1.167.228 2.193 1.082 3.047.599.598 1.481.94 2.535.94.997 0 1.994-.37 2.677-1.11v.996h2.62V47.56h-2.677v6.493zm7.091 1.025V43.601H86.12V55.25c0 1.538.94 3.076 3.133 3.076h1.538v-2.278h-1.025c-.684 0-.969-.314-.969-.969zm11.876-2.506c0-2.962-1.709-5.155-4.699-5.155-2.79 0-4.699 1.994-4.699 5.497 0 4.357 2.45 5.525 4.984 5.525 1.936 0 2.99-.598 4.1-1.709l-1.622-1.595c-.684.684-1.254 1.026-2.45 1.026-1.509 0-2.363-1.026-2.363-2.393h6.75v-1.196zm-6.75-.626c.03-.485.086-.77.257-1.168.285-.655.883-1.11 1.794-1.11s1.51.483 1.794 1.11c.171.399.228.683.257 1.168h-4.101z" fill="#F26922" fill-rule="nonzero"/><path d="M55.392 40.44c-.37.171-.883.143-1.424.171-.456 0-1.111.028-1.367-.228-.143-.142-.2-.399-.2-.57 0-.199.029-.427.086-.654.057-.257.114-.598 0-.712-.114-.171-.541-.086-.74-.228-.229-.143-.286-.427-.37-.798-.03-.114-.086-.199-.115-.284-.057-.542.114-1.254.228-1.795.142-.57.285-1.11.399-1.651a10.9 10.9 0 0 0 .142-2.563c-.028-.428-.085-.77-.028-1.14.057-.341.199-.626.284-.968.029-.114 0-.228.029-.342 0-.114.085-.199.085-.284 0-.228-.057-.513-.085-.798-.057-.769 0-1.823.057-2.478.028-.227.114-.484-.029-.598-.797 0-1.509.143-2.25.228-1.965.257-4.442.285-6.35-.085-.171-.029-.37-.029-.541-.086-1.339-.313-2.592-.883-3.56-1.651-.143-.114-.314-.257-.484-.37-.171-.115-.342-.314-.485-.37-.768-.371-1.794.056-2.107.54-.114.2-.228.456-.342.684a7.282 7.282 0 0 0-.313.683c-.513 1.168-1.082 2.279-1.595 3.446-.285.684-.626 1.424-.854 2.165-.456 1.594-.029 3.759.342 5.268.028.143.113.285.17.427.114.37.37.855.655 1.111.143.142.4.2.57.342.2.17.37.54.541.854.057.114.171.285.256.427.2.342.257.655-.114.855-.284.142-.711.2-1.11.228-.171.056-.114.284-.228.398-.057.057-.342.171-.484.228-.513.142-1.424.142-1.823 0-.2-.085-.427-.228-.484-.399-.114-.313.142-.74-.085-.968-.114-.114-.314-.085-.513-.17a1.165 1.165 0 0 1-.655-.713c-.313-.797-.114-2.022-.142-2.99 0-.285-.057-.598-.057-.911-.029-.57-.143-1.14-.228-1.71-.029-.284-.114-.512-.171-.768-.086-.399-.171-.854-.285-1.253-.142-.456-.142-.883.029-1.282.028-.114.142-.199.227-.341.086-.228.114-.485.114-.684-.057-.114-.341-.028-.398-.142-.171-1.253-.342-2.478-.456-3.788-.028-.427-.028-.883-.085-1.339-.086-.882 0-1.794-.086-2.648-.028-.427-.142-.826-.2-1.225-.142-1.139-.455-2.591-.227-3.787a4.44 4.44 0 0 1 .854-1.937c.314-.399.627-.769.997-1.11.342-.342.74-.656 1.168-.969.256-.2.54-.427.854-.541a6.178 6.178 0 0 1 2.42-.598c.912-.029 1.937-.057 2.82.114.855.142 1.709.313 2.563.484.826.17 1.624.399 2.421.598.114.029.2.085.285.114.256.057.54.085.797.17.74.2 1.68.286 2.563.286.969 0 1.823-.029 2.62-.228.114-.029.2-.086.342-.143.114-.057.285-.028.399-.085.085-.029.17-.114.256-.142.456-.228.855-.428 1.253-.712.313-.228.598-.428 1.025-.598.2-.086.37-.171.57-.228.399-.143.854-.257 1.168-.456.484-.313.854-.769 1.253-1.11.427-.37.854-.713 1.31-1.083.911-.712 1.822-1.367 2.677-2.05.427-.342.911-.684 1.424-.969.997-.57 1.993-1.224 3.417-1.338.57-.029 1.14-.057 1.709.028.142.029.37.114.513.086.142-.029.256-.257.37-.456.2-.37.37-.626.54-1.082.115-.285.058-.57.343-.541.284 0 .256.769.256 1.054.028.341-.029.797.028 1.025.029.17.257.399.485.399.17 0 .256-.114.398-.228.143-.086.285-.143.399-.228.228-.171.513-.456.74-.712.2-.2.513-.655.826-.627.57.057 0 .883-.114 1.168-.284.655-.57 1.11-.91 1.737-.143.256-.457.598-.457.855 0 .17.143.313.228.484.029.085.057.199.086.284.2.456.341 1.083.484 1.595.142.427.228.912.399 1.339.142.427.37.826.54 1.224.058.114.058.257.086.342.37.911.712 1.965 1.14 2.848.17.37.426.797.426 1.339 0 .57-.313.854-.57 1.281-.142.228-.34.57-.54.655-.143.057-.342 0-.484.029-.228.028-.37.17-.57.199-.541.057-1.025-.342-1.168-.74-.057-.143-.028-.314-.057-.485-.113-.626-.427-.94-.882-1.367-.285-.256-.513-.455-.855-.655-.512-.256-1.053-.427-1.595-.712-.199-.114-.427-.199-.598-.17-.284.056-.57.512-.797.797-1.396 1.823-2.62 3.702-3.959 5.496-.882 1.196-1.85 2.393-2.563 3.76-.17.341-.285.74-.427 1.139-.142.398-.2.826-.342 1.224-.512 1.481-.683 3.304-1.167 4.87-.057.171-.057.342-.114.541-.228.798-.427 1.71-.684 2.563-.2.627-.256 1.481-.285 2.307-.028.77-.056 1.88.228 2.364.143.256.684.37.883.627.143.199.228.57.37.797.086.17.37.541.342.797-.028.2-.2.342-.342.4-.17.085-.398.028-.57.113-.255.142-.17.37-.37.484z" fill="#FFF"/></g></svg>