<?xml version="1.0" encoding="UTF-8"?>
<svg width="101px" height="59px" viewBox="0 0 101 59" version="1.1" xmlns="http://www.w3.org/2000/svg" xmlns:xlink="http://www.w3.org/1999/xlink">
    <title>B1450C27-C4ED-4E7E-81E3-CACF04A90356@1x</title>
    <g id="Symbols" stroke="none" stroke-width="1" fill="none" fill-rule="evenodd">
        <g id="2021-/-sponsor-grid" transform="translate(-718.000000, -500.000000)" fill="#555555">
            <g id="sponsors" transform="translate(0.000000, 1.000000)">
                <g id="row-6" transform="translate(0.000000, 499.000000)">
                    <g id="StickerMule" transform="translate(718.000000, 0.000000)">
                        <path d="M4.75598701,58.4388344 C3.04724916,58.4388344 1.53786406,58.2394816 0.170873785,56.9009703 L1.93656956,55.1352745 C2.81941745,56.0181224 3.98705498,56.1605173 4.81294494,56.1605173 C5.75275075,56.1605173 6.72103553,55.8472486 6.72103553,55.0498377 C6.72103553,54.5087373 6.43624589,54.1385108 5.58187697,54.0530739 L3.87313912,53.8822001 C1.93656956,53.6828474 0.740453067,52.8569574 0.740453067,50.8634299 C0.740453067,48.6420707 2.70550159,47.4174753 4.89838183,47.4174753 C6.57864071,47.4174753 7.97410995,47.7022649 9.02783163,48.6705497 L7.37605171,50.3508086 C6.7495145,49.7812293 5.80970868,49.6388345 4.86990287,49.6388345 C3.78770223,49.6388345 3.3320388,50.1229769 3.3320388,50.6640772 C3.3320388,51.0627827 3.50291259,51.5184461 4.4427184,51.603883 L6.15145625,51.7747568 C8.28737856,51.9741095 9.3695792,53.1132681 9.3695792,54.9359218 C9.31262127,57.2996758 7.29061482,58.4388344 4.75598701,58.4388344 Z" id="Path" fill-rule="nonzero"></path>
                        <path d="M14.0116503,58.3249185 C11.8187701,58.3249185 10.8789643,56.7870545 10.8789643,55.2491904 L10.8789643,49.9236241 L9.73980573,49.9236241 L9.73980573,47.8446597 L10.8789643,47.8446597 L10.8789643,44.6550157 L13.5559869,44.6550157 L13.5559869,47.8446597 L15.4640775,47.8446597 L15.4640775,49.8951451 L13.5559869,49.8951451 L13.5559869,55.0783166 C13.5559869,55.7048538 13.8407766,56.0466014 14.4957927,56.0466014 L15.4640775,56.0466014 L15.4640775,58.3249185 L14.0116503,58.3249185 L14.0116503,58.3249185 Z" id="Path" fill-rule="nonzero"></path>
                        <path d="M16.660194,45.7087374 L16.660194,43.5158572 L19.4226535,43.5158572 L19.4226535,45.7087374 L16.660194,45.7087374 Z M16.7171519,58.3249185 L16.7171519,47.5598701 L19.3941746,47.5598701 L19.3941746,58.3249185 L16.7171519,58.3249185 Z" id="Shape" fill-rule="nonzero"></path>
                        <path d="M25.4886729,58.4388344 C23.3242716,58.4388344 20.675728,57.2711969 20.675728,52.9139153 C20.675728,48.5566338 23.3527506,47.4174753 25.4886729,47.4174753 C26.969579,47.4174753 28.1087376,47.8731387 29.0485434,48.8699024 L27.2258897,50.6925561 C26.6563104,50.0944979 26.200647,49.8381872 25.4886729,49.8381872 C24.8336567,49.8381872 24.3495143,50.0660189 23.9508088,50.5501613 C23.5236244,51.0627827 23.3527506,51.8032357 23.3527506,52.9423943 C23.3527506,54.0815529 23.5521033,54.8220059 23.9508088,55.3346273 C24.3495143,55.8187697 24.8336567,56.0466014 25.4886729,56.0466014 C26.200647,56.0466014 26.6563104,55.7902907 27.2258897,55.1922325 L29.0485434,56.9864072 C28.0802586,57.983171 26.969579,58.4388344 25.4886729,58.4388344 Z" id="Path" fill-rule="nonzero"></path>
                        <polygon id="Path" fill-rule="nonzero" points="36.4530741 58.3249185 33.8045304 53.8252422 32.6653719 55.1067956 32.6653719 58.3249185 29.9883492 58.3249185 29.9883492 43.6012941 32.6653719 43.6012941 32.6653719 51.9456306 36.2537213 47.5313911 39.5003232 47.5313911 35.6556631 51.8886726 39.7851129 58.3249185"></polygon>
                        <path d="M42.034951,53.7682843 C42.034951,55.1637535 42.88932,56.1605173 44.3987051,56.1605173 C45.5663426,56.1605173 46.1644008,55.8187697 46.847896,55.1352745 L48.4711969,56.7300965 C47.3889963,57.8122972 46.3067957,58.4388344 44.3702261,58.4388344 C41.8355983,58.4388344 39.3864074,57.2711969 39.3864074,52.9139153 C39.3864074,49.4110028 41.294498,47.4174753 44.0854365,47.4174753 C47.0757277,47.4174753 48.7844655,49.6103555 48.7844655,52.5721678 L48.7844655,53.7682843 L42.034951,53.7682843 L42.034951,53.7682843 Z M45.8796112,50.777993 C45.5948216,50.1229769 44.9967633,49.6673134 44.0854365,49.6673134 C43.1741096,49.6673134 42.5760514,50.1514558 42.2912617,50.777993 C42.1203879,51.1766985 42.06343,51.4614882 42.034951,51.9456306 L46.1359219,51.9456306 C46.1074429,51.4614882 46.050485,51.1766985 45.8796112,50.777993 Z" id="Shape" fill-rule="nonzero"></path>
                        <path d="M55.9042066,50.4932034 C55.4770221,50.0660189 55.1352745,49.8381872 54.4802584,49.8381872 C53.6543684,49.8381872 52.7430416,50.4647244 52.7430416,51.8317147 L52.7430416,58.3249185 L50.0660189,58.3249185 L50.0660189,47.5598701 L52.6860836,47.5598701 L52.6860836,48.5851128 C53.198705,47.9585756 54.2524267,47.4174753 55.3915852,47.4174753 C56.4453069,47.4174753 57.18576,47.6737859 57.926213,48.442718 L55.9042066,50.4932034 Z" id="Path" fill-rule="nonzero"></path>
                        <path d="M70.0297728,47.4174753 C68.6912615,47.4174753 67.7229767,47.8446597 66.8116498,48.7844655 C66.1281547,47.8446597 65.1598699,47.4174753 63.9637534,47.4174753 C62.9669897,47.4174753 61.9702259,47.8161808 61.2867308,48.5281549 L61.2867308,47.5598701 L58.6666661,47.5598701 L58.6666661,58.3249185 L61.3436887,58.3249185 L61.3436887,51.8032357 C61.3436887,50.3223296 62.2834945,49.8381872 63.1378635,49.8381872 C63.9922324,49.8381872 64.9035592,50.3223296 64.9035592,51.8032357 L64.9035592,58.3249185 L67.5805819,58.3249185 L67.5805819,51.7462778 C67.5805819,50.3508086 68.5488666,49.8381872 69.3747566,49.8381872 C70.2291255,49.8381872 71.1404524,50.3223296 71.1404524,51.8032357 L71.1404524,58.3249185 L73.817475,58.3249185 L73.817475,51.4330092 C73.817475,50.2653717 73.5042064,49.240129 72.6498375,48.3572811 C72.0802582,47.7877018 71.1119734,47.4174753 70.0297728,47.4174753 Z" id="Path" fill-rule="nonzero"></path>
                        <path d="M81.7061481,54.0530739 C81.7061481,55.53398 80.7663423,56.0181224 79.9119733,56.0181224 C79.0576044,56.0181224 78.1462776,55.53398 78.1462776,54.0530739 L78.1462776,47.5598701 L75.4692549,47.5598701 L75.4692549,54.4517794 C75.4692549,55.6194169 75.6970866,56.6446596 76.5514556,57.4990286 C77.1495138,58.0970868 78.0323617,58.4388344 79.0860834,58.4388344 C80.0828471,58.4388344 81.0796109,58.0686078 81.763106,57.3281548 L81.763106,58.3249185 L84.3831707,58.3249185 L84.3831707,47.5598701 L81.7061481,47.5598701 L81.7061481,54.0530739 Z" id="Path" fill-rule="nonzero"></path>
                        <path d="M88.7974101,55.0783166 L88.7974101,43.6012941 L86.1203875,43.6012941 L86.1203875,55.2491904 C86.1203875,56.7870545 87.0601933,58.3249185 89.2530736,58.3249185 L90.7909376,58.3249185 L90.7909376,56.0466014 L89.7656949,56.0466014 C89.0821998,56.0466014 88.7974101,55.7333328 88.7974101,55.0783166 Z" id="Path" fill-rule="nonzero"></path>
                        <path d="M100.673138,52.5721678 C100.673138,49.6103555 98.9644003,47.4174753 95.9741091,47.4174753 C93.1831706,47.4174753 91.27508,49.4110028 91.27508,52.9139153 C91.27508,57.2711969 93.7242709,58.4388344 96.2588987,58.4388344 C98.1954683,58.4388344 99.24919,57.8407761 100.35987,56.7300965 L98.7365686,55.1352745 C98.0530735,55.8187697 97.4834942,56.1605173 96.2873777,56.1605173 C94.7779926,56.1605173 93.9236237,55.1352745 93.9236237,53.7682843 L100.673138,53.7682843 L100.673138,52.5721678 L100.673138,52.5721678 Z M93.9236237,51.9456306 C93.9521026,51.4614882 94.0090606,51.1766985 94.1799344,50.777993 C94.464724,50.1229769 95.0627822,49.6673134 95.9741091,49.6673134 C96.885436,49.6673134 97.4834942,50.1514558 97.7682838,50.777993 C97.9391576,51.1766985 97.9961156,51.4614882 98.0245945,51.9456306 L93.9236237,51.9456306 Z" id="Shape" fill-rule="nonzero"></path>
                        <path d="M55.3915852,40.4401291 C55.0213587,40.6110028 54.5087373,40.5825239 53.967637,40.6110028 C53.5119736,40.6110028 52.8569574,40.6394818 52.6006467,40.3831711 C52.4582519,40.2407763 52.401294,39.9844656 52.401294,39.8135918 C52.401294,39.6142391 52.429773,39.3864074 52.4867309,39.1585757 C52.5436888,38.902265 52.6006467,38.5605174 52.4867309,38.4466016 C52.372815,38.2757278 51.9456306,38.3611647 51.7462778,38.2187699 C51.5184461,38.076375 51.4614882,37.7915854 51.3760513,37.4213589 C51.3475723,37.307443 51.2906144,37.2220061 51.2621354,37.1365692 C51.2051775,36.5954689 51.3760513,35.8834948 51.4899671,35.3423945 C51.632362,34.7728152 51.7747568,34.2317149 51.8886726,33.6906146 C52.0310675,32.8932036 52.0880254,31.9818767 52.0310675,31.1275078 C52.0025885,30.7003233 51.9456306,30.3585758 52.0025885,29.9883492 C52.0595464,29.6466017 52.2019412,29.361812 52.2873781,29.0200644 C52.3158571,28.9061486 52.2873781,28.7922327 52.3158571,28.6783169 C52.3158571,28.564401 52.401294,28.4789641 52.401294,28.3935272 C52.401294,28.1656955 52.3443361,27.8809059 52.3158571,27.5961162 C52.2588992,26.8271842 52.3158571,25.7734625 52.372815,25.1184464 C52.401294,24.8906146 52.4867309,24.634304 52.3443361,24.5203881 C51.5469251,24.5203881 50.834951,24.6627829 50.0944979,24.7482198 C48.1294494,25.0045305 45.6517795,25.0330095 43.7436889,24.6627829 C43.5728151,24.634304 43.3734624,24.634304 43.2025886,24.577346 C41.8640773,24.2640774 40.6110028,23.6944982 39.6427181,22.9255661 C39.5003232,22.8116503 39.3294495,22.6692554 39.1585757,22.5553396 C38.9877019,22.4414237 38.8168281,22.242071 38.6744333,22.1851131 C37.9055012,21.8148865 36.8802585,22.242071 36.5669899,22.7262134 C36.4530741,22.9255661 36.3391582,23.1818768 36.2252424,23.4097085 C36.1113265,23.6375402 35.9974107,23.8653719 35.9119738,24.0932036 C35.3993524,25.2608412 34.8297731,26.3715208 34.3171518,27.5391583 C34.0323621,28.2226534 33.6906146,28.9631065 33.4627828,29.7035596 C33.0071194,31.2983816 33.4343039,33.4627828 33.8045304,34.9721679 C33.8330094,35.1145628 33.9184463,35.2569576 33.9754042,35.3993524 C34.0893201,35.7695789 34.3456307,36.2537213 34.6304204,36.510032 C34.7728152,36.6524268 35.0291259,36.7093848 35.1999997,36.8517796 C35.3993524,37.0226534 35.5702262,37.3928799 35.7411,37.7061485 C35.7980579,37.8200644 35.9119738,37.9909381 35.9974107,38.133333 C36.1967634,38.4750805 36.2537213,38.7883491 35.8834948,38.9877019 C35.5987052,39.1300967 35.1715207,39.1870546 34.7728152,39.2155336 C34.6019414,39.2724915 34.6588993,39.5003232 34.5449835,39.6142391 C34.4880256,39.671197 34.2032359,39.7851129 34.0608411,39.8420708 C33.5482197,39.9844656 32.6368929,39.9844656 32.2381874,39.8420708 C32.0388346,39.7566339 31.8110029,39.6142391 31.754045,39.4433653 C31.6401291,39.1300967 31.8964398,38.7029122 31.6686081,38.4750805 C31.5546922,38.3611647 31.3553395,38.3896436 31.1559868,38.3042067 C30.8711971,38.1902909 30.6148864,37.9339802 30.5009706,37.5922326 C30.187702,36.7948216 30.3870547,35.5702262 30.3585758,34.6019414 C30.3585758,34.3171518 30.3016178,34.0038832 30.3016178,33.6906146 C30.2731389,33.1210353 30.159223,32.551456 30.0737861,31.9818767 C30.0453072,31.6970871 29.9598703,31.4692554 29.9029123,31.2129447 C29.8174754,30.8142392 29.7320385,30.3585758 29.6181227,29.9598703 C29.4757279,29.5042068 29.4757279,29.0770224 29.6466017,28.6783169 C29.6750806,28.564401 29.7889965,28.4789641 29.8744334,28.3365693 C29.9598703,28.1087376 29.9883492,27.8524269 29.9883492,27.6530742 C29.9313913,27.5391583 29.6466017,27.6245952 29.5896437,27.5106793 C29.4187699,26.2576049 29.2478962,25.0330095 29.1339803,23.7229771 C29.1055013,23.2957927 29.1055013,22.8401292 29.0485434,22.3844658 C28.9631065,21.5016179 29.0485434,20.5902911 28.9631065,19.7359221 C28.9346276,19.3087377 28.8207117,18.9100322 28.7637538,18.5113267 C28.6213589,17.3721681 28.3080903,15.9197409 28.5359221,14.7236245 C28.6783169,13.9546924 28.9631065,13.3566342 29.390291,12.7870549 C29.7035596,12.3883494 30.0168282,12.0181229 30.3870547,11.6763753 C30.7288023,11.3346277 31.1275078,11.0213591 31.5546922,10.7080905 C31.8110029,10.5087378 32.0957926,10.280906 32.4090612,10.1669902 C33.0640773,9.85372159 33.9184463,9.59741091 34.8297731,9.56893195 C35.7411,9.54045298 36.7663427,9.51197402 37.6491906,9.6828478 C38.5035595,9.82524262 39.3579284,9.99611641 40.2122973,10.1669902 C41.0381873,10.337864 41.8355983,10.5656957 42.6330093,10.7650484 C42.7469252,10.7935274 42.832362,10.8504853 42.9177989,10.8789643 C43.1741096,10.9359222 43.4588993,10.9644012 43.7152099,11.0498381 C44.455663,11.2491908 45.3954688,11.3346277 46.2783167,11.3346277 C47.2466015,11.3346277 48.1009704,11.3061488 48.8983814,11.106796 C49.0122973,11.078317 49.0977342,11.0213591 49.240129,10.9644012 C49.3540448,10.9074433 49.5249186,10.9359222 49.6388345,10.8789643 C49.7242714,10.8504853 49.8097083,10.7650484 49.8951451,10.7365695 C50.3508086,10.5087378 50.7495141,10.309385 51.1482196,10.0245954 C51.4614882,9.79676366 51.7462778,9.59741091 52.1734623,9.42653713 C52.372815,9.34110023 52.5436888,9.25566334 52.7430416,9.19870541 C53.1417471,9.05631059 53.5974105,8.94239474 53.9106791,8.74304199 C54.3948215,8.42977338 54.765048,7.97410995 55.1637535,7.63236239 C55.590938,7.26213585 56.0181224,6.92038828 56.4737859,6.55016175 C57.3851127,5.83818765 58.2964396,5.18317147 59.1508085,4.49967633 C59.5779929,4.15792876 60.0621353,3.81618119 60.5747567,3.53139155 C61.5715204,2.96181227 62.5682842,2.30679609 63.9922324,2.19288024 C64.5618117,2.16440127 65.131391,2.13592231 65.7009702,2.2213592 C65.8433651,2.24983817 66.0711968,2.33527506 66.2135916,2.30679609 C66.3559864,2.27831713 66.4699023,2.05048542 66.5838181,1.85113267 C66.7831709,1.48090613 66.9540447,1.22459546 67.1249184,0.768932031 C67.2388343,0.48414239 67.1818764,0.199352749 67.466666,0.227831713 C67.7514557,0.227831713 67.7229767,0.996763744 67.7229767,1.28155339 C67.7514557,1.62330096 67.6944977,2.07896438 67.7514557,2.30679609 C67.7799346,2.47766988 68.0077663,2.70550159 68.235598,2.70550159 C68.4064718,2.70550159 68.4919087,2.59158574 68.6343035,2.47766988 C68.7766984,2.39223299 68.9190932,2.33527506 69.033009,2.24983817 C69.2608408,2.07896438 69.5456304,1.79417474 69.7734621,1.53786406 C69.9728149,1.33851131 70.2860835,0.882847888 70.5993521,0.911326852 C71.1689313,0.96828478 70.5993521,1.79417474 70.4854362,2.07896438 C70.2006466,2.73398056 69.9158569,3.18964398 69.5741094,3.81618119 C69.4317145,4.07249187 69.1184459,4.41423944 69.1184459,4.67055012 C69.1184459,4.8414239 69.2608408,4.98381872 69.3462776,5.15469251 C69.3747566,5.2401294 69.4032356,5.35404526 69.4317145,5.43948215 C69.6310673,5.89514557 69.7734621,6.52168278 69.9158569,7.03430414 C70.0582517,7.4614886 70.1436886,7.94563099 70.3145624,8.37281545 C70.4569572,8.79999991 70.684789,9.19870541 70.8556627,9.59741091 C70.9126207,9.71132677 70.9126207,9.85372159 70.9410996,9.93915848 C71.3113262,10.8504853 71.6530737,11.904207 72.0802582,12.7870549 C72.251132,13.1572814 72.5074427,13.5844659 72.5074427,14.1255662 C72.5074427,14.6951455 72.1941741,14.9799351 71.9378634,15.4071196 C71.7954686,15.6349513 71.5961158,15.9766989 71.3967631,16.0621358 C71.2543682,16.1190937 71.0550155,16.0621358 70.9126207,16.0906147 C70.684789,16.1190937 70.5423941,16.2614885 70.3430414,16.2899675 C69.8019411,16.3469254 69.3177987,15.9482199 69.1754039,15.5495144 C69.1184459,15.4071196 69.1469249,15.2362458 69.1184459,15.065372 C69.0045301,14.4388348 68.6912615,14.1255662 68.235598,13.6983817 C67.9508084,13.4420711 67.7229767,13.2427183 67.3812291,13.0433656 C66.8686078,12.7870549 66.3275074,12.6161811 65.7864071,12.3313915 C65.5870544,12.2174756 65.3592227,12.1320387 65.1883489,12.1605177 C64.9035592,12.2174756 64.6187696,12.673139 64.3909379,12.9579287 C62.9954686,14.7805824 61.7708732,16.660194 60.4323619,18.4543688 C59.549514,19.6504852 58.5812292,20.8466017 57.8692551,22.213592 C57.6983813,22.5553396 57.5844655,22.9540451 57.4420706,23.3527506 C57.2996758,23.7514561 57.2427179,24.1786405 57.1003231,24.577346 C56.5877017,26.0582522 56.4168279,27.8809059 55.9326855,29.4472489 C55.8757276,29.6181227 55.8757276,29.7889965 55.8187697,29.9883492 C55.590938,30.7857602 55.3915852,31.6970871 55.1352745,32.551456 C54.9359218,33.1779932 54.8789639,34.0323621 54.8504849,34.8582521 C54.8220059,35.6271841 54.793527,36.7378637 55.0783166,37.2220061 C55.2207114,37.4783168 55.7618118,37.5922326 55.9611645,37.8485433 C56.1035593,38.0478961 56.1889962,38.4181226 56.331391,38.6459543 C56.4168279,38.8168281 56.7016176,39.1870546 56.6731386,39.4433653 C56.6446596,39.6427181 56.4737859,39.7851129 56.331391,39.8420708 C56.1605173,39.9275077 55.9326855,39.8705498 55.7618118,39.9559867 C55.5055011,40.0983815 55.590938,40.3262132 55.3915852,40.4401291 Z" id="Path"></path>
                    </g>
                </g>
            </g>
        </g>
    </g>
</svg>