<?xml version="1.0" encoding="UTF-8"?>
<svg width="94px" height="36px" viewBox="0 0 94 36" version="1.1" xmlns="http://www.w3.org/2000/svg" xmlns:xlink="http://www.w3.org/1999/xlink">
    <title>206BF55B-10C2-4FF4-9846-777C7EAA507D@1x</title>
    <g id="Symbols" stroke="none" stroke-width="1" fill="none" fill-rule="evenodd">
        <g id="2021-/-sponsor-grid" transform="translate(-997.000000, -295.000000)" fill="#555555" fill-rule="nonzero">
            <g id="sponsors" transform="translate(0.000000, 1.000000)">
                <g id="row-4" transform="translate(0.000000, 294.000000)">
                    <g id="tilde" transform="translate(997.400000, 0.400000)">
                        <path d="M14.169697,0.901183432 C15.7137053,0.920946746 16.1436823,1.09881657 20.1307419,3.54946746 C21.3620397,4.30047337 23.1796698,5.38745562 24.1373459,5.96059172 C26.4044974,7.28473373 27.4598955,8.29266272 27.9485057,9.65633136 C27.9772241,9.73538462 28.0038585,9.81180386 28.0285579,9.8886854 L28.0285579,9.8886854 L28.0641744,10.0047415 L28.0817698,10.0668073 C28.2998288,10.8596751 28.3362068,11.9342414 28.33918,16.3749195 L28.33918,16.3749195 L28.3390387,17.8079731 L28.338532,18.1664725 C28.3277482,24.1552476 28.2011343,24.79192 27.1667294,26.0994083 C26.7758412,26.6132544 25.5836322,27.4433136 23.4923804,28.6686391 C21.8115611,29.676568 20.1111975,30.7042604 19.7398537,30.9414201 C19.4097703,31.1522288 18.2766772,31.8315012 17.0955407,32.5211839 L17.0955407,32.5211839 L16.651837,32.7794083 L16.3703519,32.9462153 C16.2777296,33.0008957 16.1864179,33.0545966 16.0967302,33.1071451 L15.5805982,33.4072248 L15.118484,33.6713503 L14.9790499,33.7499682 C14.4825405,34.0288441 14.1520139,34.2023669 14.1110637,34.2023669 C14.0328861,34.2023669 12.4888777,33.3130178 10.6907921,32.2260355 C8.87316196,31.1390533 7.36824242,30.2497041 7.3096092,30.2497041 C7.27052038,30.2497041 6.76236573,29.9532544 6.19557785,29.5777515 C5.64833438,29.2022485 4.53430303,28.5302959 3.75252665,28.0757396 C1.8371745,26.9689941 0.99676489,26.1982249 0.469065831,25.012426 C0.435561129,24.9432544 0.404449619,24.8785195 0.375560361,24.8154411 L0.375560361,24.8154411 L0.333871793,24.7217184 L0.311127932,24.6675753 C0.0445944296,24.0170314 0.00639178599,23.3072748 0.0009161442,19.3571075 L0.0009161442,19.3571075 L-1.49213975e-13,10.1701775 L0.48861024,9.18201183 L0.58587652,8.99386726 C0.860195312,8.48419607 1.24432741,7.92594346 1.50491954,7.68 C1.77415375,7.43800024 3.92578894,6.08992165 6.2336852,4.68829772 L6.2336852,4.68829772 L6.78969673,4.35141881 C8.83292539,3.11637843 10.8902248,1.9050791 11.785279,1.4347929 C12.5865998,1 13.0361212,0.901183432 14.169697,0.901183432 Z M14.8928401,4.89337278 C13.6615423,4.6364497 12.5084222,5.11076923 8.63862905,7.44284024 C4.45612539,9.97254438 3.88933751,10.5061538 3.51799373,12.3836686 C3.3625475,13.1346746 3.31012958,15.1088575 3.33544879,17.1553668 L3.33544879,17.1553668 L3.34599889,17.8026948 C3.39394117,20.1752027 3.54253787,22.4822623 3.75252665,22.9372781 C4.28022571,24.063787 5.06200209,24.7159763 8.3454629,26.6725444 C10.0458265,27.7002367 11.9611787,28.8662722 12.6061442,29.2813018 C13.2511097,29.6963314 13.8960752,30.0323077 14.0524305,30.0323077 C14.2087858,30.052071 14.9514734,29.6568047 15.7137053,29.1824852 C16.4759373,28.7081657 18.4303783,27.5421302 20.0330199,26.5934911 C23.238303,24.696213 24.2155235,23.8266272 24.5868673,22.6013018 C24.7376385,22.0867498 24.8157164,20.3225715 24.8211011,17.3087671 L24.8211011,17.3087671 L24.8210184,15.7732031 L24.8206209,15.4891922 C24.8163319,13.0922146 24.7884375,12.3518964 24.6070225,11.7827404 L24.6070225,11.7827404 L24.5656347,11.6625429 L24.5130696,11.5295405 C24.4571976,11.3962456 24.3912011,11.2597425 24.3132456,11.0990533 C23.786001,10.051138 23.3094937,9.63599086 19.8630877,7.56276067 L19.8630877,7.56276067 L19.323475,7.23905417 L19.036255,7.06733728 L18.775951,6.91170796 C16.2402046,5.39626643 15.7011248,5.09468273 15.1680772,4.95474343 L15.1680772,4.95474343 L15.0609582,4.92859906 L14.9785957,4.91069427 L14.9785957,4.91069427 Z M42.6177158,9.47939166 L42.6177158,22.0459206 L46.1232133,22.0459206 L46.1232133,25.6942677 L35.0674134,25.6942677 L35.0674134,22.0459206 L38.4380841,22.0459206 L38.4380841,9.47939166 L42.6177158,9.47939166 Z M52.1904206,9.47939166 L52.1904206,25.6942677 L48.0107889,25.6942677 L48.0107889,9.47939166 L52.1904206,9.47939166 Z M64.796729,9.54695364 L64.837177,11.3441024 L64.8776251,13.1277388 L59.8755498,13.1277388 L59.8755498,25.6942677 L55.5610913,25.6942677 L55.5880566,17.6273669 L55.6285047,9.54695364 L64.796729,9.54695364 Z M67.0213716,9.45236686 L70.702144,9.51992885 C73.5200247,9.56046604 74.5447086,9.62802802 75.1109813,9.79017678 C77.8614486,10.6009206 80.0456432,12.8169536 80.8411215,15.6275322 C81.3130154,17.2625322 81.0568444,19.6001768 80.2344008,21.2351768 C79.5063359,22.6810032 77.9827927,24.1808793 76.4996976,24.9375735 C75.2445824,25.5665141 74.4585507,25.6872199 70.9083458,25.6939579 L67.0213716,25.6942677 L67.0213716,9.45236686 Z M83.4702446,9.47939166 L88.0273914,9.50641645 L92.5710555,9.54695364 L92.6115036,11.3441024 L92.6519516,13.1277388 L87.6498763,13.1277388 L87.6498763,15.8302181 L89.9823804,15.8572429 L92.3014019,15.8977801 L92.3418499,17.6949288 L92.382298,19.4785652 L87.6498763,19.4785652 L87.6498763,22.0459206 L90.1172073,22.0729454 L92.5710555,22.1134826 L92.6115036,23.9106313 L92.6519516,25.6942677 L83.4702446,25.6942677 L83.4702446,9.47939166 Z M71.2010033,13.0872016 L71.2010033,22.0729454 L72.5223062,22.0188958 C73.5065421,21.9783586 73.9649533,21.8972842 74.3694338,21.6810859 C75.1379467,21.275714 75.8525289,20.4784826 76.270492,19.5461272 C76.9985569,17.9786892 76.6884552,15.8167057 75.5828752,14.5060032 C74.8548103,13.6682346 73.8705745,13.2493503 72.4144447,13.1547636 L71.2010033,13.0872016 Z M14.0915193,13.5299408 C14.267419,13.3125444 16.1632268,14.2414201 19.6812205,16.2572781 L19.6812205,16.2572781 L20.7170742,16.8304142 L19.9157534,18.4510059 C19.466232,19.340355 19.0753438,20.1111243 19.036255,20.1506509 C18.9971661,20.1901775 18.3131118,19.8542012 17.4922466,19.399645 C16.6713814,18.9450888 15.9091494,18.5893491 15.8114274,18.6288757 C15.7137053,18.6684024 15.3032727,19.3601183 14.8928401,20.1506509 C14.4824075,20.9609467 14.0524305,21.6526627 13.9547085,21.672426 C13.8178976,21.6921893 9.38131661,19.340355 7.91548589,18.4510059 C7.54414211,18.2336095 7.56368652,18.1743195 8.30637409,16.7118343 C8.7363511,15.8817751 9.20541693,15.1505325 9.32268339,15.0912426 C9.45949425,15.0319527 10.2021818,15.3481657 10.9644138,15.8027219 C11.7266458,16.2572781 12.3911557,16.6130178 12.4302445,16.6130178 C12.4693333,16.6130178 12.8211327,15.9608284 13.2120209,15.1900592 C13.6029091,14.3995266 13.9937973,13.6485207 14.0915193,13.5299408 Z" id="Combined-Shape" transform="translate(46.325976, 17.551775) scale(1, -1) translate(-46.325976, -17.551775) "></path>
                    </g>
                </g>
            </g>
        </g>
    </g>
</svg>