<svg xmlns="http://www.w3.org/2000/svg" viewBox="0 0 446.987 129.395"><path d="M407.845 81.868l35.414-42.146h-29.041L386.3 76.361h-.238V39.722H338.13l-16.476 23.954-16.475-23.954H225.29v9.696c-4.355-5.348-10.88-8.495-18.868-9.696H162.56v89.673h23.469V99.472h13.289c20.464 0 31.956-9.338 31.956-30.645 0-3.632-.413-6.899-1.207-9.823h14.615v70.392h23.461V59.003h22.595l19.185 27.054v43.338h23.461V86.057l29.208-41.176v84.514h23.47V90.253h.238l30.28 39.142h30.408l-39.143-47.527zm-217.866-1.311h-3.951V58.049h3.951c9.099 0 16.88.119 16.88 11.493 0 11.015-8.385 11.015-16.88 11.015zm-34.16-76.043c2.894 3.005 4.332 6.605 4.332 10.801 0 4.085-1.438 7.598-4.332 10.546-2.901 2.957-6.437 4.427-10.641 4.427-4.188 0-7.733-1.47-10.626-4.427-2.885-2.948-4.339-6.461-4.339-10.546 0-4.197 1.454-7.796 4.339-10.801C137.445 1.51 140.99 0 145.178 0c4.205 0 7.74 1.51 10.641 4.514zm-22.578 35.208v85.62l-25.265-32.935c12.812-2.273 19.758-13.05 19.758-25.495 0-16.427-9.847-25.012-23.795-27.19H0v19.281h19.4v70.392h23.461V59.003h18.43v70.392h23.462V94.68h.238l22.15 34.715h49.553V39.722h-23.453zM87.033 79.595h-2.28V57.088h2.28c7.654 0 16.276 1.438 16.276 11.253.001 9.816-8.622 11.254-16.276 11.254z" fill="#008BC8"/><g><path d="M407.845 81.868l35.414-42.146h-29.041L386.3 76.361h-.238V39.722H338.13l-16.476 23.954-16.475-23.954H225.29v9.696c-4.355-5.348-10.88-8.495-18.868-9.696H162.56v89.673h23.469V99.472h13.289c20.464 0 31.956-9.338 31.956-30.645 0-3.632-.413-6.899-1.207-9.823h14.615v70.392h23.461V59.003h22.595l19.185 27.054v43.338h23.461V86.057l29.208-41.176v84.514h23.47V90.253h.238l30.28 39.142h30.408l-39.143-47.527zm-217.866-1.311h-3.951V58.049h3.951c9.099 0 16.88.119 16.88 11.493 0 11.015-8.385 11.015-16.88 11.015zm-34.16-76.043c2.894 3.005 4.332 6.605 4.332 10.801 0 4.085-1.438 7.598-4.332 10.546-2.901 2.957-6.437 4.427-10.641 4.427-4.188 0-7.733-1.47-10.626-4.427-2.885-2.948-4.339-6.461-4.339-10.546 0-4.197 1.454-7.796 4.339-10.801C137.445 1.51 140.99 0 145.178 0c4.205 0 7.74 1.51 10.641 4.514zm-22.578 35.208v85.62l-25.265-32.935c12.812-2.273 19.758-13.05 19.758-25.495 0-16.427-9.847-25.012-23.795-27.19H0v19.281h19.4v70.392h23.461V59.003h18.43v70.392h23.462V94.68h.238l22.15 34.715h49.553V39.722h-23.453zM87.033 79.595h-2.28V57.088h2.28c7.654 0 16.276 1.438 16.276 11.253.001 9.816-8.622 11.254-16.276 11.254z" fill="#008BC8"/></g></svg>