<svg width="117" height="22" xmlns="http://www.w3.org/2000/svg"><g fill="none"><path fill="#FFF" d="M0 0.439667L3.62809 0.439667 5.11587 13.3309 6.96907 0.465711 9.86632 0.465711 11.7978 13.2788 13.2856 0.439667 16.8615 0.439667 14.1469 21.5344 10.4667 21.5344 8.43075 8.1744 6.47314 21.5344 2.74065 21.5344z"/><path fill="#FFF" d="M21.197 13.1746L17.073 0.439667 21.1187 0.439667 23.3895 7.86188 25.4776 0.439667 29.4189 0.439667 25.3471 13.1746 25.3471 21.5344 21.197 21.5344z"/><path fill="#FFF" d="M30.4685 0.439667L39.6823 0.439667 39.6823 3.40855 34.7491 3.40855 34.7491 9.00777 38.5599 9.00777 38.5599 12.0027 34.7491 12.0027 34.7491 18.6176 39.7345 18.6176 39.7345 21.5344 30.4685 21.5344z"/><path fill="#D91E26" d="M40.4149 0.439628L44.043 0.439628 45.5308 13.3308 47.384 0.465672 50.2812 0.465672 52.2127 13.2788 53.7005 0.439628 57.2764 0.439628 54.5619 21.5343 50.8816 21.5343 48.8457 8.17436 46.8881 21.5343 43.1556 21.5343z"/><path d="M64.694 21.82c-2.245 0-3.846-.58-4.803-1.744-.957-1.18-1.435-2.908-1.435-5.183V7.028c0-2.274.478-3.984 1.435-5.13C60.848.752 62.449.179 64.694.179c2.227 0 3.82.582 4.776 1.745.975 1.146 1.462 2.847 1.462 5.104v7.891c0 2.258-.487 3.976-1.462 5.157-.957 1.163-2.549 1.745-4.776 1.745zm0-3.072c.73 0 1.218-.243 1.461-.73.261-.503.392-1.189.392-2.057V5.987c0-.868-.13-1.537-.392-2.006-.243-.486-.73-.729-1.461-.729-.731 0-1.227.243-1.488.73-.244.468-.366 1.137-.366 2.005v9.974c0 .886.122 1.571.366 2.058.243.486.74.729 1.488.729zM73.024.44h5.482c2.28 0 3.993.416 5.142 1.25 1.148.833 1.723 2.274 1.723 4.323 0 1.371-.192 2.483-.575 3.333-.383.834-1.061 1.467-2.036 1.901l2.924 10.287h-4.411l-2.402-9.557h-1.566v9.557h-4.28V.44zm5.56 8.984c1.01 0 1.714-.243 2.114-.729.418-.503.627-1.285.627-2.344 0-1.041-.183-1.805-.548-2.291-.366-.487-1.027-.73-1.984-.73h-1.488v6.094h1.28z" fill="#D91E26"/><path fill="#D91E26" d="M87.4588 0.439628L91.7394 0.439628 91.7394 9.34629 95.5763 0.439628 99.7525 0.439628 95.7851 9.91923 100.066 21.5343 95.7068 21.5343 92.4441 12.1068 91.7394 13.2527 91.7394 21.5343 87.4588 21.5343z"/><path d="M106.201 21.82c-1.949 0-3.41-.529-4.385-1.588-.974-1.076-1.505-2.734-1.592-4.974l3.706-.625c.035 1.337.218 2.326.549 2.969.348.625.861.937 1.539.937.505 0 .871-.156 1.097-.468.226-.33.339-.747.339-1.25 0-.834-.191-1.537-.574-2.11-.366-.59-.949-1.233-1.749-1.927l-2.192-1.901c-.871-.73-1.54-1.51-2.01-2.344-.453-.833-.679-1.832-.679-2.995 0-1.719.505-3.038 1.514-3.958C102.791.648 104.2.179 105.992.179c1.914 0 3.246.556 3.994 1.667.748 1.094 1.174 2.491 1.279 4.193l-3.733.547c-.034-1.111-.165-1.927-.391-2.448-.209-.539-.635-.808-1.279-.808-.47 0-.835.183-1.096.547-.261.348-.392.764-.392 1.25 0 .695.148 1.285.444 1.771.313.469.8.99 1.462 1.563l2.14 1.875c1.009.885 1.801 1.823 2.375 2.813.574.972.861 2.118.861 3.437 0 1.007-.226 1.91-.678 2.709-.453.78-1.096 1.397-1.932 1.849-.818.451-1.766.677-2.845.677z" fill="#D91E26"/><ellipse fill="#FFF" cx="114.955" cy="19.374" rx="2.045" ry="2.04"/></g></svg>