<?xml version="1.0" encoding="UTF-8"?>
<svg width="17px" height="16px" viewBox="0 0 17 16" version="1.1" xmlns="http://www.w3.org/2000/svg" xmlns:xlink="http://www.w3.org/1999/xlink">
    <title>icon / arrow-right</title>
    <defs>
        <path d="M8.70710678,0.292893219 L15.7071068,7.29289322 C15.7355731,7.32135953 15.7623312,7.35153408 15.787214,7.38324992 L15.7071068,7.29289322 C15.7425008,7.32828727 15.774687,7.36567442 15.8036654,7.40469339 C15.8215099,7.42886931 15.8382813,7.45372505 15.8539326,7.47933981 C15.8613931,7.49138689 15.8685012,7.50360556 15.8753288,7.5159379 C15.8862061,7.53570605 15.8966234,7.5561086 15.9063462,7.57690085 C15.914321,7.5939015 15.9218036,7.61120435 15.9287745,7.62866398 C15.9366843,7.6484208 15.9438775,7.66820232 15.9504533,7.68826359 C15.9552713,7.70314866 15.9599023,7.71853672 15.9641549,7.73400703 C15.9701664,7.75556352 15.9753602,7.77725392 15.9798348,7.7992059 C15.9832978,7.81662474 15.9863719,7.83405099 15.9889822,7.85153313 C15.9920941,7.87188555 15.994564,7.89294258 15.9963697,7.91418901 C15.997855,7.93207691 15.9988772,7.94940903 15.9994506,7.96675322 C15.9998151,7.97759811 16,7.98877747 16,8 L15.9994829,8.03225462 C15.9989053,8.05026637 15.9978436,8.06826549 15.9962979,8.0862308 L16,8 C16,8.05062028 15.9962388,8.10036209 15.9889807,8.14896122 C15.9863719,8.16594901 15.9832978,8.18337526 15.9797599,8.20072576 C15.9753602,8.22274608 15.9701664,8.24443648 15.964279,8.26583961 C15.9599023,8.28146328 15.9552713,8.29685134 15.9502619,8.31214252 C15.9438775,8.33179768 15.9366843,8.3515792 15.928896,8.37105852 C15.9218036,8.38879565 15.914321,8.4060985 15.9063266,8.42322155 C15.8966234,8.4438914 15.8862061,8.46429395 15.8751242,8.48427695 C15.8685012,8.49639444 15.8613931,8.50861311 15.8540045,8.52070875 C15.8382813,8.54627495 15.8215099,8.57113069 15.8036865,8.5951593 C15.7982466,8.60260304 15.7927155,8.60984241 15.7870723,8.61702235 C15.7849289,8.61966276 15.7826279,8.62256244 15.7803112,8.62544899 L15.7071068,8.70710678 L15.7071068,8.70710678 L8.70710678,15.7071068 C8.31658249,16.0976311 7.68341751,16.0976311 7.29289322,15.7071068 C6.90236893,15.3165825 6.90236893,14.6834175 7.29289322,14.2928932 L12.586,8.999 L1,9 C0.44771525,9 0,8.55228475 0,8 C0,7.44771525 0.44771525,7 1,7 L12.584,6.999 L7.29289322,1.70710678 C6.90236893,1.31658249 6.90236893,0.683417511 7.29289322,0.292893219 C7.68341751,-0.0976310729 8.31658249,-0.0976310729 8.70710678,0.292893219 Z" id="path-1"></path>
    </defs>
    <g id="Symbols" stroke="none" stroke-width="1" fill="none" fill-rule="evenodd">
        <g id="2022-/-CTA-/-desktop" transform="translate(-244.000000, -26.000000)">
            <g id="Group" transform="translate(52.201923, 22.000000)">
                <g id="icon-/-arrow-right" transform="translate(192.000000, 4.000000)">
                    <mask id="mask-2" fill="white">
                        <use xlink:href="#path-1"></use>
                    </mask>
                    <use id="Mask" fill="#F9EAD4" fill-rule="nonzero" xlink:href="#path-1"></use>
                    <g id="Icon-Color" mask="url(#mask-2)" fill="#F9EAD4">
                        <g transform="translate(-4.000000, -4.000000)" id="Shape">
                            <rect x="0" y="0" width="24" height="24"></rect>
                        </g>
                    </g>
                </g>
            </g>
        </g>
    </g>
</svg>