<?xml version="1.0" encoding="UTF-8"?>
<svg width="21px" height="21px" viewBox="0 0 21 21" version="1.1" xmlns="http://www.w3.org/2000/svg" xmlns:xlink="http://www.w3.org/1999/xlink">
    <title>icon / arrow-right copy 2</title>
    <defs>
        <path d="M17.7921804,8.88968073 L15.1466099,11.5236602 C14.9702385,11.6992588 14.7938672,11.8748575 14.5293101,12.0504561 C13.5592676,12.7528506 12.5010394,13.1040479 11.3546255,13.1040479 C9.76728317,13.1040479 8.17994086,12.4016534 7.12171266,10.9968643 C6.8571556,10.645667 6.94534129,10.0310718 7.29808402,9.76767389 C7.65082676,9.50427594 8.26812655,9.59207526 8.5326836,9.94327252 C9.67909749,11.5236602 11.8837396,11.7870582 13.4710819,10.645667 C13.6474533,10.5578677 13.735639,10.4700684 13.8238246,10.2944698 L16.4693952,7.66049031 C17.7921804,6.25570125 17.7921804,4.06071836 16.3812095,2.74372862 C14.9702385,1.42673888 12.8537821,1.42673888 11.4428112,2.74372862 L9.94365454,4.23631699 C9.59091181,4.58751425 9.0617977,4.58751425 8.70905497,4.23631699 C8.35631223,3.88511973 8.35631223,3.35832383 8.70905497,3.00712657 L10.2082116,1.5145382 C12.2364823,-0.504846066 15.4993526,-0.504846066 17.5276234,1.5145382 C19.7322655,3.44612315 19.8204511,6.87029647 17.7921804,8.88968073 Z M9.14998339,14.9478335 L7.65082676,16.4404219 C6.23985582,17.7574116 4.1233994,17.7574116 2.71242846,16.4404219 C1.30145752,15.1234322 1.30145752,12.8406499 2.62424278,11.5236602 L5.26981329,8.88968073 C5.35799898,8.80188141 5.53437035,8.62628278 5.62255603,8.53848347 C6.41622718,8.01168757 7.29808402,7.74828962 8.26812655,7.83608894 C9.23816907,8.01168757 10.0318402,8.45068415 10.5609543,9.24087799 C10.8255114,9.59207526 11.4428112,9.67987457 11.7955539,9.41647662 C12.1482966,9.15307868 12.2364823,8.53848347 11.9719253,8.1872862 C11.0900684,7.0458951 9.85546886,6.34350057 8.5326836,6.16790194 C7.20989834,5.90450399 5.7989274,6.25570125 4.65251351,7.13369441 C4.47614214,7.30929304 4.29977077,7.48489168 4.1233994,7.66049031 L1.47782888,10.2944698 C-0.550441846,12.4016534 -0.462256162,15.7380274 1.56601457,17.7574116 C2.62424278,18.7232041 3.94702803,19.25 5.26981329,19.25 C6.59259855,19.25 7.91538381,18.7232041 8.97361202,17.7574116 L10.4727686,16.2648233 C10.8255114,15.913626 10.8255114,15.3868301 10.4727686,15.0356328 C10.1200259,14.6844356 9.50272612,14.5966363 9.14998339,14.9478335 Z" id="path-1"></path>
    </defs>
    <g id="Symbols" stroke="none" stroke-width="1" fill="none" fill-rule="evenodd">
        <g id="2021-/-speaker-/-dekstop" transform="translate(-103.000000, -241.000000)">
            <g id="social-links\-copy-3" transform="translate(66.000000, 241.000000)">
                <g id="icon-/-arrow-right-copy-2" transform="translate(37.875000, 0.875000)">
                    <mask id="mask-2" fill="white">
                        <use xlink:href="#path-1"></use>
                    </mask>
                    <use id="Mask" fill="#000000" fill-rule="nonzero" xlink:href="#path-1"></use>
                    <g id="Icon-Color" mask="url(#mask-2)" fill="#2A3B90">
                        <g transform="translate(-0.875000, -0.875000)" id="Shape">
                            <rect x="0" y="0" width="21" height="21"></rect>
                        </g>
                    </g>
                </g>
            </g>
        </g>
    </g>
</svg>