<?xml version="1.0" encoding="UTF-8"?>
<svg width="30px" height="24px" viewBox="0 0 30 24" version="1.1" xmlns="http://www.w3.org/2000/svg" xmlns:xlink="http://www.w3.org/1999/xlink">
    <title>icon / arrow-right copy</title>
    <defs>
        <path d="M25.3333333,0 L4,0 C1.73333333,0 0,1.73333333 0,4 L0,20 C0,22.2666667 1.73333333,24 4,24 L25.3333333,24 C27.6,24 29.3333333,22.2666667 29.3333333,20 L29.3333333,4 C29.3333333,1.73333333 27.6,0 25.3333333,0 Z M4,2.66666667 L25.3333333,2.66666667 C25.8666667,2.66666667 26.2666667,2.93333333 26.5333333,3.46666667 L14.6666667,11.7333333 L2.8,3.46666667 C3.06666667,2.93333333 3.46666667,2.66666667 4,2.66666667 Z M25.3333333,21.3333333 L4,21.3333333 C3.2,21.3333333 2.66666667,20.8 2.66666667,20 L2.66666667,6.53333333 L13.8666667,14.4 C14.1333333,14.5333333 14.4,14.6666667 14.6666667,14.6666667 C14.9333333,14.6666667 15.2,14.5333333 15.4666667,14.4 L26.6666667,6.53333333 L26.6666667,20 C26.6666667,20.8 26.1333333,21.3333333 25.3333333,21.3333333 Z" id="path-1"></path>
    </defs>
    <g id="EmberFest-2022" stroke="none" stroke-width="1" fill="none" fill-rule="evenodd">
        <g id="2022-Desktop-HD---Location-unnanounced" transform="translate(-938.000000, -1596.000000)">
            <g id="get-involved" transform="translate(-55.000000, 1335.000000)">
                <g id="mailing-list" transform="translate(807.000000, 221.000000)">
                    <g id="icon-/-arrow-right-copy" transform="translate(186.333333, 40.000000)">
                        <mask id="mask-2" fill="white">
                            <use xlink:href="#path-1"></use>
                        </mask>
                        <use id="Mask" fill="#FDF8F4" fill-rule="nonzero" xlink:href="#path-1"></use>
                        <g id="Icon-Color" mask="url(#mask-2)" fill="#FDF8F4">
                            <g transform="translate(-1.333333, -4.000000)" id="Shape">
                                <rect x="0" y="0" width="32" height="32"></rect>
                            </g>
                        </g>
                    </g>
                </g>
            </g>
        </g>
    </g>
</svg>