<?xml version="1.0" encoding="UTF-8"?>
<svg width="21px" height="19px" viewBox="0 0 21 19" version="1.1" xmlns="http://www.w3.org/2000/svg" xmlns:xlink="http://www.w3.org/1999/xlink">
    <title>icon / arrow-right copy</title>
    <defs>
        <path d="M20.6280368,0.165211347 C20.3660988,-0.0107763554 19.9295355,-0.0107763554 19.6675976,0.165211347 C19.056409,0.605180602 18.3579077,0.957156006 17.6594065,1.22113756 C15.9131534,-0.362751759 13.2064611,-0.450745611 11.3728954,1.22113756 C10.2378308,2.10107607 9.62664227,3.42098383 9.62664227,4.82888545 C7.09457527,4.65289775 4.82444625,3.33298998 3.34013112,1.22113756 C3.16550581,0.957156006 2.90356784,0.869162155 2.55431722,0.869162155 C2.2050666,0.869162155 1.94312864,1.13314371 1.85581598,1.39712526 C1.76850333,1.48511911 0.895376781,3.59697154 0.982689436,6.14879322 C1.07000209,8.34863949 1.94312864,11.1644427 5.17369687,13.1883013 C3.86400705,13.8042583 2.37969191,14.0682398 0.895376781,14.0682398 C0.546126162,14.0682398 0.109562888,14.3322214 0.0222502327,14.6841968 C-0.0650624221,15.0361722 0.109562888,15.4761414 0.458813507,15.6521291 C2.64162988,16.884043 4.99907156,17.5 7.18188793,17.5 C9.3647043,17.5 11.460208,16.9720369 13.3810864,15.8281168 C17.1355306,13.7162644 19.2310343,9.66854726 19.2310343,4.82888545 C19.2310343,4.65289775 19.2310343,4.5649039 19.2310343,4.3889162 C20.1041608,3.42098383 20.7153494,2.27706377 20.9772874,1.04514986 C21.0646,0.693174453 20.8899747,0.341199049 20.6280368,0.165211347 Z M17.6594065,3.50897769 C17.4847812,3.68496539 17.3974685,4.03694079 17.3974685,4.30092235 C17.4847812,4.47691005 17.4847812,4.65289775 17.4847812,4.82888545 C17.4847812,9.0525903 15.6512154,12.4843505 12.5079599,14.3322214 C10.0632055,15.740123 7.18188793,16.0920984 4.30057032,15.3881476 C5.43563483,15.0361722 6.48338669,14.5962029 7.44382589,13.8922521 C7.79307651,13.7162644 7.88038917,13.4522829 7.88038917,13.1003074 C7.88038917,12.748332 7.6184512,12.4843505 7.35651324,12.3963566 C2.29237926,10.1085165 2.46700457,5.79681781 2.9908805,3.59697154 C4.9117589,5.53283626 7.6184512,6.67675632 10.4997688,6.58876247 C10.9363321,6.58876247 11.3728954,6.14879322 11.3728954,5.70882396 L11.3728954,4.82888545 C11.3728954,3.94894694 11.722146,3.06900843 12.4206472,2.45305147 C13.6430244,1.30913141 15.6512154,1.48511911 16.6989673,2.71703303 C16.9609053,2.98101458 17.3101559,3.06900843 17.5720939,2.98101458 C17.7467192,2.89302073 18.0086571,2.89302073 18.1832824,2.80502688 C18.0086571,3.06900843 17.8340318,3.24499613 17.6594065,3.50897769 Z" id="path-1"></path>
    </defs>
    <g id="Symbols" stroke="none" stroke-width="1" fill="none" fill-rule="evenodd">
        <g id="2021-/-speaker-/-dekstop" transform="translate(-66.000000, -242.000000)">
            <g id="social-links\-copy-3" transform="translate(66.000000, 241.000000)">
                <g id="icon-/-arrow-right-copy" transform="translate(0.000000, 1.750000)">
                    <mask id="mask-2" fill="white">
                        <use xlink:href="#path-1"></use>
                    </mask>
                    <use id="Mask" fill="#000000" fill-rule="nonzero" xlink:href="#path-1"></use>
                    <g id="Icon-Color" mask="url(#mask-2)" fill="#2A3B90">
                        <g transform="translate(0.000000, -1.750000)" id="Shape">
                            <rect x="0" y="0" width="21" height="21"></rect>
                        </g>
                    </g>
                </g>
            </g>
        </g>
    </g>
</svg>