<svg xmlns="http://www.w3.org/2000/svg" viewBox="0 0 2599.71 1486"><defs><style>.cls-1{fill:#e25641;}</style></defs><title>Element 4</title><g id="Ebene_2" data-name="Ebene 2"><g id="Ebene_1-2" data-name="Ebene 1"><path class="cls-1" d="M994.35,1078.46a.72.72,0,0,0,0,.22Z"/><path class="cls-1" d="M2599.71,1127h-31.5v-41.88c0-43.74-32.47-80.25-74.5-86.63V987.65c0-4.79-6-9.65-6-14.13V963c0-4.42-2.26-8.18-6-9.5v-4.05a2.46,2.46,0,0,0-2.45-2.45h-1.1a2.46,2.46,0,0,0-2.45,2.45v4.05c-3.74,1.31-6,5.08-6,9.5v10.52c0,5.48-6,9.35-6,14.13V999c-40.56,7.63-71.5,43.43-71.5,86.12V1127h-34.9v-40.49h-5.59V1071a28.47,28.47,0,0,0-26.71-28.32v-8.92a7.49,7.49,0,0,0,0-14.55v-3.43a1.79,1.79,0,0,0-3.58,0v3.43a7.49,7.49,0,0,0,0,14.55v8.92a28.47,28.47,0,0,0-26.71,28.32v15.5H2289l-.58,127.5c-32.34,10.34-76.16,19.55-122.84,26.49-10.06-204.94-22.86-461.38-28.29-569.8h27.33a9.06,9.06,0,0,0,9-9V646.18a9.06,9.06,0,0,0-9-9h-29l-.51-10.25a94.08,94.08,0,0,0,18-181.13V418.43a9.06,9.06,0,0,0,7.91-9V382.14a9.06,9.06,0,0,0-9-9H2136C2134.14,318,2123.82,7,2123.82,6.63c0-2.77-.27-6.63-4.11-6.63-3.57,0-3.18,4.58-3.29,7.15-.1,2.39-9.87,312.58-11.55,366h-16a9.06,9.06,0,0,0-9,9v27.34a9.06,9.06,0,0,0,7.91,9v27.34A94.09,94.09,0,0,0,2104,626.61l-.5,10.54h-27.28a9.06,9.06,0,0,0-9,9v15.48a9.06,9.06,0,0,0,9,9h25.7l-27.25,580c-25.08,1.91-49.39,3-71.58,3q-5.2,0-10.39.08V1179h-255v73c-67.87-2.36-136.48.32-198.84,9-201.4,27.89-263.15,22.32-348.06,10.33-56.8-8-120.86-15.57-149-19.83-22.12-3.35-103.38.15-110.21-.68-8.82-1.08-5-.32-13.93-.41-13.46-.14-25.4-2.31-39.38-6.84C839.66,1231,766.46,1250.07,760,1250c-20.83-.2-41.66-.32-62.48.1-7.45.15-9.76-1.81-10.62-9.87-2.9-27.17-13.19-50.61-38.35-64.48-21.89-12.06-49.42-7.06-66.42,11.65-10.1,11.12-17.39,26-22,45.24-10.66-3.64-21.17-7.58-31.91-10.78-5.91-1.76-4.82-10-4.82-10l-.6-88.63s-3.23-11.76-11-11.82c-11.06-.08-90.47.09-101.1-.3-8.37-.31-11,11.51-11,11.51l.49,70.89s-2.2,10.46-10.05,10.29c-21.24-.46-42.53-1.18-63.65,2.1-6.38,1-6.88-2.1-6.57-7.4.57-9.85-.25-19.81.71-29.6.91-9.3-2.41-13.11-11.45-14.37-18.76-2.61-19.78-.62-20.89-19.76-.11-1.89.47-8.69-.24-17.47-2.39-29.61-9.15-52.35-10.21-78.88l0-82.28S242.8,798.78,242.5,794.36l-6.17-.07c-.24,3.69-29.3,161-29.3,161V1045a94,94,0,0,1-15.24-44.34c-1.82-20.61-8.07-39.18-18-57.06-8.8-15.92-13-33.13-10.36-51.56-.06-4.7.43-9.49-.27-14.09-2.55-16.58,3.28-32.76.61-49.68-5.66-35.79-3.46-71.87,0-107.88.74-7.79,11.26-1.24,10.32-9.5-.84-7.38-11.92-2.4-11.79-11.09.2-13.16-4.41-25.56-6.84-38.29-7.81-40.82-19.57-123.2-19.57-123.2s-3.38-16.51-3.19-16.29-16.15-9.25-17.39-9.5c-15.53-3.2-20.35,0-23.15,15.79-.49,2.77.72,4.79-3.51,6.51-10,4.07-20,6.81-30.86,6.68-2.58,0-5.72-1-7.28,3.19-3.6,9.63-9.27,18.48-7.92,29.61,1.62,13.39-14.66,21.82-10.45,36.25.09.3-2.73,2.18-4.13,2.11-15.65-.8-15.69,11.11-18.76,21.76C6.26,644.83,12.81,661.46,0,666v820H2599.71ZM76.71,831c-4.26,0-8.51,0-12.77,0-2.48,0-5.23.76-5.57-5.68-1.56-29-.27-57.38,8.7-82.82,4.11-11.65,15.41-11.34,17.94.86,3.92,18.86,13.23,35.58,9.3,55C94.6,831.19,94.6,831.18,76.71,831Z"/></g></g></svg>