<?xml version="1.0" encoding="UTF-8"?>
<svg xmlns="http://www.w3.org/2000/svg" xmlns:xlink="http://www.w3.org/1999/xlink" width="1400pt" height="235pt" viewBox="0 0 1400 235" version="1.1">
<g id="surface1">
<path style=" stroke:none;fill-rule:nonzero;fill:rgb(40.784314%,62.352941%,21.960784%);fill-opacity:1;" d="M 195.773438 64.851562 C 183.382812 64.851562 171.882812 77.902344 171.882812 125.835938 C 171.882812 129.910156 171.882812 133.789062 172.058594 137.453125 L 213.117188 79.949219 C 208.527344 67.910156 202.152344 64.851562 195.773438 64.851562 Z M 195.773438 64.851562 "/>
<path style=" stroke:none;fill-rule:nonzero;fill:rgb(40.784314%,62.352941%,21.960784%);fill-opacity:1;" d="M 175.953125 166.007812 C 179.839844 178.4375 186.21875 183.335938 195.425781 183.335938 C 206.75 183.335938 218.613281 171.714844 218.613281 123.992188 C 218.613281 117.667969 218.433594 112.171875 218.082031 107.070312 Z M 175.953125 166.007812 "/>
<path style=" stroke:none;fill-rule:nonzero;fill:rgb(40.784314%,62.352941%,21.960784%);fill-opacity:1;" d="M 358.800781 14.890625 L 14.160156 14.890625 C 6.726562 14.890625 0.707031 21.820312 0.707031 30.378906 L 0.707031 218.820312 C 0.707031 227.378906 6.726562 234.324219 14.160156 234.324219 L 358.800781 234.324219 C 366.234375 234.324219 372.261719 227.378906 372.261719 218.820312 L 372.261719 30.378906 C 372.261719 22.023438 366.234375 14.890625 358.800781 14.890625 Z M 134.707031 206.175781 L 27.261719 206.175781 L 27.261719 183.75 C 42.65625 171.3125 100.898438 120.121094 100.898438 87.488281 C 100.898438 70.566406 89.398438 65.058594 80.894531 65.058594 C 66.203125 65.058594 57.878906 77.285156 56.464844 92.585938 L 27.96875 92.585938 C 27.96875 73.828125 39.125 38.34375 81.957031 38.34375 C 103.726562 38.34375 130.285156 50.777344 130.285156 85.851562 C 130.285156 118.890625 101.785156 149.070312 67.445312 180.488281 L 67.445312 180.894531 C 72.050781 180.285156 77.53125 179.464844 82.136719 179.464844 L 134.53125 179.464844 L 134.53125 206.175781 Z M 193.304688 210.050781 C 165.679688 210.050781 140.902344 191.699219 140.902344 128.476562 C 140.902344 60.164062 168.511719 38.140625 197.90625 38.140625 C 228.875 38.140625 249.585938 66.679688 249.585938 123.992188 C 249.402344 182.519531 223.035156 210.050781 193.304688 210.050781 Z M 348.359375 206.175781 L 263.394531 206.175781 L 263.394531 182.316406 L 290.832031 182.316406 L 290.832031 75.859375 C 288.351562 78.109375 286.410156 80.34375 283.746094 82.386719 L 263.75 97.484375 L 257.734375 77.285156 L 298.800781 42.421875 L 320.570312 42.421875 L 320.570312 182.519531 L 348.359375 182.519531 Z M 348.359375 206.175781 "/>
<path style=" stroke:none;fill-rule:nonzero;fill:rgb(0%,0%,0%);fill-opacity:1;" d="M 557.414062 157.03125 L 589.628906 157.03125 L 588.03125 220.660156 C 568.570312 228.40625 551.214844 231.0625 529.796875 231.0625 C 469.964844 231.0625 434.214844 190.070312 434.214844 125.835938 C 434.214844 69.949219 465.367188 17.738281 531.398438 17.738281 C 554.230469 17.738281 572.992188 22.839844 590.519531 29.78125 L 590.519531 87.285156 L 558.296875 87.285156 L 558.296875 54.242188 C 549.277344 50.777344 542.195312 49.554688 532.988281 49.554688 C 489.972656 49.554688 474.746094 85.445312 474.746094 123.175781 C 474.746094 154.375 486.433594 197.40625 535.105469 197.40625 C 540.246094 197.40625 549.625 196.800781 556 194.558594 Z M 557.414062 157.03125 "/>
<path style=" stroke:none;fill-rule:nonzero;fill:rgb(0%,0%,0%);fill-opacity:1;" d="M 630.875 103.386719 L 613.527344 103.386719 L 613.527344 73.414062 L 665.398438 73.414062 C 665.398438 84.027344 664.859375 94.417969 663.09375 108.691406 L 663.621094 108.691406 C 668.9375 82.796875 681.503906 69.75 702.035156 69.75 C 706.46875 69.75 710 70.566406 713.71875 71.578125 L 711.414062 108.488281 C 707.519531 107.683594 703.449219 107.070312 699.917969 107.070312 C 680.441406 107.070312 666.632812 122.355469 666.632812 147.648438 L 666.632812 197.40625 L 683.445312 197.40625 L 683.445312 227.378906 L 616.175781 227.378906 L 616.175781 197.40625 L 630.695312 197.40625 Z M 630.875 103.386719 "/>
<path style=" stroke:none;fill-rule:nonzero;fill:rgb(0%,0%,0%);fill-opacity:1;" d="M 759.210938 159.679688 C 760.273438 184.152344 776.554688 199.25 801.6875 199.25 C 818.863281 199.25 829.84375 195.976562 844.882812 188.640625 L 843.113281 221.273438 C 826.472656 228.40625 811.960938 231.0625 793.730469 231.0625 C 742.035156 231.0625 720.445312 193.949219 720.445312 151.316406 C 720.445312 103.386719 745.757812 69.949219 787.707031 69.949219 C 833.738281 69.949219 852.320312 109.921875 852.320312 159.679688 Z M 813.371094 131.328125 C 813.371094 110.125 802.929688 98.101562 786.292969 98.101562 C 770.003906 98.101562 760.449219 110.535156 758.855469 131.328125 Z M 813.371094 131.328125 "/>
<path style=" stroke:none;fill-rule:nonzero;fill:rgb(0%,0%,0%);fill-opacity:1;" d="M 953.042969 129.296875 C 953.042969 106.050781 944.539062 99.921875 927.722656 99.921875 C 922.59375 99.921875 911.613281 101.769531 905.421875 104.410156 L 905.421875 125.019531 L 874.804688 125.019531 L 874.804688 85.851562 C 883.472656 80.34375 904.539062 69.949219 928.253906 69.949219 C 964.015625 69.949219 986.855469 84.433594 986.855469 129.09375 C 986.855469 154.375 986.136719 175.59375 985.609375 197.40625 L 1000.652344 197.40625 L 1000.652344 227.378906 L 955.695312 227.378906 L 955.695312 218 C 955.695312 208.019531 956.222656 202.71875 957.464844 196.800781 L 956.933594 196.800781 C 947.90625 220.042969 935.691406 231.0625 913.207031 231.0625 C 883.117188 231.0625 868.425781 210.457031 868.425781 186.390625 C 868.425781 164.367188 881.167969 149.890625 895.332031 143.980469 C 908.960938 138.476562 927.011719 136.839844 953.042969 136.839844 Z M 942.421875 161.929688 C 913.207031 161.929688 904.011719 169.0625 904.011719 182.316406 C 904.011719 191.488281 909.671875 200.871094 923.65625 200.871094 C 937.988281 200.871094 952.328125 190.273438 952.328125 161.929688 Z M 942.421875 161.929688 "/>
<path style=" stroke:none;fill-rule:nonzero;fill:rgb(0%,0%,0%);fill-opacity:1;" d="M 1026.320312 41.605469 L 1062.078125 39.144531 L 1062.078125 73.414062 L 1097.832031 73.414062 L 1097.832031 103.386719 L 1062.078125 103.386719 L 1062.078125 171.917969 C 1062.078125 193.738281 1066.855469 199.050781 1081.726562 199.050781 C 1086.503906 199.050781 1092.523438 197.203125 1099.078125 194.355469 L 1097.832031 223.507812 C 1084.558594 228.8125 1075.351562 230.859375 1066.679688 230.859375 C 1040.304688 230.859375 1026.320312 216.789062 1026.320312 189.667969 L 1026.320312 103.386719 L 1008.089844 103.386719 L 1008.089844 73.414062 L 1026.320312 73.414062 Z M 1026.320312 41.605469 "/>
<path style=" stroke:none;fill-rule:nonzero;fill:rgb(0%,0%,0%);fill-opacity:1;" d="M 1144.570312 159.679688 C 1145.621094 184.152344 1161.914062 199.25 1187.054688 199.25 C 1204.21875 199.25 1215.191406 195.976562 1230.242188 188.640625 L 1228.472656 221.273438 C 1211.832031 228.40625 1197.316406 231.0625 1179.089844 231.0625 C 1127.398438 231.0625 1105.804688 193.949219 1105.804688 151.316406 C 1105.804688 103.386719 1131.109375 69.949219 1173.0625 69.949219 C 1219.089844 69.949219 1237.675781 109.921875 1237.675781 159.679688 Z M 1198.730469 131.328125 C 1198.730469 110.125 1188.292969 98.101562 1171.652344 98.101562 C 1155.367188 98.101562 1145.796875 110.535156 1144.21875 131.328125 Z M 1198.730469 131.328125 "/>
<path style=" stroke:none;fill-rule:nonzero;fill:rgb(0%,0%,0%);fill-opacity:1;" d="M 1349.015625 30.992188 L 1328.484375 30.992188 L 1328.484375 1.019531 L 1384.777344 1.019531 L 1384.777344 197.40625 L 1400.175781 197.40625 L 1400.175781 227.378906 L 1349.898438 227.378906 C 1349.898438 216.171875 1350.964844 207.40625 1352.914062 197.617188 L 1352.382812 197.617188 C 1344.238281 219.023438 1329.371094 230.859375 1306.890625 230.859375 C 1277.5 230.859375 1252.367188 206.386719 1252.367188 160.496094 C 1252.367188 118.484375 1270.074219 69.75 1327.070312 69.75 C 1333.257812 69.75 1341.941406 70.972656 1349.015625 73.210938 Z M 1347.949219 108.898438 C 1343.171875 106.050781 1333.085938 103.386719 1325.125 103.386719 C 1299.277344 103.386719 1289.539062 127.042969 1289.539062 150.707031 C 1289.539062 174.769531 1299.453125 195.367188 1316.980469 195.367188 C 1335.921875 195.367188 1347.949219 176 1347.949219 152.34375 Z M 1347.949219 108.898438 "/>
</g>
</svg>
