<?xml version="1.0" encoding="utf-8"?>
<svg version="1.1" id="Layer_1" xmlns="http://www.w3.org/2000/svg" xmlns:xlink="http://www.w3.org/1999/xlink" x="0px" y="0px"
	 viewBox="0 0 2629 3857" enable-background="new 0 0 2629 3857" xml:space="preserve">
<rect y="2003.6" width="2629" height="1857.4"/>
<g>
	<g>
		<path d="M514.6,529.8c-7,0-13.5,6.4-13.5,29.9c0,2,0,3.9,0.1,5.7l23.2-28.2C521.8,531.3,518.2,529.8,514.6,529.8z"/>
		<path d="M503.4,579.4c2.2,6.1,5.8,8.5,11,8.5c6.4,0,13.1-5.7,13.1-29.1c0-3.1-0.1-5.8-0.3-8.3L503.4,579.4z"/>
		<path d="M606.7,505.3H412c-4.2,0-7.6,3.4-7.6,7.6v92.4c0,4.2,3.4,7.6,7.6,7.6h194.7c4.2,0,7.6-3.4,7.6-7.6v-92.4
			C614.3,508.8,610.9,505.3,606.7,505.3z M480.1,599.1h-60.7v-11c8.7-6.1,41.6-31.2,41.6-47.2c0-8.3-6.5-11-11.3-11
			c-8.3,0-13,6-13.8,13.5h-16.1c0-9.2,6.3-26.6,30.5-26.6c12.3,0,27.3,6.1,27.3,23.3c0,16.2-16.1,31-35.5,46.4v0.2
			c2.6-0.3,5.7-0.7,8.3-0.7H480v13.1H480.1z M513.2,601c-15.6,0-29.6-9-29.6-40c0-33.5,15.6-44.3,32.2-44.3
			c17.5,0,29.2,14,29.2,42.1C544.9,587.5,530,601,513.2,601z M600.8,599.1h-48v-11.7h15.5v-52.2c-1.4,1.1-2.5,2.2-4,3.2l-11.3,7.4
			l-3.4-9.9l23.2-17.1h12.3v68.7h15.7L600.8,599.1L600.8,599.1z"/>
	</g>
	<g>
		<path d="M718.9,575h18.2l-0.9,31.2c-11,3.8-20.8,5.1-32.9,5.1c-33.8,0-54-20.1-54-51.6c0-27.4,17.6-53,54.9-53
			c12.9,0,23.5,2.5,33.4,5.9v28.2h-18.2v-16.2c-5.1-1.7-9.1-2.3-14.3-2.3c-24.3,0-32.9,17.6-32.9,36.1c0,15.3,6.6,36.4,34.1,36.4
			c2.9,0,8.2-0.3,11.8-1.4L718.9,575z"/>
		<path d="M760.4,548.7h-9.8V534h29.3c0,5.2-0.3,10.3-1.3,17.3h0.3c3-12.7,10.1-19.1,21.7-19.1c2.5,0,4.5,0.4,6.6,0.9l-1.3,18.1
			c-2.2-0.4-4.5-0.7-6.5-0.7c-11,0-18.8,7.5-18.8,19.9v24.4h9.5v14.7h-38v-14.7h8.2L760.4,548.7L760.4,548.7z"/>
		<path d="M832.9,576.3c0.6,12,9.8,19.3,24,19.3c9.7,0,15.9-1.6,24.4-5.2l-1,16c-9.4,3.5-17.6,4.8-27.9,4.8
			c-29.2,0-41.4-18.2-41.4-39.1c0-23.5,14.3-39.9,38-39.9c26,0,36.5,19.6,36.5,44L832.9,576.3L832.9,576.3z M863.5,562.4
			c0-10.4-5.9-16.3-15.3-16.3c-9.2,0-14.6,6.1-15.5,16.3H863.5z"/>
		<path d="M942.4,561.4c0-11.4-4.8-14.4-14.3-14.4c-2.9,0-9.1,0.9-12.6,2.2v10.1h-17.3v-19.2c4.9-2.7,16.8-7.8,30.2-7.8
			c20.2,0,33.1,7.1,33.1,29c0,12.4-0.4,22.8-0.7,33.5h8.5v14.7h-25.4v-4.6c0-4.9,0.3-7.5,1-10.4h-0.3c-5.1,11.4-12,16.8-24.7,16.8
			c-17,0-25.3-10.1-25.3-21.9c0-10.8,7.2-17.9,15.2-20.8c7.7-2.7,17.9-3.5,32.6-3.5V561.4z M936.4,577.4c-16.5,0-21.7,3.5-21.7,10
			c0,4.5,3.2,9.1,11.1,9.1c8.1,0,16.2-5.2,16.2-19.1H936.4z"/>
		<path d="M983.8,518.4l20.2-1.2V534h20.2v14.7H1004v33.6c0,10.7,2.7,13.3,11.1,13.3c2.7,0,6.1-0.9,9.8-2.3l-0.7,14.3
			c-7.5,2.6-12.7,3.6-17.6,3.6c-14.9,0-22.8-6.9-22.8-20.2v-42.3h-10.3V534h10.3V518.4z"/>
		<path d="M1050.6,576.3c0.6,12,9.8,19.3,24,19.3c9.7,0,15.9-1.6,24.4-5.2l-1,16c-9.4,3.5-17.6,4.8-27.9,4.8
			c-29.2,0-41.4-18.2-41.4-39.1c0-23.5,14.3-39.9,38-39.9c26,0,36.5,19.6,36.5,44L1050.6,576.3L1050.6,576.3z M1081.2,562.4
			c0-10.4-5.9-16.3-15.3-16.3c-9.2,0-14.6,6.1-15.5,16.3H1081.2z"/>
		<path d="M1166.1,513.2h-11.6v-14.7h31.8v96.3h8.7v14.7h-28.4c0-5.5,0.6-9.8,1.7-14.6h-0.3c-4.6,10.5-13,16.3-25.7,16.3
			c-16.6,0-30.8-12-30.8-34.5c0-20.6,10-44.5,42.2-44.5c3.5,0,8.4,0.6,12.4,1.7L1166.1,513.2L1166.1,513.2z M1165.5,551.4
			c-2.7-1.4-8.4-2.7-12.9-2.7c-14.6,0-20.1,11.6-20.1,23.2c0,11.8,5.6,21.9,15.5,21.9c10.7,0,17.5-9.5,17.5-21.1V551.4z"/>
	</g>
</g>
<g>
	<g>
		<path fill="#689F38" d="M514.6,1337.8c-7,0-13.5,6.4-13.5,29.9c0,2,0,3.9,0.1,5.7l23.2-28.2
			C521.8,1339.3,518.2,1337.8,514.6,1337.8z"/>
		<path fill="#689F38" d="M503.4,1387.4c2.2,6.1,5.8,8.5,11,8.5c6.4,0,13.1-5.7,13.1-29.1c0-3.1-0.1-5.8-0.3-8.3L503.4,1387.4z"/>
		<path fill="#689F38" d="M606.7,1313.3H412c-4.2,0-7.6,3.4-7.6,7.6v92.4c0,4.2,3.4,7.6,7.6,7.6h194.7c4.2,0,7.6-3.4,7.6-7.6v-92.4
			C614.3,1316.8,610.9,1313.3,606.7,1313.3z M480.1,1407.1h-60.7v-11c8.7-6.1,41.6-31.2,41.6-47.2c0-8.3-6.5-11-11.3-11
			c-8.3,0-13,6-13.8,13.5h-16.1c0-9.2,6.3-26.6,30.5-26.6c12.3,0,27.3,6.1,27.3,23.3c0,16.2-16.1,31-35.5,46.4v0.2
			c2.6-0.3,5.7-0.7,8.3-0.7H480v13.1H480.1z M513.2,1409c-15.6,0-29.6-9-29.6-40c0-33.5,15.6-44.3,32.2-44.3
			c17.5,0,29.2,14,29.2,42.1C544.9,1395.5,530,1409,513.2,1409z M600.8,1407.1h-48v-11.7h15.5v-52.2c-1.4,1.1-2.5,2.2-4,3.2
			l-11.3,7.4l-3.4-9.9l23.2-17.1h12.3v68.7h15.7L600.8,1407.1L600.8,1407.1z"/>
	</g>
	<g>
		<path d="M718.9,1383h18.2l-0.9,31.2c-11,3.8-20.8,5.1-32.9,5.1c-33.8,0-54-20.1-54-51.6c0-27.4,17.6-53,54.9-53
			c12.9,0,23.5,2.5,33.4,5.9v28.2h-18.2v-16.2c-5.1-1.7-9.1-2.3-14.3-2.3c-24.3,0-32.9,17.6-32.9,36.1c0,15.3,6.6,36.4,34.1,36.4
			c2.9,0,8.2-0.3,11.8-1.4L718.9,1383z"/>
		<path d="M760.4,1356.7h-9.8V1342h29.3c0,5.2-0.3,10.3-1.3,17.3h0.3c3-12.7,10.1-19.1,21.7-19.1c2.5,0,4.5,0.4,6.6,0.9l-1.3,18.1
			c-2.2-0.4-4.5-0.7-6.5-0.7c-11,0-18.8,7.5-18.8,19.9v24.4h9.5v14.7h-38v-14.7h8.2L760.4,1356.7L760.4,1356.7z"/>
		<path d="M832.9,1384.3c0.6,12,9.8,19.4,24,19.4c9.7,0,15.9-1.6,24.4-5.2l-1,16c-9.4,3.5-17.6,4.8-27.9,4.8
			c-29.2,0-41.4-18.2-41.4-39.1c0-23.5,14.3-39.9,38-39.9c26,0,36.5,19.6,36.5,44L832.9,1384.3L832.9,1384.3z M863.5,1370.4
			c0-10.4-5.9-16.3-15.3-16.3c-9.2,0-14.6,6.1-15.5,16.3H863.5z"/>
		<path d="M942.4,1369.4c0-11.4-4.8-14.4-14.3-14.4c-2.9,0-9.1,0.9-12.6,2.2v10.1h-17.3v-19.2c4.9-2.7,16.8-7.8,30.2-7.8
			c20.2,0,33.1,7.1,33.1,29c0,12.4-0.4,22.8-0.7,33.5h8.5v14.7h-25.4v-4.6c0-4.9,0.3-7.5,1-10.4h-0.3c-5.1,11.4-12,16.8-24.7,16.8
			c-17,0-25.3-10.1-25.3-21.9c0-10.8,7.2-17.9,15.2-20.8c7.7-2.7,17.9-3.5,32.6-3.5V1369.4z M936.4,1385.4c-16.5,0-21.7,3.5-21.7,10
			c0,4.5,3.2,9.1,11.1,9.1c8.1,0,16.2-5.2,16.2-19.1H936.4z"/>
		<path d="M983.8,1326.4l20.2-1.2v16.8h20.2v14.7H1004v33.6c0,10.7,2.7,13.3,11.1,13.3c2.7,0,6.1-0.9,9.8-2.3l-0.7,14.3
			c-7.5,2.6-12.7,3.6-17.6,3.6c-14.9,0-22.8-6.9-22.8-20.2v-42.3h-10.3V1342h10.3V1326.4z"/>
		<path d="M1050.6,1384.3c0.6,12,9.8,19.4,24,19.4c9.7,0,15.9-1.6,24.4-5.2l-1,16c-9.4,3.5-17.6,4.8-27.9,4.8
			c-29.2,0-41.4-18.2-41.4-39.1c0-23.5,14.3-39.9,38-39.9c26,0,36.5,19.6,36.5,44L1050.6,1384.3L1050.6,1384.3z M1081.2,1370.4
			c0-10.4-5.9-16.3-15.3-16.3c-9.2,0-14.6,6.1-15.5,16.3H1081.2z"/>
		<path d="M1166.1,1321.2h-11.6v-14.7h31.8v96.3h8.7v14.7h-28.4c0-5.5,0.6-9.8,1.7-14.6h-0.3c-4.6,10.5-13,16.3-25.7,16.3
			c-16.6,0-30.8-12-30.8-34.5c0-20.6,10-44.5,42.2-44.5c3.5,0,8.4,0.6,12.4,1.7L1166.1,1321.2L1166.1,1321.2z M1165.5,1359.4
			c-2.7-1.4-8.4-2.7-12.9-2.7c-14.6,0-20.1,11.6-20.1,23.2c0,11.8,5.6,21.9,15.5,21.9c10.7,0,17.5-9.5,17.5-21.1V1359.4z"/>
	</g>
</g>
<g>
	<g>
		<path fill="#FFFFFF" d="M514.6,2541.8c-7,0-13.5,6.4-13.5,29.9c0,2,0,3.9,0.1,5.7l23.2-28.2
			C521.8,2543.3,518.2,2541.8,514.6,2541.8z"/>
		<path fill="#FFFFFF" d="M503.4,2591.4c2.2,6.1,5.8,8.5,11,8.5c6.4,0,13.1-5.7,13.1-29.1c0-3.1-0.1-5.8-0.3-8.3L503.4,2591.4z"/>
		<path fill="#FFFFFF" d="M606.7,2517.3H412c-4.2,0-7.6,3.4-7.6,7.6v92.4c0,4.2,3.4,7.6,7.6,7.6h194.7c4.2,0,7.6-3.4,7.6-7.6V2525
			C614.3,2520.8,610.9,2517.3,606.7,2517.3z M480.1,2611.1h-60.7v-11c8.7-6.1,41.6-31.2,41.6-47.2c0-8.3-6.5-11-11.3-11
			c-8.3,0-13,6-13.8,13.5h-16.1c0-9.2,6.3-26.6,30.5-26.6c12.3,0,27.3,6.1,27.3,23.3c0,16.2-16.1,31-35.5,46.4v0.2
			c2.6-0.3,5.7-0.7,8.3-0.7H480v13.1H480.1z M513.2,2613c-15.6,0-29.6-9-29.6-40c0-33.5,15.6-44.3,32.2-44.3
			c17.5,0,29.2,14,29.2,42.1C544.9,2599.5,530,2613,513.2,2613z M600.8,2611.1h-48v-11.7h15.5v-52.2c-1.4,1.1-2.5,2.2-4,3.2
			l-11.3,7.4l-3.4-9.9l23.2-17.1h12.3v68.7h15.7L600.8,2611.1L600.8,2611.1z"/>
	</g>
	<g>
		<path fill="#FFFFFF" d="M718.9,2587h18.2l-0.9,31.2c-11,3.8-20.8,5.1-32.9,5.1c-33.8,0-54-20.1-54-51.6c0-27.4,17.6-53,54.9-53
			c12.9,0,23.5,2.5,33.4,5.9v28.2h-18.2v-16.2c-5.1-1.7-9.1-2.3-14.3-2.3c-24.3,0-32.9,17.6-32.9,36.1c0,15.3,6.6,36.4,34.1,36.4
			c2.9,0,8.2-0.3,11.8-1.4L718.9,2587z"/>
		<path fill="#FFFFFF" d="M760.4,2560.7h-9.8V2546h29.3c0,5.2-0.3,10.3-1.3,17.3h0.3c3-12.7,10.1-19.1,21.7-19.1
			c2.5,0,4.5,0.4,6.6,0.9l-1.3,18.1c-2.2-0.4-4.5-0.7-6.5-0.7c-11,0-18.8,7.5-18.8,19.9v24.4h9.5v14.7h-38v-14.7h8.2L760.4,2560.7
			L760.4,2560.7z"/>
		<path fill="#FFFFFF" d="M832.9,2588.3c0.6,12,9.8,19.4,24,19.4c9.7,0,15.9-1.6,24.4-5.2l-1,16c-9.4,3.5-17.6,4.8-27.9,4.8
			c-29.2,0-41.4-18.2-41.4-39.1c0-23.5,14.3-39.9,38-39.9c26,0,36.5,19.6,36.5,44H832.9z M863.5,2574.4c0-10.4-5.9-16.3-15.3-16.3
			c-9.2,0-14.6,6.1-15.5,16.3H863.5z"/>
		<path fill="#FFFFFF" d="M942.4,2573.4c0-11.4-4.8-14.4-14.3-14.4c-2.9,0-9.1,0.9-12.6,2.2v10.1h-17.3V2552
			c4.9-2.7,16.8-7.8,30.2-7.8c20.2,0,33.1,7.1,33.1,29c0,12.4-0.4,22.8-0.7,33.5h8.5v14.7h-25.4v-4.6c0-4.9,0.3-7.5,1-10.4h-0.3
			c-5.1,11.4-12,16.8-24.7,16.8c-17,0-25.3-10.1-25.3-21.9c0-10.8,7.2-17.9,15.2-20.8c7.7-2.7,17.9-3.5,32.6-3.5V2573.4z
			 M936.4,2589.4c-16.5,0-21.7,3.5-21.7,10c0,4.5,3.2,9.1,11.1,9.1c8.1,0,16.2-5.2,16.2-19.1H936.4z"/>
		<path fill="#FFFFFF" d="M983.8,2530.4l20.2-1.2v16.8h20.2v14.7H1004v33.6c0,10.7,2.7,13.3,11.1,13.3c2.7,0,6.1-0.9,9.8-2.3
			l-0.7,14.3c-7.5,2.6-12.7,3.6-17.6,3.6c-14.9,0-22.8-6.9-22.8-20.2v-42.3h-10.3V2546h10.3V2530.4z"/>
		<path fill="#FFFFFF" d="M1050.6,2588.3c0.6,12,9.8,19.4,24,19.4c9.7,0,15.9-1.6,24.4-5.2l-1,16c-9.4,3.5-17.6,4.8-27.9,4.8
			c-29.2,0-41.4-18.2-41.4-39.1c0-23.5,14.3-39.9,38-39.9c26,0,36.5,19.6,36.5,44H1050.6z M1081.2,2574.4c0-10.4-5.9-16.3-15.3-16.3
			c-9.2,0-14.6,6.1-15.5,16.3H1081.2z"/>
		<path fill="#FFFFFF" d="M1166.1,2525.2h-11.6v-14.7h31.8v96.3h8.7v14.7h-28.4c0-5.5,0.6-9.8,1.7-14.6h-0.3
			c-4.6,10.5-13,16.3-25.7,16.3c-16.6,0-30.8-12-30.8-34.5c0-20.6,10-44.5,42.2-44.5c3.5,0,8.4,0.6,12.4,1.7L1166.1,2525.2
			L1166.1,2525.2z M1165.5,2563.4c-2.7-1.4-8.4-2.7-12.9-2.7c-14.6,0-20.1,11.6-20.1,23.2c0,11.8,5.6,21.9,15.5,21.9
			c10.7,0,17.5-9.5,17.5-21.1V2563.4z"/>
	</g>
</g>
<g>
	<g>
		<path fill="#7CB342" d="M514.6,3277.8c-7,0-13.5,6.4-13.5,29.9c0,2,0,3.9,0.1,5.7l23.2-28.2
			C521.8,3279.3,518.2,3277.8,514.6,3277.8z"/>
		<path fill="#7CB342" d="M503.4,3327.4c2.2,6.1,5.8,8.5,11,8.5c6.4,0,13.1-5.7,13.1-29.1c0-3.1-0.1-5.8-0.3-8.3L503.4,3327.4z"/>
		<path fill="#7CB342" d="M606.7,3253.3H412c-4.2,0-7.6,3.4-7.6,7.6v92.4c0,4.2,3.4,7.6,7.6,7.6h194.7c4.2,0,7.6-3.4,7.6-7.6V3261
			C614.3,3256.8,610.9,3253.3,606.7,3253.3z M480.1,3347.1h-60.7v-11c8.7-6.1,41.6-31.2,41.6-47.2c0-8.3-6.5-11-11.3-11
			c-8.3,0-13,6-13.8,13.5h-16.1c0-9.2,6.3-26.6,30.5-26.6c12.3,0,27.3,6.1,27.3,23.3c0,16.2-16.1,31-35.5,46.4v0.2
			c2.6-0.3,5.7-0.7,8.3-0.7H480v13.1H480.1z M513.2,3349c-15.6,0-29.6-9-29.6-40c0-33.5,15.6-44.3,32.2-44.3
			c17.5,0,29.2,14,29.2,42.1C544.9,3335.5,530,3349,513.2,3349z M600.8,3347.1h-48v-11.7h15.5v-52.2c-1.4,1.1-2.5,2.2-4,3.2
			l-11.3,7.4l-3.4-9.9l23.2-17.1h12.3v68.7h15.7L600.8,3347.1L600.8,3347.1z"/>
	</g>
	<g>
		<path fill="#FFFFFF" d="M718.9,3323h18.2l-0.9,31.2c-11,3.8-20.8,5.1-32.9,5.1c-33.8,0-54-20.1-54-51.6c0-27.4,17.6-53,54.9-53
			c12.9,0,23.5,2.5,33.4,5.9v28.2h-18.2v-16.2c-5.1-1.7-9.1-2.3-14.3-2.3c-24.3,0-32.9,17.6-32.9,36.1c0,15.3,6.6,36.4,34.1,36.4
			c2.9,0,8.2-0.3,11.8-1.4L718.9,3323z"/>
		<path fill="#FFFFFF" d="M760.4,3296.7h-9.8V3282h29.3c0,5.2-0.3,10.3-1.3,17.3h0.3c3-12.7,10.1-19.1,21.7-19.1
			c2.5,0,4.5,0.4,6.6,0.9l-1.3,18.1c-2.2-0.4-4.5-0.7-6.5-0.7c-11,0-18.8,7.5-18.8,19.9v24.4h9.5v14.7h-38v-14.7h8.2L760.4,3296.7
			L760.4,3296.7z"/>
		<path fill="#FFFFFF" d="M832.9,3324.3c0.6,12,9.8,19.4,24,19.4c9.7,0,15.9-1.6,24.4-5.2l-1,16c-9.4,3.5-17.6,4.8-27.9,4.8
			c-29.2,0-41.4-18.2-41.4-39.1c0-23.5,14.3-39.9,38-39.9c26,0,36.5,19.6,36.5,44L832.9,3324.3L832.9,3324.3z M863.5,3310.4
			c0-10.4-5.9-16.3-15.3-16.3c-9.2,0-14.6,6.1-15.5,16.3H863.5z"/>
		<path fill="#FFFFFF" d="M942.4,3309.4c0-11.4-4.8-14.4-14.3-14.4c-2.9,0-9.1,0.9-12.6,2.2v10.1h-17.3V3288
			c4.9-2.7,16.8-7.8,30.2-7.8c20.2,0,33.1,7.1,33.1,29c0,12.4-0.4,22.8-0.7,33.5h8.5v14.7h-25.4v-4.6c0-4.9,0.3-7.5,1-10.4h-0.3
			c-5.1,11.4-12,16.8-24.7,16.8c-17,0-25.3-10.1-25.3-21.9c0-10.8,7.2-17.9,15.2-20.8c7.7-2.7,17.9-3.5,32.6-3.5V3309.4z
			 M936.4,3325.4c-16.5,0-21.7,3.5-21.7,10c0,4.5,3.2,9.1,11.1,9.1c8.1,0,16.2-5.2,16.2-19.1H936.4z"/>
		<path fill="#FFFFFF" d="M983.8,3266.4l20.2-1.2v16.8h20.2v14.7H1004v33.6c0,10.7,2.7,13.3,11.1,13.3c2.7,0,6.1-0.9,9.8-2.3
			l-0.7,14.3c-7.5,2.6-12.7,3.6-17.6,3.6c-14.9,0-22.8-6.9-22.8-20.2v-42.3h-10.3V3282h10.3V3266.4z"/>
		<path fill="#FFFFFF" d="M1050.6,3324.3c0.6,12,9.8,19.4,24,19.4c9.7,0,15.9-1.6,24.4-5.2l-1,16c-9.4,3.5-17.6,4.8-27.9,4.8
			c-29.2,0-41.4-18.2-41.4-39.1c0-23.5,14.3-39.9,38-39.9c26,0,36.5,19.6,36.5,44L1050.6,3324.3L1050.6,3324.3z M1081.2,3310.4
			c0-10.4-5.9-16.3-15.3-16.3c-9.2,0-14.6,6.1-15.5,16.3H1081.2z"/>
		<path fill="#FFFFFF" d="M1166.1,3261.2h-11.6v-14.7h31.8v96.3h8.7v14.7h-28.4c0-5.5,0.6-9.8,1.7-14.6h-0.3
			c-4.6,10.5-13,16.3-25.7,16.3c-16.6,0-30.8-12-30.8-34.5c0-20.6,10-44.5,42.2-44.5c3.5,0,8.4,0.6,12.4,1.7L1166.1,3261.2
			L1166.1,3261.2z M1165.5,3299.4c-2.7-1.4-8.4-2.7-12.9-2.7c-14.6,0-20.1,11.6-20.1,23.2c0,11.8,5.6,21.9,15.5,21.9
			c10.7,0,17.5-9.5,17.5-21.1V3299.4z"/>
	</g>
</g>
<g>
	<g>
		<path d="M1966.8,479.6c-9.9,0-19.2,9.1-19.2,42.3c0,2.9,0.1,5.5,0.2,8l32.8-39.9C1977.1,481.7,1971.8,479.6,1966.8,479.6z"/>
		<path d="M1951,549.9c3,8.6,8.2,12,15.5,12c9.1,0,18.5-8.1,18.5-41.1c0-4.4-0.2-8.3-0.4-11.8L1951,549.9z"/>
		<path d="M2097.2,444.9h-275.7c-6,0-10.8,4.9-10.8,10.8v130.8c0,6,4.9,10.8,10.8,10.8h275.7c6,0,10.8-4.9,10.8-10.8V455.7
			C2108,449.8,2103.1,444.9,2097.2,444.9z M1917.9,577.7h-86v-15.6c12.4-8.6,58.9-44.2,58.9-66.8c0-11.7-9.3-15.6-15.9-15.6
			c-11.7,0-18.4,8.5-19.5,19.2h-22.8c0-13,8.9-37.7,43.3-37.7c17.4,0,38.7,8.6,38.7,33c0,22.9-22.8,43.9-50.2,65.7v0.3
			c3.7-0.5,8.1-1,11.7-1h42v18.5H1917.9z M1964.9,580.4c-22.1,0-42-12.7-42-56.6c0-47.5,22.1-62.8,45.5-62.8
			c24.7,0,41.3,19.8,41.3,59.7C2009.8,561.2,1988.6,580.4,1964.9,580.4z M2088.9,577.7h-68v-16.6h22v-74c-2,1.6-3.6,3.1-5.7,4.6
			l-16.1,10.5l-4.8-14.1l32.8-24.2h17.4v97.2h22.3v16.6H2088.9z"/>
	</g>
	<g>
		<path d="M1847.8,655.3h10.1l-0.5,17.4c-6.1,2.1-11.6,2.8-18.3,2.8c-18.8,0-30.1-11.2-30.1-28.7c0-15.3,9.8-29.5,30.6-29.5
			c7.2,0,13.1,1.4,18.6,3.3v15.7H1848v-9c-2.8-1-5.1-1.3-8-1.3c-13.5,0-18.3,9.8-18.3,20.1c0,8.5,3.7,20.3,19,20.3
			c1.6,0,4.6-0.2,6.6-0.8L1847.8,655.3z"/>
		<path d="M1870.9,640.7h-5.5v-8.2h16.3c0,2.9-0.2,5.7-0.7,9.7h0.2c1.7-7.1,5.6-10.6,12.1-10.6c1.4,0,2.5,0.2,3.7,0.5l-0.7,10.1
			c-1.2-0.2-2.5-0.4-3.6-0.4c-6.1,0-10.5,4.2-10.5,11.1v13.6h5.3v8.2h-21.2v-8.2h4.6L1870.9,640.7L1870.9,640.7z"/>
		<path d="M1911.3,656c0.3,6.7,5.5,10.8,13.4,10.8c5.4,0,8.8-0.9,13.6-2.9l-0.6,8.9c-5.2,1.9-9.8,2.7-15.5,2.7
			c-16.3,0-23.1-10.1-23.1-21.8c0-13.1,8-22.2,21.2-22.2c14.5,0,20.4,10.9,20.4,24.5H1911.3z M1928.3,648.3c0-5.8-3.3-9.1-8.5-9.1
			c-5.1,0-8.1,3.4-8.6,9.1H1928.3z"/>
		<path d="M1972.3,647.8c0-6.4-2.7-8-8-8c-1.6,0-5.1,0.5-7,1.2v5.6h-9.7v-10.7c2.7-1.5,9.3-4.3,16.8-4.3c11.3,0,18.4,3.9,18.4,16.2
			c0,6.9-0.2,12.7-0.4,18.7h4.7v8.2h-14.2v-2.6c0-2.7,0.2-4.2,0.6-5.8h-0.2c-2.8,6.4-6.7,9.3-13.8,9.3c-9.5,0-14.1-5.6-14.1-12.2
			c0-6,4-10,8.4-11.6c4.3-1.5,10-1.9,18.2-1.9v-2.1H1972.3z M1969,656.7c-9.2,0-12.1,1.9-12.1,5.6c0,2.5,1.8,5.1,6.2,5.1
			c4.5,0,9-2.9,9-10.6h-3.1V656.7z"/>
		<path d="M1995.4,623.8l11.3-0.6v9.3h11.3v8.2h-11.3v18.7c0,6,1.5,7.4,6.2,7.4c1.5,0,3.4-0.5,5.5-1.3l-0.4,8c-4.2,1.4-7.1,2-9.8,2
			c-8.3,0-12.7-3.9-12.7-11.3v-23.6h-5.7v-8.2h5.7L1995.4,623.8L1995.4,623.8z"/>
		<path d="M2032.6,656c0.3,6.7,5.5,10.8,13.4,10.8c5.4,0,8.8-0.9,13.6-2.9l-0.6,8.9c-5.2,1.9-9.8,2.7-15.5,2.7
			c-16.3,0-23.1-10.1-23.1-21.8c0-13.1,8-22.2,21.2-22.2c14.5,0,20.4,10.9,20.4,24.5H2032.6z M2049.6,648.3c0-5.8-3.3-9.1-8.5-9.1
			c-5.1,0-8.1,3.4-8.6,9.1H2049.6z"/>
		<path d="M2096.9,620.9h-6.4v-8.2h17.7v53.7h4.8v8.2h-15.8c0-3.1,0.3-5.5,1-8.1h-0.2c-2.6,5.9-7.2,9.1-14.3,9.1
			c-9.3,0-17.1-6.7-17.1-19.2c0-11.5,5.6-24.8,23.5-24.8c1.9,0,4.7,0.3,6.9,1L2096.9,620.9L2096.9,620.9z M2096.6,642.2
			c-1.5-0.8-4.7-1.5-7.2-1.5c-8.1,0-11.2,6.4-11.2,13s3.1,12.2,8.6,12.2c6,0,9.7-5.3,9.7-11.7L2096.6,642.2L2096.6,642.2z"/>
	</g>
</g>
<g>
	<g>
		<path fill="#689F38" d="M1966.8,1287.6c-9.9,0-19.2,9.1-19.2,42.3c0,2.9,0.1,5.5,0.2,8l32.8-39.9
			C1977.1,1289.7,1971.8,1287.6,1966.8,1287.6z"/>
		<path fill="#689F38" d="M1951,1357.9c3,8.6,8.2,12,15.5,12c9.1,0,18.5-8.1,18.5-41.1c0-4.4-0.2-8.3-0.4-11.8L1951,1357.9z"/>
		<path fill="#689F38" d="M2097.2,1252.9h-275.7c-6,0-10.8,4.9-10.8,10.8v130.8c0,6,4.9,10.8,10.8,10.8h275.7
			c6,0,10.8-4.9,10.8-10.8v-130.8C2108,1257.8,2103.1,1252.9,2097.2,1252.9z M1917.9,1385.7h-86v-15.6c12.4-8.6,58.9-44.2,58.9-66.8
			c0-11.7-9.3-15.6-15.9-15.6c-11.7,0-18.4,8.5-19.5,19.2h-22.8c0-13,8.9-37.7,43.3-37.7c17.4,0,38.7,8.6,38.7,33
			c0,22.9-22.8,43.9-50.2,65.7v0.3c3.7-0.5,8.1-1,11.7-1h42v18.5H1917.9z M1964.9,1388.4c-22.1,0-42-12.7-42-56.6
			c0-47.5,22.1-62.8,45.5-62.8c24.7,0,41.3,19.8,41.3,59.7C2009.8,1369.2,1988.6,1388.4,1964.9,1388.4z M2088.9,1385.7h-68v-16.6h22
			v-74c-2,1.6-3.6,3.1-5.7,4.6l-16.1,10.5l-4.8-14.1l32.8-24.2h17.4v97.2h22.3v16.6H2088.9z"/>
	</g>
	<g>
		<path d="M1847.8,1463.3h10.1l-0.5,17.4c-6.1,2.1-11.6,2.8-18.3,2.8c-18.8,0-30.1-11.2-30.1-28.7c0-15.3,9.8-29.5,30.6-29.5
			c7.2,0,13.1,1.4,18.6,3.3v15.7H1848v-9c-2.8-1-5.1-1.3-8-1.3c-13.5,0-18.3,9.8-18.3,20.1c0,8.5,3.7,20.3,19,20.3
			c1.6,0,4.6-0.2,6.6-0.8L1847.8,1463.3z"/>
		<path d="M1870.9,1448.7h-5.5v-8.2h16.3c0,2.9-0.2,5.7-0.7,9.7h0.2c1.7-7.1,5.6-10.6,12.1-10.6c1.4,0,2.5,0.2,3.7,0.5l-0.7,10.1
			c-1.2-0.2-2.5-0.4-3.6-0.4c-6.1,0-10.5,4.2-10.5,11.1v13.6h5.3v8.2h-21.2v-8.2h4.6L1870.9,1448.7L1870.9,1448.7z"/>
		<path d="M1911.3,1464c0.3,6.7,5.5,10.8,13.4,10.8c5.4,0,8.8-0.9,13.6-2.9l-0.6,8.9c-5.2,1.9-9.8,2.7-15.5,2.7
			c-16.3,0-23.1-10.1-23.1-21.8c0-13.1,8-22.2,21.2-22.2c14.5,0,20.4,10.9,20.4,24.5H1911.3z M1928.3,1456.3c0-5.8-3.3-9.1-8.5-9.1
			c-5.1,0-8.1,3.4-8.6,9.1H1928.3z"/>
		<path d="M1972.3,1455.8c0-6.4-2.7-8-8-8c-1.6,0-5.1,0.5-7,1.2v5.6h-9.7v-10.7c2.7-1.5,9.3-4.3,16.8-4.3c11.3,0,18.4,3.9,18.4,16.2
			c0,6.9-0.2,12.7-0.4,18.7h4.7v8.2h-14.2v-2.6c0-2.7,0.2-4.2,0.6-5.8h-0.2c-2.8,6.4-6.7,9.3-13.8,9.3c-9.5,0-14.1-5.6-14.1-12.2
			c0-6,4-10,8.4-11.6c4.3-1.5,10-1.9,18.2-1.9v-2.1H1972.3z M1969,1464.7c-9.2,0-12.1,1.9-12.1,5.6c0,2.5,1.8,5.1,6.2,5.1
			c4.5,0,9-2.9,9-10.6L1969,1464.7L1969,1464.7z"/>
		<path d="M1995.4,1431.8l11.3-0.6v9.3h11.3v8.2h-11.3v18.7c0,6,1.5,7.4,6.2,7.4c1.5,0,3.4-0.5,5.5-1.3l-0.4,8c-4.2,1.4-7.1,2-9.8,2
			c-8.3,0-12.7-3.9-12.7-11.3v-23.6h-5.7v-8.2h5.7L1995.4,1431.8L1995.4,1431.8z"/>
		<path d="M2032.6,1464c0.3,6.7,5.5,10.8,13.4,10.8c5.4,0,8.8-0.9,13.6-2.9l-0.6,8.9c-5.2,1.9-9.8,2.7-15.5,2.7
			c-16.3,0-23.1-10.1-23.1-21.8c0-13.1,8-22.2,21.2-22.2c14.5,0,20.4,10.9,20.4,24.5H2032.6z M2049.6,1456.3c0-5.8-3.3-9.1-8.5-9.1
			c-5.1,0-8.1,3.4-8.6,9.1H2049.6z"/>
		<path d="M2096.9,1428.9h-6.4v-8.2h17.7v53.7h4.8v8.2h-15.8c0-3.1,0.3-5.5,1-8.1h-0.2c-2.6,5.9-7.2,9.1-14.3,9.1
			c-9.3,0-17.1-6.7-17.1-19.2c0-11.5,5.6-24.8,23.5-24.8c1.9,0,4.7,0.3,6.9,1L2096.9,1428.9L2096.9,1428.9z M2096.6,1450.2
			c-1.5-0.8-4.7-1.5-7.2-1.5c-8.1,0-11.2,6.4-11.2,13s3.1,12.2,8.6,12.2c6,0,9.7-5.3,9.7-11.7L2096.6,1450.2L2096.6,1450.2z"/>
	</g>
</g>
<g>
	<g>
		<path fill="#FFFFFF" d="M1966.8,2491.6c-9.9,0-19.2,9.1-19.2,42.3c0,2.9,0.1,5.5,0.2,8l32.8-39.9
			C1977.1,2493.7,1971.8,2491.6,1966.8,2491.6z"/>
		<path fill="#FFFFFF" d="M1951,2561.9c3,8.6,8.2,12,15.5,12c9.1,0,18.5-8.1,18.5-41.1c0-4.4-0.2-8.3-0.4-11.8L1951,2561.9z"/>
		<path fill="#FFFFFF" d="M2097.2,2456.9h-275.7c-6,0-10.8,4.9-10.8,10.8v130.8c0,6,4.9,10.8,10.8,10.8h275.7
			c6,0,10.8-4.9,10.8-10.8v-130.8C2108,2461.8,2103.1,2456.9,2097.2,2456.9z M1917.9,2589.7h-86v-15.6c12.4-8.6,58.9-44.2,58.9-66.8
			c0-11.7-9.3-15.6-15.9-15.6c-11.7,0-18.4,8.5-19.5,19.2h-22.8c0-13,8.9-37.7,43.3-37.7c17.4,0,38.7,8.6,38.7,33
			c0,22.9-22.8,43.9-50.2,65.7v0.3c3.7-0.5,8.1-1,11.7-1h42v18.5H1917.9z M1964.9,2592.4c-22.1,0-42-12.7-42-56.6
			c0-47.5,22.1-62.8,45.5-62.8c24.7,0,41.3,19.8,41.3,59.7C2009.8,2573.2,1988.6,2592.4,1964.9,2592.4z M2088.9,2589.7h-68v-16.6h22
			v-74c-2,1.6-3.6,3.1-5.7,4.6l-16.1,10.5l-4.8-14.1l32.8-24.2h17.4v97.2h22.3v16.6H2088.9z"/>
	</g>
	<g>
		<path fill="#FFFFFF" d="M1847.8,2667.3h10.1l-0.5,17.4c-6.1,2.1-11.6,2.8-18.3,2.8c-18.8,0-30.1-11.2-30.1-28.7
			c0-15.3,9.8-29.5,30.6-29.5c7.2,0,13.1,1.4,18.6,3.3v15.7H1848v-9c-2.8-1-5.1-1.3-8-1.3c-13.5,0-18.3,9.8-18.3,20.1
			c0,8.5,3.7,20.3,19,20.3c1.6,0,4.6-0.2,6.6-0.8L1847.8,2667.3z"/>
		<path fill="#FFFFFF" d="M1870.9,2652.7h-5.5v-8.2h16.3c0,2.9-0.2,5.7-0.7,9.7h0.2c1.7-7.1,5.6-10.6,12.1-10.6
			c1.4,0,2.5,0.2,3.7,0.5l-0.7,10.1c-1.2-0.2-2.5-0.4-3.6-0.4c-6.1,0-10.5,4.2-10.5,11.1v13.6h5.3v8.2h-21.2v-8.2h4.6L1870.9,2652.7
			L1870.9,2652.7z"/>
		<path fill="#FFFFFF" d="M1911.3,2668c0.3,6.7,5.5,10.8,13.4,10.8c5.4,0,8.8-0.9,13.6-2.9l-0.6,8.9c-5.2,1.9-9.8,2.7-15.5,2.7
			c-16.3,0-23.1-10.1-23.1-21.8c0-13.1,8-22.2,21.2-22.2c14.5,0,20.4,10.9,20.4,24.5H1911.3z M1928.3,2660.3c0-5.8-3.3-9.1-8.5-9.1
			c-5.1,0-8.1,3.4-8.6,9.1H1928.3z"/>
		<path fill="#FFFFFF" d="M1972.3,2659.7c0-6.4-2.7-8-8-8c-1.6,0-5.1,0.5-7,1.2v5.6h-9.7v-10.7c2.7-1.5,9.3-4.3,16.8-4.3
			c11.3,0,18.4,3.9,18.4,16.2c0,6.9-0.2,12.7-0.4,18.7h4.7v8.2h-14.2v-2.6c0-2.7,0.2-4.2,0.6-5.8h-0.2c-2.8,6.4-6.7,9.3-13.8,9.3
			c-9.5,0-14.1-5.6-14.1-12.2c0-6,4-10,8.4-11.6c4.3-1.5,10-1.9,18.2-1.9v-2.1H1972.3z M1969,2668.7c-9.2,0-12.1,1.9-12.1,5.6
			c0,2.5,1.8,5.1,6.2,5.1c4.5,0,9-2.9,9-10.6L1969,2668.7L1969,2668.7z"/>
		<path fill="#FFFFFF" d="M1995.4,2635.8l11.3-0.6v9.3h11.3v8.2h-11.3v18.7c0,6,1.5,7.4,6.2,7.4c1.5,0,3.4-0.5,5.5-1.3l-0.4,8
			c-4.2,1.4-7.1,2-9.8,2c-8.3,0-12.7-3.9-12.7-11.3v-23.6h-5.7v-8.2h5.7L1995.4,2635.8L1995.4,2635.8z"/>
		<path fill="#FFFFFF" d="M2032.6,2668c0.3,6.7,5.5,10.8,13.4,10.8c5.4,0,8.8-0.9,13.6-2.9l-0.6,8.9c-5.2,1.9-9.8,2.7-15.5,2.7
			c-16.3,0-23.1-10.1-23.1-21.8c0-13.1,8-22.2,21.2-22.2c14.5,0,20.4,10.9,20.4,24.5H2032.6z M2049.6,2660.3c0-5.8-3.3-9.1-8.5-9.1
			c-5.1,0-8.1,3.4-8.6,9.1H2049.6z"/>
		<path fill="#FFFFFF" d="M2096.9,2632.9h-6.4v-8.2h17.7v53.7h4.8v8.2h-15.8c0-3.1,0.3-5.5,1-8.1h-0.2c-2.6,5.9-7.2,9.1-14.3,9.1
			c-9.3,0-17.1-6.7-17.1-19.2c0-11.5,5.6-24.8,23.5-24.8c1.9,0,4.7,0.3,6.9,1L2096.9,2632.9L2096.9,2632.9z M2096.6,2654.2
			c-1.5-0.8-4.7-1.5-7.2-1.5c-8.1,0-11.2,6.4-11.2,13c0,6.6,3.1,12.2,8.6,12.2c6,0,9.7-5.3,9.7-11.7L2096.6,2654.2L2096.6,2654.2z"
			/>
	</g>
</g>
<g>
	<g>
		<path fill="#7CB342" d="M1966.8,3227.6c-9.9,0-19.2,9.1-19.2,42.3c0,2.9,0.1,5.5,0.2,8l32.8-39.9
			C1977.1,3229.7,1971.8,3227.6,1966.8,3227.6z"/>
		<path fill="#7CB342" d="M1951,3297.9c3,8.6,8.2,12,15.5,12c9.1,0,18.5-8.1,18.5-41.1c0-4.4-0.2-8.3-0.4-11.8L1951,3297.9z"/>
		<path fill="#7CB342" d="M2097.2,3192.9h-275.7c-6,0-10.8,4.9-10.8,10.8v130.8c0,6,4.9,10.8,10.8,10.8h275.7
			c6,0,10.8-4.9,10.8-10.8v-130.8C2108,3197.8,2103.1,3192.9,2097.2,3192.9z M1917.9,3325.7h-86v-15.6c12.4-8.6,58.9-44.2,58.9-66.8
			c0-11.7-9.3-15.6-15.9-15.6c-11.7,0-18.4,8.5-19.5,19.2h-22.8c0-13,8.9-37.7,43.3-37.7c17.4,0,38.7,8.6,38.7,33
			c0,22.9-22.8,43.9-50.2,65.7v0.3c3.7-0.5,8.1-1,11.7-1h42v18.5H1917.9z M1964.9,3328.4c-22.1,0-42-12.7-42-56.6
			c0-47.5,22.1-62.8,45.5-62.8c24.7,0,41.3,19.8,41.3,59.7C2009.8,3309.2,1988.6,3328.4,1964.9,3328.4z M2088.9,3325.7h-68v-16.6h22
			v-74c-2,1.6-3.6,3.1-5.7,4.6l-16.1,10.5l-4.8-14.1l32.8-24.2h17.4v97.2h22.3v16.6H2088.9z"/>
	</g>
	<g>
		<path fill="#FFFFFF" d="M1847.8,3403.3h10.1l-0.5,17.4c-6.1,2.1-11.6,2.8-18.3,2.8c-18.8,0-30.1-11.2-30.1-28.7
			c0-15.3,9.8-29.5,30.6-29.5c7.2,0,13.1,1.4,18.6,3.3v15.7H1848v-9c-2.8-1-5.1-1.3-8-1.3c-13.5,0-18.3,9.8-18.3,20.1
			c0,8.5,3.7,20.3,19,20.3c1.6,0,4.6-0.2,6.6-0.8L1847.8,3403.3z"/>
		<path fill="#FFFFFF" d="M1870.9,3388.7h-5.5v-8.2h16.3c0,2.9-0.2,5.7-0.7,9.7h0.2c1.7-7.1,5.6-10.6,12.1-10.6
			c1.4,0,2.5,0.2,3.7,0.5l-0.7,10.1c-1.2-0.2-2.5-0.4-3.6-0.4c-6.1,0-10.5,4.2-10.5,11.1v13.6h5.3v8.2h-21.2v-8.2h4.6L1870.9,3388.7
			L1870.9,3388.7z"/>
		<path fill="#FFFFFF" d="M1911.3,3404c0.3,6.7,5.5,10.8,13.4,10.8c5.4,0,8.8-0.9,13.6-2.9l-0.6,8.9c-5.2,1.9-9.8,2.7-15.5,2.7
			c-16.3,0-23.1-10.1-23.1-21.8c0-13.1,8-22.2,21.2-22.2c14.5,0,20.4,10.9,20.4,24.5H1911.3z M1928.3,3396.3c0-5.8-3.3-9.1-8.5-9.1
			c-5.1,0-8.1,3.4-8.6,9.1H1928.3z"/>
		<path fill="#FFFFFF" d="M1972.3,3395.7c0-6.4-2.7-8-8-8c-1.6,0-5.1,0.5-7,1.2v5.6h-9.7v-10.7c2.7-1.5,9.3-4.3,16.8-4.3
			c11.3,0,18.4,3.9,18.4,16.2c0,6.9-0.2,12.7-0.4,18.7h4.7v8.2h-14.2v-2.6c0-2.7,0.2-4.2,0.6-5.8h-0.2c-2.8,6.4-6.7,9.3-13.8,9.3
			c-9.5,0-14.1-5.6-14.1-12.2c0-6,4-10,8.4-11.6c4.3-1.5,10-1.9,18.2-1.9v-2.1H1972.3z M1969,3404.7c-9.2,0-12.1,1.9-12.1,5.6
			c0,2.5,1.8,5.1,6.2,5.1c4.5,0,9-2.9,9-10.6L1969,3404.7L1969,3404.7z"/>
		<path fill="#FFFFFF" d="M1995.4,3371.8l11.3-0.6v9.3h11.3v8.2h-11.3v18.7c0,6,1.5,7.4,6.2,7.4c1.5,0,3.4-0.5,5.5-1.3l-0.4,8
			c-4.2,1.4-7.1,2-9.8,2c-8.3,0-12.7-3.9-12.7-11.3v-23.6h-5.7v-8.2h5.7L1995.4,3371.8L1995.4,3371.8z"/>
		<path fill="#FFFFFF" d="M2032.6,3404c0.3,6.7,5.5,10.8,13.4,10.8c5.4,0,8.8-0.9,13.6-2.9l-0.6,8.9c-5.2,1.9-9.8,2.7-15.5,2.7
			c-16.3,0-23.1-10.1-23.1-21.8c0-13.1,8-22.2,21.2-22.2c14.5,0,20.4,10.9,20.4,24.5H2032.6z M2049.6,3396.3c0-5.8-3.3-9.1-8.5-9.1
			c-5.1,0-8.1,3.4-8.6,9.1H2049.6z"/>
		<path fill="#FFFFFF" d="M2096.9,3368.9h-6.4v-8.2h17.7v53.7h4.8v8.2h-15.8c0-3.1,0.3-5.5,1-8.1h-0.2c-2.6,5.9-7.2,9.1-14.3,9.1
			c-9.3,0-17.1-6.7-17.1-19.2c0-11.5,5.6-24.8,23.5-24.8c1.9,0,4.7,0.3,6.9,1L2096.9,3368.9L2096.9,3368.9z M2096.6,3390.2
			c-1.5-0.8-4.7-1.5-7.2-1.5c-8.1,0-11.2,6.4-11.2,13c0,6.6,3.1,12.2,8.6,12.2c6,0,9.7-5.3,9.7-11.7L2096.6,3390.2L2096.6,3390.2z"
			/>
	</g>
</g>
</svg>
