<svg width="791px" height="115px" viewBox="404 862 791 115" version="1.1" xmlns="http://www.w3.org/2000/svg" xmlns:xlink="http://www.w3.org/1999/xlink">
    <!-- Generator: Sketch 42 (36781) - http://www.bohemiancoding.com/sketch -->
    <desc>Created with Sketch.</desc>
    <defs></defs>
    <g id="Group" stroke="none" stroke-width="1" fill="none" fill-rule="evenodd" transform="translate(404.000000, 862.000000)">
        <g transform="translate(0.000000, 7.000000)" id="Shape" fill-rule="nonzero" fill="#689F38">
            <path d="M110.6,24.8 C103.6,24.8 97.1,31.2 97.1,54.7 C97.1,56.7 97.1,58.6 97.2,60.4 L120.4,32.2 C117.8,26.3 114.2,24.8 110.6,24.8 Z"></path>
            <path d="M99.4,74.4 C101.6,80.5 105.2,82.9 110.4,82.9 C116.8,82.9 123.5,77.2 123.5,53.8 C123.5,50.7 123.4,48 123.2,45.5 L99.4,74.4 Z"></path>
            <path d="M202.7,0.3 L8,0.3 C3.8,0.3 0.4,3.7 0.4,7.9 L0.4,100.3 C0.4,104.5 3.8,107.9 8,107.9 L202.7,107.9 C206.9,107.9 210.3,104.5 210.3,100.3 L210.3,7.9 C210.3,3.8 206.9,0.3 202.7,0.3 Z M76.1,94.1 L15.4,94.1 L15.4,83.1 C24.1,77 57,51.9 57,35.9 C57,27.6 50.5,24.9 45.7,24.9 C37.4,24.9 32.7,30.9 31.9,38.4 L15.8,38.4 C15.8,29.2 22.1,11.8 46.3,11.8 C58.6,11.8 73.6,17.9 73.6,35.1 C73.6,51.3 57.5,66.1 38.1,81.5 L38.1,81.7 C40.7,81.4 43.8,81 46.4,81 L76,81 L76,94.1 L76.1,94.1 Z M109.2,96 C93.6,96 79.6,87 79.6,56 C79.6,22.5 95.2,11.7 111.8,11.7 C129.3,11.7 141,25.7 141,53.8 C140.9,82.5 126,96 109.2,96 Z M196.8,94.1 L148.8,94.1 L148.8,82.4 L164.3,82.4 L164.3,30.2 C162.9,31.3 161.8,32.4 160.3,33.4 L149,40.8 L145.6,30.9 L168.8,13.8 L181.1,13.8 L181.1,82.5 L196.8,82.5 L196.8,94.1 L196.8,94.1 Z"></path>
        </g>
        <g transform="translate(245.000000, 0.000000)" id="Shape" fill-rule="nonzero" fill="#000000">
            <path d="M69.9,77 L88.1,77 L87.2,108.2 C76.2,112 66.4,113.3 54.3,113.3 C20.5,113.3 0.3,93.2 0.3,61.7 C0.3,34.3 17.9,8.7 55.2,8.7 C68.1,8.7 78.7,11.2 88.6,14.6 L88.6,42.8 L70.4,42.8 L70.4,26.6 C65.3,24.9 61.3,24.3 56.1,24.3 C31.8,24.3 23.2,41.9 23.2,60.4 C23.2,75.7 29.8,96.8 57.3,96.8 C60.2,96.8 65.5,96.5 69.1,95.4 L69.9,77 Z"></path>
            <path d="M111.4,50.7 L101.6,50.7 L101.6,36 L130.9,36 C130.9,41.2 130.6,46.3 129.6,53.3 L129.9,53.3 C132.9,40.6 140,34.2 151.6,34.2 C154.1,34.2 156.1,34.6 158.2,35.1 L156.9,53.2 C154.7,52.8 152.4,52.5 150.4,52.5 C139.4,52.5 131.6,60 131.6,72.4 L131.6,96.8 L141.1,96.8 L141.1,111.5 L103.1,111.5 L103.1,96.8 L111.3,96.8 L111.4,50.7 L111.4,50.7 Z"></path>
            <path d="M183.9,78.3 C184.5,90.3 193.7,97.7 207.9,97.7 C217.6,97.7 223.8,96.1 232.3,92.5 L231.3,108.5 C221.9,112 213.7,113.3 203.4,113.3 C174.2,113.3 162,95.1 162,74.2 C162,50.7 176.3,34.3 200,34.3 C226,34.3 236.5,53.9 236.5,78.3 L183.9,78.3 L183.9,78.3 Z M214.5,64.4 C214.5,54 208.6,48.1 199.2,48.1 C190,48.1 184.6,54.2 183.7,64.4 L214.5,64.4 Z"></path>
            <path d="M293.4,63.4 C293.4,52 288.6,49 279.1,49 C276.2,49 270,49.9 266.5,51.2 L266.5,61.3 L249.2,61.3 L249.2,42.1 C254.1,39.4 266,34.3 279.4,34.3 C299.6,34.3 312.5,41.4 312.5,63.3 C312.5,75.7 312.1,86.1 311.8,96.8 L320.3,96.8 L320.3,111.5 L294.9,111.5 L294.9,106.9 C294.9,102 295.2,99.4 295.9,96.5 L295.6,96.5 C290.5,107.9 283.6,113.3 270.9,113.3 C253.9,113.3 245.6,103.2 245.6,91.4 C245.6,80.6 252.8,73.5 260.8,70.6 C268.5,67.9 278.7,67.1 293.4,67.1 L293.4,63.4 L293.4,63.4 Z M287.4,79.4 C270.9,79.4 265.7,82.9 265.7,89.4 C265.7,93.9 268.9,98.5 276.8,98.5 C284.9,98.5 293,93.3 293,79.4 L287.4,79.4 Z"></path>
            <path d="M334.8,20.4 L355,19.2 L355,36 L375.2,36 L375.2,50.7 L355,50.7 L355,84.3 C355,95 357.7,97.6 366.1,97.6 C368.8,97.6 372.2,96.7 375.9,95.3 L375.2,109.6 C367.7,112.2 362.5,113.2 357.6,113.2 C342.7,113.2 334.8,106.3 334.8,93 L334.8,50.7 L324.5,50.7 L324.5,36 L334.8,36 L334.8,20.4 L334.8,20.4 Z"></path>
            <path d="M401.6,78.3 C402.2,90.3 411.4,97.7 425.6,97.7 C435.3,97.7 441.5,96.1 450,92.5 L449,108.5 C439.6,112 431.4,113.3 421.1,113.3 C391.9,113.3 379.7,95.1 379.7,74.2 C379.7,50.7 394,34.3 417.7,34.3 C443.7,34.3 454.2,53.9 454.2,78.3 L401.6,78.3 L401.6,78.3 Z M432.2,64.4 C432.2,54 426.3,48.1 416.9,48.1 C407.7,48.1 402.3,54.2 401.4,64.4 L432.2,64.4 Z"></path>
            <path d="M517.1,15.2 L505.5,15.2 L505.5,0.5 L537.3,0.5 L537.3,96.8 L546,96.8 L546,111.5 L517.6,111.5 C517.6,106 518.2,101.7 519.3,96.9 L519,96.9 C514.4,107.4 506,113.2 493.3,113.2 C476.7,113.2 462.5,101.2 462.5,78.7 C462.5,58.1 472.5,34.2 504.7,34.2 C508.2,34.2 513.1,34.8 517.1,35.9 L517.1,15.2 L517.1,15.2 Z M516.5,53.4 C513.8,52 508.1,50.7 503.6,50.7 C489,50.7 483.5,62.3 483.5,73.9 C483.5,85.7 489.1,95.8 499,95.8 C509.7,95.8 516.5,86.3 516.5,74.7 L516.5,53.4 Z"></path>
        </g>
    </g>
</svg>
