<?xml version="1.0" encoding="UTF-8"?>
<svg width="33px" height="87px" viewBox="0 0 33 87" version="1.1" xmlns="http://www.w3.org/2000/svg" xmlns:xlink="http://www.w3.org/1999/xlink">
    <title>9D4D6064-9E20-41A2-918E-8BC8CFF1AA5C@1x</title>
    <g id="Symbols" stroke="none" stroke-width="1" fill="none" fill-rule="evenodd">
        <g id="2021-/-motif-/-laurel-left" fill="#FCB169" fill-rule="nonzero">
            <g id="laurel-left">
                <path d="M18.5987637,81.44375 C19.7697802,81.6370192 20.8561813,82.0466346 21.9017857,82.5875 C22.9896978,83.0966346 23.9793956,83.7860577 24.8240385,84.6759615 C23.0138736,86.2884615 20.6582418,86.9980769 18.1968407,86.6980769 C16.9427198,86.5725962 15.7596154,86.1269231 14.6717033,85.4259615 C13.6817033,84.8054808 12.7528984,83.9922356 11.9568867,83.0188207 L11.6965659,82.6884615 C13.751511,81.3701923 16.2793956,81.05 18.5987637,81.44375 Z M29.4068681,71.2495192 C30.0037088,72.0110577 30.3603022,72.8764423 30.5159341,73.8168269 C30.659478,74.7658654 30.6262363,75.7740385 30.5008242,76.7418269 C30.1895604,78.7120192 29.1635989,80.8264423 27.3534341,82.4389423 C26.5571429,81.5966346 25.984478,80.6346154 25.6520604,79.6408654 C25.3619505,78.6139423 25.3740385,77.5105769 25.578022,76.4850962 C25.9980769,74.4125 27.3519231,72.5677885 29.4068681,71.2495192 Z M12.7192308,71.6367308 C13.8434066,72.0082692 14.7635989,72.5965385 15.7548077,73.2373077 C16.607677,73.8200427 17.3542922,74.5197768 17.9596329,75.3469099 L18.1799451,75.6630769 C16.0826923,76.8342308 13.6364011,77.0805769 11.2898352,76.3765385 C8.86771978,75.7263462 6.95178571,73.9332692 5.70975275,71.5896154 C7.99134615,70.7334615 10.5313187,70.8748077 12.7192308,71.6367308 Z M25.3903846,64.1359615 C26.2712912,65.7176923 25.9826923,67.6157692 25.3601648,69.3455769 C24.645467,71.1009615 23.2070055,72.8684615 21.1097527,74.0396154 L21.1097527,74.0396154 L20.9177452,73.7336618 C20.4296025,72.911123 20.1324786,72.0378846 20.0263736,71.1763462 C19.8752747,70.2192308 20.1729396,69.1813462 20.5657967,68.2834615 C21.4043956,66.4526923 23.1087912,64.9921154 25.3903846,64.1359615 Z M8.15320513,60.3558761 C10.0079487,61.5489316 11.7285256,63.2155983 12.5335256,65.394765 C10.2792308,66.2100427 7.88782051,66.0280983 5.79570513,64.9003205 C3.71084359,63.8536538 2.25237467,61.8418672 1.54160928,59.3872005 L1.45666667,59.0780983 C3.82153846,58.6114316 6.22179487,59.2003205 8.15320513,60.3558761 Z M21.8662179,54.9836538 C22.3557051,56.7489316 21.7173077,58.6142094 20.7457051,60.2600427 C19.685641,61.9142094 17.9341026,63.4530983 15.6798077,64.2683761 L15.6798077,64.2683761 L15.589607,64.0095078 C14.935689,62.0223619 15.1490999,59.9844062 16.3712821,58.3405983 C17.5610897,56.632265 19.5013462,55.4503205 21.8662179,54.9836538 Z M7.1942452e-14,46.8653846 C2.41647436,46.8278846 4.65307692,47.8735577 6.31467949,49.4096154 C7.89519231,50.9701923 9.25455128,52.9879808 9.59512821,55.3605769 C7.21698718,55.7716346 4.90814103,55.1399038 3.08435897,53.6024038 C1.25568205,52.1485577 0.21916759,49.8293823 0.0204702359,47.1961363 L7.1942452e-14,46.8653846 Z M20.8621795,46.4759615 C20.9801282,48.3697115 19.9908333,50.1538462 18.6992949,51.6538462 C17.3222436,53.1451923 15.2905769,54.3870192 12.9124359,54.7980769 C12.5910256,52.5466346 13.1910897,50.3932692 14.7892949,48.8802885 C16.3019872,47.3586538 18.4457051,46.5134615 20.8621795,46.4759615 Z M15.1033333,39.1288462 C16.884359,37.9158654 19.1533974,37.4831731 21.5330128,37.8942308 L21.5330128,37.8942308 L21.4871151,38.1739858 C21.1473021,39.9308053 19.886375,41.4030769 18.4058974,42.5759615 C16.7649359,43.7860577 14.5283333,44.6283654 12.1133333,44.5908654 C12.2386538,42.3206731 13.2412179,40.3173077 15.1033333,39.1288462 Z M0.974551282,34.4081731 C3.35416667,34.8192308 5.3475,36.2600962 6.68179487,38.0774038 C7.86970696,39.8150412 8.78481249,41.9229036 8.75974154,44.1866928 L8.74884615,44.5274038 C6.33384615,44.4899038 4.19012821,43.4413462 2.69807692,41.5951923 C1.18361538,39.8298077 0.612139692,37.3599308 0.930168689,34.7368201 L0.974551282,34.4081731 Z M18.2019872,30.2977564 C20.1879487,29.4713675 22.5012179,29.4713675 24.7569872,30.2880342 C24.1348077,32.0144231 22.5469231,33.2588675 20.7762179,34.1463675 C18.9288462,34.9949786 16.5698718,35.3922009 14.205,34.9255342 C14.7741026,32.8047009 16.1364103,31.0852564 18.2019872,30.2977564 Z M5.25269231,23.3005342 C7.50846154,24.1172009 9.18185897,25.8380342 10.1357692,27.7935897 C11.0012179,29.7422009 11.5098718,32.0269231 10.9127564,34.265812 C8.54788462,33.7991453 6.64891026,32.4255342 5.54314103,30.4102564 C4.35333333,28.3894231 4.30762821,25.8227564 5.25269231,23.3005342 Z M21.0232143,20.0353147 C23.1990385,19.5553322 25.5289835,20.0055944 27.6277473,21.2984266 C27.1260989,22.1439685 26.426511,22.8156469 25.5758242,23.3416958 C24.6934066,23.8499126 23.8653846,24.319493 22.8167582,24.5750874 C20.7784341,25.1070804 18.3200549,25.0684441 16.0384615,24.1233392 C17.073489,22.0161713 18.7688187,20.4573427 21.0232143,20.0353147 Z M9.46565934,10.190472 C11.5644231,11.4833042 12.8850275,13.6127622 13.4304945,15.8477273 C13.8837912,18.0559441 13.9517857,20.5717657 12.8638736,22.7963287 C10.5822802,21.8512238 8.95947802,20.0427448 8.27046703,17.7141608 C7.95315934,16.5684441 7.74766484,15.2414336 8.00755495,13.9872378 C8.23571429,12.7181818 8.72225275,11.4179196 9.46565934,10.190472 Z M26.7189349,12.1947115 C28.9127219,12.1427885 31.0769231,12.9980769 32.8491124,14.6105769 L32.8491124,14.6105769 L32.6254616,14.8397851 C32.0139893,15.4315705 31.2830375,15.86875 30.4585799,16.1725962 C29.5754438,16.5475962 28.6360947,16.8 27.5902367,16.8620192 C25.5207101,16.9918269 23.1612426,16.5014423 21.1494083,15.1831731 C21.8387574,14.2716346 22.6967456,13.5375 23.637574,13.0182692 C24.5680473,12.4918269 25.5976331,12.1961538 26.7189349,12.1947115 Z M17.4940828,0.734134615 C19.2662722,2.34663462 20.1286982,4.60673077 20.2174556,6.825 C20.2322485,7.91538462 20.1390533,9.075 19.862426,10.1971154 C19.6073307,11.1855769 19.1886003,12.1330128 18.5864948,13.0120726 L18.352071,13.3384615 C16.3402367,12.0201923 15.1301775,10.0052885 14.9201183,7.66875 C14.8210059,6.51201923 14.9319527,5.25144231 15.3565089,4.05721154 C15.8210059,2.89903846 16.5414201,1.75817308 17.4940828,0.734134615 Z" id="Combined-Shape"></path>
            </g>
        </g>
    </g>
</svg>