<?xml version="1.0" encoding="UTF-8"?>
<svg width="11.500133px" height="12.750266px" viewBox="0 0 11.500133 12.750266" version="1.1" xmlns="http://www.w3.org/2000/svg" xmlns:xlink="http://www.w3.org/1999/xlink" preserveAspectRatio="none">
    <title>Line Copy</title>
    <g id="Web" stroke="none" stroke-width="1" fill="none" fill-rule="evenodd">
        <g id="DT---Home-/-step-1-+-footer" transform="translate(-614.874867, -1043.083454)" fill="#08175E" fill-rule="nonzero">
            <g id="Group-22" transform="translate(174.500000, 1022.000000)">
                <g id="Group-21" transform="translate(449.500000, 0.000000)">
                    <path id="Line-Copy" d="M-8.00730407,21.179905 L1.99269593,26.804905 C2.50243469,27.091633 2.50243469,27.8255402 1.99269593,28.1122683 L-8.00730407,33.7372683 C-8.36832248,33.9403411 -8.8256088,33.812301 -9.02868165,33.4512826 C-9.23175451,33.0902641 -9.10371434,32.6329778 -8.74269593,32.429905 L-0.630316793,27.8652014 C-0.706042325,27.7480566 -0.75,27.608455 -0.75,27.4585866 C-0.75,27.3084342 -0.705875563,27.1685876 -0.629885941,27.0513061 L-8.74269593,22.4872683 C-9.07362947,22.3011182 -9.20879657,21.9013581 -9.07260847,21.5579481 L-9.02868165,21.4658907 C-8.8256088,21.1048723 -8.36832248,20.9768321 -8.00730407,21.179905 Z"></path>
                </g>
            </g>
        </g>
    </g>
</svg>