<svg width="768" height="501" xmlns="http://www.w3.org/2000/svg" xmlns:xlink="http://www.w3.org/1999/xlink"><defs><path id="a" d="M0 0H901.8V501H0z"/></defs><g transform="translate(-134)" fill="none" fill-rule="evenodd"><mask id="b" fill="#fff"><use xlink:href="#a"/></mask><use fill-opacity="0" fill="#F7F7F7" xlink:href="#a"/><g opacity=".3" mask="url(#b)" stroke="#E27E6F" stroke-width="2"><g transform="translate(-128.381 -317.509)"><path d="M51.666 516.03L51.666 631.886"/><path d="M167.835 980.394L283.691 980.394"/><path d="M284.317 980.394L400.174 980.394"/><path d="M864.225 51.666L748.369 51.666"/><path d="M980.394 980.081L980.394 864.225"/><path d="M51.666 864.225L51.666 748.369"/><path d="M51.666 632.513L51.666 748.369"/><path d="M748.369 51.666L632.513 51.666"/><path d="M632.513 51.666L516.656 51.666"/><path d="M51.352 980.394L167.835 980.394"/><path d="M980.488 516.03c0-38.619-.188-115.856-.188-115.856"/><path d="M980.394 748.369L980.394 632.513"/><path d="M980.3 631.886s.188-77.237.188-115.856M400.174 980.394H516.03"/><path d="M980.394 864.225L980.394 748.369"/><path d="M980.394 399.548L980.394 283.691"/><path d="M748.369 980.394L632.513 980.394"/><path d="M516.656 980.394h115.857"/><path d="M980.394 167.835L980.394 283.691"/><path d="M980.707 51.666L864.851 51.666"/><path d="M864.225 980.394L980.081 980.394"/><path d="M284.317 51.666L400.174 51.666"/><path d="M51.666 51.979L51.666 167.835"/><path d="M51.666 167.835L51.666 283.691"/><path d="M864.225 980.394L748.369 980.394"/><path d="M980.394 51.979L980.394 167.835"/><path d="M167.835 51.666L51.352 51.666"/><path d="M51.666 980.081L51.666 864.225"/><path d="M516.03 51.666L400.174 51.666"/><path d="M51.666 283.691L51.666 399.548"/><path d="M51.666 399.548L51.666 516.03"/><path d="M167.835 51.666L283.691 51.666"/><path d="M99.574 411.446c.907 34.84 1.814 69.744 1.879 104.584M98.32 725.198s.358-69.68 1.253-104.584M624.37 934.052H522.293"/><path d="M202.905 98.008L307.489 98.008"/><path d="M98.321 934.052L202.905 934.052"/><path d="M98.008 97.695L98.008 202.279"/><path d="M307.489 98.008H413.95"/><path d="M829.781 934.052L934.365 934.052"/><path d="M98.321 306.863s.33 69.7 1.253 104.583M934.13 306.862c-.314-34.86-.063-104.583-.063-104.583m-626.58 731.773h107.09M101.452 516.03c0 34.861-.835 69.723-1.88 104.584M414.579 934.02c36.336 0 72.284 0 107.715.062"/><path d="M202.905 934.052L307.489 934.052"/><path d="M829.781 934.052H725.198M623.745 98.008H521.04"/><path d="M933.739 98.008L829.781 98.008"/><path d="M725.197 98.008H623.12"/><path d="M829.781 98.008L725.197 98.008"/><path d="M98.008 725.197L98.008 829.781"/><path d="M933.739 306.863c.332 34.86 2.524 69.722 4.383 104.583"/><path d="M98.008 202.279L98.008 306.863"/><path d="M413.951 98.008H521.04"/><path d="M934.052 98.321L934.052 202.905"/><path d="M934.052 933.739L934.052 829.155"/><path d="M98.008 933.739L98.008 829.155"/><path d="M941.254 516.03c-.062-34.84-1.412-69.68-3.132-104.584m-3.757 313.751c.451-34.882 2.643-69.765 4.384-104.583M725.197 934.02c-34.102 0-67.56 0-100.826.062m314.378-313.47c1.797-34.882 3.195-69.765 3.129-104.583"/><path d="M202.905 98.008L98.321 98.008"/><path d="M934.096 829.781s-.376-69.722.062-104.583m-24.217-303.106c3.343 31.292 5.505 62.647 5.636 93.938"/><path d="M234.218 139.967L139.654 139.967"/><path d="M798.469 892.093h93.937"/><path d="M139.967 139.654L139.967 233.591"/><path d="M150.3 422.092c2.603 31.522 4.315 63.043 4.384 94.564M709.54 139.904c-28.282.063-56.565.063-85.17.126M536.07 892.124c-32.245 0-65.523 0-99.574-.062m97.069-752.064c31.261 0 61.487 0 90.806-.062"/><path d="M892.406 139.967L799.095 139.967"/><path d="M910.567 609.967c3.144-31.269 5.133-62.603 5.005-93.937m-16.277 187.875c3.693-31.356 8.033-62.582 11.273-93.938M332.538 892.03c34.503.063 69.327.063 103.958.126m-285.57-282.188c2.328-31.313 3.88-62.625 3.75-93.938m79.542 376.032s64.383 0 98.32.062"/><path d="M139.654 892.093L234.218 892.093"/><path d="M139.654 233.591s.366 62.668 2.505 93.938m656.31 564.533c-30.576 0-59.859 0-88.302.062m88.302-752.188s-60.293 0-88.928.062"/><path d="M892.093 139.654L892.093 233.591"/><path d="M142.785 703.905c-2.45 31.291-3.131 93.938-3.131 93.938"/><path d="M139.967 892.406L139.967 798.469"/><path d="M898.669 328.155c-3.515-31.291-6.263-93.937-6.263-93.937M150.3 609.967c-2.236 31.334-5.28 62.603-7.515 93.937M710.794 892.03c-28.03.063-56.125.063-84.544.126m283.691-470.063c-3.285-31.334-7.665-62.604-11.272-93.938M626.25 892.688c-29.028 0-59.023.063-90.18.063m356.336-94.909c.26-31.333 3.185-62.667 6.889-93.937m-665.077-563.97s63.618 0 97.068.063m103.332-.062c34.01 0 67.309.062 99.573.062M142.785 328.155c2.112 31.313 5.155 62.625 7.515 93.938m180.986-282.189c34.315 0 68.888.063 103.332.126m457.53 752.376s-.25-62.625 0-93.937m-687.99-366.983c3.42 28.369 5.51 56.737 5.636 85.17m644.411 338.175s1.953-56.491 6.262-84.543m-224.823 84.825c-25.18.063-51.649.063-79.534.063M854.205 177.51s-53.955 0-78.908.062m-222.318 0c28.033 0 54.71 0 80.16-.062m-455.907-.282s-.208 56.362 2.502 84.543m30.054 254.884c.125 28.224-1.752 56.449-5.004 84.544m428.355-423.596c24.444-.062 48.112-.062 71.392-.125m1.253 677.603c-22.823.062-46.096.125-70.14.125m139.654-677.728c-24.19.063-47.671.063-70.767.125M891.78 431.486c-4.394-28.224-10.338-56.32-16.283-84.543m23.172 169.713c-.125-28.202-2.693-56.47-6.889-84.543M204.158 601.2c-3.34 28.224-7.965 56.384-12.525 84.544m170.966-508.265c33.24.063 66.351.125 98.947.125m413.951 169.338c-5.927-28.16-11.661-56.255-15.656-84.543M460.92 177.51c31.871.062 62.58.062 92.059.062m-373.245 84.2c2.498 28.224 6.725 56.383 11.272 84.543m1.253 339.428c-4.668 28.16-9.138 56.255-11.899 84.543m680.107 0c4.268-28.288 10.243-56.384 16.283-84.543m0 0c6.04-28.16 12.015-56.32 16.283-84.544M556.11 855.176c-29.397 0-60.148-.063-92.059-.063m-273.045-508.17c4.428 28.202 9.11 56.276 12.525 84.543m-26.302 423s57.515 0 88.301.063m0-.093c31.933.062 64.836.062 98.321.125m-98.947-677.102c31.518 0 64.003.063 97.069.125m-97.07-.062H177.23m676.976.313s1.494 56.427 5.636 84.544m-395.79 592.213c-32.74-.063-66.125-.125-99.573-.188m534.186-337.768c.125 28.182-2.19 56.492-6.258 84.544M775.924 854.424c-23.963.063-47.214.125-70.14.188m-527.929.22s.058-56.385 2.505-84.544m595.564 84.261c24.857-.062 78.907-.062 78.907-.062M259.267 593.059c-3.978 25.366-9.56 50.539-15.656 75.776m21.913-152.179c.134 25.49-2.13 51.043-6.257 76.403m-15.656 75.776c-6.14 25.259-12.667 50.453-18.161 75.776m16.909-380.76c6.187 25.403 12.049 50.87 16.282 76.403m0-.627c4.224 25.612 6.759 51.353 6.889 77.03M841.054 744.61c7.017-25.366 15.008-50.474 22.545-75.776m-98.948 151.96c19.115-.063 39.004-.126 60.12-.188m-.626-609.342c-21.239.063-41.444.063-60.746.188m-56.363.627c18.745-.063 37.36-.126 56.363-.188m-539.202 75.557c5.423 25.532 11.89 50.935 18.162 76.402M709.54 821.452c18.306-.063 36.548-.125 55.11-.25m-367.608-609.31c32.081.062 63.71.125 94.563.188m88.302 609.31c-26.903 0-55.293-.063-85.17-.126m330.033-.876c3.626-25.41 9.414-50.625 16.283-75.777M576.15 212.017c25.131 0 48.656 0 70.766-.063m62.625 609.279c-18.786.063-38.28.125-58.867.188m-437.749-.783c28.77 0 58.959.063 90.18.125m586.796-304.107c-.192-25.467-3.14-51.064-8.141-76.402m0 .626c-5.045-25.554-12.006-50.978-19.414-76.402M301.852 211.265c31.551.063 63.555.126 95.817.188m464.677 153.025c-7.645-25.468-15.618-50.871-22.545-76.403M399.547 821.421c-32.405-.063-64.681-.125-96.442-.188m188.501-609.279c29.533.063 57.778.063 84.544.063m-363.225 608.37c2.373-25.323 6.922-50.581 12.525-75.776m-13.151-533.565c2.115 25.49 6.478 50.978 11.898 76.403m658.816 305.61c4.914-25.317 7.704-50.892 7.505-76.403m-26.92 152.179c7.518-25.152 14.512-50.367 19.415-75.776m-236.097-380.98c20.99-.062 40.944-.125 60.12-.187M494.738 821.42c-30.999-.063-62.836-.125-95.19-.188m251.126.063c-22.038.062-45.562.062-70.766.062m244.237-609.685c3.373 25.553 8.974 51.042 15.656 76.402m-537.949-76.653c-30.802-.063-60.509-.125-88.927-.125m643.785 168.21c-8.651-23.048-18.083-45.903-26.929-68.887M313.125 585.544c-4.288 22.861-10.56 45.594-17.535 68.261m582.413-205.41c-5.594-23.135-13.334-46.011-21.92-68.887M715.804 242.17c15.057-.063 29.793-.188 44.465-.25m-418.336 0c30.831.062 61.79.187 92.685.25M253.632 790.515c29.407.063 59.784.126 90.806.25m-70.766-68.699c7.472-22.775 15.398-45.421 22.545-68.261m511.646 136.523c6.736-22.883 15.01-45.572 23.798-68.262M601.826 242.703c22.742 0 43.804 0 63.251-.062m-370.74 136.24c7.099 22.855 13.557 45.774 18.162 68.888m122.118-205.222c30.459.062 60.144.188 88.928.25M886.77 517.283c-.192-22.985-3.392-46.098-8.767-68.888M523.544 242.609c27.625.063 53.762.063 78.281.125m160.32 548.032c14.452-.063 29.418-.188 45.09-.25M341.933 242.14c-30.627-.063-60.543-.188-89.554-.188m507.889.219c14.683-.063 29.814-.188 45.716-.25M438.375 790.765c-31.313-.063-62.69-.188-93.938-.25m324.398.72c-19.18.062-40.034.062-62.625.062m62.625.063c17.646-.063 34.01-.125 49.474-.188m-53.231-548.407c18.074-.063 34.854-.125 50.726-.188M320.009 517.282c.124 22.797-2.107 45.594-6.258 68.262M606.21 791.33c-24.459 0-50.596-.063-78.281-.126m330.034-137.399c8.439-22.625 16.034-45.314 21.292-68.261M312.499 447.769c4.664 23.042 7.385 46.342 7.515 69.514m486.596-275.55c6.493 23.091 14.514 45.989 23.171 68.887M527.93 791.392c-28.93-.063-58.888-.125-89.554-.25m-184.744-.815c5.347-22.882 12.158-45.571 19.414-68.26m606.21-136.523c5.004-22.561 7.693-45.443 7.506-68.261m-634.382-275.55c5.277 23.048 12.052 45.968 19.414 68.887M831.66 722.066c8.933-22.775 18.322-45.421 26.929-68.261M271.792 310.62c7.363 22.984 15.313 45.903 22.546 68.887m467.808 411.008c-14.418.063-28.966.188-43.837.25m-156.563-26.928c-27.126-.063-55.415-.125-84.543-.25m-89.554-.345c-30.326-.125-60.263-.188-89.554-.313m499.747-493.015c8.824 20.816 18.686 41.375 28.808 61.999m-506.01-.627c8.565 20.71 17.258 41.225 25.05 61.999m542.332 123.998c-.197-20.71-3.612-41.549-9.393-62m-112.725 307.96c10.992-.126 22.243-.189 33.817-.314m-68.261.689c-12.806.063-26.707.188-41.959.188m73.898-494.08c11.223-.125 22.64-.188 34.443-.25m-112.725.845c15.457-.063 29.566-.125 42.586-.188M879.88 578.655c5.417-20.243 8.39-40.872 8.125-61.372M633.765 764.369c20.379 0 38.958 0 55.736-.062M347.57 640.027c-7.748 20.587-16.399 40.915-25.05 61.373m154.683 62.468c-29.658-.125-59.573-.187-89.553-.313m-3.132-493.83c-29.886-.124-59.45-.187-88.3-.25m0-.188c7.45 20.775 15.807 41.355 24.423 62m445.264 432.268c-11.074.126-22.47.188-34.444.313M556.736 270.164c25.582.063 49.675.125 72.019.125m250.5 185.621c-5.793-20.86-13.994-41.462-23.171-61.999M799.72 763.4c8.874-20.565 18.777-40.937 28.808-61.373M384.517 270.07c29.75.126 59.5.188 88.928.313M298.095 763.4c7.48-20.565 15.92-40.937 24.424-61.373m50.715-184.743c.197 20.478-2.292 41.086-6.878 61.372M828.53 702.026c10.114-20.436 20.292-40.743 29.433-61.372M628.755 270.258c20.53 0 39.254 0 56.362-.062M633.765 764.4c-22.284 0-46.376-.063-72.019-.125m-88.301-494.174c28.921.062 56.937.188 83.917.25m298.722 123.56c-9.21-20.753-19.387-41.312-29.434-62M365.104 454.659c5.005 20.745 7.94 41.75 8.141 62.625m484.717 123.37c8.857-20.285 16.567-40.7 21.92-61.372m-152.18-308.898c12.374-.062 24.165-.187 35.697-.313M366.356 578.655c-4.535 20.609-11.143 41.088-18.787 61.373m-1.879-246.743c7.714 20.537 14.592 41.203 19.414 61.999m62.625-160.477c-28.858-.125-57.521-.188-85.796-.313m89.553 444.324c-29.274-.125-58.355-.25-87.048-.313m402.678.69a3043.06 3043.06 0 0 1-35.696.187m85.17-445.044c10.215 18.643 21.142 37.157 31.939 55.736m30.686 56.362c-9.635-18.729-20.376-37.2-31.313-55.736m54.484 111.473c-5.793-18.773-13.877-37.352-23.171-55.737m-84.544 333.009c8.099-.126 16.198-.25 24.424-.313m-51.979.313c9.595-.063 18.486-.188 26.929-.313m-375.75-111.003c-7.955 18.477-17 36.761-26.303 55.11m-27.555 55.11c8.887-18.413 18.285-36.762 27.555-55.11m398.922-388.432c8.537-.125 17.009-.188 25.676-.313m2.505 444.481c10.303-18.434 21.185-36.74 31.939-55.11M396.416 405.81c8.08 18.45 15.063 37.028 20.04 55.736M711.42 739.883c-14.933.063-31.611.063-50.1.063M424.587 517.909c.196 18.578-2.293 37.351-6.878 55.736m177.855 166.207c23.59.062 45.573.125 65.756.125m-71.393-444.763c23.508.063 45.47.125 65.757.125m175.35 388.526c10.788-18.284 21.319-36.568 30.686-55.11M742.732 295.433c9.996-.062 19.282-.187 28.182-.313M861.72 628.13c9.173-18.134 17.119-36.526 22.545-55.11M595.564 739.413c-25.142-.062-51.574-.125-78.908-.25m-100.2-277.617c5.056 18.637 7.945 37.597 8.142 56.363m459.667 55.11c5.417-18.341 8.39-37.136 8.125-55.736M341.933 294.337c8.84 18.665 18.262 37.136 27.555 55.737m0 0c9.389 18.535 18.647 37.007 26.928 55.736M706.41 295.37c13.412-.062 25.477-.124 36.322-.187m-86.422.125c18.434 0 35.134 0 50.1-.062m-194.137-.094c27.127.125 53.285.188 78.28.25m-162.824-.908c28.482.125 56.707.188 84.544.313M892.406 517.91c-.259-18.6-3.628-37.33-9.393-55.736M417.709 573.019c-4.522 18.52-11.082 36.912-18.788 55.11m117.735 111.316c-27.982-.126-56.48-.188-85.17-.313m-43.211-422.25c9.703 16.765 19.666 33.336 29.434 50.1m364.477-49.63c6.16-.125 12.192-.188 18.161-.313m65.13 100.67c-9.521-16.893-20.257-33.464-31.312-50.1m55.11 100.2c-5.745-16.936-13.852-33.615-23.171-50.1m-65.757-100.827c11.122 16.93 22.567 33.796 33.818 50.727m-105.836-49.693c11.75-.063 22.144-.125 31.312-.188M464.678 467.182c4.99 16.78 7.944 33.818 8.14 50.727m216.057 200.15c-18.567 0-38.815-.063-60.746-.126M390.78 716.43c9.725-16.513 19.773-32.897 29.434-49.474m50.1-349.917c26.919.125 53.516.25 79.533.313m318.135 300.13c9.226-16.234 17.153-32.725 22.546-49.473m0 0c5.061-16.441 7.748-33.336 7.499-50.1m-343.17 199.335c25.517.125 50.005.188 73.272.25m-154.058-.563c-27.85-.125-55.699-.25-83.291-.376m56.363-99.072c-8.073 16.85-17.307 33.443-26.93 50.1M898.67 517.909c-.261-16.722-3.653-33.637-9.394-50.1M554.857 717.526c-26.454-.125-53.426-.188-80.786-.313m285.57-399.235c8.21-.062 15.704-.187 22.545-.313m3.758 399.548c-6.433.125-13.445.25-21.293.313m-214.803-399.83c25.245.126 49.524.188 72.644.251m180.987 399.11c11.143-16.535 22.674-32.94 33.817-49.475m-392.659-250.5c8.081 16.55 15.063 33.228 20.04 50.1M683.24 317.853c16.747 0 31.756 0 45.09-.062M465.93 568.009c-4.504 16.707-11.067 33.22-18.788 49.473m338.802 100.044c5.93-.125 11.732-.25 17.535-.313m-385.77-350.23c9.572 16.656 18.76 33.249 26.928 50.1m392.66 249.873c11.108-16.405 21.892-32.81 31.312-49.474m-398.295-300.13c-27.454-.125-54.843-.25-82.039-.313m84.532 200.87c.202 16.743-2.225 33.55-6.877 50.1m156.562-250.25c21.848.063 42.14.125 60.747.125m50.726 400.206c11.613-.063 21.798-.126 30.686-.188m-30.686.062c-13.07.063-27.87.063-44.464.063m-35.07-379.602c19.889.063 38.301.126 55.11.126m-245.49 43.462c9.618 14.965 18.85 29.866 26.929 45.09m224.824 270.884c15.118 0 28.435 0 40.08-.063M494.11 607.462c-7.935 15.247-17.172 30.169-26.928 45.09m378.88 0c11.02-14.714 21.462-29.428 30.687-44.463m-167.209-269.57c15.273 0 28.799 0 40.706-.062m61.373 358.56c11.524-14.865 23.178-29.6 34.444-44.465m60.12-134.017c-.333-15.03-3.731-30.318-9.394-45.09m-405.81-46.342c7.88 14.879 14.672 29.887 19.414 45.09M876.75 608.088c8.987-14.544 16.682-29.344 21.919-44.464M782.186 697.862c-7.45.125-16.131.188-26.302.188m-40.08-.032c-16.896 0-35.54-.062-55.736-.125m-149.674-225.7c5.005 15.067 7.874 30.456 8.141 45.716m-.011.626c.191 15.052-2.042 30.232-6.251 45.09m386.396 0c5.042-14.77 7.756-30.06 7.498-45.09m-128.99-180.517c6.63-.062 12.37-.187 17.534-.313m78.908 90.024c-9.497-15.201-20.212-30.146-31.313-45.09m-34.444-45.716c11.482 15.26 23.157 30.455 34.444 45.716m54.484 90.806c-5.777-15.266-13.825-30.275-23.171-45.09M660.694 698.081c-21.614-.063-44.454-.125-68.261-.25m-75.777-.314l-79.533-.376m0-.125c10.105-14.842 20.276-29.557 30.06-44.463m49.473 44.62c25.733.125 51.078.25 75.777.313m-80.787-134.487c-4.284 15.015-10.615 29.836-18.161 44.463m301.226-270.07c4.6-.125 8.94-.188 13.151-.313m-8.767 360.72c-4.878.125-10.47.25-16.909.313m16.909-.626c4.37-.125 8.48-.25 12.525-.313m-61.373-359.217c10.308-.063 19.263-.125 26.93-.188m-264.904-.344l-78.282-.376m78.282.657c25.356.126 50.261.25 74.523.313m-152.805-1.095c10.063 15.03 20.255 29.995 30.06 45.09m122.745-44.276c23.579.125 46.188.188 67.635.25m117.109 18.756a8562.64 8562.64 0 0 0 23.171-.188m23.172-.845c11.632 13.59 23.264 27.052 34.443 40.706m30.687 40.707c-9.245-13.762-19.709-27.202-30.687-40.707m53.231 81.413c-5.587-13.806-13.449-27.353-22.544-40.707m-330.66-81.537l-73.898-.376m407.689 244.112c8.79-13.103 16.213-26.463 21.292-40.08M690.754 680.546c-19.944-.063-41.114-.125-63.251-.25m228.58-40.895c10.856-13.21 21.068-26.483 30.06-40.08M621.867 355.898c21.932.063 42.893.188 62.625.25m229.834 162.387c-.318-13.59-3.494-27.375-8.768-40.706M478.456 355.71c10.214 13.59 20.363 27.051 30.06 40.706m43.837-40.55c23.665.126 46.943.188 69.514.314m-68.261 121.022c4.585 13.607 7.26 27.534 7.515 41.333m-23.171 80.16c-7.702 13.573-16.709 26.827-26.303 40.08m309.994 40.706c11.633-13.338 23.266-26.612 34.444-40.08M684.49 356.587c18.37.062 35.322.125 50.726.125m65.13 323.615c-6.23.062-13.68.125-22.544.188m-296.217-.909l75.15.376M809.115 356.18c3.194-.126 6.075-.188 8.768-.313m-262.4 203.374c-4.125 13.577-10.25 26.893-17.534 40.08m89.554 80.63c-23.008-.125-46.661-.188-70.767-.313M735.217 356.68c13.71 0 25.753 0 36.323-.063m42.585 323.02c-3.61.125-7.93.188-13.151.313M508.515 395.79c9.495 13.46 18.476 26.986 26.303 40.706m372.618 122.119c4.68-13.125 7.175-26.699 6.863-40.08m-379.481-82.039c7.63 13.374 14.17 26.943 18.787 40.707m137.149 203.155c18.452.063 35.36.125 50.726.125m72.645-.532c2.99-.125 5.66-.188 8.141-.313M795.338 356.18c5.371-.063 9.922-.188 13.777-.313m-31.313 324.522c-10.488.063-22.531.063-36.322.063M561.099 518.535c.268 13.612-2.014 27.354-6.242 40.706m-73.27 120.24c10.235-13.338 20.406-26.612 30.06-40.08m322.518 24.424c11.341-12.086 22.555-24.107 33.191-36.322m-38.201 36.792a82.005 82.005 0 0 0 5.01-.313m80.786-181.143c-5.307-12.555-12.724-24.85-21.292-36.949m-180.986-73.02c16.84.062 32.33.125 46.342.125m-168.461-.502c-22.978-.125-46.15-.25-69.514-.375m308.741-.125c11.51 12.273 22.89 24.546 33.818 36.948m4.383 218.562c10.412-11.935 20.249-24 28.808-36.323M575.524 445.264c7.394 11.914 13.686 24.022 18.161 36.322m0 0c4.589 12.353 7.249 25.029 7.515 37.575M589.927 372.15c22.229.125 44.004.188 65.13.313m6.263 291.833c-21.295-.126-43.3-.188-65.756-.313m328.155-145.447c-.33-12.129-3.494-24.45-8.768-36.322m-365.104-73.898c9.296 12 18.006 24.001 25.677 36.322m248.621-72.175c2.205-.062 4.043-.188 5.636-.313M818.51 664.044c-5.22.063-11.649.125-19.414.188m13.777-291.175c4.6-.063 8.293-.188 11.273-.25m5.01 291.206c-2.568.125-5.887.188-10.02.25m-223.571-.563c-23.396-.126-47.05-.25-70.766-.376m371.992-71.518c8.286-11.848 15.287-23.956 20.04-36.322M655.057 372.807c20.237.062 39.442.188 57.615.25M594.938 555.484c-3.8 12.113-9.44 23.97-16.282 35.696m220.44 73.553c-9.313.063-20.104.063-32.565.063m25.676-291.77c8.175-.063 15.042-.063 20.666-.188M766.53 664.2c-13.993 0-29.462-.063-46.342-.125M521.04 371.992c10.092 12.065 19.99 24.13 29.434 36.323m343.185 37.575c-9.025-12.51-19.283-24.762-30.06-36.949M524.797 663.825c10.137-12.064 20.078-24.129 29.434-36.322m362.599-72.02c4.72-11.85 7.247-24.15 6.848-36.322M759.015 372.963c12.576 0 23.662 0 33.191-.062M601.178 519.16c.258 12.15-1.742 24.43-5.614 36.323m-16.909 35.696c-7.333 12.323-15.9 24.387-25.05 36.323m107.715 36.51c20.465.063 39.964.188 58.241.25m123.371-277.24c11.112 11.02 22.096 22.041 32.565 33.19m51.353 131.513c4.305-10.598 6.554-21.71 6.232-32.565m-88.897 130.73c1.494-.063 2.49-.188 3.131-.313m28.181-229.364c10.382 10.934 20.179 21.933 28.808 33.191m-290.58-.626c6.917 10.662 12.746 21.517 16.909 32.565m301.852 33.817c-.32-11.129-3.333-22.388-8.141-33.191m-306.863 98.321c-6.892 11.048-15.02 21.839-23.797 32.565m153.431 33.004c-16.899-.063-34.959-.126-53.857-.25m154.057-.189c11.18-10.812 22.1-21.559 32.565-32.565M686.37 387.242c18.67.062 36.5.188 53.231.188m97.069 262.837c-4.597.062-10.442.125-17.535.188m-36.949-262.462c11.467 0 21.444 0 30.06-.062m112.725 98.665c-5.134-11.302-12.348-22.344-20.666-33.191m-59.494 196.204c-1.938.125-4.587.188-8.141.25m-204.784-.563c-21.87-.125-44.062-.25-66.382-.376m72.622-129.759c.25 10.877-1.559 21.88-4.987 32.565m-1.879-66.382c4.146 11.079 6.634 22.545 6.889 33.817m-44.464 97.695c-8.875 10.984-18.399 21.775-28.181 32.565M739.6 387.9c15.55.063 29.745.063 42.585.125m97.695 228.832c10.038-10.726 19.372-21.451 27.555-32.565m-95.19-196.235c7.317 0 13.327-.063 18.162-.188M632.513 551.726c-3.654 10.86-9.133 21.528-15.657 31.939m202.279 66.664c-8.336.063-18.148.063-29.434.063m0 .031c-12.801 0-27.017-.062-42.585-.125m-185.37-263.276c9.716 10.813 19.174 21.625 28.182 32.565m317.508 164.704c7.77-10.575 14.393-21.409 18.788-32.565m-95.817-164.265c3.695-.063 6.576-.125 8.768-.25m0 .281a37.882 37.882 0 0 0 3.758-.313m-216.683 0c20.6.125 40.683.188 60.12.313m-60.12-.626c-21.452-.125-43.226-.25-65.13-.313m28.181 33.034c8.9 10.749 17.149 21.561 24.424 32.565m18.788 197.426c20.763.125 41.076.188 60.746.313m110.846-248.778h26.929m7.515 236.073c-7.574.063-16.572.063-26.929 0m122.745-147.459c-4.886-10.045-11.635-19.835-19.414-29.433m-55.11 176.79c-1.328.125-3.416.188-6.262.25M649.42 459.042c6.631 9.618 12.278 19.43 16.283 29.434m221.692-58.241c9.902 9.89 19.282 19.845 27.555 30.06m-55.11 176.446c.867-.063 1.373-.25 1.228-.313M941.88 519.16c-.4-9.875-3.337-19.879-8.141-29.433m-87.049-88.49c3.325-.062 5.786-.125 7.515-.25M604.331 636.427c20.88.125 41.568.25 61.999.313m-62.625-.47c9.39-9.746 18.452-19.493 26.929-29.434m287.448-28.807c7.513-9.595 13.85-19.385 18.162-29.434M626.876 429.607c8.216 9.726 15.858 19.451 22.545 29.434m22.518 60.12c.27 9.833-1.481 19.794-4.983 29.434m55.736 88.145c-18.25-.063-37.08-.188-56.362-.313m105.836.876c-15.505-.062-32.039-.125-49.474-.188m138.402-.219c10.57-9.768 20.884-19.535 30.686-29.433m-291.832-207.29c9.299 9.77 18.404 19.538 26.928 29.435m137.775-28.558c14.184.063 27.147.063 38.828.126m-143.412-.533c-19.99-.125-40.303-.187-60.746-.313m336.923 148.265c3.896-9.532 5.97-19.58 5.592-29.434m-87.631-118.549c.97-.063 1.576-.125 1.879-.25m-191.006 88.113c4.187 10.078 6.618 20.414 6.888 30.686M853.58 637.147c-3.885.062-8.853.125-15.03.125m-7.515-236.096c6.364 0 11.52-.063 15.656-.125m-35.07 236.221c-11.661 0-24.604-.063-38.827-.125m-120.24-59.745c-6.372 9.984-13.827 19.773-21.92 29.434m29.434-206.474c19.097.125 37.74.188 55.737.25m175.976 206.85c9.606-9.68 18.566-19.362 26.303-29.433m-62-177.855c10.76 9.977 21.262 19.953 31.313 30.06m-171.592-29.215c17.206.063 33.51.125 48.847.188m-97.068 147.388c-3.374 9.818-8.37 19.377-14.404 28.808m97.068 48.033c-16.746-.063-34.137-.188-51.978-.25m97.695.219c-14.335-.063-29.638-.126-45.717-.188m-85.17-26.522c-7.876 8.918-16.27 17.643-25.05 26.302m288.702-52.604c7.023-8.554 12.941-17.3 16.909-26.303m-246.743 0c-3.08 8.73-7.634 17.331-13.151 25.676m162.825-158.691c5.892 0 10.672-.063 14.404-.126m5.636-.438c.5-.063.701-.188.601-.25m-233.566.438c8.732 8.746 17.146 17.428 25.05 26.302m36.322 53.232c3.745 9.035 5.94 18.327 6.263 27.555M831.66 626c-10.677 0-22.64-.063-35.696-.126m67.008-212.737c2.635-.063 4.473-.125 5.637-.25m35.07 185.808c9.109-8.639 17.632-17.277 25.05-26.303m-225.478-53.23c.26 8.997-1.3 18.126-4.356 26.928m157.189 79.833c-6.831 0-14.95.063-24.424 0M692.006 412.887c17.614.125 34.775.188 51.353.25m80.16-.125h25.05m102.705 106.776c-.389-8.998-3.11-18.192-7.515-26.93m-44.464-53.23c9.243 8.868 17.973 17.801 25.676 26.928M869.235 412.7c10.323 8.955 20.451 17.845 30.06 26.928m43.838 53.232c-4.589-9.237-10.897-18.148-18.162-26.929m-242.985-.626c6.116 8.596 11.322 17.385 15.03 26.302m248.622 54.484c3.95-8.512 5.993-17.535 5.584-26.303m-81.36 106.087a751.09 751.09 0 0 1-13.778.125M742.733 412.918c15.849.063 30.922.125 45.09.188m87.048 211.891c10.179-8.724 20.098-17.384 29.434-26.302M787.823 412.949c13.08.063 25 .063 35.696.125M685.744 572.394c-5.923 8.959-12.94 17.662-20.667 26.302m-25.05 26.46c19.695.124 39.13.25 58.242.312m-37.575-186.466c7.783 8.64 15.052 17.407 21.292 26.303M875.09 625.436c.376-.063.314-.188-.062-.25m-.156 0c-.951.125-2.6.187-5.01.25M692.006 412.542c-18.529-.125-37.317-.188-56.362-.313m237.348 203.062h-22.544M809.74 424.22c11.924.063 22.757.063 32.565.126m68.261 23.422c8.811 8.01 17.104 16.087 24.424 24.423m-50.1 143.036c-2.99.063-6.935.125-11.899.125m-199.147-.845c18.232.125 36.206.188 53.857.313m-1.252-120.084c3.345 8.179 5.389 16.679 5.636 25.05m227.329 0c-.372-7.996-2.917-16.056-6.889-23.797m-67.635 119.395c2.26-.063 3.699-.063 4.384-.188m-215.43-.846c8.13-7.846 15.938-15.757 23.171-23.797m191.007 24.423c9.528-7.867 18.799-15.734 27.554-23.797m36.95-95.19c-4.433-8.166-10.496-16.014-17.536-23.798m-214.177-49.004c-17.027-.125-34.439-.187-51.979-.313m270.54 144.508c6.507-7.696 11.984-15.585 15.656-23.798M712.673 470.94c5.575 7.804 10.317 15.672 13.777 23.798M889.256 614.79c.087 0-.13-.188-.607-.25m-70.766.845a78142.21 78142.21 0 0 0-41.96-.188m139.654-24.017c8.473-7.781 16.304-15.627 23.172-23.797M864.85 423.72c5.214 0 9.346-.063 12.525-.125m0 .156c2.408-.063 4.034-.063 5.01-.188m0-.219c9.716 8.098 19.174 16.196 28.182 24.424m-60.12 167.584c-9.725 0-20.666-.062-32.565-.125m-49.474-191.664c14.53.063 28.351.125 41.332.188m-140.906-.407c8.277 7.911 16.296 15.822 23.798 23.797m189.937-23.359c.376-.062.313-.188 0-.25M775.924 614.79c-15.576-.063-31.672-.188-48.221-.25m-6.263-191.007c16.15.063 31.849.188 46.969.25m-36.352 96.005c.244 7.932-1.04 15.992-3.728 23.797m-35.696-96.443c7.352 7.847 14.119 15.694 20.04 23.798m129.633-46.656h22.545M716.43 566.756c-5.556 8.104-12.158 16.015-19.414 23.798m257.389-46.969c3.557-7.718 5.401-15.822 4.94-23.798M728.33 543.586c-2.736 7.874-6.872 15.62-11.899 23.171m151.553 39.204c-9.012 0-19.054-.063-30.06-.126m123.37-107.339c-4.118-7.524-9.782-14.787-16.282-21.919m-85.796-42.898h20.666m22.545 172.125c-.361.188-1.445.125-3.131.188m-10.646-.031c4.535 0 8.063-.063 10.646-.126m-144.037-64.128c-2.587 7.06-6.499 13.928-11.273 20.666m219.188-20.666c3.136-6.905 4.705-14.195 4.328-21.292M748.37 433.177c-15.774-.063-31.869-.188-48.221-.25m40.706 43.023c5.06 6.947 9.425 14.088 12.525 21.293m127.129-63.502c4.66 0 8.375-.063 11.272-.125m35.07 150.675c8-6.968 15.48-14.001 21.919-21.292M829.155 433.647c10.966.062 21.03.062 30.06.062m-110.846-.156c14.876.063 29.301.188 43.211.25m-91.433-1.064c7.627 7.033 14.998 14.13 21.92 21.292m36.912 65.757c.276 7.328-1.034 14.721-3.721 21.918m-28.182 41.959c-6.784 7.227-14.156 14.26-21.918 21.293m86.422-171.374c13.25.063 25.797.125 37.575.188m-107.089 20.886c6.628 6.99 12.809 14.045 18.161 21.292m151.553-42.178c2.158-.063 3.642-.063 4.384-.188m-97.069 171.812c-14.164-.063-28.776-.125-43.837-.25m140.807-171.374c.188-.063 0-.125-.5-.188m-.028-.219c9.066 7.242 17.94 14.548 26.303 21.919m0 0c8.152 7.22 15.73 14.439 22.545 21.918M705.158 605.115c16.98.125 33.7.188 50.1.313m-1.88-108.185c3.316 7.366 5.372 14.988 5.637 22.546m209.168.626c-.394-7.328-2.953-14.787-6.89-21.919m-60.12 107.089c8.879-7.055 17.565-14.109 25.677-21.293m-88.928 21.7c-12.141-.063-25.127-.125-38.827-.188m149.674-42.804c6.017-6.883 11.075-13.96 14.404-21.293m-60.76 63.69c.113-.063-.507-.188-1.24-.25m-12.524.75h-20.667m-123.37-43.524c-5.01 7.268-10.984 14.344-17.536 21.293M968.81 501c-3.805-6.686-9.069-13.114-15.03-19.414M779.68 539.201c-2.292 6.371-5.763 12.677-10.02 18.788m206.037-37.575c-.439-6.514-2.693-13.158-6.263-19.414m-241.106-59.494c7.26 6.428 14.191 12.856 20.666 19.414m28.808 38.827c2.943 6.738 4.759 13.735 5.01 20.667m149.673-58.241c7.655 6.386 14.924 12.772 21.293 19.413m-105.837-39.172c10.044.063 19.25.063 27.555.063m32.56.063c.047 0-.191-.126-.62-.188m0-.22c8.608 6.615 17.023 13.295 25.05 20.04M733.964 597.005c15.705.125 31.152.188 46.342.25M748.995 460.92c6.196 6.363 11.94 12.791 16.909 19.414m-31.939 116.482c7.07-6.406 13.814-12.812 20.04-19.413m19.414-135.051c13.6.062 26.751.125 39.453.188m43.838 154.683c-11.163-.062-23.105-.125-35.696-.188m137.149-38.42c5.735-6.254 10.547-12.704 13.777-19.414m-87.675 58.555h18.788m1.878-155.216c1.946-.063 3.154-.063 3.758-.188m-125.914 78.062c.258 6.514-.838 13.093-3.094 19.413m41.333 57.428c-13.138-.063-26.728-.126-40.707-.25m-10.02-39.016c-4.624 6.643-10.16 13.028-16.282 19.413m59.494-135.05c12.164.062 23.624.125 34.443.188m64.504 155.153c-2.407.063-5.725.063-10.02.125m68.888-57.99c3.189-6.299 4.783-12.986 4.298-19.414m-202.193-78.47c-14.586-.062-29.429-.187-44.464-.25M938.122 578.03c7.363-6.34 14.15-12.747 20.04-19.414m-192.258-78.281c4.811 6.319 8.908 12.769 11.899 19.413m97.694-57.301h18.788m0 .062c4.441 0 7.968-.062 10.646-.125m-20.666 155.404c-8.222 0-17.47-.063-27.555-.063m55.736-.5c1.78-.063 2.99.125 3.131-.189m-1.878-.219c8.467-6.22 16.738-12.44 24.423-18.787m-22.548 19.194c.07-.188-.834-.125-1.875-.188M755.258 449.648c6.585 5.801 12.912 11.603 18.787 17.534m145.29-16.908c8.023 5.802 15.79 11.605 23.171 17.535m-52.605-17.222h17.535m-110.846-.501c-13.519-.063-27.296-.188-41.332-.25m224.197 88.113c2.753-5.65 4.13-11.69 3.67-17.535M796.59 449.867c12.494.062 24.666.125 36.322.188m0 .47c11.273.062 21.962.125 31.94.125m-64.505 50.976c2.94 6.111 4.677 12.547 5.01 18.788m102.08-69.796c3.945 0 7.013-.062 9.393-.062m-43.838 139.152c-10.188-.062-21.086-.125-32.564-.188m107.715-17.127c6.908-5.714 13.3-11.493 18.787-17.536m-162.235-34.443c.23 5.888-.632 11.84-2.469 17.535m70.766 51.634c9.385.063 17.987.063 25.677.063m17.535.595h-17.535m-120.24-18.475c-5.648 5.977-11.744 11.756-18.161 17.535m167.198.22c.132.187-1.05.125-2.495.187m2.505 0c-.194-.188-.907-.125-1.879-.188m-10.02.126c3.998 0 7.13-.063 9.394-.063m.626-.282c7.882-5.594 15.44-11.187 22.546-16.909m18.787-16.908c5.257-5.627 9.605-11.45 12.525-17.535m-205.41-70.766c5.74 5.757 11.09 11.58 15.656 17.534m0-.626c4.335 5.693 7.969 11.516 10.646 17.535m120.232-51.571c.082 0-.415-.126-1.244-.188m-140.28 121.9c5.393-5.76 10.343-11.518 14.404-17.536m46.969 35.477c-11.911-.062-24.27-.125-36.95-.188m-1.252-51.571c-2.033 5.745-5.019 11.425-8.767 16.909m189.754-34.444c-.462-5.888-2.77-11.906-6.263-17.535m-173.471 86.86c-14.123-.062-28.57-.187-43.212-.25m182.24-121.68c7.175 5.78 13.963 11.561 20.04 17.535m0 0c5.709 5.673 10.705 11.475 14.403 17.535m-112.099-52.323c9.115.062 17.529.062 25.05.062m26.929.031c1.628-.062 2.693 0 3.131-.125M796.59 472.192c5.303 5.133 10.148 10.33 14.404 15.657m164.077 63.877c4.687-5.067 8.676-10.264 11.273-15.656M825.35 520.414c.266 5.261-.597 10.587-2.457 15.656M951.9 473.445c6.76 5.155 13.067 10.31 18.788 15.656M814.75 551.1c3.442-4.859 6.288-9.912 8.142-15.03m147.794-46.969c5.185 5.07 9.8 10.267 13.152 15.656m-133.392-47.344c10.354.063 20.187.125 29.434.125m103.958 47.22c3.097 5.069 5.202 10.394 5.636 15.656m-61.373-62.876c1.67 0 2.714 0 3.132-.125m-151.553-.25c5.912 5.175 11.633 10.35 16.909 15.656m5.01 93.937c-5.243 5.35-10.945 10.503-16.909 15.657m30.06-31.313c-3.703 5.39-8.171 10.587-13.151 15.656m117.735-109.25c3.685 0 6.607 0 8.767-.062m-110.846-.47c-12.517-.062-25.23-.125-38.201-.25m152.171.846c.078 0-.467-.126-1.245-.188m-108.967 46.123c2.505 5.53 4.07 11.251 4.384 16.909m104.583-63.251c7.545 5.383 14.895 10.767 21.919 16.282m-72.019-16c8.473.062 16.175.062 23.172.062m35.696 125.313c-.25-.126-.94-.126-1.879-.188m50.1-46.562c2.314-5.025 3.47-10.438 3.044-15.656m-51.278 62.249c.146.063-.953.125-2.492.125m.626.25c7.185-5.153 14.117-10.306 20.666-15.655m-21.292 15.938c-1.942.062-4.635.062-8.142.062m29.434-16c6.43-5.089 12.34-10.308 17.535-15.657m-62.625 31.626h15.656m-117.108-95.503c4.06 5.088 7.466 10.307 10.02 15.656m90.806 79.878c-6.958 0-14.682-.062-23.171-.062m-30.06-.658c10.56.063 20.666.125 30.06.125m-29.434.032c-11.113-.063-22.616-.126-34.444-.188m-7.515-125.25c11.428.062 22.47.125 33.192.188m52.605-.094h16.282M784.691 582.6c13.555.063 26.98.188 40.08.25m-17.535-6.7c5.373-4.529 10.425-9.121 15.03-13.778m11.899-14.403c-3.327 4.91-7.42 9.69-11.899 14.403m53.231 14.185c-10.115-.063-20.552-.125-31.312-.188m-7.515-112.725c10.575.063 20.825.125 30.686.188m8.141 113.195c9.68.062 18.908.125 27.556.125m-58.868-.564c-12.08-.062-24.417-.125-36.949-.25m87.049-112.631c7.76.062 14.88.062 21.293.062m77.654 71.048c-2.466 4.762-6.231 9.334-10.646 13.778m-35.696 28.463c-1.801.063-4.285.063-7.515.063m-8.768-113.352c3.408 0 6.122 0 8.142-.062m-108.341 27.9c3.506 4.464 6.512 9.057 8.767 13.777m139.028-13.151c4.945 4.648 9.249 9.427 12.524 14.403m-149.673 28.181c-1.58 4.511-3.982 8.895-6.889 13.152m126.503-70.14c6.323 4.736 12.254 9.472 17.534 14.404m-30.686 84.543c6.772-4.528 13.287-9.057 19.414-13.777m-51.352-99.26h15.03m10.638.062c.083 0-.498-.125-1.245-.125m56.255 57.364c.47 4.614-.605 9.354-3.024 13.778m-2.505-28.182c3.045 4.649 5.118 9.56 5.637 14.404m-57.615-57.24c1.372 0 2.207 0 2.505-.125m-99.574 71.142c1.391-4.713 2.06-9.624 1.837-14.403M801.6 463.425c5.476 4.571 10.76 9.143 15.656 13.777m21.919 28.182c2.495 5.11 4.114 10.415 4.384 15.656m97.069-57.615c6.892 4.758 13.594 9.517 20.04 14.404m-11.273 98.728c-.26-.125-.907-.125-1.879-.188m-80.16-112.694c9.474.063 18.429.126 26.929.126m54.472 113.226c.12.062-.723.125-1.867.125m-129.634-99.95c4.8 4.53 9.272 9.122 13.152 13.778m72.644 86.078c7.778.063 14.854.063 21.293.063m15.03-.032h-15.03m41.959-14.717c5.992-4.464 11.463-9.057 16.282-13.777"/><path d="M836.67 463.832c-11.432-.063-23.186-.125-35.07-.188m157.189 107.872c-.29-.125-.94-.125-1.879-.125m11.899-89.178c5.838 4.34 11.352 8.614 16.282 13.15M841.68 557.99c4.016-4.091 7.65-8.245 10.646-12.525m83.291 26.02c-6.05 0-12.752-.062-20.04-.062m83.918-37.857c-2.323 4.368-5.84 8.543-10.02 12.525m-4.384-50.726c4.682 4.048 8.778 8.16 11.899 12.525m-47.595 63.564h-13.778M821.64 469.061c5.084 4.111 9.907 8.286 14.404 12.525m22.545 51.979c-1.42 4.052-3.551 8.04-6.263 11.899m38.202 25.926c8.818.063 17.19.126 25.05.126m-53.858-.157c9.882.063 19.506.125 28.808.188m57.615-102.11c1.315 0 2.191 0 2.505-.125m51.223 51.728c.487 4.133-.427 8.52-2.376 12.525M827.276 571.14c4.94-4.11 9.554-8.222 13.778-12.525m41.332-89.147c-9.046-.062-18.484-.125-28.181-.188m7.515 101.64l-34.444-.187m33.135-49.693c.26 4.175-.39 8.477-1.822 12.525m116.482 25.05c5.53-4.067 10.606-8.2 15.03-12.525m-135.896-76.622l-31.939-.188m104.584.72h13.778m16.282 101.516c1.12 0 1.991-.063 1.867-.125"/><path d="M950.021 469.312c.386.062.627.125.627.125m-102.706 24.674c3.27 4.068 6.09 8.264 8.142 12.525m50.726-37.293c7.27.063 14.015.063 20.04.063m30.06 102.016c-1.846.062-4.285.062-7.515.062m7.515-.344c6.337-4.132 12.412-8.264 18.161-12.525m-92.685-89.303c8.613.062 16.776.062 24.424.125m61.999 13.402c-5.984-4.427-12.29-8.79-18.788-13.151m-113.977 11.898c4.404 4.132 8.414 8.264 11.899 12.525m11.898 26.303c-.308-4.635-1.601-9.27-3.757-13.778m84.544-36.604c3.105 0 5.651 0 7.514-.063m48.222 38.546c3.056 3.985 5.093 8.287 5.636 12.525"/><path d="M97.695 934.365L139.654 892.406"/><path d="M481.586 679.481c14.08-5.282 28.548-10.5 43.212-15.656m149.047-49.474c-11.402 3.505-22.675 7.076-33.817 10.646m144.663-42.584a6119.078 6119.078 0 0 0-24.423 6.888m135.27-155.936c4.087 2.944 8.24 5.888 12.524 8.767M733.966 596.817c8.682-2.505 17.429-5.01 26.303-7.515M950.02 469.687a608.34 608.34 0 0 1-9.393-5.636m-266.783 150.3c10.351-3.11 20.767-6.284 31.313-9.394m28.807-8.14c-9.667 2.692-19.27 5.385-28.808 8.14M603.706 636.27c-12.926 4.154-25.66 8.308-38.201 12.525"/><path d="M980.081 51.979L933.739 98.321"/><path d="M827.903 570.514c-6.933 1.856-13.8 3.78-20.667 5.636M177.23 854.831s22.592-22.867 35.696-33.817m669.461-397.669c-4.512-3.528-8.96-7.056-13.151-10.646m0 0c-4.574-3.945-8.958-7.89-13.151-11.899m63.251 49.474a928.067 928.067 0 0 1-11.899-8.142m33.192 21.293c-3.404-2.067-6.68-4.196-10.02-6.262m-35.07-23.798a409.284 409.284 0 0 1-12.525-10.02m47.594 33.817c-3.78-2.296-7.559-4.592-11.272-6.888m-63.251-50.1c-4.597-4.363-9.002-8.726-13.151-13.151m11.272-209.794s-21.618 22.223-30.06 33.817m-23.798 105.837a116.076 116.076 0 0 1-3.757-22.546m10.646 281.813a1854.754 1854.754 0 0 0-22.545 6.263m39.454-370.74c-7.42 9.948-13.54 20.22-18.161 30.686"/><path d="M1032.06 0L980.707 51.352"/><path d="M0 1032.06L51.352 980.707"/><path d="M253.631 790.327c13.915-9.188 28.737-18.122 44.464-26.928M604.331 636.27a3085.176 3085.176 0 0 1 36.323-11.273M829.78 371.993a192.386 192.386 0 0 1-11.898-16.283m-10.02-18.787a129.862 129.862 0 0 1-7.516-20.04m-275.55 346.942a2669.697 2669.697 0 0 1 40.707-14.404M807.862 337.55c2.872 6.139 6.255 12.15 10.02 18.161M344.439 738.975c14.87-7.414 30.318-14.698 46.342-21.919m46.343-20.04c-15.902 6.43-31.35 12.858-46.343 19.414m415.204-474.697c-3.853 9.013-6.588 18.284-8.142 27.555"/><path d="M139.654 892.406L177.229 854.831"/><path d="M797.842 269.288c-1.138 8.285-1.5 16.7-1.086 25.05"/><path d="M51.979 980.081L98.321 933.739"/><path d="M892.406 139.654L854.831 177.229"/><path d="M829.781 371.993a246.165 246.165 0 0 0 12.525 15.03M481.586 679.48a1898.277 1898.277 0 0 0-44.464 17.535M298.096 763.4c14.692-8.313 30.161-16.433 46.342-24.424m-90.806 51.352c-14.708 9.969-28.32 20.197-40.706 30.687"/><path d="M934.365 97.695L892.406 139.654"/><path d="M1032.06 1032.06L980.707 980.707"/><path d="M296.216 269.288c14.485 8.5 29.745 16.808 45.716 25.05M913.7 596.815c3.88-2.505 7.824-5.01 11.899-7.515M821.64 469.061a4193.248 4193.248 0 0 1-20.04-5.636m-101.452-30.686c9.516 2.944 19.097 5.823 28.807 8.767m26.303 8.142c8.12 2.296 16.239 4.592 24.423 6.888"/><path d="M980.081 980.081L933.739 933.739"/><path d="M779.055 457.163c7.45 2.066 14.965 4.195 22.545 6.262m1.879 253.631c2.084-6.556 4.82-13.048 8.141-19.413m-290.58-325.65a2599.874 2599.874 0 0 1-42.585-16.283m190.38 67.635c10.35 3.362 20.767 6.658 31.313 10.02m-100.2-33.191c-12.949-4.363-25.704-8.726-38.202-13.151m260.52 292.458c3.589-5.282 7.618-10.5 11.899-15.656m-9.394 156.563c-7.197-9.786-13.151-19.891-17.535-30.06m4.384-93.312c3.051-5.951 6.621-11.775 10.646-17.535m52.605-54.484a398.08 398.08 0 0 1 13.778-10.646"/><path d="M139.654 139.654L177.229 177.229"/><path d="M854.205 854.831s-21.243-22.265-29.434-33.817M177.23 177.229s22.352 22.867 35.07 33.817m586.796 527.929c.645-7.35 2.127-14.698 4.384-21.919m-590.554-506.01c12.153 10.488 25.535 20.652 40.08 30.686m135.27 75.15c-16.01-7.45-31.5-14.965-46.342-22.545m-89.554-52.605c13.642 9.336 28.32 18.542 43.837 27.556m537.949 394.537c4.061-4.888 8.51-9.646 13.151-14.404m-92.058-199.774c-8.854-2.713-17.578-5.427-26.303-8.14M925.597 589.3a1712.16 1712.16 0 0 1 11.273-6.889"/><path d="M51.979 51.979L98.321 98.321"/><path d="M97.695 97.695L139.654 139.654"/><path d="M861.094 636.27a415.054 415.054 0 0 1 13.777-11.273"/><path d="M0 0L51.352 51.352"/><path d="M946.89 576.776c3.318-1.856 6.636-3.78 10.02-5.636m-109.594 78.281a326.445 326.445 0 0 1 13.778-12.525"/><path d="M892.406 892.406L854.831 854.831"/><path d="M936.87 583.039c3.483-2.132 7.032-4.197 10.646-6.263M388.275 316.883c14.808 6.765 30.003 13.466 45.716 20.04"/><path d="M934.365 934.365L892.406 892.406"/><path d="M888.023 614.977a396.346 396.346 0 0 1 13.15-9.393M799.722 763.399a96.073 96.073 0 0 1-.832-24.424M635.644 412.699c10.936 3.528 22 7.118 33.191 10.646m-234.844-86.423c14.477 6.097 29.277 12.194 44.464 18.162m121.493 45.09a2915.33 2915.33 0 0 0 35.696 11.899m-114.604-40.08c13.331 5.031 26.857 10.063 40.706 15.03m245.49 403.304c-3.602-8.87-6.148-17.867-7.515-26.928m101.453-157.815c4.067-2.756 8.264-5.449 12.525-8.141"/><path d="M1031.747 258.015L1031.747 129.007"/><path d="M1031.747 387.022L1031.747 258.015"/><path d="M1031.747 645.038L1031.747 516.03"/><path d="M1031.747 1032.06L1031.747 903.053"/><path d="M1031.747 774.045L1031.747 645.038"/><path d="M1031.747 516.03L1031.747 387.022"/><path d="M1031.747 0L1031.747 129.007"/><path d="M1031.747 903.053L1031.747 774.045"/><path d="M129.007 0.313L258.015 0.313"/><path d="M774.045 0.313L645.038 0.313"/><path d="M387.022 0.313L258.015 0.313"/><path d="M129.007 0.313L0 0.313"/><path d="M903.053 0.313L774.045 0.313"/><path d="M1032.06 0.313L903.053 0.313"/><path d="M516.03 0.313L387.022 0.313"/><path d="M645.038 0.313L516.03 0.313"/><path d="M0.313 258.015L0.313 387.022"/><path d="M0.313 645.038L0.313 774.045"/><path d="M0.313 774.045L0.313 903.053"/><path d="M0.313 129.007L0.313 258.015"/><path d="M0.313 516.03L0.313 645.038"/><path d="M0.313 387.022L0.313 516.03"/><path d="M0.313 1032.06L0.313 903.053"/><path d="M0.313 0L0.313 129.007"/><path d="M0 1031.747L129.007 1031.747"/><path d="M129.007 1031.747L258.015 1031.747"/><path d="M387.022 1031.747L516.03 1031.747"/><path d="M516.03 1031.747L645.038 1031.747"/><path d="M258.015 1031.747L387.022 1031.747"/><path d="M645.038 1031.747L774.045 1031.747"/><path d="M903.053 1031.747L774.045 1031.747"/><path d="M903.053 1031.747L1032.06 1031.747"/><path d="M831.66 722.066c2.161 7.58 5.567 15.159 10.02 22.545m50.726 53.858c13.922 10.566 41.959 31.312 41.959 31.312M831.66 722.066c-2.064-6.616-3.131-13.36-3.131-20.04m8.767-35.07c2.468-4.864 5.39-9.665 8.768-14.404m10.02-13.15c-3.902 4.319-7.472 8.702-10.646 13.15m102.705-80.16c3.11-1.67 6.22-3.34 9.393-5.01m-9.393 5.01c-3.425 1.88-6.723 3.758-10.02 5.637m-10.647 6.262c3.506-2.066 7.077-4.196 10.646-6.262M841.054 744.61c5.146 8.585 11.726 16.914 19.413 25.05m19.414-152.805a216.173 216.173 0 0 0-11.899 10.647m-30.686 40.08a82.847 82.847 0 0 0-6.262 16.282m0 0a67.673 67.673 0 0 0-2.505 18.161m87.048-110.846c-4.096 2.505-8.062 4.947-11.898 7.515m62.625-35.696c-2.986 1.44-5.909 2.943-8.768 4.384m-53.857 31.312a358.278 358.278 0 0 0-11.899 8.767"/><path d="M933.739 829.155L980.081 864.225"/><path d="M926.85 584.291c-3.843 2.296-7.622 4.529-11.273 6.889"/><path d="M1032.06 903.053L980.707 864.225"/><path d="M891.78 607.462c-4.155 3.11-8.121 6.22-11.899 9.394m-12.525 10.647a163.736 163.736 0 0 0-11.272 11.898m118.987-80.786c-2.735 1.252-5.47 2.505-8.141 3.757M860.468 770.288c8.946 9.695 19.49 19.067 31.312 28.18m56.989-235.47c-3.428 1.42-6.724 2.903-10.02 4.385m19.413-8.768c-3.196 1.438-6.327 2.877-9.393 4.384m-10.02 4.384c-3.403 1.648-6.743 3.297-10.02 5.01m-70.767 68.26c.648-4.03 1.944-8.06 3.758-11.898m113.351-77.029c2.484-1.02 4.968-2.11 7.515-3.131m-53.857 23.798c-3.636 1.857-7.206 3.714-10.647 5.636"/><path d="M1032.06 774.045L980.707 748.369"/><path d="M982.586 548.595c2.275-.835 4.614-1.67 6.889-2.505M876.75 608.089c-3.045 3.068-5.78 6.2-8.141 9.393m-10.647 36.323c.907 5.053 2.851 10.106 5.637 15.03m-5.814-28.181a40.793 40.793 0 0 0 .178 13.151m18.787 31.939c6.349 6.5 13.929 12.741 22.545 18.787m-35.07-35.696c3.147 5.81 7.427 11.425 12.525 16.909m98.321-134.018c-2.756 1.044-5.449 2.088-8.141 3.131m-8.767 3.758a1194.29 1194.29 0 0 1 8.767-3.758m-70.14 36.95c-3.77 2.484-7.34 4.968-10.646 7.514m21.292-15.03a235.841 235.841 0 0 0-10.646 6.889m21.293-13.151c-3.698 2.045-7.204 4.153-10.647 6.262m-39.454 33.191c-2.542 3.443-4.65 7.013-6.262 10.647m15.03-20.04a126.05 126.05 0 0 1 9.394-8.768m94.563 149.048s-31.002-15.255-46.342-23.172m-35.07-20.666c10.334 7.166 22.088 14.012 35.07 20.667m1.879-176.603c-3.216 1-6.368 2.065-9.394 3.131m18.788-5.636c-3.218.835-6.37 1.67-9.394 2.505m43.211-10.646c2.483-.601 4.965-1.203 7.515-1.879m-79.534 23.171c2.96-1.295 6.113-2.526 9.394-3.757m9.394-3.758c-3.257 1.024-6.388 2.108-9.394 3.131m82.665-21.292c-2.087.438-4.24.814-6.263 1.252"/><path d="M1032.06 645.038L980.707 631.886"/><path d="M884.265 573.019c-1.67 1.796-2.982 3.654-3.757 5.636m0 .626c-1.132 2.046-1.536 4.217-1.051 6.263m4.808-12.525c1.708-1.732 3.859-3.402 6.263-5.01m-11.273 17.535c.403 2.593 1.812 5.12 3.758 7.515m96.442-55.11a658.349 658.349 0 0 0-7.515 1.879m-73.271 23.17a77.234 77.234 0 0 0-8.141 5.01m102.704-33.19c-2.318.398-4.636.853-6.888 1.252m-103.332 56.989c2.318 2.884 5.512 5.577 9.394 8.141m15.03-41.959a138.738 138.738 0 0 0-8.767 4.384m72.645-23.798c-2.735.627-5.47 1.253-8.141 1.88m-8.142 1.878c-3.198.791-6.329 1.648-9.393 2.505m17.534-4.384c-2.987.81-5.91 1.695-8.767 2.505m26.303 87.675s-29.243-7.368-41.96-11.272m0 0c-10.422-3.194-19.88-6.513-28.18-10.02m-18.162-9.394c4.928 3.308 10.816 6.417 17.535 9.394m122.119-94.25h-51.352m-21.293 3.85c-3.01-.062-5.889-.125-8.767-.187m30.06-3.695c-14.096 0-27.039.062-38.828.062m60.12 4.415c-1.92-.062-3.778-.062-5.636-.125m0 .125c-2.088-.062-4.175-.062-6.263-.125m0 .125c-2.34-.062-4.614-.125-6.889-.125m-15.656-.47l-8.141-.187m-17.535-.407c-3.242-.063-6.35-.188-9.394-.25m18.162.25c-3.028-.063-5.93-.126-8.768-.25m-18.161-.627c3.022.063 6.109.188 9.393.25m42.586 1.222l-7.515-.188m15.03.188l-7.515-.188m-60.12-3.79c-6.179.063-11.65.126-16.283.251m-11.272 1.284c-.918-.062-1.377-.25-1.224-.313m4.981.313c-1.55-.125-2.803-.188-3.757-.313m-1.253-.313c.511-.188 1.598-.188 3.131-.313m8.768.94c-2.349-.126-4.436-.189-6.263-.314m22.545.94c-3.122-.126-6.044-.188-8.767-.314m17.535.908c-3.069-.062-6.012-.188-8.768-.25m-16.282-1.879c-3.546.063-6.511.125-8.768.25m8.768.971c2.292.126 4.84.188 7.515.313m35.696-2.129c-9.718.063-18.528.063-26.303.188m-.626-34.225c-3.304-1.439-6.413-2.878-9.394-4.383m-8.767-5.01c-2.733-1.65-5.28-3.3-7.515-5.01m90.806-68.262s-29.255 7.692-41.959 11.9m14.404 84.543c-3.006-1.044-5.886-2.088-8.767-3.131m-.626 0c-3.24-1.023-6.35-2.11-9.394-3.131m27.555 8.767c-2.967-.814-5.933-1.69-8.768-2.505m38.202 10.646a965.71 965.71 0 0 1-6.89-1.879m-59.493-18.787c-3.237-1.232-6.41-2.464-9.394-3.758M969.435 501a636.32 636.32 0 0 1-8.141-2.505m-23.172-87.049c-10.688 3.376-20.269 6.881-28.807 10.646m.626 0c-6.925 2.964-13.065 6.053-18.161 9.394m33.191 54.484c3.047 1.23 6.157 2.528 9.394 3.757m-37.575-16.282a135.563 135.563 0 0 0 8.768 5.01m-23.798-38.201c-1.974 2.581-3.312 5.361-3.757 8.141m118.987 59.494c-2.11-.418-4.219-.835-6.263-1.253m-13.777-3.757c-2.526-.627-5.052-1.253-7.515-1.879m-80.16-33.191c-2.389-1.796-4.52-3.716-6.262-5.637m0 0c-1.664-1.984-3.019-4.092-3.758-6.262"/><path d="M1032.06 387.022L980.707 400.174"/><path d="M983.839 504.757c-2.297-.647-4.593-1.295-6.889-1.878m-85.17-71.393c-4.126 2.793-7.531 5.715-10.02 8.768m-3.131 15.03c-.593-2.234-.776-4.655-.502-6.889m26.178 5.01a300.535 300.535 0 0 1-10.646-7.515m-31.313-82.039c-2.695 5.089-4.656 10.373-5.636 15.656m26.929 58.242c3.107 2.755 6.468 5.448 10.02 8.141m84.543 46.343a886.643 886.643 0 0 1-7.514-3.132m-26.303-11.899c3.043 1.44 6.218 2.944 9.394 4.384m-88.302-63.877c-2.517-3.694-4.648-7.452-6.262-11.273m0 0c-1.595-4.09-2.659-8.307-3.131-12.525m17.535 33.818a88.8 88.8 0 0 1-8.142-10.02m105.21 71.392c-2.735-1.252-5.47-2.505-8.14-3.757M856.083 379.507c-.669 4.572-.812 9.207-.382 13.778m98.077 88.301c2.9 1.253 5.8 2.505 8.767 3.758m22.545 10.02c-2.317-1.021-4.635-2.11-6.889-3.131m-63.877-31.94c3.439 2.11 7.01 4.22 10.646 6.263m0 0c3.276 1.9 6.616 3.801 10.02 5.637m0-.627c3.069 1.692 6.2 3.384 9.394 5.01m-29.434-16.282c-3.7-2.275-7.205-4.55-10.646-6.889m-21.292-15.656a129.706 129.706 0 0 1-9.394-9.394"/><path d="M1032.06 258.015L980.707 283.691"/><path d="M898.669 328.155c-8.877 6.007-16.644 12.27-23.172 18.788m0 0c-5.388 5.466-9.815 11.124-13.15 16.908m118.36-80.16s-31.002 15.319-46.342 23.172m0 .626c-13.216 6.613-25.201 13.48-35.696 20.666m61.999 150.3c-2.988-1.648-5.91-3.296-8.768-5.01m-30.06-18.161c3.505 2.34 7.076 4.615 10.646 6.889m-33.191-22.546c3.653 2.757 7.431 5.45 11.273 8.142M891.78 234.217s-22.804 18.466-31.939 28.182m72.645 199.147c3.297 2.088 6.659 4.175 10.02 6.263m0 0c3.11 1.878 6.22 3.757 9.394 5.636m-41.332-25.676c3.648 2.548 7.428 5.032 11.272 7.515m-79.534-72.645c2.955 4.635 6.36 9.27 10.02 13.777m-18.161-28.807c2.272 5.073 4.986 10.083 8.141 15.03M828.53 350.7c1.28 5.658 3.202 11.38 5.636 16.909m53.231 62.625c3.816 3.198 7.825 6.329 11.899 9.394m-23.798-19.414c3.795 3.382 7.783 6.701 11.9 10.02m-35.07-33.818c3.453 4.219 7.232 8.372 11.272 12.525"/><path d="M1032.06 129.007L980.707 167.835"/><path d="M840.428 287.449c-4.63 7.572-8.266 15.34-10.647 23.171m30.06-48.221c-7.898 8.3-14.687 16.858-20.04 25.676M968.81 482.212c-2.736-1.482-5.471-2.9-8.141-4.383M829.78 311.246c-1.903 6.782-3.008 13.756-3.131 20.667m36.949 77.028c3.726 3.823 7.714 7.58 11.898 11.273m-48.831-88.301a80.376 80.376 0 0 0 1.863 18.787"/><path d="M934.365 202.279L892.406 233.591"/><path d="M980.081 167.835L933.739 202.905"/><path d="M273.671 722.066c15.78-6.807 32.271-13.487 49.474-20.04m455.91-130.26c-8.372 1.879-16.743 3.758-25.05 5.637"/><path d="M97.695 829.781L139.654 798.469"/><path d="M841.054 558.615l-18.788 3.757m-157.188 36.323c10.56-2.505 21.185-5.01 31.938-7.515M801.6 566.756a1994.79 1994.79 0 0 1 20.666-4.384M371.993 683.24c15.644-5.513 31.74-10.898 48.22-16.283m306.863-83.291c8.891-2.066 17.846-4.197 26.929-6.262M180.36 769.66c13.913-8.563 28.986-16.87 45.09-25.05M801.6 566.756c-7.536 1.67-15.073 3.34-22.545 5.01m-185.37 45.09a6671.813 6671.813 0 0 0-39.454 10.647"/><path d="M51.979 864.225L98.321 829.155"/><path d="M467.183 652.553a2437.59 2437.59 0 0 0-46.97 14.403M322.52 701.4c15.93-6.16 32.443-12.193 49.474-18.161m95.19-30.687c14.52-4.426 29.364-8.788 44.463-13.15M225.45 744.611c15.19-7.708 31.286-15.223 48.221-22.546"/><path d="M0 903.053L51.352 864.225"/><path d="M665.077 598.695c-11.588 2.9-23.112 5.867-34.443 8.767M140.28 798.47s25.482-19.089 40.08-28.182m413.325-153.43a3447.146 3447.146 0 0 1 36.949-9.394M511.646 639.4a3435.414 3435.414 0 0 1 41.959-11.898m172.845-43.838a6917.62 6917.62 0 0 0-29.434 6.889m19.414-23.798c-10.272 1.65-20.544 3.361-30.686 5.01m58.867-9.394c-9.415 1.482-18.83 2.902-28.181 4.384m53.858-8.767c-8.602 1.438-17.204 2.877-25.677 4.383M653.18 578.03a4070.38 4070.38 0 0 0-35.697 6.262m-.626 0a4663.628 4663.628 0 0 0-38.201 6.889m107.089-19.414c-11.15 1.858-22.236 3.715-33.192 5.637M98.322 724.57s28.51-13.969 44.463-20.666m0 0c15.277-6.478 31.58-12.698 48.847-18.788m.627.627c16.325-5.788 33.42-11.381 51.352-16.909M814.751 551.1c-7.119 1.024-14.238 2.047-21.292 3.131m0 0a8987.84 8987.84 0 0 0-23.171 3.758M578.654 591.18c-13.972 2.484-27.749 5.03-41.332 7.515m-139.028 29.434c-17.296 3.945-34.205 7.89-50.726 11.899M243.61 668.835c16.844-5.096 34.4-10.063 52.605-15.03"/><path d="M51.979 748.369L98.321 725.197"/><path d="M295.59 653.805c16.767-4.68 34.115-9.229 51.979-13.777m486.596-92.06c-6.493 1.022-12.985 2.11-19.414 3.132m-277.428 47.595a8794.74 8794.74 0 0 0-43.838 8.767M851.7 545.464c-5.866.835-11.733 1.67-17.535 2.505m-387.022 69.513a3186.668 3186.668 0 0 0-48.848 10.647m95.19-20.667c-15.705 3.318-31.217 6.636-46.343 10.02"/><path d="M0 774.045L51.352 748.369"/><path d="M51.979 631.886s30.959-7.683 47.595-11.272m0 0c16.104-3.445 33.243-6.764 51.352-10.02m671.967-74.524c-6.911.601-13.821 1.202-20.667 1.879m-22.545 1.879c-8.205.626-16.346 1.252-24.423 1.878M465.93 568.01c-16.585 1.67-32.846 3.34-48.848 5.01"/><path d="M0 645.038L51.352 632.513"/><path d="M802.226 537.949l-22.545 1.879m-362.599 33.817c-17.25 1.858-34.18 3.716-50.726 5.636m492.233-45.716c-5.68.438-11.294.814-16.909 1.252m0 0c-6.306.399-12.547.854-18.787 1.253m-267.41 23.171c-14.619 1.484-28.98 2.9-43.21 4.384m83.29-8.141c-13.488 1.23-26.848 2.526-40.08 3.757m199.775-17.535c-9.063.81-17.996 1.695-26.93 2.505m-361.972 35.07c-18.197 2.046-35.876 4.155-53.231 6.263m320.014-33.192c-12.655 1.024-25.18 2.108-37.575 3.132m-281.813 30.06c-18.7 2.439-36.883 4.944-54.483 7.515m-54.484 8.141c17.476-2.756 35.658-5.513 54.483-8.141m407.69-44.464c-11.568 1.066-23.07 2.065-34.444 3.131m-481.587 58.868c17.093-3.242 35.088-6.351 53.858-9.394m523.545-57.615c-9.855.857-19.71 1.648-29.434 2.505m-187.249 16.909c-15.474 1.647-30.691 3.294-45.716 5.01m232.965-21.919c-10.732.835-21.4 1.67-31.939 2.505m158.442-27.806c-6.68-.062-13.36-.125-20.04-.125m38.2.125c-6.074-.062-12.15-.062-18.16-.125m-20.667-.47l-21.918-.187m-309.994-2.255c-16.374-.125-32.426-.188-48.221-.313m-104.584-.313c-18.867-.125-37.216-.188-55.11-.313m494.111 3.382l-26.303-.188m50.1.188l-24.423-.188m-26.303-.439l-28.807-.188m-330.034-2.254c-18.13-.125-35.875-.188-53.231-.313m103.957.94c-17.25-.126-34.117-.189-50.726-.314m145.29.94c-15.432-.126-30.671-.188-45.716-.314m387.648 2.724c-5.636-.062-11.272-.062-16.908-.125m-578.029-3.57c-19.204-.125-37.761-.187-55.736-.25m-158.442-.532s31.888 0 49.474.062m537.323 2.6c-12.445-.063-24.762-.189-36.949-.251m102.079.877c-10.545-.063-20.961-.126-31.313-.25"/><path d="M0 516.312L51.352 516.374"/><path d="M561.12 518.347c-14.388-.125-28.583-.188-42.585-.25m82.665.876c-13.49-.062-26.85-.188-40.08-.25m-459.668-2.442c16.82.062 34.543.062 53.232.125m0-.157c17.64.063 35.989.125 55.11.188m462.172 3.163c-11.379-.063-22.63-.188-33.817-.25m-6.889-34.006a18370.274 18370.274 0 0 1-37.575-3.758M150.3 422.092c-17.892-3.483-34.822-7.031-50.726-10.646m212.925 36.323c-18.488-2.485-36.462-4.969-53.858-7.515m-54.484-8.768c-18.795-3.067-36.747-6.198-53.857-9.394m108.341 18.162a3627.904 3627.904 0 0 1-54.484-8.768m306.237 40.707c-15.454-1.67-30.714-3.34-45.716-5.01m-99.574-12.525a5245.089 5245.089 0 0 1-52.605-6.89m103.957 13.152c-17.23-2.088-34.139-4.175-50.726-6.262"/><path d="M0 387.022L51.352 399.548"/><path d="M51.352 400.174s30.98 7.62 47.596 11.272m365.73 55.736a13191.868 13191.868 0 0 1-48.222-5.636m336.923 35.697c-8.998-.815-17.996-1.629-26.929-2.505m112.725 10.646c-6.262-.65-12.59-1.229-18.787-1.879m-42.586-3.757c-8.162-.835-16.325-1.67-24.423-2.505m102.705 9.393c-5.68-.417-11.294-.835-16.909-1.252m-285.57-28.182c-14.577-1.647-28.959-3.362-43.211-5.01m310.62 31.313c-6.91-.648-13.821-1.23-20.667-1.879m0 0c-7.536-.646-15.073-1.291-22.544-1.878M665.077 489.1a19104.419 19104.419 0 0 1-34.443-3.757m95.816 9.394c-9.876-1.068-19.687-2.064-29.434-3.132m0 0c-10.754-1.022-21.379-2.109-31.938-3.131m-71.393-6.889c-13.532-1.461-26.87-2.922-40.08-4.384m294.337 16.91c-5.866-1.022-11.732-2.043-17.534-3.132"/><path d="M0 258.015L51.352 283.691"/><path d="M191.006 346.316c-17.297-6.091-33.623-12.375-48.847-18.787M712.673 470.94c-10.106-1.835-20.083-3.736-30.06-5.636"/><path d="M98.321 306.863L51.979 283.691"/><path d="M444.637 417.082a3666.55 3666.55 0 0 1-48.22-11.272m94.563 21.293a6857.03 6857.03 0 0 1-46.343-10.02m237.975 48.22c-11.128-2.109-22.192-4.152-33.19-6.262m-73.898-14.404a7614.878 7614.878 0 0 1-40.707-8.14m114.604 22.544a11962.685 11962.685 0 0 1-35.696-6.889m-371.366-88.3c-17.938-5.552-35.034-11.167-51.353-16.91m-48.221-19.413c-15.94-6.698-44.464-20.666-44.464-20.666m515.404 145.916a8126.59 8126.59 0 0 1-38.201-7.515m213.551 38.827l-23.171-3.757m45.09 7.515c-7.14-1.275-14.217-2.55-21.293-3.758M294.337 379.507c-17.992-5.175-35.275-10.35-51.978-15.656m523.545 116.483a10362.71 10362.71 0 0 1-25.677-4.384M345.69 393.285a2320.62 2320.62 0 0 1-51.353-13.778m445.89 96.443c-9.248-1.692-18.433-3.318-27.554-5.01m-316.257-65.13a2719.213 2719.213 0 0 1-50.1-12.525m484.092 97.695c-6.493-1.044-12.986-2.088-19.414-3.131m-276.177-51.353c-14.828-3.131-29.462-6.197-43.837-9.393m-311.246-165.33c-14.504-9.158-40.08-28.182-40.08-28.182m582.412 221.067c-9.897-2.506-19.73-5.01-29.433-7.516M224.197 287.45c-15.893-8.386-30.757-16.901-44.463-25.677m92.059 48.848c-16.727-7.594-32.613-15.318-47.596-23.171m468.436 159.693c-10.755-2.692-21.38-5.448-31.94-8.14m-33.817-9.394a5778.977 5778.977 0 0 1-36.948-10.02m159.067 41.332c-9.062-2.274-17.995-4.615-26.929-6.889"/><path d="M51.352 167.835L0 129.007"/><path d="M660.694 439.001a6235.038 6235.038 0 0 1-34.444-9.393"/><path d="M98.321 202.905L51.979 167.835"/><path d="M139.654 233.591L97.695 202.279"/><path d="M320.64 331.286c-16.97-6.803-33.296-13.67-48.847-20.666m192.258 71.392a2329.004 2329.004 0 0 1-46.342-15.03m90.806 28.808c-15.08-4.571-29.901-9.142-44.464-13.778m371.993 99.574c-6.284-1.482-12.568-2.9-18.788-4.384m-227.328-57.615c-13.345-3.757-26.496-7.45-39.454-11.272m-180.987-58.241a1774.984 1774.984 0 0 1-48.847-18.788m229.207 77.029a3342.026 3342.026 0 0 1-41.958-12.525m288.701 77.029c-7.558-1.879-15.051-3.758-22.545-5.637m0 0a7023.25 7023.25 0 0 1-25.05-6.262m68.261 16.282c-6.931-1.67-13.799-3.34-20.666-5.01m-378.881-105.21c-16.485-5.614-32.58-11.229-48.221-16.908"/><path d="M167.835 980.081L202.905 933.739"/><path d="M556.736 679.481a2553.855 2553.855 0 0 1 38.828-15.656m0 0c11.893-4.801 24.043-9.603 36.322-14.404m-115.23 48.221c13.267-5.887 26.857-11.775 40.707-17.535M666.33 636.27c10.538-3.778 21.142-7.557 31.939-11.273m29.433-10.02c9.099-3.11 18.262-6.284 27.556-9.393m-56.99 19.413c9.684-3.57 19.495-7.141 29.434-10.646"/><path d="M129.007 1032.06L167.835 980.707"/><path d="M631.886 649.421c11.308-4.217 22.811-8.37 34.444-12.525"/><path d="M202.905 934.365L234.218 892.406"/><path d="M780.308 596.816c7.68-2.505 15.36-5.01 23.17-7.515m-48.22 16.283a1943.928 1943.928 0 0 1 25.05-8.141m63.877-20.667c-6.514 2.11-12.964 4.153-19.414 6.263m0-.626c-7.119 2.296-14.238 4.592-21.292 6.888M303.105 821.014c12.827-10.255 26.626-20.254 41.332-30.06m130.26-73.898a1434.682 1434.682 0 0 1 41.96-19.413m-85.17 41.332c13.91-7.414 28.334-14.698 43.21-21.919m-130.26 73.271c13.65-9.146 28.075-18.101 43.212-26.928M861.72 571.14c-5.888 1.857-11.711 3.78-17.535 5.636M265.53 854.831c11.273-11.51 23.84-22.76 37.575-33.817m84.544-57.615a1058.426 1058.426 0 0 1 43.837-24.424M234.218 892.406s19.466-25.329 31.312-37.575m134.018-33.817c12.002-10.213 24.714-20.233 38.2-30.06m0 0c12.525-9.083 25.698-18.038 39.454-26.929m115.23-66.382c11.662-5.888 23.582-11.776 35.697-17.536M363.85 854.832c10.934-11.467 22.897-22.74 35.697-33.817m155.31-103.958c12.038-6.556 24.333-12.985 36.948-19.413m-114.604 66.382c12.654-8.27 25.827-16.412 39.454-24.424M332.54 892.406c9.202-12.74 19.682-25.287 31.312-37.575m263.652-174.724c11.078-5.26 22.35-10.458 33.817-15.656m229.207-93.311c-5.01 1.857-10.02 3.78-15.03 5.636m-125.25 48.848c8.45-3.571 17.031-7.142 25.677-10.647M661.32 664.452a3060.147 3060.147 0 0 1 31.939-14.404m0-.626c9.683-4.217 19.494-8.37 29.433-12.525"/><path d="M284.317 980.081L307.489 933.739"/><path d="M258.015 1032.06L284.317 980.707"/><path d="M722.692 636.896c9.1-3.778 18.263-7.557 27.555-11.272m125.25-48.848c-5.448 2.11-10.897 4.153-16.282 6.263m-38.201 14.404c6.658-2.505 13.316-5.01 20.04-7.515m-.626 0c6.01-2.275 12.085-4.55 18.16-6.89m-59.493 22.546c7.263-2.756 14.59-5.449 21.919-8.141M516.656 739.6c12.35-7.349 25.084-14.698 38.202-21.918m221.066-102.706a2017.686 2017.686 0 0 1 23.797-9.393M307.49 934.365s15.133-28.275 25.05-41.959m540.453-302.478c5.22-2.275 10.438-4.615 15.657-6.89m0 0c4.801-2.109 9.602-4.152 14.404-6.262"/><path d="M387.022 1032.06L400.174 980.707"/><path d="M690.754 680.107a1712.688 1712.688 0 0 1 28.807-15.656m196.643-93.311c-4.406 1.835-8.746 3.736-13.151 5.636m-502.88 403.305s8.046-31.088 14.404-46.342m332.54-283.692c8.222-4.405 16.572-8.745 25.05-13.15m23.797-11.273c7.263-3.571 14.526-7.142 21.918-10.647m38.202-17.534c5.593-2.484 11.25-4.968 16.909-7.515m-55.11 25.05c6.615-3.175 13.295-6.285 20.04-9.394M720.187 664.45a2060.844 2060.844 0 0 1 26.93-14.404m90.806-44.463c6.218-2.735 12.437-5.407 18.787-8.141m-227.955 120.24c10.388-6.557 21.034-12.985 31.939-19.414M464.05 854.83c9.57-11.424 20.05-22.718 31.313-33.817m-.626 0c10.392-10.149 21.5-20.169 33.19-30.06m0 0a785.229 785.229 0 0 1 33.818-26.929m210.42-127.129a1643.356 1643.356 0 0 1 23.798-11.272M561.746 764.025a971.736 971.736 0 0 1 33.818-24.424m64.504-41.332c9.99-5.888 20.24-11.776 30.686-17.535M414.577 934.365c5.867-14.16 13.28-28.189 21.92-41.959m0 0c8.085-12.698 17.334-25.266 27.554-37.575m131.513-115.23c10.74-7.349 21.804-14.634 33.191-21.918m295.59-140.907c3.78-1.9 7.493-3.735 11.272-5.636m-23.797 11.899c4.131-2.11 8.328-4.153 12.525-6.263m-92.685 48.848c6.177-3.571 12.482-7.142 18.788-10.647m-60.747 35.07c7.198-4.405 14.526-8.745 21.919-13.15m0 .625a2787.244 2787.244 0 0 1 20.04-11.898m36.322-20.04c5.384-2.735 10.834-5.407 16.283-8.141m-33.817 18.16c5.78-3.174 11.625-6.283 17.534-9.393m-152.178 92.059a1055.048 1055.048 0 0 1 25.676-17.535m25.05-16.283a1825.47 1825.47 0 0 1 23.171-14.404m-47.595 30.06a1241.983 1241.983 0 0 1 24.424-15.656m117.735-67.009c4.738-2.483 9.602-4.967 14.404-7.514M536.07 892.406c5.56-12.698 12.283-25.2 20.04-37.575m-40.08 125.876c.128-15.468 2.05-31.002 5.636-46.342m34.444-78.908c7.075-11.423 15.05-22.718 23.798-33.817m318.76-231.712c4.55-2.275 9.164-4.615 13.778-6.89M579.908 821.64c8.078-10.148 16.867-20.168 26.302-30.06m-89.96 240.48s0-34.214.187-51.352m89.773-189.754c8.668-9.105 17.853-18.081 27.555-26.929m-112.099 170.34c3.355-14.095 8.222-28.124 14.404-41.959m125.25-152.805a915.78 915.78 0 0 1 27.555-21.918m0 0c8.718-6.557 17.694-12.985 26.929-19.414m-82.039 65.756a747.762 747.762 0 0 1 27.555-24.424M928.102 583.04c3.736-2.11 7.537-4.153 11.273-6.263m-50.726 28.808c4.736-2.735 9.602-5.407 14.404-8.141m-46.97 28.18c5.55-3.57 11.23-7.14 16.91-10.646m43.21-25.05c3.925-2.274 7.912-4.614 11.9-6.888M733.964 717.683c7.233-6.557 14.791-12.985 22.545-19.414m146.543-100.827c4.362-2.505 8.724-5.01 13.15-7.514m-43.21 25.676a713.125 713.125 0 0 1 15.656-9.394m-89.554 58.241a1353.912 1353.912 0 0 1 20.04-14.404m-41.332 30.06c6.902-5.26 14-10.458 21.292-15.656m-43.211 33.818c7.047-5.888 14.354-11.776 21.918-17.535m60.12-43.838a1241.677 1241.677 0 0 1 18.162-11.272m-205.41 195.39c5.353-10.149 11.406-20.169 18.161-30.06M711.42 739.6a558.046 558.046 0 0 1 22.545-21.918M626.25 892.406c1.917-12.633 5.112-25.2 9.394-37.575m53.857-90.806c6.834-8.206 14.183-16.347 21.919-24.424m-42.585 51.353c6.329-9.105 13.24-18.081 20.666-26.929m-56.988 216.683s-7.173-30.874-8.142-46.343m-.25 0a182.996 182.996 0 0 1 2.129-41.959m313.125-315.63c3.319-1.9 6.701-3.735 10.02-5.636"/><path d="M645.038 1032.06L632.513 980.707"/><path d="M819.135 650.048c6.178-4.406 12.419-8.746 18.788-13.152m-202.28 217.935c4.052-11.359 9.084-22.653 15.03-33.817m58.868 0c2.132-10.084 5.33-20.169 9.394-30.06m134.644-154.058a804.243 804.243 0 0 1 16.282-11.272M705.784 854.83c0-11.294 1.252-22.653 3.757-33.817m37.575-81.413a348.563 348.563 0 0 1 16.909-21.918m0 0a388.94 388.94 0 0 1 18.161-19.414m-72.019 194.137c-2.878-12.417-4.383-25.028-4.383-37.575m76.402-157.188a431.973 431.973 0 0 1 18.161-17.536m18.788-15.656a845.1 845.1 0 0 1 17.535-14.404m33.191-24.423a888.505 888.505 0 0 1 15.03-10.647M731.46 764.025c4.658-8.206 9.898-16.347 15.656-24.424m89.554-89.553c5.508-4.217 11.144-8.371 16.909-12.525m-135.27 153.43c3.664-9.082 8.048-18.037 13.151-26.928"/><path d="M748.369 980.707L774.045 1032.06"/><path d="M800.347 680.107c5.817-5.26 11.893-10.458 18.162-15.656m66.382-49.474c4.737-3.174 9.538-6.284 14.404-9.393M748.369 980.08s-15.599-30.83-23.172-46.342m187.25-336.297c4.109-2.505 8.284-5.01 12.524-7.514m-25.676 15.656c4.32-2.756 8.704-5.449 13.151-8.141m12.525-7.515c3.758-2.275 7.515-4.55 11.273-6.89M725.197 934.366c-6.701-13.748-11.776-27.821-15.03-41.959m236.723-315.63c3.131-1.923 6.263-3.78 9.394-5.636m-20.04 11.899c3.527-2.11 7.054-4.153 10.646-6.263m-8.141 6.263c3.504-2.11 7.075-4.153 10.646-6.263m-60.12 38.202a565.598 565.598 0 0 1 13.778-9.394M774.044 738.975c3.202-7.35 6.981-14.698 11.273-21.919m-9.394 137.775c-5.178-11.143-8.979-22.48-11.273-33.817m162.825-231.087a1712.16 1712.16 0 0 1 11.273-6.888m-23.172 14.404a966.277 966.277 0 0 1 11.9-7.515m-67.636 46.968a569.68 569.68 0 0 1 15.03-11.272m-45.09 308.741s-20.961-27.908-31.312-41.959m-33.818-71.392a135.172 135.172 0 0 1-2.44-30.06m23.733-73.898c3.92-6.556 8.346-13.048 13.151-19.413m-36.949 92.684a131.54 131.54 0 0 1 3.758-26.928M844.81 649.42c4.82-4.217 9.893-8.37 15.03-12.525m-30.686 26.929c5.023-4.888 10.242-9.646 15.656-14.404m-45.716 48.221a257.412 257.412 0 0 1 14.404-17.535m.626 0a345.78 345.78 0 0 1 15.03-15.656m73.898-58.867a478.644 478.644 0 0 1 12.524-8.141m33.818-20.667c3.11-1.856 6.284-3.78 9.394-5.636M765.904 763.399c1.971-8.206 4.706-16.412 8.141-24.424"/><path d="M903.053 1032.06L864.225 980.707"/><path d="M798.469 892.406c-9.109-12.267-16.731-24.856-22.545-37.575m98.947-229.207a515.525 515.525 0 0 1 14.404-10.647"/><path d="M864.851 980.081L829.781 933.739"/><path d="M301.853 211.673c12.42 10.4 25.802 20.672 40.08 30.686m-76.403-64.504c10.89 11.486 23.062 22.78 36.323 33.818m-67.636-72.02s19.091 25.287 30.687 37.576M626.25 387.022a2071.923 2071.923 0 0 0 33.817 13.152m61.373 23.171c8.891 3.362 17.846 6.658 26.929 10.02m-56.363-20.666a4947.099 4947.099 0 0 0 29.434 10.646M660.694 400.8c10.288 4.009 20.768 7.954 31.312 11.899m144.664 50.726c5.845 1.879 11.626 3.757 17.535 5.636"/><path d="M167.835 51.979L202.905 98.321"/><path d="M427.729 294.964c13.745 7.622 27.94 15.116 42.585 22.545m346.942 139.654c6.428 2.066 12.921 4.195 19.414 6.262"/><path d="M202.905 97.695L234.218 139.654"/><path d="M795.964 450.274c7.032 2.296 14.13 4.592 21.292 6.889m-43.837-15.03c7.68 2.713 15.426 5.427 23.171 8.14m-412.073-180.36c13.844 8.48 28.204 16.765 43.212 25.05m42.585 22.546a1704.804 1704.804 0 0 0 41.959 20.04m0 0c13.08 6.075 26.419 12.15 40.08 18.161m196.016 77.655c8.264 2.944 16.657 5.824 25.05 8.767M552.352 355.71a2439.498 2439.498 0 0 0 38.202 16.283"/><path d="M129.007 0L167.835 51.352"/><path d="M341.933 242.359c13.461 9.313 27.634 18.498 42.584 27.555m205.41 102.079c11.935 5.031 24 10.063 36.323 15.03M361.973 177.854c10.72 11.465 22.41 22.737 35.07 33.818m454.03 245.49c5.428 2.066 10.856 4.133 16.283 6.262M331.286 140.28c8.961 12.718 19.276 25.307 30.687 37.575M686.37 387.649a4366.235 4366.235 0 0 0 29.434 13.151"/><path d="M284.317 51.979L307.489 98.321"/><path d="M655.058 372.619c10.308 5.032 20.746 10.063 31.312 15.03"/><path d="M283.691 51.352L258.015 0"/><path d="M791.58 433.365c7.034 2.965 14.131 5.866 21.292 8.767m-415.83-230.46c11.771 10.38 24.318 20.63 37.576 30.687M307.488 98.32s14.746 28.188 24.425 41.959m535.443 323.771c4.967 1.879 9.999 3.758 15.03 5.637m-447.768-227.33c12.336 9.314 25.322 18.5 38.827 27.556m269.914 142.785a3293.232 3293.232 0 0 0 25.05 10.646m64.504 26.929l18.16 6.889m-82.664-33.818c7.638 3.384 15.404 6.702 23.171 10.02M715.804 400.8c9.054 3.945 18.24 7.954 27.555 11.899m70.14 29.433c6.429 2.714 12.921 5.428 19.413 8.142m-321.266-155.31a1382.235 1382.235 0 0 0 38.201 22.545m0 0c12.014 6.743 24.352 13.36 36.95 20.04m-113.352-67.635c12.446 8.414 25.41 16.764 38.828 25.05m74.523 43.211c11.454 6.097 23.101 12.193 35.07 18.161m0 0a1600.634 1600.634 0 0 0 33.192 16.283m28.807-16.283a1344.26 1344.26 0 0 0 28.808 16.283m-58.242-34.444c9.784 6.097 19.826 12.129 30.06 18.161m209.794 107.715c4.175 1.9 8.35 3.8 12.525 5.637M491.606 211.673c9.965 10.357 20.697 20.586 31.939 30.686m356.336 215.43c4.572 2.087 9.206 4.175 13.778 6.262M461.546 177.855c9.166 11.443 19.228 22.694 30.06 33.818m338.175 221.692c6.011 2.965 12.086 5.866 18.162 8.767m16.282 8.142c5.197 2.317 10.394 4.634 15.656 6.889m-31.938-15.03c5.592 2.713 11.25 5.427 16.908 8.14m-450.9-351.952c5.469 14.137 12.464 28.145 20.666 41.959m-34.443-88.301s7.733 31.088 13.777 46.342m350.7 302.479c7.638 3.945 15.405 7.954 23.172 11.899M434.618 140.28c7.824 12.696 16.887 25.264 26.928 37.575m348.195 246.116c6.615 3.384 13.295 6.702 20.04 10.02M712.673 372.62a1475.84 1475.84 0 0 0 26.928 15.03m-117.109-69.514c10.203 6.765 20.597 13.403 31.313 20.04m134.018 75.15a2307.866 2307.866 0 0 0 21.918 10.646M556.736 270.54c10.655 8.415 21.762 16.765 33.192 25.05m0 0c10.51 7.558 21.344 15.116 32.564 22.545"/><path d="M387.022 0L400.174 51.352"/><path d="M523.545 242.985c10.526 9.292 21.632 18.455 33.191 27.555m182.865 117.109c8.243 4.384 16.55 8.767 25.05 13.151M576.15 212.299c7.91 10.357 16.47 20.586 25.676 30.686m81.413 75.15a883.461 883.461 0 0 0 26.302 20.04m0 0c8.32 6.097 16.901 12.129 25.676 18.161M656.31 295.59c8.656 7.558 17.632 15.116 26.929 22.545m51.978 38.201c7.99 5.492 16.11 10.92 24.424 16.283M601.826 242.985c8.46 9.292 17.436 18.455 26.929 27.555m-75.776-92.685c6.86 11.379 14.627 22.694 23.171 33.818m52.605 58.867a743.68 743.68 0 0 0 27.555 25.05m185.996 128.381c5.78 3.384 11.625 6.702 17.535 10.02m43.838 23.798c3.966 2.087 7.87 4.175 11.899 6.262m-40.08-21.292c4.78 2.714 9.56 5.427 14.403 8.141m0-.626a642.036 642.036 0 0 0 13.152 6.889m-79.534-43.838c6.197 3.549 12.46 7.098 18.787 10.646m17.535 10.02c5.155 2.901 10.374 5.867 15.656 8.768m-116.482-70.14a1291.34 1291.34 0 0 0 23.171 15.03"/><path d="M516.249 0L516.437 51.352"/><path d="M803.479 401.426c6.572 3.966 13.274 7.997 20.04 11.899m-41.333-25.676A1553.31 1553.31 0 0 0 803.48 400.8m112.098 63.251c3.736 1.9 7.472 3.8 11.273 5.637M521.04 98.32c2.965 14.073 7.414 28.145 13.151 41.959M516.03 51.979s1.51 30.98 5.01 46.342m13.151 41.959c5.36 12.696 11.832 25.2 19.414 37.575m78.908-125.876s-7.488 30.83-8.768 46.342m104.584 219.814a663.827 663.827 0 0 0 21.918 20.04m21.293 18.161a679.93 679.93 0 0 0 20.666 16.283m-41.959-34.444c6.842 6.097 13.94 12.193 21.293 18.161m20.666 16.283c6.528 5.032 13.186 10.063 20.04 15.03M665.078 242.985a368.294 368.294 0 0 0 20.04 27.555m-37.576-58.868c5.102 10.294 10.968 20.587 17.535 30.687M624.371 140.28c1.701 12.568 4.646 25.135 8.768 37.575m0 0c3.665 11.379 8.279 22.63 13.777 33.818m59.494 83.917c6.983 7.558 14.29 15.116 21.919 22.545m-43.212-47.595c6.626 8.415 13.767 16.765 21.293 25.05m224.197 168.461c3.362 1.9 6.659 3.8 10.02 5.637m-75.776-45.717c4.947 3.384 9.957 6.702 15.03 10.02m14.404 8.768a2327.07 2327.07 0 0 0 13.151 8.141m-58.867-37.575a1805.098 1805.098 0 0 0 16.282 10.646m54.484 33.818c3.713 2.087 7.493 4.175 11.272 6.262m-23.17-13.777a532.647 532.647 0 0 0 11.898 6.889m-39.454-23.172c4.736 2.966 9.603 5.867 14.404 8.768m-63.251-41.333c5.78 3.945 11.626 7.954 17.535 11.899"/><path d="M645.038 0L632.513 51.352"/><path d="M623.196 98.321c-1.244 13.943-.83 28.016 1.175 41.959m187.875 247.369a1183.724 1183.724 0 0 0 18.788 13.151m-18.162-28.181c5.672 5.032 11.473 10.063 17.536 15.03m86.422 62.625c3.736 2.296 7.472 4.592 11.272 6.889m0 .626c3.505 2.066 7.076 4.133 10.647 6.262m0 0l9.394 5.637m-43.212-27.555a974.475 974.475 0 0 0 11.899 8.14m-38.827-26.302c4.55 3.384 9.163 6.702 13.777 10.02m-29.434-20.666c4.903 3.549 9.934 7.098 15.03 10.646m14.404 9.394c4.32 2.965 8.703 5.866 13.151 8.767M725.197 98.322s-12.141 27.8-15.656 41.958m85.796 216.056c5.612 5.492 11.478 10.92 17.535 16.283M846.69 400.8c5.091 4.009 10.374 7.954 15.656 11.899M704.57 177.855a181.795 181.795 0 0 0 2.466 33.818m8.142 30.686c3.475 9.227 7.672 18.455 12.524 27.555m0 0a273.63 273.63 0 0 0 15.03 25.05m-33.19-154.684c-3.007 12.375-4.698 25.007-5.01 37.575m2.504 33.818c1.816 10.314 4.572 20.564 8.142 30.686m61.998 95.816c5.77 6.075 11.802 12.15 18.161 18.161"/><path d="M748.369 51.979L725.197 98.321"/><path d="M829.781 387.649A508.687 508.687 0 0 0 846.69 400.8M742.732 294.964c5.178 7.622 10.88 15.116 16.91 22.545"/><path d="M774.045 0L748.369 51.352"/><path d="M759.641 318.135c5.48 6.744 11.346 13.424 17.535 20.04m46.969 34.444a472.553 472.553 0 0 0 15.03 15.03m-68.261-92.685a190.87 190.87 0 0 0 10.646 22.545m-18.161-47.595c1.768 8.414 4.294 16.764 7.515 25.05m10.646 22.545c3.926 6.743 8.31 13.423 13.151 20.04m-34.443-95.19a131.712 131.712 0 0 0 3.13 27.555m75.777 117.735a509.633 509.633 0 0 0 15.03 13.151"/><path d="M829.781 97.695L798.469 139.654"/><path d="M794.711 337.549c4.432 6.139 9.255 12.15 14.404 18.161m-10.646-216.056s-17.09 24.77-23.172 37.575m0 .626c-5.302 11.101-9.376 22.46-11.898 33.818m0 0c-2.185 10.12-3.246 20.436-3.122 30.686m48.838 113.977c4.75 5.47 9.76 10.876 15.03 16.283m117.109 91.432c3.11 1.879 6.284 3.758 9.394 5.637"/><path d="M864.225 51.979L829.781 98.321"/><path d="M903.053 0L864.851 51.352"/><path d="M931.234 457.163c3.297 2.066 6.659 4.195 10.02 6.262m-58.868-40.08c4.257 3.362 8.64 6.658 13.152 10.02m.626 0c4.11 2.944 8.286 5.824 12.525 8.767m-40.08-29.433c4.508 3.548 9.079 7.16 13.777 10.646M854.205 400.8a461.703 461.703 0 0 0 14.404 11.899m51.352 37.575c3.714 2.296 7.493 4.592 11.273 6.889m-22.545-15.03a943.54 943.54 0 0 0 11.899 8.14"/></g></g></g></svg>