<svg clip-rule="evenodd" fill-rule="evenodd" viewBox="0 0 1443 738" xmlns="http://www.w3.org/2000/svg" xmlns:xlink="http://www.w3.org/1999/xlink"><linearGradient id="a" gradientTransform="matrix(0 621.388 -621.388 0 720 .4)" gradientUnits="userSpaceOnUse" x1="0" x2="1" y1="0" y2="0"><stop offset="0" stop-color="#356ee3"/><stop offset="1" stop-color="#f3a2a2"/></linearGradient><linearGradient id="b" gradientTransform="matrix(0 197.5 -197.5 0 720.4 434.4)" gradientUnits="userSpaceOnUse" x1="0" x2="1" y1="0" y2="0"><stop offset="0" stop-color="#ffeacc"/><stop offset="1" stop-color="#fc8585"/><stop offset="1" stop-color="#f3a2a2"/></linearGradient><linearGradient id="c" gradientTransform="matrix(0 90.375 -90.375 0 720 635.869)" gradientUnits="userSpaceOnUse" x1="0" x2="1" y1="0" y2="0"><stop offset="0" stop-color="#f8e1ce"/><stop offset=".26" stop-color="#a1aa50"/><stop offset="1" stop-color="#305c15"/></linearGradient><linearGradient id="d"><stop offset="0" stop-color="#595341"/><stop offset="1" stop-color="#302d25"/></linearGradient><linearGradient id="e" gradientTransform="matrix(-74.1333 0 0 -74.1333 204 215.5)" gradientUnits="userSpaceOnUse" x1="0" x2="1" xlink:href="#d" y1="0" y2="0"/><linearGradient id="f" gradientTransform="matrix(-42.3619 0 0 -42.3619 424 269)" gradientUnits="userSpaceOnUse" x1="0" x2="1" xlink:href="#d" y1="0" y2="0"/><linearGradient id="g" gradientTransform="matrix(-21.1809 0 0 -21.1809 554 304)" gradientUnits="userSpaceOnUse" x1="0" x2="1" xlink:href="#d" y1="0" y2="0"/><linearGradient id="h"><stop offset="0" stop-color="#bb834a"/><stop offset="1" stop-color="#486e1a"/></linearGradient><linearGradient id="i" gradientTransform="matrix(-45.905 -58.8814 58.8814 -45.905 102.534 225.381)" gradientUnits="userSpaceOnUse" x1="0" x2="1" xlink:href="#h" y1="0" y2="0"/><linearGradient id="j" gradientTransform="matrix(-149.279 -46.3662 46.3662 -149.279 391.874 262.866)" gradientUnits="userSpaceOnUse" x1="0" x2="1" xlink:href="#h" y1="0" y2="0"/><linearGradient id="k" gradientTransform="matrix(-77.088 -14.7624 14.7624 -77.088 518.544 284.262)" gradientUnits="userSpaceOnUse" x1="0" x2="1" xlink:href="#h" y1="0" y2="0"/><linearGradient id="l" gradientTransform="matrix(-34.8449 0 0 -34.8449 588.845 304)" gradientUnits="userSpaceOnUse" x1="0" x2="1" xlink:href="#h" y1="0" y2="0"/><linearGradient id="m" gradientTransform="matrix(-145.057 -47.0361 47.0361 -145.057 388.12 264.81)" gradientUnits="userSpaceOnUse" x1="0" x2="1" xlink:href="#h" y1="0" y2="0"/><linearGradient id="n" gradientTransform="matrix(-77.6126 -14.7124 14.7124 -77.6126 518.806 284.441)" gradientUnits="userSpaceOnUse" x1="0" x2="1" xlink:href="#h" y1="0" y2="0"/><linearGradient id="o"><stop offset="0" stop-opacity=".66"/><stop offset="1" stop-color="#fff" stop-opacity="0"/></linearGradient><linearGradient id="p" gradientTransform="matrix(-4.74462 1.14115 -1.14115 -4.74462 13.2871 16.0344)" gradientUnits="userSpaceOnUse" x1="0" x2="1" xlink:href="#o" y1="0" y2="0"/><linearGradient id="q" gradientTransform="matrix(-2.46938 .116766 -.116766 -2.46938 5.97688 12.46)" gradientUnits="userSpaceOnUse" x1="0" x2="1" xlink:href="#o" y1="0" y2="0"/><linearGradient id="r" gradientTransform="matrix(-18.6219 3.62256 -3.62256 -18.6219 44.2656 46.2995)" gradientUnits="userSpaceOnUse" x1="0" x2="1" xlink:href="#o" y1="0" y2="0"/><linearGradient id="s" gradientTransform="matrix(-20.4179 5.18962 -5.18962 -20.4179 50.4498 49.1798)" gradientUnits="userSpaceOnUse" x1="0" x2="1" y1="0" y2="0"><stop offset="0" stop-opacity=".79"/><stop offset="1" stop-color="#fff" stop-opacity="0"/></linearGradient><linearGradient id="t" gradientTransform="matrix(-19.6036 3.39658 -3.39658 -19.6036 27.2025 47.9265)" gradientUnits="userSpaceOnUse" x1="0" x2="1" xlink:href="#o" y1="0" y2="0"/><linearGradient id="u" gradientTransform="matrix(-11.9492 2.09176 -2.09176 -11.9492 16.5811 24.8579)" gradientUnits="userSpaceOnUse" x1="0" x2="1" xlink:href="#o" y1="0" y2="0"/><linearGradient id="v" gradientTransform="matrix(-9.5838 1.87534 -1.87534 -9.5838 29.9716 24.1416)" gradientUnits="userSpaceOnUse" x1="0" x2="1" xlink:href="#o" y1="0" y2="0"/><linearGradient id="w" gradientTransform="matrix(-4.41568 .419229 -.419229 -4.41568 28.0923 21.5137)" gradientUnits="userSpaceOnUse" x1="0" x2="1" xlink:href="#o" y1="0" y2="0"/><linearGradient id="x" gradientTransform="matrix(-5.54064 6.22788 -6.22788 -5.54064 7.68836 23.8024)" gradientUnits="userSpaceOnUse" x1="0" x2="1" y1="0" y2="0"><stop offset="0" stop-opacity=".5"/><stop offset="1" stop-color="#fff" stop-opacity="0"/></linearGradient><linearGradient id="y" gradientTransform="matrix(-7.40814 .0129741 -.0129741 -7.40814 10.2798 10.4956)" gradientUnits="userSpaceOnUse" x1="0" x2="1" y1="0" y2="0"><stop offset="0" stop-color="#fff" stop-opacity="0"/><stop offset="1" stop-opacity=".5"/></linearGradient><g transform="translate(1.24924 1.24924)"><path d="m.4.4h1439.2v715.2h-1439.2z" fill="url(#a)" stroke="#979797" stroke-width=".8"/><path d="m720.4 434.4c90.735 0 164.4 73.665 164.4 164.4s-72.553 134.634-163.288 134.634-165.512-43.899-165.512-134.634 73.665-164.4 164.4-164.4z" fill="url(#b)"/><path d="m635.229 583.2v10.287h16.882v1.908h4.931v2.474h2.846v33.917h4.795v-21.811h18.165v14.741h42.558v-3.092h18.166v3.671h3.308v-27.426h16.714v3.196h12.766v2.071h11.614v-5.267h11.03v33.917h1.769v-33.917h18.165v33.917h2.527v-7.07h53.109v13.559h.575v-6.489h10.483v-33.917l33.511 25.925v38.606h8.184l.001-26.985 54.735-.001v-11.698l27.987-8.559 25.73 8.559v29.061h53.71v-44.754h53.71v101.577l-39.2-.001v.001h-739.2v-5.601l-9.6.001v-91.2l53.665 21.25v.275h21.466v28.075h5.622v-34.306h24.533v3.115l10.733.001v3.115h5.622v7.364h27.6v-10.479h62.354l-.001 31.19h.406v-46.753h28.004v9.648h12.559v-27.426h3.584v-2.474h4.017v-1.908h16.748v-10.287z" fill="#496183"/><path d="m0 646.152h1440v89.848h-1440" fill="url(#c)"/><path d="m581.6 653.6-161.444 82.4h-159.287z" fill="#fff8ee"/><path d="m859.2 653.6 152.46 82.4h74.81z" fill="#fff8ee"/><g transform="translate(0 299.2)"><path d="m120 108.286 84-11.286v237h-71.279z" fill="url(#e)"/><path d="m376 208.381 48-6.381v134l-40.731-1.48z" fill="url(#f)"/><path d="m530 274.143 24-3.143v66l-20.365-.729z" fill="url(#g)"/><path d="m1 0 119.873 56.34c1.015.477 1.679 1.481 1.722 2.602l10.405 274.058h-132z" fill="url(#i)"/><path d="m204 97.469v237.748l181 .783-3.123-150.235c-.024-1.091-.638-2.082-1.603-2.59-117.516-61.686-176.274-90.255-176.274-85.706z" fill="url(#j)"/><path d="m424 202v132.851l112 2.149v-73.558c0-1.109-.611-2.127-1.59-2.648z" fill="url(#k)"/><path d="m554 271v66h43l-4.05-48.775c-.094-1.136-.824-2.121-1.884-2.541z" fill="url(#l)"/><path d="m0 331 598 4.955v25.263l-598 4.782z" fill="#202b3b"/></g><g transform="matrix(-1 0 0 1 1440 299.2)"><path d="m120 108.286 84-11.286v237h-71.279z" fill="url(#e)"/><path d="m376 208.381 48-6.381v134l-40.731-1.48z" fill="url(#f)"/><path d="m530 274.143 24-3.143v66l-20.365-.729z" fill="url(#g)"/><path d="m1 0 119.873 56.34c1.015.477 1.679 1.481 1.722 2.602l10.405 274.058h-132z" fill="url(#i)"/><path d="m203 97v241.217l181 .783-3.123-150.263c-.022-1.077-.62-2.059-1.566-2.573-117.541-63.991-176.311-93.713-176.311-89.164z" fill="url(#m)"/><path d="m424 202.457v132.394l112 2.149v-74.154c0-.742-.41-1.422-1.066-1.769z" fill="url(#n)"/><path d="m554 271v66h43l-4.101-49.393c-.063-.758-.55-1.414-1.256-1.694z" fill="url(#l)"/><path d="m0 331 598 4.955v25.263l-598 4.782z" fill="#202b3b"/></g><g transform="translate(621.45 673.2)"><path d="m12.855 5.59-.001.052c.488.293.803.752.803 1.268 0 .09-.01.179-.028.265 1.948-.182 4.633-1.065 6.5-1.065 1.39 0 1.831 1.108 1.324 3.324-5.199 2.193-8.024 2.649-8.475 1.368-.341-.969-.865-1.727-1.035-2.315-.112.015-.226.023-.344.023-.686 0-1.293-.261-1.667-.663-.615-.094-1.075-.478-1.075-.937s.46-.842 1.074-.937c.375-.402.982-.663 1.668-.663l.159.005c.173-.23.363-.448.57-.654.373-.37.549-.06.527.929z" transform="matrix(.898794 .438371 -.438371 .898794 5.05553 -5.87735)"/><path d="m18.9 11.943c.675-.161 1.086-.184 1.234-.067.148.116.102.426-.138.93-.262.417-.487.689-.675.814.028.087-.037.163-.193.227-.4.165-1.124-.271-.8-.436.142-.073.307-.097.493-.075.002-.145.05-.333.079-.584.017-.145.017-.415 0-.809z"/><path d="m18.1 11.143 1.259.875c-.335.435-.614.709-.834.823.012.078-.054.147-.197.206-.4.165-1.124-.271-.8-.436.153-.078.331-.101.534-.069.015-.052.03-.126.038-.236.012-.164.012-.551 0-1.163z"/><path d="m17.447 12.752c.549.002.904.017 1.065.046.141.025-.908.764-.845.808.091.062.945-.537 1.153-.522.125.008.125.214 0 .616l-7.972 6.666h-10.848c7.085-3.756 11.101-5.735 12.048-5.938s1.809-.203 2.586 0z" fill="url(#p)"/><path d="m21.141 9.124c.245-.076.368-.531.368-1.366 0-.045.494-.401.333.885-.112.89-.345 1.284-.701 1.181z"/><path d="m12.144 8.72s-.931-.093-1.303.259c-.169.16-.345.383-.529.67-.099.154-.054.358.099.456.042.027.09.044.139.05.245.029.487-.075.633-.274.071-.096.167-.169.29-.217.238-.094.563-.094.975 0-.203-.629-.304-.944-.304-.944z"/><path d="m12.944 9.52s-.931-.093-1.303.259c-.169.16-.345.383-.529.67-.099.154-.054.358.099.456.042.027.09.044.139.05.245.029.487-.075.633-.274.071-.096.167-.169.29-.217.238-.094.563-.094.975 0-.203-.629-.304-.944-.304-.944z"/><circle cx="6.05" cy="2.5" r="2.5"/><ellipse cx="5.05" cy="12.5" fill="url(#q)" rx="2.5" ry="1"/></g><g transform="translate(678.894 647.2)"><path d="m25.628 41.983c-.028-.011-.083-.032-.121-.049-.038-.014-.121-.045-.18-.07-.128-.048-.135-.09-.066-.295.166-.463.529-1.523.647-1.878.073-.229.152-.445.169-.476.021-.035.035-.087.035-.115s.014-.08.035-.115c.017-.031.072-.177.117-.32.049-.142.211-.629.367-1.077.152-.449.339-.998.415-1.217.072-.219.252-.745.394-1.165.145-.418.253-.772.235-.786-.014-.011-.131-.056-.266-.097-.322-.101-.432-.153-.429-.195 0-.018.045-.167.097-.33.073-.22.114-.3.163-.306.038-.004.204.038.373.097.173.056.322.094.339.076.014-.014.104-.253.197-.528.097-.278.273-.793.394-1.148.121-.354.287-.838.367-1.077.08-.24.159-.463.176-.494.021-.035.035-.087.035-.115s.014-.08.035-.115c.017-.031.11-.292.207-.58.093-.286.242-.724.329-.974.09-.247.221-.633.294-.852.072-.219.259-.768.415-1.217.155-.448.342-.998.415-1.217.2-.598.494-1.457.678-1.964.086-.247.166-.494.176-.55.01-.052.031-.104.048-.115.018-.01.032-.048.032-.086 0-.035.013-.094.034-.129.017-.031.142-.386.277-.789.204-.619.491-1.461.564-1.652.044-.118.245-.709.411-1.2l.173-.521-.284-.504c-.159-.279-.318-.56-.356-.626s-.107-.192-.155-.278c-.045-.087-.097-.171-.111-.192-.014-.017-.073-.121-.128-.226-.208-.382-.298-.542-.36-.633-.038-.048-.065-.1-.065-.111 0-.01-.077-.149-.17-.306-.09-.16-.207-.358-.252-.445-.049-.087-.149-.264-.225-.4-.076-.132-.177-.313-.225-.4s-.145-.257-.218-.382-.169-.296-.218-.383c-.107-.194-.339-.605-.432-.765-.038-.066-.107-.191-.156-.278-.045-.087-.097-.17-.11-.191-.014-.017-.073-.122-.128-.226-.059-.104-.267-.473-.46-.817-.194-.344-.395-.696-.443-.782-.107-.195-.339-.605-.426-.755-.038-.063-.093-.167-.128-.226-.183-.327-.269-.48-.594-1.054-.198-.344-.384-.678-.419-.737-.038-.062-.093-.167-.131-.226-.568-1.005-.903-1.603-.903-1.617 0-.01-.028-.059-.066-.107-.059-.087-.11-.181-.342-.598-.045-.087-.135-.244-.197-.348-.063-.104-.152-.264-.201-.351-.048-.091-.346-.619-.664-1.179s-.616-1.088-.667-1.179c-.049-.087-.204-.361-.346-.612-.249-.434-.305-.532-.467-.827-.073-.132-.073-.136-.007-.174.252-.153.702-.407.719-.407.014 0 .274.445.602 1.043.049.087.138.244.201.348.062.104.152.264.204.358.231.417.276.501.335.588.038.048.066.1.066.111 0 .01.159.295.349.636.194.341.381.671.415.73.038.063.094.167.132.226.052.094.297.529 1.151 2.038.035.059.097.17.135.243.042.07.132.23.204.355.07.125.166.296.215.383.048.086.245.438.443.782.197.344.401.713.459.817.056.104.115.209.128.226.014.021.066.104.115.191.045.087.169.306.273.487s.235.417.294.522c.055.104.263.473.46.817.193.344.401.713.46.817.055.104.114.208.128.226.014.021.065.104.11.191.049.087.118.212.156.278s.128.223.201.348c.072.125.176.313.235.417.055.105.114.209.128.226.014.021.069.115.121.209.052.097.135.243.183.33.045.087.097.174.111.191.014.021.072.122.128.226.059.105.135.247.173.313s.301.529.581 1.026.539.953.57 1.009c.032.059.101.173.149.26.049.087.1.153.118.15.014 0 .107-.237.2-.522.173-.507.35-1.022.388-1.123.01-.028.11-.327.221-.661.114-.333.218-.639.235-.678.014-.038.049-.132.069-.208.025-.077.056-.171.073-.209.035-.073.363-1.039.505-1.478.048-.142.1-.292.118-.33.017-.038.048-.132.072-.209.021-.076.052-.17.069-.208.014-.038.052-.139.08-.226s.18-.525.332-.974c.156-.448.304-.893.335-.991.028-.094.066-.205.083-.243.014-.038.052-.139.08-.226s.163-.477.297-.869c.135-.393.284-.831.332-.974.045-.143.101-.289.118-.32.021-.035.035-.09.035-.125s.01-.073.02-.087c.021-.021.163-.424.55-1.572.087-.247.256-.747.381-1.112.124-.362.308-.894.401-1.183.097-.285.187-.552.204-.591.017-.038.093-.257.17-.486.29-.873.411-1.207.446-1.242.034-.035.366.059.646.181.038.014.097.038.132.049.062.021.079.121.031.181-.017.017-.048.1-.073.187-.024.087-.058.188-.076.226-.041.098-.301.866-.363 1.078-.031.098-.073.223-.1.278-.024.059-.069.185-.097.279-.031.097-.138.417-.242.712-.104.296-.253.727-.329.957-.079.229-.283.831-.456 1.338-.173.508-.36 1.054-.415 1.217-.056.164-.187.546-.294.852s-.27.793-.367 1.078c-.097.289-.187.553-.204.591s-.104.289-.19.556c-.09.268-.177.519-.19.557-.018.038-.07.188-.118.33-.048.143-.228.675-.401 1.182-.173.508-.36 1.054-.415 1.217-.056.164-.225.664-.381 1.113-.155.449-.325.949-.38 1.113-.232.699-.384 1.133-.415 1.189-.021.035-.035.069-.035.076 0 .021.246.112.778.292.671.23.616.195.554.341-.028.07-.052.153-.052.188 0 .031-.031.087-.069.122-.038.034-.069.09-.069.121 0 .032-.014.07-.031.091-.014.017-.049.108-.073.198-.024.094-.062.177-.083.184-.052.018-.311-.076-.325-.118-.007-.021.031-.156.079-.306.049-.146.076-.278.063-.292-.035-.031-.426-.15-.44-.136-.014.021-.176.466-.263.727-.041.125-.086.257-.103.296-.018.038-.104.288-.191.556-.086.268-.172.518-.19.556-.017.039-.065.181-.107.313-.038.136-.138.431-.221.661-.083.229-.166.473-.187.539-.066.215-.284.848-.315.921-.017.039-.069.188-.117.331-.049.142-.211.629-.367 1.077-.156.449-.325.95-.38 1.113-.253.758-.526 1.554-.554 1.617-.014.038-.1.289-.19.556-.086.268-.173.518-.19.557-.018.038-.111.306-.204.591-.318.953-.526 1.565-.557 1.634-.017.038-.08.212-.135.383-.055.173-.221.657-.367 1.077-.145.421-.325.946-.397 1.165-.073.219-.26.769-.415 1.217-.156.449-.305.887-.332.974-.028.087-.066.188-.083.226-.014.038-.038.101-.045.139-.018.063-.433 1.276-.485 1.408-.086.223-.242.696-.256.776-.01.052-.031.104-.048.114-.017.011-.031.056-.031.101s-.014.094-.035.104c-.017.011-.034.053-.034.087 0 .035-.014.073-.028.084-.014.007-.183-.038-.37-.104-.19-.067-.356-.115-.374-.108-.027.007-.121.264-.421 1.154-.063.191-.243.716-.398 1.165-.152.449-.374 1.092-.484 1.426-.384 1.13-.37 1.105-.519 1.057z" fill-rule="nonzero" transform="matrix(1 0 0 -1 0 42)"/><path d="m50.443 41.739c-.055-.035-.176-.149-.263-.25-.155-.174-.166-.181-.245-.136-.401.247-.695.351-.996.351-.633 0-1.391-.455-1.615-.973-.07-.164-.07-.598 0-.803.051-.157.051-.254-.011-.397-.072-.167-.207-.657-.207-.751 0-.059.038-.174.086-.261.111-.198.107-.233-.021-.504-.301-.633-.377-.827-.377-.966 0-.115.08-.213.17-.213.083 0 .28-.1.301-.153.01-.024-.007-.09-.038-.146-.073-.142-.066-.233.034-.326.09-.084.114-.188.052-.226-.059-.035-.038-.178.038-.275.062-.077.069-.122.052-.24-.062-.376-.062-.466-.007-.574.035-.069.09-.114.163-.128.11-.025.508 0 .913.055.487.066 1.048.098 1.169.063.152-.042.474-.355.474-.463 0-.055-.076-.146-.239-.292-.318-.285-.598-.639-.712-.893-.201-.459-.194-.452-.353-.473-.104-.014-.166-.045-.218-.111-.042-.053-.097-.094-.125-.094-.031 0-.135-.077-.231-.171-.101-.094-.284-.219-.415-.278-.128-.059-.239-.108-.246-.108s-.163-.069-.342-.156c-.184-.087-.339-.157-.35-.157-.01 0-.117-.045-.235-.097-.121-.056-.325-.143-.46-.195-.131-.055-.27-.111-.301-.128-.114-.059-.138-.039-.114.1l.021.129-.419-.007c-.408-.007-.418-.01-.626-.132-.221-.132-.325-.146-.657-.09-.104.017-.366.048-.584.073-.218.021-.516.055-.657.073-.142.017-.329.041-.415.052-.087.007-.35.038-.588.069-.239.028-.55.066-.692.084-.962.111-.892.083-1.401.56-.173.16-.439.406-.598.549-.156.143-.28.275-.273.296.006.017.058.059.114.09.055.031.18.101.273.156.097.053.29.16.432.237.543.292.682.365.917.494.135.076.315.17.401.215s.221.136.294.198c.121.108.128.126.083.174-.045.045-.073.049-.173.014-.111-.042-1.708-.841-2.324-1.165l-.266-.142-.073.069c-.083.077-.325.091-.595.032-.079-.018-.239-.053-.346-.077-.183-.038-.207-.056-.308-.212-.058-.094-.173-.223-.249-.292-.107-.09-.141-.146-.145-.226 0-.087-.024-.122-.138-.184-.076-.046-.215-.122-.312-.178-.093-.052-.259-.142-.363-.201-.103-.056-.204-.115-.224-.129-.018-.014-.111-.07-.208-.122-.481-.271-.671-.358-.82-.379-.211-.024-.28-.069-.446-.288-.076-.101-.176-.195-.221-.205-.159-.039-.1-.112.104-.126.283-.017.377.014.709.247.169.118.314.212.325.212.01 0 .107.052.218.119.207.118.491.274.788.438.097.048.263.142.374.205.11.062.211.104.221.094.014-.011 0-.084-.024-.157-.024-.076-.042-.181-.038-.236.003-.052.003-.209.003-.344 0-.206.014-.268.087-.376.048-.07.086-.139.086-.153s.035-.069.08-.125c.072-.091.103-.101.325-.111.19-.007.273.003.373.055.087.045.149.056.187.038.059-.031.484-.163.706-.215.069-.017.193-.049.276-.066.08-.021.277-.049.44-.066.245-.025.812-.188.985-.285.021-.011.104-.039.19-.063.087-.024.187-.059.225-.073s.132-.045.208-.07c.076-.024.187-.062.242-.086.1-.039.37-.129.709-.226.086-.028.169-.06.187-.077.02-.014.058-.028.086-.028s.225-.055.436-.121c.356-.115.501-.16.761-.23.059-.014.19-.052.294-.08s.29-.073.415-.097c.249-.045.546-.226 1.252-.748.09-.069.145-.076.394-.076.159.003.291.01.291.014 0 .003-.025.066-.056.139-.058.146-.041.295.049.375.1.087.401.129.937.129.415 0 .557.014.733.069.291.087.796.209 1.034.247.104.018.308.049.45.073.142.025.353.042.467.042.235 0 1.11-.077 1.203-.104.063-.021.156-.209.374-.744.201-.505.204-.522.204-.964v-.424l-.353-.247c-.193-.132-.37-.243-.394-.243s-.055.056-.066.132c-.1.671-.29 1.109-.522 1.207-.242.1-.432.052-.733-.188-.27-.216-.453-.188-.643.101-.07.104-.09.18-.09.323 0 .157-.014.202-.09.271-.076.073-.121.084-.336.084-.245 0-.633-.07-.695-.129-.021-.014-.062-.028-.097-.028-.034 0-.09-.014-.124-.031-.031-.017-.208-.104-.395-.195-.66-.32-1.155-.716-1.822-1.453-.695-.769-1.045-1.238-1.256-1.694-.173-.379-.218-.559-.183-.768.035-.205.335-.501.674-.664.242-.115.346-.143.824-.237.376-.073.978-.031 1.545.108.284.07.775.219.9.271.038.018.131.06.207.091.336.146.785.375 1.059.542.743.456.843.504 1.259.605.21.052.428.105.484.122.059.017.166.045.242.066s.27.077.429.125c.159.049.29.087.297.08.004-.007.024-.062.049-.128.065-.202.044-.39-.07-.626-.083-.167-.1-.247-.083-.331.07-.337.063-.393-.058-.549-.156-.202-.201-.289-.201-.389 0-.094-.069-.129-.398-.209-.18-.045-1.373-.139-2.317-.184-.17-.007-.394-.028-.498-.046-.104-.02-.27-.034-.37-.034s-.256-.014-.349-.032c-.09-.017-.267-.052-.388-.073-.27-.048-.404-.114-.775-.379-.629-.452-1.068-.966-1.335-1.568-.02-.049-.069-.351-.107-.678-.038-.323-.093-.754-.121-.956-.027-.202-.069-.49-.086-.643-.059-.438-.101-.748-.225-1.669-.08-.567-.201-1.322-.294-1.843-.017-.094-.049-.292-.066-.435-.021-.142-.052-.368-.069-.504-.021-.132-.059-.445-.09-.695-.028-.247-.066-.553-.086-.679-.018-.125-.042-.295-.052-.382-.069-.511-.087-.556-.239-.64-.128-.069-.169-.181-.211-.535-.017-.16-.01-.191.062-.261.045-.042.111-.094.149-.118.062-.039.059-.045-.073-.174-.356-.337-.826-.661-1.31-.894-.343-.167-.74-.334-.792-.334-.018 0-.08-.034-.135-.076-.132-.09-.232-.313-.235-.504 0-.136.01-.153.114-.195.193-.083.505-.108 1.321-.111.795 0 .975.017 1.76.156.374.066.429.087.543.192.073.066.18.142.239.173.1.053.114.053.197 0 .049-.034.107-.107.128-.163l.038-.104.329.02c.18.014.456.042.608.063l.284.038.021.126c.034.226.021 1.418-.021 1.599-.038.167-.035.177.045.243.045.039.121.091.169.115.173.091.246.188.294.397.073.305.066.399-.038.483-.1.08-.11-.025.09 1.088.021.108.052.278.069.372.021.098.052.278.073.411.055.326.08.319.343-.115.031-.049.124-.195.21-.331.208-.316.488-.768.578-.921.038-.066.142-.247.232-.4.152-.257.162-.285.142-.441-.035-.258.086-.449.335-.529.055-.017.055-.024-.003-.125-.191-.313-.395-.525-.588-.616-.536-.253-1.086-.695-1.2-.97-.063-.153-.066-.306-.007-.354.096-.08.484-.122 1.165-.126.799-.003 1.014.028 1.404.206.893.41.948.448.948.653 0 .202.097.376.249.459.121.063.131.063.194.007.034-.031.083-.059.107-.059.062 0 .574.522.64.654.065.125.052.25-.049.546-.117.34-.259.587-.456.799-.184.199-.194.22-.156.299.135.268.139.338.045.536-.1.205-.173.278-.27.278-.038 0-.086.038-.114.087-.069.125-.294.622-.294.647 0 .01-.045.115-.1.233-.242.525-.315.688-.315.702 0 .007-.055.132-.121.275-.066.146-.121.271-.121.281 0 .011-.055.136-.121.282-.066.143-.121.268-.121.278 0 .007-.031.091-.073.181-.041.091-.086.198-.103.243-.018.042-.045.112-.063.157-.017.042-.076.195-.128.337-.1.275-.166.435-.332.8-.19.403-.19.393.045.574.197.149.239.167.716.267.28.06.578.119.664.136.087.017.263.052.398.084.131.027.249.038.263.024.017-.014.031-.101.038-.198l.01-.174 1.097-.011 1.096-.007.01-.132c.011-.125.014-.128.16-.139l.145-.01-.007-3.71-.01-3.71-.243-.035-.02-.473-.353-.226c-.443-.285-.72-.463-1.138-.727-.183-.115-.346-.233-.363-.261-.017-.027-.028-.118-.017-.198l.013-.149h6.219v.167c0 .173-.021.222-.104.26-.027.014-.152.087-.273.164-.118.076-.221.139-.228.139s-.177.101-.381.226-.377.226-.384.226c-.017 0-.57.341-.622.386-.031.024-.042.09-.031.202.024.233 0 .281-.142.281-.069 0-.118.018-.118.045v7.355c0 .024.049.041.118.041.187 0 .228.028.228.16v.118h1.017c.823 0 1.024.011 1.055.049.027.031.038.223.031.598l-.01.553-.706.017c-.726.018-.768.028-.491.139.176.073.505.362.681.599.298.406.519 1.001.605 1.634.042.309.032.615-.041 1.053-.059.345-.055.571.01.713.087.188.142.442.118.536-.01.045-.076.16-.145.25-.163.212-.291.469-.291.581 0 .156-.076.49-.225 1.001-.048.163-.086.337-.086.393 0 .063.069.188.201.362.311.413.477.671.522.817.021.069.055.181.072.243.083.282.025.605-.152.814-.1.118-.339.615-.591 1.227-.052.125-.121.289-.156.365-.034.077-.111.258-.169.4-.153.358-.173.407-.208.497-.014.042-.045.119-.069.174-.021.052-.052.129-.069.174-.014.042-.045.115-.066.164-.183.434-.647 1.616-.688 1.755-.187.612-.374 1.012-.526 1.134-.048.042-.239.167-.418.282-.18.114-.447.295-.588.403-.142.104-.346.254-.45.334-.104.076-.245.188-.308.243-.065.056-.183.129-.263.164-.176.08-.235.146-.314.344-.146.375-.384.66-.547.66-.11 0-.294-.059-.429-.135-.093-.052-.107-.038-.29.275-.132.226-.201.403-.201.521 0 .049.049.219.104.383.055.163.121.413.145.556.021.143.056.282.073.302.017.025.086.053.159.067.356.059.73.278.73.424s-.616.674-1.384 1.189c-.18.122-.391.271-.463.334-.073.062-.249.174-.388.247-.141.069-.255.146-.255.166 0 .046.148.192.287.279.107.069.121.184.034.292l-.062.073z" fill-rule="nonzero" transform="matrix(1 0 0 -1 0 50.1156)"/><path d="m40.96 41.697 5.163-.226c-9.806 7.032-14.62 10.541-14.441 10.529s5.335-3.545 15.469-10.598l3.078-.262-18.547 14.268h-8.576z" fill="url(#r)"/><path d="m51.47 41.722h5.219l-22.592 18.84h-6.816z" fill="url(#s)"/><path d="m23.545 41.38-23.545 15.028 14.662.392 25.031-15.42-22.32 7.71z" fill="url(#t)"/></g><g transform="translate(495.583 653.2)"><path d="m37.396 3.827-.029-.827.029.107c.028.106.071.893.071.893zm.07 3.954c-.004.123-.049.219-.049.219l.01-.068s-.054-.178-.054-.247.024-.219 0-.26c-.023-.042.027-.425.027-.425s.098.123.056.26c-.041.137-.073.11-.039.206.033.096.054.191.049.315zm-3.098.219s.01-.211 0-.368c-.01-.158.079-.632.079-.632s.08.632-.079 1zm-5.243 12.447c.011 0-.054-.04-.082-.141-.027-.1.036-.447-.126-.598.074.031.14-.054.208-.177.095-.168.056-.481.056-.441 0 .071.236.86.236.86s-.302.497-.292.497zm9.18-13.428c-.039-.138.011-.289 0-.4-.012-.11-.03-.289-.006-.427.024-.137-.037-.179-.01-.303s0-.206-.081-.316c-.081-.111-.028-.538-.001-.813.027-.276-.534-.551-.534-.551s-.123-.441-.191-.606c-.069-.165-.383-.496-.493-.62-.109-.124-.15-.702-.232-1.171-.082-.468-.808-.812-1.218-.771-.288-.165-.794.207-1.068.455-.273.247-.232.606-.232.606v.468c0 .11-.055.551-.068.647-.014.097-.315.524-.425.62-.109.096-.15.289-.15.331 0 .041-.205.22-.233.289-.027.069-.095.427-.136.468-.042.042-.233.22-.343.386-.109.165-.082.702-.082.702s-.178 1.02-.219 1.323.11.661.178.991c.068.331.014.29 0 .524-.013.234.602.454.602.454l.137.675s-.096.51-.109 1.116c-.005.195.029.528.079.91l-.205.35s-.503.577-.635.719-.934 1.42-.934 1.42-1.137 1.162-1.181 1.189c-.045.026-.265.284-.265.284s-.264-.036-.564-.045-.67.284-.67.284-.291-.097-.441-.097-.722.204-.837.212c-.115.009-.247.205-.291.329s-.035.55 0 .645c.035.096.194.02.22.003.027-.018.106.071.105.097-.001.027 0 .098 0 .098s.027.302.01.381c-.018.08-.018.284.053.382.07.098.229.053.255.089.027.035.097 0 .097 0s.053.23.053.302c0 .07.229.567.282.674.053.106.177.736.177.736s-.009.196-.009.267-.044.24-.097.373.141.186.264.16c.124-.027.459-.097.459-.097s.158-.019.185-.001c.026.017.247-.098.317-.204.07-.107-.017-.329-.017-.329s.088-.097.14-.195c.054-.098.027-.32-.008-.479-.036-.16.22-.373.22-.373s-.026.506-.026.621c0 .116-.071.302-.141.435-.071.133.123.187.123.187s.115.008.3 0c.185-.009.044-.231.035-.293s-.009-.258.018-.409c.026-.151.082-.674.082-.674s.094-.062.208-.177c.115-.116.098-.418.124-.568.026-.151.114-.559.159-.915.044-.354-.133-.523-.177-.594s-.035-.178-.097-.382c-.061-.204-.361-.372-.361-.372s.696-.763.934-1.021c.238-.257.565-.621.829-1.003.265-.381.82-1.153 1.04-1.446.099-.131.203-.279.288-.401.106.775.262 1.686.297 2.027.054.537-.055 1.281-.014 1.97.041.688.52 2.107.52 2.107s0 .248-.014.317 0 .537 0 .606-.055.799-.096 1.143c-.041.345.082.734.575.65.492-.083.383-.939.369-1.159-.013-.221-.041-1.46-.041-1.46l-.178-.069.083-.138s-.137-1.928-.151-2.08c-.014-.151.082-.509.123-.606.041-.096.041-.289.055-.661.013-.372.041-1.584.041-1.722 0-.137.15-1.308.15-1.308s.069.427.069.702c0 .276-.109 1.584-.137 1.722-.027.138.068.62.082.73s.151.95.164 1.24c.014.289.206 1.928.206 1.928l.068.096-.096.097.014.096v1.019c0 .207-.096 1.006-.083 1.282.012.275.22.302.316.289.095-.014.519-.056.588-.179.068-.124.068-1.171.027-1.323-.041-.151-.013-.551-.027-.688-.014-.138-.137-.524-.137-.524l.068-.069s.247-2.162.219-2.548c-.027-.385-.246-1.116-.15-1.543.096-.426.233-1.005.465-1.721.233-.717.315-1.915.315-1.915l.219-.385s.26.041.314 0c.055-.042.069-.235.123-.359.055-.124.302-.964.37-1.143s.096-.565.096-.661c0-.097.082-.221.109-.331.028-.11-.068-.44-.107-.578z" fill="#131514"/><path d="m23.407 16.526c-.017-.204-.046-.504-.039-.635.008-.131.026-.131.052-.248.027-.117-.019-.241-.013-.292.005-.051.02-.369.027-.35.022.058.033 1.999.033 1.999s-.044-.27-.06-.474zm3.988-5.758c-.022-.123-.02-.426-.003-.492s-.042-.582-.042-.73-.101-1.198-.101-1.444-.135-.746-.135-.845c0-.098-.067-.484-.067-.484s-.051-.238-.144-.303c-.093-.066-.076-.214-.076-.337s-.067-.475-.101-.574c-.033-.098-.067-.525-.092-.713-.026-.189-.144-.632-.169-.739-.025-.106-.084-.353-.084-.484s-.397-.287-.59-.394c-.194-.106-.835-.377-.835-.377s.008-.238.017-.303c.008-.066.025-.14.042-.164.017-.025.034-.124.017-.279.093-.017.101-.099.109-.222.093.008.194-.09.236-.262.043-.173.059-.312-.109-.394.05-.181-.017-.328-.219-.681-.177-.64-.987-.624-1.585-.427-.599.197-.599.993-.599 1.313s.253.656.262.993c-.119.041-.11.098-.186.18s-.236.09-.236.09-1.298.378-1.45.443c-.152.066-.211.263-.245.361-.033.099-.059.238-.101.32s-.042.164-.042.238-.042.074-.076.115c-.033.041-.017.074-.008.164.008.09-.017.148-.042.213-.026.066-.161.238-.186.328s-.126.517-.143.607-.304 1.058-.337 1.141c-.034.082-.093.426-.144.639-.05.214-.093.419-.143.575-.051.155-.236 1.173-.236 1.279 0 .107-.135 1.551-.135 1.551l.211.074s.05.188.177.394c.126.205.337.303.438.295s.135-.107.068-.164c-.068-.058-.068-.14-.068-.14l.118-.033c.118-.032 0-.369 0-.369l.135-.041v-.137c0-.138.051-.338.084-.494.034-.156.059-1.108.059-1.288 0-.181.11-.263.144-.337.034-.073.278-.919.362-1.206.085-.287.253-.992.253-.992s.118.533.093.771.008.525 0 .64c-.009.115-.093 2.28-.093 2.28h.186s.058 2.363.058 2.716c0 .352.144 2.05.144 2.296s.109.706.109.837.262.525.279.591c.016.066.194.492.219.558.025.065.042.246.042.303 0 .058.169.213.228.254s.092.197.109.222.068.09.068.09l.362.254s-.034.214-.05.304c-.017.09-.093.476-.034.837s.101.755.101.755-.11.27-.143.328c-.034.057-.051.188-.11.352-.059.165-.076.313.135.353.211.041.792.041.978-.04.186-.082.236-.14.253-.288s.025-.41.025-.41l.101-.099s.009-.254.009-.311c0-.058.042-.14.042-.189s.118-.361.143-.459c.026-.099-.067-.419-.101-.509s-.008-.172.059-.279c.068-.107.076-.377.084-.541.009-.164.161-.657.245-1.083.084-.427.177-1.583.152-1.698-.026-.115.076-.189.126-.369.051-.181 0-.419-.008-.525-.009-.107.017-.37.033-.46.017-.09.085-.303.085-.451s.084-.73.16-.902c.076-.173.202-1.075.303-1.329.101-.255.101-.656.101-.656l.228-.173v-.902c0-.205-.067-.591-.101-.738-.034-.148-.051-.435-.068-.616-.016-.18-.134-.927-.134-.927l.093.115s.151.599.16.681c.008.082.076.705.118.837.042.131.202.623.252.755.051.131-.025.303-.016.36.008.058.033.197.05.288.017.09-.042.344-.05.385-.009.041-.051.509-.051.509l.076.057s-.009.222-.009.304 0 .23.161.156c.025 0-.026.147-.152.238-.126.09.017.18.135.09s.32-.271.354-.361.202-.263.202-.263.135-.008.22-.024c.084-.017.058-.255.036-.378z" fill="#131514"/><path d="m23.084 20.859-23.084 9.431 7.163-.075 17.032-9.356z" fill="url(#u)"/><path d="m33.467 20.859-16.794 7.85h5.411l13.994-7.85z" fill="url(#v)"/><path d="m28.667 20.859-6.702 2.219h4.097l4.844-2.842h-.92z" fill="url(#w)"/></g><g transform="translate(764.005 638.2)"><path d="m17.367 7.92c-.351-.174-.539-.147-.721-.134-.181.013-.422-.027-.422-.027l.117-.22v-.174l-.299-.153s-.292.294-.493.501-.11.327-.136.393c-.026.067.032.201 0 .281-.033.08-.708.394-1.195.621s-1.033.62-1.033.62l-.227-.334v-.086s-.182-.247-.344-.474c-.163-.227-.143-.407-.182-.528-.039-.12.006-.253.039-.36.032-.107-.013-.114-.117-.287s-.136-.2-.149-.3c-.013-.101-.195-.301-.318-.401-.124-.1-.364-.414-.416-.507.019-.214-.123-.301-.123-.301s-.013-.133 0-.233-.111-.16-.228-.261c-.162-.16-.48-.214-.597-.3-.117-.087-.227-.501-.24-.561s-.078-.26-.078-.26l.13.106s.006-.053-.033-.146c-.039-.094-.078-.321-.078-.321l.15.254s.026-.047 0-.114c-.026-.066-.15-.427-.137-.634s-.214-.387-.292-.454c-.078-.066-.188-.287-.097-.407.045.029.056.114.071.211.009-.03.045-.063.085-.117.058-.081-.027-.187-.027-.187s-.032-.154-.045-.201c-.013-.046.039-.26.11-.32.098.067.014.2.014.2s.064-.046.09-.147c.026-.1-.071-.2-.071-.2s.026-.12.039-.2.026-.3.084-.528c.059-.226-.136-.493-.207-.574-.072-.08-.358-.247-.572-.427s-.487-.267-.766-.213c-.279.053-.214.287-.214.287s-.046.053-.117.166c-.072.114-.28.114-.377.127-.097.014-.058.107-.019.167s.019.067.006.107-.097.033-.097.033l-.013.101-.052.006c.006.067-.039.1-.097.114-.059.013-.137.04-.137.153 0 .114.039.174.175.281.137.106.156.26.182.5.026.241.176.828.176.828-.085.093-.072.24-.072.24l-.162.154s-.013.033.019.093c.033.06-.013.161-.013.221s-.11.834-.11 1.174c0 .341.376.668.376.668l-.019.421-.39.153s-.169-.22-.22-.367c-.052-.147.032-.427.058-.541.026-.113-.084-.153-.175-.173s-.085-.08-.091-.12c-.007-.041-.065-.027-.104-.014-.039.014-.052-.04-.046-.1-.071.007-.136-.067-.136-.067s.013-.08.039-.173c.026-.094-.364-.04-.454-.014-.091.027-.156-.04-.228-.12-.071-.08-.331-.173-.682-.02-.35.154-.506.554-.584.748s-.11.494-.045.587c.052.076.019.113.005.178.006.177.112.35.398.561-.103.11 0 .283 0 .283.019.025.041.052.064.076.098.104.221.251.494.378.272.127.435.093.642.027-.084.353.046.64.189.827s.422.714.617.948c.194.234.805.608.85.648.046.04.221.207.227.24.007.033.189.107.286.14.098.034.052.054.065.14.013.087.11.141.13.167.02.027.026.174-.006.247-.033.074.026.147.026.147s-.072.307-.065.755c.006.447.143.7.221.834s.117.247.142.387c.027.14.299.441.338.501s.15.267.24.414c.091.147.221.954.254 1.114.032.161.065 1.149.11 1.222.046.074-.045.067-.071.081-.026.013-.052.086-.052.16 0 .073-.046.08-.111.147-.065.066-.026.12-.045.193-.02.074-.046.087-.026.134.019.046-.02.1-.039.14-.02.04-.013.073-.02.14-.006.067-.006.033-.039.134-.032.1-.253.814-.298 1.194-.046.381-.254 1.682-.241 1.843.014.16-.188 1.221-.188 1.221l.059.06s-.026.154-.026.428c.097.153.519.127.519.127l.338-.02s.143-.007.273.006c.129.014.798.121 1.279.14.48.02.63-.146.63-.226 0-.081-.364-.208-.624-.341s-.643-.427-.643-.427l-.071-.414s.805-.154 1.052-.187.259-.16.24-.234c-.019-.073-.422-.073-.422-.073l-.007-.06s-.123-.174-.136-.22c-.013-.047-.078-.187-.104-.234s-.078-.24-.058-.294c.019-.053-.033-.294-.033-.294s.085-.16.111-.22.032-.113.058-.254c.026-.14.214-.881.344-1.134.13-.254.559-1.95.624-2.123.065-.174.078-.568.065-.735-.014-.167-.124-1.989-.15-2.41-.026-.42-.325-1.041-.325-1.041s.306.254.54.327c.233.074.46-.087.46-.087s.416.247.578.368c.163.12.611.547.734.654.124.106 1.136 1.001 1.247 1.115.11.113.571.694.623.794s.195.407.351.621c.156.213.104.447.058.594-.045.147-.032.267.104.387.137.12.513-.294.682-.647.169-.354-.007-.735-.084-.928-.078-.194-.091-.421-.091-.421l.402.214.169-.307-.013-.181s-.558-.407-.675-.453c-.117-.047-.533-.014-.663-.001-.129.014-.72-.767-1.175-1.482-.454-.714-1.266-1.161-1.266-1.161s.188-.194.585-.594c.396-.401.857-.654 1.233-.828.377-.174.993-.461 1.117-.527.123-.067.305-.02.565.066.26.087.344-.02.39-.12.045-.1-.273-.387-.624-.56zm-7.348-4.87c-.013-.034-.024-.067-.036-.1-.023.033-.018.065.036.1z" fill="#131514"/><path d="m11.219 21.872h-1.54l-9.679 8.128h7.934z" fill="url(#x)"/></g><g transform="translate(1019 668.2)"><path d="m4.874 9.992c-.312-.033-.616-.259-.768-.567-.065-.131-.069-.154-.069-.346 0-.119.02-.331.049-.507.045-.269.047-.31.02-.357-.026-.05-.024-.058.015-.082.031-.023.039-.046.033-.091-.004-.035-.019-.061-.029-.061-.014 0-.012-.011 0-.027.018-.02-.004-.051-.095-.131l-.119-.105-.174-.006c-.123-.006-.187-.019-.224-.045l-.051-.035.065.012c.087.017.216-.008.206-.039-.004-.014-.066-.049-.14-.078-.119-.047-.283-.172-.257-.197.005-.006.042.015.081.043.073.056.217.099.19.058-.008-.012-.055-.041-.104-.064-.058-.024-.107-.068-.14-.119-.078-.123-.226-.246-.326-.273-.048-.012-.124-.037-.167-.055-.08-.035-.178-.134-.178-.177 0-.09-.121-.262-.343-.492-.181-.187-.263-.289-.323-.402-.045-.084-.133-.212-.199-.281-.076-.08-.125-.156-.139-.206-.011-.045-.035-.139-.054-.213-.018-.074-.047-.156-.063-.185-.027-.043-.023-.043.024.011.054.057.054.059.041.01-.008-.029-.074-.17-.147-.318-.138-.277-.183-.437-.161-.562.023-.132.048-.144.05-.027 0 .131.037.207.121.256.057.033.063.033.063.004 0-.018-.022-.063-.051-.102-.084-.109-.086-.191-.012-.351.057-.125.061-.146.041-.211-.012-.041-.047-.101-.076-.132-.043-.045-.049-.063-.033-.09s-.008-.148-.096-.494c-.134-.518-.167-.69-.222-1.184-.023-.204-.058-.399-.082-.468-.06-.169-.039-.249.121-.487.041-.061.086-.145.1-.188.041-.126.195-.247.497-.392.255-.123.349-.154.624-.201.058-.009.354-.023.658-.031.618-.017.667-.01.765.102.031.037.158.119.284.185.123.066.275.154.336.195.306.207 1.198.837 1.481 1.049.421.316.794.545 1.205.742.183.089.341.16.349.158.008 0 .07-.08.138-.178.24-.347.577-.634.975-.835.166-.084.575-.257 1.417-.595.673-.273 1.051-.448 1.115-.52.022-.022.125-.08.23-.125l.189-.084h.47c.258 0 .733.01 1.055.021.62.02.717.035.817.129.043.039.045.055.033.148-.006.055-.02.113-.031.123-.01.014 0 .033.027.049.033.021.039.041.031.092-.008.054-.002.07.033.087.059.024.067.098.016.149-.035.035-.037.05-.018.101.018.049.018.072-.011.113-.03.047-.041.049-.182.041-.089-.006-.239-.039-.366-.078-.402-.127-.688-.154-1.133-.113-.273.027-.624.14-.865.277-.49.283-.778.505-1.384 1.061-.156.141-.505.441-.776.665-.622.513-1.006.851-1.004.884.002.014.076.129.165.257.191.275.427.517.583.599.228.119.492.342.492.416 0 .025.017.078.035.117.027.06.029.082.011.125-.019.039-.019.066-.002.095.024.047-.005.141-.056.185-.049.041-.031.106.062.233.121.161.127.187.049.263-.053.056-.06.068-.037.105.014.022.189.258.388.523.201.267.431.579.513.696.171.24.173.207-.012.377-.047.045-.142.164-.211.265-.07.1-.134.183-.144.183-.008 0-.037-.033-.062-.072-.024-.039-.049-.072-.055-.072-.004 0-.129.109-.275.242-.181.16-.284.24-.316.24-.027.002-.066.017-.087.035-.02.016-.061.037-.092.045-.066.015-.025.07-.805-1.089l-.567-.844.415-.365c.23-.199.425-.371.433-.378.011-.008-.006-.063-.037-.123-.067-.135-.078-.182-.041-.199.048-.016.037-.125-.022-.25-.029-.062-.056-.154-.064-.205-.01-.087-.027-.111-.199-.277-.249-.24-.846-.645-.889-.6-.006.007-.019.078-.027.163-.02.17-.035.229-.205.855-.173.628-.24.926-.267 1.16-.012.112-.033.262-.045.33-.019.105-.019.142.008.215.068.193.179.485.209.559.035.078.035.08-.024.184-.054.095-.068.107-.136.113-.055.004-.084.021-.111.062-.018.03-.059.082-.09.113-.072.073-.074.141-.004.178.074.041.092.086.061.148-.02.039-.024.115-.018.275.004.123 0 .236-.01.25-.015.021-.039.021-.117.004-.054-.012-.105-.014-.113-.006-.017.023-.175.421-.175.447-.002.035-.113.195-.201.292-.092.098-.304.217-.448.25-.123.027-.63.041-.813.023zm1.833-1.242c.022-.137.006-.207-.038-.186-.032.016-.07.266-.043.297.038.049.065.016.081-.111zm-.627-1.645c.057-.076.108-.156.113-.179.004-.025.036-.17.071-.326.033-.156.062-.296.062-.308s-.041.047-.092.133c-.052.087-.111.171-.136.187-.037.027-.041.043-.029.142.011.09.002.141-.047.299-.033.103-.057.189-.053.189s.053-.062.111-.137zm-3.121-.259c0-.004-.033-.039-.074-.078-.052-.049-.068-.057-.058-.029.021.058.072.113.105.113.014 0 .027-.002.027-.006zm-1.167-1.416c-.014-.014-.037-.059-.053-.098-.031-.068-.031-.07-.033-.013 0 .031.019.074.041.097.045.045.08.055.045.014zm-.209-.938c-.014-.032-.047-.073-.076-.094-.029-.018-.049-.025-.043-.014.004.008.035.069.068.137.049.095.063.111.067.074.005-.025-.004-.072-.016-.103zm.125.025c-.024-.08-.084-.195-.098-.183-.011.013.088.24.104.24.004 0 .002-.026-.006-.057zm.01-.287c-.016-.031-.049-.074-.075-.097-.054-.047-.037-.012.041.086.065.083.073.085.034.011zm-.113-.308c-.005-.002-.035.023-.066.057-.035.039-.044.087-.018.138.036.076.036.074.062-.056.017-.073.026-.135.022-.139zm3.592.207c0-.01.07-.098.154-.199.086-.1.148-.189.139-.197-.008-.008-.072-.035-.139-.061-.222-.087-.534-.23-.575-.267-.023-.021-.076-.047-.117-.058-.072-.02-.078-.016-.13.05-.043.057-.051.082-.039.143.013.068.035.089.243.226.127.084.273.199.33.263.097.108.134.135.134.1z" fill-rule="nonzero" transform="matrix(1 0 0 -1 0 10)"/><ellipse cx="7.5" cy="10.5" fill="url(#y)" rx="7.5" ry="1"/></g></g></svg>