<svg xmlns="http://www.w3.org/2000/svg" viewBox="0 0 426.76 727.9"><defs><style>.cls-1{fill:#bccbd9;}.cls-2{fill:#e25540;}</style></defs><title>Element 1</title><g id="Ebene_2" data-name="Ebene 2"><g id="Ebene_1-2" data-name="Ebene 1"><path class="cls-1" d="M422.52,45.93c2.6-6.72,4.69-13.58,4.16-20.94a17.41,17.41,0,0,0-4.88-11.58c-8-7.9-16-11.06-26.1-6.24L393,8.75a18,18,0,0,1-6.2,1.16,19.81,19.81,0,0,1-4.13-.44L381,9l-.07,0h0q-7.33-2-14.74-3.63C349.78,1.69,333.26-1,316.48.33c-7.19.55-14.75,1.43-21.27,4.2-7.07,3-14,7.47-20.75,11.75h0l-9.82,5.91a24.56,24.56,0,0,1-13.69,3.49c-11.9-.14-23.82,1.22-35.73,1.93-4.22.25-4.41.45-5.32,4.51a123.63,123.63,0,0,0-2.58,32.53c.49,12,3.15,23.44,8.9,34,5.17,9.51,12.77,16.48,23,20.13,8.49,3,17.24,5.34,25.69,8.48a65.22,65.22,0,0,1,13.83,7.07c5.42,3.68,6.73,10.19,3.36,15.24a61.75,61.75,0,0,1-9.22,11.47c-7.27,6.64-14.86,13-22.66,19-10.3,7.92-15.91,15.29-24.49,25.1-4.78,5.46-7.09,4-9.5,3.34-5.41-1.37-10.86-2.6-16.29-3.94-11.39-2.8-22.8-5.52-34.15-8.47-9-2.34-18-4.73-26.86-7.58-7.25-2.33-43.59-19.54-51.1-27s-14.41-14.93-18.2-24.27c-3.22-7.92-6.29-15.93-10.09-23.58C55.6,105.67,48.69,101.69,39.75,102c-11.87.38-23.1,2.89-32.53,10.77-.41.35-9.5,12.52-6.13,32.08,2.77,18.67,24.68,43.06,28,46.66C48.89,212.78,100,253.3,105.84,257.4q10.64,7.42,21.45,14.59c5.2,3.45,10.54,6.68,15.8,10,7.29,4.65,14.56,9.34,21.86,14,3.77,2.39,7.69,4.55,11.38,7.06s3.45,5-.57,7c-12.53,6.37-25.11,12.65-37.64,19-10.61,5.39-21.22,10.79-31.77,16.3a51,51,0,0,1-24,5.63c-4.18-.36-9.83,0-14.07-4.11A61,61,0,0,1,62,339.1c-4.62-6.31-10-12-16.78-15.76-5.66-3.11-11.92-5.16-18-7.54a22.11,22.11,0,0,0-20,3.67C-3,325.28-1,347.28,4.55,354c9.56,11.6,23,25.76,30.26,32,10.92,9.34,23,16.74,35.44,23.66,10.25,5.7,21.39,7.91,32.95,8.45,14.9.69,29.59-1.17,44.12-4.16,8-1.65,15.86-4,23.76-6.09,5.75-1.55,11.44-3.3,17.18-4.9,2.13-.6,3.41.43,3.62,3.33q.62,8.64.85,17.31c.27,10.52.22,21.05.71,31.56.18,3.76,1.35,7.52,2.43,11.16.64,2.17.17,3.32-1.78,4.22-9.37,4.33-18.92,8.31-28,13.18-6.86,3.68-13.25,8.31-19.59,12.88a122,122,0,0,0-22.36,20.95c-9.94,11.92-16.86,25.19-18.5,40.8a372.4,372.4,0,0,0-1.34,58.93c.29,5.39.88,10.77,1.45,16.15,1.18,11.22-4.61,19.16-12.4,26-3,2.67-6.71,2.14-10.6-.4a58.66,58.66,0,0,0-23.21-9c-3.95-.62-7.95-.92-11.91-1.48-5-.7-11.27-.9-15.09,1.68-3.33,2.25-5.46,4.1-8.19,9.56-2.1,4.19-3.41,12.29,0,22.3,4.1,6.37,15.6,12.5,21.34,15.46a138.2,138.2,0,0,0,19.09,7.65c5,1.68,10.27,2.48,15.36,3.9A68.39,68.39,0,0,1,102.9,720c6,4.45,13,6.14,20.26,7.15,3.59.5,19.28,2.92,23.48-5.13a73.49,73.49,0,0,0,5.89-16.37c1.74-6.85,2.9-13.84,4.4-20.76,1.17-5.36,2.7-10.65,3.67-16a75.53,75.53,0,0,1,8.75-24.29c2.82-4.92,6.9-9.19,10.73-13.46a143.16,143.16,0,0,1,22.72-20.93c8.73-6.27,17.33-12.76,26.43-18.45a193.66,193.66,0,0,1,22.22-11.45c5.7-2.61,16.61.3,24.28,15.31,5.57,10.89,37.68,51,58.55,64.18,3.74,2.36,4.1,12.29.68,13.65s-27.72,5.51-38.2,10.55c-4.78,2.3-10.19,7.07-9.59,12,1,8.33,4.23,16.46,10.24,22.53,6.18,6.23,11.51,8.28,20.48,8.19,6.95-.07,18.11-4,23.87-6.9a190.65,190.65,0,0,0,28-16.67c12.3-9,24.72-18.08,35.66-28.73,10.77-10.49,7.46-22.48,5.66-28.2-3-9.44-3-19.31-4.24-29-1-7.75-1.41-15.59-1.95-23.4-1.15-16.74-3.83-40.12-3-56.88.68-14.34,13-13,12-33.36-.48-10.31-3-20.44-5-30.56s-25.44-91.92-28-99a64.89,64.89,0,0,1-1.69-39.36c3.47-13.22,8.12-26.12,12.06-39.22,4-13.36,7.79-26.8,11.72-40.19,3.09-10.55,3.22-21.35,2.68-32.17-.75-15.09-1.6-30.18-.5-45.29.37-5.1.43-10.34,1.73-15.22,1.25-4.69,4-9,5.94-13.5,4.68-10.87,7.77-22.08,7.91-34,.2-16.94-2.09-33.67-3.88-50.44a15.46,15.46,0,0,1,1.22-8.69C419.63,52.6,421.21,49.31,422.52,45.93Z"/><path class="cls-2" d="M391.92,9.41l-3.49-3.93a1.41,1.41,0,0,0-2-.13L331.71,52.93c-.37-.44-.7-.84-.88-1.07-1.25-1.59-3.33-4.33-4-5.35-.14-.21-.3-.44-.45-.63a45.86,45.86,0,0,0-9.15-9.42c-10.27-8.07-15.9-9-23.68-10.3-3.93-.71-9.74-2.09-11.07-2.75-.24-.12-.39-.31-.8-.86a13.56,13.56,0,0,0-3-3.08,22.1,22.1,0,0,0-6.84-3l-.74-.22-.65.41c-2.51,1.57-4.43,2.73-6.21,3.75l-3.86,2.22,4.35.93a16.88,16.88,0,0,1,7.07,3.4c3.18,2.55,4.66,6.06,4,9.38-.06.28-1.31,10.12-1.73,13.69-.06.5-.08,1-.09,1.37,0,.19,0,.38,0,.55l-.09,1.3a56.37,56.37,0,0,0,.12,12.6c1.3,9.12,12.52,17.42,19.09,21.56a23.49,23.49,0,0,0,12.54,4,19.64,19.64,0,0,0,9.58-2.52c5.62-3.1,8.88-8.87,12-14.45.48-.85,1-1.7,1.44-2.54.79-1.36,1.45-2.62,2-3.84l.42,0a3.67,3.67,0,0,1,.44,0c.52.08,2.56,1.53,3.49.6l3.41-3.41c1.16-1.16-.19-3.54-.75-5l54.18-48.58A1.58,1.58,0,0,0,391.92,9.41Zm-81.1,71.65c-4,2.22-8.31,1.84-13.1-1.18-9.75-6.14-14.58-12.11-15-15.3-.53-3.7,1.64-22.3,2.64-24.64.46-1.08,2.2-4.6,5.18-4.6,5.6.16,12.5,1.25,21.23,8.1,8.54,6.71,8.54,12.91,8.54,14.94C320.27,68.49,316.29,78,310.82,81.05Z"/></g></g></svg>