<?xml version="1.0" encoding="UTF-8"?>
<svg width="42px" height="43px" viewBox="0 0 42 43" version="1.1" xmlns="http://www.w3.org/2000/svg" xmlns:xlink="http://www.w3.org/1999/xlink">
    <title>Group 14</title>
    <g id="Web" stroke="none" stroke-width="1" fill="none" fill-rule="evenodd">
        <g id="DT---Home-" transform="translate(-403.000000, -3107.000000)">
            <g id="Group-15" transform="translate(355.000000, 2624.000000)">
                <g id="Group-14" transform="translate(48.000000, 483.500000)">
                    <circle id="Oval" stroke="#FDFFD6" fill="#FDFFD6" cx="21" cy="21" r="20.5"></circle>
                    <path d="M33.5358636,11.1543221 C33.6443226,11.9797614 33.5758921,12.8326782 33.3185393,13.6507707 C33.2901427,13.7410399 33.2596175,13.8303399 33.2270248,13.9186114 L33.164,14.077 L35.7269165,12.9225267 L33.8355147,15.7985698 C33.235646,16.710723 32.4992702,17.527158 31.658511,18.2124253 C31.659175,22.0209556 30.1758571,25.992934 27.3454998,28.8700089 C24.9262005,31.3292409 21.5296145,33 17.233385,33 C14.3675581,33 11.6999271,32.1463197 9.45401598,30.6826792 L5.86065672,28.3409186 L10.1191612,28.8520087 C10.449232,28.8916226 10.7850619,28.9119826 11.12562,28.9119826 C12.3099148,28.9119826 13.4375323,28.6656243 14.4616929,28.2205852 C14.1791082,28.073311 13.9101227,27.9028787 13.6571765,27.7117332 C12.7119247,26.9974284 11.9913659,25.9930784 11.6242957,24.8281054 L11.152,23.33 L11.0533393,23.2012323 C10.3950269,22.305106 9.98535086,21.2089147 9.93018445,20.0184978 L9.923795,19.7421617 C9.923795,19.1571278 10.0093794,18.5924091 10.1684188,18.0602713 L10.26,18.138 L10.2288587,18.0443208 C10.0804905,17.5698261 9.99064342,17.0688464 9.96800076,16.5501523 L9.96232,16.2893697 C9.96232,15.2288523 10.243784,14.2350017 10.7337467,13.3804838 C10.9764553,12.9571887 11.2745155,12.5607765 11.6250558,12.2036018 C11.8587857,12.5653363 12.111232,12.9154066 12.3813838,13.2522727 C14.2471482,15.5787891 16.9111114,17.2177368 19.9503645,17.7338946 L20.205,17.773 L20.2116056,17.5159181 C20.2771604,16.12186 20.8287197,14.8574569 21.6965873,13.8925286 L21.874328,13.7035863 C22.9107353,12.6501325 24.3428911,12 25.92382,12 C27.356135,12 28.668897,12.533741 29.6738102,13.417359 C30.4470876,13.2121074 31.1773662,12.8988211 31.848289,12.4943054 C32.4606546,12.1250954 33.0288904,11.67668 33.5358636,11.1543221 Z" 
                    id="Fill-1" stroke="#currentColor" stroke-width="2" stroke-linejoin="round"></path>
                </g>
            </g>
        </g>
    </g>
</svg>