<?xml version="1.0" encoding="UTF-8"?>
<svg width="954px" height="176px" viewBox="0 0 954 176" version="1.1" xmlns="http://www.w3.org/2000/svg" xmlns:xlink="http://www.w3.org/1999/xlink">
    <!-- Generator: Sketch 46.2 (44496) - http://www.bohemiancoding.com/sketch -->
    <title>Cardstack Horizontal Lockup</title>
    <desc>Created with Sketch.</desc>
    <defs></defs>
    <g id="Page-1" stroke="none" stroke-width="1" fill="none" fill-rule="evenodd">
        <g id="Cardstack-Horizontal-Lockup">
            <g id="Page-1" transform="translate(1.000000, 0.000000)">
                <g id="Group-3">
                    <g id="Group-2">
                        <polygon id="Fill-1" fill="#00B3DC" points="0.264722222 134.310793 82.7871169 175.711246 118.950681 157.66889 36.2033592 116.385314"></polygon>
                        <polygon id="Fill-2" fill="#00B3DC" points="0.144040033 87.8560558 129.49891 152.402496 165.530546 134.427237 36.1756758 69.8807963"></polygon>
                        <polygon id="Fill-3" fill="#00B3DC" points="129.36071 105.854474 165.420461 87.8575709 129.388826 69.880147 93.3290738 87.874886"></polygon>
                        <polygon id="Fill-4" fill="#77C376" points="0 41.3058694 82.7797635 82.6132538 118.839515 64.6163504 36.0532634 23.3197879"></polygon>
                        <polygon id="Fill-5" fill="#77C376" points="129.388177 59.34974 165.564718 41.3073844 129.511454 23.3191386 93.3305878 41.3614942"></polygon>
                        <polygon id="Fill-6" fill="#77C376" points="82.7782496 -0.000432878013 46.6017087 18.0549091 82.7869006 36.0972647 118.959116 18.0549091"></polygon>
                    </g>
                    <g id="Group" transform="translate(215.674976, 40.342812)" fill="#362B71">
                        <path d="M74.117226,7.95378143 C66.6073992,3.41318153 57.8459345,0.908022963 48.4586509,0.908022963 C21.7048927,0.908022963 0.427049952,20.3230018 0.427049952,48.9757529 C0.427049952,77.4719316 20.2968002,97.0434829 48.4586509,97.0434829 C57.8459345,97.0434829 67.2332181,94.5383243 74.5865902,90.1542968 L74.5865902,79.0376557 C67.859037,85.3005521 58.158844,88.2754279 48.3021962,88.2754279 C27.3372629,88.2754279 10.2836977,72.9313317 10.2836977,48.9757529 C10.2836977,25.0201742 27.3372629,9.67607794 48.3021962,9.67607794 C58.158844,9.67607794 67.3896728,12.8075261 74.117226,19.226995 L74.117226,7.95378143 Z" id="C"></path>
                        <path d="M151.092951,69.7998835 L106.03399,69.7998835 L96.3337972,95.4777588 L86.3206947,95.4777588 L122.305282,2.47374707 L134.665205,2.47374707 L171.119156,95.4777588 L160.793144,95.4777588 L151.092951,69.7998835 Z M147.963857,61.6581182 L128.407016,10.3023676 L109.00663,61.6581182 L147.963857,61.6581182 Z" id="A"></path>
                        <path d="M196.308367,59.4661044 L196.308367,95.4777588 L186.608174,95.4777588 L186.608174,2.31717466 C190.832452,1.69088502 198.811643,0.908022963 204.287558,0.908022963 C229.320315,0.908022963 240.4286,12.4943813 240.4286,29.7173465 C240.4286,43.4957186 232.605864,53.6729252 220.24594,57.2740907 L251.067521,95.4777588 L239.020508,95.4777588 L210.232838,59.4661044 L196.308367,59.4661044 Z M196.308367,9.67607794 L196.308367,51.4809115 L206.00856,51.4809115 C221.341123,51.4809115 230.415498,44.2785806 230.415498,30.0304913 C230.415498,18.1309881 223.062125,9.36293312 204.131104,9.36293312 C202.253647,9.36293312 198.498733,9.51950553 196.308367,9.67607794 Z" id="R"></path>
                        <path d="M265.93072,95.6343312 L265.93072,2.16060225 C272.814728,1.37774019 279.229372,0.908022963 285.018197,0.908022963 C327.573883,0.908022963 341.967717,22.9847328 341.967717,46.7837392 C341.967717,72.9313317 326.791609,97.0434829 286.269835,97.0434829 C278.447099,97.0434829 272.501819,96.4171933 265.93072,95.6343312 Z M275.630914,10.1457952 L275.630914,87.9622831 C279.385827,88.4320003 282.984286,88.5885727 286.42629,88.5885727 C313.023593,88.5885727 331.79816,75.2799179 331.79816,46.9403116 C331.79816,25.0201742 317.87369,9.67607794 284.705288,9.67607794 C281.732648,9.67607794 278.916463,9.83265035 275.630914,10.1457952 Z M355.590092,89.841152 C361.222463,94.2251795 369.201654,97.0434829 379.214756,97.0434829 C395.955412,97.0434829 409.410518,88.7451452 409.410518,71.6787524 C409.410518,55.3952218 400.336144,48.9757529 383.126124,43.0260013 C369.671018,38.328829 364.351557,33.9448015 364.351557,25.0201742 C364.351557,15.4692571 371.548475,9.20636071 382.030941,9.20636071 C390.479496,9.20636071 396.737686,12.3378089 404.247512,18.2875605 L404.247512,8.26692625 C398.615142,3.72632635 391.105315,0.908022963 382.030941,0.908022963 C368.106471,0.908022963 354.964274,9.0497883 354.964274,24.8636017 C354.964274,40.6774152 363.882193,46.1574495 380.466394,52.2637735 C391.57468,56.3346562 399.86678,60.5621113 399.86678,71.6787524 C399.86678,83.8914004 390.323042,88.7451452 379.214756,88.7451452 C369.827473,88.7451452 363.099919,85.1439797 355.590092,79.1942281 L355.590092,89.841152 Z M458.861026,10.9286572 L489.526152,10.9286572 L489.526152,2.47374707 L418.495706,2.47374707 L418.495706,10.9286572 L449.160833,10.9286572 L449.160833,95.4777588 L458.861026,95.4777588 L458.861026,10.9286572 Z" id="DST"></path>
                        <path d="M549.583139,69.7998835 L504.524178,69.7998835 L494.823985,95.4777588 L484.810883,95.4777588 L520.79547,2.47374707 L533.155393,2.47374707 L569.609344,95.4777588 L559.283332,95.4777588 L549.583139,69.7998835 Z M546.454045,61.6581182 L526.897204,10.3023676 L507.496818,61.6581182 L546.454045,61.6581182 Z" id="A"></path>
                        <path d="M649.088345,7.95378143 C641.578518,3.41318153 632.817054,0.908022963 623.42977,0.908022963 C596.676012,0.908022963 575.398169,20.3230018 575.398169,48.9757529 C575.398169,77.4719316 595.267919,97.0434829 623.42977,97.0434829 C632.817054,97.0434829 642.204337,94.5383243 649.557709,90.1542968 L649.557709,79.0376557 C642.830156,85.3005521 633.129963,88.2754279 623.273315,88.2754279 C602.308382,88.2754279 585.254817,72.9313317 585.254817,48.9757529 C585.254817,25.0201742 602.308382,9.67607794 623.273315,9.67607794 C633.129963,9.67607794 642.360792,12.8075261 649.088345,19.226995 L649.088345,7.95378143 Z" id="C"></path>
                        <path d="M669.583914,95.4777588 L679.284107,95.4777588 L679.284107,2.47374707 L669.583914,2.47374707 L669.583914,95.4777588 Z M679.909926,49.758615 L724.343069,95.4777588 L736.859447,95.4777588 L691.95694,48.8191805 L733.886807,2.47374707 L721.839793,2.47374707 L679.909926,49.758615 Z" id="K"></path>
                    </g>
                </g>
            </g>
        </g>
    </g>
</svg>