<svg width="514" height="562" xmlns="http://www.w3.org/2000/svg" xmlns:xlink="http://www.w3.org/1999/xlink"><defs><path d="M.004 251.412l28.164-.002 46.711 31.463 19.542 33.89 21.288 6.394 10.555 43.468 8.583 10.003-2.174-39.921-3.933-13.55 21.373-1.382 27.503-1.254 43.075 14.673 22.43 15.063 26.645 13.758h60.884l40.477 24.554 79.688 10.365C405.255 460.262 332.268 500 250 500 112.4 500 .764 388.833.004 251.412zM250 0c138.071 0 250 111.929 250 250 0 46.805-12.862 90.605-35.245 128.06l-98.997-11.435-41.341-30.119-54.651-1.312-43.23-16.632L198 306.095l-35.228-10.381-44.478-2.94-23.873-23.353-42.208-27.982-27.947-18.579-22.888.733a248.359 248.359 0 0 1 27.78-90.869l95.74 51.014 13.91-25.566-49.296-64.98-36.858 3.314C98.4 37.776 169.79 0 250 0z" id="a"/><filter x="-2.8%" y="-6.5%" width="105.6%" height="112.9%" filterUnits="objectBoundingBox" id="b"><feOffset dx="1" dy="2" in="SourceAlpha" result="shadowOffsetOuter1"/><feColorMatrix values="0 0 0 0 0.59 0 0 0 0 0.224513274 0 0 0 0 0.169690265 0 0 0 1 0" in="shadowOffsetOuter1" result="shadowMatrixOuter1"/><feMerge><feMergeNode in="shadowMatrixOuter1"/><feMergeNode in="SourceGraphic"/></feMerge></filter></defs><g transform="translate(-113 -1)" fill="none" fill-rule="evenodd"><g transform="translate(127 1)"><use fill="#F0F0F0" xlink:href="#a"/></g><g fill-rule="nonzero"><path d="M403.737 92.087l-18.246 2.65 1.127-8.23-19.233 5.378 3.113-6.894-21.068 5.33 1.824-6.743-15.808 7.852.43-9.717-18.733 7.41.337-6.048-18.13 12.565-7.34-.189 7.806-18.153 5.68-13.987-42.622-13.578-33.762 6.29-13.868 11.022-6.155-3.462-.058-4.957-12.798-2.165L195 61.568l-5.203 2.436-5.61-3.265-7.584 2.191-.732 7.14-5.552 1.692-1.788-1.882-10.162 2.492-1.43 5.653-5.748 2.238-1.092-.395-7.98 3.282 1.197 3.518-29.083 17.238-.732 7.14 90.738 31.506 28.162 4.237 11.572.157a2.89 2.89 0 0 1 2.679 3.874 5.242 5.242 0 0 1-5.426 3.434l-11.74-1.116-25.98-3.447-84.385-28.59-.047 1.834 10.835 14.412 1.358 11.598 3.763-3.574 4.471 4.704 1.405 9.763 5.25-4.27 3.425 2.475 2.497 10.159 5.795-4.072 4.482 11.495 4.554-5.757 3.425 2.475 1.556 11.052 1.637.593 4.054-7.788 3.229 3.02 2.647 11.447 2.776-.846 2.219-7.835 4.912 1.778-.233 9.171 1.788 1.882 3.613-4.863 2.392 7.036 16.874 7.96 17.456-.468 2.74 7.779 25.269 46.168-49.302-3.655-4.866-3.612-12.856-7.122-13.454.834 3.448 2.877 5.358 2.961 3.428 5.226-26.76 12.527 4.82 5.446 13.484-3.14.499 2.032-7.085 4.223 2.137 2.624 9.477 2.814 10.058-5.615 4.948-6.847 66.269 7.946 7.444 3.312 10.245-12.951-18.812-40.13 9.373-.308 23.249 24.458 8.687 4.996-10.618 27.625-20.906 13.41 2.59 6.491 18.78-9.244 1.788 1.882-11.045 8.342 4.076 5.794 17.434-14.05 1.522-9.322 11.522-19.893 16.282 9.596 6.446-.751 47.349 22.693-23.833 12.968-15.122 2.548-7.562 15.773 6.004 2.173 4.995-8.68 1.243 1.683-2.115 10.958 4.715 2.324 4.646-9.425 11.197-7.053 32.067-11.839 10.813.829 5.722 42.178-3.868.451-2.611-20.073-6.202-1.628-.107 25.877-22.357 5.48 4.227 7.084 14.378-2.2-5.645 5.362 1.046 2.23 15.574 1.318 26.713-10.692-.82-47.191 28.023 2.74 12.124 14.261 6.6 37.624a100 100 0 0 1 1.464 14.464l.998 35.44a100 100 0 0 1-5.932 36.852l-4 11.05a76.26 76.26 0 0 1-38.062 42.48l-9.654 4.746a52.987 52.987 0 0 1-42.041 2.04l-4.754-1.79a44.633 44.633 0 0 1-24.47-22.364 72.174 72.174 0 0 1-7.137-33.918l.107-3.046a63.545 63.545 0 0 1 9.497-31.25l1.736-2.801a33.307 33.307 0 0 1 20.378-14.8 40.158 40.158 0 0 1 25.672 2.217l6.493 2.844a36.242 36.242 0 0 1 19.08 19.66l1.063 2.638a36.496 36.496 0 0 1 1.508 22.664l-.485 1.898a35.535 35.535 0 0 1-9.627 16.655l-.318.31a23.255 23.255 0 0 1-16.383 6.602l-1.37-.01a18.813 18.813 0 0 1-13.717-6.068 19.885 19.885 0 0 1-5.243-14.189l.097-2.674a8.798 8.798 0 0 1 6.147-8.073l1.592-.502a3.756 3.756 0 0 1 4.86 3.146l.045.383a11.846 11.846 0 0 0 3.438 7.048 6.44 6.44 0 0 0 6.835 1.432l1.97-.757a9.997 9.997 0 0 0 6.137-6.99 31.616 31.616 0 0 0 .745-10.338l-.018-.197a15.141 15.141 0 0 0-4.353-9.287l-.002-.002a27.458 27.458 0 0 0-8.882-5.959l-.6-.25a15.851 15.851 0 0 0-11.385-.312l-4.16 1.472a24.786 24.786 0 0 0-14.28 13.073l-.308.674a55.376 55.376 0 0 0-4.897 19.615 33.657 33.657 0 0 0 4.585 19.123l1.514 2.574a31.889 31.889 0 0 0 19.326 14.656 41.479 41.479 0 0 0 24.978-1.187l6.63-2.447a42.271 42.271 0 0 0 20.779-16.584 59.89 59.89 0 0 0 9.29-25.639l.869-7.324a53.181 53.181 0 0 0-4.034-27.447 57.946 57.946 0 0 0-16.943-22.157l-.749-.599a84.28 84.28 0 0 0-26.54-14.327l-5.42-1.767a56.555 56.555 0 0 0-28.919-1.625 51.702 51.702 0 0 0-25.462 13.414l-5.742 5.534a78.582 78.582 0 0 0-14.953 19.876 75.918 75.918 0 0 0-7.855 23.576l-2.839 17.904 3.384 28.9a73.785 73.785 0 0 0 10.45 30.098 86.959 86.959 0 0 0 21.56 23.742l1.044.792a65.407 65.407 0 0 0 31.548 12.778l7.498.917a100 100 0 0 0 37.055-2.417l11.365-2.925a100 100 0 0 0 42.634-23.114 158.905 158.905 0 0 0 7.523-7.383c6.026-6.306 11.236-12.7 15.63-19.184a100 100 0 0 0 14.212-31.749l15.954-63.528 8.339 4.252-.673-16.903 7.99 3.51-3.843-14.966 7.538-.357-5.48-15.558 8.78 1.327-7.769-19.472 9.477 2.814-7.315-15.606 8.478-1.25-8.547-10.498 8.327-2.539-11.531-15.898 8.525-3.084-9.685-9.06.685-5.304 5.656 1.43-12.623-16.293 8.676-1.796-10.185-11.09 6.342-3.875-10.127-6.134.093-3.669 6.992-.554-12.066-9.304 9.07-2.887-13.75-8.062-.848-2.775 9.721.433-16.235-11.43 7.433-3.48-16.781-11.627 6.388-5.71-13.994-5.682-1.394-2.973 7.48-5.313-17.966-8.355 7.329-6.602-15.632-6.276 7.329-6.602-17.467-6.323 5.297-6.104-18.606-4.884 4.403-7.045-16.666-1.714 1.975-5.455-13.194-1.074 1.08-6.396-15.771-.773 2.765-7.638-14.727 1.456 1.08-6.396-14.575 2.745 2.567-7.092-13.832 2.397.93-7.684z" fill="#E2B9B3"/><g transform="rotate(19.9 -64.192 538.388)"><path fill="#E2B9B3" transform="rotate(19.9 32.553 34.628)" d="M17.4594805 60.1555456L8.75192299 46.2311649 8.17141915 36.9482444 13.9764575 18.3824035 31.3915725 7.35893544 51.1287028 16.0616734 56.9337412 27.665324 56.9337412 39.8491571 51.1287028 53.7735378 35.4550993 61.8960932z"/><path fill="#0A2137" d="M17.8050383 20.3820078L12 31.9856584 12 45.3298566 20.1270537 55.7731421 29.415115 57.5136897 41.0251917 54.6127771 47.9912377 40.1082138 49.7327492 30.8252934 45.0887185 22.1225554 29.9956188 14z"/><path fill="#FFF" d="M19.5465498 50.5514993L21.2880613 44.7496741 24.1905805 45.3298566 29.415115 53.452412 23.0295728 54.6127771z"/><path fill="#FFF" d="M25.3515882 42.4289439L27.0930997 40.6883963 42.7667032 45.9100391 35.2201533 52.8722295z"/><path fill="#FFF" d="M13.7415115 43.0091265L13.7415115 39.5280313 17.8050383 40.1082138 17.8050383 41.8487614 16.0635268 45.9100391z"/><path fill="#FFF" d="M13.1610077 34.3063885L16.0635268 29.0847458 17.8050383 33.1460235 17.2245345 37.2073012 15.483023 37.2073012z"/><path fill="#FFF" d="M27.0930997 38.3676662L26.5125958 36.6271186 45.0887185 27.9243807 45.6692223 39.5280313z"/><path fill="#FFF" d="M19.5465498 22.1225554L25.932092 18.6414602 20.7075575 32.5658409 19.5465498 33.1460235z"/><path fill="#FFF" d="M22.449069 33.726206L31.1566265 18.6414602 39.2836802 23.2829205 24.7710843 35.4667536z"/></g><path fill="#E27E6F" opacity=".6" transform="rotate(19.9 552.521 397.778)" d="M546.716203 394.296692L554.843257 390.815597 558.32628 400.6787 553.101746 404.739978z"/><path fill="#E27E6F" opacity=".6" transform="rotate(19.9 536.5 373.5)" d="M530 375.210526L534.216216 367 543 369.052632 541.945946 380z"/><path fill="#E25641" opacity=".6" transform="rotate(19.9 554.492 377.427)" d="M546.654919 372.785604L555.362477 367.563961 562.328523 382.068525 554.201469 387.290167z"/><path fill="#E27E6F" opacity=".6" transform="rotate(19.9 547.335 337.506)" d="M537.176151 338.95672L544.142197 326.772887 557.493785 333.735077 549.947235 348.23964z"/><path fill="#E27E6F" opacity=".6" transform="rotate(19.9 505.187 279.983)" d="M497.930438 281.142878L503.735476 272.44014 512.443034 278.241965 506.637995 287.524886z"/><path fill="#E25641" opacity=".6" transform="rotate(19.9 543.146 288.798)" d="M532.987161 279.805198L547.499757 277.484468 553.304796 297.790857 536.470184 300.111587z"/><path fill="#E25641" opacity=".6" transform="rotate(19.9 495.793 252.21)" d="M487.666244 246.117679L503.920352 246.117679 503.920352 256.560965 487.666244 258.301512z"/><path fill="#E27E6F" opacity=".6" transform="rotate(19.9 524.096 258.444)" d="M510.454215 253.222737L529.610842 243.359634 537.737896 264.246205 519.742277 273.529126z"/><path fill="#E27E6F" opacity=".6" transform="rotate(19.9 515.875 235.107)" d="M510.360481 230.465167L520.80955 229.304802 521.390053 239.748087 510.360481 240.908453z"/><path fill="#E27E6F" opacity=".6" transform="rotate(19.9 468.109 214.422)" d="M459.401105 219.353264L460.562113 207.749614 476.81622 209.490161 475.074708 221.093812z"/><path fill="#E25641" opacity=".6" transform="rotate(19.9 494.559 224.922)" d="M482.948565 216.219273L504.427206 213.318361 506.168718 232.464384 485.27058 236.525662z"/><path fill="#E27E6F" opacity=".6" transform="rotate(19.9 362.39 161.96)" d="M356.585862 157.02926L365.29342 155.288713 368.195939 168.052728 357.74687 168.632911z"/><path fill="#E25641" opacity=".6" transform="rotate(19.9 395.955 170.717)" d="M388.698286 175.358511L392.181309 162.594496 403.210882 164.915226 397.986348 178.839606z"/><path fill="#E27E6F" opacity=".6" transform="rotate(19.9 420.801 186.499)" d="M403.966791 181.857303L426.025936 168.513105 437.636013 188.819493 417.318379 204.484421z"/><path fill="#E25641" opacity=".6" transform="rotate(19.9 342.277 144.19)" d="M335.310896 140.999209L346.920972 137.518114 349.242988 149.121764 337.632911 150.862312z"/><path fill="#E27E6F" opacity=".6" transform="rotate(19.9 320.49 134.452)" d="M309.46034 138.803709L316.426386 121.398233 331.519486 129.520788 324.55344 147.506447z"/><path fill="#E27E6F" opacity=".6" transform="rotate(19.9 362.654 140.769)" d="M355.687902 145.410086L360.912437 133.226253 369.619994 136.127165 366.136971 148.310998z"/><path fill="#E25641" opacity=".6" transform="rotate(19.9 498.127 192.894)" d="M486.516676 187.672585L504.512295 180.710395 509.736829 198.11587 493.482722 205.078061z"/><path fill="#E25641" opacity=".6" transform="rotate(19.9 462.258 184.537)" d="M446.584058 179.605944L466.901692 166.261746 477.931265 191.209594 458.194134 202.813245z"/><path fill="#E27E6F" opacity=".6" transform="rotate(19.9 385.556 149.985)" d="M373.655633 156.656677L380.621679 137.510654 397.45629 142.732296 389.90974 162.458502z"/><path fill="#E25641" opacity=".6" transform="rotate(19.9 347.691 119.001)" d="M341.886078 112.909042L351.174139 111.748677 353.496155 124.512692 343.047086 126.25324z"/><path fill="#E25641" opacity=".6" transform="rotate(19.9 420.683 144.19)" d="M414.877877 137.517469L426.487954 137.517469 426.487954 149.701302 414.877877 150.861667z"/><path fill="#E27E6F" opacity=".6" transform="rotate(19.9 448.707 146.93)" d="M437.097147 157.663287L438.258154 135.616351 460.3173 136.196533 459.156292 158.243469z"/><path fill="#E27E6F" opacity=".6" transform="rotate(19.9 406.347 126.66)" d="M399.090594 132.171208L403.734625 117.666644 413.60319 121.14774 408.959159 135.652303z"/><path fill="#E25641" opacity=".6" transform="rotate(19.9 376.279 117.626)" d="M364.37871 111.534225L382.954833 105.152217 388.179367 123.718058 370.764252 130.100066z"/><path fill="#E25641" opacity=".6" d="M532 348.42611L539.569236 345.799282 542 353.93782 535.321628 357.799282z"/><path fill="#E27E6F" opacity=".6" d="M553 353.816699L560.233327 349.799282 565 360.681997 556.436808 363.799282z"/><path fill="#E27E6F" opacity=".6" d="M527.959507 313.799282L536 316.559507 533.236444 323.799282 526 321.31508z"/><path fill="#E25641" opacity=".6" d="M538 313.336114L541.086586 304.799282 548 307.724711 546.397122 316.799282z"/><path fill="#E25641" opacity=".6" d="M513 292.112722L519.241753 281 529 286.066028 522.95868 299z"/><g filter="url(#b)" transform="rotate(20 -81.33 508.86)" fill="#E25641"><path d="M.65 25.667C.65 45.48 16.753 61.6 36.547 61.6c19.983 0 36.24-16.12 36.24-35.933v-5.134c-5.584.31-2.166.31 10.256 0 18.632-.464 30.22-1.038 37.243-1.184 7.022-.146 10.557-1.433 12.872 4.928 2.315 6.36-11.179 9.013-12.746 11.818-2.698 4.83 4.117 6.088 5.993 5.654 1.876-.434 16.888-7.52 14.984-20.468-1.265-8.609-11.322-9.706-18.96-10.609-5.09-.602-18.22-.737-39.386-.405H71.904C69.787 4.292 64.087 0 57.402 0H16.034C8.95 0 2.971 4.82 1.192 11.355.397 14.332.65 22.836.65 25.667zM10.906 15.4c0-2.83 2.3-5.133 5.128-5.133h41.368c1.561 0 2.96.704 3.9 1.81l1.228 10.399v3.19c0 14.153-11.656 25.667-25.983 25.667-14.138 0-25.641-11.514-25.641-25.666V15.4z"/></g></g></g></svg>