<?xml version="1.0" encoding="UTF-8"?>
<svg width="514px" height="562px" viewBox="0 0 514 562" version="1.1" xmlns="http://www.w3.org/2000/svg" xmlns:xlink="http://www.w3.org/1999/xlink">
    <title>chamaleon</title>
    <defs>
        <path d="M0.00390284977,251.411859 L28.1678063,251.410314 L74.8793253,282.872859 L94.4209827,316.762485 L115.708776,323.156661 L126.263805,366.624753 L134.847066,376.627782 L132.672891,336.706981 L128.740234,323.156661 L150.113323,321.774809 L177.616278,320.520728 L220.691116,335.194391 L243.120355,350.257301 L269.765829,364.014505 L330.650003,364.014505 L371.126752,388.569428 L450.814547,398.934072 C405.255754,460.262283 332.268497,500 250,500 C112.399737,500 0.76382432,388.833406 0.00390284977,251.411859 Z M250,0 C388.071187,-2.53632657e-14 500,111.928813 500,250 C500,296.804805 487.137759,340.605472 464.755078,378.0602 L365.758383,366.624753 L324.416973,336.506263 L269.765829,335.194391 L226.536588,318.56187 L198,306.094604 L162.7723,295.713882 L118.293804,292.774397 L94.4209827,269.420614 L52.2134991,241.439135 L24.2662002,222.860001 L1.37807971,223.59302 C4.7960531,191.035189 14.4631226,160.338452 29.1580217,132.724073 L124.897998,183.738213 L138.807376,158.172392 L89.5119648,93.1920082 L52.6543424,96.5060049 C98.4002789,37.7752068 169.788703,1.47345762e-14 250,0 Z" id="path-1"></path>
        <filter x="-2.8%" y="-6.5%" width="105.6%" height="112.9%" filterUnits="objectBoundingBox" id="filter-3">
            <feOffset dx="1" dy="2" in="SourceAlpha" result="shadowOffsetOuter1"></feOffset>
            <feColorMatrix values="0 0 0 0 0.59   0 0 0 0 0.224513274   0 0 0 0 0.169690265  0 0 0 1 0" type="matrix" in="shadowOffsetOuter1" result="shadowMatrixOuter1"></feColorMatrix>
            <feMerge>
                <feMergeNode in="shadowMatrixOuter1"></feMergeNode>
                <feMergeNode in="SourceGraphic"></feMergeNode>
            </feMerge>
        </filter>
    </defs>
    <g id="EmberFest-2020" stroke="none" stroke-width="1" fill="none" fill-rule="evenodd">
        <g id="EmberFest_2020_DesktopHD" transform="translate(-816.000000, -5642.000000)">
            <g id="split-screen-strip" transform="translate(0.000000, 5478.000000)">
                <g id="Group" transform="translate(816.000000, 102.000000)">
                    <g id="chamaleon" transform="translate(-113.000000, 61.000000)">
                        <g id="background" transform="translate(127.000000, 1.000000)">
                            <mask id="mask-2" fill="white">
                                <use xlink:href="#path-1"></use>
                            </mask>
                            <use id="Combined-Shape" fill="#F0F0F0" xlink:href="#path-1"></use>
                        </g>
                        <g id="Group" fill-rule="nonzero">
                            <g id="chameleon">
                                <g>
                                    <g id="base-body" transform="translate(325.000000, 300.213971) rotate(19.900000) translate(-325.000000, -300.213971) translate(60.000000, 77.713971)" fill="#E2B9B3">
                                        <path d="M268.192771,2.84217094e-14 L251.938664,8.70273794 L250.197152,0.580182529 L233.943045,12.1838331 L234.523549,4.64146023 L216.52793,16.8252934 L215.947426,9.863103 L203.756846,22.6271186 L200.854326,13.3441982 L185.761227,26.6883963 L184.019715,20.8865711 L171.248631,38.8722295 L164.282585,41.1929596 L165.443593,21.4667536 L166.024096,6.38200782 L121.325301,8.12255541 L91.7196057,25.5280313 L82.4315444,40.6127771 L75.4654984,39.452412 L73.7239869,34.8109518 L60.9529025,37.1316819 L61.5334064,42.3533246 L57.4698795,46.4146023 L51.0843373,45.2542373 L44.6987952,49.8956975 L46.4403067,56.8578879 L41.796276,60.3389831 L39.4742607,59.178618 L30.7667032,64.9804433 L31.347207,70.7822686 L26.7031763,74.8435463 L25.5421687,74.8435463 L19.1566265,80.6453716 L21.4786418,83.5462842 L0,109.654498 L1.7415115,116.616688 L97.7857961,115.356207 L125.70818,109.754614 L136.643132,105.96319 C138.15133,105.44026 139.797884,106.238977 140.320814,107.747175 C140.426397,108.051691 140.480305,108.371722 140.480305,108.694023 C140.480305,111.084782 138.862767,113.172681 136.547833,113.770013 L125.127676,116.716805 L125.127676,116.716805 L99.5273076,122.318398 L10.449069,124.159061 L11.0295728,125.899609 L26.1226725,135.762712 L31.347207,146.205997 L33.6692223,141.564537 L39.4742607,144.46545 L44.1182913,153.168188 L47.6013143,147.366362 L51.6648412,148.526728 L57.4698795,157.229465 L61.5334064,151.42764 L69.66046,160.710561 L71.9824754,153.74837 L76.0460022,154.908735 L81.2705367,164.771838 L83.0120482,164.771838 L84.1730559,156.0691 L88.2365827,157.809648 L94.6221249,167.672751 L96.9441402,165.932203 L96.3636364,157.809648 L101.588171,157.809648 L104.49069,166.512386 L106.812705,167.672751 L108.554217,161.870926 L113.198248,167.672751 L131.77437,169.413299 L148.028478,163.031291 L153.253012,169.413299 L192.727273,204.22425 L145.125958,217.568449 L139.32092,215.827901 L124.808324,213.507171 L112.441771,218.87142 L116.662239,220.40285 L122.708289,221.363391 L127.710843,225.110821 L106.812705,245.997392 L113.198248,249.478488 L124.808324,241.936115 L125.969332,243.676662 L120.744797,250.05867 L123.647317,251.799218 L133.515882,251.219035 L141.062432,242.516297 L143.384447,234.393742 L208.400876,219.308996 L216.52793,219.889179 L221.752464,204.22425 L190.405257,172.894394 L199.112815,169.413299 L229.299014,184.498044 L239.167579,186.238592 L238.587076,215.827901 L223.493976,235.554107 L228.138007,240.77575 L242.650602,225.691004 L244.972618,226.851369 L237.426068,238.45502 L243.231106,242.516297 L254.841183,223.370274 L253.099671,214.087353 L257.163198,191.460235 L275.739321,194.94133 L281.544359,192.040417 L333.789704,197.26206 L315.794085,217.568449 L302.442497,225.110821 L300.700986,242.516297 L307.086528,242.516297 L308.828039,232.653194 L310.569551,233.813559 L312.311062,244.837027 L317.535597,245.41721 L318.696605,234.973924 L326.823658,224.530639 L352.946331,202.483703 L363.3954,199.58279 L383.13253,237.294654 L379.649507,239.035202 L370.361446,221.049544 L363.975904,221.629726 L372.683461,245.997392 L353.526835,258.761408 L359.912377,263.983051 L372.683461,257.02086 L369.200438,263.983051 L370.94195,265.723598 L386.035049,261.662321 L407.513691,242.516297 L390.67908,198.422425 L417.96276,191.460235 L434.216867,200.743155 L453.229014,233.874191 C455.644146,238.08286 457.749744,242.461735 459.529119,246.97611 L472.530083,279.960289 C477.13298,291.6381 479.496166,304.078102 479.496166,316.63031 L479.496166,328.383312 C479.496166,348.111379 471.850832,367.071794 458.166105,381.281822 L450.70438,389.029973 C440.554576,399.569388 426.49838,405.442596 411.86747,405.257497 L406.788293,405.193239 C395.329133,405.048267 384.364801,400.501038 376.166484,392.493481 C367.778816,384.300979 361.51333,374.18837 357.91199,363.030395 L356.975676,360.129428 C353.574541,349.591744 352.98599,338.348228 355.268346,327.513038 L355.947642,324.288168 C357.744749,315.756634 362.815517,308.269903 370.071194,303.435463 C377.412874,298.543719 386.161106,296.205709 394.96432,296.78265 L402.037972,297.246239 C411.501388,297.866448 420.344679,302.17137 426.670318,309.237288 L428.568052,311.357111 C433.746667,317.141772 436.945589,324.427185 437.69989,332.154498 L437.89021,334.10419 C438.525027,340.60747 437.354434,347.159875 434.507119,353.041069 L434.313458,353.441081 C431.647985,358.946676 426.920612,363.180361 421.155531,365.224902 L419.865144,365.682528 C414.94905,367.425983 409.529773,367.050129 404.901424,364.64472 C400.252775,362.22876 396.745378,358.075868 395.141401,353.088479 L394.321983,350.540588 C393.182091,346.99622 394.396751,343.118078 397.354874,340.857236 L398.681122,339.843608 C400.329235,338.583983 402.686422,338.898916 403.946047,340.547029 C404.08962,340.734883 404.215135,340.935875 404.32092,341.147327 L404.493522,341.49234 C405.697016,343.897996 407.683398,345.822441 410.125958,346.949153 C412.423142,348.008804 415.127947,347.625404 417.040147,345.969081 L418.6356,344.587121 C421.121859,342.433556 422.389725,339.194819 422.026287,335.925684 C421.64192,332.468295 420.689599,329.09804 419.207712,325.950772 L419.123768,325.77249 C417.622904,322.584921 415.05742,320.020531 411.869211,318.521027 L411.86747,318.520209 C408.609756,316.988015 405.082535,316.111401 401.486561,315.940259 L400.837897,315.909387 C396.914703,315.722672 393.061897,316.999115 390.026233,319.491316 L386.615553,322.291395 C381.421554,326.555533 378.181645,332.745943 377.63825,339.444095 L377.578338,340.1826 C377.028801,346.956483 377.730889,353.773659 379.649507,360.293351 C381.541369,366.722121 385.309289,372.439778 390.470644,376.713962 L392.770263,378.618307 C399.240365,383.976281 407.563351,386.564761 415.930997,385.821382 C424.431234,385.066224 432.49168,381.707648 439.013196,376.203638 L444.41373,371.645711 C451.362245,365.781325 456.234658,357.83276 458.307777,348.979791 C460.407968,340.011213 460.411107,330.679057 458.316951,321.709067 L456.640134,314.526686 C454.500728,305.362881 449.968102,296.930837 443.504929,290.091265 C437.024018,283.232922 428.966287,278.061032 420.031978,275.025048 L419.123768,274.716428 C409.527409,271.455471 399.42154,269.952191 389.291521,270.278785 L383.593746,270.462482 C373.780445,270.778865 364.218562,273.644588 355.84885,278.777705 C347.506386,283.894111 340.787378,291.273192 336.472834,300.057213 L332.956876,307.215386 C329.27854,314.704145 326.816296,322.730915 325.662651,330.994133 C324.509523,339.253637 324.72517,347.646702 326.300924,355.836092 L329.726177,373.637549 L329.726177,373.637549 L342.74417,399.659124 C347.552525,409.270511 354.402441,417.715498 362.814896,424.40352 C371.255315,431.113774 380.870124,436.195714 391.168865,439.390105 L392.420591,439.778357 C403.446991,443.198449 415.182175,443.639152 426.434031,441.055697 L433.796313,439.365298 C445.966089,436.571086 457.504917,431.522404 467.816091,424.480335 L477.507134,417.861788 C491.058612,408.606736 502.124172,396.158893 509.727659,381.616351 C511.303283,378.602788 512.823638,375.43504 514.288722,372.113106 C517.8086,364.13213 520.531109,356.345795 522.456249,348.7541 C525.328184,337.428765 526.19317,325.68775 525.01196,314.063811 L518.389923,248.898305 L518.389923,248.898305 L527.677985,250.05867 L521.292442,234.393742 L530,234.973924 L521.292442,222.209909 L528.258488,219.308996 L517.809419,206.54498 L526.516977,204.804433 L512.584885,189.139505 L522.45345,188.559322 L510.26287,176.375489 L517.809419,172.314211 L506.199343,165.352021 L513.165389,160.130378 L496.911281,149.10691 L503.877327,143.305085 L491.686747,138.083442 L490.525739,132.861799 L496.330778,132.281617 L478.915663,121.258149 L486.462212,116.616688 L473.110624,109.654498 L477.754655,103.852673 L466.144578,101.531943 L464.983571,98.0508475 L471.369113,95.1499348 L456.856517,90.5084746 L464.403067,84.7066493 L448.729463,81.8057366 L446.987952,79.4850065 L456.276013,76.5840939 L437.119387,71.3624511 L442.924425,65.5606258 L423.187295,60.3389831 L427.250821,52.7966102 L412.157722,52.2164276 L409.835706,49.8956975 L415.060241,42.3533246 L395.323111,40.6127771 L399.967141,31.9100391 L383.13253,31.3298566 L387.776561,22.6271186 L369.200438,22.6271186 L372.102957,15.0847458 L352.946331,16.8252934 L354.687842,8.70273794 L338.433735,12.7640156 L338.433735,6.96219035 L325.662651,10.4432855 L324.501643,4.06127771 L309.408543,8.70273794 L309.408543,0.580182529 L296.056955,6.96219035 L294.895947,0.580182529 L282.124863,8.12255541 L282.124863,0.580182529 L269.934283,7.54237288 L268.192771,2.84217094e-14 Z" id="Path"></path>
                                    </g>
                                    <g id="eye" transform="translate(198.239453, 97.500000) rotate(19.900000) translate(-198.239453, -97.500000) translate(165.739453, 63.000000)">
                                        <polygon id="Path" fill="#E2B9B3" transform="translate(32.552580, 34.627514) rotate(19.900000) translate(-32.552580, -34.627514) " points="17.4594805 60.1555456 8.75192299 46.2311649 8.17141915 36.9482444 13.9764575 18.3824035 31.3915725 7.35893544 51.1287028 16.0616734 56.9337412 27.665324 56.9337412 39.8491571 51.1287028 53.7735378 35.4550993 61.8960932"></polygon>
                                        <polygon id="Path" fill="#0A2137" points="17.8050383 20.3820078 12 31.9856584 12 45.3298566 20.1270537 55.7731421 29.415115 57.5136897 41.0251917 54.6127771 47.9912377 40.1082138 49.7327492 30.8252934 45.0887185 22.1225554 29.9956188 14"></polygon>
                                        <polygon id="Path" fill="#FFFFFF" points="19.5465498 50.5514993 21.2880613 44.7496741 24.1905805 45.3298566 29.415115 53.452412 23.0295728 54.6127771"></polygon>
                                        <polygon id="Path" fill="#FFFFFF" points="25.3515882 42.4289439 27.0930997 40.6883963 42.7667032 45.9100391 35.2201533 52.8722295"></polygon>
                                        <polygon id="Path" fill="#FFFFFF" points="13.7415115 43.0091265 13.7415115 39.5280313 17.8050383 40.1082138 17.8050383 41.8487614 16.0635268 45.9100391"></polygon>
                                        <polygon id="Path" fill="#FFFFFF" points="13.1610077 34.3063885 16.0635268 29.0847458 17.8050383 33.1460235 17.2245345 37.2073012 15.483023 37.2073012"></polygon>
                                        <polygon id="Path" fill="#FFFFFF" points="27.0930997 38.3676662 26.5125958 36.6271186 45.0887185 27.9243807 45.6692223 39.5280313"></polygon>
                                        <polygon id="Path" fill="#FFFFFF" points="19.5465498 22.1225554 25.932092 18.6414602 20.7075575 32.5658409 19.5465498 33.1460235"></polygon>
                                        <polygon id="Path" fill="#FFFFFF" points="22.449069 33.726206 31.1566265 18.6414602 39.2836802 23.2829205 24.7710843 35.4667536"></polygon>
                                    </g>
                                    <polygon id="Path" fill="#E27E6F" opacity="0.600000024" transform="translate(552.521242, 397.777788) rotate(19.900000) translate(-552.521242, -397.777788) " points="546.716203 394.296692 554.843257 390.815597 558.32628 400.6787 553.101746 404.739978"></polygon>
                                    <polygon id="Path" fill="#E27E6F" opacity="0.600000024" transform="translate(536.500000, 373.500000) rotate(19.900000) translate(-536.500000, -373.500000) " points="530 375.210526 534.216216 367 543 369.052632 541.945946 380"></polygon>
                                    <polygon id="Path" fill="#E25641" opacity="0.600000024" transform="translate(554.491721, 377.427064) rotate(19.900000) translate(-554.491721, -377.427064) " points="546.654919 372.785604 555.362477 367.563961 562.328523 382.068525 554.201469 387.290167"></polygon>
                                    <polygon id="Path" fill="#E27E6F" opacity="0.600000024" transform="translate(547.334968, 337.506263) rotate(19.900000) translate(-547.334968, -337.506263) " points="537.176151 338.95672 544.142197 326.772887 557.493785 333.735077 549.947235 348.23964"></polygon>
                                    <polygon id="Path" fill="#E27E6F" opacity="0.600000024" transform="translate(505.186736, 279.982513) rotate(19.900000) translate(-505.186736, -279.982513) " points="497.930438 281.142878 503.735476 272.44014 512.443034 278.241965 506.637995 287.524886"></polygon>
                                    <polygon id="Path" fill="#E25641" opacity="0.600000024" transform="translate(543.145979, 288.798027) rotate(19.900000) translate(-543.145979, -288.798027) " points="532.987161 279.805198 547.499757 277.484468 553.304796 297.790857 536.470184 300.111587"></polygon>
                                    <polygon id="Path" fill="#E25641" opacity="0.600000024" transform="translate(495.793298, 252.209596) rotate(19.900000) translate(-495.793298, -252.209596) " points="487.666244 246.117679 503.920352 246.117679 503.920352 256.560965 487.666244 258.301512"></polygon>
                                    <polygon id="Path" fill="#E27E6F" opacity="0.600000024" transform="translate(524.096055, 258.444380) rotate(19.900000) translate(-524.096055, -258.444380) " points="510.454215 253.222737 529.610842 243.359634 537.737896 264.246205 519.742277 273.529126"></polygon>
                                    <polygon id="Path" fill="#E27E6F" opacity="0.600000024" transform="translate(515.875267, 235.106627) rotate(19.900000) translate(-515.875267, -235.106627) " points="510.360481 230.465167 520.80955 229.304802 521.390053 239.748087 510.360481 240.908453"></polygon>
                                    <polygon id="Path" fill="#E27E6F" opacity="0.600000024" transform="translate(468.108662, 214.421713) rotate(19.900000) translate(-468.108662, -214.421713) " points="459.401105 219.353264 460.562113 207.749614 476.81622 209.490161 475.074708 221.093812"></polygon>
                                    <polygon id="Path" fill="#E25641" opacity="0.600000024" transform="translate(494.558641, 224.922011) rotate(19.900000) translate(-494.558641, -224.922011) " points="482.948565 216.219273 504.427206 213.318361 506.168718 232.464384 485.27058 236.525662"></polygon>
                                    <polygon id="Path" fill="#E27E6F" opacity="0.600000024" transform="translate(362.390900, 161.960812) rotate(19.900000) translate(-362.390900, -161.960812) " points="356.585862 157.02926 365.29342 155.288713 368.195939 168.052728 357.74687 168.632911"></polygon>
                                    <polygon id="Path" fill="#E25641" opacity="0.600000024" transform="translate(395.954584, 170.717051) rotate(19.900000) translate(-395.954584, -170.717051) " points="388.698286 175.358511 392.181309 162.594496 403.210882 164.915226 397.986348 178.839606"></polygon>
                                    <polygon id="Path" fill="#E27E6F" opacity="0.600000024" transform="translate(420.801402, 186.498763) rotate(19.900000) translate(-420.801402, -186.498763) " points="403.966791 181.857303 426.025936 168.513105 437.636013 188.819493 417.318379 204.484421"></polygon>
                                    <polygon id="Path" fill="#E25641" opacity="0.600000024" transform="translate(342.276942, 144.190213) rotate(19.900000) translate(-342.276942, -144.190213) " points="335.310896 140.999209 346.920972 137.518114 349.242988 149.121764 337.632911 150.862312"></polygon>
                                    <polygon id="Path" fill="#E27E6F" opacity="0.600000024" transform="translate(320.489913, 134.452340) rotate(19.900000) translate(-320.489913, -134.452340) " points="309.46034 138.803709 316.426386 121.398233 331.519486 129.520788 324.55344 147.506447"></polygon>
                                    <polygon id="Path" fill="#E27E6F" opacity="0.600000024" transform="translate(362.653948, 140.768626) rotate(19.900000) translate(-362.653948, -140.768626) " points="355.687902 145.410086 360.912437 133.226253 369.619994 136.127165 366.136971 148.310998"></polygon>
                                    <polygon id="Path" fill="#E25641" opacity="0.600000024" transform="translate(498.126752, 192.894228) rotate(19.900000) translate(-498.126752, -192.894228) " points="486.516676 187.672585 504.512295 180.710395 509.736829 198.11587 493.482722 205.078061"></polygon>
                                    <polygon id="Path" fill="#E25641" opacity="0.600000024" transform="translate(462.257661, 184.537495) rotate(19.900000) translate(-462.257661, -184.537495) " points="446.584058 179.605944 466.901692 166.261746 477.931265 191.209594 458.194134 202.813245"></polygon>
                                    <polygon id="Path" fill="#E27E6F" opacity="0.600000024" transform="translate(385.555962, 149.984578) rotate(19.900000) translate(-385.555962, -149.984578) " points="373.655633 156.656677 380.621679 137.510654 397.45629 142.732296 389.90974 162.458502"></polygon>
                                    <polygon id="Path" fill="#E25641" opacity="0.600000024" transform="translate(347.691116, 119.000958) rotate(19.900000) translate(-347.691116, -119.000958) " points="341.886078 112.909042 351.174139 111.748677 353.496155 124.512692 343.047086 126.25324"></polygon>
                                    <polygon id="Path" fill="#E25641" opacity="0.600000024" transform="translate(420.682916, 144.189568) rotate(19.900000) translate(-420.682916, -144.189568) " points="414.877877 137.517469 426.487954 137.517469 426.487954 149.701302 414.877877 150.861667"></polygon>
                                    <polygon id="Path" fill="#E27E6F" opacity="0.600000024" transform="translate(448.707223, 146.929910) rotate(19.900000) translate(-448.707223, -146.929910) " points="437.097147 157.663287 438.258154 135.616351 460.3173 136.196533 459.156292 158.243469"></polygon>
                                    <polygon id="Path" fill="#E27E6F" opacity="0.600000024" transform="translate(406.346892, 126.659474) rotate(19.900000) translate(-406.346892, -126.659474) " points="399.090594 132.171208 403.734625 117.666644 413.60319 121.14774 408.959159 135.652303"></polygon>
                                    <polygon id="Path" fill="#E25641" opacity="0.600000024" transform="translate(376.279039, 117.626142) rotate(19.900000) translate(-376.279039, -117.626142) " points="364.37871 111.534225 382.954833 105.152217 388.179367 123.718058 370.764252 130.100066"></polygon>
                                    <polygon id="Path" fill="#E25641" opacity="0.600000024" points="532 348.42611 539.569236 345.799282 542 353.93782 535.321628 357.799282"></polygon>
                                    <polygon id="Path" fill="#E27E6F" opacity="0.600000024" points="553 353.816699 560.233327 349.799282 565 360.681997 556.436808 363.799282"></polygon>
                                    <polygon id="Path" fill="#E27E6F" opacity="0.600000024" points="527.959507 313.799282 536 316.559507 533.236444 323.799282 526 321.31508"></polygon>
                                    <polygon id="Path" fill="#E25641" opacity="0.600000024" points="538 313.336114 541.086586 304.799282 548 307.724711 546.397122 316.799282"></polygon>
                                    <polygon id="Path" fill="#E25641" opacity="0.600000024" points="513 292.112722 519.241753 281 529 286.066028 522.95868 299"></polygon>
                                </g>
                                <g id="glasses-copy-2" filter="url(#filter-3)" transform="translate(225.251086, 111.918584) rotate(20.000000) translate(-225.251086, -111.918584) translate(154.251086, 80.918584)" fill="#E25641">
                                    <g id="glasses" transform="translate(-0.000000, 0.000000)">
                                        <path d="M0.649572675,25.6666667 C0.649572675,45.4803067 16.7531624,61.6 36.5470086,61.6 C56.5295727,61.6 72.7863248,45.4803067 72.7863248,25.6666667 L72.7863248,20.5333333 C67.202512,20.8430707 70.6213154,20.8430707 83.0427351,20.5333333 C101.674865,20.0687273 113.263573,19.4950825 120.285778,19.3488991 C127.307982,19.2027157 130.84325,17.9159834 133.158372,24.276729 C135.473494,30.6374746 121.979407,33.2897612 120.411776,36.0954576 C117.713764,40.9242741 124.529217,42.1834851 126.405052,41.7493825 C128.280886,41.3152799 143.292909,34.2290525 141.389463,21.2808571 C140.123988,12.6724619 130.066942,11.5747786 122.429755,10.6720007 C117.338298,10.0701488 104.209291,9.93503741 83.0427351,10.2666667 L71.9042735,10.2666667 C69.7873505,4.29180889 64.0871795,6.04813977e-11 57.4017094,6.04813977e-11 L16.0341881,6.04813977e-11 C8.94940173,6.04813977e-11 2.97128208,4.8202 1.1917949,11.3552756 C0.396604351,14.331841 0.649572675,22.8361467 0.649572675,25.6666667 Z M10.9059829,15.4 C10.9059829,12.56948 13.2064958,10.2666667 16.0341881,10.2666667 L57.4017094,10.2666667 C58.9634188,10.2666667 60.3617094,10.97096 61.302906,12.07668 L62.5299146,22.4757867 L62.5299146,25.6666667 C62.5299146,39.8192667 50.8741881,51.3333333 36.5470086,51.3333333 C22.408547,51.3333333 10.9059829,39.8192667 10.9059829,25.6666667 L10.9059829,15.4 Z" id="Shape"></path>
                                    </g>
                                </g>
                            </g>
                        </g>
                    </g>
                </g>
            </g>
        </g>
    </g>
</svg>