<svg width="328" height="322" xmlns="http://www.w3.org/2000/svg" xmlns:xlink="http://www.w3.org/1999/xlink"><defs><path d="M.002 121.862h13.655l22.648 15.25 9.475 16.426 10.321 3.1 5.118 21.069 4.161 4.848-1.054-19.35-1.906-6.568 10.362-.67 13.335-.607 20.885 7.112 10.875 7.301 12.919 6.669h29.52l19.624 11.902 38.643 5.025c-22.083 29.725-57.46 48.986-97.336 48.986h-.07C54.483 242.355.372 188.472.003 121.862zM121.247 0c66.924 0 121.177 54.253 121.177 121.178 0 22.687-6.234 43.918-17.084 62.073l-48.003-5.544-20.044-14.599-26.497-.636-20.96-8.062L96 148.367l-17.08-5.031-21.565-1.425-11.575-11.32-20.464-13.563-13.55-9.005-11.098.354a120.382 120.382 0 0 1 13.466-44.046L60.557 89.06 67.3 76.668 43.4 45.17l-17.878 1.606C47.696 18.31 82.298 0 121.178 0h.069z" id="a"/><filter x="-3.6%" y="-8.3%" width="108.5%" height="118.8%" filterUnits="objectBoundingBox" id="b"><feOffset dx="1" dy="1" in="SourceAlpha" result="shadowOffsetOuter1"/><feColorMatrix values="0 0 0 0 0.59 0 0 0 0 0.224513274 0 0 0 0 0.169690265 0 0 0 1 0" in="shadowOffsetOuter1" result="shadowMatrixOuter1"/><feMerge><feMergeNode in="shadowMatrixOuter1"/><feMergeNode in="SourceGraphic"/></feMerge></filter></defs><g transform="translate(40)" fill="none" fill-rule="evenodd"><circle fill="#0A2137" cx="144" cy="151" r="144"/><g transform="translate(-38.788 29.567)"><g transform="translate(61.576 .485)"><use fill="#F0F0F0" xlink:href="#a"/></g><g transform="translate(-.947)" fill-rule="nonzero"><path d="M196.688 44.635l-8.846 1.284.546-3.989-9.325 2.606 1.51-3.342-10.215 2.583.884-3.268-7.664 3.805.209-4.71-9.083 3.591.163-2.931-8.79 6.09-3.558-.093 3.784-8.799 2.753-6.779-20.665-6.583-16.369 3.046-6.723 5.343-2.984-1.679-.029-2.403-6.205-1.05-.597 2.476-2.522 1.18-2.72-1.582-3.677 1.062-.355 3.46-2.691.82-.867-.912-4.927 1.207-.693 2.74-2.787 1.085-.53-.192-3.868 1.59.58 1.706-14.1 8.355-.354 3.46 43.994 15.276 13.654 2.055 5.612.077a1.401 1.401 0 0 1 1.298 1.878 2.54 2.54 0 0 1-2.63 1.664l-5.693-.541-12.595-1.672-40.915-13.862-.022.89 5.254 6.985.658 5.622 1.825-1.732 2.168 2.28.681 4.733 2.545-2.07 1.661 1.2 1.211 4.924 2.81-1.973 2.173 5.572 2.208-2.79 1.66 1.2.755 5.357.794.287 1.965-3.775 1.566 1.464 1.284 5.55 1.345-.41 1.076-3.798 2.382.862-.113 4.445.867.912 1.751-2.357 1.16 3.411 8.182 3.859 8.463-.226 1.33 3.77 12.252 22.38-23.903-1.773-2.36-1.751-6.233-3.453-6.522.404 1.67 1.394 2.599 1.436 1.662 2.534-12.973 6.07 2.337 2.64 6.537-1.521.242.985-3.435 2.046 1.036 1.273 4.595 1.364 4.877-2.721 2.398-3.319 32.13 3.855 3.61 1.605 4.966-6.277-9.123-19.452 4.544-.15 11.274 11.857 4.211 2.422-5.146 13.39-10.136 6.5 1.256 3.146 9.105-4.48.867.912-5.355 4.043 1.977 2.809 8.452-6.81.737-4.518 5.586-9.642 7.895 4.652 3.125-.364 22.957 11.002-11.555 6.285-7.331 1.234-3.666 7.645 2.911 1.054 2.422-4.208.602.817-1.025 5.311 2.287 1.127 2.252-4.568 5.428-3.419 15.547-5.737 5.242.402 2.776 20.445-1.875.219-1.267-9.73-3.007-.79-.05 12.543-10.84 2.656 2.05 3.434 6.97-1.065-2.736 2.598.507 1.08 7.551.64 12.95-5.181-.4-22.875 13.588 1.33 5.879 6.913 3.167 18.041a51.2 51.2 0 0 1 .75 7.407l.465 16.46a51.2 51.2 0 0 1-3.037 18.872l-1.761 4.867a36.956 36.956 0 0 1-18.45 20.588l-4.68 2.3a25.696 25.696 0 0 1-20.385.988l-2.306-.868a21.641 21.641 0 0 1-11.864-10.842 34.984 34.984 0 0 1-3.461-16.442l.051-1.475a30.793 30.793 0 0 1 4.603-15.147l.841-1.357a16.146 16.146 0 0 1 9.88-7.174 19.473 19.473 0 0 1 12.446 1.076l3.15 1.379a17.572 17.572 0 0 1 9.25 9.53l.516 1.28a17.687 17.687 0 0 1 .732 10.985l-.235.92a17.22 17.22 0 0 1-4.667 8.072l-.153.15a11.275 11.275 0 0 1-7.944 3.2l-.664-.005a9.123 9.123 0 0 1-6.65-2.942 9.64 9.64 0 0 1-2.543-6.878l.046-1.296a4.264 4.264 0 0 1 2.98-3.913l.773-.243a1.821 1.821 0 0 1 2.356 1.525l.021.185c.152 1.295.74 2.5 1.668 3.417a3.123 3.123 0 0 0 3.314.694l.956-.366a4.845 4.845 0 0 0 2.974-3.388c.395-1.64.517-3.332.36-5.011l-.008-.096a7.34 7.34 0 0 0-2.11-4.501l-.002-.001a13.316 13.316 0 0 0-4.307-2.89l-.29-.12a7.687 7.687 0 0 0-5.52-.152l-2.017.713a12.014 12.014 0 0 0-6.923 6.337l-.149.326a26.834 26.834 0 0 0-2.374 9.507 16.312 16.312 0 0 0 2.224 9.27l.734 1.247a15.465 15.465 0 0 0 9.371 7.106c4 1.059 8.229.858 12.11-.575l3.215-1.186a20.487 20.487 0 0 0 10.073-8.037 29.021 29.021 0 0 0 4.503-12.427l.42-3.55a25.777 25.777 0 0 0-1.956-13.305 28.094 28.094 0 0 0-8.215-10.74l-.364-.291a40.873 40.873 0 0 0-12.868-6.946l-2.628-.857a27.425 27.425 0 0 0-14.02-.789 25.065 25.065 0 0 0-12.346 6.502l-2.783 2.682a38.08 38.08 0 0 0-7.248 9.633 36.788 36.788 0 0 0-3.808 11.428l-1.375 8.678 1.641 14.008a35.769 35.769 0 0 0 5.068 14.59 42.164 42.164 0 0 0 10.454 11.51l.507.384a31.72 31.72 0 0 0 15.295 6.195l3.128.383a51.2 51.2 0 0 0 18.97-1.235l4.333-1.115a51.2 51.2 0 0 0 22.966-12.904 80.438 80.438 0 0 0 2.03-2.052c2.317-2.423 4.385-4.874 6.204-7.351a51.2 51.2 0 0 0 8.387-17.832l7.608-30.297 4.043 2.062-.327-8.194 3.874 1.702-1.863-7.255 3.654-.172-2.658-7.542 4.257.644-3.767-9.44 4.595 1.365-3.548-7.565 4.11-.605-4.144-5.09 4.038-1.23-5.592-7.706 4.133-1.495-4.696-4.392.332-2.571 2.743.693-6.121-7.898 4.206-.87-4.938-5.376 3.074-1.878-4.91-2.974.045-1.778 3.39-.269-5.85-4.51 4.397-1.399-6.667-3.909-.411-1.345 4.713.21-7.872-5.54 3.604-1.687-8.137-5.637 3.097-2.767-6.785-2.755-.676-1.441 3.626-2.575-8.71-4.05 3.552-3.2-7.579-3.044 3.553-3.2-8.468-3.065 2.567-2.959-9.02-2.368 2.134-3.415-8.08-.831.957-2.644-6.397-.521.524-3.1-7.647-.376 1.34-3.702-7.14.705.524-3.1-7.067 1.33 1.244-3.438-6.706 1.161.45-3.725z" fill="#E2B9B3"/><g transform="rotate(19.9 -30.625 263.726)"><path fill="#E2B9B3" transform="rotate(19.9 15.783 16.784)" d="M8.46432259 29.1591287L4.24323148 22.4099993 3.96219477 17.9103488 6.77748671 8.91073975 15.2213875 3.56660433 24.7902046 7.78417819 27.6041627 13.4085168 27.6036241 19.3143418 24.7885373 26.0641128 17.1891062 30.0020224z"/><path fill="#0A2137" d="M8.63274586 9.87937017L5.81818182 15.5037797 5.81818182 21.9718507 9.75857148 27.0338193 14.2618739 27.8774807 19.891002 26.4713784 23.2684789 19.4408664 24.1128481 14.9413388 21.8611969 10.7230316 14.5433303 6.78594492z"/><path fill="#FFF" d="M9.47711507 24.502835L10.3214843 21.6906302 11.7287663 21.9718507 14.2618739 25.9089374 11.1658535 26.4713784z"/><path fill="#FFF" d="M12.2916791 20.5657483L13.1360483 19.7220869 20.7353712 22.2530712 17.076438 25.6277169z"/><path fill="#FFF" d="M6.66255103 20.8469688L6.66255103 19.1596459 8.63274586 19.4408664 8.63274586 20.2845278 7.78837665 22.2530712z"/><path fill="#FFF" d="M6.38109463 16.6286616L7.78837665 14.0976773 8.63274586 16.0662207 8.35128946 18.034764 7.50692024 18.034764z"/><path fill="#FFF" d="M13.1360483 18.597205L12.8545919 17.7535435 21.8611969 13.5352364 22.1426533 19.1596459z"/><path fill="#FFF" d="M9.47711507 10.7230316L12.5731355 9.03570874 10.0400279 15.7850002 9.47711507 16.0662207z"/><path fill="#FFF" d="M10.8843971 16.3474412L15.1062432 9.03570874 19.0466328 11.2854726 12.0102227 17.1911026z"/></g><path fill="#E27E6F" opacity=".6" transform="rotate(19.9 268.836 192.807)" d="M266.02176 191.119897L269.962174 189.43216 271.650421 194.212912 269.117217 196.181751z"/><path fill="#E27E6F" opacity=".6" transform="rotate(19.9 261.068 181.04)" d="M257.916715 181.868766L259.961237 177.888721 264.21981 178.883297 263.708286 184.189822z"/><path fill="#E25641" opacity=".6" transform="rotate(19.9 269.791 182.943)" d="M265.992114 180.693314L270.214052 178.161861 273.590776 185.192297 269.650285 187.723725z"/><path fill="#E27E6F" opacity=".6" transform="rotate(19.9 266.322 163.593)" d="M261.396104 164.29632L264.774008 158.390187 271.246984 161.764354 267.58753 168.795431z"/><path fill="#E27E6F" opacity=".6" transform="rotate(19.9 245.886 135.71)" d="M242.367852 136.273207L245.182708 132.054504 249.404158 134.866416 246.589277 139.366349z"/><path fill="#E25641" opacity=".6" transform="rotate(19.9 264.29 139.983)" d="M259.36553 135.624778L266.40181 134.499217 269.215384 144.342002 261.053315 145.467666z"/><path fill="#E25641" opacity=".6" transform="rotate(19.9 241.332 122.249)" d="M237.391609 119.296049L245.272128 119.29533 245.271666 124.357466 237.39107 125.201874z"/><path fill="#E27E6F" opacity=".6" transform="rotate(19.9 255.054 125.27)" d="M248.440381 122.740199L257.728572 117.958446 261.667908 128.082358 252.942637 132.58283z"/><path fill="#E27E6F" opacity=".6" transform="rotate(19.9 251.068 113.959)" d="M248.394778 111.708942L253.460878 111.146021 253.741863 116.208131 248.394317 116.771078z"/><path fill="#E27E6F" opacity=".6" transform="rotate(19.9 227.909 103.932)" d="M223.686816 106.323261L224.250224 100.698614 232.130666 101.541585 231.285811 107.166257z"/><path fill="#E25641" opacity=".6" transform="rotate(19.9 240.733 109.022)" d="M235.104423 104.804103L245.518094 103.397005 246.361589 112.67751 236.229314 114.647042z"/><path fill="#E27E6F" opacity=".6" transform="rotate(19.9 176.652 78.504)" d="M173.837384 76.1138746L178.059168 75.2698004 179.465839 81.4567268 174.399765 81.7384186z"/><path fill="#E25641" opacity=".6" transform="rotate(19.9 192.925 82.748)" d="M189.406641 84.9984871L191.095888 78.8112783 196.443281 79.9357097 193.909641 86.685455z"/><path fill="#E27E6F" opacity=".6" transform="rotate(19.9 204.972 90.398)" d="M196.810141 88.1488069L207.505721 81.6795471 213.133766 91.5220755 203.282424 99.1161773z"/><path fill="#E25641" opacity=".6" transform="rotate(19.9 166.9 69.89)" d="M163.522204 68.3440199L169.151301 66.6561281 170.276576 72.2806207 164.647557 73.1248233z"/><path fill="#E27E6F" opacity=".6" transform="rotate(19.9 156.336 65.17)" d="M150.98833 67.280156L154.366465 58.8429552 161.683731 62.7795046 158.30557 71.4979352z"/><path fill="#E27E6F" opacity=".6" transform="rotate(19.9 176.78 68.232)" d="M173.40163 70.4821583L175.935192 64.5761023 180.156771 65.9818662 178.467549 71.8878452z"/><path fill="#E25641" opacity=".6" transform="rotate(19.9 242.463 93.498)" d="M236.834273 90.9672766L245.559441 87.5917239 248.091695 96.0283858 240.210868 99.4038615z"/><path fill="#E25641" opacity=".6" transform="rotate(19.9 225.072 89.447)" d="M217.473049 87.0574618L227.324288 80.588279 232.67068 92.6806712 223.100965 98.3061391z"/><path fill="#E27E6F" opacity=".6" transform="rotate(19.9 187.883 72.7)" d="M182.113228 75.9337495L185.491439 66.6528594 193.653175 69.183183 189.99349 78.7453286z"/><path fill="#E25641" opacity=".6" transform="rotate(19.9 169.524 57.681)" d="M166.710269 54.7283433L171.213475 54.1654732 172.338699 60.3524253 167.272574 61.1965765z"/><path fill="#E25641" opacity=".6" transform="rotate(19.9 204.914 69.89)" d="M202.100268 66.6562906L207.72921 66.6557773 207.728671 72.5616024 202.099678 73.1245752z"/><path fill="#E27E6F" opacity=".6" transform="rotate(19.9 218.502 71.218)" d="M212.87257 76.4217122L213.436439 65.7349299 224.131404 66.0151844 223.567535 76.7019667z"/><path fill="#E27E6F" opacity=".6" transform="rotate(19.9 197.964 61.393)" d="M194.445312 64.0651615L196.69753 57.0342121 201.481977 58.7211544 199.229759 65.7521038z"/><path fill="#E25641" opacity=".6" transform="rotate(19.9 183.385 57.015)" d="M177.615904 54.0622236L186.622494 50.9678749 189.154697 59.9669963 180.711001 63.0612937z"/><path fill="#E25641" opacity=".6" d="M258.886364 168.885742L262.556296 167.612492 263.734848 171.557325 260.49685 173.429016z"/><path fill="#E27E6F" opacity=".6" d="M269.068182 171.498617L272.575249 169.551333 274.886364 174.826297 270.734513 176.337278z"/><path fill="#E27E6F" opacity=".6" d="M256.927337 152.10176L260.825758 153.43967 259.485851 156.948864 255.977273 155.744745z"/><path fill="#E25641" opacity=".6" d="M261.795455 151.877258L263.291981 147.739367 266.643939 149.157353 265.866786 153.555891z"/><path fill="#E25641" opacity=".6" d="M249.674242 141.59006L252.700547 136.203609 257.431818 138.659165 254.502693 144.928395z"/><g filter="url(#b)" transform="rotate(20 -38.928 249.395)" fill="#E25641"><path d="M.315 12.44c0 9.605 7.808 17.418 17.405 17.418 9.688 0 17.57-7.813 17.57-17.417V9.953c-2.707.15-1.05.15 4.973 0 9.034-.225 14.653-.504 18.057-.574 3.405-.071 5.12-.695 6.242 2.388 1.122 3.083-5.42 4.369-6.18 5.729-1.309 2.34 1.996 2.95 2.905 2.74.91-.21 8.188-3.645 7.265-9.92-.613-4.174-5.49-4.706-9.192-5.143-2.469-.292-8.834-.357-19.097-.197h-5.4C33.836 2.08 31.073 0 27.83 0H7.774C4.34 0 1.441 2.336.578 5.504.192 6.947.315 11.069.315 12.441zm4.973-4.975a2.49 2.49 0 0 1 2.486-2.489h20.057a2.48 2.48 0 0 1 1.892.878l.595 5.04v1.547c0 6.86-5.652 12.44-12.598 12.44-6.855 0-12.432-5.58-12.432-12.44V7.465z"/></g></g></g></g></svg>