<svg width="86" height="30" xmlns="http://www.w3.org/2000/svg"><path d="M5 12.5C5 22.15 12.925 30 22.667 30c9.65 0 17.5-7.85 17.5-17.5 0-1.379 1.121-2.5 2.5-2.5 1.378 0 2.5 1.121 2.5 2.5 0 9.65 7.85 17.5 17.5 17.5 9.741 0 17.666-7.85 17.666-17.5V10h5V5h-5.43c-1.032-2.91-3.81-5-7.07-5H52.667c-3.454 0-6.369 2.348-7.236 5.53a7.46 7.46 0 0 0-5.529 0C39.035 2.347 36.12 0 32.667 0H12.5C9.24 0 6.462 2.09 5.43 5H0v5h5v2.5zm45.167-5c0-1.378 1.121-2.5 2.5-2.5h20.166c.762 0 1.443.343 1.902.881l.598 5.065V12.5c0 6.892-5.682 12.5-12.666 12.5-6.893 0-12.5-5.608-12.5-12.5v-5zM10 10.946l.598-5.064A2.493 2.493 0 0 1 12.5 5h20.167c1.378 0 2.5 1.122 2.5 2.5v5c0 6.892-5.608 12.5-12.5 12.5C15.682 25 10 19.392 10 12.5v-1.554z" fill="#E25641"/></svg>