<svg width="1440" height="800" xmlns="http://www.w3.org/2000/svg" xmlns:xlink="http://www.w3.org/1999/xlink"><defs><path id="a" d="M0 0H1440V800H0z"/></defs><g fill="none" fill-rule="evenodd"><mask id="b" fill="#fff"><use xlink:href="#a"/></mask><use fill-opacity="0" fill="#F7F7F7" xlink:href="#a"/><g opacity=".3" mask="url(#b)" stroke="#E27E6F" stroke-width="2"><g transform="translate(-205 -507)"><path d="M82.5 824L82.5 1009"/><path d="M268 1565.5L453 1565.5"/><path d="M454 1565.5L639 1565.5"/><path d="M1380 82.5L1195 82.5"/><path d="M1565.5 1565L1565.5 1380"/><path d="M82.5 1380L82.5 1195"/><path d="M82.5 1010L82.5 1195"/><path d="M1195 82.5L1010 82.5"/><path d="M1010 82.5L825 82.5"/><path d="M82 1565.5L268 1565.5"/><path d="M1565.65 824c0-61.667-.3-185-.3-185"/><path d="M1565.5 1195L1565.5 1010"/><path d="M1565.35 1009s.3-123.333.3-185M639 1565.5h185"/><path d="M1565.5 1380L1565.5 1195"/><path d="M1565.5 638L1565.5 453"/><path d="M1195 1565.5L1010 1565.5"/><path d="M825 1565.5h185"/><path d="M1565.5 268L1565.5 453"/><path d="M1566 82.5L1381 82.5"/><path d="M1380 1565.5L1565 1565.5"/><path d="M454 82.5L639 82.5"/><path d="M82.5 83L82.5 268"/><path d="M82.5 268L82.5 453"/><path d="M1380 1565.5L1195 1565.5"/><path d="M1565.5 83L1565.5 268"/><path d="M268 82.5L82 82.5"/><path d="M82.5 1565L82.5 1380"/><path d="M824 82.5L639 82.5"/><path d="M82.5 453L82.5 638"/><path d="M82.5 638L82.5 824"/><path d="M268 82.5L453 82.5"/><path d="M159 657c1.448 55.632 2.897 111.368 3 167m-5 334s.571-111.265 2-167m838 500.5H834"/><path d="M324 156.5L491 156.5"/><path d="M157 1491.5L324 1491.5"/><path d="M156.5 156L156.5 323"/><path d="M491 156.5h170"/><path d="M1325 1491.5L1492 1491.5"/><path d="M157 490s.526 111.299 2 167m1332.626-167c-.5-55.667-.1-167-.1-167M491 1491.5h171M162 824c0 55.667-1.333 111.333-3 167m503 500.45c58.022 0 115.424 0 172 .1"/><path d="M324 1491.5L491 1491.5"/><path d="M1325 1491.5h-167m-162-1335H832"/><path d="M1491 156.5L1325 156.5"/><path d="M1158 156.5H995"/><path d="M1325 156.5L1158 156.5"/><path d="M156.5 1158L156.5 1325"/><path d="M1491 490c.53 55.667 4.03 111.333 7 167"/><path d="M156.5 323L156.5 490"/><path d="M661 156.5h171"/><path d="M1491.5 157L1491.5 324"/><path d="M1491.5 1491L1491.5 1324"/><path d="M156.5 1491L156.5 1324"/><path d="M1503 824c-.098-55.632-2.255-111.265-5-167m-6 501c.72-55.701 4.22-111.402 7-167m-341 500.45c-54.454 0-107.881 0-161 .1M1499 991c2.87-55.701 5.103-111.402 4.996-167"/><path d="M324 156.5L157 156.5"/><path d="M1491.57 1325s-.6-111.333.1-167M1453 674c5.337 49.966 8.79 100.034 9 150"/><path d="M374 223.5L223 223.5"/><path d="M1275 1424.5h150"/><path d="M223.5 223L223.5 373"/><path d="M240 674c4.156 50.333 6.89 100.667 7 151m886-601.6c-45.161.1-90.323.1-136 .2M856 1424.55c-51.49 0-104.627 0-159-.1m155-1200.9c49.918 0 98.182 0 145-.1"/><path d="M1425 223.5L1276 223.5"/><path d="M1454 974c5.02-49.931 8.196-99.966 7.99-150M1436 1124c5.897-50.069 12.828-99.931 18-150m-923 450.4c55.093.1 110.701.1 166 .2M241 974c3.717-50 6.194-100 5.988-150M374 1424.45s102.809 0 157 .1"/><path d="M223 1424.5L374 1424.5"/><path d="M223 373s.585 100.069 4 150m1048 901.45c-48.824 0-95.583 0-141 .1m141-1201.1s-96.276 0-142 .1"/><path d="M1424.5 223L1424.5 373"/><path d="M228 1124c-3.913 49.966-5 150-5 150"/><path d="M223.5 1425L223.5 1275"/><path d="M1435 524c-5.612-49.966-10-150-10-150M240 974c-3.57 50.034-8.43 99.966-12 150m907 300.4c-44.759.1-89.621.1-135 .2M1453 674c-5.246-50.034-12.24-99.966-18-150m-435 901.45c-46.352 0-94.249.1-144 .1M1425 1274c.415-50.034 5.085-100.069 11-150M374 223.45s101.587 0 155 .1m165-.1c54.308 0 107.48.1 159 .1M228 524c3.372 50 8.231 100 12 150m289-450.6c54.794 0 110 .1 165 .2M1424.589 1425s-.4-100 0-150M326 689c5.46 45.299 8.798 90.598 9 136m1029 540s3.118-90.206 10-135m-359 135.45c-40.208.1-82.473.1-127 .1m476-1082.1s-86.156 0-126 .1m-355 0c44.764 0 87.362 0 128-.1M283.006 283s-.333 90 3.994 135m47.99 407c.2 45.069-2.796 90.137-7.99 135m684-676.4c39.033-.1 76.826-.1 114-.2m2 1082c-36.444.1-73.606.2-112 .2m223-1082.2c-38.625.1-76.12.1-113 .2M1424 689c-7.016-45.068-16.508-89.932-26-135m37 271c-.2-45.034-4.3-90.171-11-135M326 960c-5.333 45.069-12.718 90.034-20 135m273-811.6c53.078.1 105.95.2 158 .2M1398 554c-9.465-44.966-18.621-89.829-25-135M736 283.45c50.893.1 99.927.1 147 .1M287 418c3.989 45.069 10.739 90.034 18 135m2 542c-7.453 44.966-14.591 89.829-19 135m1086 0c6.815-45.172 16.355-90.034 26-135m0 0c9.645-44.966 19.185-89.931 26-135m-538 405.55c-46.941 0-96.044-.1-147-.1M305 554c7.07 45.034 14.545 89.863 20 135m-42 675.45s91.84 0 141 .1m0-.15c50.991.1 103.531.1 157 .2M423 283.4c50.329 0 102.201.1 155 .2m-155-.1H283m1081 .5s2.386 90.103 9 135m-632 945.65c-52.281-.1-105.59-.2-159-.3M1434.992 825c.2 45-3.497 90.206-9.992 135m-186 404.35c-38.264.1-75.39.2-112 .3m-843 .35s.093-90.034 4-135m951 134.55c39.692-.1 126-.1 126-.1M414 947c-6.352 40.505-15.266 80.701-25 121m34.991-243c.213 40.701-3.401 81.506-9.991 122m-25 121c-9.804 40.333-20.228 80.564-29 121m27-608c9.88 40.563 19.24 81.23 26 122m0-1c6.745 40.897 10.792 82 11 123m919 364c11.205-40.505 23.965-80.598 36-121m-158 242.65c30.522-.1 62.281-.2 96-.3m-1-973c-33.914.1-66.179.1-97 .3m-90 1c29.931-.1 59.657-.2 90-.3M358 459c8.658 40.77 18.986 81.333 29 122m746 730.7c29.23-.1 58.359-.2 88-.4M634 338.35c51.228.1 101.734.2 151 .3m141 972.95c-42.958 0-88.292-.1-136-.2m527-1.4c5.79-40.573 15.031-80.838 26-121M920 338.55c40.13 0 77.694 0 113-.1m100 972.9c-29.998.1-61.126.2-94 .3m-699-1.25c45.94 0 94.146.1 144 .2M1421 825c-.307-40.667-5.016-81.54-13-122m0 1c-8.056-40.804-19.171-81.402-31-122M482 337.35c50.38.1 101.484.2 153 .3M1377 582c-12.209-40.667-24.94-81.23-36-122m-703 851.65c-51.745-.1-103.284-.2-154-.3m301-972.9c47.158.1 92.26.1 135 .1M340 1310c3.79-40.436 11.053-80.77 20-121m-21-852c3.378 40.701 10.344 81.402 19 122m1052 488c7.848-40.425 12.302-81.264 11.984-122M1379 1068c12.003-40.162 23.172-80.427 31-121m-377-608.35c33.517-.1 65.38-.2 96-.3m-339 973.3c-49.498-.1-100.336-.2-152-.3m401 .1c-35.19.1-72.753.1-113 .1M1316 338c5.386 40.804 14.33 81.505 25 122M482 337.6c-49.186-.1-96.622-.2-142-.2M1368 606c-13.814-36.804-28.874-73.299-43-110M500 935c-6.847 36.506-16.861 72.805-28 109m930-328c-8.932-36.942-21.29-73.47-35-110m-224-219.3c24.042-.1 47.572-.3 71-.4m-668 0c49.23.1 98.667.3 148 .4m-289 875.6c46.957.1 95.463.2 145 .4M437 1153c11.93-36.368 24.588-72.53 36-109m817 218c10.755-36.54 23.968-72.77 38-109M961 387.55c36.315 0 69.947 0 101-.1M470 605c11.335 36.494 21.648 73.092 29 110m195-327.7c48.636.1 96.038.3 142 .4M1416 826c-.307-36.701-5.416-73.609-14-110M836 387.4c44.112.1 85.847.1 125 .2m256 875.1c23.077-.1 46.974-.3 72-.4M546 386.65c-48.905-.1-96.675-.3-143-.3m811 .35c23.446-.1 47.609-.3 73-.4m-587 876.4c-50-.1-100.103-.3-150-.4m518 1.15c-30.627.1-63.926.1-100 .1m100 .1c28.178-.1 54.306-.2 79-.3m-85-875.7c28.862-.1 55.655-.2 81-.3M510.992 826c.198 36.402-3.364 72.803-9.992 109m467 328.6c-39.056 0-80.791-.1-125-.2m527-219.4c13.476-36.127 25.604-72.358 34-109M499 715c7.448 36.793 11.793 74 12 111m777-440c10.368 36.873 23.176 73.436 37 110m-482 767.7c-46.195-.1-94.033-.2-143-.4m-295-1.3c8.538-36.54 19.413-72.77 31-109m968-218c7.99-36.025 12.285-72.564 11.985-109M403 386c8.426 36.805 19.245 73.402 31 110m894 657c14.264-36.368 29.257-72.53 43-109M434 496c11.757 36.701 24.45 73.299 36 110m747 656.3c-23.024.1-46.254.3-70 .4m-250-43c-43.316-.1-88.487-.2-135-.4m-143-.55c-48.424-.2-96.228-.3-143-.5M1274 431c14.09 33.24 29.838 66.069 46 99m-808-1c13.676 33.069 27.558 65.828 40 99m866 198c-.315-33.069-5.77-66.344-15-99m-180 491.75c17.553-.2 35.518-.3 54-.5m-109 1.1c-20.45.1-42.646.3-67 .3m118-788.95c17.921-.2 36.152-.3 55-.4m-180 1.35c24.68-.1 47.21-.2 68-.3M1405 924c8.65-32.325 13.396-65.265 12.974-98M1012 1220.55c32.541 0 62.208 0 89-.1M555 1022c-12.371 32.872-26.186 65.333-40 98m247 99.75c-47.358-.2-95.128-.3-143-.5m-5-788.55c-47.723-.2-94.93-.3-141-.4m0-.3c11.897 33.172 25.241 66.034 39 99m711 690.25c-17.682.2-35.879.3-55 .5M889 431.4c40.85.1 79.321.2 115 .2M1404 728c-9.25-33.31-22.346-66.206-37-99m-90 590c14.17-32.838 29.982-65.368 46-98M614 431.25c47.505.2 95.01.3 142 .5M476 1219c11.945-32.838 25.421-65.368 39-98m80.983-295c.314 32.7-3.661 65.607-10.983 98m738 197c16.15-32.632 32.403-65.059 47-98m-366-591.45c32.784 0 62.68 0 90-.1m-82 789.15c-35.583 0-74.054-.1-115-.2M756 431.3c46.182.1 90.918.3 134 .4M1367 629c-14.707-33.137-30.956-65.966-47-99M583 726c7.992 33.127 12.68 66.667 13 100m774 197c14.142-32.392 26.453-64.99 35-98m-243-493.25c19.759-.1 38.586-.3 57-.5M585 924c-7.241 32.908-17.793 65.61-30 98m-3-394c12.318 32.793 23.301 65.793 31 99m100-256.25c-46.08-.2-91.85-.3-137-.5m143 709.5c-46.746-.2-93.183-.4-139-.5m643 1.1c-16.977.2-35.805.3-57 .3M1272 470c16.312 29.77 33.76 59.333 51 89m49 90c-15.385-29.906-32.536-59.402-50-89m87 178c-9.25-29.976-22.16-59.642-37-89m-135 531.75c12.932-.2 25.864-.4 39-.5m-83 .5c15.32-.1 29.518-.3 43-.5M636 1003c-12.702 29.504-27.146 58.7-42 88m-44 88c14.19-29.402 29.197-58.7 44-88m637-620.25c13.632-.2 27.16-.3 41-.5m4 709.75c16.452-29.436 33.829-58.667 51-88M633 648c12.903 29.46 24.052 59.127 32 89m471 444.45c-23.845.1-50.477.1-80 .1M677.983 827c.314 29.667-3.661 59.643-10.983 89m284 265.4c37.669.1 72.771.2 105 .2M942 471.4c37.537.1 72.605.2 105 .2m280 620.4c17.227-29.196 34.042-58.393 49-88m-190-532.25c15.961-.1 30.79-.3 45-.5M1376 1003c14.648-28.957 27.335-58.324 36-88m-461 265.7c-40.147-.1-82.353-.2-126-.4M665 737c8.073 29.76 12.685 60.034 13 90m734 88c8.65-29.287 13.396-59.299 12.974-89M546 470c14.117 29.804 29.162 59.299 44 89m0 0c14.993 29.598 29.777 59.093 43 89m495-176.35c21.417-.1 40.682-.2 58-.3m-138 .2c29.436 0 56.103 0 80-.1m-310-.15c43.317.2 85.087.3 125 .4m-260-1.45c45.481.2 90.55.3 135 .5M1425 827c-.414-29.701-5.793-59.608-15-89M667 915c-7.22 29.575-17.695 58.942-30 88m188 177.75c-44.683-.2-90.187-.3-136-.5M620 506c15.495 26.77 31.402 53.23 47 80m582-79.25c9.836-.2 19.469-.3 29-.5M1382 667c-15.204-26.974-32.347-53.436-50-80m88 160c-9.174-27.044-22.118-53.676-37-80m-105-161c17.76 27.035 36.034 53.965 54 81m-169-79.35c18.763-.1 35.36-.2 50-.3M742 746c7.968 26.795 12.685 54 13 81m345 319.6c-29.648 0-61.98-.1-97-.2m-379-2.4c15.53-26.368 31.573-52.53 47-79m80-558.75c42.985.2 85.455.4 127 .5M1386 986c14.732-25.923 27.389-52.257 36-79m0 0c8.083-26.253 12.374-53.23 11.974-80M886 1145.3c40.745.2 79.847.3 117 .4m-246-.9c-44.47-.2-88.94-.4-133-.6M714 986c-12.89 26.908-27.635 53.402-43 80m764-239c-.417-26.701-5.833-53.711-15-80m-534 398.75c-42.243-.2-85.311-.3-129-.5m456-637.5c13.11-.1 25.075-.3 36-.5m6 638c-10.272.2-21.468.4-34 .5M878 507.3c40.312.2 79.082.3 116 .4m289 637.3c17.793-26.402 36.207-52.598 54-79M710 666c12.903 26.426 24.052 53.058 32 80m349-238.45c26.743 0 50.709 0 72-.1M744 907c-7.192 26.678-17.671 53.046-30 79m541 159.75c9.47-.2 18.735-.4 28-.5M667 586c15.284 26.598 29.957 53.093 43 80m627 399c17.739-26.196 34.959-52.393 50-79M751 506.75c-43.838-.2-87.573-.4-131-.5M754.981 827c.323 26.735-3.552 53.574-10.981 80m250-399.6c34.887.1 67.29.2 97 .2m81 639.05c18.543-.1 34.808-.2 49-.3m-49 .1c-20.87.1-44.503.1-71 .1m-56-606.15c31.758.1 61.16.2 88 .2M741 610c15.357 23.897 30.1 47.691 43 72m359 432.55c24.141 0 45.406 0 64-.1M789 970c-12.671 24.345-27.42 48.173-43 72m605 0c17.595-23.496 34.27-46.991 49-71m-267-430.45c24.388 0 45.986 0 65-.1m98 572.55c18.402-23.735 37.011-47.265 55-71m96-214c-.532-24-5.957-48.412-15-72m-648-74c12.584 23.759 23.429 47.725 31 72m585 217c14.351-23.223 26.637-46.856 35-71m-186 214.35c-11.897.2-25.759.3-42 .3m-64-.05c-26.98 0-56.75-.1-89-.2M815 754c7.992 24.06 12.574 48.633 13 73m-.018 1c.305 24.034-3.26 48.275-9.982 72m617 0c8.05-23.586 12.386-48 11.973-72M1241 539.75c10.59-.1 19.753-.3 28-.5M1395 683c-15.164-24.273-32.275-48.137-50-72m-55-73c18.333 24.368 36.976 48.632 55 73m87 145c-9.224-24.377-22.076-48.343-37-72m-340 430.7c-34.513-.1-70.984-.2-109-.4m-121-.5l-127-.6m0-.2c16.137-23.7 32.377-47.197 48-71m79 71.25c41.09.2 81.561.4 121 .5M817 899c-6.842 23.977-16.95 47.643-29 71m481-431.25c7.345-.2 14.276-.3 21-.5m-14 576c-7.788.2-16.72.4-27 .5m27-1c6.98-.2 13.542-.4 20-.5m-98-573.6c16.46-.1 30.758-.2 43-.3m-423-.55l-125-.6m125 1.05c40.489.2 80.258.4 119 .5M693 538c16.069 24 32.343 47.897 48 72m196-70.7c37.65.2 73.754.3 108 .4m187 29.95c14.412-.1 26.677-.2 37-.3m37-1.35c18.574 21.7 37.148 43.197 55 65m49 65c-14.762-21.975-31.47-43.436-49-65m85 130c-8.922-22.044-21.476-43.677-36-65M882 567.8c-39.127-.2-78.46-.4-118-.6M1415 957c14.037-20.923 25.89-42.256 34-64m-346 193.7c-31.846-.1-65.65-.2-101-.4m365-65.3c17.333-21.093 33.641-42.29 48-64M993 568.3c35.02.1 68.492.3 100 .4M1460 828c-.507-21.701-5.58-43.712-14-65M764 568c16.31 21.701 32.516 43.196 48 65m70-64.75c37.787.2 74.958.3 111 .5M884 762c7.322 21.727 11.593 43.966 12 66m-37 128c-12.298 21.674-26.68 42.837-42 64m495 65c18.575-21.299 37.15-42.495 55-64m-274-451.6c29.333.1 56.402.2 81 .2m104 516.75c-9.949.1-21.846.2-36 .3m-473-1.45l120 .6m403-517.05c5.1-.2 9.7-.3 14-.5M887 893c-6.588 21.68-16.368 42.943-28 64m143 128.75c-36.738-.2-74.508-.3-113-.5m285-515.7c21.89 0 41.122 0 58-.1m68 515.8c-5.765.2-12.662.3-21 .5M812 632c15.161 21.494 29.502 43.092 42 65m595 195c7.472-20.958 11.456-42.633 10.958-64M854 697c12.184 21.356 22.628 43.022 30 65m219 324.4c29.464.1 56.464.2 81 .2m116-.85c4.773-.2 9.04-.3 13-.5m-43-516.5c8.578-.1 15.844-.3 22-.5m-50 518.2c-16.749.1-35.979.1-58 .1M895.966 828c.429 21.736-3.215 43.678-9.966 65m-117 192c16.345-21.299 32.586-42.495 48-64m515 39c18.11-19.299 36.015-38.494 53-58m-61 58.75c3.2-.1 5.8-.3 8-.5M1461 771c-8.474-20.048-20.318-39.68-34-59m-289-116.6c26.89.1 51.626.2 74 .2m-269-.8c-36.69-.2-73.69-.4-111-.6m493-.2c18.379 19.598 36.55 39.196 54 59m7 349c16.625-19.057 32.333-38.321 46-58M919 711c11.807 19.025 21.854 38.358 29 58m0 0c7.327 19.725 11.575 39.966 12 60m-18-234.75c35.495.2 70.265.3 104 .5m10 466c-34.004-.2-69.141-.3-105-.5M1475 828c-.526-19.367-5.579-39.042-14-58M878 652c14.843 19.163 28.752 38.325 41 58m397-115.25c3.522-.1 6.457-.3 9-.5m-18 466.1c-8.334.1-18.6.2-31 .3m22-464.95c7.345-.1 13.241-.3 18-.4m8 465c-4.1.2-9.4.3-16 .4m-357-.9c-37.359-.2-75.128-.4-113-.6M1432 945c13.23-18.92 24.41-38.253 32-58m-418-291.7c32.313.1 62.98.3 92 .4M950 887c-6.07 19.343-15.074 38.274-26 57m352 117.45c-14.872.1-32.103.1-52 .1m41-465.9c13.054-.1 24.019-.1 33-.3m-74 465.25c-22.343 0-47.044-.1-74-.2M832 594c16.114 19.265 31.919 38.53 47 58m548 60c-14.41-19.977-30.79-39.54-48-59m-541 407c16.185-19.264 32.06-38.529 47-58m579-115c7.537-18.922 11.571-38.564 10.934-58M1212 595.55c20.082 0 37.783 0 53-.1M959.965 829c.412 19.402-2.783 39.009-8.965 58m-27 57c-11.71 19.677-25.389 38.941-40 58m172 58.3c32.678.1 63.815.3 93 .4M1346 618c17.744 17.598 35.282 35.196 52 53m82 210c6.874-16.923 10.465-34.667 9.952-52M1348 1037.75c2.386-.1 3.977-.3 5-.5M1398 671c16.577 17.46 32.22 35.023 46 53m-464-1c11.045 17.026 20.352 34.359 27 52m482 54c-.512-17.77-5.323-35.749-13-53M986 933c-11.005 17.641-23.984 34.872-38 52m245 52.7c-26.984-.1-55.823-.2-86-.4m246-.3c17.852-17.264 35.29-34.425 52-52m-309-366.65c29.812.1 58.283.3 85 .3m155 419.7c-7.34.1-16.674.2-28 .3m-59-419.1c18.31 0 34.241 0 48-.1M1477 777c-8.198-18.047-19.717-35.68-33-53m-95 313.3c-3.095.2-7.325.3-13 .4m-327-.9c-34.922-.2-70.359-.4-106-.6M1018.964 829c.398 17.367-2.489 34.94-7.964 52m-3-106c6.62 17.691 10.593 36 11 54m-71 156c-14.172 17.54-29.38 34.77-45 52m278-417.6c24.83.1 47.497.1 68 .2M1405 985c16.028-17.127 30.933-34.254 44-52m-152-313.35c11.683 0 21.28-.1 29-.3M1010 881c-5.833 17.342-14.583 34.376-25 51m323 106.45c-13.312.1-28.978.1-47 .1m0 .05c-20.441 0-43.142-.1-68-.2M897 618c15.514 17.265 30.616 34.53 45 52m507 263c12.407-16.887 22.983-34.186 30-52m-153-262.3c5.9-.1 10.5-.2 14-.4m0 .45c2.632-.1 4.526-.3 6-.5m-346 0c32.894.2 64.962.3 96 .5m-96-1c-34.254-.2-69.024-.4-104-.5M941 670c14.21 17.163 27.383 34.428 39 52m30 315.25c33.155.2 65.59.3 97 .5m177-397.25h43m12 376.962c-12.094.1-26.462.1-43 0M1492 782c-7.801-16.041-18.58-31.674-31-47m-88 282.3c-2.121.2-5.455.3-10 .4M1037 733c10.589 15.357 19.605 31.024 26 47m354-93c15.81 15.792 30.79 31.688 44 48m-88 281.75c1.384-.1 2.192-.4 1.96-.5M1504 829c-.64-15.77-5.328-31.743-13-47m-139-141.3c5.31-.1 9.239-.2 12-.4m-399 375.95c33.342.2 66.376.4 99 .5m-100-.75c14.993-15.563 29.465-31.126 43-47m459-46c11.996-15.322 22.115-30.954 29-47m-494-190c13.119 15.53 25.322 31.06 36 47m35.957 96c.43 15.7-2.366 31.607-7.957 47m89 140.75c-29.142-.1-59.21-.3-90-.5m169 1.4c-24.758-.1-51.16-.2-79-.3m221-.35c16.879-15.597 33.349-31.195 49-47M958 639c14.849 15.598 29.388 31.197 43 47m220-45.6c22.648.1 43.349.1 62 .2m-229-.85c-31.92-.2-64.357-.3-97-.5M1495 876c6.22-15.221 9.532-31.265 8.93-47M1364 639.7c1.548-.1 2.516-.2 3-.4M1062 780c6.686 16.093 10.569 32.598 11 49m290 188.4c-6.203.1-14.136.2-24 .2m-12-377c10.163 0 18.394-.1 25-.2m-56 377.2c-18.62 0-39.287-.1-62-.2M1042 922c-10.174 15.94-22.078 31.573-35 47m47-329.7c30.494.2 60.264.3 89 .4M1424 970c15.338-15.46 29.647-30.918 42-47m-99-284c17.181 15.931 33.95 31.862 50 48m-274-46.65c27.475.1 53.51.2 78 .3M1066 876c-5.387 15.677-13.365 30.942-23 46m155 76.7c-26.741-.1-54.51-.3-83-.4m156 .35c-22.89-.1-47.326-.2-73-.3M1062 956c-12.577 14.24-25.98 28.172-40 42m461-84c11.215-13.658 20.665-27.623 27-42m-394 0c-4.917 13.94-12.19 27.675-21 41m260-253.4c9.41 0 17.04-.1 23-.2m9-.7c.8-.1 1.12-.3.96-.4M1015 659c13.944 13.966 27.38 27.83 40 42m58 85c5.98 14.428 9.485 29.265 10 44m205 169.6c-17.049 0-36.151-.1-57-.2m107-339.7c4.207-.1 7.141-.2 9-.4m56 296.7c14.545-13.794 28.156-27.588 40-42m-360.045-85c.416 14.368-2.076 28.944-6.955 43m251 127.478c-10.908 0-23.873.1-39 0M1105 659.3c28.126.2 55.528.3 82 .4m128-.2h40M1519 830c-.62-14.368-4.966-29.048-12-43m-71-85c14.76 14.161 28.7 28.425 41 43m-89-86c16.484 14.299 32.657 28.495 48 43m70 85c-7.326-14.749-17.4-28.978-29-43m-388-1c9.766 13.727 18.078 27.761 24 42m397 87c6.308-13.591 9.57-28 8.918-42M1389 999.4c-5.579.1-12.842.2-22 .2m-181-340.25c25.308.1 49.377.2 72 .3M1397 998c16.253-13.931 32.093-27.76 47-42m-186-296.6c20.886.1 39.92.1 57 .2M1095 914c-9.458 14.307-20.664 28.204-33 42m-40 42.25c31.448.2 62.483.4 93 .5M1055 701c12.429 13.796 24.036 27.796 34 42m308.348 255.7c.6-.1.5-.3-.1-.4m-.248 0c-1.519.2-4.152.3-8 .4m-284-339.95c-29.588-.2-59.588-.3-90-.5m379 324.25h-36m-65-305.1c19.04.1 36.339.1 52 .2m109 37.4c14.069 12.792 27.31 25.688 39 39m-80 228.4c-4.775.1-11.075.2-19 .2m-318-1.35c29.112.2 57.813.3 86 .5M1160 790c5.34 13.06 8.604 26.632 9 40m363 0c-.595-12.769-4.658-25.64-11-38m-108 190.65c3.61-.1 5.906-.1 7-.3M1076 981c12.98-12.529 25.45-25.16 37-38m305 39c15.215-12.563 30.019-25.126 44-38m59-152c-7.078-13.04-16.758-25.571-28-38m-342-78.25c-27.188-.2-54.991-.3-83-.5M1500 906c10.39-12.288 19.136-24.886 25-38m-387-116c8.902 12.46 16.474 25.024 22 38m259.97 191.7c.139 0-.208-.3-.97-.4m-113 1.35c-20.995-.1-43.329-.2-67-.3M1462 944c13.53-12.425 26.033-24.954 37-38m-118-229.4c8.325 0 14.924-.1 20-.2m0 .25c3.844-.1 6.442-.1 8-.3m0-.35c15.514 12.931 30.616 25.862 45 39m-96 267.6c-15.528 0-32.998-.1-52-.2m-79-306.05c23.203.1 45.272.2 66 .3m-225-.65c13.217 12.632 26.022 25.265 38 38m303.293-37.3c.6-.1.5-.3 0-.4M1239 981.7c-24.872-.1-50.573-.3-77-.4m-10-305c25.788.1 50.856.3 75 .4M1168.953 830c.39 12.667-1.659 25.538-5.953 38m-57-154c11.74 12.53 22.545 25.06 32 38m207-74.5h36M1144 905c-8.872 12.94-19.414 25.573-31 38m411-75c5.68-12.324 8.625-25.265 7.889-38M1163 868c-4.369 12.574-10.973 24.942-19 37m242 62.6c-14.39 0-30.424-.1-48-.2M1535 796c-6.577-12.015-15.62-23.612-26-35m-137-68.5h33m36 274.85c-.577.3-2.308.2-5 .3m-17-.05c7.243 0 12.876-.1 17-.2M1206 865c-4.13 11.273-10.376 22.24-18 33m350-33c5.009-11.027 7.513-22.667 6.912-34M1195 691.7c-25.187-.1-50.888-.3-77-.4m65 68.7c8.08 11.094 15.05 22.495 20 34m203-101.4c7.441 0 13.374-.1 18-.2m56 240.6c12.774-11.127 24.718-22.358 35-34m-191-206.55c17.51.1 33.58.1 48 .1m-177-.25c23.754.1 46.788.3 69 .4m-146-1.7c12.178 11.231 23.947 22.565 35 34m58.942 105c.44 11.701-1.65 23.507-5.942 35m-45 67c-10.833 11.54-22.604 22.77-35 34m138-273.65c21.158.1 41.193.2 60 .3M1153 726c10.582 11.163 20.453 22.428 29 34m242-67.35c3.446-.1 5.815-.1 7-.3M1276 966.7c-22.617-.1-45.95-.2-70-.4m224.843-273.65c.3-.1 0-.2-.8-.3M1430 692c14.476 11.563 28.646 23.23 42 35m0 0c13.017 11.528 25.119 23.056 36 35m-382 204.25c27.113.2 53.814.3 80 .5M1203 794c5.294 11.761 8.576 23.932 9 36m334 1c-.629-11.701-4.714-23.612-11-35m-96 171c14.177-11.264 28.047-22.529 41-34m-142 34.65c-19.388-.1-40.124-.2-62-.3M1515 899c9.609-10.99 17.684-22.29 23-34m-97.021 101.7c.18-.1-.81-.3-1.979-.4m-20 1.2h-33M1189 898c-8 11.605-17.538 22.904-28 34m386-132c-6.076-10.675-14.481-20.94-24-31m-278 92c-3.66 10.173-9.203 20.242-16 30m329-60c-.7-10.402-4.3-21.01-10-31m-385-95c11.592 10.264 22.661 20.528 33 31m46 62c4.7 10.759 7.6 21.931 8 33m239-93c12.224 10.197 23.83 20.395 34 31m-169-62.55c16.037.1 30.738.1 44 .1m51.99.1c.077 0-.304-.2-.99-.3m0-.35c13.747 10.562 27.183 21.229 40 32m-317 215.3c25.078.2 49.744.3 74 .4M1196 736c9.893 10.16 19.065 20.425 27 31m-51 186c11.288-10.229 22.058-20.458 32-31m31-215.65c21.717.1 42.717.2 63 .3m70 247c-17.825-.1-36.895-.2-57-.3M1530 892c9.158-9.987 16.842-20.285 22-31m-140 93.5h30m3-247.85c3.107-.1 5.036-.1 6-.3M1249.94 831c.413 10.402-1.337 20.907-4.94 31m66 91.7c-20.978-.1-42.679-.2-65-.4m-16-62.3c-7.384 10.608-16.224 20.804-26 31m95-215.65c19.424.1 37.723.2 55 .3m103 247.75c-3.844.1-9.143.1-16 .2m110-92.6c5.092-10.057 7.638-20.736 6.863-31M1235 705.7c-23.29-.1-46.991-.3-71-.4M1498 923c11.757-10.125 22.594-20.354 32-31m-307-125c7.683 10.09 14.224 20.39 19 31m156-91.5h30m0 .1c7.092 0 12.724-.1 17-.2m-33 248.15c-13.128 0-27.897-.1-44-.1m89-.8c2.84-.1 4.773.2 5-.3m-3-.35c13.52-9.932 26.728-19.865 39-30m-36.006 30.65c.11-.3-1.33-.2-2.994-.3M1206 718c10.515 9.264 20.619 18.528 30 28m232-27c12.812 9.265 25.213 18.53 37 28m-84-27.5h28m-177-.8c-21.587-.1-43.587-.3-66-.4M1564 859c4.396-9.022 6.594-18.667 5.861-28M1272 718.35c19.95.1 39.387.2 58 .3m0 .75c18 .1 35.069.2 51 .2M1278 801c4.693 9.758 7.467 20.035 8 30m163-111.45c6.3 0 11.2-.1 15-.1m-70 222.2c-16.27-.1-33.671-.2-52-.3M1514 914c11.03-9.124 21.237-18.352 30-28m-259.058-55c.367 9.402-1.008 18.908-3.942 28m113 82.45c14.985.1 28.72.1 41 .1m28 .95h-28M1243 913c-9.018 9.543-18.753 18.772-29 28m266.984.35c.21.3-1.677.2-3.984.3m4 0c-.31-.3-1.448-.2-3-.3m-16 .2c6.383 0 11.383-.1 15-.1m1-.45c12.585-8.932 24.653-17.865 36-27m30-27c8.394-8.985 15.337-18.284 20-28m-328-113c9.167 9.194 17.708 18.493 25 28m0-1c6.922 9.09 12.725 18.388 17 28m191.986-82.35c.132 0-.662-.2-1.986-.3M1244 913c8.612-9.196 16.515-18.391 23-28m75 56.65c-19.02-.1-38.754-.2-59-.3m-2-82.35c-3.246 9.174-8.014 18.243-14 27m303-55c-.737-9.402-4.421-19.011-10-28m-277 138.7c-22.552-.1-45.62-.3-69-.4M1505 747c11.458 9.23 22.297 18.462 32 28m0 0c9.117 9.059 17.095 18.324 23 28m-179-83.55c14.555.1 27.99.1 40 .1m43 .05c2.6-.1 4.3 0 5-.2M1272 754c8.468 8.195 16.205 16.494 23 25m262 102c7.483-8.091 13.854-16.39 18-25m-257.075-25c.424 8.402-.955 16.906-3.925 25m206-100c10.796 8.232 20.865 16.463 30 25m-249 99c5.496-7.759 10.04-15.828 13-24m236-75c8.279 8.094 15.649 16.393 21 25m-213-75.6c16.533.1 32.235.2 47 .2m166 75.4c4.945 8.094 8.308 16.598 9 25m-98-100.4c2.667 0 4.333 0 5-.2m-242-.4c9.44 8.264 18.575 16.529 27 25m8 150c-8.372 8.542-17.477 16.77-27 25m48-50c-5.913 8.607-13.049 16.906-21 25m188-174.45c5.884 0 10.55 0 14-.1m-177-.75c-19.988-.1-40.287-.2-61-.4m242.988 1.35c.124 0-.745-.2-1.988-.3M1311 804c4 8.829 6.5 17.966 7 27m167-101c12.047 8.597 23.783 17.194 35 26m-115-25.55c13.53.1 25.828.1 37 .1m57 200.1c-.4-.2-1.5-.2-3-.3m80-74.35c3.694-8.025 5.541-16.667 4.86-25m-81.88 99.4c.233.1-1.522.2-3.98.2m1 .4c11.474-8.23 22.542-16.458 33-25m-34 25.45c-3.1.1-7.4.1-13 .1m47-25.55c10.267-8.125 19.704-16.458 28-25m-100 50.5h25M1295 779c6.484 8.125 11.922 16.458 16 25m145 127.55c-11.11 0-23.444-.1-37-.1m-48-1.05c16.862.1 33 .2 48 .2m-47 .05c-17.745-.1-36.113-.2-55-.3m-12-200c18.248.1 35.88.2 53 .3m84-.15h26m-215 199.8c21.644.1 43.08.3 64 .4m-28-10.7c8.579-7.231 16.647-14.565 24-22m19-23c-5.312 7.84-11.85 15.473-19 23m85 22.65c-16.152-.1-32.819-.2-50-.3m-12-180c16.886.1 33.254.2 49 .3m13 180.75c15.457.1 30.192.2 44 .2m-94-.9c-19.288-.1-38.99-.2-59-.4m139-179.85c12.392.1 23.759.1 34 .1M1586 854c-3.939 7.604-9.951 14.903-17 22m-57 45.45c-2.876.1-6.843.1-12 .1m-14-181c5.442 0 9.775 0 13-.1M1326 785c5.6 7.13 10.4 14.463 14 22m222-21c7.897 7.423 14.77 15.055 20 23m-239 45c-2.523 7.203-6.358 14.203-11 21m202-112c10.097 7.563 19.569 15.126 28 23m-49 135c10.814-7.231 21.216-14.463 31-22m-82-158.5h24m16.987.1c.133 0-.795-.2-1.987-.2m89.827 91.6c.751 7.367-.965 14.936-4.827 22m-4-45c4.862 7.423 8.172 15.264 9 23m-92-91.4c2.19 0 3.524 0 4-.2M1344 854c2.222-7.527 3.288-15.368 2.933-23M1280 740c8.745 7.3 17.181 14.6 25 22m35 45c3.985 8.159 6.57 16.632 7 25m155-92c11.006 7.598 21.707 15.196 32 23m-18 157.65c-.414-.2-1.448-.2-3-.3M1385 740.4c15.128.1 29.427.2 43 .2m86.982 180.8c.192.1-1.155.2-2.982.2M1305 762c7.665 7.231 14.805 14.565 21 22m116 137.45c12.42.1 23.719.1 34 .1m24-.05h-24m67-23.5c9.568-7.13 18.304-14.463 26-22"/><path d="M1336 740.65c-18.254-.1-37.024-.2-56-.3m251 172.25c-.462-.2-1.5-.2-3-.2m19-142.4c9.323 6.93 18.127 13.755 26 21m-229 100c6.413-6.533 12.216-13.166 17-20m133 41.55c-9.662 0-20.364-.1-32-.1M1596 852c-3.709 6.974-9.324 13.641-16 20m-7-81c7.475 6.465 14.016 13.03 19 20m-76 101.5h-22M1312 749c8.118 6.564 15.819 13.23 23 20m36 83c-2.268 6.47-5.67 12.838-10 19m61 41.4c14.082.1 27.449.2 40 .2m-86-.25c15.78.1 31.148.2 46 .3m92-163.05c2.1 0 3.5 0 4-.2m81.794 82.6c.778 6.599-.681 13.604-3.794 20m-275 60c7.887-6.564 15.255-13.128 22-20m66-142.35c-14.446-.1-29.515-.2-45-.3m12 162.3c-17.953-.1-36.32-.2-55-.3m52.91-79.35c.416 6.667-.623 13.535-2.91 20m186 40c8.831-6.495 16.935-13.093 24-20m-217-122.35c-16.626-.1-33.66-.2-51-.3m167 1.15h22m26 162.1c1.789 0 3.18-.1 2.981-.2"/><path d="M1517 749.4c.615.1 1 .2 1 .2M1354 789c5.22 6.495 9.724 13.196 13 20m81-59.55c11.608.1 22.38.1 32 .1m48 162.9c-2.947.1-6.842.1-12 .1m12-.55c10.119-6.598 19.82-13.196 29-20m-148-142.6c13.753.1 26.787.1 39 .2m99 21.4c-9.555-7.07-19.623-14.035-30-21m-182 19c7.033 6.598 13.436 13.196 19 20m19 42c-.492-7.4-2.557-14.802-6-22m135-58.45c4.959 0 9.025 0 12-.1m77 61.55c4.88 6.364 8.133 13.232 9 20"/><path d="M156 1492L223 1425"/><path d="M769 1085c22.482-8.435 45.586-16.768 69-25m238-79c-18.207 5.596-36.207 11.298-54 17m231-68a9771.404 9771.404 0 0 0-39 11m216-249c6.526 4.7 13.158 9.401 20 14m-278 247c13.864-4 27.83-8 42-12m303-191c-5.102-3-10.102-6-15-9m-426 240c16.529-4.966 33.161-10.034 50-15m46-13c-15.436 4.3-30.77 8.6-46 13m-162 50c-20.64 6.633-40.973 13.266-61 20"/><path d="M1565 83L1491 157"/><path d="M1322 911c-11.07 2.965-22.035 6.035-33 9M283 1365s36.076-36.514 57-54m1069-635c-7.206-5.633-14.309-11.266-21-17m0 0c-7.304-6.3-14.304-12.599-21-19m101 79a1481.948 1481.948 0 0 1-19-13m53 34c-5.434-3.3-10.667-6.7-16-10m-56-38c-6.869-5.263-13.535-10.632-20-16m76 54c-6.035-3.667-12.07-7.333-18-11m-101-80c-7.34-6.966-14.374-13.933-21-21m18-335s-34.52 35.486-48 54m-38 169a185.35 185.35 0 0 1-6-36m17 450a2961.697 2961.697 0 0 0-36 10m63-592c-11.85 15.886-21.62 32.288-29 49"/><path d="M1648 0L1566 82"/><path d="M0 1648L82 1566"/><path d="M405 1262c22.22-14.673 45.886-28.938 71-43m489-203c19.057-6.034 38.425-12.067 58-18m302-404a307.204 307.204 0 0 1-19-26m-16-30a207.364 207.364 0 0 1-12-32m-440 554a4263.01 4263.01 0 0 1 65-23m387-498c4.586 9.803 9.987 19.401 16 29m-756 612c23.746-11.838 48.412-23.47 74-35m74-32c-25.392 10.266-50.059 20.531-74 31m663-758c-6.153 14.393-10.52 29.196-13 44"/><path d="M223 1425L283 1365"/><path d="M1274 430a215.795 215.795 0 0 0-1.736 40"/><path d="M83 1565L157 1491"/><path d="M1425 223L1365 283"/><path d="M1325 594a393.08 393.08 0 0 0 20 24m-576 467c-24.246 9.197-47.981 18.599-71 28m-222 106c23.46-13.274 48.162-26.24 74-39m-145 82c-23.487 15.917-45.222 32.25-65 49"/><path d="M1492 156L1425 223"/><path d="M1648 1648L1566 1566"/><path d="M473 430c23.129 13.575 47.496 26.84 73 40m913 483c6.196-4 12.495-8 19-12m-166-192c-10.768-3-21.435-6-32-9m-162-49c15.196 4.7 30.494 9.3 46 14m42 13c12.965 3.667 25.93 7.333 39 11"/><path d="M1565 1565L1491 1491"/><path d="M1244 730c11.896 3.3 23.896 6.7 36 10m3 405c3.328-10.469 7.696-20.836 13-31M832 594c-23.147-8.633-45.78-17.266-68-26m304 108c16.528 5.368 33.16 10.632 50 16m-160-53c-20.676-6.966-41.044-13.933-61-21m416 467c5.73-8.435 12.164-16.768 19-25m-15 250c-11.493-15.626-21-31.762-28-48m7-149c4.872-9.504 10.573-18.803 17-28m84-87a635.654 635.654 0 0 1 22-17"/><path d="M223 223L283 283"/><path d="M1364 1365s-33.922-35.553-47-54M283 283s35.692 36.514 56 54m937 843c1.03-11.735 3.397-23.47 7-35M340 337c19.406 16.747 40.774 32.977 64 49m216 120c-25.564-11.897-50.3-23.897-74-36m-143-84c21.785 14.907 45.221 29.607 70 44m859 630c6.485-7.805 13.588-15.403 21-23m-147-319c-14.137-4.333-28.068-8.667-42-13m314 236c5.93-3.667 11.965-7.333 18-11"/><path d="M83 83L157 157"/><path d="M156 156L223 223"/><path d="M1375 1016a662.758 662.758 0 0 1 22-18"/><path d="M0 0L82 82"/><path d="M1512 921c5.298-2.965 10.596-6.035 16-9m-175 125a521.27 521.27 0 0 1 22-20"/><path d="M1425 1425L1365 1365"/><path d="M1496 931c5.562-3.404 11.228-6.702 17-10M620 506c23.645 10.803 47.91 21.503 73 32"/><path d="M1492 1492L1425 1425"/><path d="M1418 982a632.887 632.887 0 0 1 21-15m-162 252a153.41 153.41 0 0 1-1.33-39M1015 659c17.462 5.633 35.13 11.367 53 17M693 538c23.116 9.735 46.749 19.47 71 29m194 72c18.76 6.401 37.727 12.7 57 19m-183-64c21.288 8.035 42.886 16.07 65 24m392 644c-5.752-14.164-9.818-28.53-12-43m162-252c6.495-4.4 13.196-8.7 20-13"/><path d="M1647.5 412L1647.5 206"/><path d="M1647.5 618L1647.5 412"/><path d="M1647.5 1030L1647.5 824"/><path d="M1647.5 1648L1647.5 1442"/><path d="M1647.5 1236L1647.5 1030"/><path d="M1647.5 824L1647.5 618"/><path d="M1647.5 0L1647.5 206"/><path d="M1647.5 1442L1647.5 1236"/><path d="M206 0.5L412 0.5"/><path d="M1236 0.5L1030 0.5"/><path d="M618 0.5L412 0.5"/><path d="M206 0.5L0 0.5"/><path d="M1442 0.5L1236 0.5"/><path d="M1648 0.5L1442 0.5"/><path d="M824 0.5L618 0.5"/><path d="M1030 0.5L824 0.5"/><path d="M0.5 412L0.5 618"/><path d="M0.5 1030L0.5 1236"/><path d="M0.5 1236L0.5 1442"/><path d="M0.5 206L0.5 412"/><path d="M0.5 824L0.5 1030"/><path d="M0.5 618L0.5 824"/><path d="M0.5 1648L0.5 1442"/><path d="M0.5 0L0.5 206"/><path d="M0 1647.5L206 1647.5"/><path d="M206 1647.5L412 1647.5"/><path d="M618 1647.5L824 1647.5"/><path d="M824 1647.5L1030 1647.5"/><path d="M412 1647.5L618 1647.5"/><path d="M1030 1647.5L1236 1647.5"/><path d="M1442 1647.5L1236 1647.5"/><path d="M1442 1647.5L1648 1647.5"/><path d="M1328 1153c3.451 12.103 8.889 24.205 16 36m81 86c22.23 16.872 67 50 67 50m-164-172c-3.295-10.565-5-21.333-5-32m14-56c3.94-7.768 8.607-15.434 14-23m16-21c-6.23 6.897-11.932 13.897-17 21m164-128c4.966-2.667 9.932-5.333 15-8m-15 8c-5.468 3-10.734 6-16 9m-17 10c5.599-3.299 11.3-6.701 17-10m-155 266c8.218 13.708 18.725 27.008 31 40m31-244a345.187 345.187 0 0 0-19 17m-49 64a132.291 132.291 0 0 0-10 26m0 0c-2.667 9.564-4 19.333-4 29m139-177c-6.541 4-12.874 7.9-19 12m100-57c-4.768 2.3-9.435 4.7-14 7m-86 50a572.096 572.096 0 0 0-19 14"/><path d="M1491 1324L1565 1380"/><path d="M1480 933c-6.136 3.667-12.17 7.231-18 11"/><path d="M1648 1442L1566 1380"/><path d="M1424 970c-6.635 4.966-12.968 9.932-19 15m-20 17c-6.472 6.196-12.438 12.495-18 19m190-129c-4.367 2-8.734 4-13 6m-170 332c14.286 15.482 31.122 30.447 50 45m91-376c-5.474 2.268-10.737 4.634-16 7m31-14c-5.104 2.297-10.104 4.594-15 7m-16 7c-5.434 2.633-10.767 5.266-16 8m-113 109c1.034-6.435 3.103-12.871 6-19m181-123c3.966-1.63 7.932-3.37 12-5m-86 38c-5.805 2.966-11.506 5.932-17 9"/><path d="M1648 1236L1566 1195"/><path d="M1569 876c3.633-1.333 7.367-2.667 11-4m-180 99c-4.863 4.9-9.229 9.9-13 15m-17 58c1.448 8.069 4.552 16.138 9 24m-9.284-45a65.139 65.139 0 0 0 .284 21m30 51c10.138 10.38 22.241 20.346 36 30m-56-57c5.025 9.278 11.86 18.243 20 27m157-214c-4.402 1.667-8.7 3.333-13 5m-14 6c4.632-2 9.265-4 14-6m-112 59c-6.019 3.967-11.72 7.934-17 12m34-24c-5.94 3.633-11.572 7.266-17 11m34-21c-5.904 3.265-11.503 6.633-17 10m-63 53c-4.06 5.497-7.426 11.198-10 17m24-32c4.6-4.77 9.6-9.437 15-14m151 238s-49.505-24.358-74-37m-56-33c16.5 11.443 35.27 22.375 56 33m3-282c-5.134 1.596-10.168 3.298-15 5m30-9a1011.347 1011.347 0 0 0-15 4m69-17c3.964-.96 7.929-1.92 12-3m-127 37c4.726-2.069 9.76-4.034 15-6m15-6c-5.2 1.635-10.2 3.365-15 5m132-34c-3.333.7-6.77 1.3-10 2"/><path d="M1648 1030L1566 1009"/><path d="M1412 915c-2.667 2.868-4.762 5.835-6 9m0 1c-1.807 3.267-2.452 6.733-1.678 10m7.678-20c2.727-2.765 6.162-5.432 10-8m-18 28c.643 4.142 2.893 8.177 6 12m154-88c-4.1 1-8.1 2-12 3m-117 37c-4.756 2.52-9.09 5.26-13 8m164-53c-3.702.636-7.404 1.364-11 2m-165 91c3.7 4.606 8.8 8.906 15 13m24-67a221.54 221.54 0 0 0-14 7m116-38c-4.367 1-8.734 2-13 3m-13 3c-5.106 1.263-10.106 2.632-15 4m28-7c-4.77 1.294-9.437 2.706-14 4m42 140s-46.694-11.765-67-18m0 0c-16.644-5.1-31.747-10.4-45-16m-29-15c7.869 5.282 17.27 10.246 28 15m195-150.5h-82m-34 6.15c-4.806-.1-9.403-.2-14-.3m48-5.9c-22.508 0-43.175.1-62 .1m96 7.05c-3.066-.1-6.033-.1-9-.2m0 .2c-3.333-.1-6.667-.1-10-.2m0 .2c-3.736-.1-7.368-.2-11-.2m-25-.75c-4.367-.1-8.734-.2-13-.3m-28-.65c-5.176-.1-10.14-.3-15-.4m29 .4c-4.835-.1-9.468-.2-14-.4m-29-1c4.825.1 9.755.3 15 .4m68 1.95c-4.066-.1-8.033-.2-12-.3m24 .3l-12-.3m-96-6.05c-9.866.1-18.6.2-26 .4m-18 2.05c-1.465-.1-2.198-.4-1.954-.5m7.954.5c-2.476-.2-4.476-.3-6-.5m-2-.5c.816-.3 2.551-.3 5-.5m14 1.5c-3.75-.2-7.083-.3-10-.5m36 1.5c-4.985-.2-9.652-.3-14-.5m28 1.45c-4.9-.1-9.6-.3-14-.4m-26-3c-5.662.1-10.397.2-14 .4m14 1.55c3.661.2 7.729.3 12 .5m57-3.4c-15.517.1-29.586.1-42 .3m-1-54.65c-5.276-2.299-10.241-4.597-15-7m-14-8c-4.364-2.634-8.43-5.268-12-8m145-109s-46.716 12.282-67 19m23 135c-4.8-1.667-9.4-3.333-14-5m-1 0c-5.172-1.633-10.138-3.367-15-5m44 14c-4.737-1.3-9.474-2.7-14-4m61 17c-3.738-1-7.369-2-11-3m-95-30c-5.169-1.967-10.236-3.934-15-6m87 30c-4.437-1.333-8.77-2.667-13-4m-37-139c-17.068 5.39-32.367 10.988-46 17m1 0c-11.058 4.732-20.863 9.664-29 15m53 87c4.865 1.964 9.831 4.036 15 6m-60-26c4.324 2.703 9.059 5.405 14 8m-38-61c-3.153 4.122-5.288 8.561-6 13m190 95c-3.368-.667-6.737-1.333-10-2m-22-6c-4.034-1-8.067-2-12-3m-128-53c-3.814-2.868-7.216-5.934-10-9m0 0c-2.656-3.168-4.82-6.535-6-10"/><path d="M1648 618L1566 639"/><path d="M1571 806c-3.667-1.034-7.333-2.069-11-3m-136-114c-6.588 4.46-12.026 9.126-16 14m-5 24c-.947-3.568-1.238-7.432-.801-11m41.801 8c-5.945-4-11.577-8-17-12m-50-131c-4.304 8.125-7.435 16.563-9 25m43 93c4.962 4.4 10.33 8.7 16 13m135 74c-4.034-1.667-8.069-3.333-12-5m-42-19c4.86 2.3 9.93 4.7 15 7m-141-102c-4.02-5.898-7.423-11.898-10-18m0 0c-2.547-6.53-4.245-13.265-5-20m28 54c-4.913-5.2-9.213-10.6-13-16m168 114c-4.368-2-8.736-4-13-6m-170-169c-1.067 7.3-1.296 14.7-.61 22M1523 769c4.632 2 9.263 4 14 6m36 16c-3.7-1.63-7.402-3.37-11-5m-102-51a515.916 515.916 0 0 0 17 10m0 0c5.23 3.035 10.564 6.07 16 9m0-1c4.9 2.701 9.9 5.403 15 8m-47-26a437.51 437.51 0 0 1-17-11m-34-25c-5.408-4.896-10.408-9.896-15-15"/><path d="M1648 412L1566 453"/><path d="M1435 524c-14.175 9.592-26.577 19.592-37 30m0 0c-8.605 8.73-15.673 17.763-21 27m189-128s-49.505 24.461-74 37m0 1c-21.103 10.56-40.241 21.526-57 33m99 240c-4.77-2.632-9.437-5.263-14-8m-48-29c5.598 3.738 11.299 7.369 17 11m-53-36c5.832 4.402 11.866 8.7 18 13m-30-341s-36.414 29.486-51 45m116 318c5.265 3.333 10.632 6.667 16 10m0 0c4.966 3 9.931 6 15 9m-66-41c5.827 4.07 11.861 8.035 18 12m-127-116c4.718 7.402 10.154 14.804 16 22m-29-46c3.628 8.101 7.961 16.101 13 24m-22-51c2.045 9.034 5.114 18.171 9 27m85 100c6.092 5.106 12.495 10.106 19 15m-38-31c6.06 5.401 12.427 10.7 19 16m-56-54c5.514 6.736 11.55 13.368 18 20"/><path d="M1648 206L1566 268"/><path d="M1342 459c-7.391 12.092-13.199 24.494-17 37m48-77c-12.612 13.253-23.453 26.92-32 41m206 310c-4.368-2.368-8.736-4.632-13-7m-209-266c-3.04 10.83-4.804 21.966-5 33m59 123c5.95 6.103 12.319 12.103 19 18m-77.975-141c-.199 9.966.793 20.034 2.975 30"/><path d="M1492 323L1425 373"/><path d="M1565 268L1491 324"/><path d="M437 1153c25.197-10.87 51.53-21.537 79-32m728-208c-13.368 3-26.736 6-40 9"/><path d="M156 1325L223 1275"/><path d="M1343 892l-30 6m-251 58c16.863-4 33.829-8 51-12m167-39c10.966-2.4 21.932-4.7 33-7m-719 193c24.981-8.803 50.682-17.402 77-26m490-133c14.197-3.299 28.496-6.701 43-10m-916 307c22.217-13.673 46.286-26.939 72-40m920-284c-12.034 2.667-24.068 5.333-36 8m-296 72a10653.592 10653.592 0 0 0-63 17"/><path d="M83 1380L157 1324"/><path d="M746 1042a3892.38 3892.38 0 0 0-75 23m-156 55c25.437-9.837 51.805-19.47 79-29m152-49c23.188-7.068 46.889-14.034 71-21m-457 168c24.256-12.308 49.957-24.308 77-36"/><path d="M0 1442L82 1380"/><path d="M1062 956c-18.505 4.632-36.907 9.368-55 14m-783 305s40.69-30.48 64-45m660-245a5504.397 5504.397 0 0 1 59-15m-190 51c21.992-6.402 44.292-12.701 67-19m276-70c-15.838 3.667-31.47 7.333-47 11m31-38c-16.403 2.633-32.805 5.367-49 8m94-15c-15.035 2.366-30.07 4.634-45 7m86-14c-13.736 2.297-27.471 4.594-41 7m-146 25c-19.172 3.265-38.24 6.633-57 10m-1 0c-20.572 3.633-40.837 7.266-61 11m171-31c-17.805 2.966-35.506 5.932-53 9m-885 235s45.526-22.306 71-33m0 0c24.394-10.345 50.428-20.276 78-30m1 1c26.068-9.242 53.367-18.173 82-27m912-188c-11.367 1.635-22.735 3.27-34 5m0 0c-12.435 2-24.769 4-37 6m-306 53c-22.31 3.967-44.31 8.033-66 12m-222 47c-27.618 6.3-54.618 12.599-81 19m-166 46c26.897-8.137 54.931-16.069 84-24"/><path d="M83 1195L157 1158"/><path d="M472 1044c26.774-7.474 54.475-14.737 83-22m777-147c-10.368 1.63-20.735 3.37-31 5m-443 76a14043.517 14043.517 0 0 0-70 14m572-99c-9.367 1.333-18.735 2.667-28 4M714 986a5088.505 5088.505 0 0 0-78 17m152-33c-25.078 5.298-49.847 10.596-74 16"/><path d="M0 1236L82 1195"/><path d="M83 1009s49.436-12.268 76-18m0 0c25.715-5.5 53.083-10.8 82-16m1073-119c-11.035.96-22.07 1.92-33 3m-36 3c-13.102 1-26.102 2-39 3m-462 42a21571.97 21571.97 0 0 0-78 8"/><path d="M0 1030L82 1010"/><path d="M1281 859l-36 3m-579 54c-27.546 2.967-54.58 5.934-81 9m786-73c-9.069.7-18.034 1.3-27 2m0 0c-10.07.636-20.035 1.364-30 2m-427 37c-23.344 2.37-46.275 4.63-69 7m133-13c-21.538 1.966-42.872 4.034-64 6m319-28c-14.471 1.294-28.736 2.706-43 4m-578 56c-29.057 3.267-57.287 6.634-85 10m511-53c-20.207 1.635-40.207 3.365-60 5m-450 48c-29.861 3.895-58.895 7.895-87 12m-87 13c27.906-4.402 56.94-8.803 87-13m651-71c-18.47 1.702-36.838 3.298-55 5m-769 94c27.293-5.176 56.029-10.14 86-15m836-92c-15.736 1.368-31.471 2.632-47 4m-299 27c-24.71 2.63-49.008 5.26-73 8m372-35a36021.373 36021.373 0 0 0-51 4m253-44.4c-10.667-.1-21.333-.2-32-.2m61 .2c-9.7-.1-19.401-.1-29-.2m-33-.75l-35-.3m-495-3.6c-26.145-.2-51.778-.3-77-.5m-167-.5c-30.127-.2-59.426-.3-88-.5m789 5.4l-42-.3m80 .3l-39-.3m-42-.7l-46-.3m-527-3.6c-28.952-.2-57.285-.3-85-.5m166 1.5c-27.546-.2-54.478-.3-81-.5m232 1.5c-24.643-.2-48.976-.3-73-.5m619 4.35c-9-.1-18-.1-27-.2m-923-5.7c-30.665-.2-60.297-.3-89-.4m-253-.85s50.918 0 79 .1m858 4.15c-19.873-.1-39.54-.3-59-.4m163 1.4c-16.838-.1-33.47-.2-50-.4"/><path d="M0 824.45L82 824.55"/><path d="M896 827.7c-22.974-.2-45.641-.3-68-.4m132 1.4c-21.54-.1-42.874-.3-64-.4m-734-3.9c26.858.1 55.157.1 85 .2m0-.25c28.168.1 57.467.2 88 .3m738 5.05c-18.17-.1-36.136-.3-54-.4m-11-54.3c-20.242-2-40.173-4-60-6m-708-95c-28.57-5.562-55.604-11.228-81-17m340 58c-29.52-3.967-58.222-7.934-86-12m-87-14c-30.012-4.898-58.679-9.898-86-15m173 29a5793.053 5793.053 0 0 1-87-14m489 65a22927.1 22927.1 0 0 1-73-8m-159-20c-28.718-3.6-56.718-7.3-84-11m166 21a17649.905 17649.905 0 0 1-81-10"/><path d="M0 618L82 638"/><path d="M82 639s49.467 12.168 76 18m584 89c-26.11-3-51.709-6-77-9m538 57c-14.368-1.3-28.736-2.6-43-4m180 17c-10-1.038-20.104-1.962-30-3m-68-6a48927.563 48927.563 0 0 1-39-4m164 15a32096.17 32096.17 0 0 1-27-2m-456-45c-23.276-2.63-46.241-5.37-69-8m496 50c-11.035-1.034-22.07-1.966-33-3m0 0c-12.035-1.031-24.07-2.063-36-3m-180-17c-18.505-2-36.804-4-55-6m153 15c-15.77-1.705-31.437-3.295-47-5m0 0c-17.172-1.633-34.138-3.367-51-5m-114-11a24699.779 24699.779 0 0 1-64-7m470 27c-9.367-1.63-18.735-3.26-28-5"/><path d="M0 412L82 453"/><path d="M305 553c-27.62-9.727-53.69-19.761-78-30m911 229c-16.136-2.93-32.068-5.965-48-9"/><path d="M157 490L83 453"/><path d="M710 666c-26.213-5.932-51.914-11.966-77-18m151 34a10949.36 10949.36 0 0 1-74-16m380 77c-17.77-3.368-35.437-6.632-53-10m-118-23a12159.49 12159.49 0 0 1-65-13m183 36a19102.098 19102.098 0 0 1-57-11M387 581c-28.643-8.864-55.942-17.83-82-27m-77-31c-25.453-10.694-71-33-71-33m823 233c-20.573-4-40.941-8-61-12m341 62l-37-6m72 12c-11.402-2.036-22.7-4.071-34-6M470 606c-28.73-8.264-56.329-16.527-83-25m836 186c-13.77-2.333-27.437-4.667-41-7M552 628c-28.188-7.231-55.555-14.565-82-22m712 154c-14.769-2.701-29.435-5.299-44-8M633 648a4342.065 4342.065 0 0 1-80-20m773 156c-10.368-1.667-20.735-3.333-31-5m-441-82c-23.678-5-47.046-9.896-70-15M287 418c-23.16-14.622-64-45-64-45m930 353c-15.804-4-31.505-8-47-12M358 459c-25.38-13.39-49.114-26.987-71-41m147 78c-26.708-12.126-52.076-24.46-76-37m748 255c-17.172-4.3-34.138-8.7-51-13m-54-15a9227.877 9227.877 0 0 1-59-16m254 66c-14.47-3.631-28.735-7.369-43-11"/><path d="M82 268L0 206"/><path d="M1055 701c-18.506-5-36.908-10-55-15"/><path d="M157 324L83 268"/><path d="M223 373L156 323"/><path d="M512 529c-27.1-10.863-53.168-21.83-78-33m307 114a3718.976 3718.976 0 0 1-74-24m145 46c-24.08-7.3-47.747-14.598-71-22m594 159c-10.034-2.368-20.068-4.632-30-7m-363-92c-21.309-6-42.309-11.897-63-18m-289-93a2834.304 2834.304 0 0 1-78-30m366 123a5336.556 5336.556 0 0 1-67-20m461 123c-12.068-3-24.034-6-36-9m0 0c-13.438-3.333-26.77-6.667-40-10m109 26a15918.115 15918.115 0 0 1-33-8M667 586c-26.323-8.966-52.024-17.931-77-27"/><path d="M268 1565L324 1491"/><path d="M889 1085c20.321-8.4 40.953-16.7 62-25m0 0c18.991-7.667 38.393-15.333 58-23m-184 77c21.184-9.401 42.886-18.803 65-28m174-70c16.828-6.034 33.76-12.067 51-18m47-16c14.528-4.966 29.16-10.034 44-15m-91 31c15.462-5.702 31.129-11.404 47-17"/><path d="M206 1648L268 1566"/><path d="M1009 1037c18.057-6.734 36.425-13.367 55-20"/><path d="M324 1492L374 1425"/><path d="M1246 953c12.265-4 24.53-8 37-12m-77 26c13.197-4.4 26.496-8.7 40-13m102-33c-10.402 3.368-20.701 6.632-31 10m0-1c-11.368 3.667-22.736 7.333-34 11m-799 370c20.483-16.375 42.517-32.341 66-48m208-118a2290.906 2290.906 0 0 1 67-31m-136 66c22.212-11.838 45.246-23.47 69-35m-208 117c21.795-14.606 44.83-28.905 69-43m757-307c-9.401 2.965-18.7 6.035-28 9m-924 444c18-18.379 38.069-36.344 60-54m135-92a1690.099 1690.099 0 0 1 70-39m-315 245s31.084-40.446 50-60m214-54c19.166-16.308 39.465-32.308 61-48m0 0c19.998-14.504 41.033-28.803 63-43m184-106c18.62-9.401 37.655-18.803 57-28m-422 279c17.46-18.31 36.562-36.31 57-54m248-166c19.224-10.469 38.856-20.734 59-31m-183 106c20.206-13.206 41.24-26.206 63-39m-294 244c14.694-20.344 31.429-40.379 50-60m421-279c17.69-8.4 35.69-16.7 54-25m366-149c-8 2.965-16 6.035-24 9m-200 78a3028.824 3028.824 0 0 1 41-17m-183 79a4886.449 4886.449 0 0 1 51-23m0-1c15.462-6.734 31.129-13.367 47-20"/><path d="M454 1565L491 1491"/><path d="M412 1648L454 1566"/><path d="M1154 1017c14.53-6.034 29.162-12.067 44-18m200-78c-8.7 3.368-17.4 6.632-26 10m-61 23c10.632-4 21.264-8 32-12m-1 0c9.598-3.632 19.299-7.264 29-11m-95 36c11.597-4.4 23.299-8.7 35-13m-486 227c19.72-11.735 40.054-23.47 61-35m353-164a3221.857 3221.857 0 0 1 38-15m-786 525s24.165-45.15 40-67m863-483c8.333-3.632 16.667-7.368 25-11m0 0c7.667-3.368 15.333-6.632 23-10"/><path d="M618 1648L639 1566"/><path d="M1103 1086c15.094-8.4 30.393-16.7 46-25m314-149c-7.035 2.93-13.965 5.965-21 9m-803 644s12.847-49.642 23-74m531-453c13.13-7.035 26.463-13.965 40-21m38-18c11.598-5.702 23.195-11.404 35-17m61-28c8.932-3.966 17.966-7.932 27-12m-88 40c10.564-5.069 21.23-10.034 32-15m-188 94a3290.762 3290.762 0 0 1 43-23m145-71c9.93-4.366 19.86-8.634 30-13m-364 192c16.588-10.469 33.588-20.734 51-31m-314 250c15.28-18.242 32.017-36.276 50-54m-1 0c16.595-16.205 34.33-32.205 53-48m0 0a1253.86 1253.86 0 0 1 54-43m336-203a2624.104 2624.104 0 0 1 38-18m-374 221a1551.685 1551.685 0 0 1 54-39m103-66c15.953-9.401 32.321-18.803 49-28m-441 405c9.368-22.61 21.206-45.012 35-67m0 0c12.91-20.276 27.68-40.345 44-60m210-184c17.15-11.735 34.817-23.368 53-35m472-225c6.035-3.035 11.965-5.965 18-9m-38 19c6.597-3.368 13.298-6.632 20-10m-148 78a2051.755 2051.755 0 0 1 30-17m-97 56c11.494-7.035 23.195-13.965 35-21m0 1a4450.786 4450.786 0 0 1 32-19m58-32c8.597-4.366 17.298-8.634 26-13m-54 29c9.23-5.069 18.563-10.034 28-15m-243 147a1684.705 1684.705 0 0 1 41-28m40-26a2914.926 2914.926 0 0 1 37-23m-76 48a1983.23 1983.23 0 0 1 39-25m188-107c7.566-3.966 15.333-7.932 23-12m-579 483c8.877-20.276 19.613-40.241 32-60m-64 201c.205-24.701 3.273-49.505 9-74m55-126c11.297-18.242 24.032-36.276 38-54m509-370c7.263-3.632 14.632-7.368 22-11m-531 381c12.9-16.205 26.934-32.205 42-48m-143.65 384s0-54.632.3-82M968 1263c13.84-14.538 28.507-28.871 44-43m-179 272c5.356-22.506 13.128-44.909 23-67m200-244a1462.334 1462.334 0 0 1 44-35m0 0c13.92-10.469 28.254-20.734 43-31m-131 105c14.056-13.103 28.722-26.103 44-39m426-250c5.965-3.368 12.035-6.632 18-10m-81 46c7.563-4.366 15.333-8.634 23-13m-75 45a1692.922 1692.922 0 0 1 27-17m69-40c6.266-3.632 12.633-7.368 19-11m-310 215c11.55-10.469 23.619-20.734 36-31m234-161c6.966-4 13.932-8 21-12m-69 41a1138.73 1138.73 0 0 1 25-15m-143 93a2161.977 2161.977 0 0 1 32-23m-66 48c11.021-8.4 22.355-16.7 34-25m-69 54c11.254-9.401 22.92-18.803 35-28m96-70a1982.74 1982.74 0 0 1 29-18m-328 312c8.547-16.205 18.214-32.205 29-48m68-82a891.093 891.093 0 0 1 36-35m-172 279c3.061-20.172 8.163-40.241 15-60m86-145c10.912-13.103 22.647-26.103 35-39m-68 82c10.106-14.538 21.14-28.871 33-43m-91 346s-11.452-49.299-13-74m-.398 0c-1.425-22.299-.33-44.805 3.398-67m500-504c5.3-3.035 10.7-5.965 16-9"/><path d="M1030 1648L1010 1566"/><path d="M1308 1038c9.864-7.035 19.83-13.965 30-21m-323 348c6.47-18.138 14.504-36.173 24-54m94 0c3.404-16.103 8.51-32.205 15-48m215-246a1284.209 1284.209 0 0 1 26-18m-262 366c0-18.035 2-36.173 6-54m60-130a556.588 556.588 0 0 1 27-35m0 0a621.06 621.06 0 0 1 29-31m-115 310c-4.597-19.828-7-39.966-7-60m122-251a689.779 689.779 0 0 1 29-28m30-25a1349.46 1349.46 0 0 1 28-23m53-39c7.899-5.702 15.899-11.404 24-17m-245 238c7.438-13.103 15.806-26.103 25-39m143-143c8.795-6.734 17.795-13.367 27-20m-216 245c5.85-14.504 12.85-28.803 21-43"/><path d="M1195 1566L1236 1648"/><path d="M1278 1086c9.288-8.4 18.99-16.7 29-25m106-79c7.563-5.069 15.23-10.034 23-15m-241 598s-24.908-49.23-37-74m299-537c6.563-4 13.23-8 20-12m-41 25c6.899-4.4 13.899-8.7 21-13m20-12c6-3.632 12-7.264 18-11m-337 561c-10.701-21.954-18.805-44.425-24-67m378-504c5-3.07 10-6.035 15-9m-32 19c5.632-3.368 11.264-6.632 17-10m-13 10c5.596-3.368 11.298-6.632 17-10m-96 61a903.145 903.145 0 0 1 22-15m-206 213c5.114-11.735 11.148-23.47 18-35m-15 220c-8.267-17.793-14.337-35.897-18-54m260-369c5.93-3.667 11.965-7.333 18-11m-37 23c6.231-4 12.565-8 19-12m-108 75c7.792-6.034 15.792-12.067 24-18m-72 493s-33.471-44.563-50-67m-54-114a215.844 215.844 0 0 1-3.896-48M1255 1145c6.26-10.469 13.327-20.836 21-31m-59 148c.517-14.401 2.483-28.803 6-43m126-182c7.696-6.734 15.797-13.367 24-20m-49 43c8.02-7.805 16.354-15.403 25-23m-73 77a411.036 411.036 0 0 1 23-28m1 0a552.148 552.148 0 0 1 24-25m118-94c6.533-4.4 13.166-8.7 20-13m54-33c4.966-2.965 10.034-6.035 15-9m-308 307c3.148-13.103 7.516-26.206 13-39"/><path d="M1442 1648L1380 1566"/><path d="M1275 1425c-14.544-19.588-26.716-39.69-36-60m158-366c7.46-5.702 15.126-11.404 23-17"/><path d="M1381 1565L1325 1491"/><path d="M482 338c19.834 16.608 41.201 33.01 64 49M424 284c17.39 18.342 36.825 36.376 58 54M374 223s30.484 40.377 49 60m577 335a3308.512 3308.512 0 0 0 54 21m98 37c14.197 5.368 28.496 10.632 43 16m-90-33a7899.574 7899.574 0 0 0 47 17m-97-36c16.429 6.401 33.163 12.7 50 19m231 81c9.333 3 18.564 6 28 9"/><path d="M268 83L324 157"/><path d="M683 471c21.949 12.172 44.615 24.138 68 36m554 223c10.264 3.3 20.632 6.7 31 10"/><path d="M324 156L374 223"/><path d="M1271 719a6649.772 6649.772 0 0 0 34 11m-70-24c12.264 4.333 24.632 8.667 37 13M614 431c22.105 13.54 45.036 26.77 69 40m68 36a2722.24 2722.24 0 0 0 67 32m0 0c20.887 9.7 42.186 19.401 64 29m313 124c13.196 4.7 26.598 9.3 40 14M882 568c19.99 8.734 40.289 17.367 61 26"/><path d="M206 0L268 82"/><path d="M546 387c21.495 14.872 44.128 29.538 68 44m328 163c19.057 8.035 38.321 16.07 58 24M578 284c17.12 18.307 35.786 36.307 56 54m725 392c8.667 3.3 17.333 6.6 26 10M529 224c14.309 20.308 30.78 40.41 49 60m518 335c15.529 7 31.16 14 47 21"/><path d="M454 83L491 157"/><path d="M1046 595c16.46 8.035 33.128 16.07 50 24"/><path d="M453 82L412 0"/><path d="M1264 692c11.231 4.735 22.565 9.368 34 14M634 338c18.795 16.574 38.83 32.941 60 49M491 157s23.545 45.01 39 67m855 517c7.931 3 15.966 6 24 9M694 387c19.699 14.872 40.435 29.538 62 44m431 228a5258.69 5258.69 0 0 0 40 17m103 43l29 11m-132-54c12.197 5.404 24.598 10.702 37 16m-121-52c14.459 6.3 29.125 12.7 44 19m112 47c10.266 4.333 20.633 8.667 31 13M817 471a2207.164 2207.164 0 0 0 61 36m0 0c19.183 10.768 38.884 21.333 59 32M756 431c19.873 13.437 40.574 26.77 62 40m119 69c18.29 9.735 36.888 19.47 56 29m0 0a2555.9 2555.9 0 0 0 53 26m46-26a2146.533 2146.533 0 0 0 46 26m-93-55c15.623 9.735 31.657 19.367 48 29m335 172c6.667 3.034 13.333 6.067 20 9M785 338c15.912 16.539 33.048 32.872 51 49m569 344c7.3 3.333 14.7 6.667 22 10M737 284c14.635 18.272 30.704 36.238 48 54m540 354c9.599 4.735 19.3 9.368 29 14m26 13c8.298 3.7 16.597 7.4 25 11m-51-24c8.93 4.333 17.965 8.667 27 13M661 157c8.732 22.574 19.902 44.942 33 67M639 83s12.35 49.642 22 74m560 483c12.197 6.3 24.598 12.7 37 19M694 224c12.494 20.273 26.966 40.341 43 60m556 393c10.563 5.404 21.23 10.702 32 16m-187-98a2356.62 2356.62 0 0 0 43 24M994 508c16.291 10.803 32.89 21.401 50 32m214 120a3685.261 3685.261 0 0 0 35 17M889 432c17.014 13.437 34.749 26.77 53 40m0 0c16.784 12.069 34.083 24.138 52 36"/><path d="M618 0L639 82"/><path d="M836 388c16.807 14.837 34.543 29.47 53 44m292 187c13.162 7 26.427 14 40 21M920 339c12.631 16.539 26.298 32.872 41 49m130 120c13.624 10.803 27.556 21.401 42 32m0 0c13.286 9.735 26.987 19.367 41 29m-126-97c13.821 12.069 28.155 24.138 43 36m83 61a1601.294 1601.294 0 0 0 39 26M961 388c13.508 14.837 27.842 29.47 43 44M883 284c10.955 18.17 23.358 36.238 37 54m84 94c14.043 13.437 28.71 26.77 44 40m297 205c9.228 5.404 18.562 10.702 28 16m70 38c6.333 3.333 12.566 6.667 19 10m-64-34a4646.19 4646.19 0 0 0 23 13m0-1c6.899 3.7 13.899 7.4 21 11m-127-70a3858.56 3858.56 0 0 0 30 17m28 16c8.232 4.632 16.565 9.368 25 14m-186-112a2062.024 2062.024 0 0 0 37 24"/><path d="M824.35 0L824.65 82"/><path d="M1283 641c10.495 6.333 21.196 12.769 32 19m-66-41c11.13 7 22.462 14 34 21m179 101c5.965 3.034 11.93 6.067 18 9M832 157c4.735 22.47 11.838 44.942 21 67M824 83s2.411 49.47 8 74m21 67c8.559 20.273 18.892 40.239 31 60m126-201s-11.956 49.23-14 74m167 351a1060 1060 0 0 0 35 32m34 29a1085.721 1085.721 0 0 0 33 26m-67-55c10.925 9.735 22.258 19.47 34 29m33 26c10.423 8.035 21.055 16.07 32 24m-235-231a588.095 588.095 0 0 0 32 44m-60-94c8.145 16.436 17.513 32.872 28 49m-65-163c2.716 20.068 7.418 40.137 14 60m0 0c5.853 18.17 13.22 36.136 22 54m95 134c11.15 12.069 22.817 24.138 35 36m-69-76c10.58 13.437 21.982 26.77 34 40m358 269c5.368 3.034 10.632 6.067 16 9m-121-73c7.899 5.404 15.899 10.702 24 16m23 14c6.965 4.333 13.93 8.667 21 13m-94-60a2882.417 2882.417 0 0 0 26 17m87 54c5.93 3.333 11.965 6.667 18 10m-37-22c6.231 3.7 12.565 7.4 19 11m-63-37c7.562 4.735 15.333 9.368 23 14m-101-66c9.23 6.3 18.564 12.7 28 19"/><path d="M1030 0L1010 82"/><path d="M995.124 157c-1.987 22.265-1.325 44.735 1.876 67m300 395c9.794 7 19.794 14 30 21m-29-45c9.056 8.035 18.32 16.07 28 24m138 100a2765.52 2765.52 0 0 0 18 11m0 1c5.596 3.3 11.298 6.6 17 10m0 0l15 9m-69-44a1556.026 1556.026 0 0 0 19 13m-62-42c7.266 5.404 14.633 10.702 22 16m-47-33c7.828 5.667 15.863 11.333 24 17m23 15c6.897 4.735 13.897 9.368 21 14m-287-549s-19.388 44.391-25 67m137 345c8.96 8.769 18.327 17.435 28 26m54 45c8.13 6.401 16.565 12.7 25 19m-251.938-375c-.374 18 .938 36.102 3.938 54m13 49c5.55 14.735 12.251 29.47 20 44m0 0a436.934 436.934 0 0 0 24 40m-53-247c-4.8 19.761-7.5 39.932-8 60m4 54c2.9 16.47 7.3 32.838 13 49m99 153c9.213 9.7 18.845 19.401 29 29"/><path d="M1195 83L1158 157"/><path d="M1325 619a812.283 812.283 0 0 0 27 21m-166-169c8.267 12.172 17.372 24.138 27 36"/><path d="M1236 0L1195 82"/><path d="M1213 508c8.75 10.768 18.118 21.435 28 32m75 55a754.58 754.58 0 0 0 24 24m-109-148a304.782 304.782 0 0 0 17 36m-29-76c2.824 13.437 6.857 26.77 12 40m17 36c6.269 10.768 13.269 21.435 21 32m-55-152a210.318 210.318 0 0 0 5 44m121 188a813.788 813.788 0 0 0 24 21"/><path d="M1325 156L1275 223"/><path d="M1269 539c7.077 9.803 14.778 19.401 23 29m-17-345s-27.29 39.555-37 60m0 1c-8.467 17.727-14.973 35.863-19 54m0 0c-3.489 16.162-5.184 32.632-4.984 49M1292 569c7.584 8.734 15.584 17.367 24 26m187 146c4.966 3 10.034 6 15 9"/><path d="M1380 83L1325 157"/><path d="M1442 0L1381 82"/><path d="M1487 730c5.266 3.3 10.633 6.7 16 10m-94-64c6.797 5.368 13.797 10.632 21 16m1 0c6.564 4.7 13.23 9.3 20 14m-64-47c7.198 5.667 14.498 11.435 22 17m-45-36a737.25 737.25 0 0 0 23 19m82 60c5.93 3.667 11.965 7.333 18 11m-36-24c6.23 4.333 12.563 8.667 19 13"/></g></g></g></svg>