<?xml version="1.0" encoding="UTF-8"?>
<svg width="1125px" height="268px" viewBox="0 0 1125 268" version="1.1" xmlns="http://www.w3.org/2000/svg" xmlns:xlink="http://www.w3.org/1999/xlink">
    <!-- Generator: Sketch 54.1 (76490) - https://sketchapp.com -->
    <title>Honeypot_Logo_NoTagline</title>
    <desc>Created with Sketch.</desc>
    <g id="Logo" stroke="none" stroke-width="1" fill="none" fill-rule="evenodd">
        <g id="_Logo_NoTagline" transform="translate(-34.000000, -450.000000)">
            <g transform="translate(34.000000, 450.000000)">
                <g id="Group-4">
                    <path d="M213.79921,152.11973 C213.895954,154.268107 214,156.414657 214,158.586783 C214,175.125266 211.170679,190.998775 206.008538,205.774347 C204.540942,209.667367 202.343199,214.75332 199.756652,218.436252 C198.099218,220.644915 195.939807,223.145874 193.088582,225.64318 C190.96933,227.482819 188.516035,229.322458 185.723222,230.860666 C182.96144,232.389741 179.74149,233.626519 176.563524,234.035734 C173.237704,234.514369 169.727521,233.942564 167.04788,232.060907 C164.317129,230.224922 162.363986,227.013318 161.234083,223.381538 C158.979753,216.024808 159.229828,207.688887 159.919818,200.149472 C160.67552,192.547945 162.051848,185.483512 163.417223,179.482306 C166.191783,167.468933 168.913407,159.668279 168.913407,159.668279 C168.913407,159.668279 165.662426,167.251538 162.044546,179.116936 C160.255685,185.052375 158.375556,192.060176 157.068593,199.769487 C155.858373,207.464184 154.885452,215.938946 156.855024,224.603701 C157.866278,228.860264 159.974579,233.348838 163.815153,236.383237 C167.659379,239.468789 172.465573,240.422405 176.780743,240.528362 C181.324085,240.559419 185.358148,239.521767 189.016186,238.12788 C189.430545,237.967117 189.784666,237.758856 190.188072,237.588959 C183.886902,247.084931 176.450352,255.738725 168.133974,263.462651 C163.769519,266.592047 155.153781,270.329784 143.073495,264.050897 C125.091793,254.706554 107.111917,253.668902 107.111917,253.668902 C107.111917,253.668902 89.1302151,254.706554 71.1485134,264.050897 C60.8370086,269.410878 53.0518134,267.467109 48.2729996,264.83827 C39.3159181,256.756281 31.3500114,247.60193 24.6600371,237.504924 C25.0944747,237.687609 25.4741513,237.910485 25.9195412,238.082209 C29.5775789,239.476096 33.6116426,240.513748 38.1549839,240.482691 C42.4701542,240.378561 47.2763486,239.423117 51.1205739,236.337566 C54.9611485,233.304993 57.0694488,228.814593 58.0807027,224.55803 C60.050275,215.895102 59.0755284,207.418513 57.8671346,199.723816 C56.560171,192.016331 54.6800418,185.006704 52.891181,179.071264 C49.2733014,167.207693 46.0223207,159.624434 46.0223207,159.624434 C46.0223207,159.624434 48.7439446,167.425088 51.5185042,179.436635 C52.8838796,185.439667 54.2602072,192.502274 55.0159096,200.103801 C55.7058987,207.643216 55.9559742,215.979137 53.7016445,223.337693 C52.5717416,226.967647 50.6185977,230.181078 47.8878469,232.015236 C45.2082065,233.896893 41.6998489,234.468697 38.3722027,233.991889 C35.1942368,233.580848 31.9742873,232.345896 29.2125053,230.814995 C26.419692,229.278613 23.9663972,227.438974 21.8471448,225.597508 C19.7479714,223.759696 18.0029195,221.905442 16.5645293,220.175414 C16.5170698,220.118782 16.4696102,220.054842 16.4221506,219.99821 C16.0169189,219.506787 15.6828765,219.051901 15.3287551,218.584227 C12.0850759,214.033541 9.43646669,207.217559 8.0601391,203.2606 C3.44195766,189.199327 0.90469592,174.193572 0.90469592,158.586783 C0.90469592,156.414657 1.00874191,154.26628 1.10366105,152.117903 C2.35951434,134.05948 6.52500448,116.819486 13.0890284,100.807136 C14.8267789,96.5688415 16.6722261,92.3871793 18.7403682,88.3315698 C11.4206419,83.9836642 6.49944932,76.0185934 6.49944932,66.882511 C6.49944932,53.1043999 17.6615756,41.9332054 31.4285023,41.9332054 L183.496273,41.9332054 C197.265025,41.9332054 208.425326,53.1043999 208.425326,66.882511 C208.425326,76.0259008 203.496832,83.9964521 196.167978,88.3407041 C198.236121,92.3981404 200.083393,96.5816294 201.821144,100.821751 C208.381517,116.830447 212.545182,134.06496 213.79921,152.11973 Z M57.8104265,35.8652809 C69.7121682,27.551537 83.6908947,22.0884835 98.8354244,20.5790771 L92.7499679,3.74836455 C92.7499679,3.74836455 96.6238538,0.469054469 107.507109,0.469054469 C118.390364,0.469054469 122.26425,3.74836455 122.26425,3.74836455 L116.178794,20.5790771 C131.323323,22.090331 145.30205,27.551537 157.203791,35.8652809 L57.8104265,35.8652809 Z" id="Combined-Shape" fill="#FFC600"></path>
                    <path d="M85.1943128,84.9143375 C85.1943128,97.4811927 74.9786858,107.669054 62.3753231,107.669054 C49.7719604,107.669054 39.5545024,97.4811927 39.5545024,84.9143375 C39.5545024,72.3474822 49.7719604,62.1596205 62.3753231,62.1596205 C74.9786858,62.1596205 85.1943128,72.3474822 85.1943128,84.9143375 Z M175.459716,84.9143375 C175.459716,97.4811927 165.244089,107.669054 152.640726,107.669054 C140.037363,107.669054 129.819905,97.4811927 129.819905,84.9143375 C129.819905,72.3474822 140.037363,62.1596205 152.640726,62.1596205 C165.244089,62.1596205 175.459716,72.3474822 175.459716,84.9143375 Z M137.933649,129.412451 C137.933649,146.446984 124.084751,160.257734 107.000913,160.257734 C89.9152494,160.257734 76.0663507,146.446984 76.0663507,129.412451 C76.0663507,112.376098 89.9152494,98.5671677 107.000913,98.5671677 C124.084751,98.5671677 137.933649,112.376098 137.933649,129.412451 Z" id="Combined-Shape" fill="#FFFFFE"></path>
                    <path d="M31.7146798,54.0690545 C34.7027493,54.0690545 37.4092683,55.179493 39.5545024,56.9554592 C34.2686164,63.3551884 29.4622748,70.1704127 25.1554585,77.3294318 C21.633351,75.1048779 19.2701422,71.1760582 19.2701422,66.6644422 C19.2701422,59.7076553 24.8412116,54.0690545 31.7146798,54.0690545 Z M183.305519,54.0690545 C190.174681,54.0690545 195.744076,59.7054278 195.744076,66.6594665 C195.744076,71.1766513 193.375086,75.1075944 189.846109,77.3294318 C185.54199,70.1732408 180.740475,63.3625465 175.459716,56.9653454 C177.605421,55.1827298 180.313875,54.0690545 183.305519,54.0690545 Z M62.8815166,75.3067903 C68.4829406,75.3067903 73.0236967,79.8345751 73.0236967,85.4199979 C73.0236967,91.0054206 68.4829406,95.5332054 62.8815166,95.5332054 C57.2800926,95.5332054 52.7393365,91.0054206 52.7393365,85.4199979 C52.7393365,84.5374172 52.8636907,83.6876598 53.0758243,82.8725491 C53.9060712,83.3612508 54.8698161,83.6457189 55.9012242,83.6457189 C58.9771613,83.6457189 61.469731,81.1602696 61.469731,78.0949429 C61.469731,77.1631274 61.2356525,76.2860172 60.8296727,75.5146709 C61.4916758,75.3779074 62.1774525,75.3067903 62.8815166,75.3067903 Z M152.132701,75.3067903 C157.734125,75.3067903 162.274882,79.8345751 162.274882,85.4199979 C162.274882,91.0054206 157.734125,95.5332054 152.132701,95.5332054 C146.531277,95.5332054 141.990521,91.0054206 141.990521,85.4199979 C141.990521,84.5374172 142.114876,83.6876598 142.327009,82.8725491 C143.157256,83.3612508 144.121001,83.6457189 145.152409,83.6457189 C148.228346,83.6457189 150.720916,81.1602696 150.720916,78.0949429 C150.720916,77.1631274 150.488666,76.2860172 150.080858,75.5146709 C150.742861,75.3779074 151.428637,75.3067903 152.132701,75.3067903 Z M123.734597,112.06305 C123.734597,112.109041 123.723522,112.151352 123.721676,112.195504 C123.793663,114.158391 123.136553,117.594824 118.699212,121.11772 C114.631034,124.348114 111.454386,125.549393 109.536583,126.007462 L109.536583,160.154714 C108.862861,160.197026 108.190984,160.257734 107.506186,160.257734 C106.821388,160.257734 106.151357,160.197026 105.477635,160.154714 L105.477635,126.007462 C103.559832,125.551233 100.383184,124.349953 96.3113143,121.11772 C91.8555153,117.580107 91.2113257,114.130797 91.2906957,112.171588 C91.2888499,112.134796 91.2796209,112.099843 91.2796209,112.06305 C91.2796209,111.650972 91.3552993,111.26097 91.4623566,110.883846 C91.5195769,110.659411 91.5675681,110.525117 91.5675681,110.525117 L91.5731055,110.525117 C92.0068722,109.388225 92.8947095,108.479447 94.0261945,108.026897 C95.8996974,106.952552 99.7556062,105.670328 107.508032,105.650092 L107.508032,105.646413 C107.539411,105.646413 107.567098,105.648253 107.600323,105.648253 C107.631702,105.648253 107.659389,105.646413 107.692613,105.646413 L107.692613,105.650092 C121.017557,105.685045 122.854143,109.46181 122.854143,109.46181 L122.852297,109.465489 C123.095945,109.787425 123.293447,110.142474 123.441112,110.525117 L123.444804,110.525117 C123.444804,110.525117 123.485412,110.639175 123.535249,110.832336 C123.653381,111.226017 123.734597,111.632576 123.734597,112.06305 Z" id="Combined-Shape" fill="#171717"></path>
                    <path d="M17.2417062,208.80113 C17.2417062,208.80113 15.6086616,206.636231 13.8115916,202.974114 C12.0037068,199.32855 10.1687848,194.17657 8.99717446,188.877443 C7.80753937,183.580155 7.23975898,178.174347 7.12440043,174.114932 C7.02165922,170.05 7.2704011,167.336979 7.2704011,167.336979 C7.2704011,167.336979 7.46687114,167.993622 7.73544027,169.143207 C7.9967995,170.290953 8.3717148,171.929801 8.8187292,173.89789 C9.6803134,177.824873 10.7149354,183.03939 11.8937557,188.202406 C13.0166991,193.378298 14.3198903,198.500848 15.3959693,202.3469 C15.9421199,204.278203 16.3981467,205.885782 16.7171852,207.011456 C17.0740758,208.140808 17.2417062,208.80113 17.2417062,208.80113" id="Fill-13" fill="#FFFFFE"></path>
                    <path d="M172.417062,176.438866 C172.417062,176.438866 172.370022,178.24298 172.080258,180.860857 C171.773559,183.476914 171.175214,186.89581 170.45833,190.281938 C169.713221,193.662604 168.862744,197.019604 168.095057,199.539174 C167.739437,200.8026 167.312317,201.843925 167.095934,202.586689 C166.843802,203.323991 166.657525,203.744526 166.657525,203.744526 C166.657525,203.744526 166.354589,201.962258 166.33201,199.297048 C166.320721,196.637299 166.681985,193.114634 167.42333,189.66843 C168.174084,186.224046 169.293628,182.867047 170.36425,180.423937 C171.451808,177.982649 172.417062,176.438866 172.417062,176.438866" id="Fill-14" fill="#FFFFFE"></path>
                    <path d="M31.4407583,44.9949652 C31.4407583,44.9949652 29.5823152,45.7159516 27.1608731,47.1912005 C25.940131,47.9066407 24.5809167,48.8069493 23.2217024,49.8699419 C21.8515561,50.9181451 20.5050959,52.1641573 19.2661338,53.5063011 C17.9889096,54.8225632 16.9193938,56.3144503 15.8936061,57.7249953 C14.9716725,59.2020929 14.077069,60.588605 13.4266139,61.8697423 C12.6941687,63.1102084 12.1821858,64.2157208 11.8068532,64.9921676 C11.4205885,65.7630683 11.1563981,66.2049035 11.1563981,66.2049035 C11.1563981,66.2049035 11.1600421,65.7057592 11.2438543,64.8331809 C11.3750385,63.9772407 11.3695725,62.675768 11.8196072,61.230098 C12.1348138,59.7345136 12.7943789,58.0780937 13.6233903,56.3440292 C14.5216378,54.6450897 15.6931858,52.9424528 17.0797301,51.4172894 C19.9020128,48.394693 23.578815,46.3297143 26.501308,45.5828464 C29.4274449,44.7731233 31.4407583,44.9949652 31.4407583,44.9949652" id="Fill-15" fill="#FFFFFE"></path>
                </g>
                <g id="Group" transform="translate(281.000000, 70.000000)" fill="#171717">
                    <path d="M197.623639,107.331683 C203.122031,101.749407 205.871227,94.5523566 205.871227,85.7595921 C205.871227,77.0866423 203.089528,69.9358837 197.531548,64.2773626 C191.96815,58.6242876 185.25632,55.7950271 177.382514,55.7950271 C169.511417,55.7950271 162.823964,58.6242876 157.325572,64.2773626 C151.82718,69.9358837 149.080693,77.0866423 149.080693,85.7595921 C149.080693,94.5523566 151.82718,101.749407 157.325572,107.331683 C162.823964,112.930296 169.511417,115.721434 177.382514,115.721434 C185.375497,115.721434 192.125247,112.930296 197.623639,107.331683 Z M177.382514,35.448314 C192.125247,35.448314 204.56028,40.1918866 214.682197,49.6708625 C224.801405,59.1580076 229.861009,71.1857688 229.861009,85.7595921 C229.861009,100.333415 224.831199,112.358454 214.774288,121.845599 C204.714669,131.332744 192.25255,136.076316 177.382514,136.076316 C162.634365,136.076316 150.234543,131.332744 140.177632,121.845599 C130.115304,112.358454 125.088202,100.333415 125.088202,85.7595921 C125.088202,71.1857688 130.115304,59.1580076 140.177632,49.6708625 C150.234543,40.1918866 162.634365,35.448314 177.382514,35.448314 Z M376.49151,73.3206487 L417.910924,73.3206487 C417.78633,67.6702968 416.004092,63.0247545 412.572337,59.3812986 C409.132457,55.7351197 404.915217,53.9133918 399.91791,53.9133918 C393.793839,53.9133918 388.699024,55.6425356 384.64159,59.0981003 C380.578738,62.5536649 377.864754,67.2972374 376.49151,73.3206487 Z M399.91791,35.448314 C413.162805,35.448314 423.536618,39.7507507 431.025807,48.3529009 C438.536665,56.9632203 442.282614,67.8609111 442.282614,81.0459733 L441.72194,89.9068143 L375.741237,89.9068143 C376.613396,98.0759978 379.739082,104.412561 385.11288,108.932843 C390.481261,113.455847 396.919526,115.721434 404.416841,115.721434 C408.915771,115.721434 413.414702,114.814655 417.910924,112.990204 C422.409854,111.168476 425.717015,109.376702 427.840532,107.614881 L431.223533,104.976235 L441.145015,121.5624 C440.782067,121.938183 440.221394,122.477349 439.462995,123.16356 C438.718139,123.857941 437.065913,125.017965 434.500899,126.649079 C431.935886,128.280192 429.28149,129.731584 426.535003,130.981469 C423.783098,132.239523 420.256543,133.404993 415.944504,134.466987 C411.635173,135.534427 407.228334,136.076316 402.729403,136.076316 C387.360991,136.076316 374.958461,131.202037 365.527229,121.472539 C356.09058,111.73215 351.372255,99.8296492 351.372255,85.7595921 C351.372255,70.9406933 355.871186,58.8475786 364.869047,49.4884174 C373.866908,40.1319792 385.54896,35.448314 399.91791,35.448314 Z M630.889924,107.898079 C635.51074,102.558156 637.823856,95.3066446 637.823856,86.1408207 C637.823856,77.0866423 635.640751,69.8051768 631.263706,64.2773626 C626.886661,58.7549946 621.144498,55.9856413 614.020965,55.9856413 C607.271215,55.9856413 601.588641,58.5344266 596.962408,63.6211049 C592.341591,68.7077831 590.028475,76.2806162 590.028475,86.3232658 C590.028475,94.3671885 592.092403,101.308271 596.217551,107.149238 C600.337283,112.990204 606.14716,115.912048 613.649892,115.912048 C620.513402,115.912048 626.26369,113.243448 630.889924,107.898079 Z M619.270169,35.448314 C632.135865,35.448314 642.444672,40.0938564 650.196593,49.3903872 C657.940387,58.686918 661.816347,70.8127094 661.816347,85.7595921 C661.816347,100.834459 657.691199,112.990204 649.446319,122.218658 C641.198731,131.452559 630.700324,136.076316 617.959223,136.076316 C612.336236,136.076316 607.238712,135.000707 602.680193,132.865827 C598.113549,130.736393 594.966193,128.661421 593.21375,126.649079 L590.589148,123.446759 L590.218075,123.446759 C590.467263,125.704176 590.589148,128.47353 590.589148,131.735757 L590.589148,171.497896 L566.975857,171.497896 L566.975857,62.20239 C566.975857,59.441206 565.594488,58.060614 562.850709,58.060614 L546.358242,58.060614 C543.611754,58.060614 541.799722,59.1906843 540.927564,61.4535482 L506.626265,148.321922 C503.373276,156.610921 498.684746,162.857623 492.571509,167.067475 C486.442021,171.277328 479.638099,173.382254 472.135367,173.382254 C467.636437,173.382254 463.389403,172.565336 459.391557,170.934222 C455.393712,169.29494 452.519922,167.663826 450.767478,166.029989 L447.961403,163.581957 L457.138029,146.622732 C461.013989,151.023199 465.572508,153.217986 470.821712,153.217986 C477.945244,153.217986 483.194448,149.138841 486.569323,140.97238 L489.757307,133.620115 L447.384478,37.7057317 L465.762108,37.7057317 C469.139692,37.7057317 471.764293,38.4001123 473.635914,39.7807043 C475.510242,41.1612964 477.073086,43.4867906 478.324444,46.7517409 L500.819097,103.739965 L519.770943,48.3365625 L520.309948,46.7517409 C522.306162,40.7283296 526.553196,37.7057317 533.053758,37.7057317 L576.534392,37.7057317 C584.530083,37.7057317 588.52522,40.788237 588.52522,46.9423552 L588.52522,50.7083488 L588.904419,50.7083488 C589.156316,50.3352894 589.497596,49.8015694 589.936384,49.1071888 C590.369754,48.4209774 591.461307,47.1928768 593.21375,45.4310563 C594.966193,43.6774049 596.870316,42.1388753 598.934245,40.8181907 C600.995464,39.500229 603.863837,38.2721285 607.550198,37.1420581 C611.236558,36.0147108 615.145021,35.448314 619.270169,35.448314 Z M745.348029,107.331683 C750.84913,101.749407 753.595617,94.5523566 753.595617,85.7595921 C753.595617,77.0866423 750.819335,69.9358837 745.258646,64.2773626 C739.697957,58.6242876 732.978001,55.7950271 725.112321,55.7950271 C717.238516,55.7950271 710.548354,58.6242876 705.055379,64.2773626 C699.556987,69.9358837 696.802374,77.0866423 696.802374,85.7595921 C696.802374,94.5523566 699.556987,101.749407 705.055379,107.331683 C710.548354,112.930296 717.238516,115.721434 725.112321,115.721434 C733.105304,115.721434 739.849637,112.930296 745.348029,107.331683 Z M725.112321,35.448314 C739.849637,35.448314 752.281962,40.1918866 762.409296,49.6708625 C772.528504,59.1580076 777.588108,71.1857688 777.588108,85.7595921 C777.588108,100.333415 772.558298,112.358454 762.501387,121.845599 C752.441767,131.332744 739.979648,136.076316 725.112321,136.076316 C710.364172,136.076316 697.96435,131.332744 687.90473,121.845599 C677.845111,112.358454 672.818009,100.333415 672.818009,85.7595921 C672.818009,71.1857688 677.845111,59.1580076 687.90473,49.6708625 C697.96435,40.1918866 710.364172,35.448314 725.112321,35.448314 Z M839.24703,113.646462 L843.553652,113.273402 L843.553652,134.183789 C841.560147,134.565017 839.117019,134.755632 836.248646,134.755632 C832.995656,134.755632 829.878095,134.535064 826.874294,134.091205 C823.878618,133.658238 820.441446,132.680659 816.565486,131.172083 C812.689526,129.660784 809.352571,127.686565 806.538369,125.238533 C803.729585,122.790501 801.348754,119.275029 799.414837,114.683948 C797.48092,110.101036 796.508544,104.731159 796.508544,98.5715949 L796.508544,56.7426524 L784.138516,56.7426524 L784.138516,37.7057317 L797.071926,37.7057317 L797.071926,11.5180525 L820.311435,11.5180525 L820.311435,37.7057317 L842.061232,37.7057317 L842.061232,56.7426524 L820.311435,56.7426524 L820.311435,95.5571662 C820.311435,102.468295 822.285981,107.211868 826.221529,109.787884 C830.159786,112.358454 834.496203,113.646462 839.24703,113.646462 Z M84.095111,13.5536654 C84.095111,5.01142254 88.3421448,0.733493444 96.8416295,0.733493444 L108.648275,0.733493444 L108.648275,134.525658 L84.095111,134.525658 L84.095111,78.3734134 L25.4275396,78.3734134 L25.4275396,134.525658 L0.874375552,134.525658 L0.874375552,0.733493444 L12.6837297,0.733493444 C17.1826603,0.733493444 20.4302327,1.77097975 22.431864,3.84595236 C24.4280782,5.92092497 25.4275396,9.15319857 25.4275396,13.5536654 L25.4275396,57.4575806 L84.095111,57.4575806 L84.095111,13.5536654 Z M302.019432,35.448314 C324.259479,35.448314 335.383566,47.6367358 335.383566,71.9999641 L335.383566,133.810729 L324.324485,133.810729 C319.825555,133.810729 316.575274,132.803197 314.576351,130.799024 C312.577428,128.783959 311.580675,125.521731 311.580675,120.998727 L311.580675,76.9041972 C311.580675,70.4995574 310.483705,65.6252779 308.297891,62.3004202 C306.112077,58.9755625 302.209032,57.306326 296.583337,57.306326 C290.331963,57.306326 284.93108,59.0981003 280.369852,62.6734796 C275.805916,66.2597511 272.655852,71.0033237 270.906117,76.9041972 C269.654759,80.6729139 269.031789,84.9426738 269.031789,89.7162 L269.031789,133.810729 L245.415789,133.810729 L245.415789,37.7057317 L255.724597,37.7057317 C264.09407,37.7057317 268.281516,41.2920033 268.281516,48.4509311 L268.281516,51.2747455 L267.907733,55.4219677 L268.281516,55.4219677 C270.906117,50.1446751 275.028557,45.5018559 280.648835,41.4744484 C286.274529,37.4552101 293.398062,35.448314 302.019432,35.448314 Z" id="Combined-Shape"></path>
                </g>
            </g>
        </g>
    </g>
</svg>