<?xml version="1.0" encoding="UTF-8"?>
<svg width="92.125px" height="12.750266px" viewBox="0 0 92.125 12.750266" version="1.1" xmlns="http://www.w3.org/2000/svg" xmlns:xlink="http://www.w3.org/1999/xlink" preserveAspectRatio="none">
    <title>Line Copy</title>
    <g id="Web" stroke="none" stroke-width="1" fill="none" fill-rule="evenodd">
        <g id="M---Home-/-step-1-+-footer" transform="translate(-17.750000, -718.083454)" fill="#08175E" fill-rule="nonzero">
            <g id="Group-15" transform="translate(4.000000, 707.000000)">
                <path id="Line-Copy" d="M80.9926959,11.179905 L90.9926959,16.804905 C91.5024347,17.091633 91.5024347,17.8255402 90.9926959,18.1122683 L80.9926959,23.7372683 C80.6316775,23.9403411 80.1743912,23.812301 79.9713183,23.4512826 C79.7682455,23.0902641 79.8962857,22.6329778 80.2573041,22.429905 L87.761,18.208 L0,18.2085866 C-0.414213562,18.2085866 -0.75,17.8728002 -0.75,17.4585866 C-0.75,17.0443731 -0.414213562,16.7085866 0,16.7085866 L87.761,16.708 L80.2573041,12.4872683 C79.9263705,12.3011182 79.7912034,11.9013581 79.9273915,11.5579481 L79.9713183,11.4658907 C80.1743912,11.1048723 80.6316775,10.9768321 80.9926959,11.179905 Z"></path>
            </g>
        </g>
    </g>
</svg>