<?xml version="1.0" encoding="UTF-8"?>
<svg width="21px" height="21px" viewBox="0 0 21 21" version="1.1" xmlns="http://www.w3.org/2000/svg" xmlns:xlink="http://www.w3.org/1999/xlink">
    <title>icon / arrow-right copy 2</title>
    <defs>
        <path d="M18.6671804,9.76468073 L16.0216099,12.3986602 C15.8452385,12.5742588 15.6688672,12.7498575 15.4043101,12.9254561 C14.4342676,13.6278506 13.3760394,13.9790479 12.2296255,13.9790479 C10.6422832,13.9790479 9.05494086,13.2766534 7.99671266,11.8718643 C7.7321556,11.520667 7.82034129,10.9060718 8.17308402,10.6426739 C8.52582676,10.3792759 9.14312655,10.4670753 9.4076836,10.8182725 C10.5540975,12.3986602 12.7587396,12.6620582 14.3460819,11.520667 C14.5224533,11.4328677 14.610639,11.3450684 14.6988246,11.1694698 L17.3443952,8.53549031 C18.6671804,7.13070125 18.6671804,4.93571836 17.2562095,3.61872862 C15.8452385,2.30173888 13.7287821,2.30173888 12.3178112,3.61872862 L10.8186545,5.11131699 C10.4659118,5.46251425 9.9367977,5.46251425 9.58405497,5.11131699 C9.23131223,4.76011973 9.23131223,4.23332383 9.58405497,3.88212657 L11.0832116,2.3895382 C13.1114823,0.370153934 16.3743526,0.370153934 18.4026234,2.3895382 C20.6072655,4.32112315 20.6954511,7.74529647 18.6671804,9.76468073 Z M10.0249834,15.8228335 L8.52582676,17.3154219 C7.11485582,18.6324116 4.9983994,18.6324116 3.58742846,17.3154219 C2.17645752,15.9984322 2.17645752,13.7156499 3.49924278,12.3986602 L6.14481329,9.76468073 C6.23299898,9.67688141 6.40937035,9.50128278 6.49755603,9.41348347 C7.29122718,8.88668757 8.17308402,8.62328962 9.14312655,8.71108894 C10.1131691,8.88668757 10.9068402,9.32568415 11.4359543,10.115878 C11.7005114,10.4670753 12.3178112,10.5548746 12.6705539,10.2914766 C13.0232966,10.0280787 13.1114823,9.41348347 12.8469253,9.0622862 C11.9650684,7.9208951 10.7304689,7.21850057 9.4076836,7.04290194 C8.08489834,6.77950399 6.6739274,7.13070125 5.52751351,8.00869441 C5.35114214,8.18429304 5.17477077,8.35989168 4.9983994,8.53549031 L2.35282888,11.1694698 C0.324558154,13.2766534 0.412743838,16.6130274 2.44101457,18.6324116 C3.49924278,19.5982041 4.82202803,20.125 6.14481329,20.125 C7.46759855,20.125 8.79038381,19.5982041 9.84861202,18.6324116 L11.3477686,17.1398233 C11.7005114,16.788626 11.7005114,16.2618301 11.3477686,15.9106328 C10.9950259,15.5594356 10.3777261,15.4716363 10.0249834,15.8228335 Z" id="path-1"></path>
    </defs>
    <g id="Symbols" stroke="none" stroke-width="1" fill="none" fill-rule="evenodd">
        <g id="2021-/-speaker-/-dekstop" transform="translate(-103.000000, -241.000000)">
            <g id="social-links\-copy-3" transform="translate(66.000000, 241.000000)">
                <g id="icon-/-arrow-right-copy-2" transform="translate(37.000000, 0.000000)">
                    <mask id="mask-2" fill="white">
                        <use xlink:href="#path-1"></use>
                    </mask>
                    <use id="Mask" fill="#000000" fill-rule="nonzero" xlink:href="#path-1"></use>
                    <g id="Group" mask="url(#mask-2)" fill="#2A3B90">
                        <g id="Icon-Color">
                            <rect id="Shape" x="0" y="0" width="21" height="21"></rect>
                        </g>
                    </g>
                </g>
            </g>
        </g>
    </g>
</svg>