<?xml version="1.0" encoding="utf-8"?>
<!-- Generator: Adobe Illustrator 21.1.0, SVG Export Plug-In . SVG Version: 6.00 Build 0)  -->
<svg version="1.1" xmlns="http://www.w3.org/2000/svg" xmlns:xlink="http://www.w3.org/1999/xlink" x="0px" y="0px"
	 viewBox="0 0 125 40" enable-background="new 0 0 125 40" xml:space="preserve">
<g id="bgs" display="none">
	<rect display="inline" fill="#FFFFFF" width="125" height="40"/>
</g>
<g id="logo_and_symbols">
	<g>
		<g id="Text_-_White_4_">
			<rect x="44.099" y="10.06" fill="#151C26" width="3.785" height="20.219"/>
			<path fill="#151C26" d="M54.973,30.278H51.19V16.255h3.783V30.278z M54.973,12.897H51.19v-2.839h3.783V12.897z"/>
			<g>
				<path fill="#151C26" d="M61.545,16.255l0.168,2.008c0.467-0.717,1.041-1.274,1.722-1.672c0.683-0.398,1.447-0.596,2.295-0.596
					c1.417,0,2.522,0.445,3.318,1.335c0.795,0.89,1.192,2.285,1.192,4.186v8.762h-3.797V21.51c0-0.945-0.19-1.614-0.571-2.008
					c-0.381-0.392-0.955-0.589-1.724-0.589c-0.501,0-0.95,0.102-1.347,0.304c-0.397,0.204-0.73,0.493-0.999,0.865v10.198h-3.783
					V16.255H61.545z"/>
			</g>
			<polygon fill="#151C26" points="77.888,24.406 76.851,24.406 76.851,30.277 73.067,30.277 73.067,10.058 76.851,10.058 
				76.851,21.53 77.784,21.53 81.037,16.253 85.419,16.253 80.934,22.603 86.105,30.277 81.763,30.277 			"/>
			<g>
				<path fill="#151C26" d="M88.271,30.277V18.912h-2.087v-2.659h2.087v-1.554c0-1.573,0.452-2.784,1.359-3.635
					c0.907-0.851,2.183-1.276,3.824-1.276c0.321,0,0.648,0.022,0.979,0.071c0.333,0.046,0.698,0.114,1.096,0.201l-0.324,2.813
					c-0.208-0.036-0.408-0.066-0.603-0.092c-0.194-0.026-0.419-0.039-0.68-0.039c-0.613,0-1.079,0.168-1.393,0.506
					c-0.316,0.336-0.474,0.821-0.474,1.451v1.556h2.788v2.657h-2.788v11.365H88.271z"/>
			</g>
			<path fill="#151C26" d="M100.75,30.278h-3.783V16.255h3.783V30.278z M100.75,12.897h-3.783v-2.839h3.783V12.897z"/>
			<g>
				<path fill="#151C26" d="M111.235,19.506l-1.386-0.039c-0.561,0-1.024,0.117-1.386,0.352c-0.364,0.231-0.641,0.561-0.829,0.984
					v9.474h-3.771V16.253h3.513l0.168,2.074c0.328-0.734,0.752-1.306,1.276-1.718c0.523-0.409,1.126-0.615,1.809-0.615
					c0.189,0,0.365,0.015,0.525,0.046c0.16,0.029,0.321,0.066,0.486,0.11L111.235,19.506z"/>
				<path fill="#151C26" d="M119.025,18.91c-0.7,0-1.254,0.268-1.659,0.803c-0.407,0.537-0.658,1.24-0.751,2.113l0.039,0.066h4.639
					v-0.338c0-0.804-0.187-1.446-0.564-1.925C120.354,19.152,119.785,18.91,119.025,18.91 M119.362,30.549
					c-2.021,0-3.637-0.647-4.847-1.944c-1.211-1.296-1.814-2.941-1.814-4.938v-0.518c0-2.081,0.572-3.799,1.718-5.146
					c1.145-1.347,2.68-2.016,4.607-2.008c1.893,0,3.36,0.571,4.407,1.711c1.045,1.14,1.568,2.682,1.568,4.627v2.061h-8.372
					l-0.027,0.076c0.07,0.921,0.379,1.678,0.928,2.271c0.547,0.595,1.293,0.892,2.235,0.892c0.838,0,1.534-0.085,2.086-0.253
					c0.552-0.17,1.158-0.435,1.814-0.797l1.024,2.34c-0.571,0.467-1.319,0.856-2.243,1.165
					C121.523,30.396,120.495,30.549,119.362,30.549"/>
			</g>
		</g>
		<g id="Symbol_3_">
			<path fill="#E52F19" d="M35.41,5.777c0.093-0.092,0.127-0.24,0.075-0.367c-0.056-0.131-0.182-0.211-0.316-0.211H14.912
				C6.676,5.199,0,11.826,0,20.001c0,8.171,6.676,14.8,14.912,14.8c4.135,0,7.832-1.653,10.538-4.341
				c4.267-4.14,6.67-11.93,8.542-19.026c0.019-0.073,0.059-0.226,0.059-0.226l0.134-0.51c0.024-0.099,0.007-0.207-0.061-0.292
				c-0.068-0.085-0.168-0.132-0.27-0.132H31.32c-0.134,0-0.26-0.078-0.316-0.207c-0.053-0.129-0.021-0.275,0.075-0.369L35.41,5.777z
				"/>
			<path fill="#FFFFFF" d="M21.177,12.066h-5.696c-1.372,0-2.491,1.12-2.491,2.492v1.067h2.135v-1.067
				c0-0.192,0.165-0.357,0.356-0.357h5.696c0.193,0,0.356,0.165,0.356,0.357v5.693c0,0.194-0.163,0.357-0.356,0.357h-5.696
				c-0.191,0-0.356-0.165-0.356-0.357v-1.067h-2.135v1.067c0,1.374,1.118,2.492,2.491,2.492h5.696c1.374,0,2.49-1.118,2.49-2.492
				v-5.693C23.669,13.186,22.552,12.066,21.177,12.066 M17.263,24.523c0,0.192-0.163,0.355-0.357,0.355h-5.695
				c-0.191,0-0.353-0.163-0.353-0.355v-5.694c0-0.195,0.162-0.357,0.353-0.357h5.695c0.194,0,0.357,0.161,0.357,0.357v1.065h2.135
				v-1.065c0-1.374-1.117-2.492-2.492-2.492h-5.695c-1.372,0-2.49,1.118-2.49,2.492v5.692c0,1.376,1.118,2.49,2.49,2.49h5.695
				c1.375,0,2.492-1.115,2.492-2.49v-1.067h-2.135V24.523z"/>
		</g>
	</g>
</g>
</svg>
