<?xml version="1.0" encoding="UTF-8"?>
<svg width="1334px" height="417px" viewBox="0 0 1334 417" version="1.1" xmlns="http://www.w3.org/2000/svg" xmlns:xlink="http://www.w3.org/1999/xlink">
    <title>18F05080-281A-4D08-B089-5DA02C1F5EBB@1x</title>
    <defs>
        <filter id="filter-1">
            <feColorMatrix in="SourceGraphic" type="matrix" values="0 0 0 0 1.000000 0 0 0 0 1.000000 0 0 0 0 1.000000 0 0 0 0.600000 0"></feColorMatrix>
        </filter>
        <filter x="-7.0%" y="-8.3%" width="114.0%" height="116.6%" filterUnits="objectBoundingBox" id="filter-2">
            <feOffset dx="0" dy="2" in="SourceAlpha" result="shadowOffsetOuter1"></feOffset>
            <feGaussianBlur stdDeviation="2" in="shadowOffsetOuter1" result="shadowBlurOuter1"></feGaussianBlur>
            <feComposite in="shadowBlurOuter1" in2="SourceAlpha" operator="out" result="shadowBlurOuter1"></feComposite>
            <feColorMatrix values="0 0 0 0 0   0 0 0 0 0   0 0 0 0 0  0 0 0 0.05 0" type="matrix" in="shadowBlurOuter1" result="shadowMatrixOuter1"></feColorMatrix>
            <feMerge>
                <feMergeNode in="shadowMatrixOuter1"></feMergeNode>
                <feMergeNode in="SourceGraphic"></feMergeNode>
            </feMerge>
        </filter>
        <filter id="filter-3">
            <feColorMatrix in="SourceGraphic" type="matrix" values="0 0 0 0 1.000000 0 0 0 0 1.000000 0 0 0 0 1.000000 0 0 0 0.600000 0"></feColorMatrix>
        </filter>
        <filter x="-3.5%" y="-4.1%" width="107.0%" height="108.3%" filterUnits="objectBoundingBox" id="filter-4">
            <feOffset dx="0" dy="2" in="SourceAlpha" result="shadowOffsetOuter1"></feOffset>
            <feGaussianBlur stdDeviation="2" in="shadowOffsetOuter1" result="shadowBlurOuter1"></feGaussianBlur>
            <feComposite in="shadowBlurOuter1" in2="SourceAlpha" operator="out" result="shadowBlurOuter1"></feComposite>
            <feColorMatrix values="0 0 0 0 0   0 0 0 0 0   0 0 0 0 0  0 0 0 0.05 0" type="matrix" in="shadowBlurOuter1" result="shadowMatrixOuter1"></feColorMatrix>
            <feMerge>
                <feMergeNode in="shadowMatrixOuter1"></feMergeNode>
                <feMergeNode in="SourceGraphic"></feMergeNode>
            </feMerge>
        </filter>
        <filter id="filter-5">
            <feColorMatrix in="SourceGraphic" type="matrix" values="0 0 0 0 1.000000 0 0 0 0 1.000000 0 0 0 0 1.000000 0 0 0 0.600000 0"></feColorMatrix>
        </filter>
        <filter x="-8.8%" y="-9.2%" width="117.5%" height="118.3%" filterUnits="objectBoundingBox" id="filter-6">
            <feOffset dx="0" dy="2" in="SourceAlpha" result="shadowOffsetOuter1"></feOffset>
            <feGaussianBlur stdDeviation="2" in="shadowOffsetOuter1" result="shadowBlurOuter1"></feGaussianBlur>
            <feComposite in="shadowBlurOuter1" in2="SourceAlpha" operator="out" result="shadowBlurOuter1"></feComposite>
            <feColorMatrix values="0 0 0 0 0   0 0 0 0 0   0 0 0 0 0  0 0 0 0.05 0" type="matrix" in="shadowBlurOuter1" result="shadowMatrixOuter1"></feColorMatrix>
            <feMerge>
                <feMergeNode in="shadowMatrixOuter1"></feMergeNode>
                <feMergeNode in="SourceGraphic"></feMergeNode>
            </feMerge>
        </filter>
        <filter id="filter-7">
            <feColorMatrix in="SourceGraphic" type="matrix" values="0 0 0 0 1.000000 0 0 0 0 1.000000 0 0 0 0 1.000000 0 0 0 0.600000 0"></feColorMatrix>
        </filter>
        <filter x="-27.9%" y="-2.9%" width="155.8%" height="105.8%" filterUnits="objectBoundingBox" id="filter-8">
            <feOffset dx="0" dy="2" in="SourceAlpha" result="shadowOffsetOuter1"></feOffset>
            <feGaussianBlur stdDeviation="2" in="shadowOffsetOuter1" result="shadowBlurOuter1"></feGaussianBlur>
            <feComposite in="shadowBlurOuter1" in2="SourceAlpha" operator="out" result="shadowBlurOuter1"></feComposite>
            <feColorMatrix values="0 0 0 0 0   0 0 0 0 0   0 0 0 0 0  0 0 0 0.05 0" type="matrix" in="shadowBlurOuter1" result="shadowMatrixOuter1"></feColorMatrix>
            <feMerge>
                <feMergeNode in="shadowMatrixOuter1"></feMergeNode>
                <feMergeNode in="SourceGraphic"></feMergeNode>
            </feMerge>
        </filter>
        <filter id="filter-9">
            <feColorMatrix in="SourceGraphic" type="matrix" values="0 0 0 0 1.000000 0 0 0 0 1.000000 0 0 0 0 1.000000 0 0 0 0.600000 0"></feColorMatrix>
        </filter>
        <filter x="-14.1%" y="-6.5%" width="128.2%" height="113.0%" filterUnits="objectBoundingBox" id="filter-10">
            <feOffset dx="0" dy="2" in="SourceAlpha" result="shadowOffsetOuter1"></feOffset>
            <feGaussianBlur stdDeviation="2" in="shadowOffsetOuter1" result="shadowBlurOuter1"></feGaussianBlur>
            <feComposite in="shadowBlurOuter1" in2="SourceAlpha" operator="out" result="shadowBlurOuter1"></feComposite>
            <feColorMatrix values="0 0 0 0 0   0 0 0 0 0   0 0 0 0 0  0 0 0 0.05 0" type="matrix" in="shadowBlurOuter1" result="shadowMatrixOuter1"></feColorMatrix>
            <feMerge>
                <feMergeNode in="shadowMatrixOuter1"></feMergeNode>
                <feMergeNode in="SourceGraphic"></feMergeNode>
            </feMerge>
        </filter>
    </defs>
    <g id="Symbols" stroke="none" stroke-width="1" fill="none" fill-rule="evenodd">
        <g id="rome">
            <g filter="url(#filter-1)" id="building-1">
                <g filter="url(#filter-2)" transform="translate(187.250000, 344.500000) scale(1, -1) translate(-187.250000, -344.500000) translate(101.750000, 272.000000)">
                    <path d="M166.741563,108.641044 L166.741563,117.007447 C166.741563,118.638113 165.357044,120.02744 163.418281,120.547079 C161.310834,121.114551 159.177098,121.592879 157.100321,122.266888 L88.7923094,144.41133 C86.3715931,145.196223 83.628845,145.196223 81.2081288,144.41133 L12.9001173,122.266888 C10.8233399,121.592879 8.69179521,121.114551 6.57996675,120.547079 C4.64339377,120.02744 3.25887553,118.638113 3.25887553,117.007447 L3.25887553,108.641044 L166.741563,108.641044 Z M29.2196879,96.7041357 C29.6227755,96.7041357 29.9513795,97.1824644 29.9513795,97.7673299 C29.9513795,98.0608497 29.8659424,98.3261047 29.7323102,98.5196103 L40.7339725,98.5196103 C40.6003402,98.3261047 40.5149032,98.0608497 40.5149032,97.7673299 C40.5149032,97.1824644 40.8456979,96.7041357 41.2487855,96.7041357 L49.126519,96.7041357 C49.5296066,96.7041357 49.8582106,97.1824644 49.8582106,97.7673299 C49.8582106,98.0608497 49.7727735,98.3261047 49.6391412,98.5196103 L60.6408036,98.5196103 C60.5071713,98.3261047 60.4217343,98.0608497 60.4217343,97.7673299 C60.4217343,97.1824644 60.752529,96.7041357 61.1534259,96.7041357 L69.0333501,96.7041357 C69.434247,96.7041357 69.7650417,97.1824644 69.7650417,97.7673299 C69.7650417,98.0608497 69.6796046,98.3261047 69.5459723,98.5196103 L80.5476347,98.5196103 C80.4140024,98.3261047 80.3285654,98.0608497 80.3285654,97.7673299 C80.3285654,97.1824644 80.6593601,96.7041357 81.060257,96.7041357 L88.9401812,96.7041357 C89.3410781,96.7041357 89.6718728,97.1824644 89.6718728,97.7673299 C89.6718728,98.0608497 89.5864357,98.3261047 89.4528034,98.5196103 L100.454466,98.5196103 C100.320833,98.3261047 100.235396,98.0608497 100.235396,97.7673299 C100.235396,97.1824644 100.564,96.7041357 100.967088,96.7041357 L108.844822,96.7041357 C109.247909,96.7041357 109.578704,97.1824644 109.578704,97.7673299 C109.578704,98.0608497 109.493267,98.3261047 109.359635,98.5196103 L120.361297,98.5196103 C120.227665,98.3261047 120.142228,98.0608497 120.142228,97.7673299 C120.142228,97.1824644 120.470832,96.7041357 120.873919,96.7041357 L128.751653,96.7041357 C129.15474,96.7041357 129.485535,97.1824644 129.485535,97.7673299 C129.485535,98.0608497 129.400098,98.3261047 129.266466,98.5196103 L140.265937,98.5196103 C140.132305,98.3261047 140.049059,98.0608497 140.049059,97.7673299 C140.049059,97.1824644 140.377663,96.7041357 140.78075,96.7041357 L148.658484,96.7041357 C149.061571,96.7041357 149.392366,97.1824644 149.392366,97.7673299 C149.392366,98.0608497 149.306929,98.3261047 149.171106,98.5196103 L150.991572,98.5196103 L150.991572,103.161572 C150.991572,105.159682 149.359506,106.777302 147.348449,106.777302 L22.651989,106.777302 C20.6409325,106.777302 19.0088659,105.159682 19.0088659,103.161572 L19.0088659,98.5196103 L20.8271414,98.5196103 C20.6935091,98.3261047 20.6080721,98.0608497 20.6080721,97.7673299 C20.6080721,97.1824644 20.9388668,96.7041357 21.3419544,96.7041357 L29.2196879,96.7041357 Z M29.190989,82.8643516 L29.0967891,95.6574684 L21.4008832,95.6574684 L21.2825857,82.8643516 L29.190989,82.8643516 Z M49.2358346,82.8160811 L49.1416348,95.609198 L41.4457288,95.609198 L41.3274313,82.8160811 L49.2358346,82.8160811 Z M69.1424466,82.8160811 L69.0482468,95.609198 L61.3523408,95.609198 L61.2340434,82.8160811 L69.1424466,82.8160811 Z M89.0490586,82.8160811 L88.9548588,95.609198 L81.2589528,95.609198 L81.1406554,82.8160811 L89.0490586,82.8160811 Z M108.955671,82.8160811 L108.861471,95.609198 L101.165565,95.609198 L101.047267,82.8160811 L108.955671,82.8160811 Z M128.862283,82.8160811 L128.768083,95.609198 L121.072177,95.609198 L120.953879,82.8160811 L128.862283,82.8160811 Z M148.768895,82.8160811 L148.674695,95.609198 L140.978789,95.609198 L140.860491,82.8160811 L148.768895,82.8160811 Z M49.7013569,19.4945011 L49.2697903,78.1723797 L41.2825221,78.1723797 L40.7348488,19.4945011 L49.7013569,19.4945011 Z M69.608188,19.4945011 L69.1766214,78.1723797 L61.1893532,78.1723797 L60.6416799,19.4945011 L69.608188,19.4945011 Z M89.5148001,19.4945011 L89.0832335,78.1723797 L81.0959653,78.1723797 L80.5482919,19.4945011 L89.5148001,19.4945011 Z M109.421412,19.4945011 L108.989845,78.1723797 L101.002577,78.1723797 L100.454904,19.4945011 L109.421412,19.4945011 Z M129.328024,19.4945011 L128.896458,78.1723797 L120.909189,78.1723797 L120.361516,19.4945011 L129.328024,19.4945011 Z M149.234636,19.4945011 L148.80307,78.1723797 L140.815801,78.1723797 L140.268128,19.4945011 L149.234636,19.4945011 Z M29.4922104,19.4831943 L29.0606438,78.161073 L21.0733756,78.161073 L20.5257022,19.4831943 L29.4922104,19.4831943 Z M170,0 L170,7.00751456 L159.629257,7.00751456 L159.629257,11.9930035 L154.086803,11.9930035 L154.086803,17.0458933 L15.913197,17.0458933 L15.913197,11.9930035 L10.3707426,11.9930035 L10.3707426,7.00751456 L0,7.00751456 L0,0 L170,0 Z" id="Combined-Shape" fill="#00576E" fill-rule="nonzero"></path>
                </g>
            </g>
            <g filter="url(#filter-3)" id="building-6">
                <g filter="url(#filter-4)" transform="translate(1162.500000, 272.000000) scale(1, -1) translate(-1162.500000, -272.000000) translate(991.000000, 127.000000)">
                    <path d="M114.117436,154.655739 L113.879813,155.404754 L113.616469,156.278319 C113.776119,155.734139 113.943457,155.193105 114.118307,154.655305 L119.655,154.655223 L119.655265,164.174702 L132.190952,164.174702 L132.19,154.655223 L142.444,154.655223 L142.444255,164.174702 L154.977764,164.174702 L154.977,154.655223 L165.233,154.655223 L165.233245,164.174702 L177.766755,164.174702 L177.766,154.655223 L188.022,154.655223 L188.022236,164.174702 L200.555745,164.174702 L200.555,154.655223 L210.809,154.655223 L210.809048,164.174702 L223.344735,164.174702 L223.344,154.655223 L228.882128,154.655305 L229.172862,155.575125 L229.189,155.632223 L229.173679,155.575429 C229.079351,155.267831 228.982591,154.961263 228.883435,154.655739 L234.393388,154.655739 L234.394041,166.395034 L240.81564,166.395034 L240.81564,168.529174 L231.511878,168.529174 L231.500313,168.351251 L231.510572,168.529174 L231.510572,168.529174 L231.623085,170.122689 C231.676132,170.920107 231.717685,171.720182 231.717685,172.530417 C231.717685,199.12757 214.6177,225.859324 190.23506,234.774016 L190.234493,238.430212 L186.486418,238.430212 L186.487071,253.904362 L182.519034,253.904362 L183.488176,252.933903 L182.519034,253.903927 L182.517292,253.903927 L175.210616,261.211677 L177.747807,261.211677 L177.747807,263.065753 L174.291564,263.065753 L174.291346,267.571764 L173.319,267.571223 L173.446532,267.697071 C173.900371,268.174342 174.187681,268.810022 174.187681,269.520498 C174.187681,270.72543 173.375344,271.704573 172.277709,272.041085 L172.277709,282.288652 L170.723598,282.288435 L170.723598,282.290606 L176.473113,282.290606 L176.473113,284.014419 L172.27858,284.014419 L172.27858,290 L170.723598,290 L170.723598,284.012248 L166.526887,284.012248 L166.526887,282.288435 L170.722726,282.288652 L170.722726,272.041085 C169.625092,271.704573 168.812755,270.72543 168.812755,269.520498 C168.812755,268.745938 169.154232,268.060275 169.68286,267.57185 L168.709525,267.571764 L168.709525,263.066838 L165.252846,263.066838 L165.252846,261.212763 L167.790038,261.212763 L168.708436,262.128945 L167.790691,261.211677 L160.48236,253.904305 L156.513364,253.904362 L156.514018,238.430212 L152.765943,238.430212 L152.76536,233.784305 L152.054047,233.487469 C128.60855,223.531311 111.282751,197.993627 111.282751,172.530417 C111.282751,171.720182 111.324304,170.920107 111.377304,170.122689 L111.489646,168.529174 L102.18436,168.529174 L102.18436,166.395034 L108.607483,166.394599 L108.607483,154.655739 L114.117436,154.655739 Z M343,123.806223 L343,126.294244 L337.997,126.294223 L337.997486,152.678999 L319.459,152.678223 L319.459653,153.454932 C319.459653,154.76982 318.768415,155.933749 317.730029,156.602001 L318.414286,156.602084 L318.414286,158.983725 L311.514,158.983223 L305.85636,164.641305 L308.707622,164.641478 L308.707622,166.725684 L304.82436,166.725305 L304.824521,171.786399 L302.88336,171.786305 L302.88406,174.465473 L300.494962,174.465473 L300.49436,171.786305 L298.552322,171.786399 L298.55136,166.725305 L294.671399,166.725684 L294.671399,164.641478 L297.52136,164.641305 L291.862,158.983223 L284.964735,158.983725 L284.964735,156.602084 L285.64699,156.602114 C284.608507,155.933881 283.917191,154.769894 283.917191,153.454932 L283.917,152.678223 L279.467,152.678223 L279.467632,160.835846 C279.467632,161.31999 279.071264,161.71295 278.583426,161.71295 L278.017,161.712223 L278.017404,164.524241 L276.995,164.524223 L276.995994,166.174238 L276.360062,166.174238 L276.36,164.524223 L275.34083,164.524241 L275.34,161.712223 L274.770016,161.71295 C274.284356,161.71295 273.887988,161.31999 273.887988,160.835846 L273.887,152.678223 L269.739172,152.679213 C269.353343,155.870258 266.609515,158.363456 263.308661,158.363456 L263.009,158.363223 L263.009861,163.149967 L262.369,163.149223 L262.369574,169.765152 L259.63636,169.764305 L259.636376,177.735072 L258.294822,177.735072 L258.29436,169.764305 L255.563802,169.765152 L255.563,163.149223 L254.921337,163.149967 L254.921,158.363223 L254.62123,158.363456 C253.305331,158.363456 252.077958,157.967224 251.053212,157.288507 L251.053481,164.756109 C251.053481,165.240253 250.659291,165.633213 250.171453,165.633213 L249.603,165.632223 L249.603035,168.442984 L248.58336,168.442305 L248.583803,170.095152 L247.945694,170.095152 L247.94536,168.442305 L246.926461,168.442984 L246.926,165.632223 L246.355865,165.633213 C245.872383,165.633213 245.476015,165.240253 245.476015,164.756109 L245.476,152.678223 L240.815,152.678223 L240.815423,154.654871 L223.344,154.654223 L223.344735,151.680317 L210.809048,151.680317 L210.809,154.654223 L200.555,154.654223 L200.555745,151.680317 L188.022236,151.680317 L188.022,154.654223 L177.766,154.654223 L177.766755,151.680317 L165.233245,151.680317 L165.233,154.654223 L154.977,154.654223 L154.977764,151.680317 L142.444255,151.680317 L142.444,154.654223 L132.19,154.654223 L132.190952,151.680317 L119.655265,151.680317 L119.655,154.654223 L102.185231,154.654871 L102.185,152.678223 L97.524,152.678 L97.524856,164.756109 C97.524856,165.203011 97.1889779,165.572218 96.7553197,165.626374 L96.6450059,165.633213 L96.073,165.633 L96.0735388,168.442984 L95.056,168.442 L95.0564843,170.095152 L94.4183752,170.095152 L94.418,168.442 L93.396965,168.442984 L93.396,165.633 L92.8294181,165.633213 C92.3791063,165.633213 92.0085889,165.298383 91.9542507,164.866078 L91.9473901,164.756109 L91.9476588,157.288507 C90.9229133,157.967224 89.6955399,158.363456 88.3796413,158.363456 L88.3796413,158.363456 L88.08,158.363 L88.0808407,163.149967 L87.438,163.149 L87.4383758,169.765152 L84.707,169.765 L84.7073558,177.735072 L83.3658021,177.735072 L83.365,169.765 L80.6347821,169.765152 L80.634,163.149 L79.9923172,163.149967 L79.992,158.363 L79.6922099,158.363456 C76.3912244,158.363456 73.6473086,155.870058 73.2616528,152.67883 L69.112,152.678 L69.1128829,160.835846 C69.1128829,161.282748 68.7751492,161.651955 68.3412055,161.706112 L68.2308549,161.71295 L67.661,161.712 L67.661348,164.524241 L66.642,164.524 L66.6421156,166.174238 L66.0061843,166.174238 L66.006,164.524 L64.9847741,164.524241 L64.984,161.712 L64.417445,161.71295 C63.9671333,161.71295 63.5947601,161.37812 63.5401365,160.945816 L63.5332392,160.835846 L63.533,152.678 L59.083,152.678 L59.0836801,153.454932 C59.0836801,154.770676 58.3915424,155.935264 57.352029,156.603306 L58.0374425,156.602084 L58.0374425,158.983725 L51.138,158.983 L45.479,164.641 L48.3329566,164.641478 L48.3329566,166.725684 L44.447,166.725 L44.4476777,171.786399 L42.507,171.786 L42.5072161,174.465473 L40.118118,174.465473 L40.118,171.786 L38.1754786,171.786399 L38.175,166.725 L34.2945554,166.725684 L34.2945554,164.641478 L37.143,164.641 L31.486,158.983 L24.5878917,158.983725 L24.5878917,156.602084 L25.2720245,156.602762 C24.2329811,155.934633 23.5412185,154.770319 23.5412185,153.454932 L23.5412185,153.454932 L23.541,152.678 L14.858,152.678 L14.8581428,160.835846 C14.8581428,161.282748 14.520409,161.651955 14.0864653,161.706112 L13.9761148,161.71295 L13.406,161.712 L13.4068256,164.524241 L12.389,164.524 L12.3897711,166.174238 L11.751662,166.174238 L11.751,164.524 L10.7302518,164.524241 L10.73,161.712 L10.1627048,161.71295 C9.71239312,161.71295 9.34187563,161.37812 9.28753751,160.945816 L9.28067685,160.835846 L9.28,152.678 L5.00251437,152.678999 L5.002,126.294223 L-4.54747351e-13,126.294244 L-4.54747351e-13,123.806223 L343,123.806223 Z M337.997486,0 L337.997486,119.238336 L5.00251437,119.238336 L5.00251437,0 L337.997486,0 Z M177.416121,67.4890025 L165.191866,67.4890025 L165.191866,83.426671 C165.191866,85.4414041 166.831785,87.0740328 168.850649,87.0740328 L173.757338,87.0740328 C175.77838,87.0740328 177.416121,85.4414041 177.416121,83.426671 L177.416121,67.4890025 Z M106.253231,67.4890025 L94.0289762,67.4890025 L94.0289762,83.426671 C94.0289762,85.4414041 95.6688949,87.0740328 97.687759,87.0740328 L102.594448,87.0740328 C104.61549,87.0740328 106.253231,85.4414041 106.253231,83.426671 L106.253231,67.4890025 Z M35.0905584,67.4890025 L22.8663037,67.4890025 L22.8663037,83.426671 C22.8663037,85.4414041 24.5040446,87.0740328 26.5250865,87.0740328 L31.4317756,87.0740328 C33.4528175,87.0740328 35.0905584,85.4414041 35.0905584,83.426671 L35.0905584,67.4890025 Z M248.579011,67.4890025 L236.356935,67.4890025 L236.356935,83.426671 C236.356935,85.4414041 237.994675,87.0740328 240.013539,87.0740328 L244.920229,87.0740328 C246.941271,87.0740328 248.579011,85.4414041 248.579011,83.426671 L248.579011,67.4890025 Z M319.741902,67.4890025 L307.519825,67.4890025 L307.519825,83.426671 C307.519825,85.4414041 309.157566,87.0740328 311.17643,87.0740328 L316.083119,87.0740328 C318.104161,87.0740328 319.741902,85.4414041 319.741902,83.426671 L319.741902,67.4890025 Z M68.0516181,67.4890025 L61.0672631,67.4890025 L61.0672631,78.8978634 C61.0672631,80.0463481 62.0037373,80.9820701 63.1579961,80.9820701 L65.9608851,80.9820701 C67.115144,80.9820701 68.0516181,80.0463481 68.0516181,78.8978634 L68.0516181,67.4890025 Z M139.216686,67.4890025 L132.230153,67.4890025 L132.230153,78.8978634 C132.230153,80.0463481 133.166628,80.9820701 134.320886,80.9820701 L137.125953,80.9820701 C138.278034,80.9820701 139.216686,80.0463481 139.216686,78.8978634 L139.216686,67.4890025 Z M210.379576,67.4890025 L203.393044,67.4890025 L203.393044,78.8978634 C203.393044,80.0463481 204.329518,80.9820701 205.483777,80.9820701 L208.288843,80.9820701 C209.443102,80.9820701 210.379576,80.0463481 210.379576,78.8978634 L210.379576,67.4890025 Z M281.542249,67.4890025 L274.555716,67.4890025 L274.555716,78.8978634 C274.555716,80.0463481 275.49219,80.9820701 276.646449,80.9820701 L279.451516,80.9820701 C280.605775,80.9820701 281.542249,80.0463481 281.542249,78.8978634 L281.542249,67.4890025 Z M39.020701,15.2629065 L18.9365967,15.2629065 L18.9365967,52.3574445 C18.9365967,55.6661227 21.6284155,58.3495388 24.9474542,58.3495388 L33.0098435,58.3495388 C36.3288822,58.3495388 39.020701,55.6661227 39.020701,52.3574445 L39.020701,15.2629065 Z M324.064274,15.2629065 L303.982348,15.2629065 L303.982348,52.3574445 C303.982348,55.5909254 306.551122,58.2272424 309.767762,58.3454048 L309.993205,58.3495388 L318.053417,58.3495388 C321.297023,58.3495388 323.941595,55.7867101 324.060127,52.5820431 L324.064274,52.3574445 L324.064274,15.2629065 Z M183.069812,15.2624723 L159.932366,15.2624723 L159.932366,51.4386566 L183.069812,51.4386566 L183.069812,15.2624723 Z M70.7207873,28.318942 L58.4965326,28.318942 L58.4965326,44.2566105 C58.4965326,46.2713437 60.1364513,47.9039723 62.1553154,47.9039723 L67.0620045,47.9039723 C69.0830464,47.9039723 70.7207873,46.2713437 70.7207873,44.2566105 L70.7207873,28.318942 Z M284.504339,28.318942 L272.280084,28.318942 L272.280084,44.2566105 C272.280084,46.2063523 273.813868,47.7982438 275.744521,47.8989176 L275.938867,47.9039723 L280.845556,47.9039723 C282.799295,47.9039723 284.398143,46.3749756 284.499261,44.4503498 L284.504339,44.2566105 L284.504339,28.318942 Z M107.4419,15.2624723 L93.0354424,15.2624723 L93.0354424,46.5993891 L107.4419,46.5993891 L107.4419,15.2624723 Z M249.964558,15.2624723 L235.5581,15.2624723 L235.5581,46.5993891 L249.964558,46.5993891 L249.964558,15.2624723 Z M139.363473,19.178827 L132.37694,19.178827 L132.37694,30.5876879 C132.37694,31.7383437 133.313414,32.6718947 134.467673,32.6718947 L137.27274,32.6718947 C138.426999,32.6718947 139.363473,31.7383437 139.363473,30.5876879 L139.363473,19.178827 Z M210.624149,19.178827 L203.637616,19.178827 L203.637616,30.5876879 C203.637616,31.6883152 204.494428,32.5903059 205.579087,32.6666593 L205.728349,32.6718947 L208.533416,32.6718947 C209.637489,32.6718947 210.542304,31.8177573 210.618897,30.7364833 L210.624149,30.5876879 L210.624149,19.178827 Z" id="Combined-Shape" fill="#00576E" fill-rule="nonzero"></path>
                </g>
            </g>
            <g filter="url(#filter-5)" id="building-4">
                <g filter="url(#filter-6)" transform="translate(400.000000, 351.500000) scale(1, -1) translate(-400.000000, -351.500000) translate(331.500000, 286.000000)">
                    <path d="M136,119.112731 L136,128.969411 L130.427,128.969 L130.427127,131 L127.26194,131 L127.261,128.969 L121.066,128.969 L121.066759,131 L117.901573,131 L117.901,128.969 L111.706,128.969 L111.706392,131 L108.541206,131 L108.541,128.969 L102.346,128.969 L102.346025,131 L99.1808385,131 L99.18,128.969 L92.983,128.969 L92.9835114,131 L89.8183253,131 L89.818,128.969 L83.623,128.969 L83.623144,131 L80.4579579,131 L80.457,128.969 L74.262,128.969 L74.2627767,131 L71.0975906,131 L71.097,128.969 L64.9,128.969 L64.9002635,131 L61.7350774,131 L61.735,128.969 L55.539,128.969 L55.5398962,131 L52.3747101,131 L52.374,128.969 L46.179,128.969 L46.1795289,131 L43.0143427,131 L43.014,128.969 L36.817,128.969 L36.8170156,131 L33.6518295,131 L33.651,128.969 L27.456,128.969 L27.4566483,131 L24.2936081,131 L24.293,128.969 L18.098,128.969 L18.0984269,131 L14.9332408,131 L14.933,128.969 L8.738,128.969 L8.73805955,131 L5.57287344,131 L5.572,128.969 L0,128.969411 L0,119.112731 L136,119.112731 Z M129.541518,105.598395 L129.541518,108.67131 L131.067245,110.208848 L131.067,113.219 L132.152421,113.219915 L132.152,115.003 L134.221058,115.003978 L134.221058,117.441117 L1.77894189,117.441117 L1.77894189,115.003978 L3.845,115.003 L3.84543289,113.219915 L4.62,113.219 L4.62074254,110.208848 L6.14646954,108.67131 L6.14646954,105.598395 L129.541518,105.598395 Z M47.0865961,23.8249249 L47.086,67.74 L48.2524575,67.7403513 L48.252,68.52 L48.4297079,68.5203655 L47.1872383,71.4116296 L47.086,71.411 L47.0865961,72.4812027 C47.0865961,84.6431097 56.9598309,94.5927779 69.02831,94.5927779 C81.0967891,94.5927779 90.9700238,84.6431097 90.9700238,72.4812027 L90.97,71.411 L90.7215299,71.4116296 L89.5348533,68.5203655 L89.702,68.52 L89.7024473,67.7403513 L90.97,67.74 L90.9700238,23.8249249 L130.679698,23.8249249 L130.679,67.74 L131.948562,67.7403513 L131.948562,68.7242893 L131.65,68.724 L131.650069,71.4116296 L130.679,71.411 L130.679,96.306 L132.153923,99.9503747 L129.815,99.95 L129.815,101.663 L130.467898,101.663508 L130.467898,104.470435 L5.52995566,104.470435 L5.52995566,101.663508 L6.298,101.663 L6.298,99.95 L3.84693501,99.9503747 L5.13661423,96.0881475 L5.149,96.088 L5.149,71.411 L4.2758982,71.4116296 L4.275,68.724 L3.96560266,68.7242893 L3.96560266,67.7403513 L5.149,67.74 L5.14948956,23.8249249 L47.0865961,23.8249249 Z M50.3575745,0 L50.3575745,9.85668064 L49.718,9.856 L49.7180996,11.8440193 L48.975,11.844 L48.9756221,13.6280828 L48.699,13.628 L48.699017,16.6385008 L48.1518153,18.1760392 L48.1518153,21.2489534 L3.86710636,21.2489534 L3.86710636,18.1760392 L3.3199047,16.6385008 L3.319,13.628 L2.92913833,13.6280828 L2.929,11.844 L2.18880666,11.8440193 L2.188,9.856 L1.54933178,9.85668064 L1.54933178,0 L50.3575745,0 Z M134.272559,0 L134.272559,9.85668064 L133.667,9.856 L133.667419,11.8440193 L132.961,11.844 L132.961421,13.6280828 L132.694,13.628 L132.694258,16.6385008 L132.170661,18.1760392 L132.170661,21.2489534 L89.997507,21.2489534 L89.997507,18.1760392 L89.476056,16.6385008 L89.476,13.628 L89.1058901,13.6280828 L89.105,11.844 L88.3998927,11.8440193 L88.399,9.856 L87.7904603,9.85668064 L87.7904603,0 L134.272559,0 Z" id="Combined-Shape" fill="#00576E" fill-rule="nonzero"></path>
                </g>
            </g>
            <g filter="url(#filter-7)" id="building-2">
                <g filter="url(#filter-8)" transform="translate(21.500000, 208.500000) scale(1, -1) translate(-21.500000, -208.500000) ">
                    <path d="M27.6980573,359.106093 L27.6980573,362.296522 L27.135,362.296 L27.1356602,363.491847 L25.419,363.491 L24.6230046,373.13671 C26.2171657,374.636747 27.2776257,377.100098 27.3435307,379.902366 L27.3467896,380.179879 C27.3467896,383.776884 25.7085206,386.857303 23.3844427,388.130679 L23.0121208,392.644695 C24.6557965,393.672169 25.7958182,395.920489 25.7958182,398.527891 C25.7958182,401.640919 24.1707825,404.242095 22.0037218,404.864816 L21.0013829,417 L19.9995051,404.864816 C17.8324443,404.242095 16.2074086,401.640919 16.2074086,398.527891 C16.2074086,395.921016 17.3469699,393.673077 18.9901104,392.645318 L18.6172718,388.129576 C16.2946294,386.855526 14.6559763,383.775846 14.6559763,380.179879 C14.6559763,377.26349 15.7337974,374.686687 17.3801791,373.137265 L16.583,363.491 L14.8689496,363.491847 L14.868,362.296 L14.3019427,362.296522 L14.3019427,359.106093 L27.6980573,359.106093 Z M29.3921633,353.67932 L29.3921633,356.608951 L12.6124465,356.608951 L12.6124465,353.67932 L29.3921633,353.67932 Z M39.2324992,0 L37.549,57.28 L40.0707935,57.2801625 L40.07,62.93 L42,62.9307869 L42,67.5208326 L37.249,67.52 L34.05,176.388 L35.811327,176.388805 L35.811327,179.474916 L33.96,179.474 L28.8926902,351.983915 L13.1109977,351.983915 L8.043,179.474 L6.18867303,179.474916 L6.18867303,176.388805 L7.952,176.388 L4.754,67.52 L0,67.5208326 L0,62.9307869 L1.931,62.93 L1.93151136,57.2801625 L4.454,57.28 L2.77118867,0 L39.2324992,0 Z" id="Combined-Shape" fill="#00576E" fill-rule="nonzero"></path>
                </g>
            </g>
            <g filter="url(#filter-9)" id="building-5">
                <g filter="url(#filter-10)" transform="translate(904.750000, 324.500000) scale(1, -1) translate(-904.750000, -324.500000) translate(862.250000, 232.000000)">
                    <path d="M84,156.638924 L84,164.022027 L72.123,164.022 L72.1237785,170.818379 L69.863,170.818 L69.8631922,177.655869 L62.186,177.655 L62.1867535,185 L19.9652552,185 L19.965,177.655 L7.00977199,177.655869 L7.009,170.818 L2.72095548,170.818379 L2.72,164.022 L0,164.022027 L0,156.638924 L84,156.638924 Z M20.295114,140.88087 L20.295114,143.515836 C20.295114,146.798076 21.2951868,148.257708 21.8009379,148.786009 L23.2812161,148.785987 L23.281,151.797 L24.4733985,151.797686 L24.4733985,154.681644 L5.9630836,154.681644 L5.9630836,151.797686 L7.157,151.797 L7.15743757,148.785987 L8.83706428,148.786009 C9.34281537,148.257708 10.3428882,146.798076 10.3428882,143.515836 L10.3428882,143.515836 L10.3428882,140.88087 L20.295114,140.88087 Z M47.0747014,140.88087 L47.0747014,143.515836 C47.0747014,146.798076 48.0747742,148.257708 48.5805253,148.786009 L50.0608035,148.785987 L50.06,151.797 L51.2551574,151.797686 L51.2551574,154.681644 L32.742671,154.681644 L32.742671,151.797686 L33.937,151.797 L33.937025,148.785987 L35.6166517,148.786009 C36.1224028,148.257708 37.1224756,146.798076 37.1224756,143.515836 L37.1224756,143.515836 L37.1224756,140.88087 L47.0747014,140.88087 Z M73.8564604,140.88087 L73.8564604,143.515836 C73.8564604,146.798076 74.855321,148.257708 75.360459,148.786009 L76.8425624,148.785987 L76.842,151.797 L78.0369164,151.797686 L78.0369164,154.681644 L59.52443,154.681644 L59.52443,151.797686 L60.718,151.797 L60.7187839,148.785987 L62.3980643,148.786009 C62.9032024,148.257708 63.902063,146.798076 63.902063,143.515836 L63.902063,143.515836 L63.902063,140.88087 L73.8564604,140.88087 Z M21.6456026,0 L20.1950054,137.06374 L10.342671,137.06374 L8.89207383,0 L21.6456026,0 Z M48.42519,0 L46.9745928,137.06374 L37.1222584,137.06374 L35.6716612,0 L48.42519,0 Z M75.206949,0 L73.7541802,137.06374 L63.9018458,137.06374 L62.4512486,0 L75.206949,0 Z" id="Combined-Shape" fill="#00576E" fill-rule="nonzero"></path>
                </g>
            </g>
        </g>
    </g>
</svg>