<?xml version="1.0" encoding="UTF-8"?>
<svg width="224px" height="24px" viewBox="0 0 224 24" version="1.1" xmlns="http://www.w3.org/2000/svg" xmlns:xlink="http://www.w3.org/1999/xlink">
    <title>Group 27</title>
    <g id="Web" stroke="none" stroke-width="1" fill="none" fill-rule="evenodd">
        <g id="M---Code-of-Conduct-Copy" transform="translate(-118.000000, -31.000000)" fill="#E8473B">
            <g id="Group-27" transform="translate(118.000000, 31.000000)">
                <polygon id="Fill-1" points="0 1.39526963 0 19.1089246 18.2100713 19.1089246 18.2100713 14.908357 5.55546286 14.908357 5.55546286 11.9730054 16.4096424 11.9730054 16.4096424 8.25335856 5.55546286 8.25335856 5.55546286 5.59615263 18.2100713 5.59615263 18.2100713 1.39526963"></polygon>
                <g id="Group-26" transform="translate(21.090437, 0.000000)">
                    <path d="M22.9940133,6.57041943 C22.1875545,6.12355724 21.2275608,5.89965311 20.1133911,5.89965311 C18.7758105,5.89965311 17.6866424,6.18662882 16.8465276,6.7602649 C16.0064129,7.33390098 15.3977224,8.23645538 15.0204561,9.4679281 L14.634856,9.4679281 C14.5319651,8.81009145 14.2787448,8.21122674 13.8761564,7.67101861 C13.472927,7.13144119 12.9200091,6.70129297 12.2170821,6.38025859 C11.5138346,6.06017029 10.6823743,5.89965311 9.72238054,5.89965311 C8.43608511,5.89965311 7.38185493,6.18252917 6.55872843,6.74765058 C5.73560192,7.312772 5.13524524,8.20271208 4.75797892,9.41715547 L4.29513053,9.41715547 L4.88683284,6.22857143 L0,6.22857143 L0,19.1090508 L4.88683284,19.1090508 L4.88683284,12.8078839 C4.88683284,11.9138442 5.13107832,11.214065 5.61988982,10.7076001 C6.10838078,10.201766 6.76418952,9.94853359 7.58763656,9.94853359 C8.13606703,9.94853359 8.6165447,10.0585935 9.02778742,10.2774519 C9.43935067,10.496941 9.75635695,10.8258594 9.97944731,11.2645222 C10.2022171,11.7031851 10.3137623,12.2175339 10.3137623,12.8078839 L10.3137623,19.1090508 L15.2009157,19.1090508 L15.2009157,12.8078839 C15.2009157,11.9138442 15.4448406,11.214065 15.9336521,10.7076001 C16.4224636,10.201766 17.0782724,9.94853359 17.9010783,9.94853359 C18.4498294,9.94853359 18.9299865,10.0585935 19.3415497,10.2774519 C19.753113,10.496941 20.0656318,10.8258594 20.2803883,11.2645222 C20.4945038,11.7031851 20.6018821,12.2175339 20.6018821,12.8078839 L20.6018821,19.1090508 L25.5143575,19.1090508 L25.5143575,11.6946705 C25.5143575,10.4635131 25.2960751,9.41337118 24.8585487,8.54424472 C24.4213429,7.67543362 23.7998311,7.01759697 22.9940133,6.57041943" id="Fill-2"></path>
                    <path d="M41.4480737,14.212299 C41.1304264,14.6768212 40.6637316,15.0391675 40.0463867,15.3005992 C39.4290418,15.5623463 38.6655343,15.6925891 37.7571463,15.6925891 C36.8827346,15.6925891 36.1368563,15.5623463 35.5195115,15.3005992 C34.9021666,15.0391675 34.4348307,14.6768212 34.1178245,14.212299 C33.8004977,13.7484074 33.6418343,13.2381583 33.6418343,12.6815516 C33.6418343,12.1082308 33.8004977,11.589467 34.1178245,11.1252602 C34.4348307,10.6613687 34.9021666,10.2990224 35.5195115,10.0372753 C36.1368563,9.77584358 36.8827346,9.64497004 37.7571463,9.64497004 C38.6655343,9.64497004 39.4290418,9.77584358 40.0463867,10.0372753 C40.6637316,10.2990224 41.1304264,10.6613687 41.4480737,11.1252602 C41.76508,11.589467 41.9237434,12.1082308 41.9237434,12.6815516 C41.9237434,13.2381583 41.76508,13.7484074 41.4480737,14.212299 M43.441463,6.74746137 C42.3612698,6.18233996 41.1089507,5.89977925 39.6861086,5.89977925 C38.5196922,5.89977925 37.5129008,6.04326711 36.6638112,6.32992747 C35.8153626,6.61690319 35.116282,7.03033743 34.5678516,7.56991485 C34.01878,8.10980763 33.6072168,8.79318827 33.3334823,9.61974141 L32.8446708,9.61974141 C33.0504525,8.86035951 33.2174497,8.09309366 33.3463036,7.31699779 C33.474837,6.54121728 33.5389434,5.75660675 33.5389434,4.96348155 L33.5389434,1.39520656 L28.6521106,1.39520656 L28.6521106,19.1088616 L33.5389434,19.1088616 L32.8446708,15.7433617 L33.3334823,15.7433617 C33.6072168,16.5532009 34.01878,17.2280669 34.5678516,17.7676443 C35.116282,18.3078524 35.8153626,18.7257017 36.6638112,19.020246 C37.5129008,19.315421 38.5196922,19.4630085 39.6861086,19.4630085 C41.1089507,19.4630085 42.3612698,19.1760328 43.441463,18.6030274 C44.5216563,18.0293914 45.3531167,17.2324819 45.9361646,16.2116682 C46.518892,15.19117 46.8105762,14.0142542 46.8105762,12.6815516 C46.8105762,11.3318196 46.518892,10.1470199 45.9361646,9.12620624 C45.3531167,8.10570798 44.5216563,7.31289814 43.441463,6.74746137" id="Fill-4"></path>
                    <path d="M55.2597391,9.7461684 C55.9540117,9.45950804 56.815602,9.31602018 57.8441896,9.31602018 C58.890086,9.31602018 59.7561638,9.45950804 60.4421025,9.7461684 C61.1280413,10.0331441 61.6421748,10.425134 61.9851442,10.9227688 C62.0918814,11.0776096 62.1761813,11.2441186 62.2495832,11.416304 L53.4583485,11.416304 C53.5301477,11.2441186 53.6122039,11.0776096 53.7163769,10.9227688 C54.0510124,10.425134 54.5651459,10.0331441 55.2597391,9.7461684 M62.8085912,6.7978871 C61.4367137,6.19933775 59.7818063,5.89974771 57.8441896,5.89974771 C55.9238816,5.89974771 54.2734617,6.19933775 52.8932504,6.7978871 C51.513039,7.39706717 50.4754765,8.21132135 49.7812039,9.24001892 C49.0866108,10.2690319 48.7394745,11.416304 48.7394745,12.68152 C48.7394745,13.946736 49.0866108,15.0895932 49.7812039,16.1104068 C50.4754765,17.1312204 51.5043846,17.9448439 52.8676078,18.5522233 C54.2308309,19.1596026 55.872276,19.462977 57.7929045,19.462977 C59.593654,19.462977 61.1238744,19.2229896 62.3842067,18.7420687 C63.6442185,18.2611479 64.617354,17.6711132 65.3032928,16.9707032 C65.988911,16.2706086 66.4607343,15.566099 66.7178011,14.8578051 L62.0111073,14.8578051 C61.6165322,15.1952381 61.1193869,15.4736991 60.5193508,15.6925576 C59.9189941,15.912362 59.0359281,16.0214759 57.8704733,16.0214759 C56.8415651,16.0214759 55.9751668,15.8827184 55.2725603,15.6042573 C54.5693129,15.3257963 54.0510124,14.933491 53.7163769,14.4276569 C53.6154092,14.2750237 53.5349557,14.113245 53.4644386,13.946736 L66.8722976,13.946736 C66.9405709,13.5083885 66.9751884,13.1034689 66.9751884,12.7322927 C66.9751884,11.4500473 66.6235646,10.2901608 65.9206377,9.2529486 C65.2170697,8.215421 64.1801482,7.39706717 62.8085912,6.7978871" id="Fill-6"></path>
                    <path d="M82.8574592,6.6461684 C81.9400963,6.14884894 80.829773,5.89971618 79.5264893,5.89971618 C78.6174602,5.89971618 77.8074755,6.03878903 77.0958942,6.31725008 C76.3846334,6.59571113 75.7801098,7.0217597 75.2826439,7.59508042 C74.7851781,8.16871649 74.4168867,8.86912646 74.1768081,9.69536424 L73.6883171,9.69536424 L74.3309841,6.2286345 L69.4441512,6.2286345 L69.4441512,19.1091138 L74.3309841,19.1091138 L74.3309841,13.440555 C74.3309841,12.3273415 74.609847,11.4837591 75.1672524,10.910123 C75.7240167,10.3368023 76.500025,10.0498266 77.4949567,10.0498266 C78.1632662,10.0498266 78.7334928,10.1725008 79.2049956,10.4165878 C79.6764984,10.6613056 80.0412639,11.0154525 80.2983307,11.4793441 C80.5553975,11.9438663 80.6842514,12.5130874 80.6842514,13.187638 L80.6842514,13.3140965 L85.6736545,13.3140965 L85.6736545,12.7827184 C85.6736545,11.230842 85.4335759,9.944497 84.9537393,8.92368338 C84.4732617,7.90318512 83.7745016,7.14411857 82.8574592,6.6461684" id="Fill-8"></path>
                    <path d="M96.4415467,1.17751498 C95.6360495,1.96244087 95.2334612,3.12453485 95.2334612,4.66442763 L95.2334612,8.46795963 C95.2334612,9.1324188 95.0683871,9.61933144 94.7388801,9.92838221 C94.408732,10.2377483 93.8833798,10.3925891 93.1625031,10.3925891 L93.1625031,13.6076632 C93.8833798,13.6076632 94.408732,13.7625039 94.7388801,14.0718701 C95.0683871,14.3812362 95.2334612,14.8678335 95.2334612,15.5322927 L95.2334612,19.3358247 C95.2334612,20.3468622 95.4097538,21.2036897 95.7629802,21.9056764 C96.1155656,22.6073478 96.6447641,23.1317881 97.3505759,23.4793125 C98.0560671,23.8262062 98.9307993,23.9999685 99.9741313,23.9999685 L103.518255,23.9999685 L103.518255,20.2869442 L101.14792,20.2869442 C100.549487,20.2869442 100.108114,20.1507096 99.8247634,19.8791864 C99.5404514,19.6073478 99.3990967,19.169631 99.3990967,18.566036 L99.3990967,14.9662252 C99.3990967,14.4225481 99.2837051,13.9435194 99.0535631,13.528193 C98.8237415,13.1134973 98.4859007,12.7924629 98.0410021,12.566036 C97.5961035,12.339609 97.0745977,12.2191422 96.4761642,12.2036897 L96.4761642,11.7962472 C97.396412,11.7814254 98.1137629,11.5247241 98.6278964,11.0261432 C99.1417094,10.528193 99.3990967,9.86436455 99.3990967,9.03402712 L99.3990967,5.43390098 C99.3990967,4.8303059 99.5404514,4.39227373 99.8247634,4.12075055 C100.108114,3.84922737 100.549487,3.7133081 101.14792,3.7133081 L103.518255,3.7133081 L103.518255,0.000283822138 L99.9741313,0.000283822138 C98.424679,0.000283822138 97.2473645,0.392904447 96.4415467,1.17751498" id="Fill-10"></path>
                    <path d="M108.016699,1.17751498 C107.211202,1.96244087 106.808614,3.12453485 106.808614,4.66442763 L106.808614,8.46795963 C106.808614,9.1324188 106.64354,9.61933144 106.314032,9.92838221 C105.983884,10.2377483 105.458532,10.3925891 104.737655,10.3925891 L104.737655,13.6076632 C105.458532,13.6076632 105.983884,13.7625039 106.314032,14.0718701 C106.64354,14.3812362 106.808614,14.8678335 106.808614,15.5322927 L106.808614,19.3358247 C106.808614,20.3468622 106.984906,21.2036897 107.338133,21.9056764 C107.690718,22.6073478 108.219917,23.1317881 108.925728,23.4793125 C109.631219,23.8262062 110.505952,23.9999685 111.549284,23.9999685 L115.093407,23.9999685 L115.093407,20.2869442 L112.723072,20.2869442 C112.124639,20.2869442 111.683266,20.1507096 111.399916,19.8791864 C111.115604,19.6073478 110.974249,19.169631 110.974249,18.566036 L110.974249,14.9662252 C110.974249,14.4225481 110.858858,13.9435194 110.628715,13.528193 C110.398894,13.1134973 110.061053,12.7924629 109.616154,12.566036 C109.171256,12.339609 108.64975,12.2191422 108.051317,12.2036897 L108.051317,11.7962472 C108.971564,11.7814254 109.688915,11.5247241 110.203049,11.0261432 C110.716862,10.528193 110.974249,9.86436455 110.974249,9.03402712 L110.974249,5.43390098 C110.974249,4.8303059 111.115604,4.39227373 111.399916,4.12075055 C111.683266,3.84922737 112.124639,3.7133081 112.723072,3.7133081 L115.093407,3.7133081 L115.093407,0.000283822138 L111.549284,0.000283822138 C109.999831,0.000283822138 108.822517,0.392904447 108.016699,1.17751498" id="Fill-12"></path>
                    <path d="M121.387344,7.69407127 C121.241502,7.54333018 121.168421,7.36231473 121.168421,7.15070956 C121.168421,6.80381583 121.383177,6.52472406 121.813011,6.31311889 C122.242524,6.10182908 123.009878,5.99618417 124.114432,5.99618417 C125.173149,5.99618417 125.924477,6.11318196 126.369696,6.34717755 C126.814594,6.58148849 127.037044,6.86436455 127.037044,7.1961211 L127.037044,7.28662882 L131.432501,7.28662882 L131.432501,7.1961211 C131.432501,6.35096184 131.186653,5.59977925 130.695918,4.94320404 C130.204863,4.28662882 129.418918,3.77007253 128.337442,3.39227373 C127.255647,3.01510564 125.878641,2.82620624 124.206424,2.82620624 C121.521327,2.82620624 119.642047,3.0866919 118.568264,3.60734784 C117.494161,4.12800378 116.95759,4.80381583 116.95759,5.63383791 C116.95759,6.26802271 117.222029,6.77354147 117.751228,7.15070956 C118.280747,7.52850836 119.051627,7.72466099 120.064188,7.73979817 L120.064188,8.14724062 L115.92163,8.14724062 L115.92163,11.3169032 L119.120541,11.3169032 L119.120541,19.1056134 L123.49292,19.1056134 L123.49292,11.3169032 L129.246472,11.3169032 L129.246472,8.05641753 L121.928082,8.05641753 C121.713326,7.96590981 121.532866,7.84512772 121.387344,7.69407127" id="Fill-14"></path>
                    <path d="M136.529346,10.7281615 C137.150537,10.4717755 137.921738,10.3431094 138.842306,10.3431094 C139.777939,10.3431094 140.552666,10.4717755 141.166485,10.7281615 C141.779983,10.9848628 142.239947,11.3361716 142.547016,11.7811416 C142.642535,11.9195837 142.71786,12.0684327 142.783569,12.2223273 L134.918031,12.2223273 C134.982138,12.0684327 135.055539,11.9195837 135.148494,11.7811416 C135.447871,11.3361716 135.908155,10.9848628 136.529346,10.7281615 M143.283599,8.09050773 C142.055961,7.5547146 140.575744,7.28666036 138.842306,7.28666036 C137.123613,7.28666036 135.646921,7.5547146 134.412232,8.09050773 C133.177221,8.62630085 132.24896,9.35509303 131.627769,10.2753075 C131.006578,11.1961526 130.695661,12.2223273 130.695661,13.3544623 C130.695661,14.4865973 131.006578,15.5093031 131.627769,16.4225796 C132.24896,17.3358562 133.169528,18.0640177 134.389153,18.6073794 C135.608778,19.1507411 137.077777,19.4222643 138.796149,19.4222643 C140.407144,19.4222643 141.776137,19.2075055 142.904089,18.7770419 C144.031401,18.3468937 144.901966,17.8186692 145.515785,17.1923683 C146.129283,16.5660675 146.551745,15.935667 146.781566,15.3017975 L142.570415,15.3017975 C142.217189,15.6039104 141.77229,15.8530432 141.235719,16.0488805 C140.698508,16.2450331 139.908396,16.3434248 138.865064,16.3434248 C137.944816,16.3434248 137.169769,16.218543 136.540885,15.9697256 C135.911681,15.7205929 135.447871,15.3695995 135.148494,14.9167455 C135.058424,14.7801955 134.986305,14.6354462 134.92316,14.4865973 L146.919716,14.4865973 C146.980617,14.094292 147.011708,13.7319458 147.011708,13.3998739 C147.011708,12.2529171 146.697266,11.2150741 146.068382,10.2866604 C145.438857,9.35824661 144.510917,8.62630085 143.283599,8.09050773" id="Fill-16"></path>
                    <path d="M163.005492,13.3883948 C162.299681,12.8980132 161.467259,12.5848628 160.508868,12.4489436 C159.549836,12.3130243 158.334057,12.2225166 156.861212,12.177105 C156.032636,12.147146 155.384521,12.1093031 154.916864,12.0642069 C154.448567,12.0187953 154.06489,11.9393251 153.766154,11.826427 C153.466777,11.7132135 153.317088,11.5284137 153.317088,11.271397 C153.317088,10.9699149 153.539538,10.7280353 153.984436,10.5470199 C154.429335,10.3660044 155.234832,10.2754967 156.401248,10.2754967 C157.459325,10.2754967 158.226679,10.4038474 158.702028,10.6602334 C159.177698,10.9169347 159.438611,11.2641438 159.484767,11.7015453 L163.949139,11.7015453 C163.903303,10.8718385 163.611619,10.1244402 163.074727,9.46029644 C162.537515,8.79615263 161.713107,8.26824346 160.60086,7.87562283 C159.488293,7.48300221 158.08853,7.28653422 156.401248,7.28653422 C153.731216,7.28653422 151.8061,7.63405866 150.624618,8.32816146 C149.443137,9.02257963 148.852717,9.91283507 148.852717,10.9998739 C148.852717,11.9812677 149.201776,12.7132135 149.899575,13.1963418 C150.597694,13.6794702 151.422102,13.988521 152.373762,14.1244402 C153.324781,14.2603595 154.521327,14.3508672 155.963722,14.3959634 C156.822748,14.441375 157.485929,14.4864711 157.954227,14.5318827 C158.422203,14.5772942 158.813253,14.667802 159.128015,14.8034059 C159.442457,14.9396405 159.599839,15.1357931 159.599839,15.3921791 C159.599839,15.694292 159.369376,15.9437401 158.909412,16.1395774 C158.449128,16.3360454 157.61286,16.4338064 156.401248,16.4338064 C155.234832,16.4338064 154.410423,16.2982025 153.927061,16.0260486 C153.443698,15.7545254 153.202017,15.3921791 153.202017,14.9396405 L153.202017,14.8488174 L148.737646,14.8488174 L148.737646,15.0074424 C148.737646,16.3360454 149.343451,17.4038474 150.555704,18.2111637 C151.767315,19.0187953 153.716151,19.4224535 156.401248,19.4224535 C159.162633,19.4224535 161.130059,19.0752444 162.303848,18.3808262 C163.477636,17.6870388 164.06421,16.758625 164.06421,15.5962157 C164.06421,14.6151372 163.710984,13.8794071 163.005492,13.3883948" id="Fill-18"></path>
                    <path d="M175.731644,14.0111006 C175.731644,14.5396405 175.516567,14.9697887 175.087054,15.3018606 C174.65754,15.6339325 174.020643,15.7998108 173.177003,15.7998108 C172.317976,15.7998108 171.677553,15.5960896 171.255412,15.1883318 C170.833592,14.7808893 170.623003,14.1697256 170.623003,13.3545254 C170.623003,12.7206559 170.733907,12.2113529 170.956677,11.8263009 C171.178805,11.4415642 171.481708,11.1583728 171.865385,10.9773573 L179.11454,10.9773573 L179.11454,7.71687165 L172.717039,7.71687165 L172.717039,4.8641438 L169.127079,4.8641438 L169.127079,6.51693472 C169.127079,7.00037843 169.019701,7.35105645 168.804944,7.5695995 C168.589867,7.78877326 168.221255,7.8978871 167.70007,7.8978871 L165.122671,7.8978871 L165.122671,10.9773573 L169.88642,10.9773573 L169.88642,11.3847997 C169.24215,11.4298959 168.658782,11.615011 168.137596,11.9395143 C167.61577,12.264333 167.201643,12.6979502 166.894893,13.2416272 C166.587824,13.7846736 166.434289,14.4037212 166.434289,15.097824 C166.434289,15.9130243 166.672124,16.6456008 167.147793,17.2939767 C167.623142,17.9432986 168.363572,18.4601703 169.36844,18.8452223 C170.372987,19.229959 171.642936,19.4223273 173.177003,19.4223273 C174.726455,19.4223273 176.019161,19.1996846 177.0548,18.7543992 C178.09044,18.3094292 178.861319,17.6903816 179.36776,16.8978871 C179.87388,16.105708 180.127101,15.1738253 180.127101,14.1016083 L180.127101,13.7168716 L175.731644,13.7168716 L175.731644,14.0111006 Z" id="Fill-20"></path>
                    <path d="M189.262875,8.46799117 L189.262875,4.6641438 C189.262875,3.65279092 189.086262,2.79627878 188.733677,2.09429202 C188.38045,1.39230527 187.847406,0.868180385 187.133901,0.520971302 C186.420717,0.17376222 185.549831,0 184.522205,0 L180.978081,0 L180.978081,3.71333964 L183.348417,3.71333964 C183.94685,3.71333964 184.384056,3.84925891 184.660355,4.12078209 C184.936333,4.39230527 185.074162,4.83033743 185.074162,5.43393251 L185.074162,9.03405866 C185.074162,9.57742037 185.193079,10.0567644 185.431234,10.4717755 C185.668749,10.8871019 186.00659,11.2078209 186.443795,11.4339325 C186.881001,11.6603595 187.398981,11.781457 187.997094,11.7962788 L187.997094,12.2037212 C187.091911,12.2191738 186.378407,12.4755598 185.856901,12.9735099 C185.335075,13.4714601 185.074162,14.1362346 185.074162,14.9659413 L185.074162,18.5660675 C185.074162,19.1696626 184.936333,19.6073794 184.660355,19.8792179 C184.384056,20.1507411 183.94685,20.2869757 183.348417,20.2869757 L180.978081,20.2869757 L180.978081,24 L184.522205,24 C186.087043,24 187.268204,23.6073794 188.066329,22.8227688 C188.863813,22.0375276 189.262875,20.8754336 189.262875,19.3358562 L189.262875,15.5320088 C189.262875,14.867865 189.423783,14.3812677 189.746238,14.0719016 C190.068373,13.7625355 190.597571,13.6076947 191.334154,13.6076947 L191.334154,10.3926206 C190.597571,10.3926206 190.068373,10.2377799 189.746238,9.92841375 C189.423783,9.61904762 189.262875,9.13213497 189.262875,8.46799117" id="Fill-22"></path>
                    <path d="M201.321647,9.92838221 C200.999191,9.61933144 200.838284,9.1324188 200.838284,8.46795963 L200.838284,4.66442763 C200.838284,3.65307474 200.661671,2.79624724 200.309086,2.09426049 C199.955859,1.39258909 199.422814,0.868464207 198.70963,0.520939767 C197.996126,0.173730684 197.12524,0.000283822138 196.097614,0.000283822138 L192.553811,0.000283822138 L192.553811,3.7133081 L194.923825,3.7133081 C195.522259,3.7133081 195.959465,3.84922737 196.235763,4.12075055 C196.511742,4.39227373 196.649891,4.8303059 196.649891,5.43390098 L196.649891,9.03402712 C196.649891,9.57738884 196.768488,10.0567329 197.006643,10.4717439 C197.244157,10.8870703 197.581998,11.2077893 198.019204,11.433901 C198.456731,11.660328 198.97439,11.7814254 199.572503,11.7962472 L199.572503,12.2036897 C198.66732,12.2191422 197.953816,12.4755282 197.43231,12.9734784 C196.910484,13.4714286 196.649891,14.1362031 196.649891,14.9662252 L196.649891,18.566036 C196.649891,19.169631 196.511742,19.6073478 196.235763,19.8791864 C195.959465,20.1507096 195.522259,20.2869442 194.923825,20.2869442 L192.553811,20.2869442 L192.553811,23.9999685 L196.097614,23.9999685 C197.662452,23.9999685 198.843933,23.6073478 199.641738,22.8227373 C200.439222,22.0374961 200.838284,20.8754021 200.838284,19.3358247 L200.838284,15.5322927 C200.838284,14.8678335 200.999191,14.3812362 201.321647,14.0718701 C201.643781,13.7625039 202.17298,13.6076632 202.909563,13.6076632 L202.909563,10.3925891 C202.17298,10.3925891 201.643781,10.2377483 201.321647,9.92838221" id="Fill-24"></path>
                </g>
            </g>
        </g>
    </g>
</svg>