<?xml version="1.0" encoding="UTF-8"?>
<svg width="650px" height="287px" viewBox="0 0 650 287" version="1.1" xmlns="http://www.w3.org/2000/svg" xmlns:xlink="http://www.w3.org/1999/xlink">
    <title>Group 28</title>
    <g id="Web" stroke="none" stroke-width="1" fill="none" fill-rule="evenodd">
        <g id="DT---Home-/-step-1-Copy" transform="translate(-431.000000, -229.000000)" fill="#EA473B">
            <g id="Group-28" transform="translate(431.000000, 229.000000)">
                <polygon id="Fill-1" points="14.0948188 0.000946908338 14.0948188 106.37663 121.947852 106.37663 121.947852 81.1509914 46.998233 81.1509914 46.998233 63.5233458 111.282529 63.5233458 111.282529 41.1838843 46.998233 41.1838843 46.998233 25.226585 121.947852 25.226585 121.947852 0.000946908338"></polygon>
                <g id="Group-27">
                    <path d="M167.949984,68.5370361 C167.949984,63.1680658 169.398478,58.9637928 172.29167,55.924217 C175.186761,52.8846413 179.069029,51.3658003 183.94607,51.3658003 C187.194267,51.3658003 190.039998,52.0248485 192.475671,53.3410511 C194.913242,54.6591475 196.79078,56.6343983 198.113978,59.2668035 C199.431482,61.9029963 200.09403,64.9918113 200.09403,68.5370361 L200.09403,106.375493 L229.03734,106.375493 L229.03734,68.5370361 C229.03734,63.1680658 230.482038,58.9637928 233.377128,55.924217 C236.272219,52.8846413 240.156386,51.3658003 245.031528,51.3658003 C248.279725,51.3658003 251.125456,52.0248485 253.563028,53.3410511 C255.9987,54.6591475 257.84966,56.6343983 259.121601,59.2668035 C260.389746,61.9029963 261.025716,64.9918113 261.025716,68.5370361 L261.025716,106.375493 L290.1209,106.375493 L290.1209,61.8518632 C290.1209,54.4565091 288.828076,48.1500996 286.238631,42.9307408 C283.647288,37.7151697 279.966252,33.7646681 275.193624,31.0792361 C270.419098,28.3956978 264.731432,27.051088 258.132524,27.051088 C250.210418,27.051088 243.761485,28.7744612 238.785727,32.2174199 C233.80807,35.6641662 230.20297,41.0842696 227.96853,48.4777299 L225.684731,48.4777299 C225.075338,44.5272283 223.575586,40.9327642 221.191171,37.6886563 C218.802959,34.4483359 215.528184,31.86517 211.364949,29.9372646 C207.199816,28.0150407 202.275315,27.051088 196.589547,27.051088 C188.971188,27.051088 182.727285,28.7479477 177.852142,32.1416672 C172.977,35.5372805 169.421259,40.8797374 167.188718,48.1747192 L164.445501,48.1747192 L167.949984,29.0263388 L139.006674,29.0263388 L139.006674,106.375493 L167.949984,106.375493 L167.949984,68.5370361 Z" id="Fill-2"></path>
                    <path d="M341.076959,58.4318197 C342.954496,55.6460154 345.722393,53.47002 349.378749,51.8981522 C353.035106,50.3281781 357.452729,49.5422442 362.631619,49.5422442 C368.011741,49.5422442 372.533777,50.3281781 376.190134,51.8981522 C379.846491,53.47002 382.61059,55.6460154 384.491924,58.4318197 C386.369462,61.2195178 387.311078,64.3348463 387.311078,67.777805 C387.311078,71.1203914 386.369462,74.1845868 384.491924,76.9703911 C382.61059,79.7599831 379.846491,81.9359785 376.190134,83.5059525 C372.533777,85.0778203 368.011741,85.8599666 362.631619,85.8599666 C357.452729,85.8599666 353.035106,85.0778203 349.378749,83.5059525 C345.722393,81.9359785 342.954496,79.7599831 341.076959,76.9703911 C339.197523,74.1845868 338.259704,71.1203914 338.259704,67.777805 C338.259704,64.3348463 339.197523,61.2195178 341.076959,58.4318197 L341.076959,58.4318197 Z M333.536435,86.1667649 L336.431525,86.1667649 C338.052776,91.0281923 340.490347,95.0828538 343.742341,98.3212803 C346.990537,101.565388 351.130991,104.074695 356.156109,105.84352 C361.185023,107.616133 367.14796,108.502439 374.05631,108.502439 C382.485295,108.502439 389.900523,106.779066 396.298198,103.338001 C402.695873,99.895042 407.620374,95.1074734 411.0736,88.9771889 C414.524928,82.8487981 416.254388,75.7810743 416.254388,67.777805 C416.254388,59.6722696 414.524928,52.5572004 411.0736,46.4269158 C407.620374,40.298525 402.695873,35.5374699 396.298198,32.1418566 C389.900523,28.7481371 382.485295,27.0512774 374.05631,27.0512774 C367.14796,27.0512774 361.185023,27.912964 356.156109,29.6344433 C351.130991,31.3578165 346.990537,33.8406102 343.742341,37.0809305 C340.490347,40.3231446 338.052776,44.4270454 336.431525,49.3907389 L333.536435,49.3907389 C334.755221,44.8304283 335.744297,40.2227724 336.507462,35.5620895 C337.268729,30.9033005 337.648413,26.1914846 337.648413,21.4285357 L337.648413,0 L308.705102,0 L308.705102,106.375683 L337.648413,106.375683 L333.536435,86.1667649 Z" id="Fill-4"></path>
                    <path d="M466.294649,50.14997 C470.406627,48.4284906 475.50958,47.5668041 481.601609,47.5668041 C487.796154,47.5668041 492.925684,48.4284906 496.988303,50.14997 C501.050921,51.8733432 504.095987,54.2273573 506.127296,57.2158 C506.75947,58.145664 507.258755,59.1455992 507.695391,60.1796231 L455.627428,60.1796231 C456.050775,59.1455992 456.536771,58.145664 457.153757,57.2158 C459.135708,54.2273573 462.180773,51.8733432 466.294649,50.14997 M452.126741,103.032907 C460.200721,106.680398 469.92253,108.502249 481.297862,108.502249 C491.963185,108.502249 501.026242,107.061055 508.490829,104.172984 C515.953518,101.284914 521.717121,97.741583 525.779739,93.5354162 C529.84046,89.3311432 532.634934,85.1003567 534.157467,80.8468445 L506.281068,80.8468445 C503.944113,82.8732283 500.999664,84.5454685 497.445822,85.8597772 C493.890081,87.1797674 488.659935,87.835028 481.75728,87.835028 C475.663352,87.835028 470.531923,87.0017487 466.370586,85.3295086 C462.205453,83.6572684 459.135708,81.3013605 457.153757,78.2636785 C456.555755,77.3470713 456.079252,76.3755433 455.661599,75.3756081 L535.072505,75.3756081 C535.476868,72.7432029 535.681898,70.3115423 535.681898,68.0825201 C535.681898,60.3822615 533.599331,53.4168038 529.436096,47.1880407 C525.269065,40.9573839 519.127676,36.0429296 511.004337,32.4446779 C502.8791,28.8502138 493.077558,27.051088 481.601609,27.051088 C470.228175,27.051088 460.453211,28.8502138 452.278615,32.4446779 C444.104019,36.0429296 437.958833,40.9327642 433.846856,47.1103942 C429.73298,53.289918 427.676991,60.1796231 427.676991,67.7776156 C427.676991,75.3756081 429.73298,82.2387997 433.846856,88.3690843 C437.958833,94.4993689 444.052761,99.3854159 452.126741,103.032907" id="Fill-7"></path>
                    <path d="M614.589912,60.5583864 C616.114343,63.3479784 616.87561,66.7644237 616.87561,70.8171914 L616.87561,71.5766119 L646.428313,71.5766119 L646.428313,68.3855308 C646.428313,59.0660589 645.006396,51.3411807 642.164462,45.2108961 C639.31873,39.0825053 635.180175,34.5240886 629.748795,31.5337521 C624.313619,28.5472032 617.737492,27.051088 610.020415,27.051088 C604.636496,27.051088 599.839189,27.8862612 595.624697,29.5585013 C591.410205,31.2307414 587.829785,33.7892877 584.885335,37.2322465 C581.938988,40.677099 579.757703,44.8832658 578.333888,49.8450655 L575.440696,49.8450655 L579.248927,29.0263388 L550.305616,29.0263388 L550.305616,106.375493 L579.248927,106.375493 L579.248927,72.3360323 C579.248927,65.6508595 580.898654,60.5848999 584.200006,57.1400473 C587.49946,53.6970886 592.095534,51.9737155 597.986331,51.9737155 C601.946435,51.9737155 605.321826,52.7104101 608.1163,54.1762242 C610.908876,55.645826 613.067379,57.7725821 614.589912,60.5583864 Z" id="Fill-9"></path>
                    <path d="M19.4208359,149.944298 C14.6501066,154.658008 12.2656912,161.636722 12.2656912,170.884229 L12.2656912,193.725552 C12.2656912,197.715823 11.2880049,200.639876 9.33642922,202.495817 C7.38105669,204.353651 4.26954642,205.283515 0,205.283515 L0,224.590976 C4.26954642,224.590976 7.38105669,225.52084 9.33642922,227.378674 C11.2880049,229.236508 12.2656912,232.158667 12.2656912,236.148939 L12.2656912,258.990262 C12.2656912,265.061838 13.3098221,270.207338 15.4018809,274.422974 C17.4901428,278.636716 20.6244341,281.786133 24.8047548,283.873119 C28.9831771,285.956318 34.1639651,286.999811 40.3433219,286.999811 L61.3341511,286.999811 L61.3341511,264.702013 L47.2953357,264.702013 C43.7509857,264.702013 41.1368615,263.883884 39.4586583,262.253308 C37.7747598,260.620838 36.9375566,257.992221 36.9375566,254.367455 L36.9375566,232.749538 C36.9375566,229.484598 36.2541254,226.607891 34.8910599,224.113734 C33.5298928,221.623365 31.5289582,219.69546 28.8939513,218.335699 C26.2589445,216.975939 23.1702153,216.252501 19.6258652,216.159704 L19.6258652,213.712893 C25.0762289,213.623884 29.3248927,212.082317 32.3699582,209.088193 C35.4131254,206.097856 36.9375566,202.111372 36.9375566,197.124953 L36.9375566,175.505141 C36.9375566,171.880376 37.7747598,169.249865 39.4586583,167.619289 C41.1368615,165.988713 43.7509857,165.172478 47.2953357,165.172478 L61.3341511,165.172478 L61.3341511,142.87468 L40.3433219,142.87468 C31.16636,142.87468 24.1934636,145.232482 19.4208359,149.944298" id="Fill-11"></path>
                    <path d="M87.9771459,149.944298 C83.2064167,154.658008 80.8220012,161.636722 80.8220012,170.884229 L80.8220012,193.725552 C80.8220012,197.715823 79.844315,200.639876 77.8927393,202.495817 C75.9373667,204.353651 72.8258565,205.283515 68.5563101,205.283515 L68.5563101,224.590976 C72.8258565,224.590976 75.9373667,225.52084 77.8927393,227.378674 C79.844315,229.236508 80.8220012,232.158667 80.8220012,236.148939 L80.8220012,258.990262 C80.8220012,265.061838 81.8661322,270.207338 83.958191,274.422974 C86.0464529,278.636716 89.1807442,281.786133 93.3610649,283.873119 C97.5394871,285.956318 102.720275,286.999811 108.899632,286.999811 L129.890461,286.999811 L129.890461,264.702013 L115.851646,264.702013 C112.307296,264.702013 109.693172,263.883884 108.014968,262.253308 C106.33107,260.620838 105.493867,257.992221 105.493867,254.367455 L105.493867,232.749538 C105.493867,229.484598 104.810435,226.607891 103.44737,224.113734 C102.086203,221.623365 100.085268,219.69546 97.4502614,218.335699 C94.8152545,216.975939 91.7265253,216.252501 88.1821753,216.159704 L88.1821753,213.712893 C93.6325389,213.623884 97.8812027,212.082317 100.926268,209.088193 C103.969435,206.097856 105.493867,202.111372 105.493867,197.124953 L105.493867,175.505141 C105.493867,171.880376 106.33107,169.249865 108.014968,167.619289 C109.693172,165.988713 112.307296,165.172478 115.851646,165.172478 L129.890461,165.172478 L129.890461,142.87468 L108.899632,142.87468 C99.7226701,142.87468 92.7497736,145.232482 87.9771459,149.944298" id="Fill-13"></path>
                    <path d="M167.167455,189.078126 C166.303674,188.172881 165.870834,187.08583 165.870834,185.815079 C165.870834,183.731881 167.142776,182.055853 169.688557,180.785102 C172.23244,179.516245 176.777257,178.881817 183.319212,178.881817 C189.589693,178.881817 194.039589,179.584423 196.676495,180.989635 C199.311502,182.39674 200.629005,184.095494 200.629005,186.087789 L200.629005,186.631314 L226.662037,186.631314 L226.662037,186.087789 C226.662037,181.01236 225.205949,176.501289 222.299468,172.558363 C219.391089,168.615436 214.736163,165.513365 208.330895,163.244572 C201.923727,160.979568 193.768115,159.845171 183.864059,159.845171 C167.960995,159.845171 156.830559,161.409464 150.470852,164.536155 C144.109247,167.662847 140.931292,171.721296 140.931292,176.705821 C140.931292,180.514287 142.497488,183.550075 145.63178,185.815079 C148.767969,188.083872 153.333669,189.261826 159.330778,189.352729 L159.330778,191.79954 L134.795599,191.79954 L134.795599,210.834292 L153.741829,210.834292 L153.741829,257.607776 L179.638176,257.607776 L179.638176,210.834292 L213.714814,210.834292 L213.714814,191.254121 L170.37009,191.254121 C169.098148,190.710596 168.029338,189.985264 167.167455,189.078126" id="Fill-15"></path>
                    <path d="M256.849382,207.298725 C260.52852,205.759052 265.096118,204.986375 270.548381,204.986375 C276.089868,204.986375 280.678349,205.759052 284.313823,207.298725 C287.947399,208.840292 290.671632,210.950004 292.490318,213.622179 C293.056047,214.453565 293.502176,215.347446 293.891352,216.271629 L247.306025,216.271629 C247.685709,215.347446 248.120447,214.453565 248.670989,213.622179 C250.444113,210.950004 253.170244,208.840292 256.849382,207.298725 M296.852887,191.458843 C289.581939,188.241248 280.815035,186.631504 270.548381,186.631504 C260.369053,186.631504 251.623032,188.241248 244.310319,191.458843 C236.995707,194.676437 231.497883,199.053047 227.818745,204.579204 C224.139607,210.109149 222.29814,216.271629 222.29814,223.07043 C222.29814,229.869232 224.139607,236.01088 227.818745,241.495373 C231.497883,246.979866 236.950145,251.352689 244.173632,254.615735 C251.39712,257.878781 260.097579,259.509357 270.275008,259.509357 C279.816467,259.509357 287.924618,258.219668 294.605158,255.634608 C301.281901,253.051442 306.438009,249.879299 310.073483,246.118179 C313.707059,242.35706 316.209177,238.57132 317.570344,234.764748 L292.628903,234.764748 C290.536844,236.579025 287.901837,238.07514 284.723882,239.2512 C281.54213,240.429154 276.862525,241.020025 270.683168,241.020025 C265.232805,241.020025 260.642425,240.270074 256.917725,238.775852 C253.191127,237.279737 250.444113,235.171919 248.670989,232.452398 C248.137533,231.632376 247.710389,230.763114 247.3364,229.869232 L318.388563,229.869232 C318.749263,227.513324 318.933409,225.337329 318.933409,223.34314 C318.933409,216.455329 317.071059,210.222778 313.346359,204.647382 C309.617863,199.071986 304.121937,194.676437 296.852887,191.458843" id="Fill-17"></path>
                    <path d="M413.660008,223.274205 C409.479687,220.32932 404.54949,218.44876 398.873215,217.632525 C393.193142,216.81629 385.992436,216.272765 377.269196,216.000055 C372.36178,215.820143 368.523175,215.592885 365.753381,215.322069 C362.979789,215.049359 360.70738,214.572118 358.938053,213.894131 C357.164929,213.214251 356.278367,212.104474 356.278367,210.561014 C356.278367,208.750525 357.59587,207.297968 360.230877,206.210917 C362.865884,205.123866 367.636613,204.580341 374.544963,204.580341 C380.811648,204.580341 385.356465,205.351124 388.171822,206.890797 C390.989077,208.432364 392.534391,210.517456 392.807763,213.14418 L419.248956,213.14418 C418.977482,208.161548 417.24992,203.673203 414.070066,199.684825 C410.888314,195.696447 406.005578,192.526198 399.418061,190.168396 C392.828646,187.810594 384.538246,186.630746 374.544963,186.630746 C358.731125,186.630746 347.329215,188.717732 340.331639,192.886023 C333.334063,197.056207 329.837174,202.402452 329.837174,208.930438 C329.837174,214.823995 331.904553,219.219544 336.037413,222.120871 C340.172172,225.022198 345.054908,226.878138 350.691317,227.694373 C356.323929,228.510608 363.41073,229.054134 371.95362,229.324949 C377.041386,229.597659 380.969216,229.868475 383.742808,230.141184 C386.514501,230.413894 388.830573,230.957419 390.694822,231.771761 C392.557172,232.589889 393.489296,233.767843 393.489296,235.307516 C393.489296,237.121793 392.124332,238.619802 389.400099,239.795862 C386.673968,240.97571 381.720991,241.562793 374.544963,241.562793 C367.636613,241.562793 362.753877,240.748452 359.89106,239.114088 C357.028243,237.483512 355.596834,235.307516 355.596834,232.589889 L355.596834,232.04447 L329.155641,232.04447 L329.155641,232.99706 C329.155641,240.97571 332.743655,247.388173 339.923479,252.236344 C347.099506,257.086408 358.6419,259.510493 374.544963,259.510493 C390.899851,259.510493 402.552353,257.425401 409.504366,253.255217 C416.45638,249.08882 419.930489,243.513424 419.930489,236.532816 C419.930489,230.641152 417.83843,226.222878 413.660008,223.274205" id="Fill-19"></path>
                    <path d="M489.033164,227.013736 C489.033164,230.187772 487.759324,232.770938 485.215441,234.765127 C482.671559,236.759316 478.899398,237.755464 473.902757,237.755464 C468.814992,237.755464 465.021949,236.532058 462.52173,234.083353 C460.023409,231.636542 458.776147,227.966325 458.776147,223.070809 C458.776147,219.264238 459.433,216.205724 460.752402,213.893374 C462.068007,211.582917 463.862014,209.88227 466.134423,208.795219 L509.069088,208.795219 L509.069088,189.215049 L471.178524,189.215049 L471.178524,172.083583 L449.916221,172.083583 L449.916221,182.009076 C449.916221,184.912297 449.280251,187.018221 448.008309,188.330636 C446.734469,189.646839 444.551287,190.302099 441.464456,190.302099 L426.199261,190.302099 L426.199261,208.795219 L454.413578,208.795219 L454.413578,211.24203 C450.597754,211.512846 447.14263,212.624516 444.055799,214.573254 C440.965171,216.523885 438.512413,219.127883 436.695625,222.392823 C434.876939,225.653975 433.967595,229.371537 433.967595,233.539828 C433.967595,238.435344 435.376223,242.83468 438.193478,246.728367 C441.008835,250.627736 445.394185,253.731701 451.345731,256.044051 C457.29538,258.354508 464.816919,259.509736 473.902757,259.509736 C483.079719,259.509736 490.736047,258.172701 496.869841,255.498632 C503.003636,252.826457 507.569336,249.108895 510.56884,244.349733 C513.566445,239.592466 515.066196,233.996238 515.066196,227.557261 L515.066196,225.246805 L489.033164,225.246805 L489.033164,227.013736 Z" id="Fill-21"></path>
                    <path d="M569.174582,193.725741 L569.174582,170.882524 C569.174582,164.809054 568.128552,159.665448 566.04029,155.449812 C563.948232,151.234176 560.791159,148.086653 556.565276,146.001561 C552.341292,143.916469 547.183285,142.872976 541.096951,142.872976 L520.106122,142.872976 L520.106122,165.172667 L534.144937,165.172667 C537.689287,165.172667 540.278732,165.988902 541.91517,167.619478 C543.549709,169.250054 544.367928,171.880566 544.367928,175.505331 L544.367928,197.125142 C544.367928,200.388188 545.070344,203.26679 546.48087,205.759052 C547.887599,208.253209 549.888534,210.17922 552.477978,211.537087 C555.067423,212.896847 558.13527,213.624073 561.677721,213.713082 L561.677721,216.159893 C556.316583,216.25269 552.090701,217.792363 549.001971,220.7827 C545.911344,223.773036 544.367928,227.765202 544.367928,232.747834 L544.367928,254.367645 C544.367928,257.99241 543.549709,260.621028 541.91517,262.253498 C540.278732,263.884074 537.689287,264.702202 534.144937,264.702202 L520.106122,264.702202 L520.106122,287 L541.096951,287 C550.365037,287 557.360714,284.642198 562.08778,279.930382 C566.811049,275.214779 569.174582,268.236064 569.174582,258.990451 L569.174582,236.147235 C569.174582,232.158857 570.127588,229.236698 572.037399,227.378863 C573.945311,225.521029 577.079602,224.591165 581.442171,224.591165 L581.442171,205.283704 C577.079602,205.283704 573.945311,204.35384 572.037399,202.496006 C570.127588,200.638172 569.174582,197.714119 569.174582,193.725741" id="Fill-23"></path>
                    <path d="M640.595228,202.495817 C638.685417,200.639876 637.73241,197.715823 637.73241,193.725552 L637.73241,170.884229 C637.73241,164.810759 636.686381,159.665259 634.598119,155.449623 C632.50606,151.235881 629.348988,148.088357 625.125004,146.001372 C620.899121,143.916279 615.741114,142.87468 609.65478,142.87468 L588.665849,142.87468 L588.665849,165.172478 L602.702766,165.172478 C606.247116,165.172478 608.836561,165.988713 610.472999,167.619289 C612.107538,169.249865 612.925757,171.880376 612.925757,175.505141 L612.925757,197.124953 C612.925757,200.387999 613.628173,203.2666 615.038699,205.758863 C616.445428,208.253019 618.446362,210.179031 621.035807,211.536898 C623.62715,212.896658 626.693099,213.623884 630.23555,213.712893 L630.23555,216.159704 C624.874412,216.252501 620.648529,217.792174 617.5598,220.782511 C614.469173,223.772847 612.925757,227.765013 612.925757,232.749538 L612.925757,254.367455 C612.925757,257.992221 612.107538,260.620838 610.472999,262.253308 C608.836561,263.883884 606.247116,264.702013 602.702766,264.702013 L588.665849,264.702013 L588.665849,286.999811 L609.65478,286.999811 C618.922866,286.999811 625.920442,284.642009 630.645609,279.930193 C635.368878,275.214589 637.73241,268.235875 637.73241,258.990262 L637.73241,236.148939 C637.73241,232.158667 638.685417,229.236508 640.595228,227.378674 C642.50314,225.52084 645.637431,224.590976 650,224.590976 L650,205.283515 C645.637431,205.283515 642.50314,204.353651 640.595228,202.495817" id="Fill-25"></path>
                </g>
            </g>
        </g>
    </g>
</svg>