<svg viewBox="0 0 326 59" xmlns="http://www.w3.org/2000/svg" fill-rule="evenodd" clip-rule="evenodd" stroke-linejoin="round" stroke-miterlimit="2"><g fill-rule="nonzero"><path d="M0 47.547V14.719h4.641c.812 0 1.375.148 1.687.437.32.281.535.797.641 1.547l.453 3.703c1.039-1.957 2.265-3.492 3.672-4.609 1.414-1.125 3.082-1.688 5-1.688 1.507 0 2.722.328 3.64.985l-.5 5.922c-.117.386-.273.664-.468.828-.2.156-.469.234-.813.234-.324 0-.805-.051-1.437-.156a10.19 10.19 0 00-1.829-.172c-.875 0-1.656.133-2.343.391-.68.25-1.293.621-1.844 1.109A7.419 7.419 0 009.062 25c-.406.68-.793 1.453-1.156 2.328v20.219H0zM36.984 14.203c2.063 0 3.969.336 5.719 1 1.75.656 3.254 1.621 4.516 2.891 1.257 1.273 2.242 2.828 2.953 4.672.719 1.843 1.078 3.949 1.078 6.312 0 1.199-.133 2.008-.391 2.422-.25.418-.742.626-1.468.626H29.078c.125 1.686.422 3.147.891 4.374.468 1.219 1.086 2.23 1.859 3.031a7.238 7.238 0 002.734 1.797c1.063.398 2.227.594 3.5.594 1.282 0 2.383-.149 3.313-.453.937-.301 1.75-.629 2.437-.985a45.62 45.62 0 001.829-1c.519-.3 1.023-.453 1.515-.453.664 0 1.156.246 1.469.735l2.281 2.89a13.143 13.143 0 01-2.953 2.578 16.562 16.562 0 01-3.406 1.657c-1.18.417-2.383.707-3.61.875-1.23.175-2.421.265-3.578.265-2.281 0-4.406-.383-6.375-1.14a14.208 14.208 0 01-5.109-3.36c-1.449-1.476-2.59-3.312-3.422-5.5-.836-2.187-1.25-4.723-1.25-7.609 0-2.238.359-4.344 1.078-6.313.727-1.976 1.77-3.695 3.125-5.156 1.363-1.457 3.02-2.613 4.969-3.469 1.945-.851 4.148-1.281 6.609-1.281zm.157 5.656c-2.305 0-4.106.653-5.407 1.953-1.304 1.305-2.136 3.153-2.5 5.547h14.922c0-1.031-.148-2-.437-2.906a7.01 7.01 0 00-1.297-2.375c-.574-.687-1.305-1.227-2.188-1.625-.886-.395-1.918-.594-3.093-.594zM80.797 47.547c-1.043 0-1.703-.477-1.985-1.438l-.671-3.172A19.255 19.255 0 0176 45.031a13.655 13.655 0 01-2.422 1.594c-.855.449-1.781.793-2.781 1.031-.992.25-2.059.375-3.203.375-1.793 0-3.438-.375-4.938-1.125-1.492-.75-2.777-1.832-3.859-3.25-1.074-1.414-1.906-3.164-2.5-5.25-.586-2.094-.875-4.484-.875-7.172 0-2.437.328-4.695.984-6.781.664-2.094 1.617-3.906 2.86-5.437a13.302 13.302 0 014.453-3.61c1.725-.863 3.664-1.297 5.812-1.297 1.844 0 3.41.293 4.703.875a12.336 12.336 0 013.5 2.36V0h7.907v47.547h-4.844zM70.281 41.75c1.633 0 3.024-.336 4.172-1.016 1.156-.687 2.25-1.66 3.281-2.922V23.094c-.898-1.082-1.875-1.848-2.937-2.297a8.65 8.65 0 00-3.406-.672c-1.188 0-2.266.226-3.235.672-.961.449-1.781 1.125-2.469 2.031-.679.906-1.2 2.059-1.563 3.453-.355 1.399-.53 3.047-.53 4.953 0 1.918.148 3.543.453 4.875.312 1.336.754 2.422 1.327 3.266.583.844 1.286 1.453 2.11 1.828.832.367 1.766.547 2.797.547zM93.5 58.266V14.719h4.828c1.02 0 1.691.48 2.016 1.437l.64 3.031a16.612 16.612 0 014.563-3.671c1.719-.938 3.726-1.407 6.031-1.407 1.789 0 3.426.375 4.906 1.125 1.489.742 2.77 1.824 3.844 3.25 1.082 1.418 1.914 3.168 2.5 5.25.582 2.074.875 4.453.875 7.141 0 2.461-.336 4.734-1 6.828-.656 2.086-1.602 3.898-2.828 5.438a13 13 0 01-4.438 3.593c-1.742.864-3.687 1.297-5.843 1.297-1.856 0-3.43-.281-4.719-.844a11.618 11.618 0 01-3.469-2.359v13.438H93.5zm15.359-37.922c-1.648 0-3.054.351-4.218 1.047-1.157.687-2.235 1.664-3.235 2.921v14.719c.895 1.117 1.867 1.891 2.922 2.328 1.051.438 2.195.657 3.438.657 1.195 0 2.273-.223 3.234-.672.957-.446 1.769-1.129 2.437-2.047.676-.914 1.196-2.071 1.563-3.469.363-1.406.547-3.055.547-4.953 0-1.914-.156-3.539-.469-4.875-.305-1.332-.746-2.414-1.328-3.25-.574-.832-1.274-1.442-2.094-1.828-.824-.383-1.758-.578-2.797-.578zM143.859 14.203c2.063 0 3.969.336 5.719 1 1.75.656 3.254 1.621 4.516 2.891 1.257 1.273 2.242 2.828 2.953 4.672.719 1.843 1.078 3.949 1.078 6.312 0 1.199-.133 2.008-.391 2.422-.25.418-.742.626-1.468.626h-20.313c.125 1.686.422 3.147.891 4.374.468 1.219 1.086 2.23 1.859 3.031a7.238 7.238 0 002.734 1.797c1.063.398 2.227.594 3.5.594 1.282 0 2.383-.149 3.313-.453.937-.301 1.75-.629 2.437-.985a45.62 45.62 0 001.829-1c.519-.3 1.023-.453 1.515-.453.664 0 1.156.246 1.469.735l2.281 2.89a13.143 13.143 0 01-2.953 2.578 16.562 16.562 0 01-3.406 1.657c-1.18.417-2.383.707-3.61.875-1.23.175-2.421.265-3.578.265-2.281 0-4.406-.383-6.375-1.14a14.208 14.208 0 01-5.109-3.36c-1.449-1.476-2.59-3.312-3.422-5.5-.836-2.187-1.25-4.723-1.25-7.609 0-2.238.358-4.344 1.078-6.313.726-1.976 1.769-3.695 3.125-5.156 1.363-1.457 3.02-2.613 4.969-3.469 1.945-.851 4.148-1.281 6.609-1.281zm.157 5.656c-2.305 0-4.106.653-5.407 1.953-1.304 1.305-2.136 3.153-2.5 5.547h14.922c0-1.031-.148-2-.437-2.906a7.01 7.01 0 00-1.297-2.375c-.574-.687-1.305-1.227-2.188-1.625-.886-.395-1.918-.594-3.093-.594zM164 47.547V14.719h4.828c1.02 0 1.691.48 2.016 1.437l.547 2.594a16.635 16.635 0 012.093-1.859 15.462 15.462 0 012.328-1.438 11.771 11.771 0 012.641-.922 13.637 13.637 0 013.078-.328c1.789 0 3.379.309 4.766.922 1.383.605 2.539 1.461 3.469 2.562.937 1.094 1.644 2.407 2.125 3.938.476 1.523.718 3.199.718 5.031v20.891h-7.906V26.656c0-2.008-.461-3.562-1.375-4.656-.918-1.102-2.312-1.656-4.187-1.656a8.215 8.215 0 00-3.86.937c-1.187.617-2.312 1.453-3.375 2.516v23.75H164zM223.641 21.656a3.822 3.822 0 01-.688.719c-.219.168-.543.25-.969.25-.406 0-.804-.117-1.187-.359-.387-.25-.844-.532-1.375-.844-.531-.313-1.168-.586-1.906-.828-.743-.25-1.653-.375-2.735-.375-1.387 0-2.605.25-3.656.75a6.932 6.932 0 00-2.609 2.156c-.688.937-1.204 2.074-1.547 3.406-.344 1.336-.516 2.844-.516 4.531 0 1.75.188 3.309.563 4.672.375 1.367.91 2.516 1.609 3.453a6.95 6.95 0 002.562 2.11c1.008.48 2.145.719 3.407.719 1.25 0 2.265-.157 3.047-.469.781-.313 1.437-.649 1.968-1.016.532-.375.992-.719 1.391-1.031a2.079 2.079 0 011.328-.469c.645 0 1.125.246 1.438.735l2.281 2.89a14.2 14.2 0 01-2.86 2.578A15.51 15.51 0 01220 46.891a15.858 15.858 0 01-3.391.875 23.142 23.142 0 01-3.468.265c-2.024 0-3.93-.383-5.719-1.14a13.54 13.54 0 01-4.703-3.313c-1.344-1.445-2.407-3.223-3.188-5.328-.781-2.102-1.172-4.5-1.172-7.188 0-2.406.344-4.632 1.032-6.687.695-2.063 1.718-3.844 3.062-5.344 1.344-1.508 3.004-2.691 4.984-3.547 1.989-.851 4.274-1.281 6.86-1.281 2.457 0 4.609.398 6.453 1.188 1.844.793 3.5 1.921 4.969 3.39l-2.078 2.875zM239.187 14.719v32.828h-7.937V14.719h7.937zm1.094-9.578c0 .687-.14 1.335-.422 1.937a5.033 5.033 0 01-1.109 1.563 5.402 5.402 0 01-1.609 1.078 5.042 5.042 0 01-1.985.39c-.68 0-1.324-.129-1.937-.39a5.221 5.221 0 01-2.657-2.641 4.824 4.824 0 01-.39-1.937 5 5 0 01.39-1.969c.27-.625.629-1.16 1.079-1.61.445-.445.972-.8 1.578-1.062a4.748 4.748 0 011.937-.406c.707 0 1.367.136 1.985.406a5.283 5.283 0 011.609 1.062c.469.45.836.985 1.109 1.61.282.617.422 1.273.422 1.969zM247.344 0h7.906v47.548h-7.906z"/><path d="M261.968 43.187c0-.656.118-1.281.36-1.875a4.703 4.703 0 011.016-1.546 4.73 4.73 0 011.531-1.016 4.825 4.825 0 011.922-.391c.687 0 1.32.133 1.906.391.594.25 1.109.59 1.547 1.016.437.429.781.945 1.031 1.546a4.66 4.66 0 01.391 1.875c0 .688-.133 1.329-.391 1.922a4.626 4.626 0 01-2.578 2.516 4.798 4.798 0 01-1.906.375c-.68 0-1.321-.125-1.922-.375a4.45 4.45 0 01-1.531-1 4.697 4.697 0 01-1.016-1.516 5.038 5.038 0 01-.36-1.922z" fill="red"/><path d="M286.562 14.719v32.828h-7.937V14.719h7.937zm1.094-9.578c0 .687-.14 1.335-.422 1.937a5.033 5.033 0 01-1.109 1.563 5.402 5.402 0 01-1.609 1.078 5.042 5.042 0 01-1.985.39c-.68 0-1.324-.129-1.937-.39a5.221 5.221 0 01-2.657-2.641 4.824 4.824 0 01-.39-1.937 5 5 0 01.39-1.969c.27-.625.629-1.16 1.079-1.61.445-.445.972-.8 1.578-1.062a4.748 4.748 0 011.937-.406c.707 0 1.367.136 1.985.406a5.283 5.283 0 011.609 1.062c.469.45.836.985 1.109 1.61.282.617.422 1.273.422 1.969zM309.156 14.203c2.426 0 4.633.398 6.625 1.188 2 .793 3.707 1.914 5.125 3.359 1.414 1.449 2.508 3.219 3.281 5.312.77 2.086 1.157 4.418 1.157 7 0 2.606-.387 4.954-1.157 7.047-.773 2.094-1.867 3.875-3.281 5.344-1.418 1.469-3.125 2.602-5.125 3.391-1.992.789-4.199 1.187-6.625 1.187-2.461 0-4.695-.398-6.703-1.187-2-.789-3.711-1.922-5.125-3.391-1.418-1.469-2.516-3.25-3.297-5.344-.781-2.093-1.172-4.441-1.172-7.047 0-2.582.391-4.914 1.172-7 .781-2.093 1.879-3.863 3.297-5.312 1.414-1.445 3.125-2.566 5.125-3.359 2.008-.79 4.242-1.188 6.703-1.188zm0 27.75c2.727 0 4.75-.914 6.063-2.75 1.312-1.844 1.968-4.535 1.968-8.078 0-3.539-.656-6.238-1.968-8.094-1.313-1.851-3.336-2.781-6.063-2.781-2.781 0-4.84.934-6.172 2.797-1.336 1.867-2 4.558-2 8.078 0 3.523.664 6.211 2 8.062 1.332 1.844 3.391 2.766 6.172 2.766z"/></g></svg>