<?xml version="1.0" encoding="UTF-8"?>
<svg width="1360px" height="435px" viewBox="0 0 1360 435" version="1.1" xmlns="http://www.w3.org/2000/svg" xmlns:xlink="http://www.w3.org/1999/xlink">
    <title>C5326511-AFB6-4D9C-8F9B-1E46B96D35A9@1x</title>
    <defs>
        <filter id="filter-1">
            <feColorMatrix in="SourceGraphic" type="matrix" values="0 0 0 0 1.000000 0 0 0 0 1.000000 0 0 0 0 1.000000 0 0 0 0.600000 0"></feColorMatrix>
        </filter>
        <filter x="-3.5%" y="-5.6%" width="107.0%" height="111.3%" filterUnits="objectBoundingBox" id="filter-2">
            <feOffset dx="0" dy="2" in="SourceAlpha" result="shadowOffsetOuter1"></feOffset>
            <feGaussianBlur stdDeviation="2" in="shadowOffsetOuter1" result="shadowBlurOuter1"></feGaussianBlur>
            <feComposite in="shadowBlurOuter1" in2="SourceAlpha" operator="out" result="shadowBlurOuter1"></feComposite>
            <feColorMatrix values="0 0 0 0 0   0 0 0 0 0   0 0 0 0 0  0 0 0 0.05 0" type="matrix" in="shadowBlurOuter1" result="shadowMatrixOuter1"></feColorMatrix>
            <feMerge>
                <feMergeNode in="shadowMatrixOuter1"></feMergeNode>
                <feMergeNode in="SourceGraphic"></feMergeNode>
            </feMerge>
        </filter>
        <filter id="filter-3">
            <feColorMatrix in="SourceGraphic" type="matrix" values="0 0 0 0 1.000000 0 0 0 0 1.000000 0 0 0 0 1.000000 0 0 0 0.600000 0"></feColorMatrix>
        </filter>
        <filter x="-7.0%" y="-8.3%" width="114.0%" height="116.6%" filterUnits="objectBoundingBox" id="filter-4">
            <feOffset dx="0" dy="2" in="SourceAlpha" result="shadowOffsetOuter1"></feOffset>
            <feGaussianBlur stdDeviation="2" in="shadowOffsetOuter1" result="shadowBlurOuter1"></feGaussianBlur>
            <feComposite in="shadowBlurOuter1" in2="SourceAlpha" operator="out" result="shadowBlurOuter1"></feComposite>
            <feColorMatrix values="0 0 0 0 0   0 0 0 0 0   0 0 0 0 0  0 0 0 0.05 0" type="matrix" in="shadowBlurOuter1" result="shadowMatrixOuter1"></feColorMatrix>
            <feMerge>
                <feMergeNode in="shadowMatrixOuter1"></feMergeNode>
                <feMergeNode in="SourceGraphic"></feMergeNode>
            </feMerge>
        </filter>
        <path d="M114.117436,154.655739 L113.879813,155.404754 L113.616469,156.278319 C113.776119,155.734139 113.943457,155.193105 114.118307,154.655305 L119.655,154.655223 L119.655265,164.174702 L132.190952,164.174702 L132.19,154.655223 L142.444,154.655223 L142.444255,164.174702 L154.977764,164.174702 L154.977,154.655223 L165.233,154.655223 L165.233245,164.174702 L177.766755,164.174702 L177.766,154.655223 L188.022,154.655223 L188.022236,164.174702 L200.555745,164.174702 L200.555,154.655223 L210.809,154.655223 L210.809048,164.174702 L223.344735,164.174702 L223.344,154.655223 L228.882128,154.655305 L229.172862,155.575125 L229.189,155.632223 L229.173679,155.575429 C229.079351,155.267831 228.982591,154.961263 228.883435,154.655739 L234.393388,154.655739 L234.394041,166.395034 L240.81564,166.395034 L240.81564,168.529174 L231.511878,168.529174 L231.500313,168.351251 L231.510572,168.529174 L231.510572,168.529174 L231.623085,170.122689 C231.676132,170.920107 231.717685,171.720182 231.717685,172.530417 C231.717685,199.12757 214.6177,225.859324 190.23506,234.774016 L190.234493,238.430212 L186.486418,238.430212 L186.487071,253.904362 L182.519034,253.904362 L183.488176,252.933903 L182.519034,253.903927 L182.517292,253.903927 L175.210616,261.211677 L177.747807,261.211677 L177.747807,263.065753 L174.291564,263.065753 L174.291346,267.571764 L173.319,267.571223 L173.446532,267.697071 C173.900371,268.174342 174.187681,268.810022 174.187681,269.520498 C174.187681,270.72543 173.375344,271.704573 172.277709,272.041085 L172.277709,282.288652 L170.723598,282.288435 L170.723598,282.290606 L176.473113,282.290606 L176.473113,284.014419 L172.27858,284.014419 L172.27858,290 L170.723598,290 L170.723598,284.012248 L166.526887,284.012248 L166.526887,282.288435 L170.722726,282.288652 L170.722726,272.041085 C169.625092,271.704573 168.812755,270.72543 168.812755,269.520498 C168.812755,268.745938 169.154232,268.060275 169.68286,267.57185 L168.709525,267.571764 L168.709525,263.066838 L165.252846,263.066838 L165.252846,261.212763 L167.790038,261.212763 L168.708436,262.128945 L167.790691,261.211677 L160.48236,253.904305 L156.513364,253.904362 L156.514018,238.430212 L152.765943,238.430212 L152.76536,233.784305 L152.054047,233.487469 C128.60855,223.531311 111.282751,197.993627 111.282751,172.530417 C111.282751,171.720182 111.324304,170.920107 111.377304,170.122689 L111.489646,168.529174 L102.18436,168.529174 L102.18436,166.395034 L108.607483,166.394599 L108.607483,154.655739 L114.117436,154.655739 Z M343,123.806223 L343,126.294244 L337.997,126.294223 L337.997486,152.678999 L319.459,152.678223 L319.459653,153.454932 C319.459653,154.76982 318.768415,155.933749 317.730029,156.602001 L318.414286,156.602084 L318.414286,158.983725 L311.514,158.983223 L305.85636,164.641305 L308.707622,164.641478 L308.707622,166.725684 L304.82436,166.725305 L304.824521,171.786399 L302.88336,171.786305 L302.88406,174.465473 L300.494962,174.465473 L300.49436,171.786305 L298.552322,171.786399 L298.55136,166.725305 L294.671399,166.725684 L294.671399,164.641478 L297.52136,164.641305 L291.862,158.983223 L284.964735,158.983725 L284.964735,156.602084 L285.64699,156.602114 C284.608507,155.933881 283.917191,154.769894 283.917191,153.454932 L283.917,152.678223 L279.467,152.678223 L279.467632,160.835846 C279.467632,161.31999 279.071264,161.71295 278.583426,161.71295 L278.017,161.712223 L278.017404,164.524241 L276.995,164.524223 L276.995994,166.174238 L276.360062,166.174238 L276.36,164.524223 L275.34083,164.524241 L275.34,161.712223 L274.770016,161.71295 C274.284356,161.71295 273.887988,161.31999 273.887988,160.835846 L273.887,152.678223 L269.739172,152.679213 C269.353343,155.870258 266.609515,158.363456 263.308661,158.363456 L263.009,158.363223 L263.009861,163.149967 L262.369,163.149223 L262.369574,169.765152 L259.63636,169.764305 L259.636376,177.735072 L258.294822,177.735072 L258.29436,169.764305 L255.563802,169.765152 L255.563,163.149223 L254.921337,163.149967 L254.921,158.363223 L254.62123,158.363456 C253.305331,158.363456 252.077958,157.967224 251.053212,157.288507 L251.053481,164.756109 C251.053481,165.240253 250.659291,165.633213 250.171453,165.633213 L249.603,165.632223 L249.603035,168.442984 L248.58336,168.442305 L248.583803,170.095152 L247.945694,170.095152 L247.94536,168.442305 L246.926461,168.442984 L246.926,165.632223 L246.355865,165.633213 C245.872383,165.633213 245.476015,165.240253 245.476015,164.756109 L245.476,152.678223 L240.815,152.678223 L240.815423,154.654871 L223.344,154.654223 L223.344735,151.680317 L210.809048,151.680317 L210.809,154.654223 L200.555,154.654223 L200.555745,151.680317 L188.022236,151.680317 L188.022,154.654223 L177.766,154.654223 L177.766755,151.680317 L165.233245,151.680317 L165.233,154.654223 L154.977,154.654223 L154.977764,151.680317 L142.444255,151.680317 L142.444,154.654223 L132.19,154.654223 L132.190952,151.680317 L119.655265,151.680317 L119.655,154.654223 L102.185231,154.654871 L102.185,152.678223 L97.524,152.678 L97.524856,164.756109 C97.524856,165.203011 97.1889779,165.572218 96.7553197,165.626374 L96.6450059,165.633213 L96.073,165.633 L96.0735388,168.442984 L95.056,168.442 L95.0564843,170.095152 L94.4183752,170.095152 L94.418,168.442 L93.396965,168.442984 L93.396,165.633 L92.8294181,165.633213 C92.3791063,165.633213 92.0085889,165.298383 91.9542507,164.866078 L91.9473901,164.756109 L91.9476588,157.288507 C90.9229133,157.967224 89.6955399,158.363456 88.3796413,158.363456 L88.3796413,158.363456 L88.08,158.363 L88.0808407,163.149967 L87.438,163.149 L87.4383758,169.765152 L84.707,169.765 L84.7073558,177.735072 L83.3658021,177.735072 L83.365,169.765 L80.6347821,169.765152 L80.634,163.149 L79.9923172,163.149967 L79.992,158.363 L79.6922099,158.363456 C76.3912244,158.363456 73.6473086,155.870058 73.2616528,152.67883 L69.112,152.678 L69.1128829,160.835846 C69.1128829,161.282748 68.7751492,161.651955 68.3412055,161.706112 L68.2308549,161.71295 L67.661,161.712 L67.661348,164.524241 L66.642,164.524 L66.6421156,166.174238 L66.0061843,166.174238 L66.006,164.524 L64.9847741,164.524241 L64.984,161.712 L64.417445,161.71295 C63.9671333,161.71295 63.5947601,161.37812 63.5401365,160.945816 L63.5332392,160.835846 L63.533,152.678 L59.083,152.678 L59.0836801,153.454932 C59.0836801,154.770676 58.3915424,155.935264 57.352029,156.603306 L58.0374425,156.602084 L58.0374425,158.983725 L51.138,158.983 L45.479,164.641 L48.3329566,164.641478 L48.3329566,166.725684 L44.447,166.725 L44.4476777,171.786399 L42.507,171.786 L42.5072161,174.465473 L40.118118,174.465473 L40.118,171.786 L38.1754786,171.786399 L38.175,166.725 L34.2945554,166.725684 L34.2945554,164.641478 L37.143,164.641 L31.486,158.983 L24.5878917,158.983725 L24.5878917,156.602084 L25.2720245,156.602762 C24.2329811,155.934633 23.5412185,154.770319 23.5412185,153.454932 L23.5412185,153.454932 L23.541,152.678 L14.858,152.678 L14.8581428,160.835846 C14.8581428,161.282748 14.520409,161.651955 14.0864653,161.706112 L13.9761148,161.71295 L13.406,161.712 L13.4068256,164.524241 L12.389,164.524 L12.3897711,166.174238 L11.751662,166.174238 L11.751,164.524 L10.7302518,164.524241 L10.73,161.712 L10.1627048,161.71295 C9.71239312,161.71295 9.34187563,161.37812 9.28753751,160.945816 L9.28067685,160.835846 L9.28,152.678 L5.00251437,152.678999 L5.002,126.294223 L-9.09494702e-13,126.294244 L-9.09494702e-13,123.806223 L343,123.806223 Z M337.997486,0 L337.997486,119.238336 L5.00251437,119.238336 L5.00251437,0 L337.997486,0 Z M177.416121,67.4890025 L165.191866,67.4890025 L165.191866,83.426671 C165.191866,85.4414041 166.831785,87.0740328 168.850649,87.0740328 L173.757338,87.0740328 C175.77838,87.0740328 177.416121,85.4414041 177.416121,83.426671 L177.416121,67.4890025 Z M106.253231,67.4890025 L94.0289762,67.4890025 L94.0289762,83.426671 C94.0289762,85.4414041 95.6688949,87.0740328 97.687759,87.0740328 L102.594448,87.0740328 C104.61549,87.0740328 106.253231,85.4414041 106.253231,83.426671 L106.253231,67.4890025 Z M35.0905584,67.4890025 L22.8663037,67.4890025 L22.8663037,83.426671 C22.8663037,85.4414041 24.5040446,87.0740328 26.5250865,87.0740328 L31.4317756,87.0740328 C33.4528175,87.0740328 35.0905584,85.4414041 35.0905584,83.426671 L35.0905584,67.4890025 Z M248.579011,67.4890025 L236.356935,67.4890025 L236.356935,83.426671 C236.356935,85.4414041 237.994675,87.0740328 240.013539,87.0740328 L244.920229,87.0740328 C246.941271,87.0740328 248.579011,85.4414041 248.579011,83.426671 L248.579011,67.4890025 Z M319.741902,67.4890025 L307.519825,67.4890025 L307.519825,83.426671 C307.519825,85.4414041 309.157566,87.0740328 311.17643,87.0740328 L316.083119,87.0740328 C318.104161,87.0740328 319.741902,85.4414041 319.741902,83.426671 L319.741902,67.4890025 Z M68.0516181,67.4890025 L61.0672631,67.4890025 L61.0672631,78.8978634 C61.0672631,80.0463481 62.0037373,80.9820701 63.1579961,80.9820701 L65.9608851,80.9820701 C67.115144,80.9820701 68.0516181,80.0463481 68.0516181,78.8978634 L68.0516181,67.4890025 Z M139.216686,67.4890025 L132.230153,67.4890025 L132.230153,78.8978634 C132.230153,80.0463481 133.166628,80.9820701 134.320886,80.9820701 L137.125953,80.9820701 C138.278034,80.9820701 139.216686,80.0463481 139.216686,78.8978634 L139.216686,67.4890025 Z M210.379576,67.4890025 L203.393044,67.4890025 L203.393044,78.8978634 C203.393044,80.0463481 204.329518,80.9820701 205.483777,80.9820701 L208.288843,80.9820701 C209.443102,80.9820701 210.379576,80.0463481 210.379576,78.8978634 L210.379576,67.4890025 Z M281.542249,67.4890025 L274.555716,67.4890025 L274.555716,78.8978634 C274.555716,80.0463481 275.49219,80.9820701 276.646449,80.9820701 L279.451516,80.9820701 C280.605775,80.9820701 281.542249,80.0463481 281.542249,78.8978634 L281.542249,67.4890025 Z M39.020701,15.2629065 L18.9365967,15.2629065 L18.9365967,52.3574445 C18.9365967,55.6661227 21.6284155,58.3495388 24.9474542,58.3495388 L33.0098435,58.3495388 C36.3288822,58.3495388 39.020701,55.6661227 39.020701,52.3574445 L39.020701,15.2629065 Z M324.064274,15.2629065 L303.982348,15.2629065 L303.982348,52.3574445 C303.982348,55.5909254 306.551122,58.2272424 309.767762,58.3454048 L309.993205,58.3495388 L318.053417,58.3495388 C321.297023,58.3495388 323.941595,55.7867101 324.060127,52.5820431 L324.064274,52.3574445 L324.064274,15.2629065 Z M183.069812,15.2624723 L159.932366,15.2624723 L159.932366,51.4386566 L183.069812,51.4386566 L183.069812,15.2624723 Z M70.7207873,28.318942 L58.4965326,28.318942 L58.4965326,44.2566105 C58.4965326,46.2713437 60.1364513,47.9039723 62.1553154,47.9039723 L67.0620045,47.9039723 C69.0830464,47.9039723 70.7207873,46.2713437 70.7207873,44.2566105 L70.7207873,28.318942 Z M284.504339,28.318942 L272.280084,28.318942 L272.280084,44.2566105 C272.280084,46.2063523 273.813868,47.7982438 275.744521,47.8989176 L275.938867,47.9039723 L280.845556,47.9039723 C282.799295,47.9039723 284.398143,46.3749756 284.499261,44.4503498 L284.504339,44.2566105 L284.504339,28.318942 Z M107.4419,15.2624723 L93.0354424,15.2624723 L93.0354424,46.5993891 L107.4419,46.5993891 L107.4419,15.2624723 Z M249.964558,15.2624723 L235.5581,15.2624723 L235.5581,46.5993891 L249.964558,46.5993891 L249.964558,15.2624723 Z M139.363473,19.178827 L132.37694,19.178827 L132.37694,30.5876879 C132.37694,31.7383437 133.313414,32.6718947 134.467673,32.6718947 L137.27274,32.6718947 C138.426999,32.6718947 139.363473,31.7383437 139.363473,30.5876879 L139.363473,19.178827 Z M210.624149,19.178827 L203.637616,19.178827 L203.637616,30.5876879 C203.637616,31.6883152 204.494428,32.5903059 205.579087,32.6666593 L205.728349,32.6718947 L208.533416,32.6718947 C209.637489,32.6718947 210.542304,31.8177573 210.618897,30.7364833 L210.624149,30.5876879 L210.624149,19.178827 Z" id="path-5"></path>
        <filter x="-2.0%" y="-1.7%" width="104.1%" height="104.8%" filterUnits="objectBoundingBox" id="filter-6">
            <feOffset dx="0" dy="2" in="SourceAlpha" result="shadowOffsetOuter1"></feOffset>
            <feGaussianBlur stdDeviation="2" in="shadowOffsetOuter1" result="shadowBlurOuter1"></feGaussianBlur>
            <feComposite in="shadowBlurOuter1" in2="SourceAlpha" operator="out" result="shadowBlurOuter1"></feComposite>
            <feColorMatrix values="0 0 0 0 0   0 0 0 0 0   0 0 0 0 0  0 0 0 0.05 0" type="matrix" in="shadowBlurOuter1"></feColorMatrix>
        </filter>
        <filter id="filter-7">
            <feColorMatrix in="SourceGraphic" type="matrix" values="0 0 0 0 1.000000 0 0 0 0 1.000000 0 0 0 0 1.000000 0 0 0 0.600000 0"></feColorMatrix>
        </filter>
        <filter x="-8.8%" y="-9.2%" width="117.5%" height="118.3%" filterUnits="objectBoundingBox" id="filter-8">
            <feOffset dx="0" dy="2" in="SourceAlpha" result="shadowOffsetOuter1"></feOffset>
            <feGaussianBlur stdDeviation="2" in="shadowOffsetOuter1" result="shadowBlurOuter1"></feGaussianBlur>
            <feComposite in="shadowBlurOuter1" in2="SourceAlpha" operator="out" result="shadowBlurOuter1"></feComposite>
            <feColorMatrix values="0 0 0 0 0   0 0 0 0 0   0 0 0 0 0  0 0 0 0.05 0" type="matrix" in="shadowBlurOuter1" result="shadowMatrixOuter1"></feColorMatrix>
            <feMerge>
                <feMergeNode in="shadowMatrixOuter1"></feMergeNode>
                <feMergeNode in="SourceGraphic"></feMergeNode>
            </feMerge>
        </filter>
        <filter id="filter-9">
            <feColorMatrix in="SourceGraphic" type="matrix" values="0 0 0 0 1.000000 0 0 0 0 1.000000 0 0 0 0 1.000000 0 0 0 0.600000 0"></feColorMatrix>
        </filter>
        <filter x="-27.9%" y="-2.9%" width="155.8%" height="105.8%" filterUnits="objectBoundingBox" id="filter-10">
            <feOffset dx="0" dy="2" in="SourceAlpha" result="shadowOffsetOuter1"></feOffset>
            <feGaussianBlur stdDeviation="2" in="shadowOffsetOuter1" result="shadowBlurOuter1"></feGaussianBlur>
            <feComposite in="shadowBlurOuter1" in2="SourceAlpha" operator="out" result="shadowBlurOuter1"></feComposite>
            <feColorMatrix values="0 0 0 0 0   0 0 0 0 0   0 0 0 0 0  0 0 0 0.05 0" type="matrix" in="shadowBlurOuter1" result="shadowMatrixOuter1"></feColorMatrix>
            <feMerge>
                <feMergeNode in="shadowMatrixOuter1"></feMergeNode>
                <feMergeNode in="SourceGraphic"></feMergeNode>
            </feMerge>
        </filter>
        <filter id="filter-11">
            <feColorMatrix in="SourceGraphic" type="matrix" values="0 0 0 0 1.000000 0 0 0 0 1.000000 0 0 0 0 1.000000 0 0 0 0.600000 0"></feColorMatrix>
        </filter>
        <filter x="-14.1%" y="-6.5%" width="128.2%" height="113.0%" filterUnits="objectBoundingBox" id="filter-12">
            <feOffset dx="0" dy="2" in="SourceAlpha" result="shadowOffsetOuter1"></feOffset>
            <feGaussianBlur stdDeviation="2" in="shadowOffsetOuter1" result="shadowBlurOuter1"></feGaussianBlur>
            <feComposite in="shadowBlurOuter1" in2="SourceAlpha" operator="out" result="shadowBlurOuter1"></feComposite>
            <feColorMatrix values="0 0 0 0 0   0 0 0 0 0   0 0 0 0 0  0 0 0 0.05 0" type="matrix" in="shadowBlurOuter1" result="shadowMatrixOuter1"></feColorMatrix>
            <feMerge>
                <feMergeNode in="shadowMatrixOuter1"></feMergeNode>
                <feMergeNode in="SourceGraphic"></feMergeNode>
            </feMerge>
        </filter>
    </defs>
    <g id="EmberFest-2021" stroke="none" stroke-width="1" fill="none" fill-rule="evenodd">
        <g id="2021-Desktop-HD---Location-announced" transform="translate(-66.000000, -174.000000)">
            <g id="rome" transform="translate(75.000000, 183.000000)">
                <g filter="url(#filter-1)" id="building-3">
                    <g filter="url(#filter-2)" transform="translate(259.500000, 310.500000) scale(1, -1) translate(-259.500000, -310.500000) translate(88.000000, 204.000000)">
                        <path d="M112.308744,0 L112.308744,3.62377383 C112.308744,7.31954316 112.308744,11.0174942 112.345631,14.7154452 C112.419405,20.5579896 117.38396,25.2900579 123.450786,25.2900579 L123.487672,25.2900579 C130.070916,25.2900579 134.887923,20.8176098 134.92481,14.6041794 C134.961697,10.943317 134.92481,7.28245457 134.92481,3.62377383 L134.92481,0 L157.028799,0 L157.028799,3.62377383 C157.028799,4.47244813 157.028799,5.32330412 157.065686,6.2112487 C157.100403,8.72672806 157.174177,11.3512915 156.955025,13.975855 C156.327946,23.6625231 166.148565,25.5125895 168.133953,25.7722097 C171.701143,26.2521797 175.157671,25.440594 178.35816,23.3309075 C181.519592,21.2604912 182.953845,18.6359278 182.916958,15.0099723 C182.889293,12.1546959 182.882377,9.2981924 182.880648,6.45794921 L182.880071,0 L205.35076,0 C205.387647,1.21956025 205.387647,2.4020319 205.387647,3.62377383 C205.424534,7.06210469 205.461421,10.5746127 205.203212,14.0871208 C204.908116,18.2279532 206.893504,20.8525167 208.622853,22.2946085 C211.60202,24.8471765 216.126102,25.9183823 219.803952,25.0326194 C225.760116,23.5905276 228.739283,19.7813108 228.77617,13.6420576 L228.77617,0 L248.560618,0 L248.560618,3.62377383 C248.560618,3.95538949 248.560618,4.28700516 248.597505,4.62080251 L248.597505,8.06131505 C248.597505,11.3142029 248.597505,14.4209181 249.15081,17.3421903 C249.994871,21.8517271 253.783382,24.6617335 258.379067,24.1446749 C262.425788,23.7017934 266.029864,19.4846021 266.103638,15.0492425 C266.177412,11.2400257 266.177412,7.43080895 266.177412,3.62377383 L266.177412,0 L284.087132,0 C284.050245,1.21956025 284.087132,2.4020319 284.087132,3.62377383 C284.124019,6.1741601 284.087132,8.72672806 284.158736,11.3142029 C284.23468,14.455825 284.60138,16.8600386 285.263176,18.8191891 C286.146294,21.4088456 287.986304,22.7396717 290.744149,22.8509374 L290.807144,22.8510616 L290.807144,22.8510616 L290.950078,22.8511878 C292.001073,22.8475398 294.535225,22.6974264 296.112292,19.0788092 C296.884749,17.2309246 297.36211,15.0863311 297.435884,13.0530035 C297.509658,9.90919972 297.509658,6.76539593 297.509658,3.62377383 C297.509658,2.4020319 297.546545,1.21956025 297.509658,0 L312.991346,0 C312.991346,1.21956025 313.028233,2.4020319 313.028233,3.62377383 C313.102007,7.80169489 313.175781,11.9796159 313.358046,16.157537 C313.394933,17.0825702 313.948238,18.4504848 314.868243,19.8925766 C315.345604,20.706344 316.0074,21.07723 316.595422,21.07723 C317.330992,21.0008711 317.697692,20.2634626 317.882127,19.8205811 C318.691471,17.7108946 319.171002,15.0492425 319.31638,11.5367345 C319.427041,8.91217103 319.427041,6.28324421 319.427041,3.62377383 L319.427041,0 L331.452201,0 L331.452201,3.62377383 C331.452201,9.80666066 331.460881,15.9895475 331.460881,22.1724343 L336.703173,17.7763451 L343,25.3642351 L331.46522,35.0378132 C331.46739,45.3964394 331.47173,55.7572473 331.478239,66.1158735 L336.703173,61.7328743 L343,69.3251277 L331.482579,78.983434 C331.486918,84.293648 331.482579,89.6060438 331.489088,94.9162578 L331.489088,105.6065 L336.703173,101.234409 L343,108.822299 L331.482579,118.480605 C331.476069,127.38405 331.454371,136.280949 331.406635,145.175666 L336.703173,140.73158 L343,148.323834 L322.180547,165.781653 C315.64504,171.696193 308.27632,176.207911 301.148451,180.368379 C285.263176,189.688525 268.125913,196.933891 250.031758,202.111022 C241.795109,204.441058 233.374026,206.400209 224.768507,207.879389 C203.87962,211.391897 181.888462,212.648546 157.469273,211.688606 C153.680761,211.57734 151.252729,209.87781 149.89225,206.36312 C149.304228,204.921028 148.716206,203.518207 148.165071,202.111022 C147.281953,199.894433 146.361948,197.712751 145.481,195.491799 L151.289616,195.491799 L151.289616,190.428115 L143.421838,190.428115 C139.119078,179.777143 134.851036,169.128353 130.51356,158.516652 L139.338231,158.516652 L139.338231,153.450786 L128.454398,153.450786 C128.159302,152.674107 127.827319,151.934517 127.534393,151.157838 C125.401457,145.871623 123.194746,140.583226 121.024923,135.331917 C118.8551,130.08279 116.685277,124.831482 114.552341,119.580173 C112.566953,114.69975 110.616282,109.782239 108.630893,104.901816 L116.353294,104.901816 L116.353294,99.833769 L106.571731,99.833769 C103.262751,91.5891927 99.9147139,83.3446164 96.6057336,75.1349469 L90.5367383,60.0486158 L99.804053,60.0486158 L99.804053,54.9827502 L88.479746,54.9827502 L84.799726,45.8131407 C80.0196056,33.9818791 75.2025982,22.1833427 70.420308,10.3542628 L67.8837848,4.14083247 L75.9381683,4.14083247 C78.2121429,4.14083247 80.0564926,2.28640275 80.0564926,0 L112.308744,0 Z M182.806297,161.586279 L157.065686,161.586279 C157.065686,163.805049 157.065686,166.021638 157.100403,168.24259 L151.289616,168.24259 L151.289616,173.306274 L157.065686,173.306274 C157.100403,177.189668 157.100403,181.073062 157.065686,184.954275 C157.028799,187.986813 158.278617,190.316849 160.999575,192.275999 C163.646759,194.198061 166.515265,195.123094 169.678867,195.123094 C171.076234,195.123094 172.510487,194.97474 173.981627,194.606036 C180.380435,193.126855 182.990732,189.834697 182.953845,183.217656 C182.953845,178.780114 182.916958,174.342573 182.880071,169.867943 L182.843184,163.285809 C182.806297,162.731662 182.806297,162.175333 182.806297,161.586279 Z M228.702396,158.368298 C220.795561,159.219154 213.07316,160.032921 205.313873,160.846688 L205.313873,164.913344 C205.276986,172.012537 205.276986,178.705937 205.424534,185.54551 C205.461421,186.618898 206.08633,188.172256 206.858787,189.02093 C209.063327,191.462232 211.675794,192.683974 214.763453,192.683974 C216.273649,192.683974 217.890168,192.387265 219.619517,191.796029 C228.077487,188.986023 228.40947,184.214684 228.517961,182.62642 C228.960605,176.155551 228.886831,169.719589 228.77617,162.914923 C228.739283,161.400836 228.739283,159.884567 228.702396,158.368298 Z M265.95609,149.456126 L265.036085,149.717928 C259.44662,151.269104 253.967817,152.82028 248.523731,154.447815 L248.523731,156.483324 C248.452127,163.879226 248.378353,171.569655 248.560618,179.076823 C248.597505,180.518915 249.222414,181.810471 250.326854,182.700597 C250.732611,183.032213 251.209972,183.289651 251.72422,183.475094 C251.834881,183.512183 251.945542,183.549271 252.054033,183.58636 C252.570451,183.734714 253.084699,183.84598 253.598947,183.84598 C254.004704,183.84598 254.408291,183.808892 254.777161,183.734714 C257.682554,183.143479 260.329738,181.404678 262.315127,179.11173 C264.300515,176.783875 265.58722,173.862603 265.771655,170.830065 C265.919203,167.503 265.919203,164.062488 265.919203,160.733241 L265.919203,157.07456 C265.95609,154.524174 265.95609,152.008694 265.95609,149.456126 Z M297.325223,137.033629 C292.766425,138.994961 288.313947,140.914841 283.902697,142.91108 C283.828923,147.313715 283.792036,151.637809 283.792036,155.966266 L283.792036,165.024609 C283.792036,165.875465 283.828923,166.538697 283.939584,167.095026 L283.939584,167.169203 C284.271567,168.759649 284.96808,169.276708 285.668933,169.645412 C285.777424,169.6825 285.924972,169.719589 286.035633,169.795948 C286.404503,169.905032 286.771203,170.053386 287.248564,170.053386 C287.91036,170.053386 288.682817,169.830855 289.676596,169.239619 C290.008579,169.017087 290.338392,168.796738 290.705093,168.500029 C294.530491,165.504579 296.663427,161.658274 297.103901,157.000383 C297.36211,154.190376 297.325223,151.343281 297.325223,148.310743 C297.325223,147.239538 297.288336,146.168332 297.325223,145.092762 L297.325223,137.033629 Z M19.4307662,0.0150536059 C19.4242567,1.20625199 19.4242567,2.41490382 19.4220869,3.6191923 C19.4155774,6.68227385 19.4264265,9.76062717 19.543597,12.7997102 C19.6434089,15.3980935 20.1923741,17.9441164 21.0885111,19.964354 C21.4421922,20.7606679 22.0020066,21.2711815 22.5531417,21.2886349 C23.2344662,21.2995434 23.6272041,20.6712189 23.8311675,20.2850612 C25.0050418,18.0532005 25.7558006,15.1362917 25.9380658,12.0732101 C26.107312,9.28938386 26.1246706,6.45101555 26.1138215,3.6191923 C26.1094818,2.41490382 26.1116516,1.20843367 26.0964629,0.0150536059 L41.5390941,0.0150536059 C41.5347545,0.584472612 41.5347545,1.15389162 41.5304148,1.72549231 C41.5260752,2.34945336 41.528245,2.99086788 41.5239054,3.6191923 C41.5000373,7.37386705 41.4891882,11.1939923 41.6302267,14.9443036 C41.7669256,18.7033418 43.3465568,21.2188211 46.4515737,22.6325511 C48.4087542,23.5270407 50.8411259,22.8550826 52.6507584,20.9482925 C54.3323714,19.1854935 55.1612438,16.944906 55.1894515,14.1065377 L55.2024704,12.431006 C55.2241687,9.57300252 55.3001125,6.61900507 55.4802078,3.6191923 C55.5431327,2.5872567 55.5713404,1.57277457 55.6776617,0.525567198 L55.7275676,0.0150536059 L62.961758,0.0150536059 C63.1982687,0.547384018 63.4282699,1.07753275 63.5953463,1.62731662 C63.7971399,2.29054795 63.9967636,2.95377928 64.1963873,3.6191923 C67.2102717,13.6003875 70.2154767,23.5815827 73.2141723,33.5649596 C74.0321956,36.2920622 73.8868175,38.7922698 73.7479488,41.2030284 C73.2488895,49.8097639 73.4116262,58.4601331 73.6372878,67.3221255 C73.7718168,72.5647074 77.352025,76.9018912 82.5465816,78.1149064 C85.6646175,78.8370432 87.5740618,80.6783828 88.3768964,83.743646 C88.9866167,86.0562289 89.6874696,88.34045 90.4382284,90.7904789 L93.1353185,99.7615554 L84.3670632,98.4721813 C82.2796934,98.1732909 80.2877957,97.8853088 78.3024076,97.5667833 C76.7184367,97.3137081 75.1388054,97.0431796 73.5374759,96.7639243 L73.5287967,100.712769 C73.5092682,107.279632 73.4897398,113.848676 73.5635138,120.417721 C73.6242689,125.808657 77.5907056,131.201775 82.7852622,132.968937 C84.9312172,133.691074 87.081512,133.566718 88.8434084,132.62205 C90.5836065,131.6752 91.8594625,129.960398 92.430126,127.791806 C92.6080515,127.111121 92.7252219,126.415165 92.8771096,125.568672 L94.9774984,114.607901 L97.6355317,114.607901 L103.632923,134.480843 L97.5227009,134.480843 L97.5227009,139.566344 L105.166988,139.566344 L109.19418,152.911693 L100.22847,151.319065 C98.097704,150.948179 96.0884478,150.601291 94.0857011,150.195499 C67.1842338,144.780564 44.7005265,136.485809 25.3500437,124.83999 C21.8414397,122.730304 18.6127429,120.221369 15.4925372,117.799702 C14.1060202,116.724133 12.7195032,115.646382 11.3069484,114.607901 C10.807889,114.239197 10.3739244,113.831223 9.97250714,113.403613 L4.59785523,109.41768 L7.4273046,105.558284 C7.43815371,99.4779367 7.44032354,93.3975889 7.44683301,87.3194228 L0,81.795404 L4.11832431,76.1841178 L7.4555123,78.6603269 C7.46202177,72.0192869 7.47287088,65.3804285 7.47504071,58.7393884 L1.31708264,54.1753096 L4.68464815,49.5872324 L7.47504071,51.6576486 L7.47504071,27.4758851 L7.47504071,27.4758851 L2.02878463,23.43541 L6.11673142,17.8633942 L7.47721053,18.873513 L7.47721053,0.0150536059 L19.4307662,0.0150536059 Z M182.880071,103.902606 L157.247951,103.902606 L157.247951,108.117616 C157.247951,111.998828 157.211064,115.845133 157.247951,119.691439 C157.247951,123.537744 157.284838,127.346961 157.358612,131.191085 C157.358612,132.410645 157.835973,133.964003 158.6106,135.369006 C161.257784,140.177433 167.838857,142.690731 173.649644,141.100284 C178.063064,139.915631 180.968457,137.330338 182.181388,133.595298 C182.439597,132.855708 182.621862,132.116118 182.734693,131.30235 C182.843184,130.56276 182.880071,129.820988 182.880071,129.046491 C182.916958,120.690649 182.916958,112.295537 182.880071,103.902606 Z M228.77617,101.683835 L205.35076,103.31137 L205.313873,108.26597 C205.313873,115.810226 205.313873,123.38939 205.387647,130.931464 C205.424534,133.409855 206.674352,135.554449 209.139271,137.330338 C209.542858,137.624865 209.946445,137.847396 210.352202,138.104835 C212.190042,139.176041 214.066939,139.73237 215.978554,139.73237 C216.126102,139.73237 216.236762,139.695281 216.38431,139.695281 C217.963942,139.623286 219.58263,139.2524 221.201318,138.438632 C226.018325,136.145685 228.517961,132.558999 228.665509,127.86402 C228.886831,120.910999 228.849944,113.774717 228.813057,106.860967 C228.77617,105.122166 228.77617,103.422636 228.77617,101.683835 Z M266.066751,96.2841724 L248.560618,99.2796218 C248.560618,101.275861 248.523731,103.2721 248.523731,105.270521 C248.452127,112.48098 248.41524,119.283464 248.671279,126.199396 C248.78194,128.900319 249.849493,130.931464 251.72422,132.00267 C252.201581,132.264472 252.681112,132.449915 253.19536,132.558999 C253.377625,132.596088 253.598947,132.630995 253.783382,132.630995 C254.115365,132.670265 254.445178,132.707354 254.811878,132.707354 C255.217635,132.707354 255.694996,132.630995 256.13764,132.521911 C256.319905,132.484822 256.50434,132.484822 256.725662,132.410645 C257.387458,132.227384 258.049254,131.967763 258.71105,131.599059 C261.616444,129.934436 265.22052,126.827721 265.624107,121.356062 C265.992977,115.733868 265.992977,109.967682 266.029864,104.347669 L266.029864,97.0630329 C266.066751,96.8034127 266.066751,96.5437926 266.066751,96.2841724 Z M142.573437,118.766406 L127.384675,118.766406 L127.384675,123.86936 L142.573437,123.86936 L142.573437,118.766406 Z M41.6909818,89.4705613 C41.6844723,90.5614023 41.675793,91.64788 41.6692835,92.7321759 C41.6215474,99.2314066 41.5759811,105.368478 41.8038126,111.579727 C41.9383416,115.330038 44.1862784,118.266582 46.0501564,120.06647 C48.8644171,122.793572 50.533011,122.9332 52.1755672,122.326692 C52.9545337,122.034347 55.0310544,121.262032 55.1330361,117.040477 C55.2849237,110.750688 55.2545462,104.292909 55.2263385,98.0511167 C55.2176592,96.3843116 55.2111497,94.7218699 55.2046403,93.0485198 L41.6909818,89.4705613 Z M297.288336,88.8533635 L283.86581,92.4400487 L283.86581,97.652087 C283.828923,103.976783 283.792036,110.556736 283.939584,116.95561 C284.011188,119.211469 285.004967,120.725556 286.881864,121.541505 C287.285451,121.687678 287.689038,121.798944 288.131682,121.798944 C289.123292,121.798944 290.301505,121.318974 292.028685,119.876882 C292.838029,119.248557 293.573599,118.543874 294.163791,117.769377 C296.038518,115.513518 297.069184,112.777688 297.177675,109.782239 C297.398997,103.865517 297.36211,98.022973 297.288336,91.8117243 L297.288336,88.8533635 Z M182.880071,45.9222248 L157.028799,45.9222248 C157.028799,51.9502122 157.065686,57.941111 157.13729,63.9298281 C157.13729,64.9661271 157.100403,65.9653374 157.100403,66.9994547 C157.028799,69.3665797 156.989742,71.5853503 157.321725,73.5815893 C157.725312,75.8374486 158.829752,77.8336876 160.411553,79.4241338 C163.058737,82.0116087 167.0664,83.4537005 171.479821,83.0479076 C178.026177,82.4195832 182.843184,77.3908061 182.880071,71.0682917 C182.953845,63.7836554 182.916958,56.4990192 182.916958,49.2143829 L182.880071,45.9222248 Z M228.77617,44.816112 L205.35076,45.5906091 L205.35076,49.2514715 C205.35076,57.2735163 205.313873,65.0773929 205.461421,72.8419991 C205.461421,73.6557665 205.828121,74.8033313 206.489917,75.9858029 C208.438418,79.6837539 212.448251,81.9374315 216.529689,81.9374315 C217.37592,81.9374315 218.222151,81.865436 219.031495,81.679993 C224.510298,80.3840739 228.665509,75.5778284 228.739283,70.4748742 C228.813057,63.2665968 228.813057,56.0561377 228.77617,48.8085901 L228.77617,44.816112 Z M112.345631,44.7768417 L112.345631,50.7677405 C112.271857,57.3498752 112.23497,64.1545414 112.419405,70.8086715 C112.566953,76.8344772 118.082643,82.0879675 124.299186,81.7912588 C128.968646,81.7170816 132.609609,78.9812523 134.115466,74.8033313 C134.631884,73.3961464 134.92481,71.8427888 134.92481,70.1803471 L134.92481,45.4793433 C127.313071,45.2589934 119.846709,45.0364619 112.345631,44.7768417 Z M266.140525,43.0773114 L248.597505,43.8910788 C248.597505,45.7018749 248.560618,47.4755823 248.560618,49.2885601 C248.486844,56.3877534 248.452127,63.1182424 248.708166,69.9207269 C248.745053,70.5141444 248.818827,71.1424689 248.929488,71.7707933 C248.966375,71.8820591 248.966375,71.9933248 249.003262,72.067502 C249.074866,72.3620291 249.15081,72.6565562 249.259301,72.9161763 C249.296188,73.0274421 249.296188,73.0994376 249.335245,73.1757965 C249.406849,73.3241509 249.480623,73.5074122 249.554397,73.6557665 C249.665058,73.8412095 249.738832,74.0637411 249.849493,74.2470024 C249.88421,74.3211796 249.923267,74.3604498 249.957984,74.3953567 C250.767328,75.7632714 252.09309,76.945743 254.186969,77.6875149 C254.777161,77.9078648 255.40207,78.0191306 256.026979,78.0191306 C257.350571,78.0191306 258.747937,77.5740674 260.07153,76.7995703 C261.247574,76.1341573 262.352014,75.1720355 263.272019,73.9524753 C265.183633,71.5111731 266.103638,68.8124325 266.103638,65.5944515 C266.103638,59.3461142 266.103638,53.0606883 266.140525,46.7730807 L266.140525,43.0773114 Z M41.6215474,40.9085013 C41.6128681,42.1607868 41.5976794,43.4087089 41.5824906,44.650086 C41.5108864,51.0162341 41.4414521,57.0333131 41.823341,63.0394837 C41.9535304,65.0989915 43.2055183,67.8522742 45.012981,70.0623181 C46.5665743,71.9625631 48.5237548,72.8177825 50.3811234,72.4621683 C52.3404737,72.0738289 53.9678411,70.3481184 54.729449,67.8435475 C55.0223751,66.8988792 55.1655834,65.7142258 55.182942,64.1106895 C55.2285083,59.4506168 55.2241687,54.7839989 55.2154894,50.1151994 L55.2068101,42.0844279 L41.6215474,40.9085013 Z M297.435884,40.7101864 L283.902697,41.8555695 L283.902697,44.7768417 C283.902697,50.9902721 283.86581,57.090255 283.976471,63.1902379 C283.976471,64.9661271 284.306284,66.7791048 284.894306,68.4044579 C285.519215,70.2174357 286.697429,71.4369959 288.205456,71.8427888 C288.572156,71.9540546 288.977913,71.9933248 289.38367,71.9933248 C290.631319,71.9933248 291.920194,71.5111731 293.059351,70.5141444 C295.964744,68.1099309 297.398997,64.8177727 297.435884,60.4914973 C297.472771,56.6102849 297.472771,52.8010681 297.435884,48.9547628 L297.435884,40.7101864 Z" id="Combined-Shape" fill="#00576E" fill-rule="nonzero"></path>
                    </g>
                </g>
                <g filter="url(#filter-3)" id="building-1">
                    <g filter="url(#filter-4)" transform="translate(561.500000, 344.500000) scale(1, -1) translate(-561.500000, -344.500000) translate(476.000000, 272.000000)">
                        <path d="M166.741563,108.641044 L166.741563,117.007447 C166.741563,118.638113 165.357044,120.02744 163.418281,120.547079 C161.310834,121.114551 159.177098,121.592879 157.100321,122.266888 L88.7923094,144.41133 C86.3715931,145.196223 83.628845,145.196223 81.2081288,144.41133 L12.9001173,122.266888 C10.8233399,121.592879 8.69179521,121.114551 6.57996675,120.547079 C4.64339377,120.02744 3.25887553,118.638113 3.25887553,117.007447 L3.25887553,108.641044 L166.741563,108.641044 Z M29.2196879,96.7041357 C29.6227755,96.7041357 29.9513795,97.1824644 29.9513795,97.7673299 C29.9513795,98.0608497 29.8659424,98.3261047 29.7323102,98.5196103 L40.7339725,98.5196103 C40.6003402,98.3261047 40.5149032,98.0608497 40.5149032,97.7673299 C40.5149032,97.1824644 40.8456979,96.7041357 41.2487855,96.7041357 L49.126519,96.7041357 C49.5296066,96.7041357 49.8582106,97.1824644 49.8582106,97.7673299 C49.8582106,98.0608497 49.7727735,98.3261047 49.6391412,98.5196103 L60.6408036,98.5196103 C60.5071713,98.3261047 60.4217343,98.0608497 60.4217343,97.7673299 C60.4217343,97.1824644 60.752529,96.7041357 61.1534259,96.7041357 L69.0333501,96.7041357 C69.434247,96.7041357 69.7650417,97.1824644 69.7650417,97.7673299 C69.7650417,98.0608497 69.6796046,98.3261047 69.5459723,98.5196103 L80.5476347,98.5196103 C80.4140024,98.3261047 80.3285654,98.0608497 80.3285654,97.7673299 C80.3285654,97.1824644 80.6593601,96.7041357 81.060257,96.7041357 L88.9401812,96.7041357 C89.3410781,96.7041357 89.6718728,97.1824644 89.6718728,97.7673299 C89.6718728,98.0608497 89.5864357,98.3261047 89.4528034,98.5196103 L100.454466,98.5196103 C100.320833,98.3261047 100.235396,98.0608497 100.235396,97.7673299 C100.235396,97.1824644 100.564,96.7041357 100.967088,96.7041357 L108.844822,96.7041357 C109.247909,96.7041357 109.578704,97.1824644 109.578704,97.7673299 C109.578704,98.0608497 109.493267,98.3261047 109.359635,98.5196103 L120.361297,98.5196103 C120.227665,98.3261047 120.142228,98.0608497 120.142228,97.7673299 C120.142228,97.1824644 120.470832,96.7041357 120.873919,96.7041357 L128.751653,96.7041357 C129.15474,96.7041357 129.485535,97.1824644 129.485535,97.7673299 C129.485535,98.0608497 129.400098,98.3261047 129.266466,98.5196103 L140.265937,98.5196103 C140.132305,98.3261047 140.049059,98.0608497 140.049059,97.7673299 C140.049059,97.1824644 140.377663,96.7041357 140.78075,96.7041357 L148.658484,96.7041357 C149.061571,96.7041357 149.392366,97.1824644 149.392366,97.7673299 C149.392366,98.0608497 149.306929,98.3261047 149.171106,98.5196103 L150.991572,98.5196103 L150.991572,103.161572 C150.991572,105.159682 149.359506,106.777302 147.348449,106.777302 L22.651989,106.777302 C20.6409325,106.777302 19.0088659,105.159682 19.0088659,103.161572 L19.0088659,98.5196103 L20.8271414,98.5196103 C20.6935091,98.3261047 20.6080721,98.0608497 20.6080721,97.7673299 C20.6080721,97.1824644 20.9388668,96.7041357 21.3419544,96.7041357 L29.2196879,96.7041357 Z M29.190989,82.8643516 L29.0967891,95.6574684 L21.4008832,95.6574684 L21.2825857,82.8643516 L29.190989,82.8643516 Z M49.2358346,82.8160811 L49.1416348,95.609198 L41.4457288,95.609198 L41.3274313,82.8160811 L49.2358346,82.8160811 Z M69.1424466,82.8160811 L69.0482468,95.609198 L61.3523408,95.609198 L61.2340434,82.8160811 L69.1424466,82.8160811 Z M89.0490586,82.8160811 L88.9548588,95.609198 L81.2589528,95.609198 L81.1406554,82.8160811 L89.0490586,82.8160811 Z M108.955671,82.8160811 L108.861471,95.609198 L101.165565,95.609198 L101.047267,82.8160811 L108.955671,82.8160811 Z M128.862283,82.8160811 L128.768083,95.609198 L121.072177,95.609198 L120.953879,82.8160811 L128.862283,82.8160811 Z M148.768895,82.8160811 L148.674695,95.609198 L140.978789,95.609198 L140.860491,82.8160811 L148.768895,82.8160811 Z M49.7013569,19.4945011 L49.2697903,78.1723797 L41.2825221,78.1723797 L40.7348488,19.4945011 L49.7013569,19.4945011 Z M69.608188,19.4945011 L69.1766214,78.1723797 L61.1893532,78.1723797 L60.6416799,19.4945011 L69.608188,19.4945011 Z M89.5148001,19.4945011 L89.0832335,78.1723797 L81.0959653,78.1723797 L80.5482919,19.4945011 L89.5148001,19.4945011 Z M109.421412,19.4945011 L108.989845,78.1723797 L101.002577,78.1723797 L100.454904,19.4945011 L109.421412,19.4945011 Z M129.328024,19.4945011 L128.896458,78.1723797 L120.909189,78.1723797 L120.361516,19.4945011 L129.328024,19.4945011 Z M149.234636,19.4945011 L148.80307,78.1723797 L140.815801,78.1723797 L140.268128,19.4945011 L149.234636,19.4945011 Z M29.4922104,19.4831943 L29.0606438,78.161073 L21.0733756,78.161073 L20.5257022,19.4831943 L29.4922104,19.4831943 Z M170,0 L170,7.00751456 L159.629257,7.00751456 L159.629257,11.9930035 L154.086803,11.9930035 L154.086803,17.0458933 L15.913197,17.0458933 L15.913197,11.9930035 L10.3707426,11.9930035 L10.3707426,7.00751456 L0,7.00751456 L0,0 L170,0 Z" id="Combined-Shape" fill="#00576E" fill-rule="nonzero"></path>
                    </g>
                </g>
                <g id="building-6" transform="translate(1175.500000, 272.000000) scale(1, -1) translate(-1175.500000, -272.000000) translate(1004.000000, 127.000000)" fill-rule="nonzero">
                    <g id="Combined-Shape">
                        <use fill="black" fill-opacity="1" filter="url(#filter-6)" xlink:href="#path-5"></use>
                        <use fill-opacity="0.6" fill="#FFFFFF" xlink:href="#path-5"></use>
                    </g>
                </g>
                <g filter="url(#filter-7)" id="building-4">
                    <g filter="url(#filter-8)" transform="translate(760.500000, 351.500000) scale(1, -1) translate(-760.500000, -351.500000) translate(692.000000, 286.000000)">
                        <path d="M136,119.112731 L136,128.969411 L130.427,128.969 L130.427127,131 L127.26194,131 L127.261,128.969 L121.066,128.969 L121.066759,131 L117.901573,131 L117.901,128.969 L111.706,128.969 L111.706392,131 L108.541206,131 L108.541,128.969 L102.346,128.969 L102.346025,131 L99.1808385,131 L99.18,128.969 L92.983,128.969 L92.9835114,131 L89.8183253,131 L89.818,128.969 L83.623,128.969 L83.623144,131 L80.4579579,131 L80.457,128.969 L74.262,128.969 L74.2627767,131 L71.0975906,131 L71.097,128.969 L64.9,128.969 L64.9002635,131 L61.7350774,131 L61.735,128.969 L55.539,128.969 L55.5398962,131 L52.3747101,131 L52.374,128.969 L46.179,128.969 L46.1795289,131 L43.0143427,131 L43.014,128.969 L36.817,128.969 L36.8170156,131 L33.6518295,131 L33.651,128.969 L27.456,128.969 L27.4566483,131 L24.2936081,131 L24.293,128.969 L18.098,128.969 L18.0984269,131 L14.9332408,131 L14.933,128.969 L8.738,128.969 L8.73805955,131 L5.57287344,131 L5.572,128.969 L0,128.969411 L0,119.112731 L136,119.112731 Z M129.541518,105.598395 L129.541518,108.67131 L131.067245,110.208848 L131.067,113.219 L132.152421,113.219915 L132.152,115.003 L134.221058,115.003978 L134.221058,117.441117 L1.77894189,117.441117 L1.77894189,115.003978 L3.845,115.003 L3.84543289,113.219915 L4.62,113.219 L4.62074254,110.208848 L6.14646954,108.67131 L6.14646954,105.598395 L129.541518,105.598395 Z M47.0865961,23.8249249 L47.086,67.74 L48.2524575,67.7403513 L48.252,68.52 L48.4297079,68.5203655 L47.1872383,71.4116296 L47.086,71.411 L47.0865961,72.4812027 C47.0865961,84.6431097 56.9598309,94.5927779 69.02831,94.5927779 C81.0967891,94.5927779 90.9700238,84.6431097 90.9700238,72.4812027 L90.97,71.411 L90.7215299,71.4116296 L89.5348533,68.5203655 L89.702,68.52 L89.7024473,67.7403513 L90.97,67.74 L90.9700238,23.8249249 L130.679698,23.8249249 L130.679,67.74 L131.948562,67.7403513 L131.948562,68.7242893 L131.65,68.724 L131.650069,71.4116296 L130.679,71.411 L130.679,96.306 L132.153923,99.9503747 L129.815,99.95 L129.815,101.663 L130.467898,101.663508 L130.467898,104.470435 L5.52995566,104.470435 L5.52995566,101.663508 L6.298,101.663 L6.298,99.95 L3.84693501,99.9503747 L5.13661423,96.0881475 L5.149,96.088 L5.149,71.411 L4.2758982,71.4116296 L4.275,68.724 L3.96560266,68.7242893 L3.96560266,67.7403513 L5.149,67.74 L5.14948956,23.8249249 L47.0865961,23.8249249 Z M50.3575745,0 L50.3575745,9.85668064 L49.718,9.856 L49.7180996,11.8440193 L48.975,11.844 L48.9756221,13.6280828 L48.699,13.628 L48.699017,16.6385008 L48.1518153,18.1760392 L48.1518153,21.2489534 L3.86710636,21.2489534 L3.86710636,18.1760392 L3.3199047,16.6385008 L3.319,13.628 L2.92913833,13.6280828 L2.929,11.844 L2.18880666,11.8440193 L2.188,9.856 L1.54933178,9.85668064 L1.54933178,0 L50.3575745,0 Z M134.272559,0 L134.272559,9.85668064 L133.667,9.856 L133.667419,11.8440193 L132.961,11.844 L132.961421,13.6280828 L132.694,13.628 L132.694258,16.6385008 L132.170661,18.1760392 L132.170661,21.2489534 L89.997507,21.2489534 L89.997507,18.1760392 L89.476056,16.6385008 L89.476,13.628 L89.1058901,13.6280828 L89.105,11.844 L88.3998927,11.8440193 L88.399,9.856 L87.7904603,9.85668064 L87.7904603,0 L134.272559,0 Z" id="Combined-Shape" fill="#00576E" fill-rule="nonzero"></path>
                    </g>
                </g>
                <g filter="url(#filter-9)" id="building-2">
                    <g filter="url(#filter-10)" transform="translate(21.500000, 208.500000) scale(1, -1) translate(-21.500000, -208.500000) ">
                        <path d="M27.6980573,359.106093 L27.6980573,362.296522 L27.135,362.296 L27.1356602,363.491847 L25.419,363.491 L24.6230046,373.13671 C26.2171657,374.636747 27.2776257,377.100098 27.3435307,379.902366 L27.3467896,380.179879 C27.3467896,383.776884 25.7085206,386.857303 23.3844427,388.130679 L23.0121208,392.644695 C24.6557965,393.672169 25.7958182,395.920489 25.7958182,398.527891 C25.7958182,401.640919 24.1707825,404.242095 22.0037218,404.864816 L21.0013829,417 L19.9995051,404.864816 C17.8324443,404.242095 16.2074086,401.640919 16.2074086,398.527891 C16.2074086,395.921016 17.3469699,393.673077 18.9901104,392.645318 L18.6172718,388.129576 C16.2946294,386.855526 14.6559763,383.775846 14.6559763,380.179879 C14.6559763,377.26349 15.7337974,374.686687 17.3801791,373.137265 L16.583,363.491 L14.8689496,363.491847 L14.868,362.296 L14.3019427,362.296522 L14.3019427,359.106093 L27.6980573,359.106093 Z M29.3921633,353.67932 L29.3921633,356.608951 L12.6124465,356.608951 L12.6124465,353.67932 L29.3921633,353.67932 Z M39.2324992,0 L37.549,57.28 L40.0707935,57.2801625 L40.07,62.93 L42,62.9307869 L42,67.5208326 L37.249,67.52 L34.05,176.388 L35.811327,176.388805 L35.811327,179.474916 L33.96,179.474 L28.8926902,351.983915 L13.1109977,351.983915 L8.043,179.474 L6.18867303,179.474916 L6.18867303,176.388805 L7.952,176.388 L4.754,67.52 L0,67.5208326 L0,62.9307869 L1.931,62.93 L1.93151136,57.2801625 L4.454,57.28 L2.77118867,0 L39.2324992,0 Z" id="Combined-Shape" fill="#00576E" fill-rule="nonzero"></path>
                    </g>
                </g>
                <g filter="url(#filter-11)" id="building-5">
                    <g filter="url(#filter-12)" transform="translate(916.500000, 324.500000) scale(1, -1) translate(-916.500000, -324.500000) translate(874.000000, 232.000000)">
                        <path d="M84,156.638924 L84,164.022027 L72.123,164.022 L72.1237785,170.818379 L69.863,170.818 L69.8631922,177.655869 L62.186,177.655 L62.1867535,185 L19.9652552,185 L19.965,177.655 L7.00977199,177.655869 L7.009,170.818 L2.72095548,170.818379 L2.72,164.022 L0,164.022027 L0,156.638924 L84,156.638924 Z M20.295114,140.88087 L20.295114,143.515836 C20.295114,146.798076 21.2951868,148.257708 21.8009379,148.786009 L23.2812161,148.785987 L23.281,151.797 L24.4733985,151.797686 L24.4733985,154.681644 L5.9630836,154.681644 L5.9630836,151.797686 L7.157,151.797 L7.15743757,148.785987 L8.83706428,148.786009 C9.34281537,148.257708 10.3428882,146.798076 10.3428882,143.515836 L10.3428882,143.515836 L10.3428882,140.88087 L20.295114,140.88087 Z M47.0747014,140.88087 L47.0747014,143.515836 C47.0747014,146.798076 48.0747742,148.257708 48.5805253,148.786009 L50.0608035,148.785987 L50.06,151.797 L51.2551574,151.797686 L51.2551574,154.681644 L32.742671,154.681644 L32.742671,151.797686 L33.937,151.797 L33.937025,148.785987 L35.6166517,148.786009 C36.1224028,148.257708 37.1224756,146.798076 37.1224756,143.515836 L37.1224756,143.515836 L37.1224756,140.88087 L47.0747014,140.88087 Z M73.8564604,140.88087 L73.8564604,143.515836 C73.8564604,146.798076 74.855321,148.257708 75.360459,148.786009 L76.8425624,148.785987 L76.842,151.797 L78.0369164,151.797686 L78.0369164,154.681644 L59.52443,154.681644 L59.52443,151.797686 L60.718,151.797 L60.7187839,148.785987 L62.3980643,148.786009 C62.9032024,148.257708 63.902063,146.798076 63.902063,143.515836 L63.902063,143.515836 L63.902063,140.88087 L73.8564604,140.88087 Z M21.6456026,0 L20.1950054,137.06374 L10.342671,137.06374 L8.89207383,0 L21.6456026,0 Z M48.42519,0 L46.9745928,137.06374 L37.1222584,137.06374 L35.6716612,0 L48.42519,0 Z M75.206949,0 L73.7541802,137.06374 L63.9018458,137.06374 L62.4512486,0 L75.206949,0 Z" id="Combined-Shape" fill="#00576E" fill-rule="nonzero"></path>
                    </g>
                </g>
            </g>
        </g>
    </g>
</svg>