<?xml version="1.0" encoding="UTF-8"?>
<svg width="1440px" height="1041px" viewBox="0 0 1440 1041" version="1.1" xmlns="http://www.w3.org/2000/svg" xmlns:xlink="http://www.w3.org/1999/xlink">
    <!-- Generator: Sketch 53.2 (72643) - https://sketchapp.com -->
    <title>Desktop HD</title>
    <desc>Created with Sketch.</desc>
    <defs>
        <linearGradient x1="1.09242265%" y1="24.4670176%" x2="199.512774%" y2="132.160934%" id="linearGradient-1">
            <stop stop-color="#DFF3F3" offset="0.0422297297%"></stop>
            <stop stop-color="#E1F6F6" offset="13.6850718%"></stop>
            <stop stop-color="#FFE2DE" offset="38.0659908%"></stop>
            <stop stop-color="#FCBDB4" offset="54.0012669%"></stop>
            <stop stop-color="#FEE3EF" offset="71.3708826%"></stop>
            <stop stop-color="#FEE3EF" offset="100%"></stop>
        </linearGradient>
    </defs>
    <g id="Desktop-HD" stroke="none" stroke-width="1" fill="none" fill-rule="evenodd">
        <rect fill="#F8ECF1" x="0" y="0" width="1440" height="1041"></rect>
        <rect id="Mask" fill="url(#linearGradient-1)" x="0" y="0" width="1440" height="1041"></rect>
        <g id="Group-2" transform="translate(-18.000000, 891.000000)" stroke="#30ADC3" stroke-linecap="round" stroke-linejoin="round" stroke-width="3">
            <path d="M484.971366,14 C462.976815,14 462.976815,0 440.982264,0 C418.984558,0 418.984558,14 396.990007,14 C374.989147,14 374.989147,0 352.988286,0 C330.990581,0 330.990581,14 308.99603,14 C286.998324,14 286.998324,0 264.997464,0 C242.999758,0 242.999758,14 220.998898,14 C198.998037,14 198.998037,0 176.997177,0 C154.999471,0 154.999471,14 133.00492,14 C111.000905,14 111.000905,0 88.99689,0 C66.9928749,0 66.9928749,14 44.9888599,14 C22.9785354,14 22.9785354,0 0.971365639,0" id="Path-Copy"></path>
            <path d="M1457.97137,14 C1435.97681,14 1435.97681,0 1413.98226,0 C1391.98456,0 1391.98456,14 1369.99001,14 C1347.98915,14 1347.98915,0 1325.98829,0 C1303.99058,0 1303.99058,14 1281.99603,14 C1259.99832,14 1259.99832,0 1237.99746,0 C1215.99976,0 1215.99976,14 1193.9989,14 C1171.99804,14 1171.99804,0 1149.99718,0 C1127.99947,0 1127.99947,14 1106.00492,14 C1084.00091,14 1084.00091,0 1061.99689,0 C1039.99287,0 1039.99287,14 1017.98886,14 C995.978535,14 995.978535,0 973.971366,0" id="Path-Copy-3"></path>
            <path d="M971.971366,14 C949.976815,14 949.976815,0 927.982264,0 C905.984558,0 905.984558,14 883.990007,14 C861.989147,14 861.989147,0 839.988286,0 C817.990581,0 817.990581,14 795.99603,14 C773.998324,14 773.998324,0 751.997464,0 C729.999758,0 729.999758,14 707.998898,14 C685.998037,14 685.998037,0 663.997177,0 C641.999471,0 641.999471,14 620.00492,14 C598.000905,14 598.000905,0 575.99689,0 C553.992875,0 553.992875,14 531.98886,14 C509.978535,14 509.978535,0 487.971366,0" id="Path-Copy-2" transform="translate(729.971366, 7.000000) scale(-1, 1) translate(-729.971366, -7.000000) "></path>
        </g>
        <g id="Group-2-Copy" transform="translate(-18.000000, 855.000000)" stroke="#30ADC3" stroke-linecap="round" stroke-linejoin="round" stroke-width="3">
            <path d="M484.971366,14 C462.976815,14 462.976815,0 440.982264,0 C418.984558,0 418.984558,14 396.990007,14 C374.989147,14 374.989147,0 352.988286,0 C330.990581,0 330.990581,14 308.99603,14 C286.998324,14 286.998324,0 264.997464,0 C242.999758,0 242.999758,14 220.998898,14 C198.998037,14 198.998037,0 176.997177,0 C154.999471,0 154.999471,14 133.00492,14 C111.000905,14 111.000905,0 88.99689,0 C66.9928749,0 66.9928749,14 44.9888599,14 C22.9785354,14 22.9785354,0 0.971365639,0" id="Path-Copy"></path>
            <path d="M1457.97137,14 C1435.97681,14 1435.97681,0 1413.98226,0 C1391.98456,0 1391.98456,14 1369.99001,14 C1347.98915,14 1347.98915,0 1325.98829,0 C1303.99058,0 1303.99058,14 1281.99603,14 C1259.99832,14 1259.99832,0 1237.99746,0 C1215.99976,0 1215.99976,14 1193.9989,14 C1171.99804,14 1171.99804,0 1149.99718,0 C1127.99947,0 1127.99947,14 1106.00492,14 C1084.00091,14 1084.00091,0 1061.99689,0 C1039.99287,0 1039.99287,14 1017.98886,14 C995.978535,14 995.978535,0 973.971366,0" id="Path-Copy-3"></path>
            <path d="M971.971366,14 C949.976815,14 949.976815,0 927.982264,0 C905.984558,0 905.984558,14 883.990007,14 C861.989147,14 861.989147,0 839.988286,0 C817.990581,0 817.990581,14 795.99603,14 C773.998324,14 773.998324,0 751.997464,0 C729.999758,0 729.999758,14 707.998898,14 C685.998037,14 685.998037,0 663.997177,0 C641.999471,0 641.999471,14 620.00492,14 C598.000905,14 598.000905,0 575.99689,0 C553.992875,0 553.992875,14 531.98886,14 C509.978535,14 509.978535,0 487.971366,0" id="Path-Copy-2" transform="translate(729.971366, 7.000000) scale(-1, 1) translate(-729.971366, -7.000000) "></path>
        </g>
        <g id="Group" opacity="0.462774368" style="mix-blend-mode: darken;" transform="translate(491.000000, 120.000000)">
            <path d="M402.375556,491.623425 L399.891346,374.071724 L402.375556,368.142415 L402.375556,344.631616 C400.845576,299.903754 386.81426,206.626665 279.272955,184.453114 L279.272955,168.016199 L260.128708,168.016199 L260.128708,118.510484 C260.128708,105.53711 252.247132,94.4056069 241.002811,89.6506911 L241.002811,89.6506911 C241.002811,89.6506911 242.769055,87.1918056 244.477953,85.0586307 C234.90583,77.603987 234.933356,64.9884363 234.3599,63.2681339 C233.786444,61.5478315 230.398467,59.4444752 230.398467,59.4444752 L231.978912,55.049676 L228.81573,50.462203 L225.64796,55.049676 L227.228404,59.4444752 C227.228404,59.4444752 223.840427,61.5478315 223.266972,63.2681339 C222.693516,64.9884363 222.721042,77.603987 213.148918,85.0586307 C214.855523,87.1918056 216.62406,89.6506911 216.62406,89.6506911 C205.37974,94.4056069 197.488988,105.53711 197.488988,118.510484 L197.488988,168.016199 L178.344741,168.016199 L178.344741,184.453114 C70.8034357,206.626665 56.7721202,299.903754 55.2444341,344.631616 L55.2444341,368.142415 L57.7286444,374.071724 L55.2444341,491.623425 L0,491.623425 L0,513.030868 L9.5583606,527.366721 L9.5583606,707.253006 L228.808848,707.253006 L448.061629,707.253006 L448.061629,527.366721 L457.617696,513.030868 L457.617696,491.623425 L402.375556,491.623425 Z" id="Fill-1" fill="#30ADC3"></path>
            <g id="Group-13" transform="translate(218.677796, 0.000000)" stroke="#30ADC3" stroke-linecap="round" stroke-linejoin="round" stroke-width="3">
                <path d="M10.3222037,18.349892 L10.3222037,57.3434125" id="Stroke-1"></path>
                <path d="M10.3222037,0 L10.3222037,6.8812095" id="Stroke-3"></path>
                <path d="M16.0567613,12.6155508 L20.6444073,12.6155508" id="Stroke-5"></path>
                <path d="M0,12.6155508 L4.58764608,12.6155508" id="Stroke-7"></path>
                <path d="M16.0567613,12.6155508 C16.0567613,15.7809071 13.4876795,18.349892 10.3222037,18.349892 C7.1538606,18.349892 4.58764608,15.7809071 4.58764608,12.6155508 C4.58764608,9.45019438 7.1538606,6.8812095 10.3222037,6.8812095 C13.4876795,6.8812095 16.0567613,9.45019438 16.0567613,12.6155508 Z" id="Stroke-9"></path>
            </g>
        </g>
        <g id="Group-38-Copy-2" transform="translate(975.000000, 631.000000)" stroke="#30ADC3" stroke-linecap="round" stroke-linejoin="round" stroke-width="3">
            <g id="Group-37">
                <path d="M4.8343,55.131 C4.6253,51.73 7.3123,51.253 9.0003,51.881 C12.3663,53.135 12.5003,58.628 12.5003,58.628 L12.5003,103.295" id="Stroke-1"></path>
                <polyline id="Stroke-3" points="12.4998 15.1251 9.8328 15.1251 0.4998 22.3741 6.4998 46.8771 12.4998 46.8771"></polyline>
                <polyline id="Stroke-5" points="12.4998 15.1251 15.1668 15.1251 24.4998 22.3741 18.4998 46.8771 12.4998 46.8771"></polyline>
                <path d="M20.1658,55.131 C20.3748,51.73 17.6868,51.253 15.9998,51.881 C12.6338,53.135 12.4998,58.628 12.4998,58.628 L12.4998,103.295" id="Stroke-7"></path>
                <path d="M15.3748,8.2491 C15.3748,9.8371 14.0878,11.1241 12.4998,11.1241 C10.9128,11.1241 9.6248,9.8371 9.6248,8.2491 C9.6248,6.6611 10.9128,5.3741 12.4998,5.3741 C14.0878,5.3741 15.3748,6.6611 15.3748,8.2491 Z" id="Stroke-9"></path>
                <path d="M12.4998,5.3741 L12.4998,0.4991" id="Stroke-11"></path>
                <path d="M17.2498,108.045 C17.2498,110.668 15.1238,112.795 12.4998,112.795 C9.8768,112.795 7.7498,110.668 7.7498,108.045 C7.7498,105.421 9.8768,103.295 12.4998,103.295 C15.1238,103.295 17.2498,105.421 17.2498,108.045 Z" id="Stroke-13"></path>
                <polyline id="Stroke-15" points="10.0774 112.1251 4.8224 196.5031 12.4994 196.5031"></polyline>
                <polyline id="Stroke-17" points="14.9222 112.1251 20.1772 196.5031 12.5002 196.5031"></polyline>
                <path d="M0.4998,22.3741 L24.4998,22.3741" id="Stroke-19"></path>
                <polyline id="Stroke-21" points="9.6121 46.8771 7.7371 22.3741 12.5001 15.1251"></polyline>
                <polyline id="Stroke-23" points="15.388 46.8771 17.263 22.3741 12.5 15.1251"></polyline>
                <path d="M17.6268,155.547 L7.3738,155.547" id="Stroke-25"></path>
                <path d="M7.2435,157.6329 L17.7785,157.6329" id="Stroke-27"></path>
                <path d="M12.4998,151.378 L12.4998,133.211" id="Stroke-29"></path>
                <path d="M5.1053,191.963 L19.8953,191.963" id="Stroke-31"></path>
                <path d="M10.5921,163.211 L9.4251,187.461" id="Stroke-33"></path>
                <path d="M14.4295,163.211 L15.5965,187.461" id="Stroke-35"></path>
            </g>
        </g>
        <g id="Group-4" transform="translate(-18.000000, 510.000000)" stroke="#30ADC3" stroke-linecap="round" stroke-linejoin="round" stroke-width="3">
            <polygon id="Stroke-1" points="65.375 317.32 125.219 317.32 125.219 18.607 130.75 11.566 130.75 -2.84217094e-14 65.375 -2.84217094e-14 0 -2.84217094e-14 0 11.566 5.531 18.607 5.531 317.32"></polygon>
        </g>
        <g id="Group-38-Copy" transform="translate(711.000000, 631.000000)" stroke="#30ADC3" stroke-linecap="round" stroke-linejoin="round" stroke-width="3">
            <g id="Group-37">
                <path d="M4.8343,55.131 C4.6253,51.73 7.3123,51.253 9.0003,51.881 C12.3663,53.135 12.5003,58.628 12.5003,58.628 L12.5003,103.295" id="Stroke-1"></path>
                <polyline id="Stroke-3" points="12.4998 15.1251 9.8328 15.1251 0.4998 22.3741 6.4998 46.8771 12.4998 46.8771"></polyline>
                <polyline id="Stroke-5" points="12.4998 15.1251 15.1668 15.1251 24.4998 22.3741 18.4998 46.8771 12.4998 46.8771"></polyline>
                <path d="M20.1658,55.131 C20.3748,51.73 17.6868,51.253 15.9998,51.881 C12.6338,53.135 12.4998,58.628 12.4998,58.628 L12.4998,103.295" id="Stroke-7"></path>
                <path d="M15.3748,8.2491 C15.3748,9.8371 14.0878,11.1241 12.4998,11.1241 C10.9128,11.1241 9.6248,9.8371 9.6248,8.2491 C9.6248,6.6611 10.9128,5.3741 12.4998,5.3741 C14.0878,5.3741 15.3748,6.6611 15.3748,8.2491 Z" id="Stroke-9"></path>
                <path d="M12.4998,5.3741 L12.4998,0.4991" id="Stroke-11"></path>
                <path d="M17.2498,108.045 C17.2498,110.668 15.1238,112.795 12.4998,112.795 C9.8768,112.795 7.7498,110.668 7.7498,108.045 C7.7498,105.421 9.8768,103.295 12.4998,103.295 C15.1238,103.295 17.2498,105.421 17.2498,108.045 Z" id="Stroke-13"></path>
                <polyline id="Stroke-15" points="10.0774 112.1251 4.8224 196.5031 12.4994 196.5031"></polyline>
                <polyline id="Stroke-17" points="14.9222 112.1251 20.1772 196.5031 12.5002 196.5031"></polyline>
                <path d="M0.4998,22.3741 L24.4998,22.3741" id="Stroke-19"></path>
                <polyline id="Stroke-21" points="9.6121 46.8771 7.7371 22.3741 12.5001 15.1251"></polyline>
                <polyline id="Stroke-23" points="15.388 46.8771 17.263 22.3741 12.5 15.1251"></polyline>
                <path d="M17.6268,155.547 L7.3738,155.547" id="Stroke-25"></path>
                <path d="M7.2435,157.6329 L17.7785,157.6329" id="Stroke-27"></path>
                <path d="M12.4998,151.378 L12.4998,133.211" id="Stroke-29"></path>
                <path d="M5.1053,191.963 L19.8953,191.963" id="Stroke-31"></path>
                <path d="M10.5921,163.211 L9.4251,187.461" id="Stroke-33"></path>
                <path d="M14.4295,163.211 L15.5965,187.461" id="Stroke-35"></path>
            </g>
        </g>
        <g id="Group-5" transform="translate(1039.000000, 496.000000)" stroke="#30ADC3" stroke-linecap="round" stroke-linejoin="round" stroke-width="3">
            <g id="Group-7">
                <path d="M261.7914,31.6003 C276.8824,26.7133 267.8274,39.6843 267.8274,39.6843 L267.8274,44.7513 L270.5224,47.8773 L270.5224,60.8123 C270.5224,60.8123 272.5704,61.7823 272.5704,65.8783 C275.2654,65.8783 274.5114,73.8553 274.5114,73.8553 L276.9894,73.8553 L274.5114,77.5203 L274.5114,99.8333 L276.9894,99.8333 C276.9894,106.0853 279.2534,105.1153 282.4874,109.3193 C285.7214,113.5233 282.4874,120.8533 282.4874,120.8533 L282.4874,126.6023 L287.2294,126.6023 L282.4154,131.4163 L282.4154,182.0793 L241.1664,182.0793 L241.1664,131.4163 L236.3524,126.6023 L241.0954,126.6023 L241.0954,120.8533 C241.0954,120.8533 237.8604,113.5233 241.0954,109.3193 C244.3284,105.1153 246.5924,106.0853 246.5924,99.8333 L249.0714,99.8333 L249.0714,77.5203 L246.5924,73.8553 L249.0714,73.8553 C249.0714,73.8553 247.8864,67.1723 251.0124,65.8783 C251.0124,61.7823 253.0604,60.8123 253.0604,60.8123 L253.0604,47.8773 L255.7544,44.7513 L255.7544,39.6843 C255.7544,39.6843 246.6994,26.7133 261.7914,31.6003" id="Stroke-1"></path>
                <g id="Group-17" transform="translate(257.000000, 0.000000)">
                    <path d="M4.8654,18.2914 C-2.6806,15.8484 1.8464,22.3334 1.8464,22.3334 L1.8464,24.8674 L4.8654,24.8674" id="Stroke-1"></path>
                    <path d="M4.8654,9.1616 C-0.3526,7.4726 2.7784,11.9566 2.7784,11.9566 L2.7784,13.7076 L4.8654,13.7076" id="Stroke-3"></path>
                    <path d="M8.01859129,9.1616 C2.80059129,7.4726 5.93159129,11.9566 5.93159129,11.9566 L5.93159129,13.7076 L8.01859129,13.7076" id="Stroke-3-Copy" transform="translate(6.509296, 11.244442) scale(-1, 1) translate(-6.509296, -11.244442) "></path>
                    <path d="M4.8654,24.8676 L4.8654,29.5286" id="Stroke-5"></path>
                    <path d="M4.8654,13.7075 L4.8654,18.2915" id="Stroke-7"></path>
                    <path d="M4.8654,0.4999 L4.8654,9.1619" id="Stroke-9"></path>
                    <path d="M2.9612,3.2309 L6.7702,3.2309" id="Stroke-11"></path>
                    <path d="M4.8654,18.2914 C12.4104,15.8484 7.8834,22.3334 7.8834,22.3334 L7.8834,24.8674 L4.8654,24.8674" id="Stroke-13"></path>
                </g>
                <path d="M282.4877,126.6022 L241.0947,126.6022" id="Stroke-3"></path>
                <polygon id="Stroke-5" points="261.7914 331.6969 523.0824 331.6969 523.0824 217.0049 519.6334 212.4769 515.3194 217.0049 504.1104 203.6379 506.6974 201.0509 456.0344 182.0799 261.7914 182.0799 67.5474 182.0799 16.8844 201.0509 19.4714 203.6379 8.2624 217.0049 3.9494 212.4769 0.4994 217.0049 0.4994 331.6969"></polygon>
            </g>
        </g>
        <g id="Group-11" transform="translate(832.000000, 714.000000)" stroke="#30ADC3" stroke-linecap="round" stroke-linejoin="round" stroke-width="3">
            <path d="M23.9326,89.5534 C23.9326,89.5534 -15.1614,62.4014 7.6416,51.5414 C-2.1304,24.3904 12.2156,0.4994 23.9326,0.4994" id="Stroke-1"></path>
            <path d="M23.9326,89.5534 C23.9326,89.5534 63.0256,62.4014 40.2226,51.5414 C49.9956,24.3904 35.6496,0.4994 23.9326,0.4994" id="Stroke-3"></path>
            <path d="M23.9326,18.7546 L23.9326,113.4086" id="Stroke-5"></path>
            <path d="M35.6484,63.2233 L23.9324,75.0153" id="Stroke-7"></path>
            <path d="M12.2158,63.2233 L23.9328,75.0153" id="Stroke-9"></path>
        </g>
        <polygon id="Stroke-1" stroke="#30ADC3" stroke-width="3" stroke-linecap="round" stroke-linejoin="round" points="282.615 667.970728 220 667.970728 220 828 623 828 623 643.350917 580.853 643.350917 580.853 627.25231 568.54 627.25231 568.54 643.350917 524.973 643.350917 524.973 626.306509 482.824 626.306509 482.824 605 472.88 605 472.88 626.306509 431.208 626.306509 431.208 670.338229 403.396 670.338229 403.396 663.356701 392.973 663.356701 392.973 670.338229 361.121 670.338229 361.121 634.828713 347.862 634.828713 347.862 667.970728 298.478 667.970728 290.561 660.052397"></polygon>
        <g id="Group-8" transform="translate(139.000000, 705.000000)" stroke="#30ADC3" stroke-linecap="round" stroke-linejoin="round" stroke-width="3">
            <g id="Group-7">
                <path d="M16.9357,122.5519 L16.9357,56.3209" id="Stroke-1"></path>
                <path d="M16.9323,104.3791 C17.3183,104.4951 -20.2327,104.3791 16.9323,0.5001" id="Stroke-3"></path>
                <path d="M16.9391,104.3791 C16.5531,104.4951 54.1061,104.3791 16.9391,0.5001" id="Stroke-5"></path>
            </g>
        </g>
        <path d="M-4.4408921e-16,828 L1440.02863,828" id="Line" stroke="#30ADC3" stroke-width="3" stroke-linecap="round" stroke-linejoin="round"></path>
        <g id="Group-3" style="mix-blend-mode: darken;" transform="translate(277.000000, 275.000000)" fill="#E25641" fill-rule="nonzero">
            <path d="M74.2373352,32.186931 L138.925292,32.186931 L138.925292,48.1772125 L93.2560791,48.1772125 L93.2560791,66.7114024 L135.169999,66.7114024 L135.169999,81.490299 L93.2560791,81.490299 L93.2560791,102.689536 L139.8944,102.689536 L139.8944,118.679817 L74.2373352,118.679817 L74.2373352,32.186931 Z M151.402557,56.0512148 L167.635116,56.0512148 L167.635116,64.5309095 L167.877393,64.5309095 C170.138656,61.3005335 172.864245,58.7970296 176.054241,57.0203227 C179.244238,55.2436159 182.898546,54.3552758 187.017275,54.3552758 C190.974486,54.3552758 194.588415,55.1224786 197.859171,56.6569073 C201.129926,58.1913359 203.613241,60.8967352 205.309188,64.7731865 C207.166654,62.0273669 209.690348,59.6046212 212.880344,57.5048767 C216.070341,55.4051323 219.845786,54.3552758 224.206794,54.3552758 C227.517929,54.3552758 230.58674,54.7590668 233.413319,55.5666608 C236.239898,56.3742548 238.662644,57.6663858 240.681629,59.4430927 C242.700614,61.2197995 244.275399,63.5415975 245.40603,66.4085562 C246.536662,69.275515 247.101969,72.7279276 247.101969,76.7658976 L247.101969,118.679817 L229.900303,118.679817 L229.900303,83.1862379 C229.900303,81.0864935 229.819545,79.1079179 229.658026,77.2504516 C229.496507,75.3929854 229.052337,73.7778216 228.325503,72.4049118 C227.598668,71.0320019 226.528622,69.9417664 225.115332,69.1341724 C223.702043,68.3265784 221.784036,67.9227874 219.361254,67.9227874 C216.938472,67.9227874 214.980086,68.387147 213.486037,69.3158801 C211.991988,70.2446132 210.820994,71.4559861 209.97302,72.950035 C209.125047,74.4440839 208.559739,76.1400059 208.277081,78.0378519 C207.994423,79.9356978 207.853097,81.8537048 207.853097,83.7919304 L207.853097,118.679817 L190.65143,118.679817 L190.65143,83.5496534 C190.65143,81.6921872 190.611051,79.8549384 190.530292,78.0378519 C190.449532,76.2207653 190.10631,74.5450329 189.500614,73.0106043 C188.894919,71.4761756 187.885442,70.2446132 186.472152,69.3158801 C185.058863,68.387147 182.979339,67.9227874 180.233519,67.9227874 C179.425925,67.9227874 178.355879,68.1044933 177.023349,68.4679106 C175.690819,68.8313279 174.398688,69.5177726 173.146917,70.5272651 C171.895147,71.5367576 170.825101,72.990405 169.936747,74.8882509 C169.048394,76.7860969 168.604224,79.2694112 168.604224,82.3382685 L168.604224,118.679817 L151.402557,118.679817 L151.402557,56.0512148 Z M306.580971,87.4260853 C306.580971,84.7610251 306.298317,82.2171421 305.733002,79.79436 C305.167686,77.371578 304.279346,75.231486 303.067955,73.3740197 C301.856564,71.5165535 300.342348,70.0427165 298.525261,68.9524646 C296.708175,67.8622127 294.507514,67.3170949 291.923213,67.3170949 C289.419672,67.3170949 287.2392,67.8622127 285.381734,68.9524646 C283.524268,70.0427165 281.989862,71.5165535 280.778471,73.3740197 C279.56708,75.231486 278.67874,77.371578 278.113424,79.79436 C277.548109,82.2171421 277.265455,84.7610251 277.265455,87.4260853 C277.265455,90.0103862 277.548109,92.51389 278.113424,94.9366721 C278.67874,97.3594541 279.56708,99.4995462 280.778471,101.357012 C281.989862,103.214479 283.524268,104.688316 285.381734,105.778568 C287.2392,106.868819 289.419672,107.413937 291.923213,107.413937 C294.507514,107.413937 296.708175,106.868819 298.525261,105.778568 C300.342348,104.688316 301.856564,103.214479 303.067955,101.357012 C304.279346,99.4995462 305.167686,97.3594541 305.733002,94.9366721 C306.298317,92.51389 306.580971,90.0103862 306.580971,87.4260853 Z M260.669481,32.186931 L277.871147,32.186931 L277.871147,63.68294 L278.113424,63.68294 C280.213169,60.452564 283.059895,58.0903869 286.653688,56.596338 C290.247482,55.1022891 293.982548,54.3552758 297.858999,54.3552758 C301.008616,54.3552758 304.117806,55.0013413 307.186664,56.2934918 C310.255521,57.5856422 313.021489,59.5642178 315.484651,62.2292781 C317.947812,64.8943383 319.946578,68.3063719 321.481006,72.465481 C323.015435,76.6245902 323.782638,81.5710293 323.782638,87.3049468 C323.782638,93.0388643 323.015435,97.9853034 321.481006,102.144413 C319.946578,106.303522 317.947812,109.715555 315.484651,112.380616 C313.021489,115.045676 310.255521,117.024251 307.186664,118.316402 C304.117806,119.608552 301.008616,120.254618 297.858999,120.254618 C293.255714,120.254618 289.137046,119.527794 285.502873,118.074125 C281.8687,116.620456 279.122921,114.157331 277.265455,110.684677 L277.023178,110.684677 L277.023178,118.679817 L260.669481,118.679817 L260.669481,32.186931 Z M376.841299,80.6423295 C376.033705,76.2813218 374.600247,72.9702361 372.540882,70.7089728 C370.481518,68.4477096 367.352138,67.3170949 363.152649,67.3170949 C360.406829,67.3170949 358.12541,67.7814545 356.308324,68.7101876 C354.491237,69.6389207 353.03759,70.789725 351.947338,72.1626348 C350.857086,73.5355446 350.089883,74.989192 349.645707,76.5236206 C349.20153,78.0580493 348.939066,79.4309385 348.858306,80.6423295 L376.841299,80.6423295 Z M348.858306,91.5447942 C349.100585,97.1171929 350.513853,101.155102 353.098154,103.658644 C355.682455,106.162185 359.397331,107.413937 364.242895,107.413937 C367.71555,107.413937 370.703603,106.545787 373.207144,104.80946 C375.710686,103.073132 377.245091,101.235884 377.810407,99.297658 L392.952719,99.297658 C390.529937,106.808282 386.81506,112.178702 381.807977,115.409078 C376.800894,118.639454 370.74403,120.254618 363.637203,120.254618 C358.710879,120.254618 354.269179,119.467225 350.311968,117.892417 C346.354758,116.317609 343.003293,114.076569 340.257473,111.169231 C337.511653,108.261892 335.391751,104.78929 333.897702,100.75132 C332.403653,96.7133498 331.65664,92.2716494 331.65664,87.4260853 C331.65664,82.74204 332.423843,78.3810978 333.958271,74.3431277 C335.4927,70.3051576 337.673171,66.8123659 340.49975,63.8646478 C343.326329,60.9169296 346.697984,58.5951317 350.614815,56.8991842 C354.531646,55.2032368 358.872398,54.3552758 363.637203,54.3552758 C368.967323,54.3552758 373.610919,55.3849427 377.56813,57.4443075 C381.525341,59.5036722 384.775858,62.2696402 387.319779,65.7422945 C389.8637,69.2149487 391.700949,73.1721 392.831581,77.6138671 C393.962212,82.0556342 394.366003,86.6992301 394.042965,91.5447942 L348.858306,91.5447942 Z M404.218599,56.0512148 L420.572296,56.0512148 L420.572296,67.6805104 L420.814573,67.6805104 C421.622167,65.7422848 422.712403,63.9454151 424.085313,62.2898473 C425.458222,60.6342796 427.033007,59.2210113 428.809714,58.05 C430.586421,56.8789886 432.484238,55.970459 434.503223,55.3243838 C436.522208,54.6783086 438.621921,54.3552758 440.802425,54.3552758 C441.933057,54.3552758 443.184809,54.5571713 444.557718,54.9609683 L444.557718,70.9512498 C443.750124,70.789731 442.781026,70.6484042 441.650395,70.5272651 C440.519763,70.406126 439.429527,70.3455573 438.379655,70.3455573 C435.230038,70.3455573 432.565018,70.8704856 430.384514,71.9203578 C428.204011,72.97023 426.44752,74.4036879 425.11499,76.2207744 C423.78246,78.0378609 422.833551,80.1577634 422.268235,82.5805455 C421.702919,85.0033275 421.420266,87.6279687 421.420266,90.4545477 L421.420266,118.679817 L404.218599,118.679817 L404.218599,56.0512148 Z M485.139115,43.6950881 L478.597636,43.6950881 C477.143967,43.6950881 475.993162,43.9777418 475.145189,44.5430576 C474.297215,45.1083734 473.63096,45.8150076 473.146404,46.6629813 C472.661847,47.510955 472.359004,48.4598638 472.237865,49.509736 C472.116726,50.5596082 472.056157,51.5690856 472.056157,52.5381984 L472.056157,70.9512498 C472.056157,73.9393477 471.591798,76.3419038 470.663064,78.1589903 C469.734331,79.9760769 468.644096,81.3893452 467.392325,82.3988377 C466.140554,83.4083302 464.828234,84.1149644 463.455324,84.5187614 C462.082414,84.9225584 460.951799,85.164833 460.063446,85.2455924 L460.063446,85.6090079 C460.951799,85.6897673 462.082414,85.9522314 463.455324,86.3964081 C464.828234,86.8405848 466.140554,87.5674085 467.392325,88.576901 C468.644096,89.5863935 469.734331,90.9189037 470.663064,92.5744714 C471.591798,94.2300391 472.056157,96.3499416 472.056157,98.9342425 L472.056157,118.316402 C472.056157,119.204755 472.116726,120.173854 472.237865,121.223726 C472.359004,122.273598 472.661847,123.222507 473.146404,124.07048 C473.63096,124.918454 474.297215,125.625088 475.145189,126.190404 C475.993162,126.75572 477.143967,127.038374 478.597636,127.038374 L485.139115,127.038374 L485.139115,140.605885 L469.754526,140.605885 C468.381616,140.605885 466.827021,140.262663 465.090694,139.576208 C463.354366,138.889753 461.739203,137.880276 460.245154,136.547746 C458.751105,135.215215 457.479163,133.519293 456.429291,131.459929 C455.379419,129.400564 454.854491,126.998008 454.854491,124.252188 L454.854491,100.75132 C454.854491,98.8938537 454.4507,97.319069 453.643106,96.0269186 C452.835512,94.7347681 451.866413,93.7051012 450.735782,92.9378869 C449.60515,92.1706726 448.393777,91.6053653 447.101627,91.2419479 C445.809476,90.8785306 444.719241,90.6968247 443.830887,90.6968247 L443.830887,80.1577755 C444.719241,80.1577755 445.809476,79.9760696 447.101627,79.6126523 C448.393777,79.249235 449.60515,78.6435486 450.735782,77.7955749 C451.866413,76.9476011 452.835512,75.8169865 453.643106,74.403697 C454.4507,72.9904074 454.854491,71.2742959 454.854491,69.2553109 L454.854491,46.4812736 C454.854491,43.7354539 455.379419,41.3328978 456.429291,39.273533 C457.479163,37.2141683 458.751105,35.5182463 460.245154,34.1857162 C461.739203,32.8531861 463.354366,31.8437087 465.090694,31.1572538 C466.827021,30.4707989 468.381616,30.1275766 469.754526,30.1275766 L485.139115,30.1275766 L485.139115,43.6950881 Z M525.478234,43.6950881 L518.936755,43.6950881 C517.483086,43.6950881 516.332282,43.9777418 515.484308,44.5430576 C514.636334,45.1083734 513.970079,45.8150076 513.485523,46.6629813 C513.000966,47.510955 512.698123,48.4598638 512.576984,49.509736 C512.455845,50.5596082 512.395276,51.5690856 512.395276,52.5381984 L512.395276,70.9512498 C512.395276,73.9393477 511.930917,76.3419038 511.002184,78.1589903 C510.073451,79.9760769 508.983215,81.3893452 507.731444,82.3988377 C506.479674,83.4083302 505.167353,84.1149644 503.794443,84.5187614 C502.421533,84.9225584 501.290919,85.164833 500.402565,85.2455924 L500.402565,85.6090079 C501.290919,85.6897673 502.421533,85.9522314 503.794443,86.3964081 C505.167353,86.8405848 506.479674,87.5674085 507.731444,88.576901 C508.983215,89.5863935 510.073451,90.9189037 511.002184,92.5744714 C511.930917,94.2300391 512.395276,96.3499416 512.395276,98.9342425 L512.395276,118.316402 C512.395276,119.204755 512.455845,120.173854 512.576984,121.223726 C512.698123,122.273598 513.000966,123.222507 513.485523,124.07048 C513.970079,124.918454 514.636334,125.625088 515.484308,126.190404 C516.332282,126.75572 517.483086,127.038374 518.936755,127.038374 L525.478234,127.038374 L525.478234,140.605885 L510.093645,140.605885 C508.720735,140.605885 507.16614,140.262663 505.429813,139.576208 C503.693486,138.889753 502.078322,137.880276 500.584273,136.547746 C499.090224,135.215215 497.818283,133.519293 496.76841,131.459929 C495.718538,129.400564 495.19361,126.998008 495.19361,124.252188 L495.19361,100.75132 C495.19361,98.8938537 494.789819,97.319069 493.982225,96.0269186 C493.174631,94.7347681 492.205533,93.7051012 491.074901,92.9378869 C489.944269,92.1706726 488.732897,91.6053653 487.440746,91.2419479 C486.148596,90.8785306 485.05836,90.6968247 484.170007,90.6968247 L484.170007,80.1577755 C485.05836,80.1577755 486.148596,79.9760696 487.440746,79.6126523 C488.732897,79.249235 489.944269,78.6435486 491.074901,77.7955749 C492.205533,76.9476011 493.174631,75.8169865 493.982225,74.403697 C494.789819,72.9904074 495.19361,71.2742959 495.19361,69.2553109 L495.19361,46.4812736 C495.19361,43.7354539 495.718538,41.3328978 496.76841,39.273533 C497.818283,37.2141683 499.090224,35.5182463 500.584273,34.1857162 C502.078322,32.8531861 503.693486,31.8437087 505.429813,31.1572538 C507.16614,30.4707989 508.720735,30.1275766 510.093645,30.1275766 L525.478234,30.1275766 L525.478234,43.6950881 Z M535.775006,67.5593719 L525.478234,67.5593719 L525.478234,56.0512148 L535.775006,56.0512148 L535.775006,51.2056749 C535.775006,45.6332762 537.511307,41.0704385 540.983961,37.5170248 C544.456616,33.9636112 549.705898,32.186931 556.731966,32.186931 C558.266395,32.186931 559.8008,32.2474996 561.335229,32.3686387 C562.869658,32.4897778 564.363684,32.5907256 565.817353,32.671485 L565.817353,45.5121656 C563.798368,45.2698874 561.698655,45.1487501 559.518151,45.1487501 C557.176129,45.1487501 555.500396,45.6938679 554.490904,46.7841198 C553.481411,47.8743717 552.976673,49.7116205 552.976673,52.2959214 L552.976673,56.0512148 L564.848245,56.0512148 L564.848245,67.5593719 L552.976673,67.5593719 L552.976673,118.679817 L535.775006,118.679817 L535.775006,67.5593719 Z M614.515029,80.6423295 C613.707435,76.2813218 612.273977,72.9702361 610.214612,70.7089728 C608.155247,68.4477096 605.025868,67.3170949 600.826379,67.3170949 C598.080559,67.3170949 595.79914,67.7814545 593.982054,68.7101876 C592.164967,69.6389207 590.71132,70.789725 589.621068,72.1626348 C588.530816,73.5355446 587.763613,74.989192 587.319436,76.5236206 C586.87526,78.0580493 586.612796,79.4309385 586.532036,80.6423295 L614.515029,80.6423295 Z M586.532036,91.5447942 C586.774314,97.1171929 588.187583,101.155102 590.771883,103.658644 C593.356184,106.162185 597.071061,107.413937 601.916625,107.413937 C605.389279,107.413937 608.377332,106.545787 610.880874,104.80946 C613.384415,103.073132 614.918821,101.235884 615.484137,99.297658 L630.626449,99.297658 C628.203667,106.808282 624.48879,112.178702 619.481707,115.409078 C614.474624,118.639454 608.41776,120.254618 601.310933,120.254618 C596.384609,120.254618 591.942909,119.467225 587.985698,117.892417 C584.028487,116.317609 580.677023,114.076569 577.931203,111.169231 C575.185383,108.261892 573.065481,104.78929 571.571432,100.75132 C570.077383,96.7133498 569.33037,92.2716494 569.33037,87.4260853 C569.33037,82.74204 570.097572,78.3810978 571.632001,74.3431277 C573.16643,70.3051576 575.346901,66.8123659 578.17348,63.8646478 C581.000059,60.9169296 584.371713,58.5951317 588.288544,56.8991842 C592.205375,55.2032368 596.546128,54.3552758 601.310933,54.3552758 C606.641053,54.3552758 611.284649,55.3849427 615.24186,57.4443075 C619.19907,59.5036722 622.449588,62.2696402 624.993509,65.7422945 C627.53743,69.2149487 629.374679,73.1721 630.50531,77.6138671 C631.635942,82.0556342 632.039733,86.6992301 631.716695,91.5447942 L586.532036,91.5447942 Z M655.217564,98.32855 C655.217564,100.186016 655.601165,101.78099 656.368379,103.113521 C657.135594,104.446051 658.124881,105.536286 659.336272,106.38426 C660.547663,107.232234 661.940742,107.85811 663.515551,108.261907 C665.090359,108.665704 666.725712,108.867599 668.42166,108.867599 C669.633051,108.867599 670.904992,108.726272 672.237522,108.443614 C673.570052,108.160957 674.781425,107.716786 675.871677,107.111091 C676.961929,106.505395 677.870459,105.697814 678.597293,104.688321 C679.324128,103.678829 679.68754,102.406887 679.68754,100.872458 C679.68754,98.2881576 677.971428,96.349961 674.539154,95.0578106 C671.106879,93.7656602 666.321956,92.4735291 660.184242,91.1813787 C657.6807,90.6160629 655.237765,89.9498078 652.855363,89.1825935 C650.472961,88.4153792 648.353058,87.4059018 646.495592,86.1541311 C644.638126,84.9023604 643.144099,83.3275757 642.013467,81.4297297 C640.882836,79.5318838 640.317528,77.2100859 640.317528,74.4642662 C640.317528,70.4262961 641.104921,67.1152104 642.679729,64.5309095 C644.254537,61.9466087 646.334061,59.9074644 648.918362,58.4134154 C651.502663,56.9193665 654.409957,55.8695101 657.640333,55.2638145 C660.87071,54.658119 664.181795,54.3552758 667.57369,54.3552758 C670.965585,54.3552758 674.256481,54.6783086 677.446478,55.3243838 C680.636474,55.970459 683.4832,57.0606946 685.986742,58.5951232 C688.490283,60.1295518 690.569806,62.1686961 692.225374,64.7126173 C693.880942,67.2565384 694.87023,70.4666764 695.193267,74.3431277 L678.83957,74.3431277 C678.597292,71.0319923 677.34554,68.7909525 675.084277,67.6199412 C672.823014,66.4489298 670.157993,65.863433 667.089136,65.863433 C666.120023,65.863433 665.070167,65.9240016 663.939535,66.0451407 C662.808904,66.1662798 661.779237,66.4287439 660.850504,66.8325409 C659.92177,67.2363379 659.134378,67.8218348 658.488303,68.5890491 C657.842228,69.3562635 657.519195,70.3859304 657.519195,71.6780808 C657.519195,73.2125094 658.084502,74.4642614 659.215134,75.4333742 C660.345766,76.402487 661.819602,77.1898793 663.636689,77.7955749 C665.453776,78.4012704 667.533299,78.9463882 669.875322,79.4309446 C672.217344,79.915501 674.599711,80.4404292 677.022493,81.005745 C679.526034,81.5710608 681.96897,82.2575054 684.351372,83.0650994 C686.733774,83.8726935 688.853677,84.9427395 690.711143,86.2752696 C692.568609,87.6077997 694.062636,89.2633426 695.193267,91.2419479 C696.323899,93.2205533 696.889206,95.6634885 696.889206,98.570827 C696.889206,102.689556 696.061435,106.141969 694.405867,108.928168 C692.750299,111.714368 690.590018,113.955408 687.924958,115.651355 C685.259897,117.347302 682.211276,118.538486 678.779001,119.224941 C675.346727,119.911396 671.853935,120.254618 668.300521,120.254618 C664.666348,120.254618 661.112988,119.891206 657.640333,119.164371 C654.167679,118.437537 651.078678,117.226164 648.373238,115.530216 C645.667799,113.834269 643.446948,111.593229 641.710621,108.80703 C639.974294,106.020831 639.025385,102.528039 638.863867,98.32855 L655.217564,98.32855 Z M728.748631,56.0512148 L741.347034,56.0512148 L741.347034,67.5593719 L728.748631,67.5593719 L728.748631,98.570827 C728.748631,101.478165 729.23318,103.416362 730.202293,104.385475 C731.171406,105.354588 733.109602,105.839137 736.016941,105.839137 C736.986053,105.839137 737.914773,105.798758 738.803126,105.717998 C739.691479,105.637239 740.53944,105.516102 741.347034,105.354583 L741.347034,118.679817 C739.893365,118.922096 738.278201,119.083612 736.501495,119.164371 C734.724788,119.245131 732.988487,119.28551 731.292539,119.28551 C728.627479,119.28551 726.103786,119.103804 723.721383,118.740387 C721.338981,118.376969 719.239268,117.670335 717.422181,116.620463 C715.605095,115.570591 714.171637,114.076564 713.121765,112.138339 C712.071893,110.200113 711.546964,107.65623 711.546964,104.506613 L711.546964,67.5593719 L701.129054,67.5593719 L701.129054,56.0512148 L711.546964,56.0512148 L711.546964,37.2747478 L728.748631,37.2747478 L728.748631,56.0512148 Z M743.042973,127.038374 L749.584452,127.038374 C751.038121,127.038374 752.188926,126.75572 753.036899,126.190404 C753.884873,125.625088 754.551128,124.918454 755.035684,124.07048 C755.520241,123.222507 755.823084,122.273598 755.944223,121.223726 C756.065362,120.173854 756.125931,119.204755 756.125931,118.316402 L756.125931,98.9342425 C756.125931,96.3499416 756.590291,94.2300391 757.519024,92.5744714 C758.447757,90.9189037 759.537992,89.5863935 760.789763,88.576901 C762.041534,87.5674085 763.353854,86.8405848 764.726764,86.3964081 C766.099674,85.9522314 767.230289,85.6897673 768.118642,85.6090079 L768.118642,85.2455924 C767.230289,85.164833 766.099674,84.9225584 764.726764,84.5187614 C763.353854,84.1149644 762.041534,83.4083302 760.789763,82.3988377 C759.537992,81.3893452 758.447757,79.9760769 757.519024,78.1589903 C756.590291,76.3419038 756.125931,73.9393477 756.125931,70.9512498 L756.125931,52.5381984 C756.125931,51.5690856 756.065362,50.5596082 755.944223,49.509736 C755.823084,48.4598638 755.520241,47.510955 755.035684,46.6629813 C754.551128,45.8150076 753.884873,45.1083734 753.036899,44.5430576 C752.188926,43.9777418 751.038121,43.6950881 749.584452,43.6950881 L743.042973,43.6950881 L743.042973,30.1275766 L758.427562,30.1275766 C759.800472,30.1275766 761.355067,30.4707989 763.091394,31.1572538 C764.827722,31.8437087 766.442885,32.8531861 767.936934,34.1857162 C769.430983,35.5182463 770.702925,37.2141683 771.752797,39.273533 C772.802669,41.3328978 773.327597,43.7354539 773.327597,46.4812736 L773.327597,69.2553109 C773.327597,71.2742959 773.731388,72.9904074 774.538982,74.403697 C775.346576,75.8169865 776.315675,76.9476011 777.446306,77.7955749 C778.576938,78.6435486 779.788311,79.249235 781.080461,79.6126523 C782.372612,79.9760696 783.503226,80.1577755 784.472339,80.1577755 L784.472339,90.6968247 C783.503226,90.6968247 782.372612,90.8785306 781.080461,91.2419479 C779.788311,91.6053653 778.576938,92.1706726 777.446306,92.9378869 C776.315675,93.7051012 775.346576,94.7347681 774.538982,96.0269186 C773.731388,97.319069 773.327597,98.8938537 773.327597,100.75132 L773.327597,124.252188 C773.327597,126.998008 772.802669,129.400564 771.752797,131.459929 C770.702925,133.519293 769.430983,135.215215 767.936934,136.547746 C766.442885,137.880276 764.827722,138.889753 763.091394,139.576208 C761.355067,140.262663 759.800472,140.605885 758.427562,140.605885 L743.042973,140.605885 L743.042973,127.038374 Z M783.382093,127.038374 L789.923571,127.038374 C791.377241,127.038374 792.528045,126.75572 793.376019,126.190404 C794.223992,125.625088 794.890247,124.918454 795.374804,124.07048 C795.85936,123.222507 796.162203,122.273598 796.283342,121.223726 C796.404482,120.173854 796.46505,119.204755 796.46505,118.316402 L796.46505,98.9342425 C796.46505,96.3499416 796.92941,94.2300391 797.858143,92.5744714 C798.786876,90.9189037 799.877112,89.5863935 801.128882,88.576901 C802.380653,87.5674085 803.692974,86.8405848 805.065883,86.3964081 C806.438793,85.9522314 807.569408,85.6897673 808.457761,85.6090079 L808.457761,85.2455924 C807.569408,85.164833 806.438793,84.9225584 805.065883,84.5187614 C803.692974,84.1149644 802.380653,83.4083302 801.128882,82.3988377 C799.877112,81.3893452 798.786876,79.9760769 797.858143,78.1589903 C796.92941,76.3419038 796.46505,73.9393477 796.46505,70.9512498 L796.46505,52.5381984 C796.46505,51.5690856 796.404482,50.5596082 796.283342,49.509736 C796.162203,48.4598638 795.85936,47.510955 795.374804,46.6629813 C794.890247,45.8150076 794.223992,45.1083734 793.376019,44.5430576 C792.528045,43.9777418 791.377241,43.6950881 789.923571,43.6950881 L783.382093,43.6950881 L783.382093,30.1275766 L798.766682,30.1275766 C800.139591,30.1275766 801.694187,30.4707989 803.430514,31.1572538 C805.166841,31.8437087 806.782005,32.8531861 808.276054,34.1857162 C809.770103,35.5182463 811.042044,37.2141683 812.091916,39.273533 C813.141788,41.3328978 813.666717,43.7354539 813.666717,46.4812736 L813.666717,69.2553109 C813.666717,71.2742959 814.070508,72.9904074 814.878102,74.403697 C815.685696,75.8169865 816.654794,76.9476011 817.785426,77.7955749 C818.916057,78.6435486 820.12743,79.249235 821.41958,79.6126523 C822.711731,79.9760696 823.842346,80.1577755 824.811458,80.1577755 L824.811458,90.6968247 C823.842346,90.6968247 822.711731,90.8785306 821.41958,91.2419479 C820.12743,91.6053653 818.916057,92.1706726 817.785426,92.9378869 C816.654794,93.7051012 815.685696,94.7347681 814.878102,96.0269186 C814.070508,97.319069 813.666717,98.8938537 813.666717,100.75132 L813.666717,124.252188 C813.666717,126.998008 813.141788,129.400564 812.091916,131.459929 C811.042044,133.519293 809.770103,135.215215 808.276054,136.547746 C806.782005,137.880276 805.166841,138.889753 803.430514,139.576208 C801.694187,140.262663 800.139591,140.605885 798.766682,140.605885 L783.382093,140.605885 L783.382093,127.038374 Z" id="Ember{{fest}}" style="mix-blend-mode: darken;"></path>
            <path d="M24.3919367,219.507153 C24.3919367,223.141326 24.8159172,226.674497 25.6638909,230.106772 C26.5118646,233.539046 27.8645643,236.628047 29.7220305,239.373867 C31.5794967,242.119686 34.0022424,244.320347 36.9903403,245.975915 C39.9784381,247.631482 43.6125567,248.459254 47.892805,248.459254 C52.1730532,248.459254 55.8071718,247.631482 58.7952696,245.975915 C61.7833675,244.320347 64.2061132,242.119686 66.0635794,239.373867 C67.9210456,236.628047 69.2737453,233.539046 70.121719,230.106772 C70.9696927,226.674497 71.3936732,223.141326 71.3936732,219.507153 C71.3936732,215.711461 70.9696927,212.036964 70.121719,208.48355 C69.2737453,204.930136 67.9210456,201.760378 66.0635794,198.974178 C64.2061132,196.187979 61.7833675,193.967129 58.7952696,192.311561 C55.8071718,190.655993 52.1730532,189.828222 47.892805,189.828222 C43.6125567,189.828222 39.9784381,190.655993 36.9903403,192.311561 C34.0022424,193.967129 31.5794967,196.187979 29.7220305,198.974178 C27.8645643,201.760378 26.5118646,204.930136 25.6638909,208.48355 C24.8159172,212.036964 24.3919367,215.711461 24.3919367,219.507153 Z M5.37319275,219.507153 C5.37319275,213.046401 6.34229103,207.050106 8.28051666,201.518087 C10.2187423,195.986068 13.0048998,191.160766 16.6390729,187.042036 C20.273246,182.923307 24.735136,179.692979 30.0248768,177.350957 C35.3146175,175.008934 41.2705341,173.83794 47.892805,173.83794 C54.5958353,173.83794 60.5719413,175.008934 65.8213024,177.350957 C71.0706635,179.692979 75.5123639,182.923307 79.146537,187.042036 C82.7807101,191.160766 85.5668676,195.986068 87.5050933,201.518087 C89.4433189,207.050106 90.4124172,213.046401 90.4124172,219.507153 C90.4124172,225.806387 89.4433189,231.681545 87.5050933,237.132805 C85.5668676,242.584064 82.7807101,247.328608 79.146537,251.366578 C75.5123639,255.404548 71.0706635,258.574307 65.8213024,260.87595 C60.5719413,263.177593 54.5958353,264.328397 47.892805,264.328397 C41.2705341,264.328397 35.3146175,263.177593 30.0248768,260.87595 C24.735136,258.574307 20.273246,255.404548 16.6390729,251.366578 C13.0048998,247.328608 10.2187423,242.584064 8.28051666,237.132805 C6.34229103,231.681545 5.37319275,225.806387 5.37319275,219.507153 Z M144.19791,221.808785 C143.067278,214.621198 138.827473,211.027459 131.478367,211.027459 C128.732548,211.027459 126.430939,211.653335 124.573473,212.905105 C122.716007,214.156876 121.201791,215.77204 120.03078,217.750645 C118.859768,219.72925 118.031997,221.909722 117.54744,224.292124 C117.062884,226.674526 116.820609,229.036703 116.820609,231.378726 C116.820609,233.639989 117.062884,235.941598 117.54744,238.28362 C118.031997,240.625643 118.819389,242.745545 119.909641,244.643391 C120.999893,246.541237 122.47373,248.095832 124.331196,249.307223 C126.188662,250.518614 128.449892,251.124301 131.114952,251.124301 C135.233681,251.124301 138.40344,249.973497 140.624324,247.671854 C142.845207,245.370211 144.238286,242.28121 144.803602,238.404759 L161.399576,238.404759 C160.268944,246.722977 157.038617,253.062495 151.708496,257.423503 C146.378376,261.78451 139.554309,263.964981 131.23609,263.964981 C126.552045,263.964981 122.251672,263.177589 118.334841,261.602781 C114.41801,260.027972 111.086734,257.827312 108.340915,255.000733 C105.595095,252.174154 103.455003,248.802499 101.920574,244.885668 C100.386146,240.968837 99.6189429,236.668464 99.6189429,231.984418 C99.6189429,227.138854 100.325577,222.636585 101.738867,218.477476 C103.152156,214.318367 105.231679,210.724627 107.977499,207.69615 C110.723319,204.667672 114.074784,202.305495 118.031994,200.609548 C121.989205,198.9136 126.511664,198.065639 131.599506,198.065639 C135.314438,198.065639 138.887988,198.550189 142.320263,199.519301 C145.752537,200.488414 148.821349,201.962251 151.526789,203.940857 C154.232229,205.919462 156.432889,208.382587 158.128837,211.330305 C159.824784,214.278023 160.793882,217.770815 161.036161,221.808785 L144.19791,221.808785 Z M192.895585,199.761578 L205.493989,199.761578 L205.493989,211.269736 L192.895585,211.269736 L192.895585,242.281191 C192.895585,245.188529 193.380134,247.126726 194.349247,248.095838 C195.31836,249.064951 197.256556,249.5495 200.163895,249.5495 C201.133008,249.5495 202.061727,249.509121 202.95008,249.428362 C203.838434,249.347603 204.686395,249.226465 205.493989,249.064946 L205.493989,262.390181 C204.040319,262.632459 202.425156,262.793976 200.648449,262.874735 C198.871742,262.955494 197.135441,262.995873 195.439493,262.995873 C192.774433,262.995873 190.25074,262.814168 187.868337,262.45075 C185.485935,262.087333 183.386222,261.380699 181.569136,260.330827 C179.752049,259.280954 178.318591,257.786928 177.268719,255.848702 C176.218847,253.910477 175.693919,251.366594 175.693919,248.216977 L175.693919,211.269736 L165.276008,211.269736 L165.276008,199.761578 L175.693919,199.761578 L175.693919,180.985111 L192.895585,180.985111 L192.895585,199.761578 Z M214.458237,243.734853 L233.476981,243.734853 L233.476981,262.390181 L214.458237,262.390181 L214.458237,243.734853 Z M288.35272,262.390181 L271.151054,262.390181 L271.151054,207.393304 L249.830678,207.393304 L249.830678,194.431485 C252.818776,194.512244 255.705881,194.290159 258.492081,193.765223 C261.27828,193.240287 263.781784,192.311568 266.002668,190.979037 C268.223551,189.646507 270.101179,187.890017 271.635608,185.709513 C273.170036,183.529009 274.179514,180.82361 274.66407,177.593234 L288.35272,177.593234 L288.35272,262.390181 Z M370.848036,192.37213 C366.406269,196.248581 362.469307,201.013315 359.037033,206.666473 C355.604758,212.319631 352.737842,218.336116 350.4362,224.716109 C348.134557,231.096101 346.357876,237.556757 345.106106,244.098268 C343.854335,250.63978 343.18808,256.737023 343.10732,262.390181 L324.694269,262.390181 C325.663382,249.710955 328.631245,237.516468 333.597949,225.806355 C338.564652,214.096242 345.085876,203.355403 353.161816,193.583515 L312.943835,193.583515 L312.943835,177.593234 L370.848036,177.593234 L370.848036,192.37213 Z M418.455465,225.321801 L442.562026,225.321801 L442.562026,238.28362 L418.455465,238.28362 L418.455465,262.390181 L405.493646,262.390181 L405.493646,238.28362 L381.387085,238.28362 L381.387085,225.321801 L405.493646,225.321801 L405.493646,201.21524 L418.455465,201.21524 L418.455465,225.321801 Z M495.741826,262.390181 L478.540159,262.390181 L478.540159,207.393304 L457.219784,207.393304 L457.219784,194.431485 C460.207882,194.512244 463.094987,194.290159 465.881187,193.765223 C468.667386,193.240287 471.17089,192.311568 473.391773,190.979037 C475.612657,189.646507 477.490285,187.890017 479.024713,185.709513 C480.559142,183.529009 481.568619,180.82361 482.053176,177.593234 L495.741826,177.593234 L495.741826,262.390181 Z M536.444361,200.609548 C536.444361,204.243721 537.736492,207.009689 540.320792,208.907535 C542.905093,210.805381 545.933525,211.75429 549.40618,211.75429 C553.040353,211.75429 556.068785,210.805381 558.491567,208.907535 C560.914349,207.009689 562.125722,204.243721 562.125722,200.609548 C562.125722,199.478916 561.964205,198.247354 561.641168,196.914824 C561.31813,195.582294 560.692254,194.310352 559.763521,193.098961 C558.834788,191.88757 557.542657,190.878093 555.887089,190.070499 C554.231522,189.262905 552.07124,188.859114 549.40618,188.859114 C547.710232,188.859114 546.074879,189.121578 544.500071,189.646514 C542.925262,190.17145 541.532184,190.918463 540.320792,191.887576 C539.109401,192.856689 538.160493,194.068062 537.474038,195.521731 C536.787583,196.9754 536.444361,198.671322 536.444361,200.609548 Z M520.817495,199.034747 C520.817495,195.239056 521.665456,191.887591 523.361403,188.980252 C525.05735,186.072914 527.258011,183.650168 529.963451,181.711942 C532.668891,179.773717 535.717513,178.320069 539.109408,177.350957 C542.501302,176.381844 545.933525,175.897295 549.40618,175.897295 C554.655541,175.897295 559.097241,176.704877 562.731414,178.320065 C566.365587,179.935253 569.293072,181.893639 571.513955,184.195282 C573.734839,186.496925 575.329813,188.960049 576.298926,191.58473 C577.268039,194.20941 577.752588,196.571588 577.752588,198.671332 C577.752588,202.870821 576.722921,206.545318 574.663556,209.694935 C572.604191,212.844552 569.515191,215.105781 565.396461,216.478691 L565.396461,216.720968 C570.484304,217.8516 574.401076,220.254156 577.146895,223.928708 C579.892715,227.603261 581.265604,232.10553 581.265604,237.435651 C581.265604,241.958177 580.357075,245.874949 578.539988,249.186085 C576.722902,252.49722 574.320345,255.242999 571.332248,257.423503 C568.34415,259.604007 564.952306,261.23936 561.156614,262.329612 C557.360922,263.419864 553.484529,263.964981 549.527318,263.964981 C545.408589,263.964981 541.431248,263.460243 537.595176,262.45075 C533.759105,261.441258 530.326882,259.846283 527.298404,257.66578 C524.269927,255.485276 521.847181,252.739497 520.030094,249.428362 C518.213008,246.117226 517.304478,242.160075 517.304478,237.556789 C517.304478,232.145909 518.697557,227.623451 521.483756,223.989278 C524.269956,220.355105 528.206917,217.932359 533.29476,216.720968 L533.29476,216.478691 C529.17603,215.348059 526.06684,213.207967 523.967095,210.058351 C521.867351,206.908734 520.817495,203.234236 520.817495,199.034747 Z M534.506145,236.70882 C534.506145,238.889324 534.909936,240.867899 535.71753,242.644606 C536.525124,244.421313 537.59517,245.935529 538.9277,247.1873 C540.26023,248.43907 541.855204,249.408169 543.71267,250.094624 C545.570137,250.781079 547.508333,251.124301 549.527318,251.124301 C551.627063,251.124301 553.54507,250.781079 555.281397,250.094624 C557.017724,249.408169 558.55213,248.43907 559.88466,247.1873 C561.21719,245.935529 562.246857,244.421313 562.973691,242.644606 C563.700526,240.867899 564.063938,238.929703 564.063938,236.829958 C564.063938,234.810973 563.680336,232.973724 562.913122,231.318157 C562.145908,229.662589 561.096051,228.229131 559.763521,227.01774 C558.430991,225.806349 556.896585,224.87763 555.160258,224.231555 C553.423931,223.585479 551.546303,223.262447 549.527318,223.262447 C545.327829,223.262447 541.774469,224.413251 538.867131,226.714894 C535.959792,229.016537 534.506145,232.347812 534.506145,236.70882 Z M590.350991,243.734853 L609.369735,243.734853 L609.369735,262.390181 C609.369735,265.136001 608.864997,267.659694 607.855504,269.961337 C606.846012,272.26298 605.493312,274.261745 603.797365,275.957693 C602.101417,277.65364 600.102652,279.046719 597.801009,280.136971 C595.499366,281.227223 593.056431,281.974236 590.47213,282.378033 L590.47213,273.656061 C591.683521,273.413783 592.834325,272.929234 593.924577,272.202399 C595.014829,271.475565 595.963738,270.607414 596.771332,269.597922 C597.578926,268.588429 598.184612,267.457814 598.588409,266.206044 C598.992206,264.954273 599.153723,263.682331 599.072963,262.390181 L590.350991,262.390181 L590.350991,243.734853 Z M621.12017,210.179489 C620.958651,205.333925 621.523958,200.831656 622.816108,196.672547 C624.108259,192.513438 626.046455,188.879319 628.630756,185.770082 C631.215057,182.660845 634.465574,180.238099 638.382405,178.501772 C642.299236,176.765445 646.801505,175.897295 651.889348,175.897295 C655.765799,175.897295 659.460486,176.502981 662.97352,177.714372 C666.486554,178.925763 669.575555,180.662064 672.240615,182.923327 C674.905675,185.184591 677.025578,187.970748 678.600386,191.281884 C680.175194,194.593019 680.962587,198.307896 680.962587,202.426625 C680.962587,206.706874 680.276142,210.381371 678.903232,213.450229 C677.530322,216.519086 675.713263,219.244675 673.452,221.627077 C671.190737,224.009479 668.626664,226.169761 665.759705,228.107987 C662.892747,230.046212 660.005641,231.964219 657.098303,233.862065 C654.190964,235.759911 651.364428,237.799055 648.618608,239.979559 C645.872789,242.160063 643.450043,244.703946 641.350298,247.611284 L681.447141,247.611284 L681.447141,262.390181 L619.181954,262.390181 C619.181954,257.463858 619.888588,253.183673 621.301877,249.5495 C622.715167,245.915327 624.633174,242.66481 627.055956,239.797851 C629.478738,236.930893 632.325464,234.286062 635.59622,231.86328 C638.866976,229.440498 642.319388,226.977373 645.953561,224.473832 C647.811028,223.181681 649.789603,221.869361 651.889348,220.536831 C653.989092,219.2043 655.907099,217.730463 657.643426,216.115275 C659.379753,214.500087 660.833401,212.683028 662.004412,210.664043 C663.175423,208.645058 663.76092,206.34345 663.76092,203.759149 C663.76092,199.640419 662.569737,196.430281 660.187335,194.128638 C657.804932,191.826995 654.756311,190.676191 651.041378,190.676191 C648.537837,190.676191 646.417934,191.261688 644.681607,192.432699 C642.94528,193.603711 641.552201,195.138116 640.502329,197.035962 C639.452457,198.933808 638.705443,201.033521 638.261267,203.335164 C637.81709,205.636807 637.595005,207.918226 637.595005,210.179489 L621.12017,210.179489 Z M703.736624,219.628292 C703.736624,222.051074 703.817382,224.978558 703.978901,228.410833 C704.14042,231.843107 704.645159,235.154193 705.493132,238.344189 C706.341106,241.534186 707.693806,244.259775 709.551272,246.521038 C711.408738,248.782301 714.073758,249.912916 717.546413,249.912916 C721.099826,249.912916 723.825415,248.782301 725.723261,246.521038 C727.621107,244.259775 728.993996,241.534186 729.84197,238.344189 C730.689944,235.154193 731.194682,231.843107 731.356201,228.410833 C731.51772,224.978558 731.598478,222.051074 731.598478,219.628292 C731.598478,218.174623 731.578289,216.418132 731.537909,214.358767 C731.497529,212.299402 731.336013,210.1795 731.053355,207.998996 C730.770697,205.818492 730.366906,203.658211 729.84197,201.518087 C729.317034,199.377962 728.529642,197.459955 727.479769,195.764008 C726.429897,194.068061 725.097387,192.695171 723.482199,191.645299 C721.867011,190.595427 719.888435,190.070499 717.546413,190.070499 C715.20439,190.070499 713.246004,190.595427 711.671196,191.645299 C710.096387,192.695171 708.804256,194.068061 707.794764,195.764008 C706.785271,197.459955 705.997879,199.377962 705.432563,201.518087 C704.867247,203.658211 704.463456,205.818492 704.221178,207.998996 C703.9789,210.1795 703.837573,212.299402 703.797193,214.358767 C703.756814,216.418132 703.736624,218.174623 703.736624,219.628292 Z M686.534958,219.628292 C686.534958,211.390833 687.362729,204.465818 689.018297,198.85304 C690.673864,193.240261 692.914904,188.737992 695.741483,185.346097 C698.568062,181.954203 701.858959,179.531457 705.614271,178.077788 C709.369583,176.624118 713.346924,175.897295 717.546413,175.897295 C721.826661,175.897295 725.844381,176.624118 729.599693,178.077788 C733.355005,179.531457 736.666091,181.954203 739.53305,185.346097 C742.400008,188.737992 744.661238,193.240261 746.316805,198.85304 C747.972373,204.465818 748.800145,211.390833 748.800145,219.628292 C748.800145,228.108029 747.972373,235.19456 746.316805,240.888098 C744.661238,246.581636 742.400008,251.124284 739.53305,254.516179 C736.666091,257.908074 733.355005,260.330819 729.599693,261.784489 C725.844381,263.238158 721.826661,263.964981 717.546413,263.964981 C713.346924,263.964981 709.369583,263.238158 705.614271,261.784489 C701.858959,260.330819 698.568062,257.908074 695.741483,254.516179 C692.914904,251.124284 690.673864,246.581636 689.018297,240.888098 C687.362729,235.19456 686.534958,228.108029 686.534958,219.628292 Z M798.830344,262.390181 L781.628677,262.390181 L781.628677,207.393304 L760.308302,207.393304 L760.308302,194.431485 C763.2964,194.512244 766.183505,194.290159 768.969704,193.765223 C771.755904,193.240287 774.259408,192.311568 776.480291,190.979037 C778.701175,189.646507 780.578803,187.890017 782.113231,185.709513 C783.64766,183.529009 784.657137,180.82361 785.141694,177.593234 L798.830344,177.593234 L798.830344,262.390181 Z M851.404451,221.566508 C853.746474,221.566508 855.765428,221.142527 857.461376,220.294554 C859.157323,219.44658 860.570592,218.295776 861.701223,216.842106 C862.831855,215.388437 863.679816,213.712705 864.245132,211.814859 C864.810447,209.917013 865.093101,207.918248 865.093101,205.818503 C865.093101,203.880278 864.790258,201.962271 864.184562,200.064425 C863.578867,198.166579 862.690527,196.470657 861.519515,194.976608 C860.348504,193.482559 858.915046,192.291376 857.219099,191.403022 C855.523151,190.514669 853.584955,190.070499 851.404451,190.070499 C849.385466,190.070499 847.568407,190.514669 845.953219,191.403022 C844.338031,192.291376 842.965141,193.462369 841.83451,194.916039 C840.703878,196.369708 839.855917,198.025251 839.290601,199.882717 C838.725286,201.740183 838.442632,203.638001 838.442632,205.576226 C838.442632,207.595211 838.705096,209.553597 839.230032,211.451443 C839.754968,213.349289 840.542361,215.045211 841.592233,216.53926 C842.642105,218.033309 843.994805,219.244682 845.650372,220.173415 C847.30594,221.102148 849.223947,221.566508 851.404451,221.566508 Z M839.048324,240.585252 C839.61364,243.411831 840.905771,245.874956 842.924756,247.9747 C844.943741,250.074444 847.447245,251.124301 850.435343,251.124301 C853.58496,251.124301 856.169222,250.215771 858.188207,248.398685 C860.207192,246.581598 861.822356,244.360748 863.033747,241.736067 C864.245138,239.111387 865.113288,236.30504 865.638224,233.316942 C866.16316,230.328844 866.506383,227.663824 866.667902,225.321801 L866.425625,225.079524 C864.083602,228.471419 861.337823,230.894165 858.188207,232.347834 C855.03859,233.801503 851.404472,234.528327 847.285742,234.528327 C843.651569,234.528327 840.098209,233.740935 836.625554,232.166126 C833.1529,230.591318 830.205226,228.471415 827.782444,225.806355 C825.521181,223.222054 823.865638,220.27438 822.815766,216.963245 C821.765894,213.652109 821.240965,210.300645 821.240965,206.90875 C821.240965,202.547742 821.9476,198.489643 823.360889,194.734331 C824.774179,190.979019 826.793133,187.708312 829.417814,184.922113 C832.042494,182.135913 835.171874,179.935253 838.806047,178.320065 C842.44022,176.704877 846.47813,175.897295 850.919897,175.897295 C857.380649,175.897295 862.6905,177.169236 866.849609,179.713157 C871.008718,182.257078 874.339994,185.608543 876.843535,189.767652 C879.347077,193.926762 881.083378,198.630926 882.052491,203.880287 C883.021603,209.129648 883.506153,214.41931 883.506153,219.74943 C883.506153,224.998791 882.900466,230.248074 881.689075,235.497435 C880.477684,240.746796 878.539488,245.49134 875.874427,249.731208 C873.209367,253.971077 869.777144,257.4033 865.577655,260.02798 C861.378166,262.652661 856.250021,263.964981 850.193066,263.964981 C846.558893,263.964981 843.167049,263.460243 840.017432,262.45075 C836.867816,261.441258 834.081658,259.927042 831.658876,257.908057 C829.236094,255.889072 827.257518,253.425947 825.72309,250.518608 C824.188661,247.61127 823.179184,244.300184 822.694627,240.585252 L839.048324,240.585252 Z" id="Oct.17+18,2019" style="mix-blend-mode: darken;"></path>
        </g>
        <g id="Group-5" transform="translate(208.000000, 534.000000)" stroke="#30ADC3" stroke-linecap="round" stroke-linejoin="round" stroke-width="3">
            <path d="M5.7974,0.4999 L5.7974,11.0949" id="Stroke-1"></path>
            <path d="M11.0953,5.7977 L0.5003,5.7977" id="Stroke-3"></path>
        </g>
        <g id="Group-5-Copy" transform="translate(113.000000, 393.000000)" stroke="#30ADC3" stroke-linecap="round" stroke-linejoin="round" stroke-width="3">
            <path d="M5.7974,0.4999 L5.7974,11.0949" id="Stroke-1"></path>
            <path d="M11.0953,5.7977 L0.5003,5.7977" id="Stroke-3"></path>
        </g>
        <g id="Group-5-Copy-2" transform="translate(248.000000, 387.000000)" stroke="#30ADC3" stroke-linecap="round" stroke-linejoin="round" stroke-width="3">
            <path d="M5.7974,0.4999 L5.7974,11.0949" id="Stroke-1"></path>
            <path d="M11.0953,5.7977 L0.5003,5.7977" id="Stroke-3"></path>
        </g>
        <g id="Group-5-Copy-3" transform="translate(41.000000, 307.000000)" stroke="#30ADC3" stroke-linecap="round" stroke-linejoin="round" stroke-width="3">
            <path d="M5.7974,0.4999 L5.7974,11.0949" id="Stroke-1"></path>
            <path d="M11.0953,5.7977 L0.5003,5.7977" id="Stroke-3"></path>
        </g>
        <g id="Group-5-Copy-4" transform="translate(1238.000000, 381.000000)" stroke="#30ADC3" stroke-linecap="round" stroke-linejoin="round" stroke-width="3">
            <path d="M5.7974,0.4999 L5.7974,11.0949" id="Stroke-1"></path>
            <path d="M11.0953,5.7977 L0.5003,5.7977" id="Stroke-3"></path>
        </g>
        <g id="Group-5-Copy-5" transform="translate(1362.000000, 334.000000)" stroke="#30ADC3" stroke-linecap="round" stroke-linejoin="round" stroke-width="3">
            <path d="M5.7974,0.4999 L5.7974,11.0949" id="Stroke-1"></path>
            <path d="M11.0953,5.7977 L0.5003,5.7977" id="Stroke-3"></path>
        </g>
        <g id="Group-5-Copy-6" transform="translate(1350.000000, 431.000000)" stroke="#30ADC3" stroke-linecap="round" stroke-linejoin="round" stroke-width="3">
            <path d="M5.7974,0.4999 L5.7974,11.0949" id="Stroke-1"></path>
            <path d="M11.0953,5.7977 L0.5003,5.7977" id="Stroke-3"></path>
        </g>
        <g id="Group-5-Copy-7" transform="translate(1390.000000, 522.000000)" stroke="#30ADC3" stroke-linecap="round" stroke-linejoin="round" stroke-width="3">
            <path d="M5.7974,0.4999 L5.7974,11.0949" id="Stroke-1"></path>
            <path d="M11.0953,5.7977 L0.5003,5.7977" id="Stroke-3"></path>
        </g>
        <g id="Group-5-Copy-8" transform="translate(1118.000000, 619.000000)" stroke="#30ADC3" stroke-linecap="round" stroke-linejoin="round" stroke-width="3">
            <path d="M5.7974,0.4999 L5.7974,11.0949" id="Stroke-1"></path>
            <path d="M11.0953,5.7977 L0.5003,5.7977" id="Stroke-3"></path>
        </g>
    </g>
</svg>