<svg xmlns="http://www.w3.org/2000/svg" xmlns:xlink="http://www.w3.org/1999/xlink" viewBox="0 0 2972.22 1680.67"><defs><style>.cls-1,.cls-15,.cls-2,.cls-5,.cls-8{fill:none;}.cls-14,.cls-2,.cls-8,.cls-9{stroke:#e25641;}.cls-14,.cls-15,.cls-2,.cls-5,.cls-6,.cls-8,.cls-9{stroke-miterlimit:10;}.cls-3{isolation:isolate;}.cls-4{fill:#95caef;}.cls-15,.cls-5{stroke:#95caef;}.cls-14,.cls-15,.cls-5,.cls-8,.cls-9{stroke-width:5px;}.cls-10,.cls-5{mix-blend-mode:multiply;}.cls-6,.cls-7{fill:#63b9e9;}.cls-6{stroke:#e6e6e6;stroke-dasharray:0 3;}.cls-7{opacity:0.8;}.cls-9{fill:#f2f2f2;}.cls-10{font-size:182.82px;fill:#e25641;font-family:Helvetica-Bold, Helvetica;font-weight:700;}.cls-11{letter-spacing:-0.05em;}.cls-12{letter-spacing:0em;}.cls-13{letter-spacing:-0.08em;}.cls-14{fill:url(#quadrat_Kopie_6);}</style><pattern id="quadrat_Kopie_6" data-name="quadrat Kopie 6" width="22.68" height="22.68" patternUnits="userSpaceOnUse" viewBox="0 0 22.68 22.68"><rect class="cls-1" width="22.68" height="22.68"/><line class="cls-2" x1="10.53" y1="57.5" x2="55.28" y2="12.75"/><line class="cls-2" x1="-12.14" y1="57.5" x2="32.6" y2="12.75"/><line class="cls-2" x1="-34.82" y1="57.5" x2="9.92" y2="12.75"/><line class="cls-2" x1="10.53" y1="34.82" x2="55.28" y2="-9.92"/><line class="cls-2" x1="-12.14" y1="34.82" x2="32.6" y2="-9.92"/><line class="cls-2" x1="-34.82" y1="34.82" x2="9.92" y2="-9.92"/><line class="cls-2" x1="10.53" y1="12.14" x2="55.28" y2="-32.6"/><line class="cls-2" x1="-12.14" y1="12.14" x2="32.6" y2="-32.6"/><line class="cls-2" x1="-34.82" y1="12.14" x2="9.92" y2="-32.6"/></pattern></defs><title>Emberfest_startseite_Amsterdam_final</title><g class="cls-3"><g id="Ebene_3" data-name="Ebene 3"><path class="cls-4" d="M1349.92,1247.74c18.67,18,56,18,74.66,0s56-18,74.67,0,56,18,74.66,0,56-18,74.66,0c7.7,7.41,18.58,11.76,30,13.06V1046.16s-85.68-110.26-119.8-210.93l270.77,253.49,78.44-83.81L1570.82,689.26,1908,373.61l-78.44-83.81L1486.84,610.64,1144.13,289.8l-78.45,83.81,337.17,315.65-337.17,315.65,78.45,83.81L1401.23,848c-35.93,89.45-107.89,183.16-107.89,183.16v206.08C1312.41,1231.05,1336.2,1234.54,1349.92,1247.74Z"/><path class="cls-5" d="M1361,1256.12V1100.8s-32.1-23.85-40.63-41c-9.42-19-8.94-47.58-8.94-47.58h-19.49V956.52h-59.08v55.58h-19.69s.68,28.71-8.74,47.68c-8.53,17.17-40.63,41-40.63,41v-191l-13.73.08V886.35l-13.72.06V862.87H1122.6V839.4h-13.75l0-23.48h-13.75l0-23.48-13.72,0V769h-13.72V745.49H1054V769h-13.72v23.47h-13.72v23.48h-13.73v23.47H999.09v23.47H985.37v23.48H971.64v23.47H957.92v152.34H944.15l0-23.48H930.47v-23.47H916.75V991.73H903V968.25l-13.72,0V944.78l-13.72,0V921.3H861.85V897.83H848.13V921.3H834.41v23.48H820.69v23.47H807v23.48H793.24v23.48H779.52v23.47H765.79v23.48H752.07v184.11"/><path class="cls-6" d="M1728.3,445.3c.4-.11.79-.25,1.2-.34C1729.09,445.05,1728.7,445.19,1728.3,445.3Z"/><path class="cls-7" d="M1000.65,515c0,39.82-40.33,32.68-87.51,45.81-37.86,10.54-28.85,29.56-80.95,37.07-35.07,5-71.17-16.22-94.44-21.9s-40.47,3.37-67.46-10.11c-30.49-15.23-45.83-34-45.83-52.05,0-19.27,16.21-30.32,40.44-37.25C705.09,465,705.26,441,764.73,431c61.65-10.29,96.71,22.06,105.24,32,10.58,12.33,39.3-.25,78.25,6.74C979.41,475.38,1000.65,491.13,1000.65,515Z"/><path class="cls-4" d="M2112.71,678.66c-7.42-68.89,136.64-184.42,175.86-133.77,29.73,38.39-132.67,68.92-99.29,134.33,24.17,47.38,32.91,38.49,29.86,89.34-3,50.63-35.5,44.25-37.34,89.27s18.41,49,45.07,83.42c34.78,44.91,19.3,152.17-15.63,145.51-21-4-1.49-90.9-66.18-126.37-35.51-19.47-75.85-49.33-76.78-90.2-1.76-77.56,31.59-65.62,42.12-99.23C2125.22,723.63,2115.37,703.4,2112.71,678.66Zm-436.52-141"/><path class="cls-8" d="M577.94,1195.72s9.23-40.89,25.06-46.17,485.43,0,506.54,0,31.72,46.18,31.72,46.18Z"/><path class="cls-8" d="M782.35,1147.22s6.65,5,6.65,12.89v35.32"/><path class="cls-8" d="M859.89,1147.63s8.25,7.2,8.25,15.11v32.83"/><polyline class="cls-8" points="1146.41 1236.28 1162.34 1195.73 545.57 1195.73 562.4 1233.1"/><path class="cls-8" d="M702,1147.28s5.24,3.59,5.24,11.51v36.78"/><path class="cls-8" d="M943,1148.31s6.94,6.52,6.94,14.43v32.69"/><path class="cls-8" d="M1025.21,1148.7s5.28,6.6,5.28,14.51v32.49"/><path class="cls-8" d="M1089.72,1149.05s6.72,8.34,6.72,16.26v30.39"/><line class="cls-9" x1="622.26" y1="1172.89" x2="1133.51" y2="1172.89"/><path class="cls-9" d="M633.25,1148.17c-.45-.19-21,47.36-20.54,47.55"/><text class="cls-10" transform="translate(845.71 487.25) rotate(-0.2)"><tspan x="86.72" y="10.23">Ember{{fest}}</tspan><tspan x="140.72" y="190.23">Amsterdam</tspan><tspan x="220.91" y="365.46">Oct.11+12 </tspan><tspan x="430.91" y="550.46">2018 </tspan></text><path class="cls-14" d="M2021.89,1247.74c18.66-18,56-18,74.66,0s56,18,74.66,0,56-18,74.67,0,56,18,74.66,0,56-18,74.66,0c.43.42.89.82,1.34,1.22l22.61-54.53h-95.53l-13-29.76h-39V1142h-33.27v-34h-45.11v33.16h-45V1162H1991.16v32.89h-72.79l19.25,46a43.19,43.19,0,0,1,9.6,6.9C1965.89,1265.71,2003.22,1265.71,2021.89,1247.74Z"/><path class="cls-5" d="M2174,1247.74V1079s-32.1-23.85-40.62-41c-9.42-19-9-47.58-9-47.58h-19.49V934.67h-59.08v55.58h-19.69s.68,28.71-8.74,47.68c-8.53,17.17-40.63,41-40.63,41V888l-13.72.09V864.5l-13.72.07V841h-13.73V817.55h-13.75l0-23.48h-13.74l0-23.47h-13.73V747.12h-13.72V723.64H1867v23.48h-13.73V770.6h-13.72v23.47h-13.72v23.48h-13.73V841H1798.4V864.5h-13.72V888H1771v152.34h-13.77l0-23.48H1743.5V993.36h-13.72V969.88h-13.72V946.41l-13.73,0V922.93l-13.72,0V899.46h-13.72V876h-13.72v23.48h-13.73v23.47h-13.72v23.48H1620v23.47h-13.73v23.48h-13.72v23.47h-13.72v23.48H1565.1v213.91"/><path class="cls-15" d="M2992.5,1247.74c-18.66-18-56-18-74.66,0s-56,18-74.67,0-56-18-74.65,0-56,18-74.67,0-56-18-74.66,0-56,18-74.66,0-56-18-74.67,0-56,18-74.66,0-56-18-74.66,0-56,18-74.66,0-56-18-74.67,0-56,18-74.66,0-56-18-74.66,0-56,18-74.67,0-56-18-74.66,0-56,18-74.66,0-56-18-74.66,0-56,18-74.67,0-56-18-74.66,0-56,18-74.66,0-56-18-74.67,0-56,18-74.66,0-56-18-74.66,0-56,18-74.66,0-56-18-74.67,0-56,18-74.66,0-56-18-74.66,0-56,18-74.67,0-56-18-74.66,0-56,18-74.66,0-56-18-74.66,0-56,18-74.66,0-56-18-74.67,0-56,18-74.66,0-56-18-74.66,0-56,18-74.67,0-56-18-74.66,0-56,18-74.66,0-56-18-74.66,0-56,18-74.67,0"/></g></g></svg>