<svg viewBox="0 0 1440 1041" xmlns="http://www.w3.org/2000/svg" xmlns:serif="http://www.serif.com/" fill-rule="evenodd" clip-rule="evenodd" stroke-linecap="round" stroke-linejoin="round"><path fill="none" d="M-1-1h1442v1043H-1z"/><path fill="#f8ecf1" d="M1-1h1440v1041H1z"/><path fill="url(#_Linear1)" d="M1-1h1440v1041H1z"/><g fill="none" stroke="#30adc3" stroke-width="3"><path d="M467.971 904c-21.994 0-21.994-14-43.989-14-21.997 0-21.997 14-43.992 14-22.001 0-22.001-14-44.002-14-21.997 0-21.997 14-43.992 14-21.998 0-21.998-14-43.999-14C226 890 226 904 203.999 904c-22.001 0-22.001-14-44.002-14-21.998 0-21.998 14-43.992 14-22.004 0-22.004-14-44.008-14s-22.004 14-44.008 14c-22.01 0-22.01-14-44.018-14M1440.97 904c-21.99 0-21.99-14-43.99-14-21.99 0-21.99 14-43.99 14-22 0-22-14-44-14s-22 14-43.99 14c-22 0-22-14-44-14s-22 14-44 14-22-14-44-14-22 14-43.99 14c-22.01 0-22.01-14-44.01-14-22.01 0-22.01 14-44.01 14-22.011 0-22.011-14-44.019-14M470.971 904c21.995 0 21.995-14 43.99-14 21.997 0 21.997 14 43.992 14 22.001 0 22.001-14 44.001-14 21.998 0 21.998 14 43.993 14 21.997 0 21.997-14 43.998-14 21.998 0 21.998 14 43.999 14s22.001-14 44.002-14c21.997 0 21.997 14 43.992 14 22.004 0 22.004-14 44.008-14s22.004 14 44.008 14c22.01 0 22.01-14 44.017-14"/></g><g fill="none" stroke="#30adc3" stroke-width="3"><path serif:id="Path-Copy" d="M467.971 868c-21.994 0-21.994-14-43.989-14-21.997 0-21.997 14-43.992 14-22.001 0-22.001-14-44.002-14-21.997 0-21.997 14-43.992 14-21.998 0-21.998-14-43.999-14C226 854 226 868 203.999 868c-22.001 0-22.001-14-44.002-14-21.998 0-21.998 14-43.992 14-22.004 0-22.004-14-44.008-14s-22.004 14-44.008 14c-22.01 0-22.01-14-44.018-14"/><path serif:id="Path-Copy-3" d="M1440.97 868c-21.99 0-21.99-14-43.99-14-21.99 0-21.99 14-43.99 14-22 0-22-14-44-14s-22 14-43.99 14c-22 0-22-14-44-14s-22 14-44 14-22-14-44-14-22 14-43.99 14c-22.01 0-22.01-14-44.01-14-22.01 0-22.01 14-44.01 14-22.011 0-22.011-14-44.019-14"/><path serif:id="Path-Copy-2" d="M470.971 868c21.995 0 21.995-14 43.99-14 21.997 0 21.997 14 43.992 14 22.001 0 22.001-14 44.001-14 21.998 0 21.998 14 43.993 14 21.997 0 21.997-14 43.998-14 21.998 0 21.998 14 43.999 14s22.001-14 44.002-14c21.997 0 21.997 14 43.992 14 22.004 0 22.004-14 44.008-14s22.004 14 44.008 14c22.01 0 22.01-14 44.017-14"/></g><g opacity=".463"><path d="M894.376 610.623l-2.485-117.551 2.485-5.93v-23.51c-1.53-44.728-15.562-138.005-123.103-160.179v-16.437h-19.144V237.51c0-12.973-7.882-24.104-19.126-28.859 0 0 1.766-2.459 3.475-4.592-9.572-7.455-9.545-20.071-10.118-21.791-.574-1.72-3.962-3.824-3.962-3.824l1.581-4.394-3.163-4.588-3.168 4.588 1.58 4.394s-3.388 2.104-3.961 3.824c-.574 1.72-.546 14.336-10.118 21.791a130.43 130.43 0 0 1 3.475 4.592c-11.244 4.755-19.135 15.886-19.135 28.859v49.506h-19.144v16.437c-107.542 22.174-121.573 115.451-123.101 160.179v23.51l2.485 5.93-2.485 117.551H492v21.408l9.558 14.336v179.886h438.504V646.367l9.556-14.336v-21.408h-55.242z" fill="#30adc3"/><g fill="none" stroke="#30adc3" stroke-width="3"><path d="M721 137.35v38.993M721 119v6.881M726.735 131.616h4.587M710.678 131.616h4.587M726.735 131.616a5.735 5.735 0 1 1-11.47-.002 5.735 5.735 0 0 1 11.47.002z"/></g></g><g fill="none" stroke="#30adc3" stroke-width="3"><path serif:id="Stroke-1" d="M980.834 685.131c-.209-3.401 2.478-3.878 4.166-3.25 3.366 1.254 3.5 6.747 3.5 6.747v44.667"/><path serif:id="Stroke-3" d="M988.5 645.125h-2.667l-9.333 7.249 6 24.503h6"/><path serif:id="Stroke-5" d="M988.5 645.125h2.667l9.333 7.249-6 24.503h-6"/><path serif:id="Stroke-7" d="M996.166 685.131c.209-3.401-2.479-3.878-4.166-3.25-3.366 1.254-3.5 6.747-3.5 6.747v44.667"/><path serif:id="Stroke-9" d="M991.375 638.249a2.875 2.875 0 1 1-5.75 0 2.875 2.875 0 0 1 5.75 0z"/><path serif:id="Stroke-11" d="M988.5 635.374v-4.875"/><path d="M993.25 738.045a4.75 4.75 0 1 1-9.5 0 4.75 4.75 0 0 1 9.5 0z"/><path d="M986.077 742.125l-5.255 84.378h7.677M990.922 742.125l5.255 84.378H988.5M976.5 652.374h24M985.612 676.877l-1.875-24.503 4.763-7.249M991.388 676.877l1.875-24.503-4.763-7.249M993.627 785.547h-10.253M983.244 787.633h10.535M988.5 781.378v-18.167"/><path serif:id="Stroke-31" d="M981.105 821.963h14.79"/><path d="M986.592 793.211l-1.167 24.25M990.43 793.211l1.166 24.25"/></g><path serif:id="Stroke-1" d="M48.375 826.32h59.844V527.607l5.531-7.041V509H-17v11.566l5.531 7.041V826.32h59.844z" fill="none" stroke="#30adc3" stroke-width="3"/><g serif:id="Group-37" fill="none" stroke="#30adc3" stroke-width="3"><path serif:id="Stroke-1" d="M716.834 685.131c-.209-3.401 2.478-3.878 4.166-3.25 3.366 1.254 3.5 6.747 3.5 6.747v44.667"/><path serif:id="Stroke-3" d="M724.5 645.125h-2.667l-9.333 7.249 6 24.503h6"/><path serif:id="Stroke-5" d="M724.5 645.125h2.667l9.333 7.249-6 24.503h-6"/><path serif:id="Stroke-7" d="M732.166 685.131c.209-3.401-2.479-3.878-4.166-3.25-3.366 1.254-3.5 6.747-3.5 6.747v44.667"/><path serif:id="Stroke-9" d="M727.375 638.249a2.875 2.875 0 1 1-5.75 0 2.875 2.875 0 0 1 5.75 0z"/><path serif:id="Stroke-11" d="M724.5 635.374v-4.875"/><path serif:id="Stroke-13" d="M729.25 738.045a4.75 4.75 0 1 1-9.5 0 4.75 4.75 0 0 1 9.5 0z"/><path serif:id="Stroke-15" d="M722.077 742.125l-5.255 84.378h7.677"/><path serif:id="Stroke-17" d="M726.922 742.125l5.255 84.378H724.5"/><path serif:id="Stroke-19" d="M712.5 652.374h24"/><path serif:id="Stroke-21" d="M721.612 676.877l-1.875-24.503 4.763-7.249"/><path serif:id="Stroke-23" d="M727.388 676.877l1.875-24.503-4.763-7.249"/><path serif:id="Stroke-25" d="M729.627 785.547h-10.253"/><path serif:id="Stroke-27" d="M719.244 787.633h10.535"/><path serif:id="Stroke-29" d="M724.5 781.378v-18.167"/><path serif:id="Stroke-31" d="M717.105 821.963h14.79"/><path serif:id="Stroke-33" d="M722.592 793.211l-1.167 24.25"/><path serif:id="Stroke-35" d="M726.43 793.211l1.166 24.25"/></g><g fill="none" stroke="#30adc3" stroke-width="3"><path serif:id="Stroke-1" d="M1301.79 526.6c15.09-4.887 6.04 8.084 6.04 8.084v5.067l2.69 3.126v12.935s2.05.97 2.05 5.066c2.7 0 1.94 7.977 1.94 7.977h2.48l-2.48 3.665v22.313h2.48c0 6.252 2.26 5.282 5.5 9.486 3.23 4.204 0 11.534 0 11.534v5.749h4.74l-4.82 4.814v50.663h-41.24v-50.663l-4.82-4.814h4.75v-5.749s-3.24-7.33 0-11.534c3.23-4.204 5.49-3.234 5.49-9.486h2.48V572.52l-2.48-3.665h2.48s-1.18-6.683 1.94-7.977c0-4.096 2.05-5.066 2.05-5.066v-12.935l2.69-3.126v-5.067s-9.05-12.971 6.04-8.084M1301.87 513.291c-7.55-2.443-3.02 4.042-3.02 4.042v2.534h3.02"/><path serif:id="Stroke-3" d="M1301.87 504.162c-5.22-1.689-2.09 2.795-2.09 2.795v1.751h2.09"/><path d="M1302 504.162c5.22-1.689 2.09 2.795 2.09 2.795v1.751H1302"/><path serif:id="Stroke-5" d="M1301.87 519.868v4.661"/><path serif:id="Stroke-7" d="M1301.87 508.707v4.585"/><path serif:id="Stroke-9" d="M1301.87 495.5v8.662"/><path serif:id="Stroke-11" d="M1299.96 498.231h3.81"/><path serif:id="Stroke-13" d="M1301.87 513.291c7.54-2.443 3.01 4.042 3.01 4.042v2.534h-3.01"/><path serif:id="Stroke-3" d="M1322.49 621.602h-41.39"/><path serif:id="Stroke-5" d="M1301.79 826.697h261.29V712.005l-3.45-4.528-4.31 4.528-11.21-13.367 2.59-2.587-50.67-18.971h-388.48l-50.67 18.971 2.59 2.587-11.21 13.367-4.31-4.528-3.45 4.528v114.692h261.29z"/></g><g fill="none" stroke="#30adc3" stroke-width="3"><path serif:id="Stroke-1" d="M856.933 802.553s-39.094-27.152-16.291-38.012c-9.772-27.151 4.574-51.042 16.291-51.042"/><path serif:id="Stroke-3" d="M856.933 802.553s39.093-27.152 16.29-38.012c9.773-27.151-4.573-51.042-16.29-51.042"/><path serif:id="Stroke-5" d="M856.933 731.755v94.654"/><path serif:id="Stroke-7" d="M868.648 776.223l-11.716 11.792"/><path serif:id="Stroke-9" d="M845.216 776.223l11.717 11.792"/></g><path serif:id="Stroke-1" d="M283.615 666.971H221V827h403V642.351h-42.147v-16.099H569.54v16.099h-43.567v-17.044h-42.149V604h-9.944v21.307h-41.672v44.031h-27.812v-6.981h-10.423v6.981h-31.852v-35.509h-13.259v33.142h-49.384l-7.917-7.919-7.946 7.919z" fill="none" stroke="#30adc3" stroke-width="3"/><g serif:id="Group-7" fill="none" stroke="#30adc3" stroke-width="3"><path serif:id="Stroke-1" d="M156.936 826.552v-66.231"/><path serif:id="Stroke-3" d="M156.932 808.379c.386.116-37.165 0 0-103.879"/><path serif:id="Stroke-5" d="M156.939 808.379c-.386.116 37.167 0 0-103.879"/></g><path d="M1 827h1440.03" fill="none" stroke="#30adc3" stroke-width="3"/><g fill="#e25641" fill-rule="nonzero"><path serif:id="Ember{{fest}}" d="M352.237 306.187h64.688v15.99h-45.669v18.534h41.914v14.779h-41.914v21.2h46.638v15.99h-65.657v-86.493zm77.166 23.864h16.232v8.48h.242c2.262-3.23 4.987-5.734 8.177-7.511 3.19-1.776 6.845-2.665 10.963-2.665 3.957 0 7.571.767 10.842 2.302 3.271 1.534 5.754 4.24 7.45 8.116 1.858-2.746 4.381-5.168 7.571-7.268 3.19-2.1 6.966-3.15 11.327-3.15 3.311 0 6.38.404 9.206 1.212 2.827.807 5.25 2.099 7.269 3.876 2.019 1.777 3.593 4.099 4.724 6.966 1.131 2.867 1.696 6.319 1.696 10.357v41.914H507.9v-35.494c0-2.1-.08-4.078-.242-5.936-.161-1.857-.606-3.472-1.332-4.845-.727-1.373-1.797-2.463-3.211-3.271-1.413-.807-3.331-1.211-5.754-1.211-2.423 0-4.381.464-5.875 1.393-1.494.929-2.665 2.14-3.513 3.634-.848 1.494-1.413 3.19-1.696 5.088a38.963 38.963 0 0 0-.424 5.754v34.888h-17.202v-35.13c0-1.858-.04-3.695-.121-5.512-.08-1.817-.424-3.493-1.029-5.027-.606-1.535-1.616-2.766-3.029-3.695-1.413-.929-3.493-1.393-6.238-1.393-.808 0-1.878.181-3.211.545-1.332.363-2.624 1.05-3.876 2.059-1.252 1.01-2.322 2.463-3.21 4.361-.889 1.898-1.333 4.381-1.333 7.45v36.342h-17.201v-62.629zm155.178 31.375c0-2.665-.283-5.209-.848-7.632-.565-2.422-1.454-4.563-2.665-6.42-1.211-1.857-2.726-3.331-4.543-4.422-1.817-1.09-4.017-1.635-6.602-1.635-2.503 0-4.684.545-6.541 1.635-1.858 1.091-3.392 2.565-4.604 4.422-1.211 1.857-2.099 3.998-2.665 6.42-.565 2.423-.848 4.967-.848 7.632 0 2.584.283 5.088.848 7.511.566 2.422 1.454 4.563 2.665 6.42 1.212 1.857 2.746 3.331 4.604 4.422 1.857 1.09 4.038 1.635 6.541 1.635 2.585 0 4.785-.545 6.602-1.635 1.817-1.091 3.332-2.565 4.543-4.422 1.211-1.857 2.1-3.998 2.665-6.42a32.97 32.97 0 0 0 .848-7.511zm-45.912-55.239h17.202v31.496h.242c2.1-3.23 4.947-5.593 8.541-7.087a28.91 28.91 0 0 1 11.205-2.241c3.15 0 6.259.646 9.328 1.938 3.068 1.293 5.834 3.271 8.298 5.936 2.463 2.665 4.462 6.077 5.996 10.236 1.534 4.16 2.302 9.106 2.302 14.84s-.768 10.68-2.302 14.839c-1.534 4.16-3.533 7.572-5.996 10.237-2.464 2.665-5.23 4.643-8.298 5.935-3.069 1.293-6.178 1.939-9.328 1.939-4.603 0-8.722-.727-12.356-2.181-3.634-1.454-6.38-3.917-8.238-7.389h-.242v7.995h-16.354v-86.493zm116.172 48.455c-.807-4.361-2.241-7.672-4.3-9.933-2.059-2.261-5.189-3.392-9.388-3.392-2.746 0-5.028.464-6.845 1.393-1.817.929-3.27 2.08-4.361 3.453-1.09 1.373-1.857 2.826-2.301 4.361-.444 1.534-.707 2.907-.788 4.118h27.983zm-27.983 10.903c.243 5.572 1.656 9.61 4.24 12.114 2.584 2.503 6.299 3.755 11.145 3.755 3.473 0 6.461-.868 8.964-2.605 2.504-1.736 4.038-3.573 4.603-5.511h15.143c-2.423 7.51-6.138 12.881-11.145 16.111-5.007 3.23-11.064 4.846-18.171 4.846-4.926 0-9.368-.788-13.325-2.363-3.957-1.574-7.309-3.815-10.055-6.723-2.745-2.907-4.865-6.38-6.359-10.418-1.494-4.038-2.241-8.479-2.241-13.325 0-4.684.767-9.045 2.301-13.083 1.535-4.038 3.715-7.531 6.542-10.478 2.826-2.948 6.198-5.27 10.115-6.966 3.917-1.696 8.257-2.544 13.022-2.544 5.33 0 9.974 1.03 13.931 3.089 3.957 2.06 7.208 4.826 9.752 8.298 2.544 3.473 4.381 7.43 5.512 11.872 1.13 4.442 1.534 9.085 1.211 13.931h-45.185zm55.361-35.494h16.353v11.63h.243a21.112 21.112 0 0 1 3.27-5.391 21.416 21.416 0 0 1 4.725-4.24 23.067 23.067 0 0 1 5.693-2.726 20.545 20.545 0 0 1 6.299-.969c1.131 0 2.383.202 3.756.606v15.99a33.205 33.205 0 0 0-2.908-.424 30.726 30.726 0 0 0-3.27-.181c-3.15 0-5.815.524-7.995 1.574-2.181 1.05-3.937 2.484-5.27 4.301-1.333 1.817-2.281 3.937-2.847 6.36-.565 2.422-.848 5.047-.848 7.874v28.225h-17.201v-62.629zm80.92-12.356h-6.541c-1.454 0-2.605.283-3.453.848a6.261 6.261 0 0 0-1.999 2.12c-.484.848-.787 1.797-.908 2.847a26.47 26.47 0 0 0-.182 3.028v18.413c0 2.988-.464 5.391-1.393 7.208-.929 1.817-2.019 3.23-3.271 4.24-1.251 1.009-2.564 1.716-3.937 2.12-1.373.404-2.503.646-3.392.727v.363c.889.081 2.019.343 3.392.787 1.373.445 2.686 1.171 3.937 2.181 1.252 1.009 2.342 2.342 3.271 3.997.929 1.656 1.393 3.776 1.393 6.36v19.382c0 .889.061 1.858.182 2.908.121 1.05.424 1.999.908 2.846a6.261 6.261 0 0 0 1.999 2.12c.848.566 1.999.848 3.453.848h6.541v13.568h-15.384c-1.373 0-2.928-.343-4.664-1.03-1.737-.686-3.352-1.696-4.846-3.028-1.494-1.333-2.766-3.029-3.816-5.088-1.05-2.059-1.575-4.462-1.575-7.208v-23.501c0-1.857-.403-3.432-1.211-4.724-.807-1.292-1.777-2.322-2.907-3.089a12.428 12.428 0 0 0-3.634-1.696c-1.293-.363-2.383-.545-3.271-.545v-10.539c.888 0 1.978-.182 3.271-.545a10.99 10.99 0 0 0 3.634-1.817c1.13-.848 2.1-1.979 2.907-3.392.808-1.414 1.211-3.13 1.211-5.149v-22.774c0-2.746.525-5.148 1.575-7.207 1.05-2.06 2.322-3.756 3.816-5.088 1.494-1.333 3.109-2.342 4.846-3.029 1.736-.686 3.291-1.029 4.664-1.029h15.384v13.567zm40.339 0h-6.541c-1.454 0-2.605.283-3.453.848a6.248 6.248 0 0 0-1.998 2.12c-.485.848-.788 1.797-.909 2.847a26.47 26.47 0 0 0-.182 3.028v18.413c0 2.988-.464 5.391-1.393 7.208-.929 1.817-2.019 3.23-3.271 4.24-1.251 1.009-2.564 1.716-3.937 2.12-1.372.404-2.503.646-3.391.727v.363c.888.081 2.019.343 3.391.787 1.373.445 2.686 1.171 3.937 2.181 1.252 1.009 2.342 2.342 3.271 3.997.929 1.656 1.393 3.776 1.393 6.36v19.382c0 .889.061 1.858.182 2.908.121 1.05.424 1.999.909 2.846a6.248 6.248 0 0 0 1.998 2.12c.848.566 1.999.848 3.453.848h6.541v13.568h-15.384c-1.373 0-2.928-.343-4.664-1.03-1.737-.686-3.352-1.696-4.846-3.028-1.494-1.333-2.766-3.029-3.816-5.088-1.049-2.059-1.574-4.462-1.574-7.208v-23.501c0-1.857-.404-3.432-1.212-4.724-.807-1.292-1.776-2.322-2.907-3.089a12.428 12.428 0 0 0-3.634-1.696c-1.292-.363-2.383-.545-3.271-.545v-10.539c.888 0 1.979-.182 3.271-.545a10.99 10.99 0 0 0 3.634-1.817c1.131-.848 2.1-1.979 2.907-3.392.808-1.414 1.212-3.13 1.212-5.149v-22.774c0-2.746.525-5.148 1.574-7.207 1.05-2.06 2.322-3.756 3.816-5.088 1.494-1.333 3.109-2.342 4.846-3.029 1.736-.686 3.291-1.029 4.664-1.029h15.384v13.567zm10.297 23.864h-10.297v-11.508h10.297v-4.845c0-5.573 1.736-10.136 5.209-13.689 3.473-3.553 8.722-5.33 15.748-5.33 1.534 0 3.069.06 4.603.182 1.535.121 3.029.222 4.482.302v12.841a52.915 52.915 0 0 0-6.299-.363c-2.342 0-4.018.545-5.027 1.635-1.01 1.09-1.514 2.928-1.514 5.512v3.755h11.871v11.508h-11.871v51.121h-17.202v-51.121zm78.74 13.083c-.808-4.361-2.241-7.672-4.3-9.933-2.06-2.261-5.189-3.392-9.389-3.392-2.745 0-5.027.464-6.844 1.393-1.817.929-3.271 2.08-4.361 3.453-1.09 1.373-1.857 2.826-2.302 4.361-.444 1.534-.706 2.907-.787 4.118h27.983zm-27.983 10.903c.242 5.572 1.656 9.61 4.24 12.114 2.584 2.503 6.299 3.755 11.145 3.755 3.472 0 6.46-.868 8.964-2.605 2.503-1.736 4.038-3.573 4.603-5.511h15.142c-2.422 7.51-6.137 12.881-11.144 16.111-5.007 3.23-11.064 4.846-18.171 4.846-4.926 0-9.368-.788-13.325-2.363-3.957-1.574-7.309-3.815-10.055-6.723-2.746-2.907-4.866-6.38-6.36-10.418-1.494-4.038-2.241-8.479-2.241-13.325 0-4.684.768-9.045 2.302-13.083s3.715-7.531 6.541-10.478c2.827-2.948 6.199-5.27 10.116-6.966 3.916-1.696 8.257-2.544 13.022-2.544 5.33 0 9.974 1.03 13.931 3.089 3.957 2.06 7.208 4.826 9.752 8.298 2.543 3.473 4.381 7.43 5.511 11.872 1.131 4.442 1.535 9.085 1.212 13.931h-45.185zm68.686 6.784c0 1.857.383 3.452 1.15 4.785a10.072 10.072 0 0 0 2.968 3.27c1.212.848 2.605 1.474 4.18 1.878a19.66 19.66 0 0 0 4.906.606c1.211 0 2.483-.142 3.816-.424 1.332-.283 2.543-.727 3.634-1.333a8.262 8.262 0 0 0 2.725-2.423c.727-1.009 1.091-2.281 1.091-3.816 0-2.584-1.717-4.522-5.149-5.814-3.432-1.292-8.217-2.584-14.355-3.877a84.983 84.983 0 0 1-7.329-1.998c-2.382-.768-4.502-1.777-6.359-3.029a14.727 14.727 0 0 1-4.483-4.724c-1.13-1.898-1.695-4.22-1.695-6.966 0-4.038.787-7.349 2.362-9.933 1.575-2.584 3.654-4.624 6.238-6.118 2.585-1.494 5.492-2.543 8.722-3.149a53.773 53.773 0 0 1 9.934-.909c3.392 0 6.682.323 9.872.969 3.19.646 6.037 1.737 8.541 3.271 2.503 1.535 4.583 3.574 6.238 6.118 1.656 2.544 2.645 5.754 2.968 9.63H956.84c-.243-3.311-1.494-5.552-3.756-6.723-2.261-1.171-4.926-1.757-7.995-1.757-.969 0-2.019.061-3.149.182-1.131.121-2.161.384-3.089.788a6.354 6.354 0 0 0-2.363 1.756c-.646.767-.969 1.797-.969 3.089 0 1.535.565 2.786 1.696 3.755 1.131.969 2.605 1.757 4.422 2.363 1.817.605 3.896 1.15 6.238 1.635 2.342.484 4.725 1.009 7.148 1.575a72.733 72.733 0 0 1 7.328 2.059c2.383.808 4.503 1.878 6.36 3.21a15.512 15.512 0 0 1 4.482 4.967c1.131 1.979 1.696 4.421 1.696 7.329 0 4.119-.828 7.571-2.483 10.357-1.656 2.786-3.816 5.027-6.481 6.723-2.665 1.696-5.714 2.887-9.146 3.574a53.33 53.33 0 0 1-10.478 1.03 51.89 51.89 0 0 1-10.661-1.091c-3.472-.726-6.561-1.938-9.267-3.634-2.705-1.696-4.926-3.937-6.662-6.723-1.737-2.786-2.686-6.279-2.847-10.478h16.354zm73.532-42.278h12.6v11.508h-12.6v31.012c0 2.907.48 4.845 1.45 5.814.97.97 2.91 1.454 5.82 1.454.97 0 1.9-.04 2.78-.121a24.45 24.45 0 0 0 2.55-.363v13.325c-1.46.242-3.07.404-4.85.484-1.77.081-3.51.122-5.21.122-2.66 0-5.19-.182-7.57-.546-2.381-.363-4.481-1.07-6.298-2.12-1.817-1.049-3.25-2.543-4.3-4.482-1.05-1.938-1.575-4.482-1.575-7.631v-36.948h-10.418v-11.508h10.418v-18.776h17.203v18.776zm14.29 70.987h6.54c1.46 0 2.61-.282 3.46-.848a6.393 6.393 0 0 0 2-2.12c.48-.847.78-1.796.9-2.846.13-1.05.19-2.019.19-2.908v-19.382c0-2.584.46-4.704 1.39-6.36.93-1.655 2.02-2.988 3.27-3.997 1.25-1.01 2.56-1.736 3.94-2.181 1.37-.444 2.5-.706 3.39-.787v-.363c-.89-.081-2.02-.323-3.39-.727-1.38-.404-2.69-1.111-3.94-2.12-1.25-1.01-2.34-2.423-3.27-4.24-.93-1.817-1.39-4.22-1.39-7.208v-18.413c0-.969-.06-1.978-.19-3.028-.12-1.05-.42-1.999-.9-2.847a6.393 6.393 0 0 0-2-2.12c-.85-.565-2-.848-3.46-.848h-6.54v-13.567h15.39c1.37 0 2.93.343 4.66 1.029 1.74.687 3.35 1.696 4.85 3.029 1.49 1.332 2.76 3.028 3.81 5.088 1.05 2.059 1.58 4.461 1.58 7.207v22.774c0 2.019.4 3.735 1.21 5.149.81 1.413 1.78 2.544 2.91 3.392 1.13.848 2.34 1.453 3.63 1.817 1.29.363 2.42.545 3.39.545v10.539c-.97 0-2.1.182-3.39.545-1.29.363-2.5.929-3.63 1.696-1.13.767-2.1 1.797-2.91 3.089s-1.21 2.867-1.21 4.724v23.501c0 2.746-.53 5.149-1.58 7.208s-2.32 3.755-3.81 5.088c-1.5 1.332-3.11 2.342-4.85 3.028-1.73.687-3.29 1.03-4.66 1.03h-15.39v-13.568zm40.34 0h6.54c1.46 0 2.61-.282 3.46-.848a6.393 6.393 0 0 0 2-2.12c.48-.847.78-1.796.9-2.846s.18-2.019.18-2.908v-19.382c0-2.584.47-4.704 1.4-6.36.93-1.655 2.02-2.988 3.27-3.997 1.25-1.01 2.56-1.736 3.94-2.181 1.37-.444 2.5-.706 3.39-.787v-.363c-.89-.081-2.02-.323-3.39-.727-1.38-.404-2.69-1.111-3.94-2.12-1.25-1.01-2.34-2.423-3.27-4.24-.93-1.817-1.4-4.22-1.4-7.208v-18.413c0-.969-.06-1.978-.18-3.028s-.42-1.999-.9-2.847a6.393 6.393 0 0 0-2-2.12c-.85-.565-2-.848-3.46-.848h-6.54v-13.567h15.39c1.37 0 2.92.343 4.66 1.029 1.74.687 3.35 1.696 4.85 3.029 1.49 1.332 2.76 3.028 3.81 5.088 1.05 2.059 1.58 4.461 1.58 7.207v22.774c0 2.019.4 3.735 1.21 5.149.81 1.413 1.77 2.544 2.91 3.392 1.13.848 2.34 1.453 3.63 1.817 1.29.363 2.42.545 3.39.545v10.539c-.97 0-2.1.182-3.39.545-1.29.363-2.5.929-3.63 1.696-1.14.767-2.1 1.797-2.91 3.089s-1.21 2.867-1.21 4.724v23.501c0 2.746-.53 5.149-1.58 7.208s-2.32 3.755-3.81 5.088c-1.5 1.332-3.11 2.342-4.85 3.028-1.74.687-3.29 1.03-4.66 1.03h-15.39v-13.568z"/><path serif:id="Oct.17+18,2019" d="M302.392 493.507c0 3.634.424 7.167 1.272 10.6.848 3.432 2.201 6.521 4.058 9.267 1.857 2.746 4.28 4.946 7.268 6.602 2.988 1.655 6.623 2.483 10.903 2.483s7.914-.828 10.902-2.483c2.988-1.656 5.411-3.856 7.269-6.602 1.857-2.746 3.21-5.835 4.058-9.267a44.036 44.036 0 0 0 1.272-10.6c0-3.796-.424-7.47-1.272-11.023-.848-3.554-2.201-6.724-4.058-9.51-1.858-2.786-4.281-5.007-7.269-6.662-2.988-1.656-6.622-2.484-10.902-2.484-4.28 0-7.915.828-10.903 2.484-2.988 1.655-5.411 3.876-7.268 6.662-1.857 2.786-3.21 5.956-4.058 9.51-.848 3.553-1.272 7.227-1.272 11.023zm-19.019 0c0-6.461.969-12.457 2.908-17.989 1.938-5.532 4.724-10.357 8.358-14.476 3.634-4.119 8.096-7.349 13.386-9.691 5.29-2.342 11.246-3.513 17.868-3.513 6.703 0 12.679 1.171 17.928 3.513 5.25 2.342 9.691 5.572 13.326 9.691 3.634 4.119 6.42 8.944 8.358 14.476 1.938 5.532 2.907 11.528 2.907 17.989 0 6.299-.969 12.175-2.907 17.626-1.938 5.451-4.724 10.196-8.358 14.234-3.635 4.038-8.076 7.207-13.326 9.509-5.249 2.302-11.225 3.452-17.928 3.452-6.622 0-12.578-1.15-17.868-3.452-5.29-2.302-9.752-5.471-13.386-9.509-3.634-4.038-6.42-8.783-8.358-14.234-1.939-5.451-2.908-11.327-2.908-17.626zm138.825 2.302c-1.131-7.188-5.371-10.782-12.72-10.782-2.745 0-5.047.626-6.905 1.878-1.857 1.252-3.371 2.867-4.542 4.846-1.171 1.978-1.999 4.159-2.484 6.541a35.53 35.53 0 0 0-.726 7.087c0 2.261.242 4.563.726 6.905.485 2.342 1.272 4.462 2.363 6.359a13.567 13.567 0 0 0 4.421 4.664c1.858 1.212 4.119 1.817 6.784 1.817 4.119 0 7.288-1.15 9.509-3.452s3.614-5.391 4.18-9.267H439.4c-1.131 8.318-4.361 14.657-9.692 19.018-5.33 4.362-12.154 6.542-20.472 6.542-4.684 0-8.984-.787-12.901-2.362-3.917-1.575-7.248-3.776-9.994-6.602-2.746-2.827-4.886-6.199-6.42-10.115-1.535-3.917-2.302-8.218-2.302-12.902 0-4.845.707-9.347 2.12-13.507 1.413-4.159 3.493-7.752 6.239-10.781 2.745-3.028 6.097-5.391 10.054-7.086 3.957-1.696 8.48-2.544 13.567-2.544 3.715 0 7.289.484 10.721 1.453 3.433.969 6.501 2.443 9.207 4.422 2.705 1.978 4.906 4.442 6.602 7.389 1.696 2.948 2.665 6.441 2.907 10.479h-16.838zm48.698-22.047h12.598v11.508h-12.598v31.011c0 2.908.484 4.846 1.453 5.815.969.969 2.908 1.453 5.815 1.453.969 0 1.898-.04 2.786-.121.888-.08 1.736-.202 2.544-.363v13.325c-1.454.242-3.069.404-4.846.485-1.776.081-3.513.121-5.208.121-2.666 0-5.189-.182-7.572-.545-2.382-.364-4.482-1.07-6.299-2.12-1.817-1.05-3.25-2.544-4.3-4.482-1.05-1.939-1.575-4.482-1.575-7.632V485.27h-10.418v-11.508h10.418v-18.777h17.202v18.777zm21.562 43.973h19.019v18.655h-19.019v-18.655zm73.895 18.655h-17.202v-54.997h-21.32v-12.962a40.696 40.696 0 0 0 8.661-.666c2.786-.525 5.29-1.453 7.511-2.786s4.098-3.089 5.633-5.269c1.534-2.181 2.544-4.886 3.028-8.117h13.689v84.797zm82.495-70.018c-4.442 3.877-8.379 8.641-11.811 14.294-3.432 5.654-6.299 11.67-8.601 18.05a127.967 127.967 0 0 0-5.33 19.382c-1.252 6.542-1.918 12.639-1.999 18.292h-18.413a115.644 115.644 0 0 1 8.904-36.584 129.993 129.993 0 0 1 19.564-32.223h-40.218v-15.99h57.904v14.779zm47.607 32.95h24.107v12.962h-24.107v24.106h-12.961v-24.106h-24.107v-12.962h24.107v-24.107h12.961v24.107zm77.287 37.068H756.54v-54.997h-21.32v-12.962a40.696 40.696 0 0 0 8.661-.666c2.786-.525 5.29-1.453 7.511-2.786s4.098-3.089 5.633-5.269c1.534-2.181 2.544-4.886 3.028-8.117h13.689v84.797zm40.702-61.78c0 3.634 1.293 6.4 3.877 8.298 2.584 1.897 5.613 2.846 9.085 2.846 3.634 0 6.663-.949 9.086-2.846 2.422-1.898 3.634-4.664 3.634-8.298 0-1.131-.162-2.363-.485-3.695-.323-1.333-.949-2.605-1.877-3.816-.929-1.211-2.221-2.221-3.877-3.029-1.655-.807-3.816-1.211-6.481-1.211a15.41 15.41 0 0 0-4.906.788c-1.575.524-2.968 1.271-4.179 2.241-1.212.969-2.16 2.18-2.847 3.634-.686 1.453-1.03 3.149-1.03 5.088zm-15.626-1.575c0-3.796.847-7.147 2.543-10.055a23.243 23.243 0 0 1 6.602-7.268c2.706-1.938 5.755-3.392 9.146-4.361a37.318 37.318 0 0 1 10.297-1.454c5.25 0 9.691.808 13.325 2.423 3.635 1.615 6.562 3.574 8.783 5.875 2.221 2.302 3.816 4.765 4.785 7.39.969 2.624 1.454 4.987 1.454 7.086 0 4.2-1.03 7.874-3.089 11.024-2.06 3.15-5.149 5.411-9.268 6.784v.242c5.088 1.131 9.005 3.533 11.751 7.208 2.746 3.674 4.119 8.177 4.119 13.507 0 4.522-.909 8.439-2.726 11.75s-4.22 6.057-7.208 8.237c-2.988 2.181-6.38 3.816-10.175 4.907a41.93 41.93 0 0 1-11.63 1.635c-4.118 0-8.096-.505-11.932-1.514-3.836-1.01-7.268-2.605-10.297-4.785-3.028-2.181-5.451-4.926-7.268-8.238-1.817-3.311-2.725-7.268-2.725-11.871 0-5.411 1.393-9.934 4.179-13.568 2.786-3.634 6.723-6.057 11.811-7.268v-.242c-4.119-1.131-7.228-3.271-9.328-6.421-2.1-3.149-3.149-6.824-3.149-11.023zm13.688 37.674c0 2.18.404 4.159 1.212 5.936.807 1.776 1.877 3.291 3.21 4.542 1.332 1.252 2.927 2.221 4.785 2.908a16.644 16.644 0 0 0 5.814 1.029c2.1 0 4.018-.343 5.754-1.029a14.384 14.384 0 0 0 4.604-2.908c1.332-1.251 2.362-2.766 3.089-4.542.726-1.777 1.09-3.715 1.09-5.815 0-2.019-.384-3.856-1.151-5.512a13.32 13.32 0 0 0-3.149-4.3 14.05 14.05 0 0 0-4.604-2.786c-1.736-.647-3.614-.97-5.633-.97-4.199 0-7.753 1.151-10.66 3.453-2.907 2.302-4.361 5.633-4.361 9.994zm55.845 7.026h19.019v18.655c0 2.746-.505 5.27-1.514 7.571-1.01 2.302-2.363 4.301-4.059 5.997-1.696 1.696-3.694 3.089-5.996 4.179a26.65 26.65 0 0 1-7.329 2.241v-8.722c1.212-.242 2.362-.727 3.453-1.454a12.48 12.48 0 0 0 2.846-2.604 10.561 10.561 0 0 0 1.817-3.392c.404-1.252.566-2.524.485-3.816h-8.722v-18.655zm30.769-33.555c-.161-4.846.404-9.348 1.696-13.507 1.292-4.16 3.23-7.794 5.815-10.903 2.584-3.109 5.835-5.532 9.751-7.268 3.917-1.737 8.42-2.605 13.507-2.605 3.877 0 7.572.606 11.085 1.817 3.513 1.212 6.602 2.948 9.267 5.209 2.665 2.262 4.785 5.048 6.359 8.359 1.575 3.311 2.363 7.026 2.363 11.145 0 4.28-.687 7.954-2.06 11.023a28.954 28.954 0 0 1-5.451 8.177c-2.261 2.382-4.825 4.543-7.692 6.481a643.637 643.637 0 0 1-8.662 5.754 112.433 112.433 0 0 0-8.479 6.118 38.381 38.381 0 0 0-7.269 7.631h40.097v14.779h-62.265c0-4.926.707-9.206 2.12-12.841 1.413-3.634 3.331-6.884 5.754-9.751 2.423-2.867 5.269-5.512 8.54-7.935a368.816 368.816 0 0 1 10.358-7.389 168.263 168.263 0 0 1 5.935-3.937 39.49 39.49 0 0 0 5.754-4.422 23.524 23.524 0 0 0 4.361-5.451c1.171-2.019 1.757-4.321 1.757-6.905 0-4.119-1.191-7.329-3.574-9.63-2.382-2.302-5.431-3.453-9.146-3.453-2.503 0-4.623.586-6.359 1.757-1.737 1.171-3.13 2.705-4.18 4.603-1.05 1.898-1.797 3.998-2.241 6.299a36.071 36.071 0 0 0-.666 6.845H899.12zm82.617 9.448c0 2.423.08 5.351.242 8.783a47.155 47.155 0 0 0 1.514 9.933c.848 3.19 2.201 5.916 4.058 8.177 1.858 2.261 4.523 3.392 7.995 3.392 3.554 0 6.284-1.131 8.174-3.392 1.9-2.261 3.27-4.987 4.12-8.177.85-3.19 1.36-6.501 1.52-9.933.16-3.432.24-6.36.24-8.783 0-1.453-.02-3.21-.06-5.269-.04-2.06-.2-4.179-.49-6.36a57.254 57.254 0 0 0-1.21-6.481c-.52-2.14-1.31-4.058-2.36-5.754-1.05-1.696-2.38-3.069-4-4.119-1.613-1.05-3.592-1.575-5.934-1.575s-4.3.525-5.875 1.575c-1.575 1.05-2.867 2.423-3.876 4.119-1.01 1.696-1.797 3.614-2.362 5.754-.566 2.14-.97 4.3-1.212 6.481a70.37 70.37 0 0 0-.424 6.36c-.04 2.059-.06 3.816-.06 5.269zm-17.202 0c0-8.237.828-15.162 2.483-20.775 1.656-5.613 3.897-10.115 6.723-13.507 2.827-3.392 6.118-5.815 9.873-7.268 3.756-1.454 7.733-2.181 11.932-2.181 4.281 0 8.294.727 12.054 2.181 3.76 1.453 7.07 3.876 9.93 7.268 2.87 3.392 5.13 7.894 6.79 13.507 1.65 5.613 2.48 12.538 2.48 20.775 0 8.48-.83 15.567-2.48 21.26-1.66 5.694-3.92 10.236-6.79 13.628-2.86 3.392-6.17 5.815-9.93 7.268-3.76 1.454-7.773 2.181-12.054 2.181-4.199 0-8.176-.727-11.932-2.181-3.755-1.453-7.046-3.876-9.873-7.268-2.826-3.392-5.067-7.934-6.723-13.628-1.655-5.693-2.483-12.78-2.483-21.26zm112.295 42.762h-17.2v-54.997h-21.32v-12.962c2.99.081 5.87-.141 8.66-.666s5.29-1.453 7.51-2.786c2.22-1.333 4.1-3.089 5.63-5.269 1.54-2.181 2.55-4.886 3.03-8.117h13.69v84.797zm52.57-40.823c2.35 0 4.37-.424 6.06-1.272 1.7-.848 3.11-1.999 4.24-3.453 1.13-1.454 1.98-3.129 2.55-5.027.56-1.898.84-3.897.84-5.997 0-1.938-.3-3.856-.91-5.754a16.004 16.004 0 0 0-2.66-5.087 13.202 13.202 0 0 0-4.3-3.574c-1.7-.888-3.63-1.333-5.82-1.333-2.02 0-3.83.445-5.45 1.333a13.307 13.307 0 0 0-4.12 3.513c-1.13 1.454-1.97 3.109-2.54 4.967a19.625 19.625 0 0 0-.85 5.693c0 2.019.26 3.978.79 5.875.53 1.898 1.31 3.594 2.36 5.088 1.05 1.494 2.41 2.706 4.06 3.634 1.66.929 3.57 1.394 5.75 1.394zm-12.35 19.018c.56 2.827 1.86 5.29 3.87 7.39 2.02 2.099 4.53 3.149 7.51 3.149 3.16 0 5.74-.908 7.76-2.725 2.02-1.817 3.63-4.038 4.84-6.663 1.22-2.625 2.08-5.431 2.61-8.419.52-2.988.87-5.653 1.03-7.995l-.24-.242c-2.35 3.391-5.09 5.814-8.24 7.268-3.15 1.454-6.79 2.18-10.9 2.18-3.64 0-7.19-.787-10.67-2.362-3.47-1.575-6.42-3.695-8.84-6.36-2.26-2.584-3.91-5.532-4.96-8.843-1.05-3.311-1.58-6.662-1.58-10.054 0-4.361.71-8.419 2.12-12.175 1.41-3.755 3.43-7.026 6.06-9.812 2.62-2.786 5.75-4.987 9.39-6.602 3.63-1.615 7.67-2.423 12.11-2.423 6.46 0 11.77 1.272 15.93 3.816 4.16 2.544 7.49 5.896 9.99 10.055 2.51 4.159 4.24 8.863 5.21 14.112a87.161 87.161 0 0 1 1.46 15.869c0 5.25-.61 10.499-1.82 15.748-1.21 5.25-3.15 9.994-5.81 14.234-2.67 4.24-6.1 7.672-10.3 10.297-4.2 2.625-9.33 3.937-15.39 3.937-3.63 0-7.02-.505-10.17-1.514-3.15-1.01-5.94-2.524-8.36-4.543-2.42-2.019-4.4-4.482-5.94-7.389-1.53-2.908-2.54-6.219-3.03-9.934h16.36z"/></g><g fill="none" stroke="#30adc3" stroke-width="3"><path serif:id="Stroke-1" d="M214.797 533.5v10.595"/><path serif:id="Stroke-3" d="M220.095 538.798H209.5"/></g><g fill="none" stroke="#30adc3" stroke-width="3"><path serif:id="Stroke-1" d="M119.797 392.5v10.595"/><path serif:id="Stroke-3" d="M125.095 397.798H114.5"/></g><g fill="none" stroke="#30adc3" stroke-width="3"><path serif:id="Stroke-1" d="M254.797 386.5v10.595"/><path serif:id="Stroke-3" d="M260.095 391.798H249.5"/></g><g fill="none" stroke="#30adc3" stroke-width="3"><path serif:id="Stroke-1" d="M47.797 306.5v10.595"/><path serif:id="Stroke-3" d="M53.095 311.798H42.5"/></g><g fill="none" stroke="#30adc3" stroke-width="3"><path serif:id="Stroke-1" d="M1244.8 380.5v10.595"/><path serif:id="Stroke-3" d="M1250.1 385.798h-10.6"/></g><g fill="none" stroke="#30adc3" stroke-width="3"><path serif:id="Stroke-1" d="M1368.8 333.5v10.595"/><path serif:id="Stroke-3" d="M1374.1 338.798h-10.6"/></g><g fill="none" stroke="#30adc3" stroke-width="3"><path serif:id="Stroke-1" d="M1356.8 430.5v10.595"/><path serif:id="Stroke-3" d="M1362.1 435.798h-10.6"/></g><g fill="none" stroke="#30adc3" stroke-width="3"><path serif:id="Stroke-1" d="M1396.8 521.5v10.595"/><path serif:id="Stroke-3" d="M1402.1 526.798h-10.6"/></g><g fill="none" stroke="#30adc3" stroke-width="3"><path serif:id="Stroke-1" d="M1124.8 618.5v10.595"/><path serif:id="Stroke-3" d="M1130.1 623.798h-10.6"/></g><g><text font-family="'HelveticaNeue-Bold','Helvetica Neue'" font-weight="700" font-size="24" fill="#e25640" transform="translate(493.605 623.79) scale(3.11297)">Copenhagen</text></g><defs><linearGradient id="_Linear1" x1="0" y1="0" x2="1" y2="0" gradientUnits="userSpaceOnUse" gradientTransform="rotate(21.423 -662.224 171.075) scale(3069.32)"><stop offset="0" stop-color="#dff3f3"/><stop offset="0" stop-color="#dff3f3"/><stop offset=".14" stop-color="#e1f6f6"/><stop offset=".38" stop-color="#ffe2de"/><stop offset=".54" stop-color="#fcbdb4"/><stop offset=".71" stop-color="#fee3ef"/><stop offset="1" stop-color="#fee3ef"/></linearGradient></defs></svg>