<svg width="1440" height="1041" xmlns="http://www.w3.org/2000/svg">
 <!-- Generator: Sketch 53.2 (72643) - https://sketchapp.com -->
 <title>Desktop HD</title>
 <desc>Created with Sketch.</desc>
 <defs>
  <linearGradient id="linearGradient-1" y2="132.160934%" x2="199.512774%" y1="24.4670176%" x1="1.09242265%">
   <stop offset="0.0422297297%" stop-color="#DFF3F3"/>
   <stop offset="13.6850718%" stop-color="#E1F6F6"/>
   <stop offset="38.0659908%" stop-color="#FFE2DE"/>
   <stop offset="54.0012669%" stop-color="#FCBDB4"/>
   <stop offset="71.3708826%" stop-color="#FEE3EF"/>
   <stop offset="100%" stop-color="#FEE3EF"/>
  </linearGradient>
 </defs>
 <g>
  <title>background</title>
  <rect fill="none" id="canvas_background" height="402" width="582" y="-1" x="-1"/>
 </g>
 <g>
  <title>Layer 1</title>
  <g fill-rule="evenodd" fill="none" id="Desktop-HD">
   <rect id="svg_1" height="1041" width="1440" y="0" x="0" fill="#F8ECF1"/>
   <rect height="1041" width="1440" y="0" x="0" fill="url(#linearGradient-1)" id="Mask"/>
   <g stroke-width="3" stroke-linejoin="round" stroke-linecap="round" stroke="#30ADC3" id="Group-2">
    <path id="Path-Copy" d="m466.971375,905c-21.994568,0 -21.994568,-14 -43.989105,-14c-21.997711,0 -21.997711,14 -43.992249,14c-22.000885,0 -22.000885,-14 -44.00174,-14c-21.997711,0 -21.997711,14 -43.992249,14c-21.997711,0 -21.997711,-14 -43.998566,-14c-21.997711,0 -21.997711,14 -43.998566,14c-22.00087,0 -22.00087,-14 -44.001724,-14c-21.997711,0 -21.997711,14 -43.992264,14c-22.004005,0 -22.004005,-14 -44.008026,-14c-22.004021,0 -22.004021,14 -44.008026,14c-22.01033,0 -22.01033,-14 -44.01749,-14"/>
    <path id="Path-Copy-3" d="m1439.971313,905c-21.994507,0 -21.994507,-14 -43.989014,-14c-21.997681,0 -21.997681,14 -43.99231,14c-22.000854,0 -22.000854,-14 -44.001709,-14c-21.997681,0 -21.997681,14 -43.99231,14c-21.997681,0 -21.997681,-14 -43.998535,-14c-21.997681,0 -21.997681,14 -43.998535,14c-22.000854,0 -22.000854,-14 -44.001709,-14c-21.997681,0 -21.997681,14 -43.99231,14c-22.004028,0 -22.004028,-14 -44.007935,-14c-22.004028,0 -22.004028,14 -44.008118,14c-22.010315,0 -22.010315,-14 -44.017456,-14"/>
    <path id="Path-Copy-2" d="m469.971375,905c21.994568,0 21.994568,-14 43.989136,-14c21.997681,0 21.997681,14 43.992249,14c22.000854,0 22.000854,-14 44.001709,-14c21.997681,0 21.997681,14 43.992249,14c21.997681,0 21.997681,-14 43.998596,-14c21.997681,0 21.997681,14 43.998535,14c22.000854,0 22.000854,-14 44.001709,-14c21.997742,0 21.997742,14 43.992249,14c22.004028,0 22.004028,-14 44.008057,-14c22.004028,0 22.004028,14 44.008057,14c22.010315,0 22.010315,-14 44.017456,-14"/>
   </g>
   <g stroke-width="3" stroke-linejoin="round" stroke-linecap="round" stroke="#30ADC3" id="Group-2-Copy">
    <path id="Path-Copy" d="m466.971375,869c-21.994568,0 -21.994568,-14 -43.989105,-14c-21.997711,0 -21.997711,14 -43.992249,14c-22.000885,0 -22.000885,-14 -44.00174,-14c-21.997711,0 -21.997711,14 -43.992249,14c-21.997711,0 -21.997711,-14 -43.998566,-14c-21.997711,0 -21.997711,14 -43.998566,14c-22.00087,0 -22.00087,-14 -44.001724,-14c-21.997711,0 -21.997711,14 -43.992264,14c-22.004005,0 -22.004005,-14 -44.008026,-14c-22.004021,0 -22.004021,14 -44.008026,14c-22.01033,0 -22.01033,-14 -44.01749,-14"/>
    <path id="Path-Copy-3" d="m1439.971313,869c-21.994507,0 -21.994507,-14 -43.989014,-14c-21.997681,0 -21.997681,14 -43.99231,14c-22.000854,0 -22.000854,-14 -44.001709,-14c-21.997681,0 -21.997681,14 -43.99231,14c-21.997681,0 -21.997681,-14 -43.998535,-14c-21.997681,0 -21.997681,14 -43.998535,14c-22.000854,0 -22.000854,-14 -44.001709,-14c-21.997681,0 -21.997681,14 -43.99231,14c-22.004028,0 -22.004028,-14 -44.007935,-14c-22.004028,0 -22.004028,14 -44.008118,14c-22.010315,0 -22.010315,-14 -44.017456,-14"/>
    <path id="Path-Copy-2" d="m469.971375,869c21.994568,0 21.994568,-14 43.989136,-14c21.997681,0 21.997681,14 43.992249,14c22.000854,0 22.000854,-14 44.001709,-14c21.997681,0 21.997681,14 43.992249,14c21.997681,0 21.997681,-14 43.998596,-14c21.997681,0 21.997681,14 43.998535,14c22.000854,0 22.000854,-14 44.001709,-14c21.997742,0 21.997742,14 43.992249,14c22.004028,0 22.004028,-14 44.008057,-14c22.004028,0 22.004028,14 44.008057,14c22.010315,0 22.010315,-14 44.017456,-14"/>
   </g>
   <g opacity="0.462774" id="Group">
    <path fill="#30ADC3" id="Fill-1" d="m893.375549,611.623413l-2.484192,-117.551697l2.484192,-5.929291l0,-23.510803c-1.529968,-44.727875 -15.561279,-138.004974 -123.1026,-160.178497l0,-16.43692l-19.144226,0l0,-49.505722c0,-12.973373 -7.881592,-24.104874 -19.125916,-28.859787l0,0c0,0 1.766235,-2.458893 3.475159,-4.592072c-9.572144,-7.454636 -9.544617,-20.07019 -10.118103,-21.790482c-0.573425,-1.720322 -3.961426,-3.823654 -3.961426,-3.823654l1.580444,-4.394821l-3.163147,-4.587463l-3.167786,4.587463l1.580444,4.394821c0,0 -3.387939,2.103333 -3.961426,3.823654c-0.573486,1.720291 -0.545898,14.335846 -10.118042,21.790482c1.706604,2.133179 3.475098,4.592072 3.475098,4.592072c-11.244263,4.754913 -19.13501,15.886414 -19.13501,28.859787l0,49.505722l-19.144287,0l0,16.43692c-107.54126,22.173523 -121.572632,115.450623 -123.100281,160.178497l0,23.510803l2.484192,5.929291l-2.484192,117.551697l-55.244446,0l0,21.407471l9.55835,14.335815l0,179.886292l219.250488,0l219.252808,0l0,-179.886292l9.55603,-14.335815l0,-21.407471l-55.242126,0z"/>
    <g stroke-width="3" stroke-linejoin="round" stroke-linecap="round" stroke="#30ADC3" id="Group-13">
     <path id="Stroke-1" d="m720,138.349884l0,38.99353"/>
     <path id="Stroke-3" d="m720,120l0,6.88121"/>
     <path id="Stroke-5" d="m725.734558,132.615555l4.587646,0"/>
     <path id="Stroke-7" d="m709.677795,132.615555l4.587646,0"/>
     <path id="Stroke-9" d="m725.734558,132.615555c0,3.165359 -2.569092,5.734329 -5.734558,5.734329c-3.168335,0 -5.734558,-2.56897 -5.734558,-5.734329c0,-3.165359 2.566223,-5.734344 5.734558,-5.734344c3.165466,0 5.734558,2.568985 5.734558,5.734344z"/>
    </g>
   </g>
   <g stroke-width="3" stroke-linejoin="round" stroke-linecap="round" stroke="#30ADC3" id="Group-38-Copy-2">
    <g id="Group-37">
     <path id="Stroke-1" d="m979.83429,686.130981c-0.208984,-3.401001 2.478027,-3.877991 4.166016,-3.25c3.365967,1.254028 3.5,6.747009 3.5,6.747009l0,44.666992"/>
     <polyline points="987.4997997283936,646.1251001358032 984.832799911499,646.1251001358032 975.4997999966145,653.3740997314453 981.4998002052307,677.8771018981934 987.4997997283936,677.8771018981934 " id="Stroke-3"/>
     <polyline points="987.4997997283936,646.1251001358032 990.1667995452881,646.1251001358032 999.4997997283936,653.3740997314453 993.4997997283936,677.8771018981934 987.4997997283936,677.8771018981934 " id="Stroke-5"/>
     <path id="Stroke-7" d="m995.165771,686.130981c0.209045,-3.401001 -2.478943,-3.877991 -4.165955,-3.25c-3.366028,1.254028 -3.5,6.747009 -3.5,6.747009l0,44.666992"/>
     <path id="Stroke-9" d="m990.374817,639.249084c0,1.588013 -1.286987,2.875 -2.875,2.875c-1.587036,0 -2.875,-1.286987 -2.875,-2.875c0,-1.588013 1.287964,-2.875 2.875,-2.875c1.588013,0 2.875,1.286987 2.875,2.875z"/>
     <path id="Stroke-11" d="m987.499817,636.374084l0,-4.875"/>
     <path id="Stroke-13" d="m992.249817,739.044983c0,2.622986 -2.126038,4.75 -4.75,4.75c-2.623047,0 -4.75,-2.127014 -4.75,-4.75c0,-2.623962 2.126953,-4.75 4.75,-4.75c2.623962,0 4.75,2.126038 4.75,4.75z"/>
     <polyline points="985.0774002075195,743.1250991821289 979.8224000930786,827.5030975341797 987.499400138855,827.5030975341797 " id="Stroke-15"/>
     <polyline points="989.9222002029419,743.1250991821289 995.1772003173828,827.5030975341797 987.5002002716064,827.5030975341797 " id="Stroke-17"/>
     <path id="Stroke-19" d="m975.499817,653.374084l24,0"/>
     <polyline points="984.612099647522,677.8771018981934 982.7371001243591,653.3740997314453 987.5001001358032,646.1251001358032 " id="Stroke-21"/>
     <polyline points="990.3879995346069,677.8771018981934 992.2630004882812,653.3740997314453 987.5,646.1251001358032 " id="Stroke-23"/>
     <path id="Stroke-25" d="m992.626831,786.546997l-10.253052,0"/>
     <path id="Stroke-27" d="m982.24353,788.632935l10.534973,0"/>
     <path id="Stroke-29" d="m987.499817,782.377991l0,-18.166992"/>
     <path id="Stroke-31" d="m980.105286,822.963013l14.790039,0"/>
     <path id="Stroke-33" d="m985.592102,794.210999l-1.166992,24.25"/>
     <path id="Stroke-35" d="m989.429504,794.210999l1.166992,24.25"/>
    </g>
   </g>
   <g stroke-width="3" stroke-linejoin="round" stroke-linecap="round" stroke="#30ADC3" id="Group-4">
    <polygon points="47.375,827.3200073242188 107.21900177001953,827.3200073242188 107.21900177001953,528.6070003509521 112.75,521.5659999847412 112.75,510 47.375,510 -18,510 -18,521.5659999847412 -12.468999862670898,528.6070003509521 -12.468999862670898,827.3200073242188 " id="Stroke-1"/>
   </g>
   <g stroke-width="3" stroke-linejoin="round" stroke-linecap="round" stroke="#30ADC3" id="Group-38-Copy">
    <g id="Group-37">
     <path id="Stroke-1" d="m715.83429,686.130981c-0.208984,-3.401001 2.478027,-3.877991 4.166016,-3.25c3.365967,1.254028 3.5,6.747009 3.5,6.747009l0,44.666992"/>
     <polyline points="723.4997997283936,646.1251001358032 720.832799911499,646.1251001358032 711.4997999966145,653.3740997314453 717.4998002052307,677.8771018981934 723.4997997283936,677.8771018981934 " id="Stroke-3"/>
     <polyline points="723.4997997283936,646.1251001358032 726.1667995452881,646.1251001358032 735.4997997283936,653.3740997314453 729.4997997283936,677.8771018981934 723.4997997283936,677.8771018981934 " id="Stroke-5"/>
     <path id="Stroke-7" d="m731.165771,686.130981c0.209045,-3.401001 -2.478943,-3.877991 -4.165955,-3.25c-3.366028,1.254028 -3.5,6.747009 -3.5,6.747009l0,44.666992"/>
     <path id="Stroke-9" d="m726.374817,639.249084c0,1.588013 -1.286987,2.875 -2.875,2.875c-1.587036,0 -2.875,-1.286987 -2.875,-2.875c0,-1.588013 1.287964,-2.875 2.875,-2.875c1.588013,0 2.875,1.286987 2.875,2.875z"/>
     <path id="Stroke-11" d="m723.499817,636.374084l0,-4.875"/>
     <path id="Stroke-13" d="m728.249817,739.044983c0,2.622986 -2.126038,4.75 -4.75,4.75c-2.623047,0 -4.75,-2.127014 -4.75,-4.75c0,-2.623962 2.126953,-4.75 4.75,-4.75c2.623962,0 4.75,2.126038 4.75,4.75z"/>
     <polyline points="721.0774002075195,743.1250991821289 715.8224000930786,827.5030975341797 723.499400138855,827.5030975341797 " id="Stroke-15"/>
     <polyline points="725.9222002029419,743.1250991821289 731.1772003173828,827.5030975341797 723.5002002716064,827.5030975341797 " id="Stroke-17"/>
     <path id="Stroke-19" d="m711.499817,653.374084l24,0"/>
     <polyline points="720.612099647522,677.8771018981934 718.7371001243591,653.3740997314453 723.5001001358032,646.1251001358032 " id="Stroke-21"/>
     <polyline points="726.3879995346069,677.8771018981934 728.2630004882812,653.3740997314453 723.5,646.1251001358032 " id="Stroke-23"/>
     <path id="Stroke-25" d="m728.626831,786.546997l-10.253052,0"/>
     <path id="Stroke-27" d="m718.24353,788.632935l10.534973,0"/>
     <path id="Stroke-29" d="m723.499817,782.377991l0,-18.166992"/>
     <path id="Stroke-31" d="m716.105286,822.963013l14.790039,0"/>
     <path id="Stroke-33" d="m721.592102,794.210999l-1.166992,24.25"/>
     <path id="Stroke-35" d="m725.429504,794.210999l1.166992,24.25"/>
    </g>
   </g>
   <g stroke-width="3" stroke-linejoin="round" stroke-linecap="round" stroke="#30ADC3" id="Group-5">
    <g id="Group-7">
     <path id="Stroke-1" d="m1300.791382,527.600281c15.090942,-4.886963 6.036011,8.084045 6.036011,8.084045l0,5.066956l2.695068,3.126038l0,12.934998c0,0 2.047974,0.969971 2.047974,5.065979c2.694946,0 1.94104,7.97699 1.94104,7.97699l2.477905,0l-2.477905,3.665039l0,22.312988l2.477905,0c0,6.252014 2.264038,5.281982 5.498047,9.485962c3.234009,4.204041 0,11.533997 0,11.533997l0,5.749023l4.741943,0l-4.813965,4.814026l0,50.662964l-41.249023,0l0,-50.662964l-4.813965,-4.814026l4.743042,0l0,-5.749023c0,0 -3.235107,-7.329956 0,-11.533997c3.23291,-4.203979 5.496948,-3.233948 5.496948,-9.485962l2.479004,0l0,-22.312988l-2.479004,-3.665039l2.479004,0c0,0 -1.185059,-6.682983 1.94104,-7.97699c0,-4.096008 2.047974,-5.065979 2.047974,-5.065979l0,-12.934998l2.69397,-3.126038l0,-5.066956c0,0 -9.054932,-12.971008 6.036987,-8.084045"/>
     <g id="Group-17">
      <path id="Stroke-1" d="m1300.865356,514.291382c-7.545898,-2.442993 -3.018921,4.041992 -3.018921,4.041992l0,2.533997l3.018921,0"/>
      <path id="Stroke-3" d="m1300.865356,505.161591c-5.217896,-1.688995 -2.086914,2.795013 -2.086914,2.795013l0,1.751007l2.086914,0"/>
      <path id="Stroke-3-Copy" d="m1301,505.161591c5.218018,-1.688995 2.087036,2.795013 2.087036,2.795013l0,1.751007l-2.087036,0"/>
      <path id="Stroke-5" d="m1300.865356,520.867615l0,4.661011"/>
      <path id="Stroke-7" d="m1300.865356,509.707489l0,4.584015"/>
      <path id="Stroke-9" d="m1300.865356,496.499908l0,8.661987"/>
      <path id="Stroke-11" d="m1298.961182,499.230896l3.80896,0"/>
      <path id="Stroke-13" d="m1300.865356,514.291382c7.545044,-2.442993 3.018066,4.041992 3.018066,4.041992l0,2.533997l-3.018066,0"/>
     </g>
     <path id="Stroke-3" d="m1321.487671,622.602173l-41.392944,0"/>
     <polygon points="1300.7914123535156,827.6968994140625 1562.0823974609375,827.6968994140625 1562.0823974609375,713.0048980712891 1558.6334228515625,708.4768981933594 1554.3193969726562,713.0048980712891 1543.1104125976562,699.6378936767578 1545.6973876953125,697.0509033203125 1495.0343933105469,678.0798950195312 1300.7914123535156,678.0798950195312 1106.5474014282227,678.0798950195312 1055.8843994140625,697.0509033203125 1058.471399307251,699.6378936767578 1047.262399673462,713.0048980712891 1042.9493999481201,708.4768981933594 1039.4993999898434,713.0048980712891 1039.4993999898434,827.6968994140625 " id="Stroke-5"/>
    </g>
   </g>
   <g stroke-width="3" stroke-linejoin="round" stroke-linecap="round" stroke="#30ADC3" id="Group-11">
    <path id="Stroke-1" d="m855.932617,803.553406c0,0 -39.093994,-27.151978 -16.291016,-38.012024c-9.771973,-27.151001 4.573975,-51.041992 16.291016,-51.041992"/>
    <path id="Stroke-3" d="m855.932617,803.553406c0,0 39.092957,-27.151978 16.289978,-38.012024c9.77301,-27.151001 -4.572998,-51.041992 -16.289978,-51.041992"/>
    <path id="Stroke-5" d="m855.932617,732.754578l0,94.653992"/>
    <path id="Stroke-7" d="m867.648376,777.223328l-11.716003,11.791992"/>
    <path id="Stroke-9" d="m844.21582,777.223328l11.71698,11.791992"/>
   </g>
   <polygon points="282.615 667.970728 220 667.970728 220 828 623 828 623 643.350917 580.853 643.350917 580.853 627.25231 568.54 627.25231 568.54 643.350917 524.973 643.350917 524.973 626.306509 482.824 626.306509 482.824 605 472.88 605 472.88 626.306509 431.208 626.306509 431.208 670.338229 403.396 670.338229 403.396 663.356701 392.973 663.356701 392.973 670.338229 361.121 670.338229 361.121 634.828713 347.862 634.828713 347.862 667.970728 298.478 667.970728 290.561 660.052397" stroke-linejoin="round" stroke-linecap="round" stroke-width="3" stroke="#30ADC3" id="Stroke-1"/>
   <g stroke-width="3" stroke-linejoin="round" stroke-linecap="round" stroke="#30ADC3" id="Group-8">
    <g id="Group-7">
     <path id="Stroke-1" d="m155.935699,827.55188l0,-66.230957"/>
     <path id="Stroke-3" d="m155.932297,809.379089c0.386002,0.116028 -37.164993,0 0,-103.878967"/>
     <path id="Stroke-5" d="m155.939102,809.379089c-0.386002,0.116028 37.166992,0 0,-103.878967"/>
    </g>
   </g>
   <path stroke-linejoin="round" stroke-linecap="round" stroke-width="3" stroke="#30ADC3" id="Line" d="m0,828l1440.028687,0"/>
   <g fill-rule="nonzero" fill="#E25641" id="Group-3">
    <path id="Ember{{fest}}" d="m351.237335,307.18692l64.687958,0l0,15.990295l-45.66922,0l0,18.53418l41.91391,0l0,14.7789l-41.91391,0l0,21.199249l46.638336,0l0,15.990265l-65.657074,0l0,-86.492889zm77.165222,23.864288l16.232574,0l0,8.479706l0.242249,0c2.261292,-3.230377 4.986877,-5.733887 8.17688,-7.51059c3.189972,-1.776703 6.844299,-2.665039 10.963013,-2.665039c3.957214,0 7.571136,0.767181 10.841919,2.301636c3.270752,1.534424 5.754028,4.239807 7.450012,8.116272c1.857452,-2.745819 4.381165,-5.168579 7.571136,-7.268311c3.190002,-2.099762 6.965424,-3.149597 11.326447,-3.149597c3.311157,0 6.379944,0.403778 9.206543,1.211365c2.826538,0.807617 5.249329,2.099731 7.268311,3.876434c2.018982,1.776703 3.59375,4.098511 4.724365,6.965454c1.130676,2.866974 1.695984,6.319397 1.695984,10.357361l0,41.91391l-17.201691,0l0,-35.493561c0,-2.099762 -0.08075,-4.078339 -0.242279,-5.935791c-0.161499,-1.857483 -0.605682,-3.472626 -1.33252,-4.845551c-0.726837,-1.372894 -1.796875,-2.463135 -3.210175,-3.270752c-1.4133,-0.807587 -3.331268,-1.211365 -5.754059,-1.211365c-2.422791,0 -4.381165,0.464355 -5.875244,1.393097c-1.494019,0.928741 -2.665039,2.140106 -3.513,3.634155c-0.847961,1.494049 -1.413269,3.189972 -1.695923,5.087799c-0.282654,1.897858 -0.424011,3.815857 -0.424011,5.754089l0,34.887878l-17.20166,0l0,-35.130157c0,-1.857483 -0.040375,-3.694733 -0.121155,-5.51181c-0.08075,-1.817078 -0.42395,-3.492798 -1.029663,-5.027252c-0.605713,-1.534424 -1.615173,-2.765961 -3.028442,-3.694702c-1.4133,-0.928741 -3.492828,-1.393097 -6.238647,-1.393097c-0.807617,0 -1.877625,0.181702 -3.210175,0.545105c-1.33252,0.363434 -2.624664,1.049866 -3.876434,2.059387c-1.25177,1.00946 -2.321808,2.463135 -3.210144,4.360962c-0.888367,1.897827 -1.33255,4.381165 -1.33255,7.450012l0,36.341553l-17.20166,0l0,-62.628601zm155.178375,31.374878c0,-2.66507 -0.282593,-5.208954 -0.8479,-7.631714c-0.565308,-2.422791 -1.453674,-4.562897 -2.665039,-6.420349c-1.211426,-1.857452 -2.725647,-3.331299 -4.542725,-4.42157c-1.817139,-1.09024 -4.017761,-1.635376 -6.602051,-1.635376c-2.50354,0 -4.684021,0.545135 -6.541504,1.635376c-1.857422,1.090271 -3.391846,2.564117 -4.603271,4.42157c-1.211365,1.857452 -2.099731,3.997559 -2.665039,6.420349c-0.565308,2.42276 -0.847961,4.966644 -0.847961,7.631714c0,2.58429 0.282654,5.087799 0.847961,7.51059c0.565308,2.42276 1.453674,4.562866 2.665039,6.420319c1.211426,1.857483 2.74585,3.331329 4.603271,4.42157c1.857483,1.090271 4.037964,1.635376 6.541504,1.635376c2.58429,0 4.784912,-0.545105 6.602051,-1.635376c1.817078,-1.09024 3.331299,-2.564087 4.542725,-4.42157c1.211365,-1.857452 2.099731,-3.997559 2.665039,-6.420319c0.565308,-2.422791 0.8479,-4.9263 0.8479,-7.51059zm-45.911438,-55.239166l17.20166,0l0,31.496033l0.242249,0c2.099731,-3.230377 4.946533,-5.59256 8.540283,-7.086609c3.59375,-1.494049 7.328857,-2.241058 11.205322,-2.241058c3.149597,0 6.258789,0.646057 9.327637,1.938202c3.068848,1.292145 5.834839,3.270721 8.297974,5.935791c2.463196,2.66507 4.461914,6.077087 5.996399,10.236206c1.534424,4.159088 2.301575,9.10556 2.301575,14.839447c0,5.733917 -0.767151,10.680389 -2.301575,14.839478c-1.534485,4.159119 -3.533203,7.571136 -5.996399,10.236206c-2.463135,2.66507 -5.229126,4.643616 -8.297974,5.935791c-3.068848,1.292145 -6.17804,1.938232 -9.327637,1.938232c-4.603271,0 -8.721924,-0.726868 -12.35614,-2.180511c-3.634155,-1.453674 -6.379944,-3.916779 -8.237427,-7.389435l-0.242249,0l0,7.995117l-16.353699,0l0,-86.492889zm116.171814,48.455414c-0.807617,-4.361023 -2.241089,-7.672089 -4.300415,-9.93335c-2.059387,-2.261292 -5.188721,-3.391907 -9.388245,-3.391907c-2.745789,0 -5.027283,0.464386 -6.844299,1.393127c-1.817139,0.928711 -3.270752,2.079529 -4.361023,3.452454c-1.090271,1.372894 -1.857483,2.826538 -2.301575,4.360962c-0.444214,1.534424 -0.706665,2.907318 -0.787476,4.118713l27.983032,0zm-27.983032,10.902466c0.24231,5.572388 1.655579,9.610321 4.239868,12.113861c2.584351,2.50354 6.299194,3.75528 11.144775,3.75528c3.472656,0 6.460693,-0.868164 8.964233,-2.604492c2.50354,-1.736298 4.037964,-3.573547 4.603271,-5.51178l15.142334,0c-2.422852,7.51062 -6.137695,12.881042 -11.144775,16.11142c-5.00708,3.230377 -11.063965,4.845551 -18.170776,4.845551c-4.926331,0 -9.368042,-0.787415 -13.325195,-2.362213c-3.957275,-1.574799 -7.308716,-3.815857 -10.054565,-6.723206c-2.745789,-2.907318 -4.865723,-6.379913 -6.359741,-10.417908c-1.494019,-4.037964 -2.241089,-8.479645 -2.241089,-13.325226c0,-4.684052 0.767212,-9.044983 2.301636,-13.082977c1.534424,-4.037933 3.714905,-7.530731 6.541504,-10.478455c2.826538,-2.947723 6.198242,-5.269531 10.115051,-6.965454c3.916809,-1.695953 8.257629,-2.543915 13.0224,-2.543915c5.330078,0 9.973755,1.029663 13.930908,3.08902c3.957214,2.059357 7.207764,4.825348 9.751709,8.297974c2.543884,3.472687 4.381104,7.42981 5.511719,11.871582c1.130676,4.441772 1.534424,9.085358 1.211426,13.930939l-45.184692,0zm55.360352,-35.493591l16.353638,0l0,11.629303l0.24231,0c0.807617,-1.938232 1.897827,-3.735077 3.270752,-5.390656c1.372925,-1.655579 2.947693,-3.068848 4.724365,-4.239868c1.776733,-1.17099 3.674561,-2.079529 5.693542,-2.725616c2.018982,-0.646057 4.118713,-0.969086 6.299194,-0.969086c1.130615,0 2.382385,0.201874 3.75531,0.605682l0,15.990265c-0.807617,-0.161499 -1.776733,-0.302826 -2.907349,-0.42395c-1.130615,-0.121155 -2.220825,-0.181732 -3.270752,-0.181732c-3.149597,0 -5.814575,0.524933 -7.995117,1.574799c-2.180542,1.049866 -3.937012,2.483337 -5.269531,4.300415c-1.33252,1.817078 -2.281433,3.937012 -2.846741,6.359772c-0.565369,2.422791 -0.847961,5.047424 -0.847961,7.873993l0,28.225281l-17.20166,0l0,-62.628601zm80.920532,-12.35611l-6.541504,0c-1.453674,0 -2.604492,0.282654 -3.452454,0.847961c-0.847961,0.565308 -1.514221,1.271942 -1.99884,2.119904c-0.484497,0.847992 -0.787354,1.796906 -0.908508,2.846771c-0.121155,1.049866 -0.181702,2.059357 -0.181702,3.028473l0,18.413025c0,2.988098 -0.464355,5.390686 -1.393066,7.207764c-0.928711,1.817078 -2.018982,3.230347 -3.270752,4.239838c-1.25177,1.009491 -2.564087,1.716125 -3.937012,2.119934c-1.372925,0.403778 -2.50354,0.646057 -3.391846,0.726837l0,0.363403c0.888306,0.08075 2.018921,0.343231 3.391846,0.787415c1.372925,0.444153 2.685242,1.17099 3.937012,2.180481c1.25177,1.009491 2.342041,2.34201 3.270752,3.997559c0.928711,1.655579 1.393066,3.775482 1.393066,6.359772l0,19.382172c0,0.888367 0.060547,1.857452 0.181702,2.907318c0.121155,1.049866 0.424011,1.998779 0.908508,2.846771c0.484619,0.847961 1.150879,1.554596 1.99884,2.119904c0.847961,0.565338 1.998779,0.847992 3.452454,0.847992l6.541504,0l0,13.567505l-15.384644,0c-1.372925,0 -2.92749,-0.343231 -4.663818,-1.029694c-1.736328,-0.686432 -3.351501,-1.695923 -4.845581,-3.028473c-1.494019,-1.33252 -2.765991,-3.028442 -3.815796,-5.087799c-1.049927,-2.059357 -1.574829,-4.461914 -1.574829,-7.207733l0,-23.500885c0,-1.857452 -0.403809,-3.432251 -1.211426,-4.724396c-0.807556,-1.292145 -1.776611,-2.321808 -2.907288,-3.08902c-1.130615,-0.767242 -2.34198,-1.33255 -3.634155,-1.695953c-1.292175,-0.363403 -2.382385,-0.545105 -3.270691,-0.545105l0,-10.539063c0.888306,0 1.978516,-0.181702 3.270691,-0.545105c1.292175,-0.363434 2.50354,-0.969116 3.634155,-1.817078c1.130676,-0.847992 2.099731,-1.978607 2.907288,-3.391907c0.807617,-1.413269 1.211426,-3.129395 1.211426,-5.148376l0,-22.774048c0,-2.745819 0.524902,-5.148376 1.574829,-7.207733c1.049805,-2.059357 2.321777,-3.75528 3.815796,-5.08783c1.49408,-1.33252 3.109253,-2.34198 4.845581,-3.028442c1.736328,-0.686462 3.290894,-1.029663 4.663818,-1.029663l15.384644,0l0,13.567505zm40.33905,0l-6.541443,0c-1.453674,0 -2.604492,0.282654 -3.452454,0.847961c-0.847961,0.565308 -1.514221,1.271942 -1.998779,2.119904c-0.484558,0.847992 -0.787415,1.796906 -0.908569,2.846771c-0.121094,1.049866 -0.181702,2.059357 -0.181702,3.028473l0,18.413025c0,2.988098 -0.464355,5.390686 -1.393066,7.207764c-0.928711,1.817078 -2.018982,3.230347 -3.270752,4.239838c-1.25177,1.009491 -2.564087,1.716125 -3.937012,2.119934c-1.372925,0.403778 -2.50354,0.646057 -3.391846,0.726837l0,0.363403c0.888306,0.08075 2.018921,0.343231 3.391846,0.787415c1.372925,0.444153 2.685242,1.17099 3.937012,2.180481c1.25177,1.009491 2.342041,2.34201 3.270752,3.997559c0.928711,1.655579 1.393066,3.775482 1.393066,6.359772l0,19.382172c0,0.888367 0.060608,1.857452 0.181702,2.907318c0.121155,1.049866 0.424011,1.998779 0.908569,2.846771c0.484558,0.847961 1.150818,1.554596 1.998779,2.119904c0.847961,0.565338 1.998779,0.847992 3.452454,0.847992l6.541443,0l0,13.567505l-15.384583,0c-1.372925,0 -2.92749,-0.343231 -4.663818,-1.029694c-1.736328,-0.686432 -3.351501,-1.695923 -4.845581,-3.028473c-1.494019,-1.33252 -2.765991,-3.028442 -3.815796,-5.087799c-1.049927,-2.059357 -1.574829,-4.461914 -1.574829,-7.207733l0,-23.500885c0,-1.857452 -0.403809,-3.432251 -1.211365,-4.724396c-0.807617,-1.292145 -1.776672,-2.321808 -2.907349,-3.08902c-1.130615,-0.767242 -2.34198,-1.33255 -3.634155,-1.695953c-1.292175,-0.363403 -2.382385,-0.545105 -3.270691,-0.545105l0,-10.539063c0.888306,0 1.978516,-0.181702 3.270691,-0.545105c1.292175,-0.363434 2.50354,-0.969116 3.634155,-1.817078c1.130676,-0.847992 2.099731,-1.978607 2.907349,-3.391907c0.807556,-1.413269 1.211365,-3.129395 1.211365,-5.148376l0,-22.774048c0,-2.745819 0.524902,-5.148376 1.574829,-7.207733c1.049805,-2.059357 2.321777,-3.75528 3.815796,-5.08783c1.49408,-1.33252 3.109253,-2.34198 4.845581,-3.028442c1.736328,-0.686462 3.290894,-1.029663 4.663818,-1.029663l15.384583,0l0,13.567505zm10.296814,23.864288l-10.296814,0l0,-11.508179l10.296814,0l0,-4.845551c0,-5.572388 1.736267,-10.135223 5.208923,-13.688629c3.472656,-3.553406 8.721924,-5.330109 15.748047,-5.330109c1.534424,0 3.068787,0.060577 4.60321,0.181732c1.534424,0.121124 3.028503,0.222076 4.482178,0.302826l0,12.840698c-2.019043,-0.242279 -4.118713,-0.363434 -6.299255,-0.363434c-2.34198,0 -4.017761,0.545135 -5.027222,1.635376c-1.009521,1.09024 -1.514221,2.92749 -1.514221,5.51181l0,3.75528l11.871582,0l0,11.508179l-11.871582,0l0,51.120422l-17.20166,0l0,-51.120422zm78.73999,13.082947c-0.807556,-4.361023 -2.241028,-7.672089 -4.300415,-9.93335c-2.059326,-2.261292 -5.188721,-3.391907 -9.388245,-3.391907c-2.745789,0 -5.027222,0.464386 -6.844299,1.393127c-1.817078,0.928711 -3.270752,2.079529 -4.360962,3.452454c-1.090271,1.372894 -1.857483,2.826538 -2.301636,4.360962c-0.444214,1.534424 -0.706665,2.907318 -0.787415,4.118713l27.982971,0zm-27.982971,10.902466c0.242249,5.572388 1.655518,9.610321 4.239868,12.113861c2.58429,2.50354 6.299133,3.75528 11.144714,3.75528c3.472656,0 6.460693,-0.868164 8.964233,-2.604492c2.50354,-1.736298 4.037964,-3.573547 4.603271,-5.51178l15.142334,0c-2.422791,7.51062 -6.137695,12.881042 -11.144775,16.11142c-5.00708,3.230377 -11.063904,4.845551 -18.170776,4.845551c-4.926331,0 -9.367981,-0.787415 -13.325195,-2.362213c-3.957214,-1.574799 -7.308716,-3.815857 -10.054504,-6.723206c-2.74585,-2.907318 -4.865723,-6.379913 -6.359802,-10.417908c-1.494019,-4.037964 -2.241028,-8.479645 -2.241028,-13.325226c0,-4.684052 0.767212,-9.044983 2.301636,-13.082977c1.534424,-4.037933 3.714905,-7.530731 6.541443,-10.478455c2.826599,-2.947723 6.198242,-5.269531 10.115112,-6.965454c3.916809,-1.695953 8.257568,-2.543915 13.022339,-2.543915c5.330139,0 9.973755,1.029663 13.930969,3.08902c3.957214,2.059357 7.207703,4.825348 9.751648,8.297974c2.543884,3.472687 4.381165,7.42981 5.51178,11.871582c1.130615,4.441772 1.534424,9.085358 1.211365,13.930939l-45.184631,0zm68.685547,6.783752c0,1.857452 0.383545,3.452454 1.150818,4.784973c0.767212,1.33252 1.75647,2.42276 2.967834,3.270752c1.211426,0.847961 2.604492,1.473816 4.179321,1.877625c1.574768,0.403809 3.210144,0.605713 4.906067,0.605713c1.211426,0 2.483337,-0.141357 3.815918,-0.424011c1.33252,-0.282654 2.543884,-0.726807 3.634155,-1.33252c1.09021,-0.605713 1.998779,-1.413269 2.725586,-2.42276c0.726868,-1.009491 1.090271,-2.281433 1.090271,-3.815857c0,-2.58432 -1.716125,-4.522491 -5.148438,-5.814667c-3.432251,-1.292145 -8.217163,-2.584259 -14.354858,-3.876404c-2.50354,-0.565308 -4.946472,-1.231598 -7.328918,-1.99881c-2.382385,-0.767212 -4.502258,-1.776703 -6.359741,-3.028473c-1.857483,-1.25177 -3.351501,-2.826538 -4.482117,-4.724365c-1.130676,-1.897858 -1.695984,-4.219666 -1.695984,-6.965485c0,-4.037964 0.787415,-7.34906 2.362244,-9.93335c1.574768,-2.58432 3.654297,-4.623444 6.238586,-6.117493c2.584351,-1.494049 5.491638,-2.543915 8.721985,-3.149628c3.230408,-0.605682 6.541504,-0.908508 9.93335,-0.908508c3.391907,0 6.6828,0.323029 9.872803,0.969086c3.190002,0.646088 6.036743,1.736328 8.540283,3.270752c2.50354,1.534424 4.583069,3.573578 6.238647,6.117493c1.655518,2.543915 2.644836,5.754059 2.967834,9.630493l-16.353638,0c-0.24231,-3.311127 -1.49408,-5.552155 -3.75531,-6.723175c-2.261292,-1.171021 -4.92627,-1.7565 -7.995178,-1.7565c-0.969116,0 -2.018921,0.060577 -3.149597,0.181702c-1.130615,0.121155 -2.160278,0.383606 -3.088989,0.787415c-0.928772,0.403778 -1.716125,0.989288 -2.362244,1.7565c-0.646057,0.767212 -0.969116,1.796875 -0.969116,3.08902c0,1.534454 0.565308,2.786194 1.695984,3.75531c1.130615,0.969116 2.604431,1.7565 4.42157,2.362213c1.817078,0.605682 3.896606,1.150787 6.238586,1.635345c2.342041,0.484558 4.724426,1.009491 7.147217,1.574799c2.50354,0.565308 4.946472,1.25177 7.328857,2.059357c2.382385,0.807617 4.502319,1.877655 6.359741,3.210175c1.857483,1.33252 3.351501,2.988068 4.482117,4.966675c1.130676,1.978607 1.695984,4.421539 1.695984,7.328888c0,4.118713 -0.827759,7.571136 -2.483337,10.35733c-1.655579,2.786194 -3.815857,5.027252 -6.480896,6.723206c-2.6651,1.695953 -5.713684,2.887115 -9.145996,3.573578c-3.432251,0.686432 -6.925049,1.029694 -10.478455,1.029694c-3.634216,0 -7.187561,-0.363434 -10.660217,-1.090271c-3.472656,-0.726837 -6.561646,-1.938202 -9.26709,-3.634155c-2.705444,-1.695953 -4.92627,-3.936981 -6.662598,-6.723175c-1.736328,-2.786224 -2.685242,-6.278992 -2.846741,-10.478485l16.353699,0zm73.531067,-42.277344l12.598389,0l0,11.508179l-12.598389,0l0,31.011444c0,2.907318 0.484497,4.84552 1.453613,5.814667c0.969116,0.969086 2.907349,1.453613 5.814697,1.453613c0.969055,0 1.897827,-0.040344 2.786133,-0.121124c0.888367,-0.08075 1.736328,-0.201874 2.543945,-0.363403l0,13.325226c-1.453674,0.242279 -3.068848,0.403809 -4.845581,0.484558c-1.776672,0.08075 -3.513,0.121155 -5.208923,0.121155c-2.665039,0 -5.188782,-0.181702 -7.571167,-0.545135c-2.382385,-0.363434 -4.482117,-1.070068 -6.299194,-2.119934c-1.817078,-1.049866 -3.250549,-2.543884 -4.300415,-4.482117c-1.049866,-1.938232 -1.574829,-4.482117 -1.574829,-7.631744l0,-36.947205l-10.417908,0l0,-11.508179l10.417908,0l0,-18.776459l17.201721,0l0,18.776459zm14.294312,70.987183l6.541504,0c1.453613,0 2.604492,-0.282654 3.452393,-0.847992c0.848022,-0.565308 1.514282,-1.271942 1.998779,-2.119904c0.484619,-0.847992 0.787354,-1.796906 0.908569,-2.846771c0.121216,-1.049866 0.181763,-2.018951 0.181763,-2.907318l0,-19.382172c0,-2.58429 0.464355,-4.704193 1.393066,-6.359772c0.928711,-1.655548 2.018921,-2.988068 3.270752,-3.997559c1.251709,-1.009491 2.564087,-1.736328 3.937012,-2.180481c1.372803,-0.444183 2.503418,-0.706665 3.391846,-0.787415l0,-0.363403c-0.888428,-0.08078 -2.019043,-0.323059 -3.391846,-0.726837c-1.372925,-0.403809 -2.685303,-1.110443 -3.937012,-2.119934c-1.251831,-1.009491 -2.342041,-2.42276 -3.270752,-4.239838c-0.928711,-1.817078 -1.393066,-4.219666 -1.393066,-7.207764l0,-18.413025c0,-0.969116 -0.060547,-1.978607 -0.181763,-3.028473c-0.121216,-1.049866 -0.42395,-1.998779 -0.908569,-2.846771c-0.484497,-0.847961 -1.150757,-1.554596 -1.998779,-2.119904c-0.8479,-0.565308 -1.998779,-0.847961 -3.452393,-0.847961l-6.541504,0l0,-13.567505l15.384521,0c1.373047,0 2.92749,0.343201 4.663818,1.029663c1.736328,0.686462 3.351563,1.695923 4.845703,3.028442c1.493896,1.33255 2.765869,3.028473 3.815796,5.08783c1.049927,2.059357 1.574829,4.461914 1.574829,7.207733l0,22.774048c0,2.018982 0.403809,3.735107 1.211426,5.148376c0.807495,1.4133 1.776611,2.543915 2.907227,3.391907c1.130615,0.847961 2.342041,1.453644 3.634155,1.817078c1.292114,0.363403 2.422729,0.545105 3.391968,0.545105l0,10.539063c-0.969238,0 -2.099854,0.181702 -3.391968,0.545105c-1.292114,0.363403 -2.50354,0.928711 -3.634155,1.695953c-1.130615,0.767212 -2.099731,1.796875 -2.907227,3.08902c-0.807617,1.292145 -1.211426,2.866943 -1.211426,4.724396l0,23.500885c0,2.745819 -0.524902,5.148376 -1.574829,7.207733c-1.049927,2.059357 -2.321899,3.75528 -3.815796,5.087799c-1.494141,1.33255 -3.109375,2.342041 -4.845703,3.028473c-1.736328,0.686462 -3.290771,1.029694 -4.663818,1.029694l-15.384521,0l0,-13.567505zm40.339111,0l6.541504,0c1.453613,0 2.604492,-0.282654 3.452393,-0.847992c0.848022,-0.565308 1.514282,-1.271942 1.998779,-2.119904c0.484619,-0.847992 0.787476,-1.796906 0.908569,-2.846771c0.121216,-1.049866 0.181763,-2.018951 0.181763,-2.907318l0,-19.382172c0,-2.58429 0.464355,-4.704193 1.393066,-6.359772c0.928711,-1.655548 2.019043,-2.988068 3.270752,-3.997559c1.251709,-1.009491 2.564087,-1.736328 3.937012,-2.180481c1.372803,-0.444183 2.503418,-0.706665 3.391846,-0.787415l0,-0.363403c-0.888428,-0.08078 -2.019043,-0.323059 -3.391846,-0.726837c-1.372925,-0.403809 -2.685303,-1.110443 -3.937012,-2.119934c-1.251709,-1.009491 -2.342041,-2.42276 -3.270752,-4.239838c-0.928711,-1.817078 -1.393066,-4.219666 -1.393066,-7.207764l0,-18.413025c0,-0.969116 -0.060547,-1.978607 -0.181763,-3.028473c-0.121094,-1.049866 -0.42395,-1.998779 -0.908569,-2.846771c-0.484497,-0.847961 -1.150757,-1.554596 -1.998779,-2.119904c-0.8479,-0.565308 -1.998779,-0.847961 -3.452393,-0.847961l-6.541504,0l0,-13.567505l15.384521,0c1.373047,0 2.927612,0.343201 4.66394,1.029663c1.736328,0.686462 3.35144,1.695923 4.845581,3.028442c1.493896,1.33255 2.765869,3.028473 3.815796,5.08783c1.049927,2.059357 1.574829,4.461914 1.574829,7.207733l0,22.774048c0,2.018982 0.403809,3.735107 1.211426,5.148376c0.807495,1.4133 1.776611,2.543915 2.907227,3.391907c1.130615,0.847961 2.342041,1.453644 3.634155,1.817078c1.292114,0.363403 2.422729,0.545105 3.391968,0.545105l0,10.539063c-0.969238,0 -2.099854,0.181702 -3.391968,0.545105c-1.292114,0.363403 -2.50354,0.928711 -3.634155,1.695953c-1.130615,0.767212 -2.099731,1.796875 -2.907227,3.08902c-0.807617,1.292145 -1.211426,2.866943 -1.211426,4.724396l0,23.500885c0,2.745819 -0.524902,5.148376 -1.574829,7.207733c-1.049927,2.059357 -2.321899,3.75528 -3.815796,5.087799c-1.494141,1.33255 -3.109253,2.342041 -4.845581,3.028473c-1.736328,0.686462 -3.290894,1.029694 -4.66394,1.029694l-15.384521,0l0,-13.567505z"/>
    <path id="Oct.17+18,2019" d="m301.391937,494.507141c0,3.634186 0.423981,7.167358 1.271942,10.599609c0.847992,3.432312 2.200684,6.521301 4.058167,9.267151c1.857452,2.745789 4.280182,4.946411 7.268311,6.602051c2.988098,1.655518 6.622192,2.483276 10.902435,2.483276c4.280243,0 7.914368,-0.827759 10.902466,-2.483276c2.988129,-1.65564 5.410858,-3.856262 7.268341,-6.602051c1.857452,-2.74585 3.210144,-5.834839 4.058105,-9.267151c0.847992,-3.432251 1.271973,-6.965424 1.271973,-10.599609c0,-3.795685 -0.423981,-7.470184 -1.271973,-11.02359c-0.847961,-3.553436 -2.200653,-6.723175 -4.058105,-9.509369c-1.857483,-2.786194 -4.280212,-5.00705 -7.268341,-6.662628c-2.988098,-1.655548 -6.622223,-2.483337 -10.902466,-2.483337c-4.280243,0 -7.914337,0.827789 -10.902435,2.483337c-2.988129,1.655579 -5.410858,3.876434 -7.268311,6.662628c-1.857483,2.786194 -3.210175,5.955933 -4.058167,9.509369c-0.847961,3.553406 -1.271942,7.227905 -1.271942,11.02359zm-19.018738,0c0,-6.460754 0.969086,-12.457031 2.907318,-17.989075c1.938232,-5.531982 4.724396,-10.3573 8.358551,-14.476013c3.634186,-4.118744 8.096069,-7.34906 13.385803,-9.691101c5.289764,-2.342041 11.245667,-3.513 17.86792,-3.513c6.703033,0 12.679138,1.170959 17.928497,3.513c5.24939,2.342041 9.691071,5.572357 13.325256,9.691101c3.634155,4.118713 6.420319,8.944031 8.358551,14.476013c1.938232,5.532043 2.907318,11.52832 2.907318,17.989075c0,6.299255 -0.969086,12.174408 -2.907318,17.625671c-1.938232,5.451233 -4.724396,10.195801 -8.358551,14.233765c-3.634186,4.037964 -8.075867,7.207764 -13.325256,9.509399c-5.249359,2.301636 -11.225464,3.452393 -17.928497,3.452393c-6.622253,0 -12.578156,-1.150757 -17.86792,-3.452393c-5.289734,-2.301636 -9.751617,-5.471436 -13.385803,-9.509399c-3.634155,-4.037964 -6.420319,-8.782532 -8.358551,-14.233765c-1.938232,-5.451263 -2.907318,-11.326416 -2.907318,-17.625671zm138.824707,2.301636c-1.130646,-7.187561 -5.370453,-10.781311 -12.719543,-10.781311c-2.745819,0 -5.047424,0.625854 -6.904877,1.877625c-1.857483,1.25177 -3.371704,2.866943 -4.542725,4.845551c-1.17099,1.978607 -1.998779,4.159088 -2.483337,6.541473c-0.484558,2.382416 -0.726807,4.744568 -0.726807,7.086609c0,2.261261 0.242249,4.562866 0.726807,6.904907c0.484558,2.34198 1.271973,4.461914 2.362213,6.359741c1.09024,1.897888 2.564087,3.452454 4.42157,4.663879c1.857452,1.211365 4.118683,1.817017 6.783722,1.817017c4.118774,0 7.288513,-1.150757 9.509399,-3.452393c2.220886,-2.301636 3.613953,-5.390686 4.17926,-9.26709l16.596008,0c-1.130646,8.318176 -4.360962,14.657715 -9.691101,19.018677c-5.330139,4.361084 -12.154175,6.541504 -20.472412,6.541504c-4.684021,0 -8.984406,-0.787354 -12.901245,-2.362183c-3.91684,-1.574829 -7.248108,-3.775513 -9.993927,-6.602051c-2.745819,-2.826599 -4.885895,-6.198242 -6.420349,-10.115051c-1.534424,-3.916809 -2.301605,-8.217224 -2.301605,-12.901245c0,-4.845581 0.706604,-9.347839 2.119904,-13.506958c1.4133,-4.159119 3.492828,-7.752869 6.238647,-10.781311c2.745819,-3.028503 6.09726,-5.390686 10.054474,-7.086609c3.957214,-1.695953 8.479675,-2.543915 13.567505,-2.543915c3.714966,0 7.288513,0.484528 10.720764,1.453644c3.432281,0.969116 6.501099,2.442963 9.206543,4.42157c2.705444,1.978607 4.906097,4.441711 6.602051,7.389465c1.695923,2.947693 2.665039,6.440491 2.907318,10.478455l-16.838257,0zm48.697662,-22.04718l12.598419,0l0,11.508118l-12.598419,0l0,31.011475c0,2.907349 0.484558,4.84552 1.453674,5.814636c0.969116,0.969116 2.907318,1.453674 5.814636,1.453674c0.969116,0 1.897827,-0.040344 2.786194,-0.121155c0.888367,-0.08075 1.736328,-0.201904 2.543915,-0.363403l0,13.325195c-1.453674,0.24231 -3.068817,0.403809 -4.845551,0.484619c-1.776703,0.08075 -3.513,0.121094 -5.208923,0.121094c-2.6651,0 -5.188782,-0.181641 -7.571167,-0.545105c-2.382416,-0.363403 -4.482117,-1.070007 -6.299194,-2.119934c-1.817108,-1.049866 -3.250549,-2.543884 -4.300415,-4.482117c-1.049896,-1.938232 -1.574829,-4.482117 -1.574829,-7.631714l0,-36.947266l-10.417908,0l0,-11.508118l10.417908,0l0,-18.776489l17.20166,0l0,18.776489zm21.562683,43.973267l19.018738,0l0,18.655273l-19.018738,0l0,-18.655273zm73.89447,18.655273l-17.20166,0l0,-54.996826l-21.320374,0l0,-12.961823c2.988098,0.08075 5.875183,-0.141327 8.661377,-0.66626c2.786255,-0.524933 5.289673,-1.453644 7.51062,-2.786194c2.220825,-1.33255 4.098511,-3.08902 5.632935,-5.269501c1.534424,-2.180542 2.543884,-4.885925 3.028442,-8.116302l13.68866,0l0,84.796906zm82.4953,-70.018005c-4.441772,3.876465 -8.378723,8.641174 -11.811035,14.294342c-3.432251,5.653168 -6.299133,11.669647 -8.60083,18.049652c-2.301636,6.379974 -4.078247,12.840637 -5.330078,19.382141c-1.251709,6.541504 -1.917969,12.638794 -1.998779,18.29187l-18.413025,0c0.969116,-12.679199 3.936951,-24.873657 8.903687,-36.583801c4.966736,-11.710083 11.487915,-22.450928 19.563843,-32.222839l-40.217957,0l0,-15.990265l57.904175,0l0,14.7789zm47.607422,32.949677l24.106567,0l0,12.961823l-24.106567,0l0,24.106506l-12.961792,0l0,-24.106506l-24.106567,0l0,-12.961823l24.106567,0l0,-24.106567l12.961792,0l0,24.106567zm77.286377,37.068329l-17.20166,0l0,-54.996826l-21.320374,0l0,-12.961823c2.988098,0.08075 5.875183,-0.141327 8.661438,-0.66626c2.786133,-0.524933 5.289673,-1.453644 7.510559,-2.786194c2.220886,-1.33255 4.098511,-3.08902 5.632935,-5.269501c1.534424,-2.180542 2.543884,-4.885925 3.028442,-8.116302l13.68866,0l0,84.796906zm40.702515,-61.780579c0,3.634155 1.292175,6.400146 3.876465,8.297974c2.58429,1.897827 5.612732,2.846741 9.085388,2.846741c3.634155,0 6.662598,-0.948914 9.085388,-2.846741c2.422791,-1.897827 3.634155,-4.663818 3.634155,-8.297974c0,-1.130646 -0.161499,-2.362183 -0.484558,-3.694733c-0.323059,-1.33255 -0.948914,-2.604462 -1.877625,-3.815857c-0.928772,-1.211395 -2.220886,-2.220856 -3.876465,-3.028473c-1.655579,-0.807587 -3.815857,-1.211365 -6.480896,-1.211365c-1.695984,0 -3.331299,0.262451 -4.906128,0.787384c-1.574829,0.524933 -2.967896,1.271942 -4.17926,2.241058c-1.211426,0.969116 -2.160278,2.180481 -2.846741,3.634155c-0.686462,1.453674 -1.029724,3.149597 -1.029724,5.08783zm-15.626831,-1.574829c0,-3.795654 0.847961,-7.147156 2.543884,-10.054474c1.695984,-2.907349 3.896606,-5.330109 6.602051,-7.268311c2.705444,-1.938232 5.754089,-3.391876 9.145996,-4.360992c3.391846,-0.969116 6.824097,-1.453674 10.296753,-1.453674c5.249329,0 9.69104,0.807617 13.325195,2.422791c3.634216,1.615173 6.561707,3.573578 8.782593,5.875214c2.220886,2.301636 3.815857,4.764771 4.784973,7.389435c0.969116,2.624695 1.453613,4.986877 1.453613,7.086609c0,4.199493 -1.029663,7.873993 -3.088989,11.023621c-2.059387,3.149597 -5.148376,5.410828 -9.26709,6.783752l0,0.242249c5.08783,1.130646 9.004578,3.533203 11.750427,7.207764c2.745789,3.674561 4.118713,8.176819 4.118713,13.506958c0,4.522522 -0.908569,8.43927 -2.725647,11.750427c-1.817078,3.311096 -4.219604,6.056885 -7.207703,8.237366c-2.988098,2.180542 -6.379944,3.815918 -10.175659,4.906128c-3.795715,1.090271 -7.672058,1.635376 -11.629272,1.635376c-4.118774,0 -8.096069,-0.504761 -11.93219,-1.514221c-3.83606,-1.00946 -7.26825,-2.604431 -10.296753,-4.784973c-3.028503,-2.180481 -5.451233,-4.92627 -7.268311,-8.237427c-1.817078,-3.311096 -2.725586,-7.26825 -2.725586,-11.871582c0,-5.410858 1.393066,-9.933319 4.17926,-13.567505c2.786194,-3.634155 6.723145,-6.056885 11.810974,-7.268311l0,-0.242249c-4.118713,-1.130646 -7.227905,-3.270752 -9.327637,-6.420349c-2.099731,-3.149597 -3.149597,-6.824097 -3.149597,-11.023621zm13.68866,37.674072c0,2.180542 0.403748,4.159119 1.211365,5.935791c0.807617,1.776733 1.877625,3.290955 3.210144,4.542725c1.332581,1.25177 2.927551,2.220886 4.784973,2.907288c1.857483,0.686462 3.795715,1.029663 5.814697,1.029663c2.099731,0 4.0177,-0.343201 5.754028,-1.029663c1.736328,-0.686401 3.270752,-1.655518 4.603271,-2.907288c1.33252,-1.25177 2.362244,-2.765991 3.08905,-4.542725c0.726807,-1.776672 1.090271,-3.714905 1.090271,-5.814636c0,-2.018982 -0.383606,-3.856232 -1.150818,-5.51178c-0.767212,-1.655579 -1.817078,-3.08905 -3.149597,-4.300415c-1.332581,-1.211426 -2.866943,-2.140137 -4.603271,-2.786194c-1.736328,-0.646088 -3.613953,-0.969116 -5.632935,-0.969116c-4.199524,0 -7.752869,1.150818 -10.660217,3.452454c-2.907349,2.301636 -4.360962,5.632904 -4.360962,9.993896zm55.844849,7.026062l19.018738,0l0,18.655273c0,2.74585 -0.504761,5.269531 -1.514221,7.571167c-1.009521,2.301636 -2.362244,4.300415 -4.058167,5.996399c-1.695923,1.695923 -3.694702,3.08905 -5.996338,4.17926c-2.301636,1.090271 -4.744568,1.83728 -7.328918,2.241089l0,-8.721985c1.211426,-0.242249 2.362244,-0.726868 3.452454,-1.453674c1.090271,-0.726807 2.039185,-1.594971 2.846802,-2.604492c0.807556,-1.00946 1.413269,-2.140076 1.817017,-3.391846c0.403809,-1.25177 0.565369,-2.523682 0.484558,-3.815918l-8.721924,0l0,-18.655273zm30.769165,-33.555359c-0.161499,-4.845581 0.403809,-9.347839 1.695923,-13.506958c1.292175,-4.159119 3.230347,-7.793213 5.814636,-10.902466c2.58429,-3.109253 5.834839,-5.531982 9.751648,-7.268311c3.91687,-1.736328 8.419128,-2.604492 13.506958,-2.604492c3.876465,0 7.571167,0.605713 11.084167,1.817078c3.513062,1.211426 6.602051,2.947693 9.26709,5.208984c2.6651,2.26123 4.784973,5.047424 6.359802,8.358551c1.574768,3.311127 2.362183,7.026001 2.362183,11.144745c0,4.280243 -0.686462,7.954742 -2.059326,11.02359c-1.372925,3.068878 -3.190002,5.794464 -5.451233,8.176849c-2.261292,2.382385 -4.825378,4.542664 -7.692322,6.480896c-2.866943,1.938232 -5.754089,3.856262 -8.661377,5.754089c-2.907349,1.897858 -5.733887,3.937012 -8.479736,6.117493c-2.745789,2.180481 -5.168518,4.724426 -7.268311,7.631714l40.096863,0l0,14.77887l-62.265198,0c0,-4.92627 0.706665,-9.206482 2.119934,-12.840637c1.413269,-3.634155 3.331299,-6.884705 5.754089,-9.751648c2.422791,-2.866943 5.26947,-5.51178 8.540222,-7.93457c3.270813,-2.422791 6.723206,-4.885925 10.357361,-7.389465c1.857483,-1.292114 3.83606,-2.604462 5.935791,-3.936981c2.099731,-1.33255 4.017761,-2.806366 5.754089,-4.421539c1.736328,-1.615204 3.189941,-3.432251 4.360962,-5.451233c1.171021,-2.018982 1.756531,-4.320618 1.756531,-6.904907c0,-4.118744 -1.191162,-7.328857 -3.573608,-9.630524c-2.382385,-2.301636 -5.43103,-3.452423 -9.145935,-3.452423c-2.50354,0 -4.623474,0.58548 -6.359802,1.75647c-1.736328,1.171021 -3.129395,2.705444 -4.17926,4.603271c-1.049866,1.897858 -1.796875,3.997559 -2.241028,6.299194c-0.444214,2.301666 -0.66626,4.583069 -0.66626,6.84436l-16.474854,0zm82.616455,9.448792c0,2.422791 0.08075,5.350281 0.242249,8.782532c0.16156,3.432281 0.66626,6.743347 1.514221,9.93335c0.848022,3.190002 2.200684,5.915588 4.058167,8.17688c1.857483,2.26123 4.522461,3.391846 7.995117,3.391846c3.553467,0 6.279053,-1.130615 8.17688,-3.391846c1.897827,-2.261292 3.270752,-4.986877 4.118713,-8.17688c0.847961,-3.190002 1.352722,-6.501068 1.514221,-9.93335c0.161499,-3.432251 0.242249,-6.359741 0.242249,-8.782532c0,-1.453674 -0.020142,-3.210144 -0.060547,-5.269531c-0.040344,-2.059357 -0.201904,-4.17926 -0.484558,-6.359772c-0.282654,-2.180511 -0.686462,-4.34079 -1.211365,-6.480927c-0.524963,-2.140106 -1.312317,-4.058105 -2.362183,-5.754059c-1.049927,-1.695953 -2.382385,-3.068817 -3.99762,-4.118713c-1.615173,-1.049866 -3.59375,-1.574799 -5.935791,-1.574799c-2.34198,0 -4.300354,0.524933 -5.875183,1.574799c-1.574829,1.049896 -2.866943,2.42276 -3.876465,4.118713c-1.00946,1.695953 -1.796875,3.613953 -2.362183,5.754059c-0.565308,2.140137 -0.969116,4.300415 -1.211365,6.480927c-0.24231,2.180511 -0.383606,4.300415 -0.424011,6.359772c-0.040344,2.059387 -0.060547,3.815857 -0.060547,5.269531zm-17.20166,0c0,-8.237457 0.827759,-15.162476 2.483337,-20.775269c1.655579,-5.612762 3.896606,-10.115051 6.723145,-13.506927c2.826599,-3.391876 6.117493,-5.814636 9.872803,-7.268311c3.75531,-1.453674 7.732666,-2.180511 11.932129,-2.180511c4.280273,0 8.297974,0.726837 12.053284,2.180511c3.75531,1.453674 7.066406,3.876434 9.93335,7.268311c2.867004,3.391876 5.128235,7.894165 6.783813,13.506927c1.655579,5.612793 2.483337,12.537811 2.483337,20.775269c0,8.479736 -0.827759,15.566284 -2.483337,21.259766c-1.655579,5.693604 -3.916809,10.236206 -6.783813,13.628113c-2.866943,3.391907 -6.17804,5.814636 -9.93335,7.268311c-3.75531,1.453674 -7.77301,2.180481 -12.053284,2.180481c-4.199463,0 -8.176819,-0.726807 -11.932129,-2.180481c-3.75531,-1.453674 -7.046204,-3.876404 -9.872803,-7.268311c-2.826538,-3.391907 -5.067566,-7.934509 -6.723145,-13.628113c-1.655579,-5.693481 -2.483337,-12.780029 -2.483337,-21.259766zm112.295349,42.761841l-17.20166,0l0,-54.996826l-21.320313,0l0,-12.961823c2.988037,0.08075 5.875244,-0.141327 8.661377,-0.66626c2.786133,-0.524933 5.289673,-1.453644 7.510498,-2.786194c2.220947,-1.33255 4.098633,-3.08902 5.633057,-5.269501c1.534424,-2.180542 2.543945,-4.885925 3.028442,-8.116302l13.688599,0l0,84.796906zm52.574219,-40.823608c2.341919,0 4.36084,-0.424011 6.056885,-1.271973c1.695923,-0.847961 3.109131,-1.998779 4.239746,-3.452454c1.130615,-1.453674 1.978638,-3.129395 2.543945,-5.027222c0.565308,-1.897888 0.8479,-3.896637 0.8479,-5.996399c0,-1.938202 -0.302734,-3.856201 -0.908447,-5.754059c-0.605713,-1.897858 -1.494019,-3.593781 -2.665039,-5.087799c-1.171021,-1.49408 -2.604492,-2.685242 -4.300415,-3.573608c-1.695923,-0.888367 -3.634155,-1.33252 -5.814575,-1.33252c-2.019043,0 -3.836182,0.444153 -5.451294,1.33252c-1.615234,0.888367 -2.988159,2.059357 -4.118774,3.513031c-1.130615,1.453644 -1.978516,3.109222 -2.543945,4.966675c-0.565186,1.857452 -0.8479,3.75528 -0.8479,5.693512c0,2.018982 0.262451,3.977356 0.787354,5.875214c0.524902,1.897858 1.312378,3.593781 2.362305,5.087799c1.049805,1.49408 2.402588,2.705444 4.058105,3.634155c1.655518,0.928741 3.573486,1.393127 5.75415,1.393127zm-12.356201,19.018738c0.565308,2.826599 1.857422,5.289673 3.876465,7.389465c2.018921,2.099731 4.522461,3.149536 7.510498,3.149536c3.149658,0 5.733887,-0.908508 7.75293,-2.725586c2.019043,-1.817078 3.634033,-4.037964 4.845459,-6.662598c1.211426,-2.624695 2.07959,-5.43103 2.604492,-8.419128c0.524902,-2.988098 0.868164,-5.653137 1.029785,-7.995148l-0.242432,-0.242279c-2.341919,3.391907 -5.087646,5.814636 -8.237305,7.268311c-3.149658,1.453674 -6.783691,2.180481 -10.902466,2.180481c-3.634155,0 -7.187622,-0.787384 -10.660278,-2.362183c-3.472656,-1.574829 -6.420288,-3.694702 -8.843018,-6.359802c-2.26123,-2.58429 -3.916748,-5.531952 -4.966675,-8.843079c-1.049927,-3.311157 -1.574829,-6.662598 -1.574829,-10.054504c0,-4.361023 0.706543,-8.419128 2.119873,-12.174438c1.41333,-3.75531 3.432373,-7.026001 6.056885,-9.812195c2.624756,-2.786194 5.75415,-4.986877 9.388306,-6.602051c3.634155,-1.615173 7.672119,-2.422791 12.113892,-2.422791c6.460693,0 11.770508,1.271973 15.929688,3.815857c4.15918,2.543945 7.490356,5.895386 9.993896,10.054504c2.503662,4.159119 4.239868,8.863281 5.208984,14.11264c0.969116,5.249359 1.453613,10.539032 1.453613,15.869171c0,5.249329 -0.605713,10.498627 -1.817017,15.747986c-1.211426,5.24939 -3.149536,9.993896 -5.814575,14.233765c-2.665161,4.239868 -6.097412,7.672119 -10.296875,10.296753c-4.199463,2.624695 -9.327637,3.937012 -15.384521,3.937012c-3.634277,0 -7.026123,-0.504761 -10.175659,-1.514221c-3.149658,-1.00946 -5.935791,-2.523743 -8.358521,-4.542664c-2.422852,-2.019043 -4.401367,-4.482117 -5.935791,-7.389465c-1.534424,-2.907349 -2.543945,-6.218445 -3.028564,-9.93335l16.35376,0z"/>
   </g>
   <g stroke-width="3" stroke-linejoin="round" stroke-linecap="round" stroke="#30ADC3" id="Group-5">
    <path id="Stroke-1" d="m213.797394,534.499878l0,10.595032"/>
    <path id="Stroke-3" d="m219.095306,539.797729l-10.595001,0"/>
   </g>
   <g stroke-width="3" stroke-linejoin="round" stroke-linecap="round" stroke="#30ADC3" id="Group-5-Copy">
    <path id="Stroke-1" d="m118.797401,393.499908l0,10.595001"/>
    <path id="Stroke-3" d="m124.095299,398.797699l-10.595001,0"/>
   </g>
   <g stroke-width="3" stroke-linejoin="round" stroke-linecap="round" stroke="#30ADC3" id="Group-5-Copy-2">
    <path id="Stroke-1" d="m253.797394,387.499908l0,10.595001"/>
    <path id="Stroke-3" d="m259.095306,392.797699l-10.595001,0"/>
   </g>
   <g stroke-width="3" stroke-linejoin="round" stroke-linecap="round" stroke="#30ADC3" id="Group-5-Copy-3">
    <path id="Stroke-1" d="m46.797401,307.499908l0,10.595001"/>
    <path id="Stroke-3" d="m52.095299,312.797699l-10.594997,0"/>
   </g>
   <g stroke-width="3" stroke-linejoin="round" stroke-linecap="round" stroke="#30ADC3" id="Group-5-Copy-4">
    <path id="Stroke-1" d="m1243.797363,381.499908l0,10.595001"/>
    <path id="Stroke-3" d="m1249.095337,386.797699l-10.595093,0"/>
   </g>
   <g stroke-width="3" stroke-linejoin="round" stroke-linecap="round" stroke="#30ADC3" id="Group-5-Copy-5">
    <path id="Stroke-1" d="m1367.797363,334.499908l0,10.595001"/>
    <path id="Stroke-3" d="m1373.095337,339.797699l-10.595093,0"/>
   </g>
   <g stroke-width="3" stroke-linejoin="round" stroke-linecap="round" stroke="#30ADC3" id="Group-5-Copy-6">
    <path id="Stroke-1" d="m1355.797363,431.499908l0,10.595001"/>
    <path id="Stroke-3" d="m1361.095337,436.797699l-10.595093,0"/>
   </g>
   <g stroke-width="3" stroke-linejoin="round" stroke-linecap="round" stroke="#30ADC3" id="Group-5-Copy-7">
    <path id="Stroke-1" d="m1395.797363,522.499878l0,10.595032"/>
    <path id="Stroke-3" d="m1401.095337,527.797729l-10.595093,0"/>
   </g>
   <g stroke-width="3" stroke-linejoin="round" stroke-linecap="round" stroke="#30ADC3" id="Group-5-Copy-8">
    <path id="Stroke-1" d="m1123.797363,619.499878l0,10.595032"/>
    <path id="Stroke-3" d="m1129.095337,624.797729l-10.595093,0"/>
   </g>
  </g>
  <text font-weight="bold" transform="matrix(2.38815, 0, 0, 3.11297, -754.587, -1248.56)" xml:space="preserve" text-anchor="start" font-family="Helvetica, Arial, sans-serif" font-size="24" id="svg_2" y="603.958666" x="549.673936" stroke-opacity="null" stroke-width="0" stroke="null" fill="#f45644">Copenhagen</text>
 </g>
</svg>