<?xml version="1.0" encoding="utf-8"?>
<!-- Generator: Adobe Illustrator 28.0.0, SVG Export Plug-In . SVG Version: 6.00 Build 0)  -->
<svg version="1.1" id="Layer_1" xmlns="http://www.w3.org/2000/svg" xmlns:xlink="http://www.w3.org/1999/xlink" x="0px" y="0px"
	 viewBox="0 0 650 287" style="enable-background:new 0 0 650 287;" xml:space="preserve">
<style type="text/css">
	.st0{fill-rule:evenodd;clip-rule:evenodd;fill:#EA473B;}
</style>
<g id="Web">
	<g id="DT---Home-" transform="translate(-431.000000, -172.000000)">
		<g id="Group-10" transform="translate(0.000000, -69.000000)">
			<g id="Group-23" transform="translate(431.000000, 241.000000)">
				<g id="Group-28">
					<polygon id="Fill-1" class="st0" points="14.1,0 14.1,106.4 121.9,106.4 121.9,81.2 47,81.2 47,63.5 111.3,63.5 111.3,41.2 
						47,41.2 47,25.2 121.9,25.2 121.9,0 					"/>
					<g id="Group-27">
						<path id="Fill-2" class="st0" d="M167.9,68.5c0-5.4,1.4-9.6,4.3-12.6c2.9-3,6.8-4.6,11.7-4.6c3.2,0,6.1,0.7,8.5,2
							c2.4,1.3,4.3,3.3,5.6,5.9c1.3,2.6,2,5.7,2,9.3v37.8H229V68.5c0-5.4,1.4-9.6,4.3-12.6c2.9-3,6.8-4.6,11.7-4.6
							c3.2,0,6.1,0.7,8.5,2c2.4,1.3,4.3,3.3,5.6,5.9c1.3,2.6,1.9,5.7,1.9,9.3v37.8h29.1V61.9c0-7.4-1.3-13.7-3.9-18.9
							c-2.6-5.2-6.3-9.2-11-11.9c-4.8-2.7-10.5-4-17.1-4c-7.9,0-14.4,1.7-19.3,5.2c-5,3.4-8.6,8.9-10.8,16.3h-2.3
							c-0.6-4-2.1-7.5-4.5-10.8c-2.4-3.2-5.7-5.8-9.8-7.8c-4.2-1.9-9.1-2.9-14.8-2.9c-7.6,0-13.9,1.7-18.7,5.1
							c-4.9,3.4-8.4,8.7-10.7,16h-2.7l3.5-19.1H139v77.3h28.9V68.5z"/>
						<path id="Fill-4" class="st0" d="M341.1,58.4c1.9-2.8,4.6-5,8.3-6.5c3.7-1.6,8.1-2.4,13.3-2.4c5.4,0,9.9,0.8,13.6,2.4
							c3.7,1.6,6.4,3.7,8.3,6.5c1.9,2.8,2.8,5.9,2.8,9.3c0,3.3-0.9,6.4-2.8,9.2c-1.9,2.8-4.6,5-8.3,6.5c-3.7,1.6-8.2,2.4-13.6,2.4
							c-5.2,0-9.6-0.8-13.3-2.4c-3.7-1.6-6.4-3.7-8.3-6.5c-1.9-2.8-2.8-5.8-2.8-9.2C338.3,64.3,339.2,61.2,341.1,58.4L341.1,58.4z
							 M333.5,86.2h2.9c1.6,4.9,4.1,8.9,7.3,12.2c3.2,3.2,7.4,5.8,12.4,7.5c5,1.8,11,2.7,17.9,2.7c8.4,0,15.8-1.7,22.2-5.2
							c6.4-3.4,11.3-8.2,14.8-14.4c3.5-6.1,5.2-13.2,5.2-21.2c0-8.1-1.7-15.2-5.2-21.4c-3.5-6.1-8.4-10.9-14.8-14.3
							c-6.4-3.4-13.8-5.1-22.2-5.1c-6.9,0-12.9,0.9-17.9,2.6c-5,1.7-9.2,4.2-12.4,7.4c-3.3,3.2-5.7,7.3-7.3,12.3h-2.9
							c1.2-4.6,2.2-9.2,3-13.8c0.8-4.7,1.1-9.4,1.1-14.1V0h-28.9v106.4h28.9L333.5,86.2z"/>
						<path id="Fill-7" class="st0" d="M466.3,50.1c4.1-1.7,9.2-2.6,15.3-2.6c6.2,0,11.3,0.9,15.4,2.6c4.1,1.7,7.1,4.1,9.1,7.1
							c0.6,0.9,1.1,1.9,1.6,3h-52.1c0.4-1,0.9-2,1.5-3C459.1,54.2,462.2,51.9,466.3,50.1 M452.1,103c8.1,3.6,17.8,5.5,29.2,5.5
							c10.7,0,19.7-1.4,27.2-4.3c7.5-2.9,13.2-6.4,17.3-10.6c4.1-4.2,6.9-8.4,8.4-12.7h-27.9c-2.3,2-5.3,3.7-8.8,5
							c-3.6,1.3-8.8,2-15.7,2c-6.1,0-11.2-0.8-15.4-2.5c-4.2-1.7-7.2-4-9.2-7.1c-0.6-0.9-1.1-1.9-1.5-2.9h79.4
							c0.4-2.6,0.6-5.1,0.6-7.3c0-7.7-2.1-14.7-6.2-20.9C525.3,41,519.1,36,511,32.4c-8.1-3.6-17.9-5.4-29.4-5.4
							c-11.4,0-21.1,1.8-29.3,5.4c-8.2,3.6-14.3,8.5-18.4,14.7c-4.1,6.2-6.2,13.1-6.2,20.7s2.1,14.5,6.2,20.6
							C438,94.5,444.1,99.4,452.1,103"/>
						<path id="Fill-9" class="st0" d="M614.6,60.6c1.5,2.8,2.3,6.2,2.3,10.3v0.8h29.6v-3.2c0-9.3-1.4-17-4.3-23.2
							c-2.8-6.1-7-10.7-12.4-13.7c-5.4-3-12-4.5-19.7-4.5c-5.4,0-10.2,0.8-14.4,2.5c-4.2,1.7-7.8,4.2-10.7,7.7
							c-2.9,3.4-5.1,7.7-6.6,12.6h-2.9l3.8-20.8h-28.9v77.3h28.9v-34c0-6.7,1.6-11.8,5-15.2c3.3-3.4,7.9-5.2,13.8-5.2
							c4,0,7.3,0.7,10.1,2.2C610.9,55.6,613.1,57.8,614.6,60.6z"/>
						<path id="Fill-11" class="st0" d="M19.4,149.9c-4.8,4.7-7.2,11.7-7.2,20.9v22.8c0,4-1,6.9-2.9,8.8c-2,1.9-5.1,2.8-9.3,2.8
							v19.3c4.3,0,7.4,0.9,9.3,2.8c2,1.9,2.9,4.8,2.9,8.8V259c0,6.1,1,11.2,3.1,15.4c2.1,4.2,5.2,7.4,9.4,9.5
							c4.2,2.1,9.4,3.1,15.5,3.1h21v-22.3h-14c-3.5,0-6.2-0.8-7.8-2.4c-1.7-1.6-2.5-4.3-2.5-7.9v-21.6c0-3.3-0.7-6.1-2-8.6
							c-1.4-2.5-3.4-4.4-6-5.8c-2.6-1.4-5.7-2.1-9.3-2.2v-2.4c5.5-0.1,9.7-1.6,12.7-4.6c3-3,4.6-7,4.6-12v-21.6
							c0-3.6,0.8-6.3,2.5-7.9c1.7-1.6,4.3-2.4,7.8-2.4h14v-22.3h-21C31.2,142.9,24.2,145.2,19.4,149.9"/>
						<path id="Fill-13" class="st0" d="M88,149.9c-4.8,4.7-7.2,11.7-7.2,20.9v22.8c0,4-1,6.9-2.9,8.8c-2,1.9-5.1,2.8-9.3,2.8v19.3
							c4.3,0,7.4,0.9,9.3,2.8c2,1.9,2.9,4.8,2.9,8.8V259c0,6.1,1,11.2,3.1,15.4c2.1,4.2,5.2,7.4,9.4,9.5c4.2,2.1,9.4,3.1,15.5,3.1
							h21v-22.3h-14c-3.5,0-6.2-0.8-7.8-2.4c-1.7-1.6-2.5-4.3-2.5-7.9v-21.6c0-3.3-0.7-6.1-2-8.6c-1.4-2.5-3.4-4.4-6-5.8
							c-2.6-1.4-5.7-2.1-9.3-2.2v-2.4c5.5-0.1,9.7-1.6,12.7-4.6c3-3,4.6-7,4.6-12v-21.6c0-3.6,0.8-6.3,2.5-7.9
							c1.7-1.6,4.3-2.4,7.8-2.4h14v-22.3h-21C99.7,142.9,92.7,145.2,88,149.9"/>
						<path id="Fill-15" class="st0" d="M167.2,189.1c-0.9-0.9-1.3-2-1.3-3.3c0-2.1,1.3-3.8,3.8-5c2.5-1.3,7.1-1.9,13.6-1.9
							c6.3,0,10.7,0.7,13.4,2.1c2.6,1.4,4,3.1,4,5.1v0.5h26v-0.5c0-5.1-1.5-9.6-4.4-13.5c-2.9-3.9-7.6-7-14-9.3
							c-6.4-2.3-14.6-3.4-24.5-3.4c-15.9,0-27,1.6-33.4,4.7c-6.4,3.1-9.5,7.2-9.5,12.2c0,3.8,1.6,6.8,4.7,9.1
							c3.1,2.3,7.7,3.4,13.7,3.5v2.4h-24.5v19h18.9v46.8h25.9v-46.8h34.1v-19.6h-43.3C169.1,190.7,168,190,167.2,189.1"/>
						<path id="Fill-17" class="st0" d="M256.8,207.3c3.7-1.5,8.2-2.3,13.7-2.3c5.5,0,10.1,0.8,13.8,2.3c3.6,1.5,6.4,3.7,8.2,6.3
							c0.6,0.8,1,1.7,1.4,2.6h-46.6c0.4-0.9,0.8-1.8,1.4-2.6C250.4,210.9,253.2,208.8,256.8,207.3 M296.9,191.5
							c-7.3-3.2-16-4.8-26.3-4.8c-10.2,0-18.9,1.6-26.2,4.8c-7.3,3.2-12.8,7.6-16.5,13.1c-3.7,5.5-5.5,11.7-5.5,18.5
							c0,6.8,1.8,12.9,5.5,18.4c3.7,5.5,9.1,9.9,16.4,13.1c7.2,3.3,15.9,4.9,26.1,4.9c9.5,0,17.6-1.3,24.3-3.9
							c6.7-2.6,11.8-5.8,15.5-9.5c3.6-3.8,6.1-7.5,7.5-11.4h-24.9c-2.1,1.8-4.7,3.3-7.9,4.5c-3.2,1.2-7.9,1.8-14,1.8
							c-5.5,0-10-0.7-13.8-2.2c-3.7-1.5-6.5-3.6-8.2-6.3c-0.5-0.8-1-1.7-1.3-2.6h71.1c0.4-2.4,0.5-4.5,0.5-6.5
							c0-6.9-1.9-13.1-5.6-18.7C309.6,199.1,304.1,194.7,296.9,191.5"/>
						<path id="Fill-19" class="st0" d="M413.7,223.3c-4.2-2.9-9.1-4.8-14.8-5.6c-5.7-0.8-12.9-1.4-21.6-1.6
							c-4.9-0.2-8.7-0.4-11.5-0.7c-2.8-0.3-5-0.7-6.8-1.4c-1.8-0.7-2.7-1.8-2.7-3.3c0-1.8,1.3-3.3,4-4.4s7.4-1.6,14.3-1.6
							c6.3,0,10.8,0.8,13.6,2.3c2.8,1.5,4.4,3.6,4.6,6.3h26.4c-0.3-5-2-9.5-5.2-13.5c-3.2-4-8.1-7.2-14.7-9.5
							c-6.6-2.4-14.9-3.5-24.9-3.5c-15.8,0-27.2,2.1-34.2,6.3c-7,4.2-10.5,9.5-10.5,16c0,5.9,2.1,10.3,6.2,13.2
							c4.1,2.9,9,4.8,14.7,5.6c5.6,0.8,12.7,1.4,21.3,1.6c5.1,0.3,9,0.5,11.8,0.8c2.8,0.3,5.1,0.8,7,1.6c1.9,0.8,2.8,2,2.8,3.5
							c0,1.8-1.4,3.3-4.1,4.5c-2.7,1.2-7.7,1.8-14.9,1.8c-6.9,0-11.8-0.8-14.7-2.4c-2.9-1.6-4.3-3.8-4.3-6.5V232h-26.4v1
							c0,8,3.6,14.4,10.8,19.2c7.2,4.9,18.7,7.3,34.6,7.3c16.4,0,28-2.1,35-6.3c7-4.2,10.4-9.7,10.4-16.7
							C419.9,230.6,417.8,226.2,413.7,223.3"/>
						<path id="Fill-21" class="st0" d="M489,227c0,3.2-1.3,5.8-3.8,7.8c-2.5,2-6.3,3-11.3,3c-5.1,0-8.9-1.2-11.4-3.7
							c-2.5-2.4-3.7-6.1-3.7-11c0-3.8,0.7-6.9,2-9.2c1.3-2.3,3.1-4,5.4-5.1h42.9v-19.6h-37.9v-17.1h-21.3v9.9c0,2.9-0.6,5-1.9,6.3
							c-1.3,1.3-3.5,2-6.5,2h-15.3v18.5h28.2v2.4c-3.8,0.3-7.3,1.4-10.4,3.3c-3.1,2-5.5,4.6-7.4,7.8c-1.8,3.3-2.7,7-2.7,11.1
							c0,4.9,1.4,9.3,4.2,13.2c2.8,3.9,7.2,7,13.2,9.3c5.9,2.3,13.5,3.5,22.6,3.5c9.2,0,16.8-1.3,23-4c6.1-2.7,10.7-6.4,13.7-11.1
							c3-4.8,4.5-10.4,4.5-16.8v-2.3h-26V227z"/>
						<path id="Fill-23" class="st0" d="M569.2,193.7v-22.8c0-6.1-1-11.2-3.1-15.4c-2.1-4.2-5.2-7.4-9.5-9.4
							c-4.2-2.1-9.4-3.1-15.5-3.1h-21v22.3h14c3.5,0,6.1,0.8,7.8,2.4c1.6,1.6,2.5,4.3,2.5,7.9v21.6c0,3.3,0.7,6.1,2.1,8.6
							c1.4,2.5,3.4,4.4,6,5.8c2.6,1.4,5.7,2.1,9.2,2.2v2.4c-5.4,0.1-9.6,1.6-12.7,4.6c-3.1,3-4.6,7-4.6,12v21.6
							c0,3.6-0.8,6.3-2.5,7.9c-1.6,1.6-4.2,2.4-7.8,2.4h-14V287h21c9.3,0,16.3-2.4,21-7.1c4.7-4.7,7.1-11.7,7.1-20.9v-22.8
							c0-4,1-6.9,2.9-8.8c1.9-1.9,5-2.8,9.4-2.8v-19.3c-4.4,0-7.5-0.9-9.4-2.8C570.1,200.6,569.2,197.7,569.2,193.7"/>
						<path id="Fill-25" class="st0" d="M640.6,202.5c-1.9-1.9-2.9-4.8-2.9-8.8v-22.8c0-6.1-1-11.2-3.1-15.4
							c-2.1-4.2-5.2-7.4-9.5-9.4c-4.2-2.1-9.4-3.1-15.5-3.1h-21v22.3h14c3.5,0,6.1,0.8,7.8,2.4c1.6,1.6,2.5,4.3,2.5,7.9v21.6
							c0,3.3,0.7,6.1,2.1,8.6c1.4,2.5,3.4,4.4,6,5.8c2.6,1.4,5.7,2.1,9.2,2.2v2.4c-5.4,0.1-9.6,1.6-12.7,4.6c-3.1,3-4.6,7-4.6,12
							v21.6c0,3.6-0.8,6.3-2.5,7.9c-1.6,1.6-4.2,2.4-7.8,2.4h-14V287h21c9.3,0,16.3-2.4,21-7.1c4.7-4.7,7.1-11.7,7.1-20.9v-22.8
							c0-4,1-6.9,2.9-8.8c1.9-1.9,5-2.8,9.4-2.8v-19.3C645.6,205.3,642.5,204.4,640.6,202.5"/>
					</g>
				</g>
			</g>
		</g>
	</g>
</g>
</svg>
