<?xml version="1.0" encoding="UTF-8"?>
<svg width="34px" height="87px" viewBox="0 0 34 87" version="1.1" xmlns="http://www.w3.org/2000/svg" xmlns:xlink="http://www.w3.org/1999/xlink">
    <title>C400ED61-B3E3-4A01-B16B-C0162174A0B1@1x</title>
    <g id="Symbols" stroke="none" stroke-width="1" fill="none" fill-rule="evenodd">
        <g id="2021-/-motif-/-laurel-right" fill="#FCB169" fill-rule="nonzero">
            <g id="laurel-right">
                <path d="M15.0550824,81.44375 C17.3744505,81.05 19.9023352,81.3701923 21.9572802,82.6884615 L21.9572802,82.6884615 L21.6969595,83.0188207 C20.9009478,83.9922356 19.9721429,84.8054808 18.9821429,85.4259615 C17.8942308,86.1269231 16.7111264,86.5725962 15.4570055,86.6980769 C12.9956044,86.9980769 10.6399725,86.2884615 8.82980769,84.6759615 C9.67445055,83.7860577 10.6641484,83.0966346 11.7520604,82.5875 C12.7991758,82.0466346 13.8840659,81.6370192 15.0550824,81.44375 Z M4.24697802,71.2495192 C6.30192308,72.5677885 7.65576923,74.4125 8.07582418,76.4850962 C8.27980769,77.5105769 8.2918956,78.6139423 8.00178571,79.6408654 C7.66936813,80.6346154 7.0967033,81.5966346 6.30041209,82.4389423 C4.49024725,80.8264423 3.46428571,78.7120192 3.15302198,76.7418269 C3.02760989,75.7740385 2.99436813,74.7658654 3.13791209,73.8168269 C3.29354396,72.8764423 3.65013736,72.0110577 4.24697802,71.2495192 Z M20.9346154,71.6367308 C23.1225275,70.8748077 25.6625,70.7334615 27.9440934,71.5896154 C26.7020604,73.9332692 24.7861264,75.7263462 22.364011,76.3765385 C20.0174451,77.0805769 17.5711538,76.8342308 15.4739011,75.6630769 L15.4739011,75.6630769 L15.6942132,75.3469099 C16.299554,74.5197768 17.0461691,73.8200427 17.8990385,73.2373077 C18.8902473,72.5965385 19.8104396,72.0082692 20.9346154,71.6367308 Z M8.26346154,64.1359615 C10.5450549,64.9921154 12.2494505,66.4526923 13.0880495,68.2834615 C13.4809066,69.1813462 13.7785714,70.2192308 13.6274725,71.1763462 C13.5081044,72.1455769 13.146978,73.1296154 12.5440934,74.0396154 C10.4468407,72.8684615 9.00837912,71.1009615 8.29368132,69.3455769 C7.67115385,67.6157692 7.38255495,65.7176923 8.26346154,64.1359615 Z M25.500641,60.3558761 C27.4320513,59.2003205 29.8323077,58.6114316 32.1971795,59.0780983 L32.1971795,59.0780983 L32.1122369,59.3872005 C31.4014715,61.8418672 29.9430026,63.8536538 27.858141,64.9003205 C25.7660256,66.0280983 23.3746154,66.2100427 21.1203205,65.394765 C21.9253205,63.2155983 23.6458974,61.5489316 25.500641,60.3558761 Z M11.7876282,54.9836538 C14.1525,55.4503205 16.0927564,56.632265 17.2825641,58.3405983 C18.5047463,59.9844062 18.7181572,62.0223619 18.0642392,64.0095078 L17.9740385,64.2683761 C15.7182692,63.4530983 13.9682051,61.9142094 12.908141,60.2600427 C11.9828053,58.6925824 11.3596963,56.9260795 11.7252883,55.2364822 L11.7876282,54.9836538 Z M33.6538462,46.8653846 L33.6333759,47.1961363 C33.4346786,49.8293823 32.3981641,52.1485577 30.5694872,53.6024038 C28.7457051,55.1399038 26.436859,55.7716346 24.0587179,55.3605769 C24.3992949,52.9879808 25.7586538,50.9701923 27.3391667,49.4096154 C29.0007692,47.8735577 31.2373718,46.8278846 33.6538462,46.8653846 L33.6538462,46.8653846 Z M12.7916667,46.4759615 C15.208141,46.5134615 17.351859,47.3586538 18.8645513,48.8802885 C20.4627564,50.3932692 21.0628205,52.5466346 20.7414103,54.7980769 C18.3632692,54.3870192 16.3316026,53.1451923 14.9545513,51.6538462 C13.6630128,50.1538462 12.6737179,48.3697115 12.7916667,46.4759615 Z M18.5505128,39.1288462 C20.4126282,40.3173077 21.4151923,42.3206731 21.5405128,44.5908654 C19.1255128,44.6283654 16.8889103,43.7860577 15.2479487,42.5759615 C13.6895513,41.3413462 12.3744231,39.775 12.1208333,37.8942308 C14.5004487,37.4831731 16.7694872,37.9158654 18.5505128,39.1288462 Z M32.6792949,34.4081731 C33.0876923,37.1528846 32.5333333,39.75625 30.9557692,41.5951923 C29.4637179,43.4413462 27.32,44.4899038 24.905,44.5274038 L24.905,44.5274038 L24.8941046,44.1866928 C24.8690337,41.9229036 25.7841392,39.8150412 26.9720513,38.0774038 C28.3063462,36.2600962 30.2996795,34.8192308 32.6792949,34.4081731 Z M15.451859,30.2977564 C17.5174359,31.0852564 18.8797436,32.8047009 19.4488462,34.9255342 C17.0839744,35.3922009 14.725,34.9949786 12.8776282,34.1463675 C11.1069231,33.2588675 9.51903846,32.0144231 8.89685897,30.2880342 C11.1526282,29.4713675 13.4658974,29.4713675 15.451859,30.2977564 Z M28.4011538,23.3005342 C29.3462179,25.8227564 29.3005128,28.3894231 28.1107051,30.4102564 C27.0049359,32.4255342 25.1059615,33.7991453 22.7410897,34.265812 C22.1439744,32.0269231 22.6526282,29.7422009 23.5180769,27.7935897 C24.4719872,25.8380342 26.1453846,24.1172009 28.4011538,23.3005342 Z M12.6306319,20.0353147 C14.8850275,20.4573427 16.5803571,22.0161713 17.6153846,24.1233392 C15.3337912,25.0684441 12.8754121,25.1070804 10.8370879,24.5750874 C9.78846154,24.319493 8.96043956,23.8499126 8.07802198,23.3416958 C7.22733516,22.8156469 6.52774725,22.1439685 6.0260989,21.2984266 C8.12486264,20.0055944 10.4548077,19.5553322 12.6306319,20.0353147 Z M24.1881868,10.190472 C24.9315934,11.4179196 25.4181319,12.7181818 25.6462912,13.9872378 C25.9061813,15.2414336 25.7006868,16.5684441 25.3833791,17.7141608 C24.6943681,20.0427448 23.0715659,21.8512238 20.7899725,22.7963287 C19.7020604,20.5717657 19.7700549,18.0559441 20.2233516,15.8477273 C20.7688187,13.6127622 22.0894231,11.4833042 24.1881868,10.190472 Z M6.93491124,12.1947115 C8.05621302,12.1961538 9.08579882,12.4918269 10.0162722,13.0182692 C10.9571006,13.5375 11.8150888,14.2716346 12.5044379,15.1831731 C10.4926036,16.5014423 8.13313609,16.9918269 6.06360947,16.8620192 C5.01775148,16.8 4.07840237,16.5475962 3.19526627,16.1725962 C2.37080868,15.86875 1.63985682,15.4315705 1.02838451,14.8397851 L0.804733728,14.6105769 C2.57692308,12.9980769 4.74112426,12.1427885 6.93491124,12.1947115 Z M16.1597633,0.734134615 C17.112426,1.75817308 17.8328402,2.89903846 18.2973373,4.05721154 C18.7218935,5.25144231 18.8328402,6.51201923 18.7337278,7.66875 C18.5236686,10.0052885 17.3136095,12.0201923 15.3017751,13.3384615 L15.3017751,13.3384615 L15.0673513,13.0120726 C14.4652458,12.1330128 14.0465155,11.1855769 13.7914201,10.1971154 C13.5147929,9.075 13.4215976,7.91538462 13.4363905,6.825 C13.5251479,4.60673077 14.387574,2.34663462 16.1597633,0.734134615 Z" id="Combined-Shape"></path>
            </g>
        </g>
    </g>
</svg>