<?xml version="1.0" encoding="UTF-8"?>
<svg width="16px" height="16px" viewBox="0 0 16 16" version="1.1" xmlns="http://www.w3.org/2000/svg" xmlns:xlink="http://www.w3.org/1999/xlink">
    <title>ED4E0EA9-E1E2-4563-BC99-57F89818A360@1x</title>
    <defs>
        <path d="M12.7071068,4.29289322 L19.7071068,11.2928932 C19.7355731,11.3213595 19.7623312,11.3515341 19.787214,11.3832499 L19.7071068,11.2928932 C19.7425008,11.3282873 19.774687,11.3656744 19.8036654,11.4046934 C19.8215099,11.4288693 19.8382813,11.453725 19.8539326,11.4793398 C19.8613931,11.4913869 19.8685012,11.5036056 19.8753288,11.5159379 C19.8862061,11.5357061 19.8966234,11.5561086 19.9063462,11.5769009 C19.914321,11.5939015 19.9218036,11.6112044 19.9287745,11.628664 C19.9366843,11.6484208 19.9438775,11.6682023 19.9504533,11.6882636 C19.9552713,11.7031487 19.9599023,11.7185367 19.9641549,11.734007 C19.9701664,11.7555635 19.9753602,11.7772539 19.9798348,11.7992059 C19.9832978,11.8166247 19.9863719,11.834051 19.9889822,11.8515331 C19.9920941,11.8718856 19.994564,11.8929426 19.9963697,11.914189 C19.997855,11.9320769 19.9988772,11.949409 19.9994506,11.9667532 C19.9998151,11.9775981 20,11.9887775 20,12 L19.9994829,12.0322546 C19.9989053,12.0502664 19.9978436,12.0682655 19.9962979,12.0862308 L20,12 C20,12.0506203 19.9962388,12.1003621 19.9889807,12.1489612 C19.9863719,12.165949 19.9832978,12.1833753 19.9797599,12.2007258 C19.9753602,12.2227461 19.9701664,12.2444365 19.964279,12.2658396 C19.9599023,12.2814633 19.9552713,12.2968513 19.9502619,12.3121425 C19.9438775,12.3317977 19.9366843,12.3515792 19.928896,12.3710585 C19.9218036,12.3887956 19.914321,12.4060985 19.9063266,12.4232215 C19.8966234,12.4438914 19.8862061,12.4642939 19.8751242,12.484277 C19.8685012,12.4963944 19.8613931,12.5086131 19.8540045,12.5207088 C19.8382813,12.546275 19.8215099,12.5711307 19.8036865,12.5951593 C19.7982466,12.602603 19.7927155,12.6098424 19.7870723,12.6170223 C19.7849289,12.6196628 19.7826279,12.6225624 19.7803112,12.625449 L19.7071068,12.7071068 L19.7071068,12.7071068 L12.7071068,19.7071068 C12.3165825,20.0976311 11.6834175,20.0976311 11.2928932,19.7071068 C10.9023689,19.3165825 10.9023689,18.6834175 11.2928932,18.2928932 L16.586,12.999 L5,13 C4.44771525,13 4,12.5522847 4,12 C4,11.4477153 4.44771525,11 5,11 L16.584,10.999 L11.2928932,5.70710678 C10.9023689,5.31658249 10.9023689,4.68341751 11.2928932,4.29289322 C11.6834175,3.90236893 12.3165825,3.90236893 12.7071068,4.29289322 Z" id="path-1"></path>
    </defs>
    <g id="Symbols" stroke="none" stroke-width="1" fill="none" fill-rule="evenodd">
        <g id="2021-/-CTA-/-desktop" transform="translate(-273.000000, -26.000000)">
            <g id="Group" transform="translate(157.000000, 21.000000)">
                <g transform="translate(112.000000, 1.000000)" id="icon-/-arrow-right">
                    <mask id="mask-2" fill="white">
                        <use xlink:href="#path-1"></use>
                    </mask>
                    <use id="Mask" fill="#000000" fill-rule="nonzero" xlink:href="#path-1"></use>
                    <g id="Group" mask="url(#mask-2)" fill="#FFFFFF">
                        <g id="Icon-Color">
                            <rect id="Shape" x="0" y="0" width="24" height="24"></rect>
                        </g>
                    </g>
                </g>
            </g>
        </g>
    </g>
</svg>