<?xml version="1.0" encoding="UTF-8"?>
<svg width="30px" height="24px" viewBox="0 0 30 24" version="1.1" xmlns="http://www.w3.org/2000/svg" xmlns:xlink="http://www.w3.org/1999/xlink">
    <title>7643882C-BBA6-4B3C-B42A-F34B50187000@1x</title>
    <defs>
        <path d="M26.6666667,4 L5.33333333,4 C3.06666667,4 1.33333333,5.73333333 1.33333333,8 L1.33333333,24 C1.33333333,26.2666667 3.06666667,28 5.33333333,28 L26.6666667,28 C28.9333333,28 30.6666667,26.2666667 30.6666667,24 L30.6666667,8 C30.6666667,5.73333333 28.9333333,4 26.6666667,4 Z M5.33333333,6.66666667 L26.6666667,6.66666667 C27.2,6.66666667 27.6,6.93333333 27.8666667,7.46666667 L16,15.7333333 L4.13333333,7.46666667 C4.4,6.93333333 4.8,6.66666667 5.33333333,6.66666667 Z M26.6666667,25.3333333 L5.33333333,25.3333333 C4.53333333,25.3333333 4,24.8 4,24 L4,10.5333333 L15.2,18.4 C15.4666667,18.5333333 15.7333333,18.6666667 16,18.6666667 C16.2666667,18.6666667 16.5333333,18.5333333 16.8,18.4 L28,10.5333333 L28,24 C28,24.8 27.4666667,25.3333333 26.6666667,25.3333333 Z" id="path-1"></path>
    </defs>
    <g id="EmberFest-2021" stroke="none" stroke-width="1" fill="none" fill-rule="evenodd">
        <g id="Mobile" transform="translate(-145.000000, -1305.000000)">
            <g id="get-involved" transform="translate(0.000000, 967.000000)">
                <g id="mailing-list" transform="translate(16.000000, 318.000000)">
                    <g id="icon-/-arrow-right-copy" transform="translate(128.000000, 16.000000)">
                        <mask id="mask-2" fill="white">
                            <use xlink:href="#path-1"></use>
                        </mask>
                        <use id="Mask" fill="#000000" fill-rule="nonzero" xlink:href="#path-1"></use>
                        <g id="Group" mask="url(#mask-2)" fill="#2A3B90">
                            <g id="Icon-Color">
                                <rect id="Shape" x="0" y="0" width="32" height="32"></rect>
                            </g>
                        </g>
                    </g>
                </g>
            </g>
        </g>
    </g>
</svg>