<?xml version="1.0" encoding="UTF-8"?>
<svg width="21px" height="19px" viewBox="0 0 21 19" version="1.1" xmlns="http://www.w3.org/2000/svg" xmlns:xlink="http://www.w3.org/1999/xlink">
    <title>icon / arrow-right copy</title>
    <defs>
        <path d="M20.6280368,1.91521135 C20.3660988,1.73922364 19.9295355,1.73922364 19.6675976,1.91521135 C19.056409,2.3551806 18.3579077,2.70715601 17.6594065,2.97113756 C15.9131534,1.38724824 13.2064611,1.29925439 11.3728954,2.97113756 C10.2378308,3.85107607 9.62664227,5.17098383 9.62664227,6.57888545 C7.09457527,6.40289775 4.82444625,5.08298998 3.34013112,2.97113756 C3.16550581,2.70715601 2.90356784,2.61916215 2.55431722,2.61916215 C2.2050666,2.61916215 1.94312864,2.88314371 1.85581598,3.14712526 C1.76850333,3.23511911 0.895376781,5.34697154 0.982689436,7.89879322 C1.07000209,10.0986395 1.94312864,12.9144427 5.17369687,14.9383013 C3.86400705,15.5542583 2.37969191,15.8182398 0.895376781,15.8182398 C0.546126162,15.8182398 0.109562888,16.0822214 0.0222502327,16.4341968 C-0.0650624221,16.7861722 0.109562888,17.2261414 0.458813507,17.4021291 C2.64162988,18.634043 4.99907156,19.25 7.18188793,19.25 C9.3647043,19.25 11.460208,18.7220369 13.3810864,17.5781168 C17.1355306,15.4662644 19.2310343,11.4185473 19.2310343,6.57888545 C19.2310343,6.40289775 19.2310343,6.3149039 19.2310343,6.1389162 C20.1041608,5.17098383 20.7153494,4.02706377 20.9772874,2.79514986 C21.0646,2.44317445 20.8899747,2.09119905 20.6280368,1.91521135 Z M17.6594065,5.25897769 C17.4847812,5.43496539 17.3974685,5.78694079 17.3974685,6.05092235 C17.4847812,6.22691005 17.4847812,6.40289775 17.4847812,6.57888545 C17.4847812,10.8025903 15.6512154,14.2343505 12.5079599,16.0822214 C10.0632055,17.490123 7.18188793,17.8420984 4.30057032,17.1381476 C5.43563483,16.7861722 6.48338669,16.3462029 7.44382589,15.6422521 C7.79307651,15.4662644 7.88038917,15.2022829 7.88038917,14.8503074 C7.88038917,14.498332 7.6184512,14.2343505 7.35651324,14.1463566 C2.29237926,11.8585165 2.46700457,7.54681781 2.9908805,5.34697154 C4.9117589,7.28283626 7.6184512,8.42675632 10.4997688,8.33876247 C10.9363321,8.33876247 11.3728954,7.89879322 11.3728954,7.45882396 L11.3728954,6.57888545 C11.3728954,5.69894694 11.722146,4.81900843 12.4206472,4.20305147 C13.6430244,3.05913141 15.6512154,3.23511911 16.6989673,4.46703303 C16.9609053,4.73101458 17.3101559,4.81900843 17.5720939,4.73101458 C17.7467192,4.64302073 18.0086571,4.64302073 18.1832824,4.55502688 C18.0086571,4.81900843 17.8340318,4.99499613 17.6594065,5.25897769 Z" id="path-1"></path>
    </defs>
    <g id="Symbols" stroke="none" stroke-width="1" fill="none" fill-rule="evenodd">
        <g id="2021-/-speaker-/-dekstop" transform="translate(-66.000000, -242.000000)">
            <g id="icon-/-arrow-right-copy" transform="translate(66.000000, 241.000000)">
                <mask id="mask-2" fill="white">
                    <use xlink:href="#path-1"></use>
                </mask>
                <use id="Mask" fill="#000000" fill-rule="nonzero" xlink:href="#path-1"></use>
                <g id="Group" mask="url(#mask-2)" fill="#2A3B90">
                    <g id="Icon-Color">
                        <rect id="Shape" x="0" y="0" width="21" height="21"></rect>
                    </g>
                </g>
            </g>
        </g>
    </g>
</svg>