<?xml version="1.0" encoding="UTF-8"?>
<svg width="32px" height="28px" viewBox="0 0 32 28" version="1.1" xmlns="http://www.w3.org/2000/svg" xmlns:xlink="http://www.w3.org/1999/xlink">
    <title>56E56D91-D08C-49B9-B577-0267FFEA2716@1x</title>
    <defs>
        <path d="M31.4331989,2.91841729 C31.0340553,2.65024555 30.3688161,2.65024555 29.9696725,2.91841729 C29.0383375,3.58884663 27.9739547,4.1251901 26.9095718,4.52744771 C24.2486147,2.11390208 20.1241312,1.97981621 17.3301263,4.52744771 C15.6005042,5.86830639 14.6691692,7.87959442 14.6691692,10.0249683 C10.8107814,9.75679657 7.35153714,7.74550855 5.08972361,4.52744771 C4.8236279,4.1251901 4.42448433,3.99110424 3.89229291,3.99110424 C3.36010149,3.99110424 2.96095793,4.39336184 2.82791007,4.79561945 C2.69486222,4.92970531 1.36438367,8.14776615 1.49743152,12.0362563 C1.63047938,15.388403 2.96095793,19.6791508 7.88372856,22.7631258 C5.88801074,23.7017269 3.6261972,24.1039845 1.36438367,24.1039845 C0.832192247,24.1039845 0.166952972,24.5062421 0.0339051165,25.0425855 C-0.0991427385,25.578929 0.166952972,26.2493584 0.699144392,26.5175301 C4.02534077,28.3947323 7.61763285,29.3333333 10.9438292,29.3333333 C14.2700256,29.3333333 17.4631741,28.5288181 20.3902269,26.7857018 C26.1112847,23.567641 29.3044332,17.3996911 29.3044332,10.0249683 C29.3044332,9.75679657 29.3044332,9.6227107 29.3044332,9.35453897 C30.6349118,7.87959442 31.5662468,6.13647813 31.9653903,4.25927597 C32.0984382,3.7229325 31.8323425,3.18658903 31.4331989,2.91841729 Z M26.9095718,8.01368028 C26.6434761,8.28185202 26.5104283,8.81819549 26.5104283,9.2204531 C26.6434761,9.48862483 26.6434761,9.75679657 26.6434761,10.0249683 C26.6434761,16.46109 23.8494712,21.6904388 19.0597484,24.5062421 C15.3344084,26.651616 10.9438292,27.1879594 6.55325001,26.1152725 C8.28287213,25.578929 9.87944639,24.9084997 11.3429728,23.8358127 C11.8751642,23.567641 12.0082121,23.1653834 12.0082121,22.6290399 C12.0082121,22.0926964 11.6090685,21.6904388 11.2099249,21.556353 C3.49314935,18.0701204 3.75924506,11.4999129 4.55753219,8.14776615 C7.484585,11.0976553 11.6090685,12.8407715 15.9996477,12.7066857 C16.664887,12.7066857 17.3301263,12.0362563 17.3301263,11.365827 L17.3301263,10.0249683 C17.3301263,8.68410962 17.8623177,7.34325094 18.9267005,6.40464986 C20.7893705,4.66153358 23.8494712,4.92970531 25.4460454,6.80690747 C25.845189,7.20916507 26.3773804,7.34325094 26.776524,7.20916507 C27.0426197,7.07507921 27.4417632,7.07507921 27.707859,6.94099334 C27.4417632,7.34325094 27.1756675,7.61142268 26.9095718,8.01368028 Z" id="path-1"></path>
    </defs>
    <g id="EmberFest-2021" stroke="none" stroke-width="1" fill="none" fill-rule="evenodd">
        <g id="2021-Desktop-HD---Location-unnanounced" transform="translate(-471.000000, -1345.000000)">
            <g id="get-involved" transform="translate(0.000000, 1075.000000)">
                <g id="twitter" transform="translate(286.000000, 236.000000)">
                    <g id="icon-/-arrow-right-copy" transform="translate(185.000000, 32.000000)">
                        <mask id="mask-2" fill="white">
                            <use xlink:href="#path-1"></use>
                        </mask>
                        <use id="Mask" fill="#000000" fill-rule="nonzero" xlink:href="#path-1"></use>
                        <g id="Group" mask="url(#mask-2)" fill="#2A3B90">
                            <g id="Icon-Color">
                                <rect id="Shape" x="0" y="0" width="32" height="32"></rect>
                            </g>
                        </g>
                    </g>
                </g>
            </g>
        </g>
    </g>
</svg>