<?xml version="1.0" encoding="UTF-8"?>
<svg width="184px" height="34px" viewBox="0 0 184 34" version="1.1" xmlns="http://www.w3.org/2000/svg" xmlns:xlink="http://www.w3.org/1999/xlink">
    <title>cardstack</title>
    <g id="Symbols" stroke="none" stroke-width="1" fill="none" fill-rule="evenodd">
        <g id="2021-/-sponsor-grid" transform="translate(-370.000000, -296.000000)" fill-rule="nonzero">
            <g id="sponsors" transform="translate(0.000000, 1.070008)">
                <g id="row-4" transform="translate(0.000000, 294.929992)">
                    <g id="cardstack" transform="translate(370.000000, 0.000000)">
                        <polygon id="Path" fill="#000000" points="15.571 33.03 22.371 29.639 6.812 21.875 0.052 25.244"></polygon>
                        <polygon id="Path" fill="#000000" points="24.357 28.645 31.134 25.266 6.804 13.134 0.027 16.513"></polygon>
                        <polygon id="Path" fill="#000000" points="24.332 19.896 31.115 16.513 24.338 13.134 17.555 16.517"></polygon>
                        <polygon id="Path" fill="#000000" points="6.781 4.383 0 7.76 15.57 15.524 22.352 12.141"></polygon>
                        <polygon id="Path" fill="#000000" points="24.337 11.16 31.137 7.769 24.356 4.388 17.551 7.779"></polygon>
                        <polygon id="Path" fill="#000000" points="15.57 0 8.77 3.393 15.575 6.784 22.375 3.393"></polygon>
                        <g id="Group" transform="translate(39.825362, 7.476799)">
                            <g fill="#000000">
                                <path d="M13.8686379,3.45120118 C12.543336,2.24698098 10.8036517,1.60198989 9.01363788,1.65120118 C5.02268943,1.7740744 1.85105325,5.04486167 1.85105325,9.03770118 C1.85105325,13.0305407 5.02268943,16.301328 9.01363788,16.4242012 C10.8204186,16.4820458 12.5836497,15.8629177 13.9576379,14.6882012 L13.9576379,16.7772012 C12.4621975,17.6339228 10.767077,18.0806426 9.04363788,18.0722012 C6.6142961,18.1869958 4.24915905,17.2721216 2.52943825,15.5524008 C0.809717439,13.83268 -0.105156763,11.467543 0.00963788113,9.03820118 C-0.06519965,6.62006905 0.862540894,4.27849678 2.57323719,2.56780049 C4.28393348,0.857104192 6.62550576,-0.0706363518 9.04363788,0.0042011793 C10.7432221,-0.00492517899 12.4126455,0.453076621 13.8696379,1.32820118 L13.8686379,3.45120118 Z" id="Path"></path>
                                <path d="M19.8876379,12.9562012 L18.0626379,17.7822012 L16.1786379,17.7822012 L22.9466379,0.302201179 L25.2716379,0.302201179 L32.1286379,17.7822012 L30.1866379,17.7822012 L28.3626379,12.9562012 L19.8876379,12.9562012 Z M24.0956379,1.77420118 L20.4466379,11.4262012 L27.7786379,11.4262012 L24.0956379,1.77420118 Z" id="Shape"></path>
                                <path d="M36.8846379,17.7822012 L35.0596379,17.7822012 L35.0596379,0.272201179 C36.1615157,0.116014296 37.2719311,0.0275150189 38.3846379,0.00720117931 C43.0926379,0.00720117931 45.1846379,2.18520118 45.1846379,5.42220118 C45.2873752,7.82549367 43.7079997,9.97801623 41.3846379,10.6012012 L47.1846379,17.7822012 L44.9176379,17.7822012 L39.5036379,11.0142012 L36.8846379,11.0142012 L36.8846379,17.7822012 Z M36.8846379,9.51320118 L38.7076379,9.51320118 C41.5916379,9.51320118 43.2976379,8.15920118 43.2976379,5.48220118 C43.2976379,3.24520118 41.9146379,1.59820118 38.3536379,1.59820118 C38.0006379,1.59820118 37.2936379,1.62720118 36.8826379,1.65720118 L36.8846379,9.51320118 Z" id="Shape"></path>
                                <path d="M49.9826379,0.244201179 C51.1739873,0.0988631323 52.3725147,0.0200741479 53.5726379,0.00820117931 C61.5726379,0.00820117931 64.2846379,4.15720118 64.2846379,8.63020118 C64.2846379,13.5452012 61.4296379,18.0762012 53.8086379,18.0762012 C52.5289651,18.0693668 51.2510334,17.9808535 49.9826379,17.8112012 L49.9826379,0.244201179 Z M51.8066379,16.3702012 C52.4801839,16.4518041 53.1581732,16.4912144 53.8366379,16.4882012 C58.8366379,16.4882012 62.3706379,13.9882012 62.3706379,8.66020118 C62.3706379,4.54020118 59.7516379,1.66020118 53.5126379,1.66020118 C52.9536379,1.66020118 52.4236379,1.69020118 51.8056379,1.74820118 L51.8066379,16.3702012 Z" id="Shape"></path>
                                <path d="M67.0126379,14.7222012 C68.2246373,15.8444735 69.8052655,16.4846919 71.4566379,16.5222012 C73.5456379,16.5222012 75.3406379,15.6092012 75.3406379,13.3142012 C75.3406379,11.2252012 73.7806379,10.4302012 71.6916379,9.66520118 C68.5726379,8.51720118 66.8916379,7.48720118 66.8916379,4.51520118 C66.8916379,1.54320118 69.3636379,0.0152011793 71.9826379,0.0152011793 C73.4935949,-0.0205264857 74.9702891,0.468171292 76.1616379,1.39820118 L76.1616379,3.28120118 C75.0242751,2.22027226 73.5375208,1.61297634 71.9826379,1.57420118 C70.0106379,1.57420118 68.6576379,2.75120118 68.6576379,4.54620118 C68.6576379,6.22420118 69.6576379,7.04620118 72.1886379,7.93020118 C75.4256379,9.04820118 77.1326379,10.2552012 77.1326379,13.3152012 C77.1326379,16.5232012 74.6016379,18.0822012 71.4526379,18.0822012 C69.8617351,18.1392675 68.2974429,17.6626582 67.0086379,16.7282012 L67.0126379,14.7222012 Z" id="Path"></path>
                                <polygon id="Path" points="86.6196379 17.7822012 84.7916379 17.7822012 84.7916379 1.89120118 79.0236379 1.89120118 79.0236379 0.302201179 92.3916379 0.302201179 92.3916379 1.89120118 86.6236379 1.89120118"></polygon>
                                <path d="M94.8946379,12.9562012 L93.0706379,17.7822012 L91.1876379,17.7822012 L97.9556379,0.302201179 L100.280638,0.302201179 L107.136638,17.7822012 L105.194638,17.7822012 L103.370638,12.9562012 L94.8946379,12.9562012 Z M99.1026379,1.77420118 L95.4536379,11.4262012 L102.780638,11.4262012 L99.1026379,1.77420118 Z" id="Shape"></path>
                                <path d="M122.070638,3.45120118 C120.745084,2.24673832 119.004994,1.60172966 117.214638,1.65120118 C113.223689,1.7740744 110.052053,5.04486167 110.052053,9.03770118 C110.052053,13.0305407 113.223689,16.301328 117.214638,16.4242012 C119.021404,16.4819486 120.784601,15.8628325 122.158638,14.6882012 L122.158638,16.7772012 C120.663198,17.6339228 118.968077,18.0806426 117.244638,18.0722012 C114.815296,18.1869958 112.450159,17.2721216 110.730438,15.5524008 C109.010717,13.83268 108.095843,11.467543 108.210638,9.03820118 C108.1358,6.62006905 109.063541,4.27849678 110.774237,2.56780049 C112.484933,0.857104192 114.826506,-0.0706363518 117.244638,0.00420117931 C118.944222,-0.00492517899 120.613646,0.453076621 122.070638,1.32820118 L122.070638,3.45120118 Z" id="Path"></path>
                                <path d="M125.934638,0.302201179 L127.758638,0.302201179 L127.758638,17.7822012 L125.934638,17.7822012 L125.934638,0.302201179 Z M135.763638,0.302201179 L138.029638,0.302201179 L130.143638,9.01320118 L138.589638,17.7822012 L136.235638,17.7822012 L127.877638,9.18920118 L135.763638,0.302201179 Z" id="Shape"></path>
                            </g>
                            <g transform="translate(140.184798, 15.035801)" fill="#FFF8EE" id="Shape">
                                <path d="M1.73683997,0.000399757587 C2.44736871,-0.00649103256 3.09177509,0.416217038 3.36847068,1.07069249 C3.64516627,1.72516794 3.49941231,2.48193573 2.99942307,2.98682118 C2.49943382,3.49170663 1.74412229,3.64482813 1.08698161,3.37452333 C0.429840922,3.10421854 0.000873386783,2.4639619 0.000839973728,1.75339976 C-0.0138142006,1.28710428 0.163804577,0.835277213 0.492076819,0.503790324 C0.82034906,0.172303435 1.27042383,-0.00970982009 1.73683997,0.000399757587 Z M1.73683997,3.29439976 C2.36360083,3.30862947 2.93658776,2.94198076 3.18626988,2.36692381 C3.43595199,1.79186685 3.31262155,1.12288636 2.87429272,0.674668228 C2.43596389,0.226450094 1.76990099,0.0882274331 1.18941748,0.325019662 C0.608933974,0.561811891 0.229594921,1.12647743 0.229839974,1.75339976 C0.209638208,2.16200995 0.360747154,2.5605351 0.646786382,2.85302777 C0.93282561,3.14552044 1.32788082,3.30548166 1.73683997,3.29439976 L1.73683997,3.29439976 Z M1.50283997,2.74039976 L1.04583997,2.74039976 L1.04583997,0.765399758 C1.24708146,0.725293014 1.45164873,0.704200153 1.65683997,0.702399758 C2.18783997,0.702399758 2.51283997,0.942399758 2.51283997,1.40239976 C2.52165238,1.65451564 2.37411303,1.88596551 2.14183997,1.98439976 L2.70083997,2.73739976 L2.15883997,2.73739976 L1.69083997,2.08639976 L1.50483997,2.08639976 L1.50283997,2.74039976 Z M1.50283997,1.74039976 L1.66283997,1.74039976 C1.89683997,1.74039976 2.05083997,1.64939976 2.05083997,1.42639976 C2.05083997,1.22039976 1.91383997,1.11239976 1.66283997,1.11239976 C1.60930135,1.11289031 1.55585283,1.11689895 1.50283997,1.12439976 L1.50283997,1.74039976 Z"></path>
                            </g>
                        </g>
                    </g>
                </g>
            </g>
        </g>
    </g>
</svg>