<?xml version="1.0" encoding="UTF-8"?>
<svg width="120px" height="26px" viewBox="0 0 120 26" version="1.1" xmlns="http://www.w3.org/2000/svg" xmlns:xlink="http://www.w3.org/1999/xlink">
    <title>Clark</title>
    <g id="Symbols" stroke="none" stroke-width="1" fill="none" fill-rule="evenodd">
        <g id="2021-/-sponsor-grid" transform="translate(0.000000, -102.000000)" fill="#000000" fill-rule="nonzero">
            <g id="sponsors" transform="translate(0.000000, 1.070008)">
                <g id="row-2" transform="translate(0.000000, 72.929992)">
                    <g id="Clark" transform="translate(0.000000, 28.180000)">
                        <path d="M0,12.88 C0,5.68 5.66,0 12.94,0 C16.8,0 20.38,1.66 22.64,4.46 C23.06,4.98 23.2,5.32 23.2,5.7 C23.2,6.42 22.56,7.02 21.8,7.02 C21.3,7.02 20.9,6.84 20.56,6.42 C18.6,3.96 16.04,2.72 12.98,2.72 C7.32,2.72 3.06,7.1 3.06,12.88 C3.06,18.66 7.32,23.04 12.98,23.04 C16.04,23.04 18.6,21.76 20.56,19.34 C20.9,18.92 21.32,18.74 21.8,18.74 C22.56,18.74 23.2,19.34 23.2,20.06 C23.2,20.44 23.04,20.78 22.64,21.3 C20.46,24.1 16.82,25.76 12.94,25.76 C5.66,25.74 0,20.08 0,12.88 Z M28.62,24.16 L28.62,1.94 C28.62,1.08 29.22,0.4 30.1,0.4 C30.94,0.4 31.58,1.08 31.58,1.94 L31.58,23.08 L42.18,23.08 C42.98,23.08 43.54,23.64 43.54,24.4 C43.54,25.12 42.98,25.72 42.18,25.72 L30.18,25.72 C29.26,25.72 28.62,25.04 28.62,24.16 L28.62,24.16 Z M95.72,24.42 C95.72,25.14 95.12,25.74 94.32,25.74 C93.86,25.74 93.46,25.48 93.04,24.94 L85.52,14.86 L79.86,14.86 L79.86,24.22 C79.86,25.06 79.22,25.72 78.38,25.72 C77.52,25.72 76.9,25.04 76.9,24.22 L76.9,1.94 C76.9,1.1 77.54,0.44 78.4,0.44 L85.64,0.44 C90.4,0.44 93.6,3.34 93.6,7.64 C93.6,10.96 91.72,13.46 88.66,14.44 L95.2,23.32 C95.54,23.68 95.72,24.06 95.72,24.42 Z M79.88,12.24 L85.58,12.24 C88.72,12.24 90.6,10.5 90.6,7.68 C90.6,4.88 88.68,3.08 85.58,3.08 L79.88,3.08 L79.88,12.24 Z M104.3,1.56 L104.3,24.2 C104.3,25.06 103.66,25.74 102.82,25.74 C101.96,25.74 101.34,25.06 101.34,24.2 L101.34,1.56 C101.34,0.7 101.94,0.02 102.82,0.02 C103.66,1.1900203e-15 104.3,0.68 104.3,1.56 Z M120,24.42 C120,25.14 119.4,25.74 118.64,25.74 C118.26,25.74 117.88,25.56 117.46,25.14 L105.56,12.98 C105.3,12.68 105.1,12.34 105.1,11.96 C105.1,11.58 105.28,11.24 105.6,10.9 L116.4,0.6 C116.86,0.18 117.16,3.55271368e-15 117.54,3.55271368e-15 C118.3,3.55271368e-15 118.9,0.6 118.9,1.32 C118.9,1.74 118.72,2.08 118.26,2.5 L108.38,11.98 L119.44,23.34 C119.84,23.68 120,23.98 120,24.42 Z M71.16,23.38 L61.6,1.02 C61.3,0.34 60.84,1.77635684e-15 60.2,1.77635684e-15 C59.56,1.77635684e-15 59.1,0.34 58.8,1.02 L49.24,23.36 C49.08,23.74 49.02,24.04 49.02,24.3 C49.02,25.06 49.66,25.74 50.46,25.74 C51.1,25.74 51.6,25.36 51.86,24.76 L53.68,20.42 L53.74,20.26 L54.84,17.62 L60.2,4.42 L65.4,17.64 L66.54,20.28 L68.54,24.78 C68.84,25.38 69.3,25.76 69.98,25.76 C70.74,25.76 71.42,25.08 71.42,24.32 C71.42,24.06 71.34,23.74 71.16,23.38 L71.16,23.38 Z" id="Shape"></path>
                    </g>
                </g>
            </g>
        </g>
    </g>
</svg>