<?xml version="1.0" encoding="UTF-8"?>
<svg width="135px" height="37px" viewBox="0 0 135 37" version="1.1" xmlns="http://www.w3.org/2000/svg" xmlns:xlink="http://www.w3.org/1999/xlink">
    <title>EmberCheckup</title>
    <g id="Symbols" stroke="none" stroke-width="1" fill="none" fill-rule="evenodd">
        <g id="2021-/-sponsor-grid" transform="translate(-954.000000, -511.000000)" fill="#000000">
            <g id="sponsors" transform="translate(0.000000, 1.070008)">
                <g id="row-6" transform="translate(0.326247, 499.155851)">
                    <g id="EmberCheckup" transform="translate(953.833805, 10.966850)">
                        <path d="M5.16265958,35.8630847 C6.45347235,35.8691347 7.55649431,35.5357376 8.49965125,34.8382778 C9.09104287,34.4011784 9.56086236,33.7962131 8.95001297,33.0912504 C8.66440407,32.7617447 8.00726075,32.6003854 7.3631308,33.1546983 C6.85962602,33.5879994 5.92418993,33.7478956 5.16265958,33.6837005 C4.42214362,33.6211866 3.59635594,33.2202631 3.13145538,32.7315463 C2.77056826,32.3520731 2.51786633,31.821701 2.41204721,31.33507 L9.14038777,31.33507 C9.76194672,31.33507 10.2617779,30.9332126 10.2617779,30.298329 C10.2617779,30.298329 10.2617779,30.298329 10.2617779,30.298329 C10.2617779,30.298329 10.2617779,30.298329 10.2617779,30.298329 C10.2617779,27.5059058 7.91221345,25.2838287 5.16265958,25.2838287 C2.26398137,25.2838287 0,27.6957825 0,30.573384 C0,33.4509856 2.26401251,35.8491477 5.16265958,35.8630847 L5.16265958,35.8630847 Z M5.16265958,27.3560965 C7.00890602,27.3881007 8.08250784,28.6903079 8.29405269,29.536643 L2.30625921,29.536643 C2.4754951,28.6691067 3.3626448,27.3249019 5.16265958,27.3560965 L5.16265958,27.3560965 Z M22.9441644,27.5477478 C24.1078946,27.5477478 25.0811877,28.5212588 25.0811877,29.7270489 L25.0811877,34.7415493 C25.0811877,35.3549204 25.6101277,35.8630017 26.2237167,35.8630017 C26.8373057,35.8630017 27.3451068,35.3551383 27.3451068,34.7415493 L27.3451068,29.7270489 C27.3451068,27.2726928 25.3773816,25.2838287 22.9441644,25.2838287 C21.6111983,25.2838287 20.4051591,25.8339076 19.6223342,26.7437528 C18.8182769,25.8339076 17.6334078,25.2838287 16.3004417,25.2838287 C15.4964468,25.2838287 14.7135596,25.5165747 14.0365226,25.9185566 C13.8672245,25.5165747 13.4652114,25.2838287 13.0208894,25.2838287 C12.4073004,25.2838287 11.8994993,25.7708333 11.8994993,26.4263577 L11.8994993,34.7415493 C11.8994993,35.3759348 12.410507,35.8630017 13.0208894,35.8630017 C13.6575787,35.8630017 14.1634807,35.3283645 14.1634807,34.7031941 L14.1634807,29.7270489 C14.1634807,28.5210098 15.1367427,27.5477478 16.3004417,27.5477478 C17.4853109,27.5477478 18.4591955,28.4998709 18.4797429,29.6636011 C18.4800854,29.684522 18.4797429,29.706128 18.4797429,29.7270489 L18.4797429,34.7415493 C18.4797429,35.3549204 19.0298841,35.8630017 19.6223342,35.8630017 C19.6223342,35.8630017 19.6223342,35.8630017 19.6223342,35.8630017 C19.6223342,35.8630017 19.6223342,35.8630017 19.6223342,35.8630017 C20.2359232,35.8630017 20.7436931,35.3551383 20.7436931,34.7415493 L20.7436931,29.7270489 C20.7436931,29.70591 20.7430082,29.684522 20.7436931,29.6636011 C20.7850681,28.4998709 21.7381252,27.5477478 22.9441644,27.5477478 L22.9441644,27.5477478 Z M29.2665381,34.7204104 C29.2665381,35.3339372 29.7743391,35.8630017 30.4091293,35.8630017 C30.9803471,35.8630017 31.4247003,35.4609575 31.5304883,34.9531564 C32.3344833,35.5032976 33.3501165,35.8630017 34.4079965,35.8630017 C37.2643968,35.8630017 39.5495171,33.4509544 39.5495171,30.594523 C39.5495171,27.6958447 37.2643968,25.2838287 34.4079965,25.2838287 C33.3712554,25.2838287 32.3556845,25.6223004 31.5727973,26.1724727 L31.5727973,22.1946823 C31.5727973,21.5810932 31.0649962,21.0521533 30.4091293,21.0521533 C29.7743391,21.0521533 29.2665381,21.5811555 29.2665381,22.1946823 L29.2665381,34.7204104 Z M32.4191324,28.4575619 C32.9480723,27.9074207 33.6251715,27.5900879 34.4079965,27.5900879 C35.1697447,27.5900879 35.8679206,27.9074207 36.3969228,28.4575619 C36.9258628,28.9865019 37.2432579,29.7481879 37.2432579,30.594523 C37.2432579,31.3985802 36.9258628,32.1602662 36.3969228,32.6892684 C35.8679206,33.2393473 35.1697447,33.5567424 34.4079965,33.5567424 C33.6251715,33.5567424 32.9480723,33.2393473 32.4191324,32.6892684 C31.8901924,32.1602662 31.5727973,31.3985802 31.5727973,30.594523 C31.5727973,29.7481879 31.8901924,28.9865019 32.4191324,28.4575619 Z M46.0208595,35.8630848 C47.3704191,35.8694149 48.514567,35.5048542 49.485463,34.7409578 C50.033456,34.3100538 50.3552719,33.7224292 49.8082129,33.0912504 C49.5225417,32.7616202 48.7920815,32.6361565 48.2213307,33.1546983 C47.729594,33.6014797 46.7824521,33.7480201 46.0208595,33.6837005 C45.280219,33.6211243 44.4546181,33.2203877 43.9896553,32.7315463 C43.6286436,32.3520108 43.3760662,31.821701 43.2702782,31.33507 L49.9985877,31.33507 C50.6883578,31.33507 51.1566206,30.8432088 51.1199778,30.192541 C50.9519872,27.3361407 48.7714096,25.2838287 46.0208595,25.2838287 C43.1221813,25.2838287 40.8581999,27.6957825 40.8581999,30.573384 C40.8581999,33.4509856 43.1221813,35.8490543 46.0208595,35.8630848 L46.0208595,35.8630848 Z M46.0208595,27.3560965 C47.8672304,27.3881629 48.9407389,28.6903079 49.1522526,29.536643 L43.1644591,29.536643 C43.333695,28.6691067 44.2207824,27.3247773 46.0208595,27.3560965 Z M58.0722228,25.3049676 C57.0142806,25.2920165 56.1015711,25.6609358 55.4062595,26.1301638 C55.2556096,26.2318111 55.0888644,26.4052188 54.9619063,26.5533157 L54.9619063,26.4052188 C54.9619063,25.7916297 54.4329663,25.3049676 53.7981761,25.3049676 C53.1845871,25.3049676 52.676786,25.7920344 52.676786,26.4052188 L52.676786,34.7415493 C52.676786,35.3547336 53.1845871,35.8630017 53.7981761,35.8630017 C54.4329663,35.8630017 54.9619063,35.3551383 54.9619063,34.7415493 L54.9619063,30.877112 C54.9619063,29.976264 55.4646639,29.1432848 56.0401469,28.5691405 C56.6219186,27.9888632 57.2216537,27.5677659 58.0722228,27.5265777 C58.7061724,27.4958812 59.1935817,26.9976378 59.1935817,26.4052188 C59.1935817,25.7916297 58.7066394,25.3127507 58.0722228,25.3049676 L58.0722228,25.3049676 Z" id="Shape"></path>
                        <path d="M66.0735684,36.0395225 C65.3109795,36.0395225 64.6078225,35.9008898 63.9640972,35.6235933 C63.3203409,35.3462345 62.7632572,34.9674773 62.2928462,34.4871351 C61.822404,34.006824 61.453547,33.439809 61.1860883,32.7861526 C60.918723,32.1325583 60.7849781,31.4343514 60.7849781,30.6915627 L60.7849781,30.6618624 C60.7849781,29.9190738 60.9162324,29.2233262 61.1787099,28.574651 C61.4411252,27.9259757 61.8100445,27.3565324 62.2854055,26.86629 C62.7607977,26.3760477 63.3252598,25.9897876 63.9789474,25.7075722 C64.6326039,25.4252944 65.35553,25.28414 66.1478192,25.28414 C66.6232425,25.28414 67.0565125,25.3237404 67.4476915,25.4029725 C67.8389016,25.4822668 68.1978897,25.5936586 68.524749,25.7372725 C68.8515461,25.8808553 69.1536241,26.05171 69.4308895,26.2497745 C69.7081861,26.4478391 69.9706324,26.6657038 70.2182286,26.9033688 L69.0446917,28.2552322 C68.6287002,27.8690033 68.1879895,27.5570252 67.7225286,27.3193603 C67.2570365,27.0816953 66.7271937,26.9628628 66.1330002,26.9628628 C65.6377766,26.9628628 65.1797875,27.0593734 64.758877,27.252519 C64.3379666,27.4456334 63.9739973,27.7081109 63.6669693,28.039827 C63.3599724,28.3716053 63.1222763,28.7603559 62.9539433,29.2059855 C62.7855169,29.6516773 62.7013659,30.1270384 62.7013659,30.6321621 L62.7013659,30.6618624 C62.7013659,31.1669238 62.7855169,31.6447754 62.9539433,32.0954174 C63.1222763,32.5460281 63.3599724,32.9396977 63.6669693,33.2763949 C63.9739973,33.6131544 64.3379666,33.8780602 64.758877,34.0711436 C65.1797875,34.2642892 65.6377766,34.360862 66.1330002,34.360862 C66.7667942,34.360862 67.3115183,34.23957 67.7670791,33.9969239 C68.2226711,33.7542466 68.6732818,33.42499 69.1189114,33.0089985 L70.2925106,34.1974478 C70.0251453,34.4846756 69.745327,34.7397125 69.4531803,34.9624961 C69.1610647,35.1853421 68.8466272,35.3784877 68.5098677,35.5418395 C68.1731394,35.7052848 67.8042201,35.8290984 67.4031099,35.9132494 C67.0019997,35.9974626 66.5588295,36.0395225 66.0735684,36.0395225 L66.0735684,36.0395225 Z M72.2088673,25.4624665 L74.0361229,25.4624665 L74.0361229,29.78536 L78.9978538,29.78536 L78.9978538,25.4624665 L80.8250472,25.4624665 L80.8250472,35.8612582 L78.9978538,35.8612582 L78.9978538,31.4789019 L74.0361229,31.4789019 L74.0361229,35.8612582 L72.2088673,35.8612582 L72.2088673,25.4624665 Z M83.4990116,25.4624665 L91.209051,25.4624665 L91.209051,27.0965144 L85.3262672,27.0965144 L85.3262672,29.8002413 L90.5405132,29.8002413 L90.5405132,31.4343514 L85.3262672,31.4343514 L85.3262672,34.2271482 L91.2833018,34.2271482 L91.2833018,35.8612582 L83.4990116,35.8612582 L83.4990116,25.4624665 Z M98.280253,36.0395225 C97.5176642,36.0395225 96.814476,35.9008898 96.1707819,35.6235933 C95.5270255,35.3462345 94.9699418,34.9674773 94.4994997,34.4871351 C94.0290887,34.006824 93.6602005,33.439809 93.392773,32.7861526 C93.1253765,32.1325583 92.9916628,31.4343514 92.9916628,30.6915627 L92.9916628,30.6618624 C92.9916628,29.9190738 93.1229171,29.2233262 93.3853946,28.574651 C93.6477787,27.9259757 94.0167291,27.3565324 94.492059,26.86629 C94.9674824,26.3760477 95.5319444,25.9897876 96.1856009,25.7075722 C96.8392574,25.4252944 97.5621835,25.28414 98.3545039,25.28414 C98.8298961,25.28414 99.2631661,25.3237404 99.6543762,25.4029725 C100.045586,25.4822668 100.404543,25.5936586 100.731403,25.7372725 C101.058231,25.8808553 101.360278,26.05171 101.637574,26.2497745 C101.914871,26.4478391 102.177317,26.6657038 102.424913,26.9033688 L101.251345,28.2552322 C100.835354,27.8690033 100.394643,27.5570252 99.9292133,27.3193603 C99.46369,27.0816953 98.9338472,26.9628628 98.3396848,26.9628628 C97.8444613,26.9628628 97.3864721,27.0593734 96.9655617,27.252519 C96.5446512,27.4456334 96.180682,27.7081109 95.8736229,28.039827 C95.566626,28.3716053 95.328961,28.7603559 95.1605968,29.2059855 C94.9922015,29.6516773 94.9080506,30.1270384 94.9080506,30.6321621 L94.9080506,30.6618624 C94.9080506,31.1669238 94.9922015,31.6447754 95.1605968,32.0954174 C95.328961,32.5460281 95.566626,32.9396977 95.8736229,33.2763949 C96.180682,33.6131544 96.5446512,33.8780602 96.9655617,34.0711436 C97.3864721,34.2642892 97.8444613,34.360862 98.3396848,34.360862 C98.9734788,34.360862 99.5182029,34.23957 99.9737326,33.9969239 C100.429356,33.7542466 100.879967,33.42499 101.325596,33.0089985 L102.499195,34.1974478 C102.23183,34.4846756 101.952012,34.7397125 101.659834,34.9624961 C101.367718,35.1853421 101.053281,35.3784877 100.716521,35.5418395 C100.379824,35.7052848 100.010905,35.8290984 99.6097945,35.9132494 C99.2086843,35.9974626 98.7655142,36.0395225 98.280253,36.0395225 L98.280253,36.0395225 Z M104.415521,25.4624665 L106.242808,25.4624665 L106.242808,30.6915627 L111.189657,25.4624665 L113.432842,25.4624665 L109.109886,29.9339551 L113.625988,35.8612582 L111.412503,35.8612582 L107.862036,31.1818051 L106.242808,32.8455844 L106.242808,35.8612582 L104.415521,35.8612582 L104.415521,25.4624665 L104.415521,25.4624665 Z M119.449277,36.0247035 C118.775821,36.0247035 118.166746,35.9281307 117.622084,35.7349851 C117.07736,35.5418395 116.611899,35.2521834 116.225639,34.8659233 C115.83941,34.4796944 115.542313,34.0018428 115.334286,33.4323684 C115.126322,32.8629251 115.022371,32.2018903 115.022371,31.4491704 L115.022371,25.4624665 L116.849564,25.4624665 L116.849564,31.3748884 C116.849564,32.3454419 117.082341,33.0833116 117.547771,33.588373 C118.013263,34.0934655 118.656988,34.3459807 119.478978,34.3459807 C120.291098,34.3459807 120.929873,34.1033968 121.395397,33.6180733 C121.860826,33.1328122 122.093573,32.4098549 122.093573,31.4491704 L122.093573,25.4624665 L123.920797,25.4624665 L123.920797,31.3600694 C123.920797,32.1325583 123.814324,32.810934 123.601409,33.3952897 C123.388464,33.979552 123.088876,34.4673349 122.702647,34.858545 C122.316418,35.2497239 121.848467,35.5418395 121.298824,35.7349851 C120.74915,35.9281307 120.132665,36.0247035 119.449277,36.0247035 L119.449277,36.0247035 Z M130.382924,30.869827 C131.076181,30.869827 131.623396,30.6964817 132.024475,30.3498843 C132.425585,30.003287 132.626109,29.557564 132.626109,29.0129022 L132.626109,28.9832018 C132.626109,28.3691458 132.423063,27.9061754 132.017034,27.5941974 C131.611005,27.2822193 131.066281,27.1262147 130.382924,27.1262147 L128.258634,27.1262147 L128.258634,30.869827 L130.382924,30.869827 L130.382924,30.869827 Z M126.431347,25.4624665 L130.531457,25.4624665 C131.135613,25.4624665 131.682797,25.5441269 132.173039,25.7075722 C132.66325,25.870924 133.079179,26.1061607 133.420889,26.4131575 C133.762567,26.7202167 134.025014,27.0866142 134.208197,27.5125059 C134.391442,27.9383352 134.483034,28.4136963 134.483034,28.9386202 L134.483034,28.9683205 C134.483034,29.5526451 134.374102,30.0651471 134.156237,30.5058578 C133.938372,30.9465996 133.641275,31.3154566 133.264884,31.6126156 C132.888587,31.9097124 132.447845,32.1350178 131.942752,32.2885318 C131.437691,32.4420147 130.897948,32.5187873 130.323492,32.5187873 L128.258634,32.5187873 L128.258634,35.8612582 L126.431347,35.8612582 L126.431347,25.4624665 L126.431347,25.4624665 Z" id="Shape"></path>
                        <path d="M49.9220642,0 L49.9220642,0 C50.7644143,0 51.4535306,0.689116317 51.4535306,1.53149758 L51.4535306,4.65741139 L54.5794444,4.65741139 C55.4218257,4.65741139 56.110942,5.3465277 56.110942,6.18890897 L56.110942,6.18890897 C56.110942,7.0312591 55.4218257,7.72037542 54.5794444,7.72037542 L51.4535306,7.72037542 L51.4535306,10.8462892 C51.4535306,11.6886705 50.7644143,12.3777868 49.9220642,12.3777868 L49.9220642,12.3777868 C49.0796829,12.3777868 48.3905666,11.6886705 48.3905666,10.8462892 L48.3905666,7.72037542 L45.2646528,7.72037542 C44.4222715,7.72037542 43.7331552,7.0312591 43.7331552,6.18890897 L43.7331552,6.18890897 C43.7331552,5.3465277 44.4222715,4.65741139 45.2646528,4.65741139 L48.3905666,4.65741139 L48.3905666,1.53149758 C48.3905666,0.689116317 49.0796829,0 49.9220642,0 Z" id="Path"></path>
                        <path d="M8.52122603,7.00666448 C8.20828285,5.32327178 9.0670709,4.65414248 10.3992898,4.65414248 L27.2623257,4.65414248 C28.4345239,4.65414248 29.0550555,5.41511245 28.8257651,6.60007496 L32.0095852,6.60007496 C31.7802949,5.41511245 32.4009821,4.65414248 33.5731804,4.65414248 L41.505412,4.65414248 C41.3309147,5.13632154 41.2354315,5.65579725 41.2354315,6.19694114 C41.2354315,6.75972206 41.338511,7.29909139 41.5266132,7.79742818 L35.6489351,7.79742818 L38.416608,16.317907 L47.391776,16.317907 L47.7719341,14.3197655 C48.4335605,14.695098 49.1972389,14.9099741 50.0096086,14.9099741 C50.300043,14.9099741 50.5842509,14.8821728 50.8598041,14.8297769 L50.2780635,17.9587417 C50.0652733,19.1033877 49.3754721,19.4611927 48.1232324,19.4611927 L37.7839971,19.4611927 C36.4542999,19.4611927 36.0126552,19.0448899 35.629166,17.8598962 L33.0066324,9.75659194 L27.8288736,9.75659194 L25.2063401,17.8598962 C24.8228508,19.0448899 24.3812062,19.4611927 23.051509,19.4611927 L12.7122736,19.4611927 C11.4600339,19.4611927 10.7702327,19.1033877 10.5574425,17.9587417 L8.52122603,7.00666448 L8.52122603,7.00666448 Z M43.053939,9.5537953 C42.1289011,9.5537953 41.3744378,10.6477577 41.3744378,11.9890362 C41.3744378,13.3303457 42.1289011,14.4243082 43.053939,14.4243082 C43.9789457,14.4243082 44.733409,13.3303457 44.733409,11.9890362 C44.733409,10.6477577 43.9789457,9.5537953 43.053939,9.5537953 Z M17.7813803,9.5537953 C18.7064181,9.5537953 19.4608814,10.6477577 19.4608814,11.9890362 C19.4608814,13.3303457 18.7064181,14.4243082 17.7813803,14.4243082 C16.8563735,14.4243082 16.1019102,13.3303457 16.1019102,11.9890362 C16.1019102,10.6477577 16.8563735,9.5537953 17.7813803,9.5537953 Z M11.8225711,7.79742818 L25.1864776,7.79742818 L22.4188046,16.317907 L13.4436366,16.317907 L11.8225711,7.79742818 Z" id="Shape"></path>
                    </g>
                </g>
            </g>
        </g>
    </g>
</svg>