<?xml version="1.0" encoding="UTF-8" standalone="no"?>
<!DOCTYPE svg PUBLIC "-//W3C//DTD SVG 1.1//EN" "http://www.w3.org/Graphics/SVG/1.1/DTD/svg11.dtd">
<svg width="1731px" height="405px" viewBox="0 0 1731 405" version="1.1" xmlns="http://www.w3.org/2000/svg" xmlns:xlink="http://www.w3.org/1999/xlink" xml:space="preserve" xmlns:serif="http://www.serif.com/" style="fill-rule:evenodd;clip-rule:evenodd;stroke-linejoin:round;stroke-miterlimit:2;">
    <g transform="matrix(1,0,0,1,-84.5542,-82.9921)">
        <g transform="matrix(4.16667,0,0,4.16667,0,0)">
            <g transform="matrix(1,0,0,1,161.57,42.2992)">
                <path d="M0,52.946L0,30.607L-19.636,30.607L-19.636,52.946L-29.652,52.946L-29.652,0L-19.636,0L-19.636,21.783L0,21.783L0,0L10.017,0L10.017,52.946L0,52.946Z" style="fill-rule:nonzero;"/>
            </g>
        </g>
        <g transform="matrix(4.16667,0,0,4.16667,0,0)">
            <g transform="matrix(1,0,0,1,198.537,71.1563)">
                <path d="M0,9.462L-7.154,9.462C-10.335,9.462 -11.209,10.336 -11.209,13.277C-11.209,15.981 -10.335,17.173 -7.313,17.173C-4.451,17.173 -1.828,16.219 0,15.186L0,9.462ZM9.699,24.089L1.749,24.089L1.034,21.466C-2.464,23.772 -6.598,24.884 -10.493,24.884C-17.569,24.884 -20.59,20.035 -20.59,13.357C-20.59,5.486 -17.171,2.466 -9.301,2.466L0,2.466L0,-1.589C0,-5.882 -1.192,-7.392 -7.394,-7.392C-10.891,-7.392 -14.707,-6.915 -18.125,-6.2L-19.317,-13.593C-15.661,-14.706 -10.335,-15.422 -6.042,-15.422C6.122,-15.422 9.699,-11.129 9.699,-1.43L9.699,24.089Z" style="fill-rule:nonzero;"/>
            </g>
        </g>
        <g transform="matrix(4.16667,0,0,4.16667,0,0)">
            <g transform="matrix(1,0,0,1,226.998,55.7341)">
                <path d="M0,40.306C-4.134,40.306 -9.778,39.352 -13.355,38.08L-12.004,30.687C-8.745,31.641 -4.452,32.357 -0.477,32.357C3.816,32.357 4.452,31.403 4.452,28.461C4.452,26.077 3.975,24.884 -2.306,23.373C-11.766,21.068 -12.879,18.683 -12.879,11.21C-12.879,3.419 -9.46,0 1.59,0C5.167,0 9.857,0.477 13.196,1.352L12.243,9.064C9.302,8.507 4.611,7.951 1.59,7.951C-2.623,7.951 -3.339,8.905 -3.339,11.289C-3.339,14.39 -3.101,14.628 2.146,15.98C12.958,18.842 13.992,20.273 13.992,28.223C13.992,35.696 11.687,40.306 0,40.306" style="fill-rule:nonzero;"/>
            </g>
        </g>
        <g transform="matrix(4.16667,0,0,4.16667,0,0)">
            <g transform="matrix(1,0,0,1,269.848,39.3582)">
                <path d="M0,55.887L0,28.858C0,26.791 -0.874,25.757 -3.101,25.757C-5.485,25.757 -9.698,27.189 -13.196,29.017L-13.196,55.887L-22.896,55.887L-22.896,1.351L-13.196,0L-13.196,20.113C-8.903,17.887 -3.18,16.376 0.954,16.376C7.394,16.376 9.699,20.908 9.699,27.825L9.699,55.887L0,55.887Z" style="fill-rule:nonzero;"/>
            </g>
        </g>
        <g transform="matrix(4.16667,0,0,4.16667,0,0)">
            <g transform="matrix(1,0,0,1,0,-1.834)">
                <path d="M286.702,58.363L296.4,58.363L296.4,97.079L286.702,97.079L286.702,58.363ZM286.702,41.669L296.4,41.669L296.4,52.878L286.702,52.878L286.702,41.669Z" style="fill-rule:nonzero;"/>
            </g>
        </g>
        <g transform="matrix(4.16667,0,0,4.16667,0,0)">
            <g transform="matrix(1,0,0,1,303.158,80.6968)">
                <path d="M0,-23.849C0,-33.548 5.644,-39.192 18.841,-39.192C23.77,-39.192 28.857,-38.557 33.229,-37.443L32.117,-28.778C27.824,-29.573 22.815,-30.13 19.159,-30.13C12.242,-30.13 10.017,-27.745 10.017,-22.1L10.017,-1.748C10.017,3.896 12.242,6.281 19.159,6.281C22.815,6.281 27.824,5.724 32.117,4.929L33.229,13.594C28.857,14.708 23.77,15.343 18.841,15.343C5.644,15.343 0,9.699 0,0.001L0,-23.849Z" style="fill-rule:nonzero;"/>
            </g>
        </g>
        <g transform="matrix(4.16667,0,0,4.16667,0,0)">
            <g transform="matrix(1,0,0,1,356.264,87.771)">
                <path d="M0,-23.768C-5.168,-23.768 -7.155,-21.463 -7.155,-17.09L-7.155,-6.676C-7.155,-2.304 -5.168,0.002 0,0.002C5.167,0.002 7.154,-2.304 7.154,-6.676L7.154,-17.09C7.154,-21.463 5.167,-23.768 0,-23.768M0,8.269C-13.276,8.269 -16.854,0.956 -16.854,-6.995L-16.854,-16.773C-16.854,-24.722 -13.276,-32.037 0,-32.037C13.276,-32.037 16.854,-24.722 16.854,-16.773L16.854,-6.995C16.854,0.956 13.276,8.269 0,8.269" style="fill-rule:nonzero;"/>
            </g>
        </g>
        <g transform="matrix(4.16667,0,0,4.16667,0,0)">
            <g transform="matrix(1,0,0,1,398.875,86.3408)">
                <path d="M0,-21.702C-3.736,-20.033 -6.758,-18.284 -10.256,-16.057L-10.256,8.904L-19.954,8.904L-19.954,-29.811L-11.766,-29.811L-11.13,-25.518C-8.983,-26.949 -4.373,-29.652 -0.954,-30.606L0,-21.702Z" style="fill-rule:nonzero;"/>
            </g>
        </g>
        <g transform="matrix(4.16667,0,0,4.16667,0,0)">
            <g transform="matrix(1,0,0,1,412.515,81.2534)">
                <path d="M0,5.486C2.544,6.043 5.804,6.519 8.586,6.519C12.084,6.519 13.436,4.85 13.436,1.352L13.436,-12.322C13.436,-15.501 12.243,-17.25 8.666,-17.25C5.485,-17.25 2.067,-15.66 0,-13.753L0,5.486ZM23.134,1.113C23.134,9.699 19.318,14.787 10.335,14.787C6.917,14.787 3.021,14.31 0,13.674L0,29.653L-9.698,31.005L-9.698,-24.724L-1.987,-24.724L-1.033,-21.464C2.385,-23.929 6.36,-25.519 11.21,-25.519C19,-25.519 23.134,-20.908 23.134,-12.083L23.134,1.113Z" style="fill-rule:nonzero;"/>
            </g>
        </g>
        <g transform="matrix(4.16667,0,0,4.16667,0,0)">
            <g transform="matrix(1,0,0,1,58.508,103.206)">
                <path d="M0,-83.288L-38.215,-61.242L-38.215,-8.289L-23.857,0L-23.857,-52.953L0,-66.726L0,-83.288Z" style="fill-rule:nonzero;"/>
            </g>
        </g>
        <g transform="matrix(4.16667,0,0,4.16667,0,0)">
            <g transform="matrix(1,0,0,1,73.7639,116.981)">
                <path d="M0,-97.063L0,-54.89L-15.256,-54.89L-15.256,-70.63L-29.613,-62.341L-29.613,-8.31L-15.256,0L-15.256,-42.053L0,-42.053L0,-26.417L14.357,-34.708L14.357,-88.773L0,-97.063Z" style="fill-rule:nonzero;"/>
            </g>
        </g>
        <g transform="matrix(4.16667,0,0,4.16667,0,0)">
            <g transform="matrix(1,0,0,1,73.7639,33.7072)">
                <path d="M0,83.289L38.215,61.243L38.215,8.29L23.857,0L23.857,52.953L0,66.727L0,83.289Z" style="fill-rule:nonzero;"/>
            </g>
        </g>
    </g>
</svg>
