<?xml version="1.0" encoding="UTF-8"?>
<svg width="120px" height="43px" viewBox="0 0 120 43" version="1.1" xmlns="http://www.w3.org/2000/svg" xmlns:xlink="http://www.w3.org/1999/xlink">
    <title>Kloeckner-i</title>
    <g id="Symbols" stroke="none" stroke-width="1" fill="none" fill-rule="evenodd">
        <g id="2021-/-sponsor-grid" transform="translate(-969.000000, -93.000000)" fill="#000000" fill-rule="nonzero">
            <g id="sponsors" transform="translate(0.000000, 1.070008)">
                <g id="row-2" transform="translate(0.000000, 72.929992)">
                    <g id="Kloeckner-i" transform="translate(969.000000, 19.000000)">
                        <path d="M120,9.40273973 L120,42.1150685 L0,42.1150685 L0,9.40273973 L6.476,9.402 L6.47671233,28.8986301 L113.917808,28.8986301 L113.917,9.402 L120,9.40273973 Z" id="Combined-Shape"></path>
                        <path d="M113.917808,-1.70530257e-13 L113.917808,28.8986301 L6.47671233,28.8986301 L6.47671233,-1.70530257e-13 L113.917808,-1.70530257e-13 Z M46.3890411,10.6191781 C43.660274,10.6191781 42.1150685,12.7561644 42.1150685,15.5835616 C42.1150685,18.1479452 43.4958904,20.5150685 46.9808219,20.5479452 C48.1643836,20.5479452 49.3150685,20.2520548 50.3342466,19.660274 L50.3342466,19.660274 L49.6109589,18.0164384 C48.8876712,18.4109589 48.0657534,18.6410959 47.2109589,18.6410959 C45.6328767,18.6410959 44.5808219,17.6876712 44.5479452,16.2410959 L44.5479452,16.2410959 L50.5972603,16.2410959 L50.5972603,15.6821918 C50.5972603,12.5260274 49.0520548,10.6191781 46.3890411,10.6191781 Z M85.3150685,10.6191781 C82.5863014,10.6191781 81.0410959,12.7561644 81.0410959,15.5835616 C81.0410959,18.1479452 82.4219178,20.5150685 85.9068493,20.5479452 C87.090411,20.5479452 88.2410959,20.2520548 89.260274,19.660274 L89.260274,19.660274 L88.5369863,18.0164384 C87.8136986,18.4109589 86.9917808,18.6410959 86.1369863,18.6410959 C84.5589041,18.6410959 83.5068493,17.6876712 83.4739726,16.2410959 L83.4739726,16.2410959 L89.5232877,16.2410959 L89.5232877,15.6821918 C89.5232877,12.5260274 87.9780822,10.6191781 85.3150685,10.6191781 Z M36.1315068,10.6191781 C33.3041096,10.6191781 31.3972603,12.7232877 31.3972603,15.5506849 C31.3972603,18.4109589 33.3041096,20.5150685 36.1315068,20.5150685 C38.9589041,20.5150685 40.8657534,18.3780822 40.8657534,15.5506849 C40.8657534,12.7232877 38.9589041,10.6191781 36.1315068,10.6191781 Z M57.1100055,10.6171397 L56.8438356,10.6191781 L56.8438356,10.6191781 L56.5808219,10.6191781 C53.8849315,10.6849315 51.7479452,12.9534247 51.8465753,15.6493151 C51.8465753,18.4109589 53.5561644,20.5150685 56.6136986,20.4821918 C57.7643836,20.4821918 58.9150685,20.1863014 59.8684932,19.5616438 L59.8684932,19.5616438 L59.1780822,17.9178082 C58.5205479,18.3123288 57.7643836,18.5424658 56.9753425,18.5424658 C55.3315068,18.5424658 54.2794521,17.490411 54.2794521,15.5506849 C54.2794521,13.8082192 55.2986301,12.4931507 57.0739726,12.4931507 C57.8958904,12.4931507 58.7178082,12.7561644 59.3753425,13.2493151 L59.3753425,13.2493151 L59.3753425,11.2438356 C58.6191781,10.8164384 57.7315068,10.5863014 56.8438356,10.6191781 Z M98.8931507,17.8191781 C98.169863,17.7863014 97.5452055,18.3780822 97.5123288,19.1013699 L97.5123288,19.1013699 L97.5183848,19.2384844 C97.5825188,19.9579845 98.1485898,20.4821918 98.860274,20.4821918 C99.5835616,20.4821918 100.142466,19.9232877 100.175342,19.2 C100.208219,18.4767123 99.6164384,17.8520548 98.8931507,17.8191781 Z M28.7013699,6.14794521 L26.3342466,6.14794521 L26.3013699,18.1479452 C26.3013699,19.6273973 27.090411,20.4164384 28.6684932,20.4164384 C29.2931507,20.4164384 29.8849315,20.3178082 30.4438356,20.0876712 L30.4438356,20.0876712 L29.9835616,18.2465753 C29.7863014,18.3452055 29.5890411,18.3780822 29.3917808,18.3780822 C28.9643836,18.3780822 28.7013699,18.1808219 28.7013699,17.5232877 L28.7013699,17.5232877 L28.7013699,6.14794521 Z M18.969863,6.14794521 L16.6027397,6.14794521 L16.6027397,20.3178082 L18.969863,20.3178082 L18.969863,15.9452055 L19.0027397,15.9452055 L22.3561644,20.3178082 L25.1506849,20.3178082 L20.9424658,14.9917808 L24.8219178,10.8493151 L22.0931507,10.8493151 L19.0027397,14.1369863 L18.969863,14.1369863 L18.969863,6.14794521 Z M104.712329,10.8493151 L102.312329,10.8493151 L102.312329,20.3178082 L104.712329,20.3178082 L104.712329,10.8493151 Z M63.5835616,6.14794521 L61.2164384,6.14794521 L61.2164384,20.2849315 L63.5835616,20.2849315 L63.5835616,15.9123288 L63.6164384,15.9123288 L66.969863,20.2849315 L69.7643836,20.2849315 L65.5561644,14.9589041 L69.4356164,10.8493151 L66.7068493,10.8493151 L63.6164384,14.1369863 L63.5835616,14.1369863 L63.5835616,6.14794521 Z M76.339726,10.5863014 C75.1561644,10.5863014 74.0712329,11.1123288 73.0849315,11.9013699 L73.0849315,11.9013699 L72.8547945,10.8493151 L70.8164384,10.8493151 L70.8164384,20.2849315 L73.1835616,20.2849315 L73.1835616,13.6767123 C73.8410959,13.1178082 74.6630137,12.7561644 75.5178082,12.690411 C76.7342466,12.690411 76.9643836,13.6438356 76.9643836,14.7945205 L76.9643836,14.7945205 L76.9643836,20.2849315 L79.3643836,20.2849315 L79.3643836,14.0383562 C79.3643836,11.3424658 77.8520548,10.5863014 76.339726,10.5863014 Z M96.0657534,10.5863014 C95.1123288,10.5863014 94.3232877,11.0465753 93.4684932,11.9013699 L93.4684932,11.9013699 L93.2054795,10.8493151 L91.2,10.8493151 L91.2,20.2849315 L93.5671233,20.2849315 L93.5671233,13.6109589 C94.3232877,12.9205479 94.8493151,12.6575342 95.4739726,12.6575342 C95.8684932,12.6575342 96.230137,12.7890411 96.5589041,12.9863014 L96.5589041,12.9863014 L97.4136986,10.9808219 C97.0191781,10.7178082 96.5260274,10.5863014 96.0657534,10.5863014 Z M36.1315068,12.5260274 C37.6109589,12.5260274 38.4,13.8082192 38.4,15.5506849 C38.4,17.3260274 37.6109589,18.5753425 36.1315068,18.5753425 C34.6520548,18.5753425 33.8630137,17.3260274 33.8630137,15.5506849 C33.8630137,13.8082192 34.6520548,12.5260274 36.1315068,12.5260274 Z M46.3232877,12.4273973 C47.5726027,12.4273973 48.0986301,13.4794521 48.1315068,14.5643836 L48.1315068,14.5643836 L44.4821918,14.5643836 C44.4821918,13.4136986 45.139726,12.4273973 46.3232877,12.4273973 Z M85.2821918,12.4273973 C86.5315068,12.4273973 87.0575342,13.4794521 87.090411,14.5643836 L87.090411,14.5643836 L83.4410959,14.5643836 C83.4410959,13.4136986 84.0986301,12.4273973 85.2821918,12.4273973 Z M103.463014,6.37808219 C102.641096,6.4109589 102.016438,7.06849315 102.049315,7.89041096 L102.049315,7.89041096 L102.049315,7.95616438 C102.049315,8.71232877 102.706849,9.3369863 103.49589,9.30410959 L103.49589,9.30410959 L103.561644,9.30410959 C104.383562,9.27123288 105.008219,8.61369863 104.975342,7.79178082 C104.942466,6.96986301 104.284932,6.34520548 103.463014,6.37808219 Z" id="Combined-Shape"></path>
                    </g>
                </g>
            </g>
        </g>
    </g>
</svg>