<?xml version="1.0" encoding="UTF-8"?>
<svg width="120px" height="29px" viewBox="0 0 120 29" version="1.1" xmlns="http://www.w3.org/2000/svg" xmlns:xlink="http://www.w3.org/1999/xlink">
    <title>Linkfire</title>
    <g id="Symbols" stroke="none" stroke-width="1" fill="none" fill-rule="evenodd">
        <g id="2021-/-sponsor-grid" transform="translate(-856.000000, -401.000000)" fill="#000000" fill-rule="nonzero">
            <g id="sponsors" transform="translate(0.000000, 1.070008)">
                <g id="row-5" transform="translate(112.999765, 394.134753)">
                    <g id="Linkfire" transform="translate(743.000235, 5.986279)">
                        <path d="M42.33504,4.66656 L45.96864,4.66656 L45.96864,24.0768 L42.33504,24.0768 L42.33504,4.66656 Z M52.77408,24.07584 L49.1424,24.07584 L49.1424,10.61376 L52.77408,10.61376 L52.77408,24.07584 Z M52.77408,7.39008 L49.1424,7.39008 L49.1424,4.66464 L52.77408,4.66464 L52.77408,7.39008 Z M59.0832,10.61376 L59.24448,12.54144 C59.6928,11.85312 60.24384,11.3184 60.8976,10.93632 C61.55328,10.55424 62.28672,10.36416 63.1008,10.36416 C64.46112,10.36416 65.52192,10.79136 66.28608,11.64576 C67.04928,12.50016 67.4304,13.83936 67.4304,15.66432 L67.4304,24.07584 L63.78528,24.07584 L63.78528,15.65856 C63.78528,14.75136 63.60288,14.10912 63.23712,13.73088 C62.87136,13.35456 62.32032,13.16544 61.58208,13.16544 C61.10112,13.16544 60.67008,13.26336 60.28896,13.45728 C59.9076058,13.6535993 59.5787686,13.9383282 59.32992,14.28768 L59.32992,24.07776 L55.69824,24.07776 L55.69824,10.61376 L59.0832,10.61376 L59.0832,10.61376 Z M74.77248,18.43872 L73.77696,18.43872 L73.77696,24.07488 L70.14432,24.07488 L70.14432,4.66464 L73.77696,4.66464 L73.77696,15.67776 L74.67264,15.67776 L77.79552,10.61184 L82.00224,10.61184 L77.69664,16.70784 L82.6608,24.07488 L78.49248,24.07488 L74.77248,18.43872 Z M84.74016,24.07488 L84.74016,13.16448 L82.73664,13.16448 L82.73664,10.61184 L84.74016,10.61184 L84.74016,9.12 C84.74016,7.60992 85.17408,6.44736 86.0448,5.6304 C86.91552,4.81344 88.14048,4.40544 89.71584,4.40544 C90.024,4.40544 90.33792,4.42656 90.65568,4.4736 C90.97536,4.51776 91.32576,4.58304 91.70784,4.66656 L91.3968,7.36704 C91.2044322,7.33384129 91.0114356,7.3043957 90.81792,7.27872 C90.6013795,7.25190422 90.3833064,7.23939708 90.16512,7.24128 C89.57664,7.24128 89.12928,7.40256 88.82784,7.72704 C88.52448,8.0496 88.3728,8.5152 88.3728,9.12 L88.3728,10.61376 L91.04928,10.61376 L91.04928,13.16448 L88.3728,13.16448 L88.3728,24.07488 L84.74016,24.07488 Z M96.72,24.07584 L93.08832,24.07584 L93.08832,10.61376 L96.72,10.61376 L96.72,24.07584 Z M96.72,7.39008 L93.08832,7.39008 L93.08832,4.66464 L96.72,4.66464 L96.72,7.39008 Z" id="Shape"></path>
                        <g id="Group" transform="translate(99.708480, 10.362955)">
                            <path d="M7.07712,3.3717652 L5.74656,3.3343252 C5.208,3.3343252 4.76352,3.4466452 4.416,3.6722452 C4.06188152,3.90006618 3.78456437,4.22923394 3.62016,4.6168852 L3.62016,13.7119252 L0,13.7119252 L0,0.248885202 L3.37248,0.248885202 L3.53376,2.2399252 C3.84864,1.5352852 4.25568,0.986165202 4.75872,0.590645202 C5.25264968,0.200301809 5.86586524,-0.00817114056 6.49536,0.000245202172 C6.6768,0.000245202172 6.84576,0.0146452022 6.99936,0.0444052022 C7.15296,0.0722452022 7.30752,0.107765202 7.46592,0.150005202 L7.07712,3.3717652 L7.07712,3.3717652 Z M14.55552,2.7996052 C13.88352,2.7996052 13.35168,3.0568852 12.96288,3.5704852 C12.57216,4.0860052 12.3312,4.7608852 12.24192,5.5989652 L12.27936,5.6623252 L16.7328,5.6623252 L16.7328,5.3378452 C16.7328,4.5660052 16.55328,3.9496852 16.19136,3.4898452 C15.83136,3.0319252 15.28512,2.7996052 14.55552,2.7996052 M14.87904,13.9730452 C12.93888,13.9730452 11.38752,13.3519252 10.22592,12.1068052 C9.06336,10.8626452 8.48448,9.2834452 8.48448,7.3663252 L8.48448,6.8690452 C8.48448,4.8712852 9.0336,3.2220052 10.13376,1.9288852 C11.23296,0.635765202 12.70656,-0.00647479783 14.55648,0.00113713738 C16.37376,0.00113713738 17.78208,0.549365202 18.7872,1.6437652 C19.7904,2.7381652 20.29248,4.2184852 20.29248,6.0856852 L20.29248,8.0642452 L12.25536,8.0642452 L12.22944,8.1372052 C12.29664,9.0213652 12.59328,9.7480852 13.12032,10.3173652 C13.64544,10.8885652 14.3616,11.1736852 15.26592,11.1736852 C16.0704,11.1736852 16.73856,11.0920852 17.26848,10.9308052 C17.8734283,10.7355429 18.4569185,10.4791803 19.00992,10.1656852 L19.99296,12.4120852 C19.4448,12.8604052 18.72672,13.2338452 17.83968,13.5304852 C16.9536,13.8261652 15.96672,13.9730452 14.87904,13.9730452" id="Shape"></path>
                        </g>
                        <g id="Group">
                            <path d="M33.76224,-7.10542736e-14 C33.894782,0.000736004346 34.0141212,0.0804213541 34.0656,0.20256 C34.113766,0.323871286 34.0854987,0.462192293 33.9936,0.55488 L33.9936,0.55488 L29.83584,4.31904 C29.7421991,4.41157971 29.7137544,4.5515276 29.76384,4.67328 C29.8162895,4.79408361 29.9355017,4.87217514 30.0672,4.872 L30.0672,4.872 L32.49984,4.872 C32.6009992,4.87269204 32.696363,4.91931438 32.75904,4.99872 C32.8211042,5.07796261 32.8427499,5.181578 32.8176,5.27904 L32.8176,5.27904 L32.68896,5.76864 L32.63232,5.9856 C30.8352,12.79776 28.52832,20.27616 24.432,24.25056 C21.83424,26.83104 18.28512,28.41792 14.31552,28.41792 C6.40896,28.41792 -2.62900812e-13,22.05408 -2.62900812e-13,14.20992 C-2.62900812e-13,6.36192 6.40896,-7.10542736e-14 14.31552,-7.10542736e-14 L14.31552,-7.10542736e-14 Z M16.22976,10.69248 L10.76256,10.69248 C9.4427259,10.695124 8.37374433,11.7649642 8.37216,13.0848 L8.37216,18.54912 C8.37321876,19.8688627 9.44281734,20.9384612 10.76256,20.93952 L16.22976,20.93952 C17.5502524,20.93952 18.6210202,19.869612 18.62208,18.54912 L18.62208,17.5248 L16.57248,17.5248 L16.57248,18.55104 C16.5698767,18.7389166 16.4176482,18.8902922 16.22976,18.89184 L10.76256,18.89184 C10.5761713,18.8882326 10.4262343,18.7374461 10.42368,18.55104 L10.42368,13.0848 C10.42368,12.8976 10.5792,12.74208 10.76256,12.74208 L16.22976,12.74208 C16.4183868,12.7436454 16.5709146,12.8961732 16.57248,13.0848 L16.57248,14.1072 L18.62208,14.1072 L18.62208,13.0848 C18.6210212,11.7639969 17.5505631,10.6935388 16.22976,10.69248 Z M20.32992,6.59232 L14.86176,6.59232 C13.5419885,6.59548863 12.4730389,7.66486731 12.4704,8.98464 L12.4704,10.00896 L14.52,10.00896 L14.52,8.98464 C14.52,8.80032 14.6784,8.64192 14.86176,8.64192 L20.32992,8.64192 C20.5152,8.64192 20.67168,8.80032 20.67168,8.98464 L20.67168,14.44992 C20.6701227,14.6381769 20.5181718,14.7905546 20.32992,14.79264 L14.86176,14.79264 C14.6743578,14.7885541 14.5235602,14.6373329 14.52,14.44992 L14.52,13.4256 L12.4704,13.4256 L12.4704,14.44992 C12.4719857,15.7701298 13.541551,16.8401244 14.86176,16.84224 L20.32992,16.84224 C21.6501925,16.8406513 22.7197914,15.7701933 22.72032,14.44992 L22.72032,8.98464 C22.7197914,7.66436667 21.6501925,6.59390867 20.32992,6.59232 Z" id="Combined-Shape"></path>
                        </g>
                    </g>
                </g>
            </g>
        </g>
    </g>
</svg>