<?xml version="1.0" encoding="UTF-8"?>
<svg width="120px" height="45px" viewBox="0 0 120 45" version="1.1" xmlns="http://www.w3.org/2000/svg" xmlns:xlink="http://www.w3.org/1999/xlink">
    <title>peopledoc</title>
    <g id="Symbols" stroke="none" stroke-width="1" fill="none" fill-rule="evenodd">
        <g id="2021-/-sponsor-grid" transform="translate(-485.000000, -187.000000)" fill="#000000" fill-rule="nonzero">
            <g id="sponsors" transform="translate(0.000000, 1.070008)">
                <g id="row-3" transform="translate(112.000000, 186.074556)">
                    <g id="peopledoc" transform="translate(373.087912, 0.000000)">
                        <g id="Group">
                            <path d="M111.85348,8.36825623 C111.809524,3.48913535 108.717949,0.382908247 103.589744,0.0605639243 C102.446886,-0.012696149 98.959707,-0.0273481636 96.6739927,0.0605639243 C95.3406593,0.104519968 93.978022,1.27668114 91.2380952,3.69426356 C90.9010989,3.98730385 90.5641026,4.29499616 90.2124542,4.60268847 C89.0549451,5.61367748 87.985348,6.62466649 87.1941392,7.45983132 C85.8901099,8.8371207 85.4505495,9.55506942 85.4798535,10.3462782 C85.4945055,11.0642269 85.4945055,12.9836408 85.4798535,15.0056189 C85.4798535,16.0605639 85.4798535,17.130161 85.4798535,18.0825419 C85.4798535,19.8114797 86.2271062,21.8188057 87.4725275,23.4305273 C88.9084249,25.3059852 90.7399267,26.3609302 92.6153846,26.4048863 L92.7032967,23.166791 C90.7838828,23.122835 88.7179487,20.133824 88.7179487,18.0678899 C88.7179487,17.130161 88.7179487,16.0459119 88.7179487,15.0056189 C88.7179487,13.6869376 88.7326007,12.4122123 88.7179487,11.4744833 L96.7032967,11.4744833 L96.7032967,3.38657125 C96.7765568,3.34261521 96.8351648,3.31331118 96.8791209,3.29865916 C99.1648352,3.22539909 102.417582,3.2400511 103.369963,3.29865916 C106.813187,3.51843938 108.571429,5.2327251 108.600733,8.41221228 C108.600733,8.7345566 108.586081,9.14481301 108.586081,9.52576539 C108.571429,9.89206576 108.571429,10.2730181 108.571429,10.6100145 L111.809524,10.6100145 C111.809524,10.3023222 111.824176,9.95067381 111.824176,9.59902546 C111.838828,9.17411704 111.85348,8.74920861 111.85348,8.36825623 Z" id="Path"></path>
                            <path d="M7.54578755,10.6393185 C5.65567766,10.6393185 4.13186813,11.5330914 2.97435897,13.3059852 L2.97435897,10.8444467 L0,10.8444467 L0,30.0532379 L2.95970696,30.0532379 L2.95970696,22.8004907 C4.36630037,24.3536042 5.96336996,25.130161 7.73626374,25.130161 C9.50915751,25.130161 11.0622711,24.4561683 12.3956044,23.093531 C13.7289377,21.7308936 14.3882784,19.9726518 14.3882784,17.8041537 C14.3882784,15.6356555 13.7142857,13.8920658 12.3809524,12.5880365 C11.047619,11.2840071 9.43589744,10.6393185 7.54578755,10.6393185 Z M10.1391941,21.2180731 C9.27472527,22.0678899 8.26373626,22.4927984 7.09157509,22.4927984 C5.93406593,22.4927984 4.93772894,22.0678899 4.13186813,21.2034211 C3.32600733,20.3536042 2.91575092,19.2547031 2.91575092,17.9067178 C2.91575092,16.5733844 3.32600733,15.4451793 4.13186813,14.5660584 C4.93772894,13.6722855 5.93406593,13.2327251 7.12087912,13.2327251 C8.30769231,13.2327251 9.31868132,13.6722855 10.1684982,14.5660584 C11.018315,15.4598313 11.4432234,16.5733844 11.4432234,17.9213698 C11.4285714,19.2693551 11.003663,20.3682562 10.1391941,21.2180731 Z" id="Shape"></path>
                            <path d="M28.9230769,16.3975603 C28.9084249,14.6832745 28.2637363,13.2913332 26.989011,12.2363881 C25.7142857,11.166791 24.1172161,10.6393185 22.1978022,10.6393185 C20.981685,10.6393185 19.8241758,10.9030548 18.7252747,11.4451793 C17.6263736,11.9873039 16.7179487,12.8224687 15.970696,13.9653258 C15.2234432,15.108183 14.8571429,16.4268643 14.8571429,17.9213698 C14.8571429,20.089868 15.5750916,21.8334577 16.996337,23.166791 C18.4322344,24.4854723 20.1318681,25.144813 22.1245421,25.144813 C24.3956044,25.144813 26.3736264,24.2803441 28.0586081,22.5514064 L26.3150183,20.6173405 C25.2893773,21.8481097 23.985348,22.4634943 22.4175824,22.4634943 C20.8351648,22.4634943 19.5897436,21.8920658 18.6666667,20.7638606 L28.9377289,16.4561683 L28.9230769,16.3975603 Z M17.7582418,18.4634943 C17.7435897,18.3609302 17.7289377,18.185106 17.7289377,17.9653258 C17.7289377,16.5147764 18.2124542,15.3865713 19.1648352,14.5807104 C20.1318681,13.7748496 21.1868132,13.3645932 22.3589744,13.3645932 C23.8974359,13.3645932 24.967033,13.9506738 25.5677656,15.108183 L17.7582418,18.4634943 Z" id="Shape"></path>
                            <path d="M36.4981685,10.6393185 C34.3882784,10.6393185 32.6153846,11.3426152 31.2087912,12.7492086 C29.8021978,14.155802 29.0989011,15.8700877 29.0989011,17.8920658 C29.0989011,19.9140438 29.8021978,21.6429815 31.2087912,23.0349229 C32.6153846,24.4415163 34.3882784,25.144813 36.4981685,25.144813 C38.6080586,25.144813 40.3809524,24.4415163 41.7875458,23.0349229 C43.1941392,21.6283295 43.8974359,19.9140438 43.8974359,17.8920658 C43.8974359,15.8700877 43.1941392,14.14115 41.7875458,12.7492086 C40.3809524,11.3279632 38.6080586,10.6393185 36.4981685,10.6393185 Z M39.6776557,21.2034211 C38.8424908,22.0532379 37.7728938,22.4927984 36.4835165,22.4927984 C35.1941392,22.4927984 34.1391941,22.0678899 33.2893773,21.2034211 C32.4542125,20.3536042 32.029304,19.2400511 32.029304,17.8774137 C32.029304,16.5147764 32.4542125,15.4158753 33.2893773,14.5514064 C34.1245421,13.7015896 35.1941392,13.2620291 36.4835165,13.2620291 C37.7728938,13.2620291 38.8278388,13.6869376 39.6776557,14.5514064 C40.5128205,15.4012233 40.9377289,16.5147764 40.9377289,17.8774137 C40.9377289,19.2400511 40.5274725,20.3536042 39.6776557,21.2034211 Z" id="Shape"></path>
                            <path d="M52.8205128,10.6393185 C50.9304029,10.6393185 49.4065934,11.5330914 48.2490842,13.3059852 L48.2490842,10.8444467 L45.2893773,10.8444467 L45.2893773,30.0532379 L48.2490842,30.0532379 L48.2490842,22.8004907 C49.6556777,24.3536042 51.2527473,25.130161 53.025641,25.130161 C54.7985348,25.130161 56.3516484,24.4561683 57.6849817,23.093531 C59.018315,21.7308936 59.6776557,19.9726518 59.6776557,17.8041537 C59.6776557,15.6356555 59.003663,13.8920658 57.6703297,12.5880365 C56.3223443,11.2840071 54.7106227,10.6393185 52.8205128,10.6393185 Z M55.4139194,21.2180731 C54.5494505,22.0678899 53.5384615,22.4927984 52.3663004,22.4927984 C51.2087912,22.4927984 50.2124542,22.0678899 49.4065934,21.2034211 C48.6007326,20.3536042 48.1904762,19.2547031 48.1904762,17.9067178 C48.1904762,16.5733844 48.6007326,15.4451793 49.4065934,14.5660584 C50.2124542,13.6722855 51.2087912,13.2327251 52.3956044,13.2327251 C53.5824176,13.2327251 54.5934066,13.6722855 55.4432234,14.5660584 C56.2930403,15.4598313 56.7179487,16.5733844 56.7179487,17.9213698 C56.7179487,19.2693551 56.2783883,20.3682562 55.4139194,21.2180731 Z" id="Shape"></path>
                            <path d="M65.4945055,22.4048863 C64.4395604,22.4048863 63.9120879,21.7015896 63.9120879,20.2949962 L63.9120879,6.41953828 L60.952381,6.41953828 L60.952381,20.6319925 C60.952381,22.111846 61.3333333,23.2400511 62.1098901,23.9873039 C62.8717949,24.7492086 63.8974359,25.130161 65.1721612,25.130161 C66.4468864,25.130161 67.4285714,24.7199046 68.1318681,23.9140438 L66.8424908,21.7455456 C66.5494505,22.185106 66.1098901,22.4048863 65.4945055,22.4048863 Z" id="Path"></path>
                            <path d="M81.3186813,16.3975603 C81.3040293,14.6832745 80.6593407,13.2913332 79.3846154,12.2363881 C78.1098901,11.166791 76.5128205,10.6393185 74.5934066,10.6393185 C73.3772894,10.6393185 72.2197802,10.9030548 71.1208791,11.4451793 C70.021978,11.9873039 69.1135531,12.8224687 68.3663004,13.9653258 C67.6190476,15.108183 67.2527473,16.4268643 67.2527473,17.9213698 C67.2527473,20.089868 67.970696,21.8334577 69.3919414,23.166791 C70.8278388,24.4854723 72.5274725,25.144813 74.5201465,25.144813 C76.7912088,25.144813 78.7692308,24.2803441 80.4542125,22.5514064 L78.7106227,20.6173405 C77.6849817,21.8481097 76.3809524,22.4634943 74.8131868,22.4634943 C73.2307692,22.4634943 71.985348,21.8920658 71.0622711,20.7638606 L81.3333333,16.4561683 L81.3186813,16.3975603 Z M70.1538462,18.4634943 C70.1391941,18.3609302 70.1245421,18.185106 70.1245421,17.9653258 C70.1245421,16.5147764 70.6080586,15.3865713 71.5604396,14.5807104 C72.5274725,13.7748496 73.5824176,13.3645932 74.7545788,13.3645932 C76.2930403,13.3645932 77.3626374,13.9506738 77.96337,15.108183 L70.1538462,18.4634943 Z" id="Shape"></path>
                        </g>
                        <g id="Group" transform="translate(40.263736, 26.639319)">
                            <path d="M11.1941392,6.97435897 C10.5787546,6.12454212 9.86080586,5.47985348 9.05494505,5.05494505 C8.24908425,4.63003663 7.34065934,4.41025641 6.32967033,4.41025641 C4.58608059,4.41025641 3.10622711,5.04029304 1.86080586,6.28571429 C0.63003663,7.53113553 0,9.04029304 0,10.7985348 C0,12.6007326 0.615384615,14.1245421 1.83150183,15.3846154 C3.06227106,16.6446886 4.52747253,17.2600733 6.27106227,17.2600733 C7.23809524,17.2600733 8.14652015,17.0549451 8.96703297,16.6593407 C9.78754579,16.2490842 10.5201465,15.6483516 11.1794872,14.8571429 L11.1794872,16.952381 L12.7326007,16.952381 L12.7326007,0 L11.1794872,0 L11.1794872,6.97435897 L11.1941392,6.97435897 Z M10.6813187,13.4065934 C10.2710623,14.1538462 9.67032967,14.7399267 8.90842491,15.1648352 C8.13186813,15.6043956 7.32600733,15.8095238 6.46153846,15.8095238 C5.61172161,15.8095238 4.80586081,15.5897436 4.05860806,15.1501832 C3.31135531,14.7106227 2.72527473,14.0952381 2.28571429,13.3186813 C1.84615385,12.5274725 1.62637363,11.7069597 1.62637363,10.8424908 C1.62637363,9.97802198 1.84615385,9.15750916 2.28571429,8.36630037 C2.72527473,7.58974359 3.31135531,6.98901099 4.05860806,6.54945055 C4.80586081,6.12454212 5.61172161,5.9047619 6.47619048,5.9047619 C7.83882784,5.9047619 8.98168498,6.37362637 9.91941392,7.32600733 C10.8571429,8.27838828 11.3113553,9.46520147 11.3113553,10.8717949 C11.2967033,11.8241758 11.0915751,12.6593407 10.6813187,13.4065934 Z" id="Shape"></path>
                            <path d="M20.3663004,4.41025641 C18.4761905,4.41025641 16.9084249,5.0989011 15.6776557,6.46153846 C14.5494505,7.70695971 13.992674,9.17216117 13.992674,10.8717949 C13.992674,12.5860806 14.5934066,14.0659341 15.7802198,15.3553114 C16.967033,16.6300366 18.5054945,17.2747253 20.3809524,17.2747253 C22.2564103,17.2747253 23.7802198,16.6300366 24.967033,15.3553114 C26.1538462,14.0805861 26.7545788,12.5860806 26.7545788,10.8717949 C26.7545788,9.17216117 26.1978022,7.69230769 25.0695971,6.46153846 C23.8241758,5.0989011 22.2564103,4.41025641 20.3663004,4.41025641 Z M24.5128205,13.3772894 C24.0879121,14.1391941 23.5018315,14.7252747 22.7692308,15.1501832 C22.03663,15.5604396 21.2454212,15.7802198 20.3663004,15.7802198 C19.4871795,15.7802198 18.6959707,15.5750916 17.96337,15.1501832 C17.2307692,14.7399267 16.6593407,14.1391941 16.2197802,13.3772894 C15.7948718,12.6153846 15.5750916,11.7948718 15.5750916,10.9010989 C15.5750916,9.52380952 16.043956,8.36630037 16.981685,7.3992674 C17.9194139,6.43223443 19.047619,5.94871795 20.3516484,5.94871795 C21.6556777,5.94871795 22.7692308,6.43223443 23.7216117,7.3992674 C24.6593407,8.36630037 25.1428571,9.53846154 25.1428571,10.9010989 C25.1428571,11.7948718 24.9377289,12.6153846 24.5128205,13.3772894 Z" id="Shape"></path>
                            <path d="M34.1538462,15.8241758 C33.1721612,15.8241758 32.2930403,15.6043956 31.5018315,15.1794872 C30.7106227,14.7399267 30.0952381,14.1391941 29.6410256,13.3479853 C29.1868132,12.5567766 28.967033,11.7216117 28.967033,10.8278388 C28.967033,9.46520147 29.4652015,8.29304029 30.4468864,7.34065934 C31.4285714,6.38827839 32.6739927,5.9047619 34.1538462,5.9047619 C36.014652,5.9047619 37.4945055,6.62271062 38.5641026,8.05860806 L39.8095238,7.28205128 C39.4432234,6.66666667 39.003663,6.16849817 38.4761905,5.75824176 C37.9487179,5.36263736 37.3186813,5.04029304 36.5567766,4.79120879 C35.8095238,4.54212454 35.018315,4.42490842 34.2124542,4.42490842 C32.9230769,4.42490842 31.7655678,4.7032967 30.7106227,5.27472527 C29.6703297,5.84615385 28.8498168,6.63736264 28.2490842,7.64835165 C27.6483516,8.65934066 27.3553114,9.75824176 27.3553114,10.9450549 C27.3553114,12.7032967 27.985348,14.1978022 29.2600733,15.4285714 C30.5347985,16.6593407 32.1318681,17.2747253 34.0659341,17.2747253 C35.3260073,17.2747253 36.4395604,17.025641 37.4358974,16.5421245 C38.4175824,16.0586081 39.2087912,15.3699634 39.7948718,14.4908425 L38.5494505,13.6703297 C37.4065934,15.1062271 35.9413919,15.8241758 34.1538462,15.8241758 Z" id="Path"></path>
                        </g>
                        <path d="M116.190476,16.9250328 C115.6337,16.4268643 115.091575,15.9726518 114.710623,15.6063515 C114.549451,15.4598313 114.373626,15.2840071 114.18315,15.093531 C112.732601,13.6576335 110.769231,11.6942636 108.571429,11.6942636 L102.681319,11.6942636 C98.2710623,11.6942636 94.6813187,15.2840071 94.6813187,19.7089156 L94.6813187,28.9250328 C94.6813187,33.3352892 98.2710623,36.9396848 102.681319,36.9396848 L111.897436,36.9396848 C116.307692,36.9396848 119.897593,33.3499412 119.897593,28.9250328 L119.897593,21.5257654 C119.912088,20.3096482 118.901099,19.2986592 116.190476,16.9250328 Z M115.92674,21.0422489 C115.619048,20.7638606 115.340659,20.5001244 115.076923,20.2656921 C115.369963,20.5294284 115.663004,20.7931647 115.92674,21.0422489 Z M111.912088,33.6869376 L102.695971,33.6869376 C100.058608,33.6869376 97.9194139,31.5477434 97.9194139,28.9103808 L97.9194139,19.6942636 C97.9194139,17.0569009 100.058608,14.9177068 102.695971,14.9177068 L108.586081,14.9177068 C108.761905,14.9177068 108.981685,14.9909669 109.216117,15.122835 L109.216117,22.185106 L116.688645,22.185106 L116.688645,28.9103808 C116.688645,31.5477434 114.549451,33.6869376 111.912088,33.6869376 Z" id="Shape"></path>
                    </g>
                </g>
            </g>
        </g>
    </g>
</svg>