<?xml version="1.0" encoding="UTF-8"?>
<svg width="143px" height="24px" viewBox="0 0 143 24" version="1.1" xmlns="http://www.w3.org/2000/svg" xmlns:xlink="http://www.w3.org/1999/xlink">
    <title>prototypal</title>
    <g id="Symbols" stroke="none" stroke-width="1" fill="none" fill-rule="evenodd">
        <g id="2021-/-sponsor-grid" transform="translate(-705.000000, -300.000000)" fill="#000000" fill-rule="nonzero">
            <g id="sponsors" transform="translate(0.000000, 1.070008)">
                <g id="row-4" transform="translate(0.000000, 294.929992)">
                    <g id="prototypal" transform="translate(705.000000, 4.005548)">
                        <path d="M139.467197,18.2711803 L143,18.2711803 L143,0 L139.467197,0 L139.467197,18.2711803 Z M130.579317,10.0529781 C131.232585,9.97092896 131.699874,9.867 131.980404,9.74353552 C132.484421,9.52864481 132.73682,9.1934153 132.73682,8.73940984 C132.73682,8.18538251 132.54459,7.80326776 132.160131,7.59306557 C131.775672,7.38208197 131.212268,7.27659016 130.468355,7.27659016 C129.633016,7.27659016 129.042262,7.48288525 128.695311,7.89625683 C128.447601,8.20179235 128.282721,8.61516393 128.199891,9.13559016 L124.791333,9.13559016 C124.865568,7.95408197 125.196109,6.98355738 125.782175,6.22323497 C126.716754,5.03313115 128.32023,4.43846995 130.592601,4.43846995 C132.071049,4.43846995 133.385399,4.73150273 134.534087,5.31834973 C135.681995,5.9044153 136.25712,7.01246995 136.25712,8.6401694 L136.25712,14.8376175 C136.25712,15.2673989 136.265716,15.7878251 136.281344,16.3996776 C136.30635,16.8622787 136.376678,17.1764098 136.492328,17.3412896 C136.607978,17.5069508 136.782235,17.642918 137.013536,17.7507541 L137.013536,18.2711803 L133.170508,18.2711803 C133.062672,17.9984645 132.988437,17.7421585 132.947022,17.5030437 C132.906388,17.2631475 132.872787,16.9904317 132.847781,16.6848962 C132.360175,17.213918 131.799115,17.6640164 131.162257,18.0359727 C130.402716,18.4735683 129.542372,18.6931475 128.583568,18.6931475 C127.360645,18.6931475 126.351049,18.3438525 125.554,17.6452623 C124.756169,16.9474536 124.356863,15.9573934 124.356863,14.6766448 C124.356863,13.0161257 124.997628,11.8135191 126.278377,11.0696066 C126.980874,10.6648306 128.013913,10.3757049 129.377492,10.2022295 L130.579317,10.0529781 Z M132.723536,11.701776 C132.500831,11.8424317 132.275781,11.9557377 132.048388,12.0424754 C131.820995,12.1292131 131.509989,12.2096995 131.113027,12.2847158 L130.319104,12.4331858 C129.575973,12.5652459 129.042262,12.7262186 128.720317,12.9168852 C128.174885,13.2388306 127.902169,13.7389399 127.902169,14.4164317 C127.902169,15.0196885 128.069393,15.4557213 128.404623,15.7237486 C128.739071,15.9925574 129.146191,16.1269617 129.625202,16.1269617 C130.385525,16.1269617 131.086459,15.9034754 131.726443,15.4572842 C132.366426,15.0110929 132.699311,14.1976339 132.723536,13.0161257 L132.723536,11.701776 Z M121.078803,6.21073224 C122.173574,7.3758306 122.72135,9.08636066 122.72135,11.3423224 C122.72135,13.7225301 122.186077,15.5362077 121.11553,16.7841366 C120.045765,18.0320656 118.667339,18.6556393 116.981814,18.6556393 C115.907361,18.6556393 115.014978,18.3868306 114.304667,17.8499945 C113.916301,17.5522732 113.53653,17.1185847 113.163792,16.5481475 L113.163792,23.5887486 L109.668497,23.5887486 L109.668497,4.7604153 L113.052049,4.7604153 L113.052049,6.75616393 C113.432601,6.16931694 113.837377,5.70671585 114.267158,5.36757923 C115.052486,4.7643224 115.985503,4.46269399 117.068552,4.46269399 C118.647022,4.46269399 119.984033,5.04563388 121.078803,6.21073224 L121.078803,6.21073224 Z M118.363366,8.75191257 C117.889044,7.95017486 117.118563,7.54930601 116.051923,7.54930601 C114.771956,7.54930601 113.891295,8.15646995 113.411503,9.37157923 C113.163792,10.0162514 113.040328,10.8343989 113.040328,11.8260219 C113.040328,13.3958962 113.457607,14.4992623 114.291383,15.1353388 C114.787585,15.5072951 115.374432,15.6932732 116.051923,15.6932732 C117.035732,15.6932732 117.785115,15.3127213 118.301634,14.5523989 C118.818153,13.7920765 119.076022,12.7801366 119.076022,11.5157978 C119.076022,10.4749454 118.839251,9.55286885 118.363366,8.75191257 L118.363366,8.75191257 Z M96.194459,20.8623716 L96.6414317,20.8865956 C96.9883825,20.9037869 97.3189235,20.8912842 97.6322732,20.8498689 C97.9464044,20.8084536 98.2105246,20.7131202 98.4261967,20.5646503 C98.6324918,20.4239945 98.8239399,20.1309617 99.0021038,19.6847705 C99.1802678,19.2377978 99.2521585,18.9658634 99.2185574,18.866623 L94.261224,4.7604153 L98.1902077,4.7604153 L101.140071,14.7266557 L103.929743,4.7604153 L107.685251,4.7604153 L103.049863,18.0484754 C102.156699,20.6099727 101.450295,22.1986011 100.929869,22.8143607 C100.409443,23.4301202 99.3678087,23.738 97.8065301,23.738 C97.4916175,23.738 97.24,23.7356557 97.0501148,23.7317486 C96.8602295,23.7278415 96.5750109,23.7129945 96.194459,23.6879891 L96.194459,20.8623716 Z M85.8070328,7.40083607 L85.8070328,4.8846612 L87.6910383,4.8846612 L87.6910383,1.11586885 L91.1871148,1.11586885 L91.1871148,4.8846612 L93.3813443,4.8846612 L93.3813443,7.40083607 L91.1871148,7.40083607 L91.1871148,14.5398962 C91.1871148,15.0939235 91.2574426,15.4393115 91.3980984,15.5752787 C91.5379727,15.7120273 91.9677541,15.7800109 92.6866612,15.7800109 C92.7944973,15.7800109 92.9078033,15.7776667 93.0281421,15.7737596 C93.1476995,15.7698525 93.2649126,15.7636011 93.3813443,15.7550055 L93.3813443,18.3954262 L91.707541,18.4571585 C90.0376448,18.5149836 88.8975519,18.2258579 88.2864809,17.5897814 C87.8895191,17.1850055 87.6910383,16.5606503 87.6910383,15.7182787 L87.6910383,7.40083607 L85.8070328,7.40083607 Z M82.9564098,16.6286339 C81.8163169,18.0383169 80.0846885,18.742377 77.762306,18.742377 C75.4407049,18.742377 73.7090765,18.0383169 72.5689836,16.6286339 C71.4288907,15.2197322 70.8576721,13.5240492 70.8576721,11.5408033 C70.8576721,9.59037705 71.4288907,7.90016393 72.5689836,6.47094536 C73.7090765,5.04094536 75.4407049,4.32672678 77.762306,4.32672678 C80.0846885,4.32672678 81.8163169,5.04094536 82.9564098,6.47094536 C84.0965027,7.90016393 84.6669399,9.59037705 84.6669399,11.5408033 C84.6669399,13.5240492 84.0965027,15.2197322 82.9564098,16.6286339 L82.9564098,16.6286339 Z M80.1300109,14.6766448 C80.6840383,13.9413279 80.9606612,12.8957869 80.9606612,11.5408033 C80.9606612,10.1850383 80.6840383,9.14184153 80.1300109,8.41043169 C79.576765,7.67902186 78.7828415,7.31409836 77.7505847,7.31409836 C76.716765,7.31409836 75.9220601,7.67902186 75.3641257,8.41043169 C74.8061913,9.14184153 74.527224,10.1850383 74.527224,11.5408033 C74.527224,12.8957869 74.8061913,13.9413279 75.3641257,14.6766448 C75.9220601,15.4119617 76.716765,15.7800109 77.7505847,15.7800109 C78.7828415,15.7800109 79.576765,15.4119617 80.1300109,14.6766448 L80.1300109,14.6766448 Z M61.8463279,7.40083607 L61.8463279,4.8846612 L63.7303333,4.8846612 L63.7303333,1.11586885 L67.2264098,1.11586885 L67.2264098,4.8846612 L69.4206393,4.8846612 L69.4206393,7.40083607 L67.2264098,7.40083607 L67.2264098,14.5398962 C67.2264098,15.0939235 67.2967377,15.4393115 67.436612,15.5752787 C67.5772678,15.7120273 68.0070492,15.7800109 68.7259563,15.7800109 C68.8337923,15.7800109 68.9470984,15.7776667 69.0666557,15.7737596 C69.1869945,15.7698525 69.3042077,15.7636011 69.4206393,15.7550055 L69.4206393,18.3954262 L67.7468361,18.4571585 C66.0777213,18.5149836 64.936847,18.2258579 64.325776,17.5897814 C63.9288142,17.1850055 63.7303333,16.5606503 63.7303333,15.7182787 L63.7303333,7.40083607 L61.8463279,7.40083607 Z M58.9957049,16.6286339 C57.855612,18.0383169 56.1239836,18.742377 53.8016011,18.742377 C51.48,18.742377 49.749153,18.0383169 48.6082787,16.6286339 C47.4681858,15.2197322 46.8977486,13.5240492 46.8977486,11.5408033 C46.8977486,9.59037705 47.4681858,7.90016393 48.6082787,6.47094536 C49.749153,5.04094536 51.48,4.32672678 53.8016011,4.32672678 C56.1239836,4.32672678 57.855612,5.04094536 58.9957049,6.47094536 C60.1365792,7.90016393 60.706235,9.59037705 60.706235,11.5408033 C60.706235,13.5240492 60.1365792,15.2197322 58.9957049,16.6286339 L58.9957049,16.6286339 Z M56.1700874,14.6766448 C56.7233333,13.9413279 56.9999563,12.8957869 56.9999563,11.5408033 C56.9999563,10.1850383 56.7233333,9.14184153 56.1700874,8.41043169 C55.6160601,7.67902186 54.822918,7.31409836 53.7898798,7.31409836 C52.7560601,7.31409836 51.9613552,7.67902186 51.4034208,8.41043169 C50.8454863,9.14184153 50.5673005,10.1850383 50.5673005,11.5408033 C50.5673005,12.8957869 50.8454863,13.9413279 51.4034208,14.6766448 C51.9613552,15.4119617 52.7560601,15.7800109 53.7898798,15.7800109 C54.822918,15.7800109 55.6160601,15.4119617 56.1700874,14.6766448 L56.1700874,14.6766448 Z M45.3544426,4.44393989 C45.399765,4.44862842 45.5013497,4.45487978 45.6576339,4.46269399 L45.6576339,8.08223497 C45.434929,8.05722951 45.2364481,8.04081967 45.0637541,8.03300546 C44.8894973,8.02440984 44.7488415,8.02050273 44.6417869,8.02050273 C43.2203825,8.02050273 42.2662678,8.48310383 41.7786612,9.40830601 C41.5059454,9.92951366 41.3691967,10.7304699 41.3691967,11.8135191 L41.3691967,18.2711803 L37.811388,18.2711803 L37.811388,4.7604153 L41.1832186,4.7604153 L41.1832186,7.11561749 C41.7286503,6.21463934 42.2037541,5.59887978 42.6085301,5.2683388 C43.2703934,4.7150929 44.1291749,4.43846995 45.1872186,4.43846995 C45.2536393,4.43846995 45.3091202,4.44003279 45.3544426,4.44393989 L45.3544426,4.44393989 Z M33.634694,10.3632022 C32.5438306,11.2555847 30.986459,11.701776 28.9610164,11.701776 L25.0812623,11.701776 L25.0812623,18.2711803 L21.2890273,18.2711803 L21.2890273,0.000781420765 L29.246235,0.000781420765 C31.0810109,0.000781420765 32.5438306,0.471196721 33.634694,1.41359016 C34.7255574,2.35520219 35.2702077,3.81411475 35.2702077,5.78954645 C35.2702077,7.94626776 34.7255574,9.47081967 33.634694,10.3632022 L33.634694,10.3632022 Z M30.7403115,3.78129508 C30.2402022,3.37651913 29.5392678,3.17334973 28.639071,3.17334973 L25.0812623,3.17334973 L25.0812623,8.55343169 L28.639071,8.55343169 C29.5392678,8.55343169 30.2402022,8.33463388 30.7403115,7.89625683 C31.2404208,7.4586612 31.4904754,6.76397814 31.4904754,5.81377049 C31.4904754,4.86356284 31.2404208,4.18607104 30.7403115,3.78129508 L30.7403115,3.78129508 Z" id="Fill-1"></path>
                        <g id="Dots" transform="translate(0.000000, 0.775873)">
                            <circle id="Oval" cx="8.9863388" cy="2.73497268" r="2.73497268"></circle>
                            <circle id="Oval-Copy" cx="2.73497268" cy="8.20491803" r="2.73497268"></circle>
                            <circle id="Oval-Copy-2" cx="8.9863388" cy="13.6748634" r="2.73497268"></circle>
                        </g>
                    </g>
                </g>
            </g>
        </g>
    </g>
</svg>