<svg xmlns="http://www.w3.org/2000/svg" width="191" height="45" viewBox="0 0 191 45"><g fill="#00213B" fill-rule="evenodd"><path d="M59.87 27.27c0 4.6-4.28 6.44-8.56 6.47A12.26 12.26 0 0142.5 30l2.35-2.34a8.82 8.82 0 006.46 3.2c2.76 0 5-1 5-3.33 0-2.06-2.19-2.92-5.93-4.5-3.08-1.3-6.76-2.85-6.76-6.88 0-3.17 3-6.47 8-6.47a11.07 11.07 0 018.5 3.84l-2.35 2.25a9.1 9.1 0 00-6.56-3.17c-2.16 0-4 1.2-4 3.23 0 2.86 3.3 3.9 5.77 4.88 3.28 1.29 6.89 2.95 6.89 6.56zm13.19 6.31v-8.85c0-3.17-1.27-4.59-4-4.59s-4 1.42-4 4.59v8.85h-3.19V8.85h3.27V20a6.46 6.46 0 015.54-2.51c3.3 0 5.61 1.78 5.61 6.28v9.83l-3.23-.02z"></path><path fill-rule="nonzero" d="M80.32 13.7a1.81 1.81 0 111.78-1.81 1.77 1.77 0 01-1.78 1.81zM78.7 33.58V17.63H82v16l-3.3-.05zm8.88-2.19v8h-3.27V17.63h3.27v2.16a6.67 6.67 0 015.07-2.32c4.44 0 7.58 3 7.58 8.12 0 4.82-3.14 8.15-7.58 8.15a6.72 6.72 0 01-5.07-2.35zm0-5.8c0 3.2 1.68 5.45 4.69 5.45 3.01 0 4.73-2.25 4.73-5.45s-1.68-5.45-4.69-5.45c-3.01 0-4.73 2.28-4.73 5.45z"></path><path d="M124.21 27.27c0 4.6-4.28 6.44-8.56 6.47a12.27 12.27 0 01-8.82-3.74l2.35-2.34a8.83 8.83 0 006.47 3.2c2.75 0 5-1 5-3.33 0-2.06-2.19-2.92-5.93-4.5-3.08-1.3-6.75-2.85-6.75-6.88 0-3.17 3-6.47 7.95-6.47a11.07 11.07 0 018.5 3.84l-2.35 2.25a9.1 9.1 0 00-6.56-3.17c-2.15 0-4 1.2-4 3.23 0 2.86 3.3 3.9 5.77 4.88 3.31 1.29 6.93 2.95 6.93 6.56zm13.18 6.31v-8.85c0-3.17-1.26-4.59-4-4.59s-4 1.42-4 4.59v8.85h-3.19V8.85h3.27V20a6.48 6.48 0 015.53-2.53c3.29 0 5.61 1.78 5.61 6.28v9.83h-3.22z"></path><path fill-rule="nonzero" d="M155.56 23.78v9.8h-3.27v-1.71c-1.14 1.55-3.17 1.87-4.75 1.87-2.95 0-5.3-1.65-5.3-4.76 0-3.58 2.92-5.29 7.2-5.29h2.85c0-1.91-.66-3.55-2.72-3.55a5.51 5.51 0 00-3.84 1.61l-2.06-1.55a8.76 8.76 0 016.18-2.73c3.74 0 5.71 1.97 5.71 6.31zm-3.27 2.82h-2.41c-3.26 0-4.37.76-4.37 2.22 0 1.46 1.33 2.25 2.79 2.25 3.07 0 4-1.3 4-3l-.01-1.47zm8.71 4.79v8h-3.26V17.63H161v2.16a6.67 6.67 0 015.07-2.32c4.44 0 7.58 3 7.58 8.12 0 4.82-3.14 8.15-7.58 8.15a6.72 6.72 0 01-5.07-2.35zm0-5.8c0 3.2 1.68 5.45 4.69 5.45 3.01 0 4.7-2.25 4.7-5.45s-1.68-5.45-4.7-5.45c-3.02 0-4.69 2.28-4.69 5.45zm16.84 1.33c0 2.57 2.32 4.15 4.66 4.15a6.6 6.6 0 004.66-2l1.94 1.8a8.79 8.79 0 01-6.6 2.86c-4.82 0-7.86-3.3-7.86-8s3.33-8.31 7.86-8.31 7.55 3.46 7.55 8v1.46l-12.21.04zm4.66-6.78a4.42 4.42 0 00-4.59 4.12h8.87a4 4 0 00-4.28-4.12zM27.19 11.3a12.1 12.1 0 00-1.65-6.1 9.94 9.94 0 00-4.45-3.82A18.1 18.1 0 0013.59 0C7.84 0 3.84 1.72 1.7 5.12c-3.8 6-.25 15.26 1.32 18.71a10.09 10.09 0 01-.52 1.58 7.72 7.72 0 00-.17 5.13 2 2 0 001.16 1.15c.4.145.84.145 1.24 0v.48a1.83 1.83 0 00-1.23.32 3.69 3.69 0 00-1.32 1.93 5.59 5.59 0 00-.24 2.35 3.48 3.48 0 001.91 2.79 3.75 3.75 0 001 3.9 4.14 4.14 0 004.68.93 6.18 6.18 0 003.2-3.69 13.39 13.39 0 00.79-3.44 13.38 13.38 0 00.82 3.43 6.26 6.26 0 003.26 3.68 4.46 4.46 0 001.77.37 4.12 4.12 0 003-1.28 3.65 3.65 0 00.92-3.94 3.5 3.5 0 001.81-2.74 5.44 5.44 0 00-.25-2.35 3.69 3.69 0 00-1.32-1.93 1.81 1.81 0 00-1.22-.32 4.64 4.64 0 010-.48 1.79 1.79 0 001.23 0 2 2 0 001.17-1.15 7.79 7.79 0 00-.18-5.13 9.21 9.21 0 01-.53-1.24 37.5 37.5 0 002.43-6.84 22.82 22.82 0 00.76-6.04zm-5 12.7c.16.718.38 1.42.66 2.1.61 1.39.41 3.83 0 4-.41.17-.37-2.23-1.41-4a7.35 7.35 0 01-.38-.71c.24 1.45.41 3.54-.33 4.74-.87 1.5.73 6.34 1.2 6.4.66.1 0-3 .57-2.63.84.58 1.52 3.55-.31 4.2-1.67.59-4.79-4.2-3.85-8 .5-1.53-.38-4.74-.65-6a27.66 27.66 0 01-.05 8.9c-.94 5.91.95 8 1.57 7.76.85-.34.34-1.79.34-2 .39-.69 3.58 1.5 1.53 3.59-1.78 1.9-6.51.68-6-8.83a15.6 15.6 0 00-1.58-7.9 14.72 14.72 0 00-1.68 7.9c.52 9.51-4 10.73-5.8 8.83C4 40.18 7 38 7.42 38.68c0 0-.58 1.71.28 2 .61.23 2.5-1.6 1.56-7.51a26.38 26.38 0 010-9.12c-.29 1.29-1.26 4.5-.75 6 .94 3.77-2.1 8.56-3.77 8-1.83-.65-1.16-3.62-.31-4.2.57-.38-.1 2.73.57 2.63.47-.06 2.07-4.9 1.2-6.4-.74-1.2-.57-3.29-.34-4.74a7.07 7.07 0 01-.37.71c-1 1.75-1 4.12-1.42 4-.42-.12-.61-2.59 0-4a12.62 12.62 0 00.75-2.47C3.29 20.42-4.85 1.71 13.59 1.71 33 1.71 23 22.38 22.21 24h-.02zM5.37 20.13a1.8 1.8 0 111.8 1.8 1.81 1.81 0 01-1.8-1.8zm14.5 1.78a1.8 1.8 0 10-.02-3.6 1.8 1.8 0 00.02 3.6z"></path></g></svg>