<?xml version="1.0" encoding="UTF-8"?>
<svg width="101px" height="59px" viewBox="0 0 101 59" version="1.1" xmlns="http://www.w3.org/2000/svg" xmlns:xlink="http://www.w3.org/1999/xlink">
    <title>StickerMule</title>
    <g id="Symbols" stroke="none" stroke-width="1" fill="none" fill-rule="evenodd">
        <g id="2021-/-sponsor-grid" transform="translate(-718.000000, -500.000000)" fill="#000000">
            <g id="sponsors" transform="translate(0.000000, 1.070008)">
                <g id="row-6" transform="translate(0.326247, 499.155851)">
                    <g id="StickerMule" transform="translate(717.844627, 0.000000)">
                        <path d="M4.58511322,58.2129749 C2.87637538,58.2129749 1.36699028,58.0136221 0,56.6751108 L1.76569578,54.9094151 C2.64854366,55.7922629 3.81618119,55.9346578 4.64207115,55.9346578 C5.58187697,55.9346578 6.55016175,55.6213892 6.55016175,54.8239782 C6.55016175,54.2828778 6.26537211,53.9126513 5.41100318,53.8272144 L3.70226534,53.6563406 C1.76569578,53.4569879 0.569579282,52.6310979 0.569579282,50.6375704 C0.569579282,48.4162112 2.53462781,47.1916158 4.72750804,47.1916158 C6.40776693,47.1916158 7.80323617,47.4764054 8.85695784,48.4446902 L7.20517792,50.1249491 C6.57864071,49.5553698 5.6388349,49.412975 4.69902908,49.412975 C3.61682844,49.412975 3.16116502,49.8971174 3.16116502,50.4382177 C3.16116502,50.8369232 3.3320388,51.2925866 4.27184462,51.3780235 L5.98058247,51.5488973 C8.11650478,51.74825 9.19870541,52.8874086 9.19870541,54.7100623 C9.14174748,57.0738163 7.11974103,58.2129749 4.58511322,58.2129749 Z" id="Path" fill-rule="nonzero"></path>
                        <path d="M13.8407766,58.099059 C11.6478963,58.099059 10.7080905,56.561195 10.7080905,55.0233309 L10.7080905,49.6977646 L9.56893195,49.6977646 L9.56893195,47.6188002 L10.7080905,47.6188002 L10.7080905,44.4291563 L13.3851131,44.4291563 L13.3851131,47.6188002 L15.2932037,47.6188002 L15.2932037,49.6692857 L13.3851131,49.6692857 L13.3851131,54.8524571 C13.3851131,55.4789943 13.6699028,55.8207419 14.324919,55.8207419 L15.2932037,55.8207419 L15.2932037,58.099059 L13.8407766,58.099059 L13.8407766,58.099059 Z" id="Path" fill-rule="nonzero"></path>
                        <path d="M16.4893202,45.4828779 L16.4893202,43.2899977 L19.2517797,43.2899977 L19.2517797,45.4828779 L16.4893202,45.4828779 Z M16.5462782,58.099059 L16.5462782,47.3340106 L19.2233008,47.3340106 L19.2233008,58.099059 L16.5462782,58.099059 Z" id="Shape" fill-rule="nonzero"></path>
                        <path d="M25.3177991,58.2129749 C23.1533978,58.2129749 20.5048542,57.0453374 20.5048542,52.6880558 C20.5048542,48.3307743 23.1818768,47.1916158 25.3177991,47.1916158 C26.7987052,47.1916158 27.9378638,47.6472792 28.8776696,48.6440429 L27.0550159,50.4666966 C26.4854366,49.8686384 26.0297732,49.6123277 25.3177991,49.6123277 C24.6627829,49.6123277 24.1786405,49.8401594 23.779935,50.3243018 C23.3527506,50.8369232 23.1818768,51.5773762 23.1818768,52.7165348 C23.1818768,53.8556934 23.3812295,54.5961464 23.779935,55.1087678 C24.1786405,55.5929102 24.6627829,55.8207419 25.3177991,55.8207419 C26.0297732,55.8207419 26.4854366,55.5644312 27.0550159,54.966373 L28.8776696,56.7605477 C27.9093848,57.7573115 26.7987052,58.2129749 25.3177991,58.2129749 Z" id="Path" fill-rule="nonzero"></path>
                        <polygon id="Path" fill-rule="nonzero" points="36.2822003 58.099059 33.6336566 53.5993827 32.4944981 54.8809361 32.4944981 58.099059 29.8174754 58.099059 29.8174754 43.3754346 32.4944981 43.3754346 32.4944981 51.7197711 36.0828475 47.3055316 39.3294495 47.3055316 35.4847893 51.6628131 39.6142391 58.099059"></polygon>
                        <path d="M41.8640773,53.5424248 C41.8640773,54.937894 42.7184462,55.9346578 44.2278313,55.9346578 C45.3954688,55.9346578 45.9935271,55.5929102 46.6770222,54.9094151 L48.3003232,56.504237 C47.2181225,57.5864377 46.1359219,58.2129749 44.1993523,58.2129749 C41.6647245,58.2129749 39.2155336,57.0453374 39.2155336,52.6880558 C39.2155336,49.1851433 41.1236242,47.1916158 43.9145627,47.1916158 C46.9048539,47.1916158 48.6135918,49.384496 48.6135918,52.3463083 L48.6135918,53.5424248 L41.8640773,53.5424248 L41.8640773,53.5424248 Z M45.7087374,50.5521335 C45.4239478,49.8971174 44.8258895,49.4414539 43.9145627,49.4414539 C43.0032358,49.4414539 42.4051776,49.9255963 42.1203879,50.5521335 C41.9495142,50.950839 41.8925562,51.2356287 41.8640773,51.7197711 L45.9650481,51.7197711 C45.9365691,51.2356287 45.8796112,50.950839 45.7087374,50.5521335 Z" id="Shape" fill-rule="nonzero"></path>
                        <path d="M55.7333328,50.2673439 C55.3061483,49.8401594 54.9644008,49.6123277 54.3093846,49.6123277 C53.4834946,49.6123277 52.5721678,50.2388649 52.5721678,51.6058552 L52.5721678,58.099059 L49.8951451,58.099059 L49.8951451,47.3340106 L52.5152098,47.3340106 L52.5152098,48.3592533 C53.0278312,47.7327161 54.0815529,47.1916158 55.2207114,47.1916158 C56.2744331,47.1916158 57.0148862,47.4479265 57.7553392,48.2168585 L55.7333328,50.2673439 Z" id="Path" fill-rule="nonzero"></path>
                        <path d="M69.858899,47.1916158 C68.5203877,47.1916158 67.5521029,47.6188002 66.6407761,48.5586061 C65.9572809,47.6188002 64.9889961,47.1916158 63.7928796,47.1916158 C62.7961159,47.1916158 61.7993521,47.5903213 61.115857,48.3022954 L61.115857,47.3340106 L58.4957923,47.3340106 L58.4957923,58.099059 L61.1728149,58.099059 L61.1728149,51.5773762 C61.1728149,50.0964701 62.1126208,49.6123277 62.9669897,49.6123277 C63.8213586,49.6123277 64.7326855,50.0964701 64.7326855,51.5773762 L64.7326855,58.099059 L67.4097081,58.099059 L67.4097081,51.5204183 C67.4097081,50.1249491 68.3779929,49.6123277 69.2038828,49.6123277 C70.0582517,49.6123277 70.9695786,50.0964701 70.9695786,51.5773762 L70.9695786,58.099059 L73.6466012,58.099059 L73.6466012,51.2071497 C73.6466012,50.0395122 73.3333326,49.0142695 72.4789637,48.1314216 C71.9093844,47.5618423 70.9410996,47.1916158 69.858899,47.1916158 Z" id="Path" fill-rule="nonzero"></path>
                        <path d="M81.5352743,53.8272144 C81.5352743,55.3081205 80.5954685,55.7922629 79.7410995,55.7922629 C78.8867306,55.7922629 77.9754038,55.3081205 77.9754038,53.8272144 L77.9754038,47.3340106 L75.2983811,47.3340106 L75.2983811,54.2259199 C75.2983811,55.3935574 75.5262129,56.4188001 76.3805818,57.2731691 C76.97864,57.8712273 77.8614879,58.2129749 78.9152096,58.2129749 C79.9119733,58.2129749 80.9087371,57.8427484 81.5922322,57.1022953 L81.5922322,58.099059 L84.2122969,58.099059 L84.2122969,47.3340106 L81.5352743,47.3340106 L81.5352743,53.8272144 Z" id="Path" fill-rule="nonzero"></path>
                        <path d="M88.6265364,54.8524571 L88.6265364,43.3754346 L85.9495137,43.3754346 L85.9495137,55.0233309 C85.9495137,56.561195 86.8893195,58.099059 89.0821998,58.099059 L90.6200638,58.099059 L90.6200638,55.8207419 L89.5948211,55.8207419 C88.911326,55.8207419 88.6265364,55.5074733 88.6265364,54.8524571 Z" id="Path" fill-rule="nonzero"></path>
                        <path d="M100.502264,52.3463083 C100.502264,49.384496 98.7935265,47.1916158 95.8032353,47.1916158 C93.0122968,47.1916158 91.1042062,49.1851433 91.1042062,52.6880558 C91.1042062,57.0453374 93.5533971,58.2129749 96.088025,58.2129749 C98.0245945,58.2129749 99.0783162,57.6149166 100.188996,56.504237 L98.5656948,54.9094151 C97.8821997,55.5929102 97.3126204,55.9346578 96.1165039,55.9346578 C94.6071188,55.9346578 93.7527499,54.9094151 93.7527499,53.5424248 L100.502264,53.5424248 L100.502264,52.3463083 L100.502264,52.3463083 Z M93.7527499,51.7197711 C93.7812289,51.2356287 93.8381868,50.950839 94.0090606,50.5521335 C94.2938502,49.8971174 94.8919085,49.4414539 95.8032353,49.4414539 C96.7145622,49.4414539 97.3126204,49.9255963 97.5974101,50.5521335 C97.7682838,50.950839 97.8252418,51.2356287 97.8537207,51.7197711 L93.7527499,51.7197711 Z" id="Shape" fill-rule="nonzero"></path>
                        <path d="M55.2207114,40.2142696 C54.8504849,40.3851433 54.3378635,40.3566644 53.7967632,40.3851433 C53.3410998,40.3851433 52.6860836,40.4136223 52.429773,40.1573116 C52.2873781,40.0149168 52.2304202,39.7586061 52.2304202,39.5877324 C52.2304202,39.3883796 52.2588992,39.1605479 52.3158571,38.9327162 C52.372815,38.6764055 52.429773,38.3346579 52.3158571,38.2207421 C52.2019412,38.0498683 51.7747568,38.1353052 51.575404,37.9929104 C51.3475723,37.8505155 51.2906144,37.5657259 51.2051775,37.1954994 C51.1766985,37.0815835 51.1197406,36.9961466 51.0912616,36.9107097 C51.0343037,36.3696094 51.2051775,35.6576353 51.3190934,35.116535 C51.4614882,34.5469557 51.603883,34.0058554 51.7177988,33.4647551 C51.8601937,32.6673441 51.9171516,31.7560172 51.8601937,30.9016483 C51.8317147,30.4744638 51.7747568,30.1327163 51.8317147,29.7624897 C51.8886726,29.4207422 52.0310675,29.1359525 52.1165043,28.7942049 C52.1449833,28.6802891 52.1165043,28.5663732 52.1449833,28.4524574 C52.1449833,28.3385415 52.2304202,28.2531046 52.2304202,28.1676677 C52.2304202,27.939836 52.1734623,27.6550464 52.1449833,27.3702567 C52.0880254,26.6013247 52.1449833,25.547603 52.2019412,24.8925869 C52.2304202,24.6647552 52.3158571,24.4084445 52.1734623,24.2945286 C51.3760513,24.2945286 50.6640772,24.4369234 49.9236241,24.5223603 C47.9585756,24.778671 45.4809057,24.80715 43.5728151,24.4369234 C43.4019413,24.4084445 43.2025886,24.4084445 43.0317148,24.3514865 C41.6932035,24.0382179 40.4401291,23.4686387 39.4718443,22.6997066 C39.3294495,22.5857908 39.1585757,22.4433959 38.9877019,22.3294801 C38.8168281,22.2155642 38.6459543,22.0162115 38.5035595,21.9592536 C37.7346275,21.589027 36.7093848,22.0162115 36.3961162,22.5003539 C36.2822003,22.6997066 36.1682844,22.9560173 36.0543686,23.183849 C35.9404527,23.4116807 35.8265369,23.6395124 35.7411,23.8673442 C35.2284786,25.0349817 34.6588993,26.1456613 34.146278,27.3132988 C33.8614883,27.996794 33.5197408,28.737247 33.2919091,29.4777001 C32.8362456,31.0725221 33.2634301,33.2369234 33.6336566,34.7463085 C33.6621356,34.8887033 33.7475725,35.0310981 33.8045304,35.1734929 C33.9184463,35.5437194 34.1747569,36.0278618 34.4595466,36.2841725 C34.6019414,36.4265673 34.8582521,36.4835253 35.0291259,36.6259201 C35.2284786,36.7967939 35.3993524,37.1670204 35.5702262,37.480289 C35.6271841,37.5942049 35.7411,37.7650786 35.8265369,37.9074735 C36.0258896,38.249221 36.0828475,38.5624896 35.712621,38.7618424 C35.4278314,38.9042372 35.0006469,38.9611951 34.6019414,38.9896741 C34.4310676,39.046632 34.4880256,39.2744637 34.3741097,39.3883796 C34.3171518,39.4453375 34.0323621,39.5592534 33.8899673,39.6162113 C33.377346,39.7586061 32.4660191,39.7586061 32.0673136,39.6162113 C31.8679609,39.5307744 31.6401291,39.3883796 31.5831712,39.2175058 C31.4692554,38.9042372 31.725566,38.4770528 31.4977343,38.249221 C31.3838185,38.1353052 31.1844657,38.1637841 30.985113,38.0783473 C30.7003233,37.9644314 30.4440126,37.7081207 30.3300968,37.3663732 C30.0168282,36.5689622 30.2161809,35.3443667 30.187702,34.3760819 C30.187702,34.0912923 30.130744,33.7780237 30.130744,33.4647551 C30.1022651,32.8951758 29.9883492,32.3255965 29.9029123,31.7560172 C29.8744334,31.4712276 29.7889965,31.2433959 29.7320385,30.9870852 C29.6466017,30.5883797 29.5611648,30.1327163 29.4472489,29.7340108 C29.3048541,29.2783473 29.3048541,28.8511629 29.4757279,28.4524574 C29.5042068,28.3385415 29.6181227,28.2531046 29.7035596,28.1107098 C29.7889965,27.8828781 29.8174754,27.6265674 29.8174754,27.4272147 C29.7605175,27.3132988 29.4757279,27.3987357 29.4187699,27.2848199 C29.2478962,26.0317454 29.0770224,24.80715 28.9631065,23.4971176 C28.9346276,23.0699332 28.9346276,22.6142697 28.8776696,22.1586063 C28.7922327,21.2757584 28.8776696,20.3644316 28.7922327,19.5100626 C28.7637538,19.0828782 28.6498379,18.6841727 28.59288,18.2854672 C28.4504852,17.1463086 28.1372166,15.6938815 28.3650483,14.497765 C28.5074431,13.7288329 28.7922327,13.1307747 29.2194172,12.5611954 C29.5326858,12.1624899 29.8459544,11.7922634 30.2161809,11.4505158 C30.5579285,11.1087682 30.956634,10.7954996 31.3838185,10.482231 C31.6401291,10.2828783 31.9249188,10.0550466 32.2381874,9.9411307 C32.8932036,9.62786209 33.7475725,9.37155142 34.6588993,9.34307245 C35.5702262,9.31459349 36.5954689,9.28611452 37.4783168,9.45698831 C38.3326857,9.59938313 39.1870546,9.77025691 40.0414236,9.9411307 C40.8673135,10.1120045 41.6647245,10.3398362 42.4621355,10.5391889 C42.5760514,10.5676679 42.6614883,10.6246258 42.7469252,10.6531048 C43.0032358,10.7100627 43.2880255,10.7385417 43.5443361,10.8239786 C44.2847892,11.0233313 45.224595,11.1087682 46.1074429,11.1087682 C47.0757277,11.1087682 47.9300966,11.0802893 48.7275076,10.8809365 C48.8414235,10.8524576 48.9268604,10.7954996 49.0692552,10.7385417 C49.183171,10.6815838 49.3540448,10.7100627 49.4679607,10.6531048 C49.5533976,10.6246258 49.6388345,10.5391889 49.7242714,10.51071 C50.1799348,10.2828783 50.5786403,10.0835255 50.9773458,9.79873588 C51.2906144,9.57090416 51.575404,9.37155142 52.0025885,9.20067763 C52.2019412,9.11524074 52.372815,9.02980385 52.5721678,8.97284592 C52.9708733,8.8304511 53.4265367,8.71653524 53.7398053,8.51718249 C54.2239477,8.20391389 54.5941742,7.74825046 54.9928797,7.40650289 C55.4200642,7.03627636 55.8472486,6.69452879 56.3029121,6.32430225 C57.2142389,5.61232815 58.1255658,4.95731198 58.9799347,4.27381684 C59.4071192,3.93206927 59.8912616,3.5903217 60.4038829,3.30553206 C61.4006467,2.73595278 62.3974104,2.0809366 63.8213586,1.96702074 C64.3909379,1.93854178 64.9605172,1.91006282 65.5300964,1.99549971 C65.6724913,2.02397867 65.900323,2.10941556 66.0427178,2.0809366 C66.1851126,2.05245764 66.2990285,1.82462592 66.4129443,1.62527317 C66.6122971,1.25504664 66.7831709,0.998735963 66.9540447,0.543072537 C67.0679605,0.258282896 67.0110026,-0.026506745 67.2957922,0.0019722191 C67.5805819,0.0019722191 67.5521029,0.77090425 67.5521029,1.05569389 C67.5805819,1.39744146 67.5236239,1.85310489 67.5805819,2.0809366 C67.6090608,2.25181038 67.8368925,2.4796421 68.0647243,2.4796421 C68.235598,2.4796421 68.3210349,2.36572624 68.4634298,2.25181038 C68.6058246,2.16637349 68.7482194,2.10941556 68.8621353,2.02397867 C69.089967,1.85310489 69.3747566,1.56831525 69.6025883,1.31200457 C69.8019411,1.11265182 70.1152097,0.656988394 70.4284783,0.685467358 C70.9980576,0.742425286 70.4284783,1.56831525 70.3145624,1.85310489 C70.0297728,2.50812106 69.7449831,2.96378449 69.4032356,3.5903217 C69.2608408,3.84663238 68.9475721,4.18837995 68.9475721,4.44469062 C68.9475721,4.61556441 69.089967,4.75795923 69.1754039,4.92883301 C69.2038828,5.0142699 69.2323618,5.12818576 69.2608408,5.21362265 C69.4601935,5.66928608 69.6025883,6.29582329 69.7449831,6.80844464 C69.887378,7.23562911 69.9728149,7.7197715 70.1436886,8.14695596 C70.2860835,8.57414042 70.5139152,8.97284592 70.684789,9.37155142 C70.7417469,9.48546727 70.7417469,9.62786209 70.7702258,9.71329899 C71.1404524,10.6246258 71.4822,11.6783475 71.9093844,12.5611954 C72.0802582,12.9314219 72.3365689,13.3586064 72.3365689,13.8997067 C72.3365689,14.469286 72.0233003,14.7540756 71.7669896,15.1812601 C71.6245948,15.4090918 71.425242,15.7508394 71.2258893,15.8362763 C71.0834945,15.8932342 70.8841417,15.8362763 70.7417469,15.8647552 C70.5139152,15.8932342 70.3715204,16.035629 70.1721676,16.064108 C69.6310673,16.1210659 69.1469249,15.7223604 69.0045301,15.3236549 C68.9475721,15.1812601 68.9760511,15.0103863 68.9475721,14.8395125 C68.8336563,14.2129753 68.5203877,13.8997067 68.0647243,13.4725222 C67.7799346,13.2162116 67.5521029,13.0168588 67.2103553,12.8175061 C66.697734,12.5611954 66.1566337,12.3903216 65.6155333,12.105532 C65.4161806,11.9916161 65.1883489,11.9061792 65.0174751,11.9346582 C64.7326855,11.9916161 64.4478958,12.4472795 64.2200641,12.7320692 C62.8245949,14.5547229 61.5999994,16.4343345 60.2614881,18.2285093 C59.3786402,19.4246258 58.4103554,20.6207422 57.6983813,21.9877325 C57.5275075,22.3294801 57.4135917,22.7281856 57.2711969,23.1268911 C57.128802,23.5255966 57.0718441,23.952781 56.9294493,24.3514865 C56.4168279,25.8323927 56.2459541,27.6550464 55.7618118,29.2213894 C55.7048538,29.3922632 55.7048538,29.563137 55.6478959,29.7624897 C55.4200642,30.5599007 55.2207114,31.4712276 54.9644008,32.3255965 C54.765048,32.9521337 54.7080901,33.8065026 54.6796111,34.6323926 C54.6511322,35.4013246 54.6226532,36.5120042 54.9074428,36.9961466 C55.0498377,37.2524573 55.590938,37.3663732 55.7902907,37.6226838 C55.9326855,37.8220366 56.0181224,38.1922631 56.1605173,38.4200948 C56.2459541,38.5909686 56.5307438,38.9611951 56.5022648,39.2175058 C56.4737859,39.4168586 56.3029121,39.5592534 56.1605173,39.6162113 C55.9896435,39.7016482 55.7618118,39.6446903 55.590938,39.7301272 C55.3346273,39.872522 55.4200642,40.1003537 55.2207114,40.2142696 Z" id="Path"></path>
                    </g>
                </g>
            </g>
        </g>
    </g>
</svg>