<?xml version="1.0" encoding="UTF-8"?>
<svg width="94px" height="34px" viewBox="0 0 94 34" version="1.1" xmlns="http://www.w3.org/2000/svg" xmlns:xlink="http://www.w3.org/1999/xlink">
    <title>tilde</title>
    <g id="Symbols" stroke="none" stroke-width="1" fill="none" fill-rule="evenodd">
        <g id="2021-/-sponsor-grid" transform="translate(-997.000000, -296.000000)" fill="#000000" fill-rule="nonzero">
            <g id="sponsors" transform="translate(0.000000, 1.070008)">
                <g id="row-4" transform="translate(0.000000, 294.929992)">
                    <g id="tilde" transform="translate(997.400000, 0.301183)">
                        <path d="M35.0674134,22.9689107 L35.0674134,21.1447372 L36.7527488,21.1447372 L38.4380841,21.1447372 L38.4380841,14.8614727 L38.4380841,8.57820823 L40.5278999,8.57820823 L42.6177158,8.57820823 L42.6177158,14.8614727 L42.6177158,21.1447372 L44.3704645,21.1447372 L46.1232133,21.1447372 L46.1232133,22.9689107 L46.1232133,24.7930843 L40.5953134,24.7930843 L35.0674134,24.7930843 L35.0674134,22.9689107 Z M48.0107889,16.6856462 L48.0107889,8.57820823 L50.1006047,8.57820823 L52.1904206,8.57820823 L52.1904206,16.6856462 L52.1904206,24.7930843 L50.1006047,24.7930843 L48.0107889,24.7930843 L48.0107889,16.6856462 Z M55.5880566,16.7261834 L55.6285047,8.64577021 L60.2126168,8.64577021 L64.796729,8.64577021 L64.837177,10.442919 L64.8776251,12.2265553 L62.3698461,12.2265553 L59.8755498,12.2265553 L59.8755498,18.5098198 L59.8755498,24.7930843 L57.7183205,24.7930843 L55.5610913,24.7930843 L55.5880566,16.7261834 Z M67.0213716,16.6721338 L67.0213716,8.55118343 L70.702144,8.61874542 C73.5200247,8.65928261 74.5447086,8.72684459 75.1109813,8.88899335 C77.8614486,9.69973715 80.0456432,11.9157702 80.8411215,14.7263487 C81.3130154,16.3613487 81.0568444,18.6989933 80.2344008,20.3339933 C79.5063359,21.7798198 77.9827927,23.2796958 76.4996976,24.03639 C75.2053601,24.6849851 74.4098818,24.7930843 70.5673172,24.7930843 L67.0213716,24.7930843 L67.0213716,16.6721338 Z M74.3694338,20.7799024 C75.1379467,20.3745305 75.8525289,19.5772991 76.270492,18.6449438 C76.9985569,17.0775057 76.6884552,14.9155223 75.5828752,13.6048198 C74.8548103,12.7670512 73.8705745,12.3481669 72.4144447,12.2535801 L71.2010033,12.1860181 L71.2010033,16.6856462 L71.2010033,21.1717619 L72.5223062,21.1177124 C73.5065421,21.0771752 73.9649533,20.9961008 74.3694338,20.7799024 Z M83.4702446,16.6856462 L83.4702446,8.57820823 L88.0273914,8.60523302 L92.5710555,8.64577021 L92.6115036,10.442919 L92.6519516,12.2265553 L90.1441726,12.2265553 L87.6498763,12.2265553 L87.6498763,13.577795 L87.6498763,14.9290347 L89.9823804,14.9560595 L92.3014019,14.9965967 L92.3418499,16.7937454 L92.382298,18.5773818 L90.0093458,18.5773818 L87.6498763,18.5773818 L87.6498763,19.8610595 L87.6498763,21.1447372 L90.1172073,21.1717619 L92.5710555,21.2122991 L92.6115036,23.0094479 L92.6519516,24.7930843 L88.0543568,24.7930843 L83.4702446,24.7930843 L83.4702446,16.6856462 Z M14.1110637,33.3011834 C14.1557367,33.3011834 14.5450294,33.094677 15.118484,32.7701668 L15.118484,32.7701668 L15.5805982,32.5060414 C15.9083517,32.3170511 16.272117,32.1040913 16.651837,31.8782249 L16.651837,31.8782249 L17.0955407,31.6200005 C18.2766772,30.9303178 19.4097703,30.2510454 19.7398537,30.0402367 C20.1111975,29.8030769 21.8115611,28.7753846 23.4923804,27.7674556 C25.5836322,26.5421302 26.7758412,25.712071 27.1667294,25.1982249 C28.2214168,23.8650995 28.3323644,23.2293546 28.3390387,16.9067897 L28.3390387,16.9067897 L28.33918,15.473736 C28.3361286,10.916198 28.297891,9.90426663 28.0641744,9.10355804 L28.0641744,9.10355804 L28.0285579,8.98750197 C28.0038585,8.91062043 27.9772241,8.83420118 27.9485057,8.75514793 C27.4598955,7.39147929 26.4044974,6.3835503 24.1373459,5.05940828 C23.1796698,4.48627219 21.3620397,3.39928994 20.1307419,2.64828402 C16.1436823,0.197633136 15.7137053,0.0197633136 14.169697,0 C13.0361212,0 12.5865998,0.098816568 11.785279,0.533609467 C10.8902248,1.00389566 8.83292539,2.215195 6.78969673,3.45023538 L6.2336852,3.78711429 C3.92578894,5.18873822 1.77415375,6.53681681 1.50491954,6.77881657 C1.2117534,7.05550296 0.762231975,7.72745562 0.48861024,8.2808284 L0.48861024,8.2808284 L-1.49213975e-13,9.26899408 L0.0009161442,18.4559241 C0.00654388715,22.5158182 0.0467420511,23.1527786 0.333871793,23.820535 L0.333871793,23.820535 L0.375560361,23.9142577 C0.404449619,23.9773361 0.435561129,24.042071 0.469065831,24.1112426 C0.99676489,25.2970414 1.8371745,26.0678107 3.75252665,27.1745562 C4.53430303,27.6291124 5.64833438,28.3010651 6.19557785,28.676568 C6.76236573,29.052071 7.27052038,29.3485207 7.3096092,29.3485207 C7.36824242,29.3485207 8.87316196,30.2378698 10.6907921,31.3248521 C12.4888777,32.4118343 14.0328861,33.3011834 14.1110637,33.3011834 Z M14.0524305,29.1311243 C13.8960752,29.1311243 13.2511097,28.7951479 12.6061442,28.3801183 C11.9611787,27.9650888 10.0458265,26.7990533 8.3454629,25.7713609 C5.06200209,23.8147929 4.28022571,23.1626036 3.75252665,22.0360947 C3.54253787,21.5810788 3.39394117,19.2740193 3.34599889,16.9015114 L3.33544879,16.2541834 C3.31012958,14.2076741 3.3625475,12.2334911 3.51799373,11.4824852 C3.88933751,9.60497041 4.45612539,9.07136095 8.63862905,6.5416568 C12.5084222,4.2095858 13.6615423,3.73526627 14.8928401,3.99218935 C14.9514734,4.00371795 15.0068492,4.0151093 15.0609582,4.02741563 L15.0609582,4.02741563 L15.1680772,4.05356 C15.718893,4.19816395 16.27615,4.51536818 19.036255,6.16615385 L19.036255,6.16615385 L19.323475,6.33787073 L19.8630877,6.66157724 C23.3094937,8.73480743 23.786001,9.14995459 24.3132456,10.1978698 C24.4171863,10.4121221 24.4998664,10.5833769 24.5656347,10.7613595 L24.5656347,10.7613595 L24.6070225,10.881557 C24.795415,11.4726036 24.8182505,12.2482319 24.8210184,14.8720197 L24.8210184,14.8720197 L24.8211011,16.4075836 C24.8157164,19.4213881 24.7376385,21.1855664 24.5868673,21.7001183 C24.2155235,22.9254438 23.238303,23.7950296 20.0330199,25.6923077 C18.4303783,26.6409467 16.4759373,27.8069822 15.7137053,28.2813018 C14.9514734,28.7556213 14.2087858,29.1508876 14.0524305,29.1311243 Z M13.9547085,20.7712426 C14.0524305,20.7514793 14.4824075,20.0597633 14.8928401,19.2494675 C15.3032727,18.4589349 15.7137053,17.7672189 15.8114274,17.7276923 C15.9091494,17.6881657 16.6713814,18.0439053 17.4922466,18.4984615 C18.3131118,18.9530178 18.9971661,19.2889941 19.036255,19.2494675 C19.0753438,19.2099408 19.466232,18.4391716 19.9157534,17.5498225 L20.7170742,15.9292308 L19.6812205,15.3560947 C16.1632268,13.3402367 14.267419,12.4113609 14.0915193,12.6287574 C13.9937973,12.7473373 13.6029091,13.4983432 13.2120209,14.2888757 C12.8211327,15.059645 12.4693333,15.7118343 12.4302445,15.7118343 C12.3911557,15.7118343 11.7266458,15.3560947 10.9644138,14.9015385 C10.2021818,14.4469822 9.45949425,14.1307692 9.32268339,14.1900592 C9.20541693,14.2493491 8.7363511,14.9805917 8.30637409,15.8106509 C7.56368652,17.2731361 7.54414211,17.332426 7.91548589,17.5498225 C9.38131661,18.4391716 13.8178976,20.7910059 13.9547085,20.7712426 Z" id="Combined-Shape" transform="translate(46.325976, 16.650592) scale(1, -1) translate(-46.325976, -16.650592) "></path>
                    </g>
                </g>
            </g>
        </g>
    </g>
</svg>