<?xml version="1.0" encoding="UTF-8"?>
<svg width="110px" height="32px" viewBox="0 0 110 32" version="1.1" xmlns="http://www.w3.org/2000/svg" xmlns:xlink="http://www.w3.org/1999/xlink">
    <title>Triptyk</title>
    <g id="Symbols" stroke="none" stroke-width="1" fill="none" fill-rule="evenodd">
        <g id="2021-/-sponsor-grid" transform="translate(-326.000000, -99.000000)" fill-rule="nonzero">
            <g id="sponsors" transform="translate(0.000000, 1.070008)">
                <g id="row-2" transform="translate(0.000000, 72.929992)">
                    <g id="Triptyk" transform="translate(326.000000, 25.000000)">
                        <g id="Group" transform="translate(0.000000, 0.000000)" fill="#555555">
                            <path d="M100.364541,20.1464877 L109.079396,9.77498881 L101.932841,9.77498881 L95.0626398,18.7912975 L95.0040716,18.7912975 L95.0040716,9.77498881 L83.2087248,9.77498881 L79.1542282,15.6697092 L75.0999776,9.77498881 L55.4404922,9.77498881 L55.4404922,12.1610291 C54.3687919,10.8449664 52.7630872,10.0705369 50.7973602,9.77498881 L40.0035794,9.77498881 L40.0035794,31.84217 L45.7789485,31.84217 L45.7789485,24.4785682 L49.0491723,24.4785682 C54.0850559,24.4785682 56.9130649,22.1806264 56.9130649,16.9372931 C56.9130649,16.0435123 56.8114318,15.2395526 56.6160403,14.52 L60.2125727,14.52 L60.2125727,31.8424161 L65.9859732,31.8424161 L65.9859732,14.5197539 L71.546264,14.5197539 L76.2674049,21.1773378 L76.2674049,31.84217 L82.0408054,31.84217 L82.0408054,21.1773378 L89.2284564,11.0445414 L89.2284564,31.84217 L95.0040716,31.84217 L95.0040716,22.2099105 L95.0626398,22.2099105 L102.514094,31.84217 L109.997047,31.84217 L100.364541,20.1464877 Z M46.7509843,19.8238702 L45.7787025,19.8238702 L45.7787025,14.2849888 L46.7509843,14.2849888 C48.9901119,14.2849888 50.9048993,14.3142729 50.9048993,17.1132438 C50.9048993,19.8238702 48.8414765,19.8238702 46.7509843,19.8238702 Z" id="Shape"></path>
                            <path d="M38.3447204,1.11082774 C39.0568904,1.8503132 39.4107606,2.73621924 39.4107606,3.76879195 C39.4107606,4.77404922 39.0568904,5.63854586 38.3447204,6.36400447 C37.6308277,7.09167785 36.7606711,7.45342282 35.7261298,7.45342282 C34.6955257,7.45342282 33.8231544,7.09167785 33.1112304,6.36400447 C32.4012752,5.63854586 32.0434676,4.77404922 32.0434676,3.76879195 C32.0434676,2.73597315 32.4012752,1.8503132 33.1112304,1.11082774 C33.8231544,0.371588367 34.6955257,0 35.7261298,0 C36.7609172,0 37.6308277,0.371588367 38.3447204,1.11082774 Z" id="Path"></path>
                            <path d="M32.788613,9.77498881 L32.788613,30.8447875 L26.5712752,22.7399776 C29.7241163,22.1806264 31.4334228,19.5285682 31.4334228,16.4660403 C31.4334228,12.4236018 29.0102237,10.310962 25.57783,9.77498881 L0,9.77498881 L0,14.5197539 L4.77404922,14.5197539 L4.77404922,31.84217 L10.5474497,31.84217 L10.5474497,14.5197539 L15.0827964,14.5197539 L15.0827964,31.84217 L20.856443,31.84217 L20.856443,23.2993289 L20.9150112,23.2993289 L26.3657942,31.84217 L38.5600447,31.84217 L38.5600447,9.77498881 L32.788613,9.77498881 Z M21.4175168,19.5871365 L20.856443,19.5871365 L20.856443,14.0485011 L21.4175168,14.0485011 C23.3010515,14.0485011 25.4227964,14.4023714 25.4227964,16.8176957 C25.4230425,19.2332662 23.3010515,19.5871365 21.4175168,19.5871365 Z" id="Shape"></path>
                        </g>
                        <g id="Group" fill="#000000">
                            <path d="M100.364541,20.1464877 L109.079396,9.77498881 L101.932841,9.77498881 L95.0626398,18.7912975 L95.0040716,18.7912975 L95.0040716,9.77498881 L83.2087248,9.77498881 L79.1542282,15.6697092 L75.0999776,9.77498881 L55.4404922,9.77498881 L55.4404922,12.1610291 C54.3687919,10.8449664 52.7630872,10.0705369 50.7973602,9.77498881 L40.0035794,9.77498881 L40.0035794,31.84217 L45.7789485,31.84217 L45.7789485,24.4785682 L49.0491723,24.4785682 C54.0850559,24.4785682 56.9130649,22.1806264 56.9130649,16.9372931 C56.9130649,16.0435123 56.8114318,15.2395526 56.6160403,14.52 L60.2125727,14.52 L60.2125727,31.8424161 L65.9859732,31.8424161 L65.9859732,14.5197539 L71.546264,14.5197539 L76.2674049,21.1773378 L76.2674049,31.84217 L82.0408054,31.84217 L82.0408054,21.1773378 L89.2284564,11.0445414 L89.2284564,31.84217 L95.0040716,31.84217 L95.0040716,22.2099105 L95.0626398,22.2099105 L102.514094,31.84217 L109.997047,31.84217 L100.364541,20.1464877 Z M46.7509843,19.8238702 L45.7787025,19.8238702 L45.7787025,14.2849888 L46.7509843,14.2849888 C48.9901119,14.2849888 50.9048993,14.3142729 50.9048993,17.1132438 C50.9048993,19.8238702 48.8414765,19.8238702 46.7509843,19.8238702 Z M38.3447204,1.11082774 C39.0568904,1.8503132 39.4107606,2.73621924 39.4107606,3.76879195 C39.4107606,4.77404922 39.0568904,5.63854586 38.3447204,6.36400447 C37.6308277,7.09167785 36.7606711,7.45342282 35.7261298,7.45342282 C34.6955257,7.45342282 33.8231544,7.09167785 33.1112304,6.36400447 C32.4012752,5.63854586 32.0434676,4.77404922 32.0434676,3.76879195 C32.0434676,2.73597315 32.4012752,1.8503132 33.1112304,1.11082774 C33.8231544,0.371588367 34.6955257,-1.28785871e-14 35.7261298,-1.28785871e-14 C36.7609172,-1.28785871e-14 37.6308277,0.371588367 38.3447204,1.11082774 Z M32.788613,9.77498881 L32.788613,30.8447875 L26.5712752,22.7399776 C29.7241163,22.1806264 31.4334228,19.5285682 31.4334228,16.4660403 C31.4334228,12.4236018 29.0102237,10.310962 25.57783,9.77498881 L-7.67386155e-13,9.77498881 L-7.67386155e-13,14.5197539 L4.77404922,14.5197539 L4.77404922,31.84217 L10.5474497,31.84217 L10.5474497,14.5197539 L15.0827964,14.5197539 L15.0827964,31.84217 L20.856443,31.84217 L20.856443,23.2993289 L20.9150112,23.2993289 L26.3657942,31.84217 L38.5600447,31.84217 L38.5600447,9.77498881 L32.788613,9.77498881 Z M21.4175168,19.5871365 L20.856443,19.5871365 L20.856443,14.0485011 L21.4175168,14.0485011 C23.3010515,14.0485011 25.4227964,14.4023714 25.4227964,16.8176957 C25.4230425,19.2332662 23.3010515,19.5871365 21.4175168,19.5871365 Z" id="Combined-Shape"></path>
                        </g>
                    </g>
                </g>
            </g>
        </g>
    </g>
</svg>