<?xml version="1.0" encoding="UTF-8"?>
<svg width="117px" height="22px" viewBox="0 0 117 22" version="1.1" xmlns="http://www.w3.org/2000/svg" xmlns:xlink="http://www.w3.org/1999/xlink">
    <title>Wyeworks</title>
    <g id="Symbols" stroke="none" stroke-width="1" fill="none" fill-rule="evenodd">
        <g id="2021-/-sponsor-grid" transform="translate(-487.000000, -404.000000)" fill="#000000" fill-rule="nonzero">
            <g id="sponsors" transform="translate(0.000000, 1.070008)">
                <g id="row-5" transform="translate(112.999765, 394.134753)">
                    <g id="Wyeworks" transform="translate(374.000235, 8.974438)">
                        <polygon id="Path" points="0 0.260468 3.62809 0.260468 5.11587 13.151701 6.96907 0.286512 9.86632 0.286512 11.7978 13.099601 13.2856 0.260468 16.8615 0.260468 14.1469 21.355201 10.4667 21.355201 8.43075 7.995201 6.47314 21.355201 2.74065 21.355201"></polygon>
                        <polygon id="Path" points="21.197 12.995401 17.073 0.260468 21.1187 0.260468 23.3895 7.682681 25.4776 0.260468 29.4189 0.260468 25.3471 12.995401 25.3471 21.355201 21.197 21.355201"></polygon>
                        <polygon id="Path" points="30.4685 0.260468 39.6823 0.260468 39.6823 3.229351 34.7491 3.229351 34.7491 8.828571 38.5599 8.828571 38.5599 11.823501 34.7491 11.823501 34.7491 18.438401 39.7345 18.438401 39.7345 21.355201 30.4685 21.355201"></polygon>
                        <polygon id="Path" points="40.4149 0.260429 44.043 0.260429 45.5308 13.151601 47.384 0.286473 50.2812 0.286473 52.2127 13.099601 53.7005 0.260429 57.2764 0.260429 54.5619 21.355101 50.8816 21.355101 48.8457 7.995161 46.8881 21.355101 43.1556 21.355101"></polygon>
                        <path d="M64.6937,21.641601 C62.449,21.641601 60.8481,21.060001 59.891,19.896701 C58.934,18.716101 58.4555,16.988601 58.4555,14.714201 L58.4555,6.849271 C58.4555,4.574861 58.934,2.864711 59.891,1.718831 C60.8481,0.572943 62.449,0 64.6937,0 C66.921,0 68.5132,0.581625 69.4702,1.744871 C70.4447,2.890761 70.9319,4.592221 70.9319,6.849271 L70.9319,14.740301 C70.9319,16.997301 70.4447,18.716101 69.4702,19.896701 C68.5132,21.060001 66.921,21.641601 64.6937,21.641601 Z M64.6937,18.568601 C65.4245,18.568601 65.9118,18.325501 66.1554,17.839401 C66.4164,17.335901 66.5469,16.650101 66.5469,15.782001 L66.5469,5.807561 C66.5469,4.939461 66.4164,4.271031 66.1554,3.802261 C65.9118,3.316121 65.4245,3.073061 64.6937,3.073061 C63.9629,3.073061 63.4669,3.316121 63.2059,3.802261 C62.9623,4.271031 62.8405,4.939461 62.8405,5.807561 L62.8405,15.782001 C62.8405,16.667401 62.9623,17.353201 63.2059,17.839401 C63.4495,18.325501 63.9454,18.568601 64.6937,18.568601 Z" id="Shape"></path>
                        <path d="M73.0245,0.260429 L78.5058,0.260429 C80.7853,0.260429 82.4993,0.677115 83.6478,1.510491 C84.7962,2.343861 85.3705,3.784901 85.3705,5.833601 C85.3705,7.205191 85.1791,8.316351 84.7962,9.167091 C84.4134,10.000501 83.7348,10.634201 82.7603,11.068201 L85.6837,21.355101 L81.2726,21.355101 L78.8712,11.797401 L77.3051,11.797401 L77.3051,21.355101 L73.0245,21.355101 L73.0245,0.260429 Z M78.5841,9.245211 C79.5934,9.245211 80.2981,9.002151 80.6983,8.516021 C81.1159,8.012521 81.3248,7.231231 81.3248,6.172161 C81.3248,5.130441 81.142,4.366521 80.7766,3.880391 C80.4112,3.394251 79.75,3.151191 78.7929,3.151191 L77.3051,3.151191 L77.3051,9.245211 L78.5841,9.245211 Z" id="Shape"></path>
                        <polygon id="Path" points="87.4588 0.260429 91.7394 0.260429 91.7394 9.167091 95.5763 0.260429 99.7525 0.260429 95.7851 9.740031 100.066 21.355101 95.7068 21.355101 92.4441 11.927601 91.7394 13.073501 91.7394 21.355101 87.4588 21.355101"></polygon>
                        <path d="M106.201,21.641601 C104.252,21.641601 102.791,21.112101 101.816,20.053001 C100.842,18.976601 100.311,17.318501 100.224,15.078801 L103.93,14.453801 C103.965,15.790701 104.148,16.780301 104.479,17.422701 C104.827,18.047701 105.34,18.360201 106.018,18.360201 C106.523,18.360201 106.889,18.204001 107.115,17.891401 C107.341,17.561601 107.454,17.144901 107.454,16.641401 C107.454,15.808001 107.263,15.104901 106.88,14.531901 C106.514,13.941601 105.931,13.299201 105.131,12.604701 L102.939,10.703601 C102.068,9.974401 101.399,9.193131 100.929,8.359761 C100.476,7.526391 100.25,6.528081 100.25,5.364831 C100.25,3.646001 100.755,2.326491 101.764,1.406311 C102.791,0.468772 104.2,0 105.992,0 C107.906,0 109.238,0.555581 109.986,1.666741 C110.734,2.760541 111.16,4.158181 111.265,5.859641 L107.532,6.406541 C107.498,5.295381 107.367,4.479371 107.141,3.958511 C106.932,3.420291 106.506,3.151191 105.862,3.151191 C105.392,3.151191 105.027,3.333491 104.766,3.698091 C104.505,4.045321 104.374,4.462011 104.374,4.948141 C104.374,5.642621 104.522,6.232921 104.818,6.719061 C105.131,7.187831 105.618,7.708691 106.28,8.281631 L108.42,10.156701 C109.429,11.042201 110.221,11.979701 110.795,12.969301 C111.369,13.941601 111.656,15.087501 111.656,16.407001 C111.656,17.414001 111.43,18.316801 110.978,19.115501 C110.525,19.896701 109.882,20.513101 109.046,20.964501 C108.228,21.415901 107.28,21.641601 106.201,21.641601 Z" id="Path"></path>
                        <ellipse id="Oval" cx="114.955" cy="19.194901" rx="2.04481" ry="2.04022"></ellipse>
                    </g>
                </g>
            </g>
        </g>
    </g>
</svg>