<svg width="850px" height="265.3px" id="Layer_1" data-name="Layer 1" xmlns="http://www.w3.org/2000/svg" xmlns:xlink="http://www.w3.org/1999/xlink" viewBox="0 0 850 265.3"><defs><style>.cls-1,.cls-2{fill:none;}.cls-2{clip-path:url(#clip-path);clip-rule:evenodd;}.cls-3{clip-path:url(#clip-path-2);}.cls-4{fill:#2d3748;}</style><clipPath id="clip-path"><rect class="cls-1" x="5" y="5" width="840" height="256"/></clipPath><clipPath id="clip-path-2"><path class="cls-2" d="M6.73,69.72V99.53h53L5,203.11H112.6v-30H62.54L114.47,69.72Zm207.62,85.86a38,38,0,0,1-31.24,15.85c-19.49,0-34.17-14.8-34.17-34.87,0-18.5,13.08-35.14,33.37-35.14a40,40,0,0,1,32,15.85v38.31Zm34.71-83.22H215.69V82.67a59.74,59.74,0,0,0-37.92-13c-35.24,0-63.54,29.06-63.54,66.84a68.39,68.39,0,0,0,16.55,44.91c11.48,13.2,29.64,21.66,48.86,21.66a54.53,54.53,0,0,0,36.05-12.95v10.31h33.37V72.36ZM263.49,260.3H298.2V191.5a55,55,0,0,0,34.71,11.63c19.22,0,37.65-8.46,49.13-21.66a68.19,68.19,0,0,0,16.28-44.91c0-37.78-28.3-66.84-63.54-66.84a59.74,59.74,0,0,0-37.92,13V72.36H263.49V260.3Zm37.49-143a40,40,0,0,1,32-15.85c20.29,0,33.37,16.64,33.37,35.14,0,20.07-14.68,34.87-34.17,34.87A38,38,0,0,1,301,155.58V117.27Zm142.87,85.84V117.27c4.8-6.6,16.82-15.85,31.5-15.85,8,0,14.95,2.64,19.49,7.13,4.81,4.76,7.75,11.36,7.75,24v70.52H537.3V135.24c0-21.93-4.81-34.87-13.35-44.91a58.61,58.61,0,0,0-44.86-20.61,57.46,57.46,0,0,0-36.58,13V72.36H409.14V203.11ZM586.79,72.36H552.08V203.11h34.71V72.36ZM569.44,48.85c12.55,0,22.7-9.51,22.7-21.92S582,5,569.44,5s-22.69,9.51-22.69,21.93,10.14,21.92,22.69,21.92ZM718.28,192.21c-15.08,10.91-32,10.9-37.36,10.9-20.83,0-36-6.85-44.86-18.47-6.67-8.72-9.61-20.08-9.61-38.31V101.42H601.22V72.36h25.23V36.7h34.71V72.36h28.3v29.06h-28.3v48.87c0,7.93,1.33,12.68,4.27,16.12,3.47,4,9.08,6.34,17.62,6.34a59,59,0,0,0,18.66-4,77,77,0,0,0,16.57,23.48Zm57.83,10.92c39.25,0,68.89-29.59,68.89-66.57s-29.64-66.84-68.89-66.84-68.88,29.85-68.88,66.84,29.64,66.57,68.88,66.57Zm0-101.71c20.3,0,34.18,15.85,34.18,35.14s-13.88,34.87-34.18,34.87-34.17-15.59-34.17-34.87,13.88-35.14,34.17-35.14Z"/></clipPath></defs><title>Zapnito-Wordmark</title><g class="cls-3"><rect class="cls-4" width="850" height="265.3"/></g></svg>