<svg height="122" viewBox="0 0 791 122" width="791" xmlns="http://www.w3.org/2000/svg"><g fill="none"><g fill="#689f38" transform="translate(0 7)"><path d="m110.6 24.8c-7 0-13.5 6.4-13.5 29.9 0 2 0 3.9.1 5.7l23.2-28.2c-2.6-5.9-6.2-7.4-9.8-7.4zm-11.2 49.6c2.2 6.1 5.8 8.5 11 8.5 6.4 0 13.1-5.7 13.1-29.1 0-3.1-.1-5.8-.3-8.3z"/><path d="m202.7.3h-194.7c-4.2 0-7.6 3.4-7.6 7.6v92.4c0 4.2 3.4 7.6 7.6 7.6h194.7c4.2 0 7.6-3.4 7.6-7.6v-92.4c0-4.1-3.4-7.6-7.6-7.6zm-126.6 93.8h-60.7v-11c8.7-6.1 41.6-31.2 41.6-47.2 0-8.3-6.5-11-11.3-11-8.3 0-13 6-13.8 13.5h-16.1c0-9.2 6.3-26.6 30.5-26.6 12.3 0 27.3 6.1 27.3 23.3 0 16.2-16.1 31-35.5 46.4v.2c2.6-.3 5.7-.7 8.3-.7h29.6v13.1zm33.1 1.9c-15.6 0-29.6-9-29.6-40 0-33.5 15.6-44.3 32.2-44.3 17.5 0 29.2 14 29.2 42.1-.1 28.7-15 42.2-31.8 42.2zm87.6-1.9h-48v-11.7h15.5v-52.2c-1.4 1.1-2.5 2.2-4 3.2l-11.3 7.4-3.4-9.9 23.2-17.1h12.3v68.7h15.7z"/></g><path d="m69.9 77h18.2l-.9 31.2c-11 3.8-20.8 5.1-32.9 5.1-33.8 0-54-20.1-54-51.6 0-27.4 17.6-53 54.9-53 12.9 0 23.5 2.5 33.4 5.9v28.2h-18.2v-16.2c-5.1-1.7-9.1-2.3-14.3-2.3-24.3 0-32.9 17.6-32.9 36.1 0 15.3 6.6 36.4 34.1 36.4 2.9 0 8.2-.3 11.8-1.4zm41.5-26.3h-9.8v-14.7h29.3c0 5.2-.3 10.3-1.3 17.3h.3c3-12.7 10.1-19.1 21.7-19.1 2.5 0 4.5.4 6.6.9l-1.3 18.1c-2.2-.4-4.5-.7-6.5-.7-11 0-18.8 7.5-18.8 19.9v24.4h9.5v14.7h-38v-14.7h8.2zm72.5 27.6c.6 12 9.8 19.4 24 19.4 9.7 0 15.9-1.6 24.4-5.2l-1 16c-9.4 3.5-17.6 4.8-27.9 4.8-29.2 0-41.4-18.2-41.4-39.1 0-23.5 14.3-39.9 38-39.9 26 0 36.5 19.6 36.5 44zm30.6-13.9c0-10.4-5.9-16.3-15.3-16.3-9.2 0-14.6 6.1-15.5 16.3zm78.9-1c0-11.4-4.8-14.4-14.3-14.4-2.9 0-9.1.9-12.6 2.2v10.1h-17.3v-19.2c4.9-2.7 16.8-7.8 30.2-7.8 20.2 0 33.1 7.1 33.1 29 0 12.4-.4 22.8-.7 33.5h8.5v14.7h-25.4v-4.6c0-4.9.3-7.5 1-10.4h-.3c-5.1 11.4-12 16.8-24.7 16.8-17 0-25.3-10.1-25.3-21.9 0-10.8 7.2-17.9 15.2-20.8 7.7-2.7 17.9-3.5 32.6-3.5zm-6 16c-16.5 0-21.7 3.5-21.7 10 0 4.5 3.2 9.1 11.1 9.1 8.1 0 16.2-5.2 16.2-19.1zm47.4-59 20.2-1.2v16.8h20.2v14.7h-20.2v33.6c0 10.7 2.7 13.3 11.1 13.3 2.7 0 6.1-.9 9.8-2.3l-.7 14.3c-7.5 2.6-12.7 3.6-17.6 3.6-14.9 0-22.8-6.9-22.8-20.2v-42.3h-10.3v-14.7h10.3zm66.8 57.9c.6 12 9.8 19.4 24 19.4 9.7 0 15.9-1.6 24.4-5.2l-1 16c-9.4 3.5-17.6 4.8-27.9 4.8-29.2 0-41.4-18.2-41.4-39.1 0-23.5 14.3-39.9 38-39.9 26 0 36.5 19.6 36.5 44zm30.6-13.9c0-10.4-5.9-16.3-15.3-16.3-9.2 0-14.6 6.1-15.5 16.3zm84.9-49.2h-11.6v-14.7h31.8v96.3h8.7v14.7h-28.4c0-5.5.6-9.8 1.7-14.6h-.3c-4.6 10.5-13 16.3-25.7 16.3-16.6 0-30.8-12-30.8-34.5 0-20.6 10-44.5 42.2-44.5 3.5 0 8.4.6 12.4 1.7zm-.6 38.2c-2.7-1.4-8.4-2.7-12.9-2.7-14.6 0-20.1 11.6-20.1 23.2 0 11.8 5.6 21.9 15.5 21.9 10.7 0 17.5-9.5 17.5-21.1z" fill="#000" transform="translate(245)"/></g></svg>