<svg id="Layer_1" xmlns="http://www.w3.org/2000/svg" viewBox="0 0 153.7 28.6"><style>.st0{fill:#000;}</style><path class="st0" d="M58.8 20.7l-1.2-3H52l-1.2 3h-3l5.6-13.3h2.7l5.7 13.3h-3zm-4-9.8L53 15.2h3.5l-1.7-4.3zm15.5 9.8h-5.1V7.5h5.1c4.1 0 7 2.8 7 6.6 0 3.7-2.9 6.6-7 6.6m4-6.6c0-2.3-1.6-4-4-4h-2.2V18h2.2c2.4.1 4-1.5 4-3.9zm12.3 6.6h-5.1V7.5h5.1c4.1 0 7 2.8 7 6.6 0 3.7-2.9 6.6-7 6.6m3.9-6.6c0-2.3-1.6-4-4-4h-2.2V18h2.2c2.4.1 4-1.5 4-3.9zm7.3 6.6V7.5h10v2.6h-7.1v2.7h6.2v2.6h-6.2v2.7h7.1v2.6zm20-3.9h-2.2v4h-2.9V7.5h5.4c3.1 0 5 1.9 5 4.6 0 3.1-2.3 4.7-5.3 4.7m2.4-4.7c0-1.3-.9-2-2.4-2h-2.2v4h2.3c1.5.1 2.3-.8 2.3-2zm15.5 8.6l-1.2-3h-5.6l-1.2 3h-3l5.7-13.3h2.7l5.7 13.3h-3.1zm-4-9.8l-1.8 4.3h3.5l-1.7-4.3zm18.6 9.8l-2.8-4.2h-2.3v4.2h-2.9V7.5h6c3.1 0 5 1.6 5 4.4 0 2.1-1.2 3.5-2.8 4.1l3.2 4.7h-3.4zm0-8.7c0-1.2-.9-1.9-2.3-1.9h-2.9v3.8h2.9c1.5 0 2.3-.7 2.3-1.9zM12.9 28.6H0L18.2 0h12.9zm17.1 0h12.9l-8.5-13.4H21.5z"/></svg>