<svg xmlns="http://www.w3.org/2000/svg" width="624" height="418" viewBox="0 0 624 418">
  <g fill="#EC3825" transform="translate(-1)">
    <path d="M428.5 256.5C419.7 255.6 404.2 253.5 384.7 263.3 365.2 273.1 357.6 273.5 348 272.5 350.8 277.6 356.5 284.7 374.4 285.9 392.3 287.2 400.8 287.7 391.4 310 391.6 303.3 390 290.3 372.3 292.5 354.6 294.8 350.4 310.8 369.4 318.7 363.2 319.9 350.1 320.7 340.7 296.2 334.2 299 324.2 304.7 306 290.7 312.3 293 320.1 293.1 320.1 293.1 304 285.4 288.6 271.1 278.7 257.6 286.5 263.4 295.2 269.2 303.9 270.3 293.6 257.7 269.8 232.6 240.6 206.7 259.4 218.9 282 238.3 319 234 356.2 229.7 381.1 221.2 428.5 256.5M269.9 247.7C246.7 237.6 241.7 235.6 211.8 228 181.9 220.4 152.6 204.6 132.9 180 146.8 190.2 175 210.6 204.1 208.3 199.7 201.8 191.5 196.8 181.8 191.7 192.9 194.5 226.1 202.9 269.9 247.7M219.4 161.8C213.4 144.6 202.6 122.6 151.4 89.9 126.4 73.4 89.8 52.7 41.6 0 45 14.2 60.2 51.2 137 99.2 162.2 116.4 194.8 127 219.4 161.8M222.5 186.7C216.2 172.2 203.5 153.5 153.9 126.9 131 114.1 91.9 94.4 56.7 56.9 59.9 70.4 76.2 100.2 146.5 137.3 166 147.9 198.9 158 222.5 186.7"/>
    <path d="M270.7 111.5C173.9 83.8 135.5 48.9 105.7 12.3 119.3 54.4 151.7 69.5 186.3 97.7 220.9 126 222.9 141.2 233.1 157.9 255.8 195.1 259.5 201.3 282 217.5 308.6 235.1 340.7 223.2 376 228.7 411.3 234.2 440.4 261.1 446.7 271.5 454.1 258.3 436.4 239.3 431.7 234.5 434.3 217.2 393.4 209.6 377.9 203.7 374.9 202.5 367.3 200.8 373.9 185.3 382.7 163.9 391.9 145.3 270.7 111.5M410.3 225C428.6 227.8 427.7 231.7 427.9 238.4 420.1 229.9 410.3 225 410.3 225M28 360.9C41 360.9 47.5 367.8 47.5 367.8L45.5 370.3C45.5 370.3 39 364.1 28.1 364.1 14.7 364.1 4.5 374.6 4.5 388.8 4.5 403 14.6 414.2 28.4 414.2 40.1 414.2 46.9 406.8 46.9 406.8L49 409.1C49 409.1 41.7 417.4 28.4 417.4 12.5 417.4 1 404.6 1 388.8.9 372.9 12.7 360.9 28 360.9M69.7 361.9L85.7 361.9C90.8 361.9 93.4 362.4 95.5 363.5 100 365.8 103.1 370.4 103.1 376.6 103.1 384.4 98.6 390.2 92.2 391.7L92.2 391.9C92.2 391.9 92.7 392.5 93.4 393.8L105.7 416.5 101.7 416.5 88.7 392.3 73 392.3 73 416.5 69.6 416.5 69.6 361.9 69.7 361.9zM87.9 389.2C95.1 389.2 99.6 384 99.6 376.6 99.6 371.8 97.2 367.9 93.2 366.1 91.6 365.4 89.9 365 85.5 365L73 365 73 389.2 87.9 389.2 87.9 389.2zM149.7 360.9C164.9 360.9 177.3 373.1 177.3 388.8 177.3 404.9 164.9 417.4 149.7 417.4 134.5 417.4 122.1 404.8 122.1 388.8 122.1 373.1 134.5 360.9 149.7 360.9M149.7 414.2C163 414.2 173.8 403.1 173.8 388.8 173.8 374.8 163 364.1 149.7 364.1 136.4 364.1 125.6 374.8 125.6 388.8 125.6 403.2 136.4 414.2 149.7 414.2M225.1 366.6C225.1 366.6 224 371.8 223 375.3L211.4 416.5 207.2 416.5 192.8 361.9 196.3 361.9 207.9 406.4C208.6 409.1 209.2 412.3 209.2 412.3L209.4 412.3C209.5 412.3 210.1 409.2 210.9 406.4L223.4 361.9 227.2 361.9 239.7 406.4C240.5 409.1 241.1 412.3 241.2 412.3L241.4 412.3C241.4 412.3 242 409.1 242.7 406.4L254.6 361.9 258.1 361.9 243.3 416.5 239.1 416.5 227.5 375.3C226.5 371.8 225.4 366.6 225.4 366.6L225.3 366.6 225.1 366.6zM277.4 361.9L294.6 361.9C310.8 361.9 321.8 371.9 321.8 389.2 321.8 406.6 310.8 416.5 294.6 416.5L277.4 416.5 277.4 361.9zM294 413.4C308.5 413.4 318.3 404.9 318.3 389.2 318.3 373.6 308.5 365 294 365L280.7 365 280.7 413.4 294 413.4zM342.2 404.3C342.2 404.3 348.1 410.2 356.2 410.2 361.4 410.2 365.7 407.3 365.7 402.1 365.7 390.2 339 392.7 339 375.8 339 367.2 346.4 360.4 356.8 360.4 367 360.4 372.4 365.9 372.4 365.9L368.9 372.3C368.9 372.3 363.8 367.5 356.8 367.5 350.9 367.5 346.8 371.2 346.8 375.5 346.8 386.9 373.5 383.9 373.5 401.7 373.5 410.2 366.9 417.2 356 417.2 344.3 417.2 337.7 409.9 337.7 409.9L342.2 404.3z"/>
    <polygon points="404.3 368.1 385.4 368.1 385.4 361.4 430.9 361.4 430.9 368.1 412 368.1 412 416.5 404.3 416.5"/>
    <path d="M446.5,361.4 L463.4,361.4 C469.2,361.4 471.6,361.9 473.7,362.6 C479.3,364.7 483,370.3 483,377.5 C483,384.5 479.1,390.5 473.1,392.4 L473.1,392.6 C473.1,392.6 473.7,393.3 474.7,395.1 L486.4,416.5 L477.7,416.5 L466.1,394.6 L454.3,394.6 L454.3,416.5 L446.6,416.5 L446.6,361.4 L446.5,361.4 Z M465.4,387.9 C471.4,387.9 475.2,384.1 475.2,377.9 C475.2,373.8 473.7,371 470.8,369.4 C469.3,368.6 467.5,368.2 463.2,368.2 L454.3,368.2 L454.3,387.9 L465.4,387.9 Z"/>
    <rect width="7.7" height="55.1" x="504.3" y="361.4"/>
    <polygon points="534.8 361.4 542.6 361.4 542.6 384.6 550.8 384.6 564.7 361.4 573.2 361.4 557.2 387.5 557.2 387.7 574.2 416.5 565.4 416.5 550.8 391.2 542.6 391.2 542.6 416.5 534.8 416.5"/>
    <polygon points="591.2 361.4 623.2 361.4 623.2 368.1 599 368.1 599 385.4 618.7 385.4 618.7 392.1 599 392.1 599 409.8 624.6 409.8 624.6 416.5 591.2 416.5"/>
  </g>
</svg>
