<?xml version="1.0" encoding="UTF-8" standalone="no"?>
<svg
   xmlns:dc="http://purl.org/dc/elements/1.1/"
   xmlns:cc="http://creativecommons.org/ns#"
   xmlns:rdf="http://www.w3.org/1999/02/22-rdf-syntax-ns#"
   xmlns:svg="http://www.w3.org/2000/svg"
   xmlns="http://www.w3.org/2000/svg"
   viewBox="0 0 255.33333 67.333336"
   height="67.333336"
   width="255.33333"
   xml:space="preserve"
   id="svg2"
   version="1.1"><metadata
     id="metadata8"><rdf:RDF><cc:Work
         rdf:about=""><dc:format>image/svg+xml</dc:format><dc:type
           rdf:resource="http://purl.org/dc/dcmitype/StillImage" /></cc:Work></rdf:RDF></metadata><defs
     id="defs6"><clipPath
       id="clipPath20"
       clipPathUnits="userSpaceOnUse"><path
         id="path18"
         d="M 195.73,163.277 H 950.109 V 348.035 H 195.73 Z" /></clipPath><clipPath
       id="clipPath34"
       clipPathUnits="userSpaceOnUse"><path
         id="path32"
         d="m 1022.05,127.211 h -67.37 v 233.84 h 78.1 -10.73 v -233.84" /></clipPath><clipPath
       id="clipPath48"
       clipPathUnits="userSpaceOnUse"><path
         id="path46"
         d="m 1100.18,127.211 h -78.13 10.73 v 233.84 h 67.4 v -233.84" /></clipPath><clipPath
       id="clipPath62"
       clipPathUnits="userSpaceOnUse"><path
         id="path60"
         d="m 1022.05,127.211 h 10.7305 v 233.84 H 1022.05 Z" /></clipPath><clipPath
       id="clipPath76"
       clipPathUnits="userSpaceOnUse"><path
         id="path74"
         d="m 1022.05,127.211 h 10.7305 v 233.84 H 1022.05 Z" /></clipPath><clipPath
       id="clipPath82"
       clipPathUnits="userSpaceOnUse"><path
         id="path80"
         d="m 1047.61,167 c 0,-12.781 4.52,-22.547 13.28,-29.062 8.79,-6.782 19.05,-10.282 30.58,-10.532 l 8.78,-0.25 v 19.547 c -6.01,1.75 -10.28,3.766 -12.78,6.266 -4.26,4.015 -6.51,10.531 -6.51,19.547 v 31.078 c -0.25,10.531 -2.27,18.797 -6.02,24.562 -3.76,6.016 -11.28,11.282 -22.31,15.797 12.28,5.516 20.3,13.031 24.56,22.047 2.5,5.266 3.77,12.531 3.77,21.813 v 28.312 c 0,9.281 1.75,16.047 5.5,19.813 2.51,2.25 7.03,4.25 13.79,5.765 v 19.547 c -8.28,0 -14.54,-0.5 -19.04,-1.5 -7.28,-1.266 -13.55,-4.266 -19.05,-8.531 -5.77,-4.516 -10.03,-10.781 -12.55,-18.797 -1.25,-4.516 -2,-8.766 -2,-13.031 v -32.828 c 0,-11.532 -3,-20.063 -8.76,-25.829 -3.27,-3.25 -8.78,-6.265 -16.8,-8.765 v -15.031 c 7.02,-2.016 12.53,-4.516 16.3,-8.032 6.26,-5.515 9.26,-13.281 9.26,-23.562 z" /></clipPath><clipPath
       id="clipPath98"
       clipPathUnits="userSpaceOnUse"><path
         id="path96"
         d="m 1121.99,163.277 h 349.813 v 186.52 H 1121.99 Z" /></clipPath><clipPath
       id="clipPath112"
       clipPathUnits="userSpaceOnUse"><path
         id="path110"
         d="m 1483.85,165.961 h 74.6094 v 171.32 H 1483.85 Z" /></clipPath><clipPath
       id="clipPath126"
       clipPathUnits="userSpaceOnUse"><path
         id="path124"
         d="m 1647.64,127.211 h -67.42 v 233.84 h 78.13 -10.71 v -233.84" /></clipPath><clipPath
       id="clipPath140"
       clipPathUnits="userSpaceOnUse"><path
         id="path138"
         d="m 1725.75,127.211 h -78.11 10.71 v 233.84 h 67.4 v -233.84" /></clipPath><clipPath
       id="clipPath154"
       clipPathUnits="userSpaceOnUse"><path
         id="path152"
         d="m 1647.64,127.211 h 10.7109 v 233.84 H 1647.64 Z" /></clipPath><clipPath
       id="clipPath168"
       clipPathUnits="userSpaceOnUse"><path
         id="path166"
         d="m 1647.64,127.211 h 10.7109 v 233.84 H 1647.64 Z" /></clipPath><clipPath
       id="clipPath174"
       clipPathUnits="userSpaceOnUse"><path
         id="path172"
         d="m 1656.4,127.406 c 12.03,0.25 22.31,4 31.08,10.782 8.53,6.765 12.78,16.281 12.78,28.812 v 38.344 c 0,10.531 3.27,18.547 9.78,24.062 3.52,3.016 8.77,5.516 15.8,7.532 v 15.031 c -8.53,2.75 -14.3,5.765 -17.55,9.015 -5.26,5.266 -8.03,14.047 -8.03,25.579 v 32.828 c 0,4.765 -1,10.031 -3.25,16.297 -2,6.265 -5.76,11.515 -11.28,15.531 -5.52,4.265 -12.03,7.265 -19.3,8.531 -4.26,1 -10.53,1.5 -18.79,1.5 v -19.547 c 7.01,-1.515 12.03,-3.765 15.03,-7.031 2.76,-3.25 4.26,-9.516 4.26,-18.547 v -28.312 c 0,-10.782 2,-19.297 6.02,-26.063 4.01,-6.766 11.53,-12.531 22.31,-17.797 -9.78,-4.265 -17.05,-9.031 -21.56,-14.547 -4.52,-5.765 -6.77,-14.281 -6.77,-25.812 v -31.078 c -0.25,-8.766 -2.25,-15.282 -6.51,-19.547 -2.5,-2.25 -6.77,-4.516 -12.78,-6.266 v -19.547 z" /></clipPath></defs><g
     transform="matrix(1.3333333,0,0,-1.3333333,0,67.333333)"
     id="g10"><g
       transform="scale(0.1)"
       id="g12"><g
         id="g14"><g
           clip-path="url(#clipPath20)"
           id="g16"><g
             transform="scale(10)"
             id="g22"><text
               id="text26"
               style="font-variant:normal;font-weight:bold;font-size:25.03660011px;font-family:Helvetica;-inkscape-font-specification:Helvetica-Bold;writing-mode:lr-tb;fill:#e64741;fill-opacity:1;fill-rule:nonzero;stroke:none"
               transform="matrix(1,0,0,-1,17.5449,16.7781)"><tspan
                 id="tspan24"
                 y="0"
                 x="0 16.699411 38.956951 54.254311 68.178108">Ember</tspan></text>
</g></g></g><g
         id="g28"><g
           clip-path="url(#clipPath34)"
           id="g30"><g
             transform="scale(10)"
             id="g36"><text
               id="text40"
               style="font-variant:normal;font-weight:bold;font-size:25.03660011px;font-family:Helvetica;-inkscape-font-specification:Helvetica-Bold;writing-mode:lr-tb;fill:#e64741;fill-opacity:1;fill-rule:nonzero;stroke:none"
               transform="matrix(1,0,0,-1,95.4668,17.7781)"><tspan
                 id="tspan38"
                 y="0"
                 x="0">{</tspan></text>
</g></g></g><g
         id="g42"><g
           clip-path="url(#clipPath48)"
           id="g44"><g
             transform="scale(10)"
             id="g50"><text
               id="text54"
               style="font-variant:normal;font-weight:bold;font-size:25.03660011px;font-family:Helvetica;-inkscape-font-specification:Helvetica-Bold;writing-mode:lr-tb;fill:#e64741;fill-opacity:1;fill-rule:nonzero;stroke:none"
               transform="matrix(1,0,0,-1,102.205,17.7781)"><tspan
                 id="tspan52"
                 y="0"
                 x="0">{</tspan></text>
</g></g></g><g
         id="g56"><g
           clip-path="url(#clipPath62)"
           id="g58"><g
             transform="scale(10)"
             id="g64"><text
               id="text68"
               style="font-variant:normal;font-weight:bold;font-size:25.03660011px;font-family:Helvetica;-inkscape-font-specification:Helvetica-Bold;writing-mode:lr-tb;fill:#e64741;fill-opacity:1;fill-rule:nonzero;stroke:none"
               transform="matrix(1,0,0,-1,95.4668,17.7781)"><tspan
                 id="tspan66"
                 y="0"
                 x="0">{</tspan></text>
</g></g></g><g
         id="g70"><g
           clip-path="url(#clipPath76)"
           id="g72"><g
             clip-path="url(#clipPath82)"
             id="g78"><path
               id="path84"
               style="fill:#e64741;fill-opacity:1;fill-rule:nonzero;stroke:none"
               d="m 1022.05,127.211 h 10.7305 v 233.84 H 1022.05 Z" /><g
               transform="scale(10)"
               id="g86"><text
                 id="text90"
                 style="font-variant:normal;font-weight:bold;font-size:25.03660011px;font-family:Helvetica;-inkscape-font-specification:Helvetica-Bold;writing-mode:lr-tb;fill:#e64741;fill-opacity:1;fill-rule:nonzero;stroke:none"
                 transform="matrix(1,0,0,-1,95.4668,17.7781)"><tspan
                   id="tspan88"
                   y="0"
                   x="0">{</tspan></text>
</g></g></g></g><g
         id="g92"><g
           clip-path="url(#clipPath98)"
           id="g94"><g
             transform="scale(10)"
             id="g100"><text
               id="text104"
               style="font-variant:normal;font-weight:bold;font-size:25.03660011px;font-family:Helvetica;-inkscape-font-specification:Helvetica-Bold;writing-mode:lr-tb;fill:#e64741;fill-opacity:1;fill-rule:nonzero;stroke:none"
               transform="matrix(1,0,0,-1,111.948,16.7781)"><tspan
                 id="tspan102"
                 y="0"
                 x="0 8.3378954 22.2617">fes</tspan></text>
</g></g></g><g
         id="g106"><g
           clip-path="url(#clipPath112)"
           id="g108"><g
             transform="scale(10)"
             id="g114"><text
               id="text118"
               style="font-variant:normal;font-weight:bold;font-size:25.03660011px;font-family:Helvetica;-inkscape-font-specification:Helvetica-Bold;writing-mode:lr-tb;fill:#e64741;fill-opacity:1;fill-rule:nonzero;stroke:none"
               transform="matrix(1,0,0,-1,148.134,16.7781)"><tspan
                 id="tspan116"
                 y="0"
                 x="0">t</tspan></text>
</g></g></g><g
         id="g120"><g
           clip-path="url(#clipPath126)"
           id="g122"><g
             transform="scale(10)"
             id="g128"><text
               id="text132"
               style="font-variant:normal;font-weight:bold;font-size:25.03660011px;font-family:Helvetica;-inkscape-font-specification:Helvetica-Bold;writing-mode:lr-tb;fill:#e64741;fill-opacity:1;fill-rule:nonzero;stroke:none"
               transform="matrix(1,0,0,-1,157.473,17.7781)"><tspan
                 id="tspan130"
                 y="0"
                 x="0">}</tspan></text>
</g></g></g><g
         id="g134"><g
           clip-path="url(#clipPath140)"
           id="g136"><g
             transform="scale(10)"
             id="g142"><text
               id="text146"
               style="font-variant:normal;font-weight:bold;font-size:25.03660011px;font-family:Helvetica;-inkscape-font-specification:Helvetica-Bold;writing-mode:lr-tb;fill:#e64741;fill-opacity:1;fill-rule:nonzero;stroke:none"
               transform="matrix(1,0,0,-1,164.212,17.7781)"><tspan
                 id="tspan144"
                 y="0"
                 x="0">}</tspan></text>
</g></g></g><g
         id="g148"><g
           clip-path="url(#clipPath154)"
           id="g150"><g
             transform="scale(10)"
             id="g156"><text
               id="text160"
               style="font-variant:normal;font-weight:bold;font-size:25.03660011px;font-family:Helvetica;-inkscape-font-specification:Helvetica-Bold;writing-mode:lr-tb;fill:#e64741;fill-opacity:1;fill-rule:nonzero;stroke:none"
               transform="matrix(1,0,0,-1,157.473,17.7781)"><tspan
                 id="tspan158"
                 y="0"
                 x="0">}</tspan></text>
</g></g></g><g
         id="g162"><g
           clip-path="url(#clipPath168)"
           id="g164"><g
             clip-path="url(#clipPath174)"
             id="g170"><path
               id="path176"
               style="fill:#e64741;fill-opacity:1;fill-rule:nonzero;stroke:none"
               d="m 1647.64,127.211 h 10.7109 v 233.84 H 1647.64 Z" /><g
               transform="scale(10)"
               id="g178"><text
                 id="text182"
                 style="font-variant:normal;font-weight:bold;font-size:25.03660011px;font-family:Helvetica;-inkscape-font-specification:Helvetica-Bold;writing-mode:lr-tb;fill:#e64741;fill-opacity:1;fill-rule:nonzero;stroke:none"
                 transform="matrix(1,0,0,-1,157.473,17.7781)"><tspan
                   id="tspan180"
                   y="0"
                   x="0">}</tspan></text>
</g></g></g></g></g></g></svg>