<svg viewBox="204.514 256.619 431.971 115.762" style="fill-rule:evenodd" xmlns="http://www.w3.org/2000/svg">
  <defs>
    <style type="text/css">
      .fil1 {fill:black}
      .fil0 {fill:#002B36}
      .fil2 {fill:#2DB561}
    </style>
  </defs>
  <path class="fil1" d="M221.097 371.814c4.1462,0.0197 7.6892,-1.0512 10.7187,-3.2915 1.8996,-1.404 3.4087,-3.3472 1.4466,-5.6116 -0.9174,-1.0584 -3.0282,-1.5767 -5.0972,0.2038 -1.6173,1.3918 -4.622,1.9054 -7.0681,1.6992 -2.3786,-0.2008 -5.0311,-1.4886 -6.5244,-3.0584 -1.1592,-1.2189 -1.9709,-2.9225 -2.3108,-4.4856l21.612 0c1.9965,0 3.602,-1.2908 3.602,-3.3301 0,0 0,0 0,0 0,0 0,0 0,0 0,-8.9695 -7.547,-16.107 -16.3788,-16.107 -9.3108,0 -16.5829,7.7474 -16.5829,16.9905 0,9.2431 7.2722,16.9462 16.5829,16.9907zm0 -27.3249c5.9303,0.1028 9.3788,4.2856 10.0583,7.0041l-19.2333 0c0.5436,-2.7866 3.3932,-7.1043 9.175,-7.0041zm57.1157 0.6156c3.738,0 6.8643,3.127 6.8643,7.0001l0 16.107c0,1.9702 1.699,3.6022 3.6699,3.6022 1.9709,0 3.602,-1.6313 3.602,-3.6022l0 -16.107c0,-7.8836 -6.3205,-14.272 -14.1362,-14.272 -4.2816,0 -8.1555,1.7669 -10.67,4.6894 -2.5827,-2.9225 -6.3886,-4.6894 -10.6702,-4.6894 -2.5825,0 -5.0972,0.7476 -7.2719,2.0388 -0.5438,-1.2912 -1.8351,-2.0388 -3.2623,-2.0388 -1.9709,0 -3.602,1.5643 -3.602,3.6699l0 26.7091c0,2.0377 1.6414,3.6022 3.602,3.6022 2.0451,0 3.6701,-1.7173 3.6701,-3.7254l0 -15.9838c0,-3.8739 3.1262,-7.0001 6.8641,-7.0001 3.8059,0 6.9341,3.0583 7.0001,6.7963 0.0011,0.0672 0,0.1366 0,0.2038l0 16.107c0,1.9702 1.7671,3.6022 3.6701,3.6022 0,0 0,0 0,0 0,0 0,0 0,0 1.9709,0 3.6019,-1.6313 3.6019,-3.6022l0 -16.107c0,-0.0679 -0.0022,-0.1366 0,-0.2038 0.1329,-3.738 3.1942,-6.7963 7.0681,-6.7963zm20.308 23.0392c0,1.9707 1.6311,3.6701 3.6701,3.6701 1.8348,0 3.2621,-1.2914 3.6019,-2.9225 2.5825,1.7671 5.8448,2.9225 9.2428,2.9225 9.175,0 16.515,-7.7477 16.515,-16.9228 0,-9.3108 -7.34,-17.0584 -16.515,-17.0584 -3.3301,0 -6.5922,1.0872 -9.1069,2.8544l0 -12.777c0,-1.9709 -1.6311,-3.6699 -3.7378,-3.6699 -2.039,0 -3.6701,1.6992 -3.6701,3.6699l0 40.2337zm10.1264 -20.1168c1.699,-1.7671 3.8739,-2.7864 6.3884,-2.7864 2.4468,0 4.6894,1.0193 6.3886,2.7864 1.699,1.699 2.7185,4.1456 2.7185,6.8641 0,2.5827 -1.0195,5.0293 -2.7185,6.7285 -1.6992,1.7669 -3.9418,2.7864 -6.3886,2.7864 -2.5145,0 -4.6894,-1.0195 -6.3884,-2.7864 -1.699,-1.6992 -2.7185,-4.1458 -2.7185,-6.7285 0,-2.7185 1.0195,-5.1651 2.7185,-6.8641zm43.6899 23.7869c4.3349,0.0206 8.01,-1.1504 11.1286,-3.6041 1.7602,-1.3841 2.7939,-3.2716 1.0367,-5.299 -0.9176,-1.0588 -3.2639,-1.4618 -5.0972,0.2038 -1.5795,1.4351 -4.6218,1.9058 -7.0681,1.6992 -2.379,-0.201 -5.0309,-1.4882 -6.5244,-3.0584 -1.1596,-1.2191 -1.9709,-2.9225 -2.3107,-4.4856l21.6119 0c2.2156,0 3.7197,-1.5799 3.602,-3.6699 -0.5396,-9.175 -7.5438,-15.7672 -16.3788,-15.7672 -9.3108,0 -16.5829,7.7474 -16.5829,16.9905 0,9.2431 7.2721,16.9459 16.5829,16.9907zm0 -27.3249c5.9307,0.103 9.3789,4.2856 10.0583,7.0041l-19.2333 0c0.5436,-2.7866 3.393,-7.1047 9.175,-7.0041zm38.71 -6.5884c-3.3982,-0.0416 -6.3299,1.1434 -8.5633,2.6506 -0.4839,0.3265 -1.0195,0.8835 -1.4273,1.3592l0 -0.4757c0,-1.9709 -1.699,-3.5341 -3.738,-3.5341 -1.9709,0 -3.602,1.5645 -3.602,3.5341l0 26.777c0,1.9696 1.6311,3.6022 3.602,3.6022 2.039,0 3.738,-1.6313 3.738,-3.6022l0 -12.4129c0,-2.8936 1.6149,-5.5692 3.4634,-7.4134 1.8687,-1.8639 3.7951,-3.2165 6.5272,-3.3488 2.0363,-0.0986 3.6019,-1.699 3.6019,-3.6019 0,-1.9709 -1.5641,-3.5091 -3.6019,-3.5341z" style=""/>
  <path class="fil2" d="M416.748 372.381c-2.4495,0 -4.7081,-0.4453 -6.7758,-1.336 -2.0678,-0.8909 -3.8572,-2.1075 -5.3682,-3.6504 -1.5111,-1.5428 -2.6959,-3.3641 -3.555,-5.4637 -0.8588,-2.0994 -1.2884,-4.3421 -1.2884,-6.728l0 -0.0954c0,-2.3859 0.4216,-4.6207 1.2647,-6.7043 0.8429,-2.0836 2.0279,-3.9127 3.5548,-5.4874 1.527,-1.5747 3.3401,-2.8154 5.4398,-3.7219 2.0996,-0.9067 4.4217,-1.3601 6.9666,-1.3601 1.5271,0 2.9188,0.1272 4.1753,0.3817 1.2566,0.2547 2.4097,0.6125 3.4596,1.0738 1.0497,0.4612 2.02,1.01 2.9106,1.6462 0.8907,0.6362 1.7337,1.336 2.529,2.0994l-3.7695 4.3423c-1.3362,-1.2406 -2.7518,-2.2427 -4.2469,-3.0061 -1.4952,-0.7634 -3.1971,-1.1451 -5.1057,-1.1451 -1.5907,0 -3.0618,0.31 -4.4138,0.9304 -1.352,0.6203 -2.5211,1.4634 -3.5073,2.5289 -0.9861,1.0657 -1.7496,2.3144 -2.2903,3.7458 -0.541,1.4316 -0.8113,2.9585 -0.8113,4.581l0 0.0954c0,1.6223 0.2703,3.1572 0.8113,4.6047 0.5407,1.4474 1.3042,2.7119 2.2903,3.7934 0.9862,1.0817 2.1553,1.9326 3.5073,2.5528 1.352,0.6204 2.8231,0.9306 4.4138,0.9306 2.0358,0 3.7855,-0.3896 5.2488,-1.169 1.4634,-0.7795 2.9108,-1.8371 4.3422,-3.1733l3.7697 3.8174c-0.8588,0.9226 -1.7576,1.7418 -2.696,2.4574 -0.9383,0.7158 -1.9483,1.3362 -3.03,1.8609 -1.0816,0.525 -2.2666,0.9227 -3.555,1.193 -1.2884,0.2705 -2.7119,0.4056 -4.2706,0.4056zm19.7071 -33.9744l5.8693 0 0 13.8855 15.9375 0 0 -13.8855 5.8691 0 0 33.4018 -5.8691 0 0 -14.0765 -15.9375 0 0 14.0765 -5.8693 0 0 -33.4018zm36.2649 0l24.7653 0 0 5.2487 -18.896 0 0 8.6846 16.7486 0 0 5.2489 -16.7486 0 0 8.9707 19.1345 0 0 5.2489 -25.0038 0 0 -33.4018zm47.4786 33.9744c-2.4495,0 -4.7082,-0.4453 -6.7758,-1.336 -2.0678,-0.8909 -3.8572,-2.1075 -5.3683,-3.6504 -1.511,-1.5428 -2.6959,-3.3641 -3.5549,-5.4637 -0.8589,-2.0994 -1.2884,-4.3421 -1.2884,-6.728l0 -0.0954c0,-2.3859 0.4216,-4.6207 1.2647,-6.7043 0.8428,-2.0836 2.0279,-3.9127 3.5547,-5.4874 1.5271,-1.5747 3.3402,-2.8154 5.4398,-3.7219 2.0996,-0.9067 4.4217,-1.3601 6.9667,-1.3601 1.527,0 2.9187,0.1272 4.1753,0.3817 1.2566,0.2547 2.4096,0.6125 3.4595,1.0738 1.0498,0.4612 2.02,1.01 2.9107,1.6462 0.8907,0.6362 1.7337,1.336 2.529,2.0994l-3.7696 4.3423c-1.3362,-1.2406 -2.7518,-2.2427 -4.2468,-3.0061 -1.4953,-0.7634 -3.1972,-1.1451 -5.1057,-1.1451 -1.5907,0 -3.0618,0.31 -4.4138,0.9304 -1.352,0.6203 -2.5211,1.4634 -3.5074,2.5289 -0.9861,1.0657 -1.7495,2.3144 -2.2903,3.7458 -0.5409,1.4316 -0.8112,2.9585 -0.8112,4.581l0 0.0954c0,1.6223 0.2703,3.1572 0.8112,4.6047 0.5408,1.4474 1.3042,2.7119 2.2903,3.7934 0.9863,1.0817 2.1554,1.9326 3.5074,2.5528 1.352,0.6204 2.8231,0.9306 4.4138,0.9306 2.0358,0 3.7855,-0.3896 5.2487,-1.169 1.4635,-0.7795 2.9109,-1.8371 4.3423,-3.1733l3.7697 3.8174c-0.8588,0.9226 -1.7576,1.7418 -2.6961,2.4574 -0.9383,0.7158 -1.9483,1.3362 -3.03,1.8609 -1.0815,0.525 -2.2665,0.9227 -3.5549,1.193 -1.2884,0.2705 -2.7119,0.4056 -4.2706,0.4056zm19.707 -33.9744l5.8694 0 0 16.7963 15.8897 -16.7963 7.2053 0 -13.8857 14.3628 14.5061 19.039 -7.1099 0 -11.4044 -15.0308 -5.2011 5.3442 0 9.6866 -5.8694 0 0 -33.4018zm48.2897 33.9268c-2.1632,0 -4.1196,-0.3102 -5.8691,-0.9306 -1.7497,-0.6204 -3.2448,-1.5508 -4.4855,-2.7915 -1.2406,-1.2406 -2.1949,-2.7755 -2.8631,-4.6047 -0.668,-1.8291 -1.0019,-3.9524 -1.0019,-6.3702l0 -19.2298 5.8691 0 0 18.9912c0,3.1175 0.7477,5.4876 2.2427,7.1099 1.4952,1.6224 3.5629,2.4335 6.2032,2.4335 2.6086,0 4.6604,-0.7792 6.1557,-2.3381 1.495,-1.5587 2.2426,-3.8809 2.2426,-6.9667l0 -19.2298 5.8692 0 0 18.9436c0,2.4813 -0.342,4.6603 -1.0259,6.5373 -0.684,1.8767 -1.6463,3.4435 -2.8869,4.7001 -1.2406,1.2565 -2.7437,2.1948 -4.5092,2.8152 -1.7656,0.6204 -3.7458,0.9306 -5.9409,0.9306zm35.1198 -16.5579c2.2268,0 3.9845,-0.5568 5.2728,-1.6701 1.2884,-1.1133 1.9325,-2.545 1.9325,-4.2945l0 -0.0954c0,-1.9724 -0.6522,-3.4595 -1.9564,-4.4616 -1.3042,-1.0021 -3.0539,-1.5032 -5.2489,-1.5032l-6.8234 0 0 12.0248 6.8234 0zm-12.6928 -17.3689l13.1699 0c1.9406,0 3.6982,0.2623 5.2729,0.7873 1.5746,0.5247 2.9106,1.2803 4.0082,2.2664 1.0975,0.9863 1.9405,2.1632 2.5289,3.5312 0.5886,1.3678 0.8828,2.8947 0.8828,4.5808l0 0.0954c0,1.8769 -0.3499,3.5231 -1.0497,4.9387 -0.6998,1.4157 -1.6541,2.6005 -2.8631,3.555 -1.2087,0.9543 -2.6244,1.678 -4.2468,2.1711 -1.6223,0.493 -3.356,0.7396 -5.2012,0.7396l-6.6325 0 0 10.7363 -5.8694 0 0 -33.4018z" style=""/>
  <path class="fil2" d="M364.868 256.619l0 0c2.7057,0 4.9192,2.2135 4.9192,4.9193l0 10.0407 10.0407 0c2.7058,0 4.9193,2.2135 4.9193,4.9193l0 0c0,2.7057 -2.2135,4.9192 -4.9193,4.9192l-10.0407 0 0 10.0407c0,2.7058 -2.2135,4.9193 -4.9192,4.9193l0 0c-2.7058,0 -4.9193,-2.2135 -4.9193,-4.9193l0 -10.0407 -10.0407 0c-2.7058,0 -4.9193,-2.2135 -4.9193,-4.9192l0 0c0,-2.7058 2.2135,-4.9193 4.9193,-4.9193l10.0407 0 0 -10.0407c0,-2.7058 2.2135,-4.9193 4.9193,-4.9193z" style=""/>
  <path class="fil1" d="M231.885 279.125c-1.0052,-5.4072 1.7533,-7.5565 6.0325,-7.5565l54.1655 0c3.7652,0 5.7584,2.4443 5.0219,6.2505l10.2267 0c-0.7365,-3.8062 1.2572,-6.2505 5.0224,-6.2505l25.479 0c-0.5605,1.5488 -0.8672,3.2174 -0.8672,4.9556 0,1.8077 0.3311,3.5402 0.9353,5.1409l-18.8796 0 8.89 27.3685 28.829 0 1.2211 -6.4182c2.1252,1.2056 4.5782,1.8958 7.1876,1.8958 0.9329,0 1.8458,-0.0893 2.7309,-0.2576l-1.8686 10.0505c-0.6835,3.6767 -2.8992,4.826 -6.9215,4.826l-33.2105 0c-4.2711,0 -5.6897,-1.3372 -6.9215,-5.1435l-8.4238 -26.0285 -16.6314 0 -8.4238 26.0285c-1.2318,3.8063 -2.6504,5.1435 -6.9215,5.1435l-33.2105 0c-4.0223,0 -6.238,-1.1493 -6.9215,-4.826l-6.5405 -35.179zm110.922 8.1816c-2.9713,0 -5.3947,3.5139 -5.3947,7.8222 0,4.3084 2.4234,7.8223 5.3947,7.8223 2.9712,0 5.3946,-3.5139 5.3946,-7.8223 0,-4.3083 -2.4234,-7.8222 -5.3946,-7.8222zm-81.1776 0c2.9713,0 5.3947,3.5139 5.3947,7.8222 0,4.3084 -2.4234,7.8223 -5.3947,7.8223 -2.9712,0 -5.3946,-3.5139 -5.3946,-7.8223 0,-4.3083 2.4234,-7.8222 5.3946,-7.8222zm-19.1402 -5.6416l42.926 0 -8.89 27.3685 -28.829 0 -5.207 -27.3685z"/>
</svg>