<?xml version="1.0" encoding="utf-8"?>
<!-- Generator: Adobe Illustrator 23.0.4, SVG Export Plug-In . SVG Version: 6.00 Build 0)  -->
<svg version="1.1" id="Layer_1" xmlns="http://www.w3.org/2000/svg" xmlns:xlink="http://www.w3.org/1999/xlink" x="0px" y="0px"
	 viewBox="0 0 274.3 75" style="enable-background:new 0 0 274.3 75;" xml:space="preserve">
<style type="text/css">
	.st0{fill-rule:evenodd;clip-rule:evenodd;fill:url(#Background_1_);}
	.st1{fill-rule:evenodd;clip-rule:evenodd;fill:#FFFFFF;}
	.st2{fill:#333333;}
	.st3{font-family:'AvenirNext-Medium';}
	.st4{font-size:36.2068px;}
</style>
<title>Icons / EmberMap (text)</title>
<desc>Created with Sketch.</desc>
<g>
	<g>
		
			<linearGradient id="Background_1_" gradientUnits="userSpaceOnUse" x1="40.9506" y1="134.2746" x2="38.6877" y2="136.5375" gradientTransform="matrix(31.9825 0 0 -31.9825 -1236.392 4368.0767)">
			<stop  offset="0" style="stop-color:#FF9C40"/>
			<stop  offset="1" style="stop-color:#FF5757"/>
		</linearGradient>
		<path id="Background" class="st0" d="M37.1,1.3L37.1,1.3c20,0,36.2,16.2,36.2,36.2l0,0c0,20-16.2,36.2-36.2,36.2l0,0
			c-20,0-36.2-16.2-36.2-36.2l0,0C0.9,17.5,17.1,1.3,37.1,1.3z"/>
		<path id="Center-flap-Copy" class="st1" d="M28.1,46c0,1.3-0.9,2.6-2.1,3l-9.3,3.4c-1.2,0.4-2.1-0.3-2.1-1.5V28.3
			c0-1.3,0.9-2.6,2.1-3l9.3-3.4c1.2-0.4,2.1,0.3,2.1,1.5V46z"/>
		<path id="Center-flap-Copy-2" class="st1" d="M30.4,46c0,1.3,0.9,2.6,2.1,3l9.3,3.4c1.2,0.4,2.1-0.3,2.1-1.5V28.3
			c0-1.3-0.9-2.6-2.1-3l-9.3-3.4c-1.2-0.4-2.1,0.3-2.1,1.5V46z"/>
		<path id="Center-flap-Copy-3" class="st1" d="M59.8,46.5c0,1.3-1,2.6-2.2,3l-9.3,3.1c-1.2,0.4-2.2-0.3-2.2-1.6V28.4
			c0-1.3,1-2.6,2.2-3l9.3-3.1c1.2-0.4,2.2,0.3,2.2,1.6V46.5z"/>
	</g>
	<text transform="matrix(1 0 0 1 89.1913 51.0498)" class="st2 st3 st4">EmberMap</text>
</g>
</svg>
