<?xml version="1.0" encoding="utf-8"?>
<!-- Generator: Adobe Illustrator 22.1.0, SVG Export Plug-In . SVG Version: 6.00 Build 0)  -->
<svg version="1.1" id="Ebene_1" xmlns="http://www.w3.org/2000/svg" xmlns:xlink="http://www.w3.org/1999/xlink" x="0px" y="0px"
	 viewBox="0 0 365 128.1" style="enable-background:new 0 0 365 128.1;" xml:space="preserve">
<style type="text/css">
	.st0{fill:#DDDCDE;}
	.st1{fill:#AD0E3A;}
	.st2{fill:#FFFFFF;}
</style>
<title>Plan de travail 1</title>
<rect y="28.6" class="st0" width="365" height="99.5"/>
<rect x="19.7" class="st1" width="326.8" height="87.9"/>
<path class="st2" d="M50.5,18.7h7.2V43h0.1l9.4-10h8.3L63.7,45.6l12.8,16.2H68L57.8,48.5h-0.1v13.3h-7.2L50.5,18.7z"/>
<path class="st2" d="M80.1,18.7h7.2v34.6c0,2,0.8,2.6,2.1,2.6c0.6,0,1.2-0.1,1.8-0.4l1.4,5.6c-1.7,0.7-3.5,1-5.4,1
	c-4.8,0-7.2-2.4-7.2-6.9L80.1,18.7z"/>
<path class="st2" d="M95.5,47.3c0-8.6,5.8-15,14.4-15s14.4,6.4,14.4,15s-5.8,15.1-14.4,15.1S95.5,56,95.5,47.3z M116.8,47.3
	c0-5.3-2.4-9.2-6.9-9.2s-6.9,3.9-6.9,9.2c0,5.4,2.4,9.2,6.9,9.2S116.8,52.7,116.8,47.3z"/>
<path class="st2" d="M128.1,47.4c0-8.6,4.7-15.1,13-15.1c8.1,0,12.8,5.8,12.8,15.4v1.7h-18.4c0.1,4.4,3.3,7.3,8.1,7.3
	c2.6,0,5.1-0.7,7.3-1.9l2.2,5c-3.1,1.8-6.6,2.7-10.2,2.7C132.3,62.4,128.1,55.2,128.1,47.4z M146.4,44.3c-0.1-3.3-1.7-6.5-5.5-6.5
	c-3.6,0-5.6,3-5.6,6.5H146.4z"/>
<path class="st2" d="M157.7,47.6c-0.3-8.2,6.2-15.1,14.4-15.3c0.3,0,0.5,0,0.8,0c2.7-0.1,5.4,0.6,7.7,1.9v6.1c-2-1.5-4.5-2.3-7-2.3
	c-5.4,0-8.5,4-8.5,9.3c0,5.9,3.2,9.1,8.2,9.1c2.4,0,4.7-0.7,6.7-1.9l2.1,5c-2.9,1.9-6.4,2.8-9.9,2.8C162.9,62.4,157.7,56,157.7,47.6
	z"/>
<path class="st2" d="M186.2,18.7h7.2V43h0.1l9.4-10h8.3l-11.8,12.5l12.8,16.2h-8.5l-10.2-13.3h-0.1v13.3h-7.2L186.2,18.7z"/>
<path class="st2" d="M215.4,33h6.2l0.7,3.2c3-2.4,6.3-4,9.9-4c4.6,0,9.2,2.3,9.2,10.5v19h-7.3V45c0-3.5-0.7-6.4-4.4-6.4
	c-2.6,0.2-5.1,1.3-7.1,3v20.1h-7.2L215.4,33z"/>
<path class="st2" d="M246.5,47.4c0-8.6,4.7-15.1,13-15.1c8.1,0,12.8,5.8,12.8,15.4v1.7h-18.4c0.1,4.4,3.3,7.3,8.1,7.3
	c2.6,0,5.1-0.7,7.3-1.9l2.2,5c-3.1,1.8-6.6,2.7-10.2,2.7C250.7,62.4,246.5,55.2,246.5,47.4z M264.9,44.3c-0.1-3.3-1.7-6.5-5.5-6.5
	c-3.6,0-5.6,3-5.6,6.5H264.9z"/>
<path class="st2" d="M277.4,33h6.1l0.8,3.2c2.6-2.6,5-4,7.9-4c1.4,0,2.9,0.4,4.1,1.2l-2.6,6.1c-1-0.6-2.1-1-3.3-1
	c-1.9,0-3.5,0.8-5.8,2.9v20.3h-7.2L277.4,33z"/>
<path class="st2" d="M296.6,58.1c0.1-2.2,2-4,4.2-3.9c2.2,0.1,4,2,3.9,4.2c-0.1,2.2-1.8,3.9-4,3.9C298.4,62.3,296.6,60.5,296.6,58.1
	C296.6,58.2,296.6,58.2,296.6,58.1z"/>
<path class="st2" d="M310.4,24c-0.1-2.5,1.8-4.5,4.3-4.6c2.5-0.1,4.5,1.8,4.6,4.3c0.1,2.5-1.8,4.5-4.3,4.6c-0.1,0-0.1,0-0.2,0
	c-2.4,0.1-4.4-1.8-4.4-4.1C310.4,24.1,310.4,24.1,310.4,24z M311.2,33h7.3v28.8h-7.3V33z"/>
</svg>
