<svg xmlns="http://www.w3.org/2000/svg" viewBox="0 0 125 40"><path fill="#151C26" d="M44.099 10.06h3.785v20.219h-3.785zM54.973 30.278H51.19V16.255h3.783v14.023zm0-17.381H51.19v-2.839h3.783v2.839zM61.545 16.255l.168 2.008c.467-.717 1.041-1.274 1.722-1.672.683-.398 1.447-.596 2.295-.596 1.417 0 2.522.445 3.318 1.335.795.89 1.192 2.285 1.192 4.186v8.762h-3.797V21.51c0-.945-.19-1.614-.571-2.008-.381-.392-.955-.589-1.724-.589-.501 0-.95.102-1.347.304a2.8 2.8 0 0 0-.999.865V30.28h-3.783V16.255h3.526zM77.888 24.406h-1.037v5.871h-3.784V10.058h3.784V21.53h.933l3.253-5.277h4.382l-4.485 6.35 5.171 7.674h-4.342zM88.271 30.277V18.912h-2.087v-2.659h2.087v-1.554c0-1.573.452-2.784 1.359-3.635s2.183-1.276 3.824-1.276c.321 0 .648.022.979.071.333.046.698.114 1.096.201l-.324 2.813a15.647 15.647 0 0 0-.603-.092 5.17 5.17 0 0 0-.68-.039c-.613 0-1.079.168-1.393.506-.316.336-.474.821-.474 1.451v1.556h2.788v2.657h-2.788v11.365h-3.784zM100.75 30.278h-3.783V16.255h3.783v14.023zm0-17.381h-3.783v-2.839h3.783v2.839z"/><g fill="#151C26"><path d="M111.235 19.506l-1.386-.039c-.561 0-1.024.117-1.386.352a2.184 2.184 0 0 0-.829.984v9.474h-3.771V16.253h3.513l.168 2.074c.328-.734.752-1.306 1.276-1.718a2.856 2.856 0 0 1 1.809-.615c.189 0 .365.015.525.046.16.029.321.066.486.11l-.405 3.356zM119.025 18.91c-.7 0-1.254.268-1.659.803-.407.537-.658 1.24-.751 2.113l.039.066h4.639v-.338c0-.804-.187-1.446-.564-1.925-.375-.477-.944-.719-1.704-.719m.337 11.639c-2.021 0-3.637-.647-4.847-1.944-1.211-1.296-1.814-2.941-1.814-4.938v-.518c0-2.081.572-3.799 1.718-5.146 1.145-1.347 2.68-2.016 4.607-2.008 1.893 0 3.36.571 4.407 1.711 1.045 1.14 1.568 2.682 1.568 4.627v2.061h-8.372l-.027.076c.07.921.379 1.678.928 2.271.547.595 1.293.892 2.235.892.838 0 1.534-.085 2.086-.253a9.753 9.753 0 0 0 1.814-.797l1.024 2.34c-.571.467-1.319.856-2.243 1.165-.923.308-1.951.461-3.084.461"/></g><g><path fill="#E52F19" d="M35.41 5.777a.342.342 0 0 0 .075-.367.345.345 0 0 0-.316-.211H14.912C6.676 5.199 0 11.826 0 20.001c0 8.171 6.676 14.8 14.912 14.8 4.135 0 7.832-1.653 10.538-4.341 4.267-4.14 6.67-11.93 8.542-19.026l.059-.226.134-.51a.337.337 0 0 0-.061-.292.347.347 0 0 0-.27-.132H31.32a.344.344 0 0 1-.316-.207.338.338 0 0 1 .075-.369l4.331-3.921z"/><path fill="#FFF" d="M21.177 12.066h-5.696a2.497 2.497 0 0 0-2.491 2.492v1.067h2.135v-1.067c0-.192.165-.357.356-.357h5.696c.193 0 .356.165.356.357v5.693a.36.36 0 0 1-.356.357h-5.696a.364.364 0 0 1-.356-.357v-1.067H12.99v1.067a2.495 2.495 0 0 0 2.491 2.492h5.696a2.493 2.493 0 0 0 2.49-2.492v-5.693a2.493 2.493 0 0 0-2.49-2.492m-3.914 12.457a.36.36 0 0 1-.357.355h-5.695a.36.36 0 0 1-.353-.355v-5.694c0-.195.162-.357.353-.357h5.695a.36.36 0 0 1 .357.357v1.065h2.135v-1.065a2.494 2.494 0 0 0-2.492-2.492h-5.695a2.495 2.495 0 0 0-2.49 2.492v5.692a2.492 2.492 0 0 0 2.49 2.49h5.695a2.492 2.492 0 0 0 2.492-2.49v-1.067h-2.135v1.069z"/></g></svg>