<?xml version="1.0" encoding="UTF-8" standalone="no"?><!DOCTYPE svg PUBLIC "-//W3C//DTD SVG 1.1//EN" "http://www.w3.org/Graphics/SVG/1.1/DTD/svg11.dtd"><svg width="100%" height="100%" viewBox="0 0 362 362" version="1.1" xmlns="http://www.w3.org/2000/svg" xmlns:xlink="http://www.w3.org/1999/xlink" xml:space="preserve" xmlns:serif="http://www.serif.com/" style="fill-rule:evenodd;clip-rule:evenodd;stroke-linejoin:round;stroke-miterlimit:1.41421;"><path d="M53.01,308.965c-70.677,-70.684 -70.682,-185.271 0,-255.955c70.679,-70.68 185.272,-70.68 255.956,0c70.683,70.684 70.674,185.271 0,255.955c-70.684,70.676 -185.272,70.684 -255.956,0" style="fill:#6d4887;fill-rule:nonzero;"/><path d="M283.328,90.299c-4.329,-10.228 -11.552,-16.724 -23.658,-18.857c-12.108,-2.133 -53.036,-6.971 -79.794,8.57c-26.758,15.54 -42.79,36.574 -42.79,36.574c0,0 -19.529,30.438 36.865,72.012c44.521,32.822 72.484,24.729 79.451,21.697c10.221,-4.448 22.307,-20.346 28.886,-35.61c6.577,-15.262 11.524,-55.989 1.04,-84.386m-37.376,139.678c0,0 -34.34,12.626 -82.288,-34.335c-47.951,-46.962 -35.255,-72.907 -35.255,-72.907c0,0 -12.45,-6.297 -20.248,1.374c-6.693,6.585 -65.359,67.043 -2.631,128.751c26.429,26.001 75.807,52.542 134.897,3.13c0,0 19.12,-13.967 5.525,-26.013m-146.117,35.53c-9.305,10.243 -19.111,3.203 -20.478,0.234c-1.62,-3.52 -6.414,-3.686 -11.007,-0.695c-4.591,2.99 -6.156,9.31 -0.594,14.666c2.85,2.746 11.598,7.519 22.319,7.282c8.919,-0.197 16.258,-8.383 16.258,-8.383c0,0 7.312,-8.644 3.159,-12.731c-4.666,-4.59 -9.657,-0.373 -9.657,-0.373" style="fill:#fff;fill-rule:nonzero;"/></svg>