<?xml version="1.0" encoding="UTF-8" standalone="no"?>
<!DOCTYPE svg PUBLIC "-//W3C//DTD SVG 1.1//EN" "http://www.w3.org/Graphics/SVG/1.1/DTD/svg11.dtd">
<svg width="100%" height="100%" viewBox="0 0 1674 255" version="1.1" xmlns="http://www.w3.org/2000/svg" xmlns:xlink="http://www.w3.org/1999/xlink" xml:space="preserve" xmlns:serif="http://www.serif.com/" style="fill-rule:evenodd;clip-rule:evenodd;stroke-linejoin:round;stroke-miterlimit:2;">
    <g transform="matrix(1,0,0,1,-0.00312496,0)">
        <g transform="matrix(4.16667,0,0,4.16667,0,0)">
            <path d="M55.807,30.802C55.807,25.958 51.973,22.306 46.886,22.306C41.799,22.306 37.963,25.958 37.963,30.802L37.963,41.951L42.179,41.951L42.179,30.831C42.179,27.925 44.069,25.972 46.886,25.972C49.703,25.972 51.595,27.925 51.595,30.831L51.595,41.951L55.807,41.951L55.807,30.802ZM35.648,23.696C35.648,18.98 31.968,15.421 27.087,15.421L15.71,15.421C14.544,15.421 13.56,16.408 13.56,17.57L13.56,41.98L17.859,41.98L17.859,32.049L27.087,32.049C31.968,32.049 35.648,28.457 35.648,23.696ZM67.431,33.779L53.607,57.72C52.566,59.527 50.012,61 47.931,61L20.282,61C18.202,61 15.646,59.527 14.606,57.72L0.78,33.779C-0.259,31.977 -0.259,29.025 0.78,27.222L14.606,3.28C15.646,1.475 18.202,0 20.282,0L47.931,0C50.012,0 52.566,1.475 53.607,3.28L67.431,27.222C68.471,29.025 68.471,31.977 67.431,33.779ZM31.307,23.696C31.307,26.432 29.174,28.498 26.342,28.498L17.859,28.498L17.859,18.976L26.342,18.976C29.222,18.976 31.307,20.96 31.307,23.696Z" style="fill:rgb(0,179,228);fill-rule:nonzero;"/>
        </g>
        <g transform="matrix(4.16667,0,0,4.16667,0,0)">
            <path d="M98.842,19.861L91.17,19.861L91.17,28.049L98.842,28.049C101.147,28.049 103.135,26.419 103.135,23.915C103.135,21.372 101.147,19.861 98.842,19.861ZM99.557,32.421L91.17,32.421L91.17,41.961L86.082,41.961L86.082,18.033C86.082,16.641 87.235,15.489 88.626,15.489L99.557,15.489C104.805,15.489 108.263,19.344 108.263,23.915C108.263,28.487 104.805,32.421 99.557,32.421Z" style="fill:rgb(50,62,73);fill-rule:nonzero;"/>
        </g>
        <g transform="matrix(4.16667,0,0,4.16667,0,0)">
            <path d="M115.775,33.335L115.775,41.961L110.926,41.961L110.926,22.604L115.656,22.604L115.656,26.101C116.491,24.313 119.353,22.246 122.254,22.246L122.254,26.817C117.961,26.817 115.775,29.48 115.775,33.335Z" style="fill:rgb(50,62,73);fill-rule:nonzero;"/>
        </g>
        <g transform="matrix(4.16667,0,0,4.16667,0,0)">
            <path d="M133.618,25.982C131.114,25.982 129.325,27.493 128.968,30.434L138.03,30.434C137.752,27.652 136.321,25.982 133.618,25.982ZM128.927,33.853C129.007,36.754 131.551,38.463 135.129,38.463C136.957,38.463 139.024,38.185 140.813,37.708L141.687,41.207C139.501,41.921 137.474,42.28 135.089,42.28C128.093,42.28 124.198,38.225 124.198,32.262C124.198,26.936 127.735,22.246 133.618,22.246C139.223,22.246 142.641,26.379 142.641,32.382L142.641,33.853L128.927,33.853Z" style="fill:rgb(50,62,73);fill-rule:nonzero;"/>
        </g>
        <g transform="matrix(4.16667,0,0,4.16667,0,0)">
            <path d="M156.117,42.28C149.677,42.28 145.424,37.907 145.424,32.262C145.424,26.619 149.677,22.246 156.117,22.246C157.906,22.246 159.575,22.484 161.165,23.081L160.37,26.579C159.018,26.26 157.667,26.141 156.514,26.141C152.301,26.141 150.274,28.645 150.274,32.262C150.274,35.879 152.301,38.423 156.514,38.423C157.866,38.423 158.899,38.225 160.37,37.828L161.165,41.365C159.813,41.882 157.707,42.28 156.117,42.28Z" style="fill:rgb(50,62,73);fill-rule:nonzero;"/>
        </g>
        <g transform="matrix(4.16667,0,0,4.16667,0,0)">
            <path d="M165.935,41.961L165.935,22.604L170.784,22.604L170.784,41.961L165.935,41.961ZM165.935,19.384L165.935,14.733L170.784,14.733L170.784,19.384L165.935,19.384Z" style="fill:rgb(50,62,73);fill-rule:nonzero;"/>
        </g>
        <g transform="matrix(4.16667,0,0,4.16667,0,0)">
            <path d="M183.067,42.28C180.562,42.28 177.542,41.564 175.157,40.531L176.23,37.152C178.575,37.987 181.039,38.543 183.027,38.543C185.571,38.543 186.446,37.788 186.446,36.714C186.446,35.562 185.69,35.244 182.749,34.051C177.581,31.945 175.872,30.912 175.872,27.652C175.872,24.035 178.655,22.246 183.703,22.246C185.571,22.246 188.393,22.564 190.5,23.28L189.665,26.817C188.075,26.379 185.69,25.982 183.782,25.982C181.238,25.982 180.523,26.459 180.523,27.493C180.523,28.765 181.437,29.082 184.855,30.434C189.705,32.342 191.176,33.256 191.176,36.516C191.176,39.974 187.956,42.28 183.067,42.28Z" style="fill:rgb(50,62,73);fill-rule:nonzero;"/>
        </g>
        <g transform="matrix(4.16667,0,0,4.16667,0,0)">
            <path d="M195.429,41.961L195.429,22.604L200.278,22.604L200.278,41.961L195.429,41.961ZM195.429,19.384L195.429,14.733L200.278,14.733L200.278,19.384L195.429,19.384Z" style="fill:rgb(50,62,73);fill-rule:nonzero;"/>
        </g>
        <g transform="matrix(4.16667,0,0,4.16667,0,0)">
            <path d="M214.15,26.022C211.05,26.022 209.221,28.526 209.221,32.262C209.221,35.999 211.05,38.463 214.15,38.463C217.251,38.463 219.159,35.999 219.159,32.262C219.159,28.526 217.251,26.022 214.15,26.022ZM214.15,42.28C208.267,42.28 204.333,37.589 204.333,32.262C204.333,26.936 208.267,22.246 214.15,22.246C220.033,22.246 224.009,26.936 224.009,32.262C224.009,37.589 220.033,42.28 214.15,42.28Z" style="fill:rgb(50,62,73);fill-rule:nonzero;"/>
        </g>
        <g transform="matrix(4.16667,0,0,4.16667,0,0)">
            <path d="M240.941,41.961L240.941,30.394C240.941,28.009 239.868,26.579 237.443,26.579C235.257,26.579 232.912,28.487 232.912,31.189L232.912,41.961L228.062,41.961L228.062,22.604L232.793,22.604L232.793,25.665C234.025,23.835 236.529,22.246 239.391,22.246C243.763,22.246 245.791,25.227 245.791,29.679L245.791,41.961L240.941,41.961Z" style="fill:rgb(50,62,73);fill-rule:nonzero;"/>
        </g>
        <g transform="matrix(4.16667,0,0,4.16667,0,0)">
            <path d="M273.973,42.161C273.496,42.161 272.979,42.04 272.622,41.564L257.278,21.689L257.278,41.961L253.781,41.961L253.781,16.998C253.781,16.005 254.615,15.21 255.569,15.21C256.126,15.21 256.601,15.37 256.961,15.846L272.263,35.681L272.263,15.489L275.762,15.489L275.762,40.412C275.762,41.445 274.928,42.161 273.973,42.161Z" style="fill:rgb(50,62,73);fill-rule:nonzero;"/>
        </g>
        <g transform="matrix(4.16667,0,0,4.16667,0,0)">
            <path d="M294.404,41.961L294.404,38.582C293.093,40.729 290.629,42.28 287.726,42.28C283.354,42.28 281.168,39.457 281.168,35.165L281.168,22.604L284.706,22.604L284.706,34.727C284.706,37.589 285.938,39.099 288.8,39.099C291.543,39.099 294.365,36.714 294.365,32.859L294.365,22.604L297.863,22.604L297.863,41.961L294.404,41.961Z" style="fill:rgb(50,62,73);fill-rule:nonzero;"/>
        </g>
        <g transform="matrix(4.16667,0,0,4.16667,0,0)">
            <path d="M309.708,42.28C306.528,42.28 304.461,40.769 304.461,36.635L304.461,25.227L301.838,25.227L301.838,22.604L304.461,22.604L304.461,17.119L307.959,17.119L307.959,22.604L311.735,22.604L311.735,25.227L307.959,25.227L307.959,36.555C307.959,38.901 308.794,39.537 310.185,39.537C310.702,39.537 311.418,39.457 312.054,39.338L312.411,41.921C311.576,42.161 310.464,42.28 309.708,42.28Z" style="fill:rgb(50,62,73);fill-rule:nonzero;"/>
        </g>
        <g transform="matrix(4.16667,0,0,4.16667,0,0)">
            <path d="M320.321,32.621L320.321,41.961L316.823,41.961L316.823,22.604L320.281,22.604L320.281,26.459C321.354,24.353 323.978,22.286 326.92,22.286L326.92,25.346C323.183,25.346 320.321,29.042 320.321,32.621Z" style="fill:rgb(50,62,73);fill-rule:nonzero;"/>
        </g>
        <g transform="matrix(4.16667,0,0,4.16667,0,0)">
            <path d="M330.537,41.961L330.537,22.604L334.035,22.604L334.035,41.961L330.537,41.961ZM330.537,19.384L330.537,15.13L334.035,15.13L334.035,19.384L330.537,19.384Z" style="fill:rgb(50,62,73);fill-rule:nonzero;"/>
        </g>
        <g transform="matrix(4.16667,0,0,4.16667,0,0)">
            <path d="M346.914,42.28C343.734,42.28 341.668,40.769 341.668,36.635L341.668,25.227L339.044,25.227L339.044,22.604L341.668,22.604L341.668,17.119L345.165,17.119L345.165,22.604L348.941,22.604L348.941,25.227L345.165,25.227L345.165,36.555C345.165,38.901 346,39.537 347.391,39.537C347.908,39.537 348.624,39.457 349.26,39.338L349.617,41.921C348.782,42.161 347.67,42.28 346.914,42.28Z" style="fill:rgb(50,62,73);fill-rule:nonzero;"/>
        </g>
        <g transform="matrix(4.16667,0,0,4.16667,0,0)">
            <path d="M354.029,41.961L354.029,22.604L357.527,22.604L357.527,41.961L354.029,41.961ZM354.029,19.384L354.029,15.13L357.527,15.13L357.527,19.384L354.029,19.384Z" style="fill:rgb(50,62,73);fill-rule:nonzero;"/>
        </g>
        <g transform="matrix(4.16667,0,0,4.16667,0,0)">
            <path d="M371.718,25.108C368.06,25.108 365.835,28.009 365.835,32.262C365.835,36.516 368.06,39.417 371.718,39.417C375.374,39.417 377.639,36.516 377.639,32.262C377.639,28.009 375.374,25.108 371.718,25.108ZM371.718,42.28C365.993,42.28 362.337,37.628 362.337,32.262C362.337,26.897 365.993,22.246 371.718,22.246C377.441,22.246 381.138,26.897 381.138,32.262C381.138,37.628 377.481,42.28 371.718,42.28Z" style="fill:rgb(50,62,73);fill-rule:nonzero;"/>
        </g>
        <g transform="matrix(4.16667,0,0,4.16667,0,0)">
            <path d="M398.071,41.961L398.071,29.798C398.071,26.936 396.839,25.425 393.977,25.425C391.234,25.425 388.412,27.85 388.412,31.707L388.412,41.961L384.914,41.961L384.914,22.604L388.372,22.604L388.372,25.982C389.684,23.835 392.148,22.246 395.051,22.246C399.423,22.246 401.569,25.108 401.569,29.401L401.569,41.961L398.071,41.961Z" style="fill:rgb(50,62,73);fill-rule:nonzero;"/>
        </g>
    </g>
</svg>
