<?xml version="1.0" encoding="UTF-8"?>
<svg width="1778px" height="1780px" viewBox="0 0 1778 1780" version="1.1" xmlns="http://www.w3.org/2000/svg" xmlns:xlink="http://www.w3.org/1999/xlink">
    <title>Combined Shape Copy</title>
    <g id="Web" stroke="none" stroke-width="1" fill="none" fill-rule="evenodd">
        <path d="M1343.06357,1047.74686 C1346.51461,1044.29546 1352.40438,1045.87543 1353.66721,1050.58723 C1354.93003,1055.30159 1350.61751,1059.61457 1345.90365,1058.35161 C1341.19234,1057.08865 1339.61253,1051.19826 1343.06357,1047.74686 M1285.8633,1162.74014 C1290.7929,1157.81005 1299.20625,1160.06494 1301.01156,1166.79788 C1302.81424,1173.53346 1296.6529,1179.69277 1289.92064,1177.88991 C1283.18837,1176.08442 1280.93371,1167.67023 1285.8633,1162.74014 M1199.92801,1259.87214 C1206.82941,1252.97032 1218.61152,1256.12847 1221.13737,1265.55629 C1223.66063,1274.98152 1215.03648,1283.60619 1205.61182,1281.08278 C1196.18457,1278.55678 1193.0292,1266.77136 1199.92801,1259.87214 M1092.24475,1331.62723 C1101.11556,1322.75566 1116.26541,1326.8128 1119.51292,1338.93475 C1122.76044,1351.0541 1111.66997,1362.1455 1099.55165,1358.89772 C1087.43333,1355.64993 1083.37394,1340.49879 1092.24475,1331.62723 M968.25051,1374.38106 C979.09431,1363.53612 997.60831,1368.49924 1001.57732,1383.31093 C1005.54633,1398.1253 991.992245,1411.68081 977.179438,1407.71138 C962.369309,1403.74196 957.406711,1385.226 968.25051,1374.38106 M838.28629,1385.78807 C850.11514,1373.95798 870.31405,1379.3714 874.642761,1395.53066 C878.974085,1411.68992 864.18541,1426.48016 848.027849,1422.14838 C831.870288,1417.81921 826.45744,1397.61817 838.28629,1385.78807 M710.134725,1362.75527 C722.948209,1349.9404 744.83056,1355.80252 749.521354,1373.31137 C754.212147,1390.81754 738.193956,1406.83746 720.687006,1402.14616 C703.182729,1397.45486 697.321241,1375.57014 710.134725,1362.75527 M592.326812,1308.37701 C605.140941,1295.56153 627.023771,1301.42344 631.713318,1318.93155 C636.402865,1336.43966 620.386496,1352.45771 602.880233,1347.76767 C585.373969,1343.07763 579.512682,1321.19249 592.326812,1308.37701 M491.096188,1223.44937 C504.40478,1210.13937 527.12612,1216.23093 531.997256,1234.40991 C536.868393,1252.5889 520.232652,1269.2264 502.05558,1264.35475 C483.878508,1259.4831 477.787595,1236.75936 491.096188,1223.44937 M418.333219,1119.86405 C431.148329,1107.04762 453.027591,1112.91124 457.719591,1130.41752 C462.408949,1147.92643 446.390062,1163.94433 428.885595,1159.25449 C411.381128,1154.56201 405.518109,1132.68048 418.333219,1119.86405 M373.02146,998.417186 C385.834979,985.602317 407.71739,991.464438 412.408197,1008.97328 C417.099003,1026.47945 401.080768,1042.49937 383.576443,1037.80807 C366.069445,1033.11677 360.207941,1011.23206 373.02146,998.417186 M363.427967,871.001923 C375.25679,859.171827 395.455655,864.585245 399.784356,880.744509 C404.11567,896.903773 389.329641,911.694006 373.169505,907.362226 C357.01198,903.033058 351.599145,882.832019 363.427967,871.001923 M386.457921,743.586224 C397.300035,732.742967 415.817685,737.703345 419.785569,752.51748 C423.753453,767.331616 410.200811,780.885686 395.388236,776.917384 C380.575662,772.949082 375.615807,754.432057 386.457921,743.586224 M442.112262,627.046838 C451.969103,617.188958 468.802878,621.698247 472.409929,635.166165 C476.016981,648.631476 463.694626,660.955129 450.230734,657.347698 C436.764235,653.73766 432.255421,636.904717 442.112262,627.046838 M526.499635,530.180375 C534.878407,521.80072 549.186034,525.634618 552.251763,537.080326 C555.320158,548.5287 544.846027,559.003935 533.39886,555.935216 C521.954358,552.869164 518.120863,538.56003 526.499635,530.180375 M634.182922,458.424908 C640.591001,452.016154 651.53131,454.949234 653.875479,463.702404 C656.222207,472.455574 648.21211,480.466515 639.459862,478.11954 C630.707615,475.775124 627.774844,464.833661 634.182922,458.424908 M758.178,415.671341 C762.613884,411.23499 770.188699,413.263901 771.811152,419.325401 C773.436129,425.384378 767.890012,430.931079 761.831674,429.305931 C755.770813,427.683306 753.742115,420.107693 758.178,415.671341 M888.142061,406.076798 C891.5931,402.625395 897.482872,404.205371 898.745697,408.917174 C900.008521,413.631534 895.696001,417.944508 890.982138,416.681551 C886.270831,415.418593 884.691023,409.525643 888.142061,406.076798 M1105.63442,1473.71427 C1109.08545,1470.26287 1114.97523,1471.84285 1116.23805,1476.55465 C1117.50088,1481.26901 1113.18836,1485.58198 1108.47449,1484.31903 C1103.76319,1483.05607 1102.18338,1477.16567 1105.63442,1473.71427 M979.560859,1507.13764 C984.490647,1502.20966 992.904327,1504.46479 994.709713,1511.19846 C996.512456,1517.93213 990.353525,1524.09211 983.620995,1522.28906 C976.888465,1520.48337 974.631072,1512.06826 979.560859,1507.13764 M846.768558,1515.71784 C854.160788,1508.32501 866.784926,1511.70586 869.49253,1521.80651 C872.197515,1531.90716 862.956573,1541.14885 852.856739,1538.44364 C842.759524,1535.73582 839.376328,1523.11067 846.768558,1515.71784 M715.790736,1495.2959 C725.648933,1485.43667 742.47931,1489.94735 746.087471,1503.41512 C749.695633,1516.88033 737.372887,1529.20437 723.9091,1525.59583 C710.442742,1521.98729 705.93254,1505.15514 715.790736,1495.2959 M590.248719,1447.68363 C602.571289,1435.35976 623.60872,1440.99923 628.12035,1457.83254 C632.62932,1474.66586 617.228102,1490.0687 600.396561,1485.55925 C583.565021,1481.04715 577.926149,1460.0075 590.248719,1447.68363 M478.674792,1379.601 C492.474937,1365.7994 516.039067,1372.11337 521.090743,1390.96718 C526.14242,1409.82098 508.891591,1427.07363 490.039769,1422.02142 C471.187947,1416.96921 464.874647,1393.4026 478.674792,1379.601 M381.86628,1286.40754 C397.637862,1270.6343 424.569312,1277.85003 430.34129,1299.39853 C436.115934,1320.94436 416.399456,1340.66291 394.855897,1334.88766 C373.309669,1329.11507 366.094697,1302.18078 381.86628,1286.40754 M306.275858,1178.18088 C323.034302,1161.42297 351.646601,1169.08882 357.780616,1191.98412 C363.914632,1214.8768 342.967231,1235.8268 320.077392,1229.69203 C297.184932,1223.55725 289.517413,1194.9414 306.275858,1178.18088 M256.0592,1057.26745 C273.803836,1039.52094 304.100324,1047.64142 310.593928,1071.88222 C317.087531,1096.12301 294.910669,1118.30221 270.67243,1111.80792 C246.43419,1105.31363 238.314563,1075.01395 256.0592,1057.26745 M231.215838,929.102296 C249.945145,910.371201 281.925065,918.940304 288.780758,944.527747 C295.636452,970.11519 272.224818,993.529058 246.639816,986.67271 C221.057479,979.816363 212.48653,947.833391 231.215838,929.102296 M234.841154,800.405618 C253.57107,781.673728 285.551515,790.245287 292.405956,815.832339 C299.260396,841.419391 275.850606,864.831648 250.26625,857.976485 C224.681894,851.118718 216.111239,819.137507 234.841154,800.405618 M264.10563,673.78723 C283.327231,654.563604 316.149866,663.358847 323.184793,689.618142 C330.222353,715.880071 306.194035,739.910921 279.934874,732.872619 C253.678346,725.836951 244.884029,693.010857 264.10563,673.78723 M320.291161,555.966462 C339.513246,536.742351 372.335389,545.538476 379.371548,571.799488 C386.405054,598.057846 362.37811,622.087322 336.122518,615.053075 C309.864273,608.016175 301.069075,575.190573 320.291161,555.966462 M399.772145,454.193093 C418.500492,435.462772 450.481415,444.032852 457.337281,469.619762 C464.193148,495.206671 440.781401,518.620885 415.197188,511.764296 C389.612974,504.907708 381.043797,472.923414 399.772145,454.193093 M499.190897,370.546952 C517.426505,352.30945 548.565286,360.652613 555.240703,385.566226 C561.91612,410.482472 539.119636,433.278691 514.208611,426.60258 C489.297586,419.92647 480.95529,388.784454 499.190897,370.546952 M612.84234,310.198166 C630.092111,292.946577 659.549939,300.84039 665.863271,324.405977 C672.176603,347.974196 650.614389,369.538682 627.048653,363.224685 C603.48555,356.910688 595.592569,327.449755 612.84234,310.198166 M739.18158,275.226891 C755.445865,258.960892 783.219401,266.40353 789.171821,288.622576 C795.126897,310.844277 774.795213,331.178104 752.575853,325.222401 C730.359148,319.269353 722.917295,291.49289 739.18158,275.226891 M870.692878,267.178639 C885.477561,252.392046 910.727568,259.157448 916.138662,279.358477 C921.549755,299.556862 903.066919,318.042085 882.868499,312.630293 C862.672723,307.2185 855.905552,281.967875 870.692878,267.178639 M1001.93741,286.055115 C1014.75154,273.239831 1036.63437,279.101647 1041.32392,296.609487 C1046.01347,314.117328 1029.9971,330.137726 1012.49083,325.44517 C994.984571,320.7552 989.123283,298.870399 1001.93741,286.055115 M1125.93219,332.120096 C1136.77503,321.276122 1155.29004,326.237468 1159.25922,341.051042 C1163.2284,355.864615 1149.67421,369.420236 1134.8622,365.450637 C1120.05019,361.481037 1115.08936,342.96407 1125.93219,332.120096 M1238.78754,403.296908 C1247.16716,394.916401 1261.47183,398.750805 1264.54006,410.197288 C1267.60571,421.643772 1257.13247,432.118116 1245.68719,429.05214 C1234.24192,425.983585 1230.40792,411.677415 1238.78754,403.296908 M1337.14186,494.411082 C1343.05516,488.497161 1353.15561,491.20165 1355.32056,499.283392 C1357.48551,507.36249 1350.0919,514.756874 1342.01366,512.591697 C1333.93277,510.42652 1331.22856,500.325003 1337.14186,494.411082 M1412.46735,604.184426 C1416.90367,599.747635 1424.47739,601.778666 1426.10105,607.836785 C1427.7247,613.897401 1422.1793,619.44339 1416.11932,617.819565 C1410.06184,616.195739 1408.03102,608.621217 1412.46735,604.184426 M500.015342,1545.953 C502.971091,1542.99663 508.021363,1544.3473 509.10375,1548.38889 C510.186136,1552.42788 506.488849,1556.12594 502.450713,1555.04333 C498.409975,1553.96071 497.056992,1548.91198 500.015342,1545.953 M392.065538,1470.62009 C396.500985,1466.18418 404.075661,1468.21337 405.699401,1474.2732 C407.32314,1480.33302 401.777445,1485.8793 395.718259,1484.25539 C389.659073,1482.63148 387.630092,1475.05601 392.065538,1470.62009 M297.069773,1377.42694 C303.477851,1371.01819 314.41816,1373.95127 316.762329,1382.70444 C319.109057,1391.45761 311.09896,1399.46855 302.346712,1397.12158 C293.594465,1394.77716 290.661694,1383.8357 297.069773,1377.42694 M218.651027,1268.1847 C227.521654,1259.31295 242.671197,1263.37277 245.918643,1275.49237 C249.166089,1287.61197 238.075853,1298.7036 225.95778,1295.45575 C213.837105,1292.20789 209.780399,1277.05644 218.651027,1268.1847 M161.716088,1147.80238 C172.55892,1136.9584 191.073936,1141.91975 195.043117,1156.73332 C199.012298,1171.5469 185.458106,1185.10252 170.646093,1181.13292 C155.834081,1177.16332 150.873257,1158.64635 161.716088,1147.80238 M124.718524,1020.16955 C137.53338,1007.35334 159.416167,1013.21621 164.104401,1030.72376 C168.795251,1048.23132 152.777333,1064.25092 135.271627,1059.55958 C117.765921,1054.87085 111.903667,1032.98576 124.718524,1020.16955 M111.281688,888.910411 C126.068071,874.122435 151.315159,880.889237 156.727494,901.09013 C162.139828,921.288405 143.656195,939.774029 123.457477,934.361111 C103.261378,928.948194 96.4953055,903.698387 111.281688,888.910411 M119.328825,757.386207 C135.593979,741.119339 163.364518,748.562482 169.319448,770.782298 C175.271769,793.002114 154.940979,813.335047 132.723505,807.382099 C110.50603,801.426541 103.063671,773.653075 119.328825,757.386207 M150.936923,631.299047 C168.681901,613.554849 198.978972,621.672852 205.4727,645.914076 C211.966429,670.155299 189.786518,692.334891 165.550434,685.840488 C141.311728,679.346086 133.194568,649.043245 150.936923,631.299047 M204.029737,512.197878 C222.759653,493.465989 254.740098,502.037547 261.594539,527.6246 C268.448979,553.211652 245.039189,576.623909 219.454833,569.768746 C193.870477,562.913583 185.299822,530.929768 204.029737,512.197878 M275.246791,403.972335 C294.959936,384.254506 328.623963,393.275445 335.840475,420.210547 C343.056988,447.143043 318.41295,471.789678 291.483292,464.572405 C264.551028,457.355132 255.531039,423.687558 275.246791,403.972335 M366.399467,310.246634 C387.100091,289.543828 422.445264,299.016201 430.02395,327.295848 C437.599992,355.575494 411.723551,381.454662 383.446885,373.877821 C355.170218,366.298337 345.698843,330.949439 366.399467,310.246634 M471.78687,234.382413 C492.980788,213.186262 529.167726,222.883813 536.92548,251.838536 C544.683234,280.790607 518.190173,307.286459 489.241153,299.527888 C460.289481,291.769317 450.592952,255.578565 471.78687,234.382413 M587.782502,180.003417 C608.975433,158.808288 645.165954,168.504071 652.921252,197.457922 C660.679169,226.41439 634.18866,252.907647 605.237813,245.148926 C576.284349,237.390205 566.589572,201.198546 587.782502,180.003417 M712.840867,145.563535 C734.032935,124.366599 770.223268,134.066583 777.979825,163.020907 C785.736382,191.972629 759.244996,218.466849 730.293771,210.709462 C701.345145,202.952075 691.646199,166.760472 712.840867,145.563535 M843.336019,134.687622 C864.528949,113.492458 900.719471,123.188258 908.474769,152.144773 C916.232685,181.09867 889.742177,207.591971 860.79133,199.833237 C831.837866,192.077121 822.143088,155.882786 843.336019,134.687622 M971.752903,145.297265 C992.452549,124.595438 1027.80129,134.066061 1035.37752,162.347516 C1042.95374,190.628972 1017.07983,216.505603 988.801357,208.928583 C960.522882,201.351563 951.053257,165.999092 971.752903,145.297265 M1098.35752,179.471335 C1118.56441,159.262118 1153.07099,168.508541 1160.46675,196.114374 C1167.86513,223.722823 1142.60391,248.984344 1114.99864,241.587729 C1087.39598,234.191113 1078.15063,199.680552 1098.35752,179.471335 M1215.90062,233.584767 C1235.61522,213.868087 1269.27914,222.888375 1276.49566,249.822344 C1283.70955,276.756312 1259.06762,301.40084 1232.13649,294.186195 C1205.20536,286.968907 1196.18602,253.301447 1215.90062,233.584767 M1324.11465,309.18291 C1342.843,290.452589 1374.82392,299.022669 1381.67979,324.609578 C1388.53566,350.196488 1365.12391,373.610702 1339.5397,366.754113 C1313.95548,359.897524 1305.38631,327.913231 1324.11465,309.18291 M1417.83016,401.095664 C1435.57347,383.350483 1465.86953,391.470255 1472.36573,415.709656 C1478.85926,439.949056 1456.67946,462.131198 1432.44261,455.636979 C1408.20576,449.140095 1400.08685,418.840845 1417.83016,401.095664 M1494.70214,510.602776 C1510.47449,494.829247 1537.40669,502.047202 1543.1775,523.591977 C1548.95091,545.13935 1529.23613,564.855612 1507.69037,559.084365 C1486.1472,553.310521 1478.92979,526.376305 1494.70214,510.602776 M1551.90317,629.439423 C1566.19682,615.144263 1590.60178,621.684154 1595.83366,641.211753 C1601.06555,660.739353 1583.1998,678.606988 1563.67426,673.374549 C1544.14872,668.14211 1537.60951,643.734583 1551.90317,629.439423 M1588.90073,757.072252 C1601.22214,744.749546 1622.26287,750.387165 1626.77197,767.222045 C1631.28367,784.054325 1615.87996,799.459657 1599.04946,794.947483 C1582.21635,790.437908 1576.57933,769.394958 1588.90073,757.072252 M1604.14929,888.330558 C1614.49884,877.979917 1632.17468,882.71608 1635.96217,896.854615 C1639.74967,910.99574 1626.81208,923.934689 1612.67244,920.146795 C1598.5354,916.358901 1593.79974,898.681198 1604.14929,888.330558 M1595.83705,1019.58963 C1604.21582,1011.20994 1618.52344,1015.04385 1621.58917,1026.49227 C1624.65757,1037.93803 1614.18344,1048.41331 1602.73627,1045.34458 C1591.29177,1042.27851 1587.45827,1027.96932 1595.83705,1019.58963 M1565.50911,1148.76992 C1571.42313,1142.85506 1581.52356,1145.56062 1583.68716,1153.64209 C1585.85347,1161.72086 1578.45823,1169.11443 1570.3806,1166.95052 C1562.30026,1164.78661 1559.59508,1154.68478 1565.50911,1148.76992 M1512.15134,1267.60601 C1516.58767,1263.16922 1524.16139,1265.20025 1525.78504,1271.25837 C1527.4087,1277.31899 1521.86329,1282.86498 1515.80332,1281.24115 C1509.74584,1279.61733 1507.71502,1272.04281 1512.15134,1267.60601 M8.57782035,1005.52373 C11.0411672,1003.06013 15.2508304,1004.18784 16.1529011,1007.55361 C17.0549718,1010.91938 13.972897,1014.00178 10.6074794,1013.09961 C7.24206184,1012.19745 6.11447348,1007.98734 8.57782035,1005.52373 M1.86032047,873.734836 C5.31138099,870.283601 11.2016587,871.862157 12.4644392,876.576236 C13.7272198,881.287618 9.41271954,885.602337 4.70157671,884.339492 C-0.00956611917,883.076648 -1.59074006,877.186072 1.86032047,873.734836 M11.9851054,742.475167 C17.4058405,737.053861 26.6644775,739.534162 28.649045,746.940245 C30.6336126,754.346328 23.8550155,761.125639 16.4497129,759.140863 C9.04441022,757.156086 6.56437036,747.896473 11.9851054,742.475167 M42.0474206,614.842076 C49.4394673,607.44925 62.063292,610.830099 64.7708288,620.930747 C67.4757471,631.031395 58.235034,640.273082 48.1354505,637.567879 C38.0358671,634.860057 34.6553739,622.234901 42.0474206,614.842076 M92.0458499,492.646181 C101.40919,483.281855 117.400803,487.565866 120.828685,500.358436 C124.256567,513.153592 112.551099,524.860293 99.7572919,521.432049 C86.9660699,518.003806 82.6825099,502.010508 92.0458499,492.646181 M156.5446,379.514254 C167.879991,368.177668 187.236832,373.363222 191.386395,388.852403 C195.535958,404.338989 181.366719,418.509721 165.881765,414.359721 C150.394216,410.209721 145.209209,390.850839 156.5446,379.514254 M237.620312,277.523154 C251.420059,263.721953 274.986726,270.036263 280.037107,288.891049 C285.087489,307.743164 267.837138,324.995333 248.987009,319.944419 C230.13421,314.893505 223.820566,291.324355 237.620312,277.523154 M332.9305,189.768029 C348.702082,173.994785 375.633532,181.210517 381.40551,202.759015 C387.180155,224.304845 367.463677,244.023401 345.920117,238.248148 C324.37389,232.475562 317.158918,205.541274 332.9305,189.768029 M440.660785,118.060252 C457.910357,100.808847 487.367844,108.699943 493.681103,132.26791 C499.996995,155.835878 478.432397,177.400134 454.866934,171.086204 C431.304103,164.772274 423.411213,135.311656 440.660785,118.060252 M555.641938,64.4784979 C574.371021,45.7474416 606.351887,54.3185192 613.206441,79.9048513 C620.063638,105.491183 596.650302,128.906987 571.066666,122.049067 C545.48303,115.193791 536.912856,83.2095542 555.641938,64.4784979 M679.420083,28.7584858 C699.135835,9.04065657 732.797255,18.061596 740.013768,44.9966981 C747.23028,71.9291938 722.586242,96.5758287 695.656585,89.3585558 C668.724321,82.141283 659.704332,48.476315 679.420083,28.7584858 M806.821201,11.1628458 C827.520846,-9.53898115 862.869592,-0.0683582685 870.445814,28.2130969 C878.022035,56.4945521 852.14813,82.3711838 823.869655,74.7941639 C795.59118,67.2171439 786.121555,31.8646728 806.821201,11.1628458 M936.035653,13.5069899 C957.721561,-8.18117636 994.750702,1.74226947 1002.69021,31.3681418 C1010.62709,60.9966407 983.517732,88.1061919 953.894945,80.1684859 C924.272157,72.2281532 914.349745,35.1951562 936.035653,13.5069899 M1063.17228,37.3372699 C1085.35122,15.1559831 1123.22302,25.3038563 1131.34047,55.6060605 C1139.46053,85.9056459 1111.73553,113.633564 1081.43914,105.512646 C1051.14013,97.3943478 1040.99333,59.5185566 1063.17228,37.3372699 M1184.87087,77.4804566 C1207.54252,54.8064131 1246.2564,65.1811655 1254.55428,96.1539664 C1262.85478,127.129379 1234.51456,155.472586 1203.54241,147.171217 C1172.57287,138.87246 1162.19921,100.1545 1184.87087,77.4804566 M1299.32056,137.563397 C1322.48595,114.395565 1362.04106,124.996363 1370.51922,156.643254 C1378.99739,188.290144 1350.04196,217.248617 1318.39841,208.769559 C1286.75485,200.290501 1276.15517,160.73123 1299.32056,137.563397 M1404.44187,213.693743 C1427.60726,190.525911 1467.16236,201.12671 1475.64053,232.7736 C1484.11869,264.42049 1455.16327,293.378963 1423.51971,284.899905 C1391.87616,276.420848 1381.27648,236.861576 1404.44187,213.693743 M1496.87612,304.325108 C1520.04151,281.157275 1559.59398,291.758074 1568.07478,323.404965 C1576.55294,355.051855 1547.59752,384.010328 1515.95396,375.53127 C1484.31041,367.052212 1473.71073,327.49294 1496.87612,304.325108 M1574.81088,407.644864 C1597.97627,384.477031 1637.53137,395.07783 1646.00954,426.72472 C1654.4877,458.37161 1625.53228,487.330083 1593.88873,478.851026 C1562.24517,470.371968 1551.64549,430.812696 1574.81088,407.644864 M1636.1675,523.38677 C1658.83916,500.712727 1697.55304,511.087479 1705.85092,542.06028 C1714.15141,573.035692 1685.81119,601.3789 1654.83904,593.077531 C1623.86951,584.778773 1613.49585,546.060814 1636.1675,523.38677 M1681.21289,644.56714 C1703.39108,622.386581 1741.26288,632.533478 1749.38161,662.836239 C1757.50034,693.136397 1729.77695,720.862747 1699.47743,712.743147 C1669.18051,704.623548 1659.0347,666.747699 1681.21289,644.56714 M1706.32134,772.99784 C1728.00773,751.309646 1765.03771,761.233104 1772.97476,790.859014 C1780.91445,820.484923 1753.80448,847.597135 1724.18103,839.659419 C1694.55758,831.719076 1684.63494,794.686033 1706.32134,772.99784 M1713.03935,904.7881 C1733.73899,884.086273 1769.08774,893.556896 1776.66396,921.838352 C1784.24018,950.119807 1758.36627,975.996438 1730.0878,968.419418 C1701.80932,960.842398 1692.3397,925.489927 1713.03935,904.7881 M1701.63415,1034.76606 C1721.3499,1015.04805 1755.01132,1024.07168 1762.22784,1051.00442 C1769.44435,1077.93717 1744.80031,1102.58403 1717.87065,1095.36669 C1690.93839,1088.14935 1681.9184,1054.48407 1701.63415,1034.76606 M1670.28998,1161.11774 C1689.01833,1142.38742 1720.99925,1150.9575 1727.85512,1176.54441 C1734.71099,1202.13131 1711.29924,1225.54553 1685.71503,1218.68894 C1660.13081,1211.83235 1651.56164,1179.84806 1670.28998,1161.11774 M1620.55692,1281.76697 C1637.80669,1264.51557 1667.26452,1272.40666 1673.57785,1295.97463 C1679.89118,1319.5426 1658.32897,1341.10685 1634.76323,1334.79292 C1611.20013,1328.479 1603.30715,1299.01838 1620.55692,1281.76697 M1554.51256,1395.16518 C1570.28414,1379.39193 1597.21559,1386.60767 1602.98757,1408.15616 C1608.76221,1429.70199 1589.04574,1449.42055 1567.50218,1443.6453 C1545.95595,1437.87271 1538.74098,1410.93842 1554.51256,1395.16518 M1473.70259,1495.60942 C1487.50369,1481.80686 1511.06681,1488.12257 1516.11832,1506.97452 C1521.16982,1525.82912 1503.9191,1543.08166 1485.06649,1538.02962 C1466.21653,1532.97758 1459.90149,1509.41198 1473.70259,1495.60942 M1378.39269,1583.36483 C1390.22271,1571.53356 1410.4183,1576.94887 1414.74955,1593.1065 C1419.07813,1609.26681 1404.29194,1624.05456 1388.13333,1619.72553 C1371.9774,1615.39382 1366.56266,1595.1961 1378.39269,1583.36483 M1272.20836,1656.61941 C1282.06616,1646.76057 1298.89629,1651.27161 1302.50581,1664.73767 C1306.11265,1678.20373 1293.7904,1690.52728 1280.32576,1686.92006 C1266.86112,1683.31016 1262.35056,1666.47826 1272.20836,1656.61941 M1156.69577,1711.48218 C1164.08936,1704.08799 1176.71269,1707.47025 1179.4188,1717.57076 C1182.1249,1727.67127 1172.88355,1736.91337 1162.78386,1734.20705 C1152.68673,1731.50073 1149.30218,1718.87637 1156.69577,1711.48218 M1034.19917,1748.48331 C1039.61991,1743.06201 1048.87854,1745.54231 1050.86311,1752.94839 C1052.84768,1760.35447 1046.06908,1767.13379 1038.66378,1765.14901 C1031.25848,1763.16423 1028.77844,1753.90462 1034.19917,1748.48331 M906.798146,1766.07906 C911.234931,1761.64178 918.809994,1763.67174 920.431177,1769.73298 C922.054962,1775.79163 916.512234,1781.33757 910.451663,1779.71361 C904.391093,1778.08964 902.361361,1770.51634 906.798146,1766.07906" id="Combined-Shape-Copy" fill="#E8E8E8"></path>
    </g>
</svg>