<?xml version="1.0" encoding="UTF-8"?>
<svg width="1516px" height="1516px" viewBox="0 0 1516 1516" version="1.1" xmlns="http://www.w3.org/2000/svg" xmlns:xlink="http://www.w3.org/1999/xlink">
    <title>Combined Shape Copy</title>
    <g id="Web" stroke="none" stroke-width="1" fill="none" fill-rule="evenodd" opacity="0.251929874">
        <path d="M1229.29792,1337.82337 C1233.27918,1352.68245 1219.68245,1366.27918 1204.82337,1362.29792 C1189.9643,1358.31667 1184.98773,1339.74338 1195.86555,1328.86555 C1206.74338,1317.98773 1225.31446,1322.9643 1229.29792,1337.82337 Z M1045.75,1349.60869 C1048.75,1351.33816 1048.75,1355.66184 1045.75,1357.39131 C1042.75,1359.12078 1039,1356.95894 1039,1353.5 C1039,1350.04106 1042.75,1347.87922 1045.75,1349.60869 Z M450.750521,1349.609 C453.749826,1351.33718 453.749826,1355.66282 450.750521,1357.391 C447.751215,1359.12126 444,1356.95844 444,1353.5 C444,1350.04156 447.751215,1347.87874 450.750521,1349.609 Z M744.578311,1346.10516 C742.190428,1355.02127 731.044777,1358.00723 724.518777,1351.48121 C717.992778,1344.95519 720.97873,1333.8095 729.894811,1331.42161 C738.810893,1329.03152 746.968392,1337.19124 744.578311,1346.10516 Z M844.666782,1337.95979 C842.776579,1345.0164 833.952056,1347.38077 828.785644,1342.21436 C823.619232,1337.04794 825.983595,1328.22557 833.04021,1326.33322 C840.09897,1324.44302 846.556985,1330.90103 844.666782,1337.95979 Z M644.52577,1333.99334 C641.837278,1344.02294 629.301729,1347.38405 621.958344,1340.04076 C614.617107,1332.69747 617.976109,1320.16208 628.005838,1317.47363 C638.035566,1314.78732 647.214261,1323.96375 644.52577,1333.99334 Z M548.437992,1306.1408 C545.254004,1318.02769 530.395393,1322.01041 521.692492,1313.30751 C512.989591,1304.60461 516.972311,1289.74818 528.8592,1286.56201 C540.74609,1283.37583 551.624169,1294.25391 548.437992,1306.1408 Z M939.876843,1312.40563 C939.181231,1315.00678 935.929751,1315.87685 934.026446,1313.97357 C932.123141,1312.07029 932.993223,1308.81885 935.594407,1308.12324 C938.193325,1307.42537 940.574722,1309.80447 939.876843,1312.40563 Z M1135.74959,1293.14989 C1141.4168,1296.41685 1141.4168,1304.58315 1135.74959,1307.85011 C1130.08238,1311.11706 1123,1307.03391 1123,1300.5 C1123,1293.96609 1130.08238,1289.88294 1135.74959,1293.14989 Z M363.750815,1293.14989 C369.416395,1296.41685 369.416395,1304.58315 363.750815,1307.85011 C358.083062,1311.11706 351,1307.03391 351,1300.5 C351,1293.96609 358.083062,1289.88294 363.750815,1293.14989 Z M1307.19222,1266.04628 C1311.77192,1283.13553 1296.1355,1298.77192 1279.04846,1294.19222 C1261.95916,1289.61478 1256.23566,1268.25491 1268.74525,1255.74535 C1281.25484,1243.23579 1302.61477,1248.95928 1307.19222,1266.04628 Z M714.82095,1247.75014 C723.853477,1263.41699 712.562818,1283 694.5,1283 C676.437182,1283 665.146523,1263.41699 674.17905,1247.75014 C683.209341,1232.08329 705.788423,1232.08329 714.82095,1247.75014 Z M814.2274,1248.24903 C822.105262,1261.91662 812.257934,1279 796.5,1279 C780.742066,1279 770.894738,1261.91662 778.7726,1248.24903 C786.650462,1234.58366 806.349538,1234.58366 814.2274,1248.24903 Z M459.333024,1260.91845 C455.550779,1275.03268 437.906299,1279.76218 427.57206,1269.42794 C417.237822,1259.0937 421.967317,1241.44922 436.081551,1237.66698 C450.198035,1233.88473 463.11527,1246.80197 459.333024,1260.91845 Z M615.550704,1223.7511 C625.350571,1240.75037 613.10238,1262 593.500457,1262 C573.898533,1262 561.648152,1240.75037 571.450209,1223.7511 C581.250076,1206.74963 605.750837,1206.74963 615.550704,1223.7511 Z M914.498619,1228.24986 C921.606819,1240.583 912.719297,1256 898.500625,1256 C884.27968,1256 875.392158,1240.583 882.50263,1228.24986 C889.613103,1215.91671 907.388147,1215.91671 914.498619,1228.24986 Z M287.749575,1224.41998 C294.750142,1228.45504 294.750142,1238.54496 287.749575,1242.58002 C280.749008,1246.61508 272,1241.57012 272,1233.5 C272,1225.42988 280.749008,1220.38492 287.749575,1224.41998 Z M1214.74957,1224.41998 C1221.75014,1228.45504 1221.75014,1238.54496 1214.74957,1242.58002 C1207.75128,1246.61508 1199,1241.57012 1199,1233.5 C1199,1225.42988 1207.75128,1220.38492 1214.74957,1224.41998 Z M524.21226,1181.0007 C534.974255,1199.66606 521.521762,1223 500,1223 C478.478238,1223 465.025745,1199.66606 475.78774,1181.0007 C486.547507,1162.3331 513.452493,1162.3331 524.21226,1181.0007 Z M1374.12236,1185.52961 C1379.09904,1204.10331 1362.10331,1221.09904 1343.52961,1216.12236 C1324.95592,1211.14569 1318.73453,1187.92857 1332.33155,1174.33155 C1345.92857,1160.73453 1369.14569,1166.95592 1374.12236,1185.52961 Z M380.262441,1198.4342 C376.083091,1214.0377 356.580918,1219.26298 345.158969,1207.84103 C333.737019,1196.41908 338.962303,1176.91691 354.565796,1172.73756 C370.167095,1168.55602 384.443984,1182.8329 380.262441,1198.4342 Z M1004.903,1187.74959 C1010.86088,1198.08456 1003.41407,1211 991.500475,1211 C979.58688,1211 972.140066,1198.08456 978.095774,1187.74959 C984.053661,1177.4168 998.94729,1177.4168 1004.903,1187.74959 Z M739.505626,1151.01843 C761.052106,1156.79032 768.267527,1183.72282 752.495158,1199.49517 C736.722789,1215.26752 709.790244,1208.05211 704.01835,1186.50566 C698.24424,1164.95921 717.961364,1145.24433 739.505626,1151.01843 Z M841.988055,1142.94822 C862.048593,1148.32198 868.766285,1173.39737 854.081662,1188.08215 C839.39704,1202.76692 814.321918,1196.04696 808.948205,1175.98841 C803.572289,1155.92766 821.927517,1137.57224 841.988055,1142.94822 Z M639.393585,1133.0711 C662.054354,1139.14157 669.643574,1167.4675 653.055517,1184.05553 C636.46746,1200.64356 608.141499,1193.05435 602.071014,1170.39362 C595.998302,1147.73288 616.735043,1126.99839 639.393585,1133.0711 Z M1281.99879,1144.62335 C1290.0004,1149.23591 1290.0004,1160.76409 1281.99879,1165.37665 C1273.99933,1169.98921 1264,1164.22297 1264,1155 C1264,1145.77703 1273.99933,1140.01079 1281.99879,1144.62335 Z M221.998785,1144.62335 C230.000405,1149.23591 230.000405,1160.76409 221.998785,1165.37665 C213.999325,1169.98921 204,1164.22297 204,1155 C204,1145.77703 213.999325,1140.01079 221.998785,1144.62335 Z M443.009222,1120.74904 C454.347878,1140.41662 440.175109,1165 417.5,1165 C394.824891,1165 380.652122,1140.41662 391.990778,1120.74904 C403.327231,1101.08365 431.672769,1101.08365 443.009222,1120.74904 Z M938.470385,1109.87764 C957.044081,1114.85431 963.265475,1138.07143 949.668453,1151.66845 C936.07143,1165.26547 912.85431,1159.04408 907.877637,1140.47039 C902.900963,1121.89669 919.896689,1104.90096 938.470385,1109.87764 Z M544.653829,1092.1055 C568.055223,1098.37728 575.894389,1127.63069 558.762541,1144.76254 C541.630693,1161.89439 512.377276,1154.05522 506.105497,1130.65383 C499.835951,1107.2502 521.250202,1085.83595 544.653829,1092.1055 Z M1086.2408,1128.50053 C1091.23882,1137.16579 1084.99182,1148 1075,1148 C1065.00818,1148 1058.76118,1137.16579 1063.7592,1128.50053 C1068.75511,1119.83316 1081.24489,1119.83316 1086.2408,1128.50053 Z M312.157473,1123.21184 C307.379862,1141.04272 285.091815,1147.01474 272.03854,1133.96146 C258.985265,1120.90818 264.957278,1098.62014 282.788164,1093.84253 C300.61905,1089.06492 316.935084,1105.38095 312.157473,1123.21184 Z M1429.03457,1097.38237 C1434.50901,1117.81359 1415.81359,1136.50901 1395.38237,1131.03457 C1374.95115,1125.56014 1368.10811,1100.02167 1383.06489,1085.06489 C1398.02167,1070.10811 1423.56014,1076.95115 1429.03457,1097.38237 Z M775,1096.50046 C775,1119.17592 750.416391,1133.34671 730.750827,1122.01008 C711.083058,1110.67345 711.083058,1082.32747 730.750827,1070.99084 C750.416391,1059.65201 775,1073.825 775,1096.50046 Z M673,1081 C673,1103.29131 648.833652,1117.22284 629.500137,1106.07718 C610.166621,1094.93152 610.166621,1067.06848 629.500137,1055.92282 C648.833652,1044.77716 673,1058.70869 673,1081 Z M877,1081 C877,1103.29131 852.833652,1117.22284 833.500137,1106.07718 C814.166621,1094.93152 814.166621,1067.06848 833.500137,1055.92282 C852.833652,1044.77716 877,1058.70869 877,1081 Z M1021.95372,1054.80778 C1039.04072,1059.38522 1044.76421,1080.74509 1032.25465,1093.25465 C1019.74509,1105.76421 998.385217,1100.04072 993.807778,1082.95372 C989.228084,1065.86447 1004.86447,1050.22808 1021.95372,1054.80778 Z M463.653857,1029.10576 C487.056238,1035.37639 494.893973,1064.63048 477.762225,1081.76223 C460.630477,1098.89397 431.376394,1091.05624 425.105762,1067.65386 C418.83513,1044.25148 440.251477,1022.83513 463.653857,1029.10576 Z M375.73887,1043.49904 C387.84553,1064.16662 372.71332,1090 348.5,1090 C324.28668,1090 309.15447,1064.16662 321.26113,1043.49904 C333.367791,1022.83365 363.632209,1022.83365 375.73887,1043.49904 Z M167.750979,1053.96119 C177.41634,1059.53375 177.41634,1073.46625 167.750979,1079.03881 C158.08338,1084.61136 146,1077.64511 146,1066.5 C146,1055.35489 158.08338,1048.38864 167.750979,1053.96119 Z M1337.74916,1053.96119 C1347.41695,1059.53375 1347.41695,1073.46625 1337.74916,1079.03881 C1328.08361,1084.61136 1316,1077.64511 1316,1066.5 C1316,1055.35489 1328.08361,1048.38864 1337.74916,1053.96119 Z M1150.8498,1054.24987 C1154.11755,1059.91636 1150.03339,1067 1143.5,1067 C1136.96661,1067 1132.88245,1059.91636 1136.1502,1054.24987 C1139.41584,1048.58338 1147.58416,1048.58338 1150.8498,1054.24987 Z M966,1035 C966,1056.52338 942.667307,1069.97385 924.000274,1059.21216 C905.333242,1048.45266 905.333242,1021.54734 924.000274,1010.78784 C942.667307,1000.02615 966,1013.47662 966,1035 Z M582,1035 C582,1056.52338 558.667307,1069.97385 540.000274,1059.21216 C521.333242,1048.45047 521.333242,1021.54734 540.000274,1010.78784 C558.667307,1000.02615 582,1013.47662 582,1035 Z M260.069326,1036.35791 C254.795052,1056.04696 230.184759,1062.64131 215.771694,1048.22863 C201.358628,1033.81595 207.953148,1009.20631 227.640487,1003.92994 C247.330064,998.655808 265.345837,1016.6711 260.069326,1036.35791 Z M751.228207,996.771567 C765.641073,1011.18402 759.047498,1035.7924 739.359319,1041.06981 C719.67114,1046.34497 701.653365,1028.32772 706.930934,1008.64011 C712.206246,988.952504 736.815341,982.359119 751.228207,996.771567 Z M1470.96446,1001.86372 C1476.83692,1023.78237 1456.78023,1043.83683 1434.86375,1037.96438 C1412.94727,1032.09194 1405.60726,1004.69527 1421.65128,988.651271 C1437.69531,972.607268 1465.09201,979.947273 1470.96446,1001.86372 Z M853.935112,980.064888 C868.891895,995.021671 862.048849,1020.56014 841.617631,1026.03457 C821.186412,1031.50901 802.490989,1012.81359 807.965426,992.382369 C813.439862,971.951151 838.978329,965.108105 853.935112,980.064888 Z M1089.17607,980.702201 C1104.0357,984.683664 1109.01246,1003.25573 1098.13422,1014.13413 C1087.25599,1025.01253 1068.682,1020.0357 1064.7028,1005.17584 C1060.7192,990.315978 1074.31643,976.720737 1089.17607,980.702201 Z M650.96146,972.03854 C664.014735,985.091815 658.042722,1007.37986 640.211836,1012.15747 C622.38095,1016.93508 606.064916,1000.61905 610.842527,982.788164 C615.620138,964.957278 637.908185,958.985265 650.96146,972.03854 Z M400.653829,948.105497 C424.055223,954.377276 431.894389,983.630693 414.762541,1000.76254 C397.630693,1017.89439 368.377276,1010.05522 362.105497,986.653829 C355.835951,963.250202 377.250202,941.835951 400.653829,948.105497 Z M324.60357,953.000684 C337.095033,974.33274 321.480704,1001 296.5,1001 C271.519296,1001 255.904967,974.33274 268.39643,953.000684 C280.885672,931.666439 312.114328,931.666439 324.60357,953.000684 Z M1377.75,958.232045 C1388.75,964.574079 1388.75,980.425921 1377.75,986.767955 C1366.75,993.10999 1353,985.181906 1353,972.5 C1353,959.818094 1366.75,951.89001 1377.75,958.232045 Z M130.75,958.232106 C141.75,964.574314 141.75,980.426588 130.75,986.768797 C119.75,993.108841 106,985.182704 106,972.500451 C106,959.818199 119.75,951.889897 130.75,958.232106 Z M507,962 C507,982.753089 484.499953,995.724049 466.499019,985.348624 C448.500327,974.97096 448.500327,949.02904 466.499019,938.651376 C484.499953,928.275951 507,941.246911 507,962 Z M1038,962 C1038,982.753089 1015.49995,995.724049 997.499019,985.348624 C979.500327,974.97096 979.500327,949.02904 997.499019,938.651376 C1015.49995,928.275951 1038,941.246911 1038,962 Z M939.788575,923.211413 C955.016812,938.439626 948.050111,964.443256 927.248067,970.017054 C906.446024,975.590852 887.409056,956.556142 892.982863,935.751901 C898.556669,914.949889 924.560338,907.983199 939.788575,923.211413 Z M222.999213,941.875985 C217.326901,963.050844 190.858327,970.142341 175.357993,954.642007 C159.857659,939.141673 166.949156,912.673099 188.124015,907.000787 C209.296661,901.326261 228.673739,920.703339 222.999213,941.875985 Z M1290.89467,959.776172 C1290.29743,962.004896 1287.511,962.751965 1285.87952,961.120482 C1284.24803,959.488998 1284.9951,956.702574 1287.22383,956.105334 C1289.45255,955.508095 1291.49191,957.547449 1290.89467,959.776172 Z M569.841251,909.158749 C581.262793,920.580292 576.037695,940.081771 560.434758,944.263165 C544.834014,948.442367 530.557633,934.165986 534.736835,918.565242 C538.918229,902.962305 558.419708,897.737207 569.841251,909.158749 Z M1499.89416,902.346111 C1506.16478,925.750677 1484.75068,947.164779 1461.34611,940.894156 C1437.94376,934.623532 1430.10604,905.369487 1447.23776,888.237762 C1464.36949,871.106037 1493.62353,878.943763 1499.89416,902.346111 Z M1136.02853,891.614086 C1149.02993,895.099026 1153.38654,911.349574 1143.86777,920.868604 C1134.35122,930.385426 1118.09891,926.030906 1114.61407,913.029143 C1111.13143,900.02738 1123.02713,888.131352 1136.02853,891.614086 Z M360.393585,854.071097 C383.054354,860.141574 390.643574,888.467495 374.055517,905.055529 C357.46746,921.643563 329.141499,914.054354 323.071014,891.393616 C316.998302,868.732879 337.735043,847.998394 360.393585,854.071097 Z M292.536881,854.500968 C305.218466,876.500046 289.36538,904 264,904 C238.63462,904 222.781534,876.500046 235.463119,854.500968 C248.146914,832.499677 279.853086,832.499677 292.536881,854.500968 Z M1083,870.5 C1083,889.331459 1062.58241,901.101399 1046.25056,891.68678 C1029.91648,882.26994 1029.91648,858.73006 1046.25056,849.31322 C1062.58241,839.898601 1083,851.668541 1083,870.5 Z M458,870.5 C458,889.331459 437.582406,901.101399 421.250556,891.68678 C404.916481,882.26994 404.916481,858.73006 421.250556,849.31322 C437.582406,839.898601 458,851.668541 458,870.5 Z M1403.25084,855.637645 C1416.24972,863.131596 1416.24972,881.8687 1403.25084,889.362651 C1390.24972,896.856602 1374,887.48805 1374,872.500148 C1374,857.51002 1390.24972,848.143694 1403.25084,855.637645 Z M108.250836,855.637645 C121.249721,863.131596 121.249721,881.8687 108.250836,889.362651 C95.2497213,896.856602 79,887.48805 79,872.500148 C79,857.51002 95.2497213,848.143694 108.250836,855.637645 Z M994.935112,838.064888 C1009.89189,853.021671 1003.04885,878.560138 982.617631,884.034574 C962.186412,889.509011 943.490989,870.813588 948.965426,850.382369 C954.439862,829.951151 979.978329,823.108105 994.935112,838.064888 Z M1321.68401,861.330165 C1319.89236,868.016128 1311.53338,870.255187 1306.6391,865.360887 C1301.74482,860.466588 1303.98387,852.107573 1310.66981,850.31591 C1317.35782,848.524247 1323.47567,854.644202 1321.68401,861.330165 Z M204.928986,841.393585 C198.858501,864.054354 170.53254,871.643574 153.944483,855.055517 C137.356426,838.46746 144.945646,810.143726 167.606415,804.071014 C190.264957,797.998302 211.001698,818.735043 204.928986,841.393585 Z M518.600612,822.399388 C526.759967,830.556537 523.025688,844.487251 511.882441,847.47335 C500.736986,850.459449 490.540551,840.263014 493.52665,829.117559 C496.512749,817.974312 510.441256,814.240033 518.600612,822.399388 Z M1514.84148,799.457928 C1521.41075,823.976907 1498.97691,846.410752 1474.45793,839.841483 C1449.94114,833.272214 1441.73011,802.625137 1459.67762,784.677622 C1477.62514,766.730107 1508.27221,774.941145 1514.84148,799.457928 Z M1157.88305,793.526269 C1169.02669,796.513268 1172.75935,810.443902 1164.60054,818.600541 C1156.44173,826.759353 1142.51327,823.026691 1139.52627,811.883053 C1136.54144,800.737242 1146.73724,790.541444 1157.88305,793.526269 Z M343.505658,755.018433 C365.052106,760.790318 372.267516,787.722824 356.49517,803.49517 C340.722824,819.267516 313.790318,812.052106 308.018433,790.505658 C302.244331,768.959209 321.959209,749.244331 343.505658,755.018433 Z M282.536553,752.499863 C295.218978,774.49968 279.36485,802 254,802 C228.63515,802 212.781022,774.49968 225.463447,752.499863 C238.145872,730.500046 269.854128,730.500046 282.536553,752.499863 Z M101.250408,750.043754 C115.583197,758.69148 115.583197,780.30852 101.250408,788.956246 C86.9154423,797.603972 69,786.795452 69,769.5 C69,752.204548 86.9154423,741.396028 101.250408,750.043754 Z M1095,769.5 C1095,786.795452 1077.08456,797.603972 1062.74959,788.956246 C1048.4168,780.30852 1048.4168,758.69148 1062.74959,750.043754 C1077.08456,741.396028 1095,752.204548 1095,769.5 Z M440,769.5 C440,786.795452 422.084558,797.603972 407.749592,788.956246 C393.416803,780.30852 393.416803,758.69148 407.749592,750.043754 C422.084558,741.396028 440,752.204548 440,769.5 Z M1412.25041,750.043754 C1426.5832,758.69148 1426.5832,780.30852 1412.25041,788.956246 C1397.91544,797.603972 1380,786.795452 1380,769.5 C1380,752.204548 1397.91544,741.396028 1412.25041,750.043754 Z M1010.22843,736.771885 C1024.64088,751.184922 1018.0475,775.794309 998.359889,781.069684 C978.672282,786.345059 960.655029,768.329326 965.930188,748.640914 C971.207605,728.952502 995.815985,722.358848 1010.22843,736.771885 Z M1330.57904,759.105744 C1328.1891,768.021268 1317.04415,771.007035 1310.51856,764.481442 C1303.99297,757.95585 1306.97873,746.810895 1315.89426,744.420963 C1324.80978,742.033229 1332.96677,750.19022 1330.57904,759.105744 Z M204.876587,739.281384 C198.506369,763.057611 168.788306,771.019273 151.384516,753.615484 C133.980727,736.211694 141.942389,706.493631 165.718616,700.123413 C189.492622,693.753196 211.246804,715.507378 204.876587,739.281384 Z M1514.77099,696.940151 C1521.73953,722.943877 1497.94388,746.739531 1471.94015,739.770994 C1445.93865,732.804679 1437.22853,700.29891 1456.26372,681.26372 C1475.29891,662.22853 1507.80468,670.938645 1514.77099,696.940151 Z M505.827108,728.172892 C508.002089,730.347872 507.007381,734.061306 504.036202,734.859661 C501.065024,735.65586 498.34414,732.934976 499.140339,729.963798 C499.936537,726.992619 503.652128,725.997911 505.827108,728.172892 Z M1152.81143,698.246127 C1158.01289,699.638592 1159.75402,706.140415 1155.94722,709.947216 C1152.14042,713.754018 1145.63859,712.012888 1144.24613,706.81143 C1142.85147,701.609971 1147.60997,696.85147 1152.81143,698.246127 Z M352.988412,653.948205 C373.046958,659.321918 379.766923,684.39704 365.082146,699.081662 C350.39737,713.766285 325.321984,707.048593 319.948215,686.988055 C314.572243,666.927517 332.927663,648.572289 352.988412,653.948205 Z M292.536881,650.500968 C305.218466,672.500046 289.36538,700 264,700 C238.63462,700 222.781534,672.500046 235.463119,650.500968 C248.146914,628.499677 279.853086,628.499677 292.536881,650.500968 Z M109.749444,646.314539 C126.083519,655.729343 126.083519,679.269688 109.749444,688.686715 C93.4175939,698.101519 73,686.331347 73,667.499516 C73,648.667684 93.4175939,636.897512 109.749444,646.314539 Z M1406.74944,646.314539 C1423.08352,655.729343 1423.08352,679.269688 1406.74944,688.686715 C1390.41759,698.101519 1370,686.331347 1370,667.499516 C1370,648.667684 1390.41759,636.897512 1406.74944,646.314539 Z M454,667.5 C454,682.489301 437.750975,691.857336 424.750418,684.361572 C411.749861,676.868035 411.749861,658.131965 424.750418,650.638428 C437.750975,643.142664 454,652.510699 454,667.5 Z M1077,667.5 C1077,682.489301 1060.75098,691.857336 1047.75042,684.361572 C1034.74986,676.868035 1034.74986,658.131965 1047.75042,650.638428 C1060.75098,643.142664 1077,652.510699 1077,667.5 Z M980.96146,640.03854 C994.014735,653.091815 988.042722,675.379862 970.211836,680.157473 C952.38095,684.935084 936.064916,668.61905 940.842527,650.788164 C945.620138,632.957278 967.908185,626.985265 980.96146,640.03854 Z M1320.52636,658.993344 C1317.83781,669.022943 1305.30198,672.384051 1297.95843,665.04076 C1290.61703,657.699618 1293.97611,645.162082 1304.00606,642.473626 C1314.03601,639.787318 1323.21276,648.963745 1320.52636,658.993344 Z M220.841483,638.542072 C214.272214,663.058855 183.625137,671.269893 165.677622,653.322378 C147.730107,635.374863 155.941145,604.727786 180.457928,598.158517 C204.976907,591.589248 227.410752,614.023093 220.841483,638.542072 Z M1499.7365,593.682193 C1506.90189,620.428744 1482.42874,644.901893 1455.68219,637.7365 C1428.93564,630.568908 1419.97835,597.136268 1439.55731,577.557309 C1459.13627,557.97835 1492.56891,566.935642 1499.7365,593.682193 Z M387.470385,558.877637 C406.044081,563.85431 412.265475,587.07143 398.668453,600.668453 C385.07143,614.265475 361.85431,608.044081 356.877637,589.470385 C351.900963,570.896689 368.896689,553.900963 387.470385,558.877637 Z M324.60357,553.000684 C337.095033,574.33274 321.480704,601 296.5,601 C271.519296,601 255.904967,574.33274 268.39643,553.000684 C280.885672,531.666439 312.114328,531.666439 324.60357,553.000684 Z M915.841251,563.158749 C927.262793,574.580292 922.037695,594.081771 906.434758,598.263165 C890.834014,602.442367 876.557633,588.165986 880.736835,572.565242 C884.918229,556.962305 904.419708,551.737207 915.841251,563.158749 Z M135.49972,544.652246 C153.500093,555.029731 153.500093,580.971203 135.49972,591.348688 C117.499346,601.723933 95,588.753197 95,568.000467 C95,547.247737 117.499346,534.274762 135.49972,544.652246 Z M1382.49972,544.651376 C1400.50009,555.02904 1400.50009,580.97096 1382.49972,591.348624 C1364.49935,601.724049 1342,588.753089 1342,568 C1342,547.246911 1364.49935,534.275951 1382.49972,544.651376 Z M496,576.5 C496,588.414494 483.082733,595.860499 472.750692,589.903252 C462.416436,583.946005 462.416436,569.053995 472.750692,563.096748 C483.082733,557.139501 496,564.585506 496,576.5 Z M1027,576.5 C1027,588.414651 1014.08396,595.859966 1003.75027,589.903714 C993.416577,583.945314 993.416577,569.054686 1003.75027,563.096286 C1014.08396,557.140034 1027,564.585349 1027,576.5 Z M1294.43799,560.1408 C1291.254,572.027689 1276.39539,576.010409 1267.69249,567.307508 C1258.98959,558.604607 1262.97231,543.745996 1274.8592,540.562008 C1286.74609,537.375831 1297.62417,548.25391 1294.43799,560.1408 Z M257.788568,540.429846 C250.919673,566.061741 218.880358,574.645642 200.117358,555.882642 C181.354358,537.119642 189.938259,505.080327 215.570154,498.211432 C241.202049,491.342537 264.657463,514.797951 257.788568,540.429846 Z M820.454266,521.545734 C828.885296,529.976764 825.026436,544.369502 813.510937,547.456154 C801.995437,550.540623 791.459377,540.004563 794.543846,528.489063 C797.630498,516.973564 812.023236,513.114704 820.454266,521.545734 Z M1469.70141,495.423871 C1477.0658,522.913091 1451.91312,548.065806 1424.42174,540.701401 C1396.93476,533.334793 1387.72762,498.972716 1407.8502,478.850104 C1427.97278,458.727491 1462.33481,467.93465 1469.70141,495.423871 Z M709.68037,524.319724 C712.127384,526.766709 711.008749,530.946247 707.663769,531.842018 C704.320973,532.737789 701.262206,529.679058 702.157988,526.334117 C703.053769,522.99136 707.233357,521.872739 709.68037,524.319724 Z M444.953724,475.807778 C462.040723,480.385217 467.764213,501.745093 455.254653,514.254653 C442.745093,526.764213 421.385217,521.040723 416.807778,503.953724 C412.228084,486.86447 427.86447,471.228084 444.953724,475.807778 Z M375.73993,464.499038 C387.844831,485.166621 372.712032,511 348.5,511 C324.287968,511 309.155169,485.166621 321.26007,464.499038 C333.367201,443.833654 363.632799,443.833654 375.73993,464.499038 Z M558,503.999853 C558,507.844146 553.833655,510.246002 550.500138,508.322753 C547.166621,506.401709 547.166621,501.597998 550.500138,499.676954 C553.833655,497.753705 558,500.157766 558,503.999853 Z M944,504 C944,507.843095 939.833376,510.244777 936.500886,508.32424 C933.166371,506.401682 933.166371,501.598318 936.500886,499.67576 C939.833376,497.755223 944,500.156905 944,504 Z M176.499445,446.921913 C195.833518,458.068222 195.833518,485.931778 176.499445,497.078087 C157.165372,508.22218 133,494.290402 133,472 C133,449.709598 157.165372,435.77782 176.499445,446.921913 Z M1344.49945,446.922775 C1363.83352,458.068906 1363.83352,485.932018 1344.49945,497.078149 C1325.16759,508.222065 1301,494.290509 1301,472.000462 C1301,449.710415 1325.16759,435.776643 1344.49945,446.922775 Z M80.4733502,477.117559 C83.4594492,488.263014 73.2630136,498.459449 62.1175591,495.47335 C50.9743116,492.487251 47.2400326,478.558744 55.3993881,470.399388 C63.5565366,462.240033 77.4872512,465.974312 80.4733502,477.117559 Z M1150.91805,475.998555 C1153.99205,481.332064 1150.15008,488 1144,488 C1137.84992,488 1134.00795,481.332064 1137.08195,475.998555 C1140.15594,470.667148 1147.84406,470.667148 1150.91805,475.998555 Z M1249.33302,468.918449 C1245.55078,483.032683 1227.9063,487.762178 1217.57206,477.42794 C1207.23782,467.093701 1211.96732,449.449221 1226.08155,445.666976 C1240.19803,441.88473 1253.11527,454.801965 1249.33302,468.918449 Z M307.770994,452.059849 C300.804679,478.061355 268.29891,486.77147 249.26372,467.73628 C230.22853,448.70109 238.938645,416.195321 264.940151,409.229006 C290.943877,402.260469 314.739531,426.056123 307.770994,452.059849 Z M520.176627,410.702076 C535.035703,414.685535 540.012269,433.256622 529.134445,444.134445 C518.256622,455.012269 499.683328,450.035703 495.702076,435.176627 C491.720823,420.317551 505.317551,406.720823 520.176627,410.702076 Z M1427.6835,401.794164 C1435.14855,429.655935 1409.65594,455.148546 1381.79416,447.683495 C1353.93239,440.218445 1344.60272,405.391779 1364.99725,384.997251 C1385.39178,364.602724 1420.21844,373.932392 1427.6835,401.794164 Z M443.009222,388.749035 C454.347878,408.416621 440.175109,433 417.5,433 C394.824891,433 380.652122,408.416621 391.990778,388.749035 C403.327231,369.083655 431.672769,369.083655 443.009222,388.749035 Z M1086.2408,397.500526 C1091.23882,406.165789 1084.99182,417 1075,417 C1065.00818,417 1058.76118,406.165789 1063.7592,397.500526 C1068.75511,388.833158 1081.24489,388.833158 1086.2408,397.500526 Z M231.499862,357.192915 C252.166713,369.108896 252.166713,398.893316 231.499862,410.807085 C210.83301,422.720853 185,407.827537 185,384 C185,360.172463 210.83301,345.279147 231.499862,357.192915 Z M1291.49862,357.192915 C1312.16713,369.106684 1312.16713,398.893316 1291.49862,410.807085 C1270.83232,422.720853 1245,407.827537 1245,384 C1245,360.172463 1270.83232,345.279147 1291.49862,357.192915 Z M130.385681,384.971679 C133.869341,397.97168 121.97168,409.869341 108.971679,406.385681 C95.9694414,402.902021 91.6137479,386.650901 101.132325,377.132325 C110.650901,367.613748 126.902021,371.969441 130.385681,384.971679 Z M1189.26244,387.434204 C1185.08309,403.037697 1165.58092,408.262981 1154.15897,396.841031 C1142.73702,385.419082 1147.9623,365.916909 1163.5658,361.737559 C1179.1671,357.556016 1193.44398,371.832905 1189.26244,387.434204 Z M611.028759,366.614663 C624.029932,370.097182 628.386461,386.348936 618.867863,395.867379 C609.349266,405.385822 593.097248,401.03157 589.614673,388.028401 C586.129891,375.027439 598.027586,363.129937 611.028759,366.614663 Z M373.771257,373.05968 C366.803809,399.062365 334.299349,407.771124 315.264113,388.735887 C296.228876,369.700651 304.937635,337.196191 330.94032,330.228743 C356.945212,323.261294 380.738706,347.054788 373.771257,373.05968 Z M710.883023,346.526188 C722.026691,349.513195 725.759363,363.441694 717.600529,371.600529 C709.441694,379.759363 695.513195,376.026691 692.526188,364.883023 C689.541354,353.739354 699.739354,343.541354 710.883023,346.526188 Z M811.181342,358.228214 C816.012281,359.522175 817.628606,365.559158 814.093882,369.093882 C810.559158,372.628606 804.522175,371.012281 803.228214,366.181342 C801.934253,361.352657 806.352657,356.934253 811.181342,358.228214 Z M524.21226,327.998885 C534.974255,346.666295 521.521762,370 500,370 C478.478238,370 465.025745,346.666295 475.78774,327.998885 C486.547507,309.333705 513.452493,309.333705 524.21226,327.998885 Z M1371.64837,315.53478 C1379.31259,344.137681 1353.13984,370.312685 1324.53475,362.648452 C1295.93188,354.984218 1286.3516,319.228923 1307.29024,298.290255 C1328.22889,277.351587 1363.98414,286.931879 1371.64837,315.53478 Z M1004.90293,335.751364 C1010.861,346.084334 1003.41396,359 991.5,359 C979.58604,359 972.138997,346.084334 978.097067,335.751364 C984.052957,325.416212 998.947043,325.416212 1004.90293,335.751364 Z M298.750414,277.395632 C320.416529,289.887443 320.416529,321.112557 298.750414,333.604368 C277.0843,346.093972 250,330.481415 250,305.5 C250,280.518585 277.0843,264.906028 298.750414,277.395632 Z M1225.75041,277.397006 C1247.41653,289.886981 1247.41653,321.113019 1225.75041,333.602994 C1204.0843,346.095174 1177,330.482154 1177,305.5 C1177,280.517846 1204.0843,264.904826 1225.75041,277.397006 Z M1116.15747,319.211836 C1111.37986,337.042722 1089.09182,343.014735 1076.03854,329.96146 C1062.98526,316.908185 1068.95728,294.620138 1086.78816,289.842527 C1104.61905,285.064916 1120.93508,301.38095 1116.15747,319.211836 Z M452.770994,307.059489 C445.804679,333.063004 413.29891,341.770827 394.26372,322.735792 C375.22853,303.700758 383.938645,271.197475 409.940151,264.228996 C435.943877,257.260516 459.739531,281.055975 452.770994,307.059489 Z M615.550704,289.751097 C625.350571,306.750366 613.10238,328 593.500457,328 C573.898533,328 561.648152,306.750366 571.450209,289.751097 C581.250076,272.749634 605.750837,272.749634 615.550704,289.751097 Z M191.297924,300.823373 C195.279177,315.682449 181.682449,329.279177 166.823373,325.297924 C151.964297,321.316672 146.987731,302.743378 157.865555,291.865555 C168.743378,280.987731 187.316672,285.964297 191.297924,300.823373 Z M914.497186,292.249858 C921.608089,304.583001 912.720029,320 898.500495,320 C884.280962,320 875.392902,304.583001 882.501532,292.249858 C889.612435,279.916714 907.388556,279.916714 914.497186,292.249858 Z M714.82095,268.75014 C723.853477,284.416993 712.562818,304 694.5,304 C676.437182,304 665.146523,284.416993 674.17905,268.75014 C683.209341,253.083287 705.788423,253.083287 714.82095,268.75014 Z M814.2274,271.250277 C822.105262,284.917312 812.257934,302 796.5,302 C780.742066,302 770.894738,284.917312 778.7726,271.250277 C786.650462,257.583241 806.349538,257.583241 814.2274,271.250277 Z M1304.64886,237.534773 C1312.3117,266.137697 1286.1377,292.311696 1257.53477,284.648855 C1228.93185,276.983802 1219.35108,241.231253 1240.29117,220.291169 C1261.22904,199.351085 1296.9838,208.931848 1304.64886,237.534773 Z M1032.06933,265.357347 C1026.79505,285.046964 1002.18476,291.641498 987.771694,277.228403 C973.358628,262.815307 979.953148,238.204964 999.640487,232.93068 C1019.33006,227.654158 1037.34584,245.669967 1032.06933,265.357347 Z M541.789175,255.429617 C534.920218,281.061742 502.880617,289.645719 484.117449,270.882551 C465.354281,252.119383 473.938258,220.079782 499.570383,213.210825 C525.202508,206.344086 548.655914,229.797492 541.789175,255.429617 Z M1148.75042,208.667107 C1171.74986,221.925179 1171.74986,255.074821 1148.75042,268.332893 C1125.75098,281.593196 1097,265.018375 1097,238.5 C1097,211.981625 1125.75098,195.406804 1148.75042,208.667107 Z M377.750419,208.667107 C400.74986,221.925179 400.74986,255.074821 377.750419,268.332893 C354.750978,281.593196 326,265.018375 326,238.5 C326,211.981625 354.750978,195.406804 377.750419,208.667107 Z M264.192216,224.046276 C268.771921,241.13553 253.135498,256.771916 236.048459,252.192222 C218.959164,247.614783 213.23566,226.254907 225.74525,213.745347 C238.254839,201.235787 259.614766,206.959277 264.192216,224.046276 Z M938.999213,227.875985 C933.326901,249.050844 906.858327,256.142341 891.357993,240.642007 C875.857659,225.141673 882.949156,198.673099 904.124015,193.000787 C925.296661,187.326261 944.673739,206.703339 938.999213,227.875985 Z M636.841483,222.542072 C630.272214,247.058855 599.625137,255.269893 581.677622,237.322378 C563.730107,219.374863 571.941145,188.727786 596.457928,182.158517 C620.976907,175.589248 643.410752,198.023093 636.841483,222.542072 Z M738.876592,205.281384 C732.506386,229.057611 702.788372,237.019273 685.384612,219.615484 C667.980852,202.211694 675.9425,172.493631 699.716467,166.123413 C723.492654,159.753196 745.246799,181.507378 738.876592,205.281384 Z M839.928986,206.393585 C833.858501,229.054354 805.53254,236.643574 788.944483,220.055517 C772.356426,203.46746 779.945646,175.143726 802.606415,169.071014 C825.264957,162.998302 846.001698,183.735043 839.928986,206.393585 Z M1061.24875,154.801277 C1084.91708,168.445895 1084.91708,202.554105 1061.24875,216.198723 C1037.58264,229.841118 1008,212.787013 1008,185.5 C1008,158.212987 1037.58264,141.158882 1061.24875,154.801277 Z M466.250556,154.802141 C489.916481,168.446581 489.916481,202.554346 466.250556,216.198786 C442.582406,229.841003 413,212.78712 413,185.500463 C413,158.213807 442.582406,141.157701 466.250556,154.802141 Z M1226.64837,170.534749 C1234.31259,199.139844 1208.13984,225.312594 1179.53475,217.648369 C1150.93188,209.984144 1141.3516,174.228888 1162.29024,153.290243 C1183.22889,132.351598 1218.98414,141.931879 1226.64837,170.534749 Z M346.122363,159.529615 C351.099037,178.103311 334.103311,195.099037 315.529615,190.122363 C296.955919,185.14569 290.734525,161.92857 304.331547,148.331547 C317.92857,134.734525 341.14569,140.955919 346.122363,159.529615 Z M965.999587,114.869673 C990.000138,128.705618 990.000138,163.294382 965.999587,177.130327 C941.999037,190.966272 912,173.67189 912,146 C912,118.32811 941.999037,101.033728 965.999587,114.869673 Z M560.999587,114.869673 C585.000138,128.705618 585.000138,163.294382 560.999587,177.130327 C536.999037,190.966272 507,173.67189 507,146 C507,118.32811 536.999037,101.033728 560.999587,114.869673 Z M1140.68358,113.794195 C1148.14864,141.653804 1122.6538,167.148636 1094.79419,159.683577 C1066.93239,152.218518 1057.60271,117.391814 1077.99726,96.9972637 C1098.39181,76.6027139 1133.21852,85.9323923 1140.68358,113.794195 Z M866.75,89.9379346 C891.083333,103.965454 891.083333,139.034253 866.75,153.061773 C842.416667,167.091493 812,149.557093 812,121.499854 C812,93.4448145 842.416667,75.9082149 866.75,89.9379346 Z M661.75,89.9379346 C686.083333,103.965454 686.083333,139.034253 661.75,153.061773 C637.416667,167.091493 607,149.557093 607,121.499854 C607,93.4448145 637.416667,75.9082149 661.75,89.9379346 Z M763.749316,81.9364373 C788.083561,95.9648992 788.083561,131.036054 763.749316,145.06233 C739.41726,159.090792 709,141.557401 709,113.500477 C709,85.4435528 739.41726,67.9101618 763.749316,81.9364373 Z M437.034574,105.382369 C442.509011,125.813588 423.813588,144.509011 403.382369,139.034574 C382.951151,133.560138 376.108105,108.021671 391.064888,93.0648881 C406.021671,78.1081053 431.560138,84.9511505 437.034574,105.382369 Z M1045.7014,71.4217374 C1053.06581,98.9131227 1027.91309,124.065801 1000.42387,116.701407 C972.93465,109.334809 963.727491,74.9727815 983.850104,54.8501984 C1003.97272,34.7276152 1038.33479,43.9347606 1045.7014,71.4217374 Z M533.964463,63.8637519 C539.836916,85.780231 519.780231,105.836916 497.863752,99.9644634 C475.947273,94.0920105 468.607258,66.6953099 484.651284,50.6512837 C500.69531,34.6072576 528.09201,41.9472729 533.964463,63.8637519 Z M946.735898,41.6819657 C953.903429,68.4282893 929.428289,92.9034289 902.681966,85.7358979 C875.935642,78.5705655 866.978427,45.1360121 886.55722,25.5572195 C906.136012,5.97842694 939.570566,14.9356421 946.735898,41.6819657 Z M634.894156,37.3461114 C641.164779,60.7506769 619.750677,82.1647792 596.346111,75.8941555 C572.943763,69.6235318 565.106037,40.3694874 582.237762,23.2377623 C599.369487,6.10603708 628.623532,13.9437626 634.894156,37.3461114 Z M843.771004,25.9405105 C850.739484,51.944025 826.944025,75.7394843 800.940511,68.7710045 C774.936996,61.8025247 766.229173,29.2992423 785.264208,10.2642076 C804.299242,-8.77082704 836.804746,-0.0630039742 843.771004,25.9405105 Z M739.841483,24.4579284 C746.410752,48.9769071 723.976907,71.4107519 699.457928,64.841483 C674.941145,58.2722141 666.730107,27.6251369 684.677622,9.67762204 C702.625137,-8.26989282 733.272214,-0.0588553858 739.841483,24.4579284 Z M1113.13232,1390.13232 C1122.6509,1380.61375 1138.90202,1384.96944 1142.38568,1397.97168 C1145.86934,1410.97168 1133.97168,1422.86934 1120.97168,1419.38568 C1107.96944,1415.90202 1103.61375,1399.6509 1113.13232,1390.13232 M1023.39856,1438.39856 C1031.55818,1430.24114 1045.48714,1433.97334 1048.47333,1445.11695 C1051.45953,1456.26276 1041.26276,1466.45953 1030.11695,1463.47333 C1018.97334,1460.48714 1015.24114,1446.55818 1023.39856,1438.39856 M928.665241,1473.66606 C935.462932,1466.86646 947.072763,1469.97906 949.561204,1479.26483 C952.049644,1488.55061 943.550363,1497.04957 934.264232,1494.56122 C924.9781,1492.07288 921.86755,1480.46349 928.665241,1473.66606 M828.079007,1495.07901 C833.788704,1489.36931 843.541293,1491.98034 845.63145,1499.78241 C847.721607,1507.58227 840.582269,1514.72161 832.782414,1512.63145 C824.980343,1510.54129 822.369309,1500.7887 828.079007,1495.07901 M727.492826,1501.49235 C732.115387,1496.86964 740.009364,1498.98548 741.701552,1505.30044 C743.393739,1511.61539 737.615538,1517.39378 731.300791,1515.70154 C724.983871,1514.0093 722.870266,1506.11506 727.492826,1501.49235 M625.199007,1493.19933 C629.277367,1489.12037 636.243806,1490.98686 637.736777,1496.559 C639.229748,1502.13114 634.129523,1507.22984 628.558192,1505.73665 C622.986861,1504.24346 621.120647,1497.27828 625.199007,1493.19933 M526.466293,1470.46629 C529.185382,1467.74721 533.829787,1468.99064 534.824112,1472.70616 C535.820548,1476.42169 532.421688,1479.82055 528.706163,1478.82411 C524.990639,1477.82979 523.747205,1473.18538 526.466293,1470.46629 M37.4662184,981.466218 C40.1855211,978.746916 44.8289734,979.991239 45.8244324,983.706001 C46.8198915,987.420763 43.420763,990.819891 39.7060012,989.824432 C35.9912394,988.828973 34.7469156,984.185521 37.4662184,981.466218 M11.1993276,880.199007 C15.2782817,876.120647 22.2434601,877.986861 23.7366487,883.558192 C25.2298372,889.129523 20.1311446,894.229748 14.5590019,892.736777 C8.98685915,891.243806 7.12037344,884.277367 11.1993276,880.199007 M2.49252043,775.49252 C7.11451365,770.870527 15.0096947,772.983873 16.7016744,779.300018 C18.3936541,785.613991 12.6139905,791.393654 6.30001767,789.701674 C-0.0161272032,788.009695 -2.12947279,780.114514 2.49252043,775.49252 M6.07900674,673.079007 C11.7887042,667.369309 21.5412931,669.980343 23.6314502,677.782414 C25.7216074,685.582269 18.582269,692.721607 10.7824144,690.63145 C2.98034327,688.541293 0.36930925,678.788704 6.07900674,673.079007 M24.6652287,569.665241 C31.4628972,562.86755 43.0726906,565.9781 45.5611228,575.264232 C48.049555,584.550363 39.5524695,593.049644 30.2642012,590.561204 C20.9781005,588.072763 17.8675602,576.465099 24.6652287,569.665241" id="Combined-Shape-Copy" fill="#EA473B"></path>
    </g>
</svg>