<?xml version="1.0" encoding="UTF-8"?>
<svg width="1120px" height="1120px" viewBox="0 0 1120 1120" version="1.1" xmlns="http://www.w3.org/2000/svg" xmlns:xlink="http://www.w3.org/1999/xlink">
    <title>Group 673 Copy</title>
    <g id="Web" stroke="none" stroke-width="1" fill="none" fill-rule="evenodd">
        <g id="Group-673-Copy" fill="#FDFFD6">
            <path d="M680.549734,125.76466 C677.98047,137.018984 666.776585,144.06003 655.522261,141.490766 C644.267936,138.921501 637.22689,127.71604 639.796155,116.463292 C642.365419,105.208967 653.569304,98.1679215 664.823629,100.737186 C676.077953,103.304874 683.118999,114.510335 680.549734,125.76466 M774.153716,163.476735 C769.146015,173.876739 756.654345,178.247641 746.25434,173.238364 C735.854336,168.230662 731.483434,155.738993 736.491135,145.338988 C741.500413,134.938983 753.990506,130.568081 764.392087,135.577359 C774.792092,140.58506 779.162994,153.07673 774.153716,163.476735 M857.019275,221.07208 C849.822182,230.097606 836.671646,231.579268 827.646119,224.382175 C818.622168,217.185082 817.140507,204.034546 824.3376,195.009019 C831.534693,185.985068 844.685229,184.50183 853.70918,191.698923 C862.734707,198.896017 864.216368,212.046553 857.019275,221.07208 M924.990824,295.662715 C915.965297,302.859809 902.816337,301.378147 895.617667,292.35262 C888.420574,283.328669 889.903812,270.178133 898.927763,262.98104 C907.95329,255.783947 921.103826,257.265609 928.300919,266.289559 C935.498012,275.315086 934.01635,288.465622 924.990824,295.662715 M974.660382,383.508392 C964.260377,388.516093 951.768707,384.146768 946.761006,373.745187 C941.751728,363.345182 946.12263,350.855089 956.522635,345.845811 C966.922639,340.83811 979.414309,345.209012 984.423587,355.609016 C989.431288,366.009021 985.060386,378.50069 974.660382,383.508392 M1003.53702,480.204003 C992.282699,482.773267 981.077238,475.732221 978.50955,464.477897 C975.940285,453.223573 982.981331,442.019688 994.235655,439.450423 C1005.4884,436.881159 1016.69386,443.922204 1019.26313,455.176529 C1021.83082,466.430853 1014.79135,477.634738 1003.53702,480.204003 M1010.17298,580.900888 C998.630201,580.900888 989.272088,571.542776 989.272088,560 C989.272088,548.457224 998.630201,539.099112 1010.17298,539.099112 C1021.71575,539.099112 1031.07386,548.457224 1031.07386,560 C1031.07386,571.542776 1021.71575,580.900888 1010.17298,580.900888 M994.23534,680.549734 C982.981016,677.98047 975.93997,666.775009 978.509234,655.522261 C981.078499,644.267936 992.28396,637.22689 1003.53671,639.796155 C1014.79103,642.363843 1021.83208,653.569304 1019.26281,664.823629 C1016.69513,676.077953 1005.48966,683.118999 994.23534,680.549734 M956.523265,774.153716 C946.123261,769.146015 941.752359,756.654345 946.761636,746.25434 C951.769338,735.854336 964.261007,731.483434 974.661012,736.491135 C985.061017,741.500413 989.431919,753.990506 984.422641,764.390511 C979.41494,774.792092 966.92327,779.161418 956.523265,774.153716 M898.92792,857.019275 C889.902394,849.822182 888.420732,836.671646 895.617825,827.646119 C902.814918,818.622168 915.965454,817.140507 924.990981,824.3376 C934.014932,831.534693 935.49817,844.685229 928.301077,853.70918 C921.103983,862.734707 907.953447,864.216368 898.92792,857.019275 M824.337285,924.990824 C817.140191,915.966873 818.621853,902.816337 827.64738,895.619244 C836.671331,888.420574 849.821867,889.903812 857.01896,898.927763 C864.216053,907.95329 862.734391,921.103826 853.710441,928.300919 C844.684914,935.498012 831.534378,934.01635 824.337285,924.990824 M736.491608,974.660382 C731.483907,964.260377 735.853232,951.768707 746.254813,946.761006 C756.654818,941.751728 769.144911,946.12263 774.154189,956.522635 C779.16189,966.922639 774.790988,979.414309 764.390984,984.423587 C753.990979,989.431288 741.49931,985.060386 736.491608,974.660382 M639.795997,1003.53702 C637.226733,992.282699 644.267779,981.078814 655.522103,978.50955 C666.776427,975.940285 677.980312,982.981331 680.549577,994.235655 C683.118841,1005.48998 676.077796,1016.69386 664.823471,1019.26313 C653.569147,1021.83239 642.365262,1014.79135 639.795997,1003.53702 M539.099112,1010.17298 C539.099112,998.630201 548.457224,989.272088 560,989.272088 C571.542776,989.272088 580.900888,998.630201 580.900888,1010.17298 C580.900888,1021.71575 571.542776,1031.07386 560,1031.07386 C548.457224,1031.07386 539.099112,1021.71575 539.099112,1010.17298 M439.450266,994.23534 C442.01953,982.981016 453.224991,975.941546 464.477739,978.509234 C475.732064,981.078499 482.77311,992.28396 480.203845,1003.53671 C477.636157,1014.79103 466.430696,1021.83208 455.176371,1019.26281 C443.922047,1016.69513 436.881001,1005.48966 439.450266,994.23534 M345.846284,956.523265 C350.853985,946.123261 363.345655,941.752359 373.74566,946.761636 C384.145664,951.769338 388.516566,964.261007 383.508865,974.661012 C378.499587,985.061017 366.009494,989.431919 355.609489,984.422641 C345.207908,979.41494 340.838582,966.92327 345.846284,956.523265 M262.980725,898.92792 C270.177818,889.902394 283.328354,888.420732 292.353881,895.617825 C301.377832,902.814918 302.859493,915.965454 295.6624,924.990981 C288.465307,934.014932 275.314771,935.49817 266.29082,928.301077 C257.265293,921.103983 255.783632,907.953447 262.980725,898.92792 M195.009176,824.337285 C204.033127,817.140191 217.183663,818.621853 224.380756,827.64738 C231.579426,836.671331 230.096188,849.821867 221.072237,857.01896 C212.04671,864.216053 198.896174,862.734391 191.699081,853.710441 C184.501988,844.684914 185.98365,831.534378 195.009176,824.337285 M145.339618,736.491608 C155.739623,731.483907 168.231293,735.854809 173.238994,746.254813 C178.248272,756.654818 173.87737,769.144911 163.477365,774.154189 C153.077361,779.16189 140.585691,774.790988 135.576413,764.390984 C130.568712,753.990979 134.939614,741.500886 145.339618,736.491608 M116.462977,639.795997 C127.717301,637.226733 138.921186,644.267779 141.49045,655.522103 C144.059715,666.776427 137.018669,677.980312 125.764345,680.549577 C114.51002,683.118841 103.306135,676.077796 100.736871,664.823471 C98.1676063,653.569147 105.208652,642.365262 116.462977,639.795997 M109.827023,539.099112 C121.369799,539.099112 130.727912,548.457224 130.727912,560 C130.727912,571.542776 121.369799,580.900888 109.827023,580.900888 C98.2842478,580.900888 88.9261351,571.542776 88.9261351,560 C88.9261351,548.457224 98.2842478,539.099112 109.827023,539.099112 M125.76466,439.450266 C137.018984,442.01953 144.058454,453.223415 141.490766,464.477739 C138.921501,475.732064 127.71604,482.77311 116.463292,480.203845 C105.208967,477.634581 98.1679215,466.430696 100.737186,455.176371 C103.304874,443.922047 114.510335,436.881001 125.76466,439.450266 M163.476735,345.846284 C173.876739,350.853985 178.247641,363.345655 173.238364,373.74566 C168.230662,384.145664 155.738993,388.516566 145.338988,383.508865 C134.938983,378.499587 130.568081,366.009494 135.577359,355.607913 C140.58506,345.207908 153.07673,340.837006 163.476735,345.846284 M221.07208,262.980725 C230.097606,270.177818 231.579268,283.328354 224.382175,292.353881 C217.185082,301.377832 204.034546,302.859493 195.009019,295.6624 C185.985068,288.465307 184.50183,275.314771 191.698923,266.29082 C198.896017,257.265293 212.046553,255.783632 221.07208,262.980725 M295.662715,195.009176 C302.859809,204.034703 301.378147,217.183663 292.35262,224.382333 C283.328669,231.579426 270.178133,230.096188 262.98104,221.072237 C255.783947,212.04671 257.265609,198.896174 266.289559,191.699081 C275.315086,184.501988 288.465622,185.98365 295.662715,195.009176 M383.508392,145.339618 C388.516093,155.739623 384.145191,168.231293 373.745187,173.238994 C363.345182,178.248272 350.855089,173.87737 345.845811,163.477365 C340.83811,153.077361 345.209012,140.585691 355.609016,135.576413 C366.009021,130.568712 378.499114,134.939614 383.508392,145.339618 M480.204003,116.462977 C482.773267,127.717301 475.732221,138.921186 464.477897,141.49045 C453.223573,144.059715 442.019688,137.018669 439.450423,125.764345 C436.881159,114.51002 443.922204,103.306135 455.176529,100.736871 C466.430853,98.1676063 477.634738,105.208652 480.204003,116.462977 M580.900888,109.827023 C580.900888,121.369799 571.542776,130.727912 560,130.727912 C548.457224,130.727912 539.099112,121.369799 539.099112,109.827023 C539.099112,98.2842478 548.457224,88.9261351 560,88.9261351 C571.542776,88.9261351 580.900888,98.2842478 580.900888,109.827023 M531.094513,147.986749 C532.171082,157.545044 525.295541,166.167054 515.737246,167.245199 C506.178952,168.321769 497.556941,161.446228 496.478796,151.887933 C495.402227,142.329638 502.277768,133.706052 511.836063,132.629483 C521.394357,131.551337 530.017944,138.428454 531.094513,147.986749 M623.50087,151.884623 C622.424301,161.442917 613.802291,168.320035 604.243996,167.243466 C594.684126,166.16532 587.808584,157.544886 588.885154,147.985015 C589.961723,138.426721 598.583733,131.549603 608.142028,132.627749 C617.701899,133.704318 624.57744,142.326328 623.50087,151.884623 M712.722916,176.24724 C709.545225,185.326359 699.61021,190.111811 690.531091,186.935696 C681.450396,183.758004 676.664943,173.82299 679.842635,164.742294 C683.01875,155.663176 692.955342,150.877723 702.03446,154.055415 C711.115156,157.23153 715.900608,167.168121 712.722916,176.24724 M794.28682,219.852861 C789.168782,227.997272 778.417277,230.451471 770.272866,225.33501 C762.126878,220.216972 759.672679,209.465466 764.790717,201.319479 C769.908755,193.175068 780.66026,190.720869 788.804671,195.838907 C796.950658,200.955369 799.404858,211.70845 794.28682,219.852861 M864.102722,280.514773 C857.301264,287.316231 846.272341,287.316231 839.470883,280.514773 C832.667849,273.713315 832.667849,262.685969 839.469307,255.882934 C846.272341,249.081477 857.299688,249.081477 864.102722,255.882934 C870.90418,262.684392 870.90418,273.713315 864.102722,280.514773 M918.669487,355.191156 C910.525076,360.309194 899.773571,357.854995 894.655533,349.710584 C889.537495,341.566173 891.990118,330.814668 900.136105,325.69663 C908.280516,320.578592 919.032021,323.031215 924.150059,331.177202 C929.268097,339.321613 926.813898,350.073118 918.669487,355.191156 M955.251085,440.137662 C946.171967,443.315354 936.235375,438.529901 933.057684,429.450783 C929.881568,420.371664 934.665444,410.435072 943.744563,407.257381 C952.825258,404.081265 962.760273,408.865141 965.937965,417.94426 C969.115656,427.024955 964.330204,436.95997 955.251085,440.137662 M972.013251,531.094513 C962.454956,532.171082 953.832946,525.295541 952.754801,515.737246 C951.678231,506.178952 958.553772,497.556941 968.112067,496.478796 C977.670362,495.402227 986.293948,502.277768 987.370517,511.836063 C988.447087,521.394357 981.571546,530.017944 972.013251,531.094513 M968.115377,623.50087 C958.557083,622.424301 951.679965,613.802291 952.756534,604.243996 C953.83468,594.684126 962.455114,587.808584 972.014985,588.885154 C981.573279,589.961723 988.450397,598.583733 987.372251,608.142028 C986.295682,617.701899 977.673672,624.57744 968.115377,623.50087 M943.75276,712.722916 C934.673641,709.545225 929.888189,699.61021 933.064304,690.531091 C936.241996,681.450396 946.17701,676.66652 955.257706,679.842635 C964.336824,683.020327 969.122277,692.955342 965.944585,702.03446 C962.76847,711.115156 952.831879,715.900608 943.75276,712.722916 M900.147139,794.28682 C892.002728,789.168782 889.548529,778.417277 894.66499,770.272866 C899.783028,762.126878 910.534534,759.672679 918.680521,764.790717 C926.824932,769.908755 929.279131,780.66026 924.161093,788.804671 C919.044631,796.950658 908.29155,799.404858 900.147139,794.28682 M839.485227,864.102722 C832.683769,857.301264 832.683769,846.272341 839.485227,839.470883 C846.286685,832.669425 857.314031,832.667849 864.117066,839.470883 C870.918523,846.272341 870.918523,857.299688 864.117066,864.102722 C857.315608,870.90418 846.286685,870.90418 839.485227,864.102722 M764.808844,918.669487 C759.690806,910.525076 762.145005,899.773571 770.289416,894.655533 C778.433827,889.537495 789.185332,891.990118 794.30337,900.136105 C799.421408,908.280516 796.968785,919.032021 788.822798,924.150059 C780.678387,929.268097 769.926882,926.813898 764.808844,918.669487 M679.862338,955.251085 C676.684646,946.171967 681.470099,936.235375 690.549217,933.057684 C699.628336,929.881568 709.564928,934.665444 712.742619,943.744563 C715.918735,952.825258 711.134859,962.760273 702.05574,965.937965 C692.975045,969.115656 683.04003,964.330204 679.862338,955.251085 M588.905487,972.013251 C587.828918,962.454956 594.704459,953.83137 604.262754,952.754801 C613.821048,951.678231 622.443059,958.553772 623.521204,968.112067 C624.597773,977.670362 617.722232,986.293948 608.163937,987.370517 C598.605643,988.447087 589.982056,981.571546 588.905487,972.013251 M496.49913,968.115377 C497.575699,958.557083 506.197709,951.679965 515.756004,952.756534 C525.315874,953.833104 532.191416,962.455114 531.114846,972.014985 C530.038277,981.573279 521.416267,988.450397 511.857972,987.372251 C502.298101,986.295682 495.42256,977.673672 496.49913,968.115377 M407.277084,943.75276 C410.454775,934.673641 420.38979,929.888189 429.468909,933.064304 C438.549604,936.241996 443.33348,946.17701 440.157365,955.257706 C436.979673,964.336824 427.044658,969.122277 417.96554,965.944585 C408.884844,962.76847 404.099392,952.831879 407.277084,943.75276 M325.71318,900.147139 C330.831218,892.002728 341.582723,889.548529 349.727134,894.66499 C357.873122,899.783028 360.327321,910.534534 355.209283,918.680521 C350.091245,926.824932 339.33974,929.279131 331.195329,924.161093 C323.049342,919.043055 320.595142,908.293126 325.71318,900.147139 M255.897278,839.485227 C262.698736,832.683769 273.727659,832.682193 280.529117,839.485227 C287.330575,846.286685 287.332151,857.314031 280.529117,864.117066 C273.727659,870.918523 262.700312,870.918523 255.897278,864.117066 C249.09582,857.315608 249.09582,846.286685 255.897278,839.485227 M201.330513,764.808844 C209.474924,759.690806 220.226429,762.145005 225.344467,770.289416 C230.462505,778.433827 228.009882,789.185332 219.863895,794.30337 C211.719484,799.421408 200.967979,796.968785 195.849941,788.822798 C190.731903,780.678387 193.186102,769.926882 201.330513,764.808844 M164.748915,679.862338 C173.828033,676.684646 183.764625,681.470099 186.942316,690.549217 C190.118432,699.628336 185.334556,709.564928 176.255437,712.742619 C167.174742,715.918735 157.239727,711.134859 154.062035,702.05574 C150.884344,692.975045 155.669796,683.04003 164.748915,679.862338 M147.986749,588.905487 C157.545044,587.828918 166.16863,594.704459 167.245199,604.262754 C168.321769,613.821048 161.446228,622.443059 151.887933,623.521204 C142.329638,624.597773 133.706052,617.722232 132.629483,608.163937 C131.552913,598.605643 138.428454,589.982056 147.986749,588.905487 M151.884623,496.49913 C161.442917,497.575699 168.320035,506.197709 167.243466,515.756004 C166.166896,525.315874 157.544886,532.191416 147.985015,531.114846 C138.426721,530.038277 131.549603,521.416267 132.627749,511.857972 C133.704318,502.298101 142.326328,495.42256 151.884623,496.49913 M176.24724,407.277084 C185.326359,410.454775 190.111811,420.38979 186.935696,429.468909 C183.758004,438.549604 173.82299,443.335057 164.742294,440.157365 C155.663176,436.98125 150.877723,427.044658 154.055415,417.96554 C157.23153,408.884844 167.168121,404.099392 176.24724,407.277084 M219.852861,325.71318 C227.997272,330.831218 230.451471,341.582723 225.33501,349.727134 C220.216972,357.873122 209.465466,360.327321 201.319479,355.209283 C193.175068,350.091245 190.720869,339.33974 195.838907,331.195329 C200.956945,323.049342 211.706874,320.595142 219.852861,325.71318 M280.514773,255.897278 C287.316231,262.698736 287.317807,273.727659 280.514773,280.529117 C273.713315,287.332151 262.685969,287.332151 255.882934,280.530693 C249.081477,273.727659 249.081477,262.700312 255.882934,255.897278 C262.684392,249.09582 273.713315,249.09582 280.514773,255.897278 M355.191156,201.330513 C360.309194,209.474924 357.854995,220.226429 349.710584,225.344467 C341.566173,230.462505 330.814668,228.009882 325.69663,219.863895 C320.578592,211.719484 323.031215,200.967979 331.177202,195.849941 C339.321613,190.731903 350.073118,193.186102 355.191156,201.330513 M440.137662,164.748915 C443.315354,173.828033 438.529901,183.764625 429.450783,186.942316 C420.371664,190.118432 410.435072,185.334556 407.257381,176.255437 C404.081265,167.174742 408.865141,157.239727 417.94426,154.062035 C427.024955,150.884344 436.95997,155.669796 440.137662,164.748915 M659.447088,186.912368 C657.735296,194.415251 650.263938,199.109281 642.761055,197.395913 C635.259748,195.684121 630.565717,188.214339 632.27751,180.711456 C633.990878,173.208573 641.46066,168.514542 648.963543,170.227911 C656.46485,171.939703 661.15888,179.409485 659.447088,186.912368 M739.973513,218.395631 C736.635045,225.329493 728.307791,228.242377 721.373929,224.903909 C714.440068,221.565441 711.527184,213.238187 714.865651,206.304325 C718.204119,199.370464 726.531373,196.45758 733.465235,199.796047 C740.399097,203.134515 743.311981,211.461769 739.973513,218.395631 M811.475357,267.008165 C806.677295,273.024658 797.910271,274.012958 791.893778,269.214895 C785.877286,264.416833 784.888986,255.649809 789.687048,249.633317 C794.48511,243.616824 803.252134,242.628524 809.268627,247.426586 C815.285119,252.224649 816.273419,260.991673 811.475357,267.008165 M870.367156,330.312637 C864.350664,335.110699 855.58364,334.122399 850.785577,328.105906 C845.987515,322.089414 846.975815,313.32239 852.992308,308.524328 C859.0088,303.726266 867.775824,304.714565 872.573886,310.731058 C877.371949,316.74755 876.383649,325.514575 870.367156,330.312637 M913.695832,405.134506 C906.761971,408.472974 898.434716,405.56009 895.096249,398.626228 C891.757781,391.692366 894.670665,383.365112 901.604527,380.026644 C908.538388,376.688177 916.865643,379.601061 920.20411,386.534923 C923.542578,393.468784 920.629694,401.796039 913.695832,405.134506 M939.288702,487.722017 C931.785819,489.43381 924.316037,484.741355 922.604245,477.238472 C920.890876,469.735589 925.584907,462.265807 933.08779,460.552439 C940.590673,458.840647 948.060455,463.534677 949.772247,471.03756 C951.485615,478.538867 946.791585,486.010225 939.288702,487.722017 M945.862551,573.933925 C938.167368,573.933925 931.928626,567.695184 931.928626,560 C931.928626,552.304816 938.167368,546.066075 945.862551,546.066075 C953.557735,546.066075 959.796477,552.304816 959.796477,560 C959.796477,567.695184 953.557735,573.933925 945.862551,573.933925 M933.087632,659.447088 C925.584749,657.735296 920.890719,650.263938 922.604087,642.761055 C924.315879,635.259748 931.785661,630.565717 939.288544,632.27751 C946.791427,633.990878 951.485458,641.46066 949.772089,648.963543 C948.060297,656.46485 940.590515,661.15888 933.087632,659.447088 M901.604369,739.973513 C894.670507,736.635045 891.757623,728.307791 895.096091,721.373929 C898.434559,714.440068 906.761813,711.527184 913.695675,714.865651 C920.629536,718.204119 923.54242,726.531373 920.203953,733.465235 C916.865485,740.399097 908.538231,743.311981 901.604369,739.973513 M852.991835,811.475357 C846.975342,806.677295 845.987042,797.910271 850.785105,791.893778 C855.583167,785.877286 864.350191,784.888986 870.366683,789.687048 C876.383176,794.48511 877.371476,803.252134 872.573414,809.268627 C867.775351,815.285119 859.008327,816.273419 852.991835,811.475357 M789.687363,870.367156 C784.889301,864.350664 785.877601,855.58364 791.894094,850.785577 C797.910586,845.987515 806.67761,846.975815 811.475672,852.992308 C816.273734,859.0088 815.285435,867.775824 809.268942,872.573886 C803.25245,877.371949 794.485425,876.383649 789.687363,870.367156 M714.865494,913.695832 C711.527026,906.761971 714.43991,898.434716 721.373772,895.096249 C728.307634,891.757781 736.634888,894.670665 739.973356,901.604527 C743.311823,908.538388 740.398939,916.865643 733.465077,920.20411 C726.531216,923.542578 718.203961,920.629694 714.865494,913.695832 M632.277983,939.288702 C630.56619,931.785819 635.258645,924.316037 642.761528,922.604245 C650.264411,920.890876 657.734193,925.584907 659.447561,933.08779 C661.159353,940.590673 656.465323,948.060455 648.96244,949.772247 C641.461133,951.485615 633.989775,946.791585 632.277983,939.288702 M546.066075,945.862551 C546.066075,938.167368 552.304816,931.928626 560,931.928626 C567.695184,931.928626 573.933925,938.167368 573.933925,945.862551 C573.933925,953.557735 567.695184,959.796477 560,959.796477 C552.304816,959.796477 546.066075,953.557735 546.066075,945.862551 M460.552912,933.087632 C462.264704,925.584749 469.736062,920.890719 477.238945,922.604087 C484.740252,924.315879 489.434283,931.785661 487.72249,939.288544 C486.009122,946.791427 478.53934,951.485458 471.036457,949.772089 C463.53515,948.060297 458.84112,940.590515 460.552912,933.087632 M380.026487,901.604369 C383.364955,894.670507 391.692209,891.757623 398.626071,895.096091 C405.559932,898.434559 408.472816,906.761813 405.134349,913.695675 C401.795881,920.629536 393.468627,923.54242 386.534765,920.203953 C379.600903,916.865485 376.688019,908.538231 380.026487,901.604369 M308.524643,852.991835 C313.322705,846.975342 322.089729,845.987042 328.106222,850.785105 C334.122714,855.583167 335.111014,864.350191 330.312952,870.366683 C325.51489,876.383176 316.747866,877.371476 310.731373,872.573414 C304.714881,867.775351 303.726581,859.008327 308.524643,852.991835 M249.632844,789.687363 C255.649336,784.889301 264.41636,785.877601 269.214423,791.894094 C274.012485,797.910586 273.024185,806.67761 267.007692,811.475672 C260.9912,816.273734 252.224176,815.285435 247.426114,809.268942 C242.628051,803.25245 243.616351,794.485425 249.632844,789.687363 M206.304168,714.865494 C213.238029,711.527026 221.565284,714.43991 224.903751,721.373772 C228.242219,728.307634 225.329335,736.634888 218.395473,739.973356 C211.461612,743.311823 203.134357,740.398939 199.79589,733.465077 C196.457422,726.531216 199.370306,718.203961 206.304168,714.865494 M180.711298,632.277983 C188.214181,630.56619 195.683963,635.258645 197.395755,642.761528 C199.109124,650.264411 194.415093,657.734193 186.91221,659.447561 C179.409327,661.159353 171.939545,656.465323 170.227753,648.96244 C168.514385,641.461133 173.208415,633.989775 180.711298,632.277983 M174.137449,546.066075 C181.832632,546.066075 188.071374,552.304816 188.071374,560 C188.071374,567.695184 181.832632,573.933925 174.137449,573.933925 C166.442265,573.933925 160.203523,567.695184 160.203523,560 C160.203523,552.304816 166.442265,546.066075 174.137449,546.066075 M186.912368,460.552912 C194.415251,462.264704 199.109281,469.736062 197.395913,477.238945 C195.684121,484.740252 188.214339,489.434283 180.711456,487.72249 C173.208573,486.009122 168.514542,478.53934 170.227911,471.036457 C171.939703,463.53515 179.409485,458.84112 186.912368,460.552912 M218.395631,380.026487 C225.329493,383.364955 228.242377,391.692209 224.903909,398.626071 C221.565441,405.559932 213.238187,408.472816 206.304325,405.134349 C199.370464,401.795881 196.45758,393.468627 199.796047,386.534765 C203.134515,379.600903 211.461769,376.688019 218.395631,380.026487 M267.008165,308.524643 C273.024658,313.322705 274.012958,322.089729 269.214895,328.106222 C264.416833,334.122714 255.649809,335.111014 249.633317,330.312952 C243.616824,325.51489 242.628524,316.747866 247.426586,310.731373 C252.224649,304.714881 260.991673,303.726581 267.008165,308.524643 M330.312637,249.632844 C335.110699,255.649336 334.122399,264.41636 328.105906,269.214423 C322.089414,274.012485 313.32239,273.024185 308.524328,267.007692 C303.726266,260.9912 304.714565,252.224176 310.731058,247.426114 C316.74755,242.628051 325.514575,243.616351 330.312637,249.632844 M405.134506,206.304168 C408.472974,213.238029 405.56009,221.565284 398.626228,224.903751 C391.692366,228.242219 383.365112,225.329335 380.026644,218.395473 C376.688177,211.461612 379.601061,203.134357 386.534923,199.79589 C393.468784,196.457422 401.796039,199.370306 405.134506,206.304168 M487.722017,180.711298 C489.43381,188.214181 484.741355,195.683963 477.238472,197.395755 C469.735589,199.109124 462.265807,194.415093 460.552439,186.91221 C458.840647,179.409327 463.534677,171.939545 471.03756,170.227753 C478.538867,168.514385 486.010225,173.208415 487.722017,180.711298 M573.933925,174.137449 C573.933925,181.832632 567.695184,188.071374 560,188.071374 C552.304816,188.071374 546.066075,181.832632 546.066075,174.137449 C546.066075,166.442265 552.304816,160.203523 560,160.203523 C567.695184,160.203523 573.933925,166.442265 573.933925,174.137449 M529.572972,196.696379 C530.219229,202.432302 526.09422,207.605508 520.358297,208.251765 C514.623951,208.898022 509.450745,204.773012 508.802912,199.03709 C508.156655,193.301167 512.283241,188.127961 518.017587,187.481704 C523.753509,186.835447 528.926716,190.960457 529.572972,196.696379 M611.178489,199.034568 C610.532232,204.77049 605.359026,208.8955 599.624679,208.249243 C593.888757,207.602986 589.762171,202.42978 590.408428,196.695434 C591.054685,190.959511 596.227891,186.834502 601.963813,187.479182 C607.699736,188.125439 611.824745,193.298645 611.178489,199.034568 M690.217735,219.472988 C688.312066,224.92046 682.350742,227.792361 676.901694,225.885116 C671.454223,223.979447 668.583897,218.018123 670.489566,212.570651 C672.395236,207.12318 678.35656,204.251278 683.805607,206.156947 C689.253079,208.064193 692.123404,214.025517 690.217735,219.472988 M762.727267,256.986773 C759.656759,261.87468 753.205226,263.346884 748.318894,260.276377 C743.430987,257.205869 741.958782,250.754336 745.02929,245.868004 C748.099797,240.980097 754.551331,239.507892 759.437662,242.5784 C764.32557,245.648908 765.797774,252.100441 762.727267,256.986773 M825.07118,309.694998 C820.990305,313.775873 814.373267,313.775873 810.292392,309.694998 C806.211517,305.614123 806.209941,298.997085 810.292392,294.91621 C814.373267,290.835335 820.990305,290.835335 825.07118,294.91621 C829.152055,298.997085 829.152055,305.614123 825.07118,309.694998 M874.123484,374.954633 C869.237153,378.02514 862.785619,376.552936 859.715111,371.666604 C856.644604,366.780273 858.116808,360.32874 863.00314,357.258232 C867.889471,354.186148 874.341005,355.658353 877.411512,360.54626 C880.48202,365.432591 879.009815,371.884125 874.123484,374.954633 M907.424147,449.493095 C901.976676,451.40034 896.015352,448.528439 894.108106,443.080967 C892.202437,437.633496 895.072763,431.672172 900.520234,429.764926 C905.967705,427.859257 911.930606,430.729583 913.836275,436.177054 C915.74352,441.624525 912.871619,447.587426 907.424147,449.493095 M923.303621,529.572972 C917.567698,530.219229 912.394492,526.09422 911.748235,520.358297 C911.101978,514.623951 915.226988,509.449169 920.96291,508.802912 C926.698833,508.156655 931.872039,512.283241 932.518296,518.017587 C933.164553,523.753509 929.039543,528.926716 923.303621,529.572972 M920.965432,611.178489 C915.22951,610.532232 911.1045,605.359026 911.750757,599.623103 C912.397014,593.888757 917.57022,589.762171 923.304566,590.408428 C929.040489,591.054685 933.165498,596.227891 932.520818,601.963813 C931.874561,607.699736 926.701355,611.824745 920.965432,611.178489 M900.527012,690.217735 C895.07954,688.312066 892.207639,682.350742 894.114884,676.901694 C896.020553,671.454223 901.981877,668.583897 907.429349,670.489566 C912.87682,672.395236 915.748722,678.35656 913.843053,683.805607 C911.935807,689.253079 905.974483,692.123404 900.527012,690.217735 M863.013227,762.727267 C858.12532,759.656759 856.653116,753.205226 859.723623,748.318894 C862.794131,743.430987 869.245664,741.958782 874.131996,745.02929 C879.019903,748.099797 880.492108,754.551331 877.4216,759.437662 C874.351092,764.32557 867.899559,765.797774 863.013227,762.727267 M810.305002,825.07118 C806.224127,820.990305 806.224127,814.373267 810.305002,810.292392 C814.385877,806.211517 821.002915,806.211517 825.08379,810.292392 C829.164665,814.373267 829.164665,820.990305 825.08379,825.07118 C821.002915,829.152055 814.385877,829.152055 810.305002,825.07118 M745.045367,874.123484 C741.97486,869.237153 743.447064,862.785619 748.333396,859.715111 C753.219727,856.644604 759.67126,858.116808 762.741768,863.00314 C765.813852,867.889471 764.341647,874.341005 759.45374,877.411512 C754.567409,880.48202 748.115875,879.009815 745.045367,874.123484 M670.506905,907.424147 C668.59966,901.976676 671.471561,896.015352 676.919033,894.108106 C682.366504,892.202437 688.327828,895.072763 690.235074,900.520234 C692.140743,905.967705 689.270417,911.930606 683.822946,913.836275 C678.375475,915.74352 672.412574,912.871619 670.506905,907.424147 M590.427028,923.303621 C589.780771,917.567698 593.90578,912.394492 599.641703,911.748235 C605.376049,911.101978 610.550831,915.226988 611.197088,920.96291 C611.843345,926.698833 607.716759,931.872039 601.982413,932.518296 C596.246491,933.164553 591.073284,929.039543 590.427028,923.303621 M508.821511,920.965432 C509.467768,915.22951 514.640974,911.1045 520.376897,911.750757 C526.111243,912.397014 530.237829,917.57022 529.591572,923.304566 C528.945315,929.040489 523.772109,933.165498 518.036187,932.520818 C512.300264,931.874561 508.175255,926.701355 508.821511,920.965432 M429.782265,900.527012 C431.687934,895.07954 437.649258,892.207639 443.098306,894.114884 C448.545777,896.020553 451.416103,901.981877 449.510434,907.429349 C447.604764,912.87682 441.64344,915.748722 436.194393,913.843053 C430.746921,911.935807 427.876596,905.974483 429.782265,900.527012 M357.272733,863.013227 C360.343241,858.12532 366.794774,856.653116 371.681106,859.723623 C376.569013,862.794131 378.041218,869.245664 374.97071,874.131996 C371.900203,879.019903 365.448669,880.492108 360.562338,877.4216 C355.67443,874.351092 354.202226,867.899559 357.272733,863.013227 M294.92882,810.305002 C299.009695,806.224127 305.626733,806.224127 309.707608,810.305002 C313.788483,814.385877 313.788483,821.002915 309.707608,825.08379 C305.626733,829.164665 299.009695,829.164665 294.92882,825.08379 C290.847945,821.002915 290.847945,814.385877 294.92882,810.305002 M245.876516,745.045367 C250.762847,741.97486 257.214381,743.447064 260.284889,748.333396 C263.355396,753.221303 261.883192,759.67126 256.99686,762.741768 C252.110529,765.813852 245.658995,764.341647 242.588488,759.45374 C239.51798,754.567409 240.990185,748.115875 245.876516,745.045367 M212.575853,670.506905 C218.023324,668.601236 223.984648,671.471561 225.891894,676.919033 C227.797563,682.366504 224.927237,688.327828 219.479766,690.235074 C214.032295,692.140743 208.069394,689.270417 206.163725,683.822946 C204.25648,678.375475 207.128381,672.412574 212.575853,670.506905 M196.696379,590.427028 C202.432302,589.780771 207.605508,593.90578 208.251765,599.641703 C208.898022,605.376049 204.773012,610.549255 199.03709,611.197088 C193.301167,611.843345 188.127961,607.716759 187.481704,601.982413 C186.835447,596.246491 190.960457,591.073284 196.696379,590.427028 M199.034568,508.821511 C204.77049,509.467768 208.8955,514.640974 208.249243,520.375321 C207.602986,526.111243 202.42978,530.237829 196.695434,529.591572 C190.959511,528.945315 186.834502,523.772109 187.479182,518.036187 C188.125439,512.300264 193.298645,508.175255 199.034568,508.821511 M219.472988,429.782265 C224.92046,431.687934 227.792361,437.649258 225.885116,443.098306 C223.979447,448.545777 218.018123,451.416103 212.570651,449.510434 C207.12318,447.604764 204.251278,441.64344 206.156947,436.194393 C208.064193,430.746921 214.025517,427.876596 219.472988,429.782265 M256.986773,357.272733 C261.87468,360.343241 263.346884,366.794774 260.276377,371.681106 C257.205869,376.569013 250.754336,378.041218 245.868004,374.97071 C240.980097,371.900203 239.507892,365.448669 242.5784,360.562338 C245.648908,355.67443 252.100441,354.202226 256.986773,357.272733 M309.694998,294.92882 C313.775873,299.009695 313.775873,305.626733 309.694998,309.707608 C305.614123,313.788483 298.997085,313.790059 294.91621,309.707608 C290.835335,305.626733 290.835335,299.009695 294.91621,294.92882 C298.997085,290.847945 305.614123,290.847945 309.694998,294.92882 M374.954633,245.876516 C378.02514,250.762847 376.552936,257.214381 371.666604,260.284889 C366.778697,263.355396 360.32874,261.883192 357.258232,256.99686 C354.186148,252.110529 355.658353,245.658995 360.54626,242.588488 C365.432591,239.51798 371.884125,240.990185 374.954633,245.876516 M449.493095,212.575853 C451.398764,218.023324 448.528439,223.984648 443.080967,225.891894 C437.633496,227.797563 431.672172,224.927237 429.764926,219.479766 C427.859257,214.032295 430.729583,208.069394 436.177054,206.163725 C441.624525,204.25648 447.587426,207.128381 449.493095,212.575853 M644.307027,221.936015 C643.451131,225.687456 639.715452,228.034471 635.96401,227.178575 C632.212569,226.321103 629.865553,222.587 630.723026,218.835558 C631.578922,215.084117 635.313025,212.737102 639.064466,213.592998 C642.815908,214.448894 645.162923,218.184573 644.307027,221.936015 M717.419626,249.171952 C715.750393,252.638095 711.585977,254.096113 708.119834,252.42688 C704.653692,250.75607 703.195673,246.593231 704.864907,243.125512 C706.535717,239.659369 710.698556,238.202927 714.164699,239.872161 C717.632418,241.541394 719.08886,245.70581 717.419626,249.171952 M782.638436,291.994342 C780.239405,295.003376 775.855893,295.496738 772.848435,293.097707 C769.839401,290.698676 769.346039,286.315164 771.74507,283.306129 C774.144101,280.298671 778.527613,279.803733 781.535071,282.202764 C784.544106,284.601795 785.037467,288.985307 782.638436,291.994342 M836.693398,348.255403 C833.684363,350.654434 829.300851,350.161072 826.90182,347.152038 C824.502789,344.14458 824.997727,339.761068 828.005186,337.362037 C831.01422,334.963005 835.397732,335.456367 837.796763,338.465402 C840.195794,341.47286 839.700856,345.856372 836.693398,348.255403 M876.8737,415.134462 C873.407558,416.803696 869.243142,415.347254 867.573908,411.881111 C865.904675,408.413392 867.361117,404.250553 870.827259,402.579743 C874.294978,400.910509 878.457817,402.368528 880.128628,405.83467 C881.797861,409.300813 880.339843,413.465228 876.8737,415.134462 M901.164599,489.277605 C897.413158,490.133501 893.677479,487.786486 892.821582,484.035044 C891.965686,480.283603 894.312702,476.5495 898.064143,475.693604 C901.815585,474.836131 905.549687,477.183147 906.40716,480.934588 C907.263056,484.686029 904.916041,488.421709 901.164599,489.277605 M908.348137,566.966963 C904.500545,566.966963 901.381174,563.847592 901.381174,560 C901.381174,556.152408 904.500545,553.033037 908.348137,553.033037 C912.195729,553.033037 915.315099,556.152408 915.315099,560 C915.315099,563.847592 912.195729,566.966963 908.348137,566.966963 M898.063985,644.307027 C894.312544,643.451131 891.965529,639.715452 892.821425,635.96401 C893.678897,632.212569 897.413,629.865553 901.164442,630.723026 C904.915883,631.578922 907.262898,635.314601 906.407002,639.064466 C905.551106,642.815908 901.815427,645.162923 898.063985,644.307027 M870.828048,717.419626 C867.361905,715.750393 865.903887,711.585977 867.57312,708.119834 C869.24393,704.653692 873.406769,703.195673 876.874488,704.864907 C880.340631,706.535717 881.797073,710.698556 880.127839,714.166275 C878.458606,717.632418 874.29419,719.08886 870.828048,717.419626 M828.005658,782.638436 C824.996624,780.239405 824.503262,775.855893 826.902293,772.848435 C829.301324,769.839401 833.684836,769.346039 836.693871,771.74507 C839.701329,774.144101 840.196267,778.527613 837.797236,781.535071 C835.398205,784.544106 831.014693,785.037467 828.005658,782.638436 M771.744597,836.693398 C769.345566,833.68594 769.838928,829.302428 772.847962,826.90182 C775.85542,824.504366 780.238932,824.997727 782.637963,828.005186 C785.036995,831.01422 784.543633,835.397732 781.534598,837.796763 C778.52714,840.195794 774.143628,839.702432 771.744597,836.693398 M704.865538,876.8737 C703.196304,873.407558 704.652746,869.243142 708.118889,867.573908 C711.586608,865.904675 715.749447,867.361117 717.420257,870.828836 C719.089491,874.294978 717.631472,878.457817 714.16533,880.127051 C710.699187,881.797861 706.534772,880.339843 704.865538,876.8737 M630.722395,901.164599 C629.866499,897.413158 632.213514,893.679055 635.964956,892.821582 C639.716397,891.965686 643.4505,894.312702 644.306396,898.064143 C645.163869,901.815585 642.816853,905.551264 639.065412,906.40716 C635.313971,907.263056 631.578291,904.916041 630.722395,901.164599 M553.033037,908.348137 C553.033037,904.500545 556.152408,901.381174 560,901.381174 C563.847592,901.381174 566.966963,904.500545 566.966963,908.348137 C566.966963,912.195729 563.847592,915.315099 560,915.315099 C556.152408,915.315099 553.033037,912.195729 553.033037,908.348137 M475.692973,898.063985 C476.548869,894.312544 480.284548,891.965529 484.03599,892.821425 C487.787431,893.678897 490.134447,897.413 489.276974,901.164442 C488.421078,904.915883 484.685399,907.262898 480.935534,906.407002 C477.184092,905.551106 474.837077,901.815427 475.692973,898.063985 M402.580374,870.828048 C404.249607,867.361905 408.414023,865.903887 411.880166,867.57312 C415.346308,869.24393 416.804327,873.406769 415.135093,876.872912 C413.464283,880.340631 409.301444,881.797073 405.833725,880.127839 C402.367582,878.458606 400.91114,874.29419 402.580374,870.828048 M337.361564,828.005658 C339.760595,824.996624 344.144107,824.503262 347.151565,826.902293 C350.160599,829.301324 350.653961,833.684836 348.25493,836.693871 C345.855899,839.701329 341.472387,840.196267 338.464929,837.797236 C335.455894,835.398205 334.962533,831.014693 337.361564,828.005658 M283.306602,771.744597 C286.31406,769.345566 290.697572,769.838928 293.09818,772.847962 C295.495634,775.85542 295.002273,780.238932 291.994814,782.637963 C288.98578,785.036995 284.602268,784.543633 282.203237,781.536175 C279.804206,778.52714 280.297568,774.143628 283.306602,771.744597 M243.1263,704.865538 C246.592442,703.196304 250.756858,704.652746 252.426092,708.120465 C254.095325,711.586608 252.638883,715.749447 249.171164,717.420257 C245.705022,719.089491 241.542183,717.631472 239.872949,714.16533 C238.202139,710.699187 239.660157,706.534772 243.1263,704.865538 M218.835401,630.722395 C222.586842,629.866499 226.320945,632.213514 227.178418,635.964956 C228.034314,639.716397 225.687298,643.4505 221.935857,644.306396 C218.184415,645.163869 214.448736,642.816853 213.59284,639.065412 C212.736944,635.313971 215.083959,631.578291 218.835401,630.722395 M211.651863,553.033037 C215.499455,553.033037 218.618826,556.152408 218.618826,560 C218.618826,563.847592 215.499455,566.966963 211.651863,566.966963 C207.804271,566.966963 204.684901,563.847592 204.684901,560 C204.684901,556.152408 207.804271,553.033037 211.651863,553.033037 M221.936015,475.692973 C225.687456,476.548869 228.034471,480.284548 227.178575,484.03599 C226.321103,487.787431 222.587,490.134447 218.835558,489.276974 C215.084117,488.421078 212.737102,484.686975 213.592998,480.935534 C214.448894,477.184092 218.184573,474.837077 221.936015,475.692973 M249.171952,402.580374 C252.638095,404.249607 254.096113,408.414023 252.42688,411.880166 C250.75607,415.346308 246.593231,416.804327 243.127088,415.135093 C239.659369,413.464283 238.202927,409.301444 239.872161,405.835301 C241.541394,402.367582 245.70581,400.91114 249.171952,402.580374 M291.994342,337.361564 C295.003376,339.760595 295.496738,344.144107 293.097707,347.151565 C290.698676,350.160599 286.315164,350.653961 283.306129,348.25493 C280.298671,345.855899 279.803733,341.472387 282.202764,338.464929 C284.601795,335.455894 288.985307,334.962533 291.994342,337.361564 M348.255403,283.306602 C350.654434,286.315637 350.161072,290.699149 347.152038,293.09818 C344.14458,295.497211 339.761068,295.002273 337.362037,291.994814 C334.963005,288.98578 335.456367,284.602268 338.463825,282.203237 C341.47286,279.804206 345.856372,280.299144 348.255403,283.306602 M415.134462,243.1263 C416.803696,246.592442 415.347254,250.756858 411.879535,252.426092 C408.413392,254.095325 404.250553,252.638883 402.579743,249.172741 C400.910509,245.705022 402.368528,241.542183 405.83467,239.871372 C409.300813,238.202139 413.465228,239.660157 415.134462,243.1263 M489.277605,218.835401 C490.133501,222.586842 487.786486,226.322521 484.035044,227.178418 C480.283603,228.034314 476.5495,225.687298 475.693604,221.935857 C474.836131,218.184415 477.183147,214.450313 480.934588,213.59284 C484.686029,212.736944 488.421709,215.083959 489.277605,218.835401 M566.966963,211.651863 C566.966963,215.499455 563.847592,218.618826 560,218.618826 C556.152408,218.618826 553.033037,215.499455 553.033037,211.651863 C553.033037,207.804271 556.152408,204.684901 560,204.684901 C563.847592,204.684901 566.966963,207.804271 566.966963,211.651863 M527.681489,226.571724 C528.004618,229.438897 525.941325,232.025501 523.074152,232.348629 C520.206979,232.671757 517.620376,230.610041 517.297247,227.742868 C516.974119,224.874118 519.035835,222.287515 521.904585,221.964387 C524.771758,221.641258 527.358361,223.704551 527.681489,226.571724 M602.686675,227.739873 C602.363547,230.607046 599.776944,232.670339 596.909771,232.34721 C594.041021,232.024082 591.979305,229.437479 592.302433,226.570306 C592.625561,223.703133 595.212165,221.63984 598.079338,221.962968 C600.946511,222.286097 603.009804,224.8727 602.686675,227.739873 M675.551175,245.568992 C674.597552,248.292728 671.61689,249.728679 668.893155,248.775056 C666.169419,247.82301 664.733468,244.842348 665.687091,242.117036 C666.640714,239.3933 669.621376,237.958925 672.345111,238.910972 C675.068847,239.864595 676.504798,242.845257 675.551175,245.568992 M742.621589,279.165042 C741.086336,281.608208 737.861357,282.34431 735.416615,280.809056 C732.973449,279.273803 732.237347,276.048824 733.772601,273.605658 C735.307855,271.162493 738.532834,270.424814 740.977575,271.961644 C743.420741,273.496898 744.156843,276.721877 742.621589,279.165042 M800.534546,326.843341 C798.493321,328.884567 795.186378,328.884567 793.145152,326.843341 C791.103927,324.803692 791.103927,321.495173 793.145152,319.453947 C795.184801,317.412722 798.493321,317.412722 800.534546,319.453947 C802.574195,321.493597 802.574195,324.802116 800.534546,326.843341 M846.385988,386.212898 C843.942822,387.748151 840.717843,387.012049 839.181013,384.568884 C837.64576,382.125718 838.381862,378.899163 840.825027,377.363909 C843.269769,375.828655 846.494748,376.564758 848.030002,379.007923 C849.565256,381.452665 848.829153,384.677644 846.385988,386.212898 M877.876975,454.296989 C875.153239,455.250612 872.172577,453.814661 871.218954,451.090925 C870.265331,448.36719 871.701282,445.386528 874.425018,444.432905 C877.148754,443.479282 880.129416,444.915233 881.083038,447.638969 C882.036661,450.362704 880.60071,453.343366 877.876975,454.296989 M893.428276,527.681489 C890.561103,528.004618 887.974499,525.941325 887.651371,523.074152 C887.328243,520.206979 889.389959,517.620376 892.257132,517.297247 C895.125882,516.974119 897.712485,519.035835 898.035613,521.904585 C898.358742,524.771758 896.295449,527.358361 893.428276,527.681489 M892.260127,602.686675 C889.392954,602.363547 887.329661,599.776944 887.65279,596.909771 C887.975918,594.041021 890.562521,591.979305 893.429694,592.302433 C896.296867,592.625561 898.36016,595.210588 898.037032,598.079338 C897.713903,600.946511 895.1273,603.009804 892.260127,602.686675 M874.431008,675.551175 C871.707272,674.597552 870.271321,671.61689 871.224944,668.893155 C872.17699,666.169419 875.157652,664.733468 877.882964,665.687091 C880.6067,666.640714 882.041075,669.621376 881.089028,672.345111 C880.135405,675.068847 877.154743,676.504798 874.431008,675.551175 M840.834958,742.621589 C838.391792,741.086336 837.65569,737.861357 839.190944,735.416615 C840.726197,732.973449 843.951176,732.237347 846.394342,733.772601 C848.837507,735.307855 849.575186,738.532834 848.038356,740.977575 C846.503102,743.420741 843.278123,744.156843 840.834958,742.621589 M793.156659,800.534546 C791.115433,798.493321 791.115433,795.186378 793.156659,793.145152 C795.196308,791.103927 798.504827,791.103927 800.546053,793.145152 C802.587278,795.184801 802.587278,798.493321 800.546053,800.534546 C798.506403,802.575772 795.197884,802.575772 793.156659,800.534546 M733.787102,846.385988 C732.251849,843.942822 732.987951,840.717843 735.431116,839.181013 C737.874282,837.64576 741.100837,838.381862 742.636091,840.826604 C744.171345,843.269769 743.435242,846.494748 740.992077,848.030002 C738.547335,849.565256 735.322356,848.829153 733.787102,846.385988 M665.703011,877.876975 C664.749388,875.153239 666.185339,872.172577 668.909075,871.218954 C671.63281,870.265331 674.613472,871.701282 675.567095,874.425018 C676.520718,877.148754 675.084767,880.129416 672.361031,881.083038 C669.637296,882.036661 666.656634,880.60071 665.703011,877.876975 M592.318511,893.428276 C591.995382,890.561103 594.058675,887.974499 596.925848,887.651371 C599.793021,887.328243 602.379624,889.389959 602.702753,892.257132 C603.025881,895.125882 600.964165,897.712485 598.095415,898.035613 C595.228242,898.358742 592.641639,896.295449 592.318511,893.428276 M517.313325,892.260127 C517.636453,889.392954 520.223056,887.329661 523.090229,887.65279 C525.958979,887.975918 528.020695,890.562521 527.697567,893.429694 C527.374439,896.296867 524.789412,898.36016 521.920662,898.037032 C519.053489,897.713903 516.990196,895.1273 517.313325,892.260127 M444.448825,874.431008 C445.402448,871.707272 448.38311,870.271321 451.106845,871.224944 C453.830581,872.17699 455.266532,875.159229 454.312909,877.882964 C453.359286,880.6067 450.378624,882.041075 447.654889,881.089028 C444.931153,880.135405 443.495202,877.154743 444.448825,874.431008 M377.378411,840.834958 C378.913664,838.391792 382.138643,837.65569 384.583385,839.190944 C387.026551,840.726197 387.762653,843.951176 386.227399,846.394342 C384.692145,848.837507 381.467166,849.575186 379.022425,848.038356 C376.579259,846.503102 375.843157,843.278123 377.378411,840.834958 M319.465454,793.156659 C321.506679,791.115433 324.813622,791.115433 326.854848,793.156659 C328.896073,795.196308 328.896073,798.504827 326.854848,800.546053 C324.815199,802.587278 321.506679,802.587278 319.465454,800.546053 C317.424228,798.506403 317.424228,795.197884 319.465454,793.156659 M273.614012,733.787102 C276.057178,732.251849 279.282157,732.987951 280.818987,735.431116 C282.35424,737.874282 281.618138,741.100837 279.173396,742.636091 C276.730231,744.171345 273.505252,743.435242 271.969998,740.992077 C270.434744,738.547335 271.170847,735.322356 273.614012,733.787102 M242.123025,665.703011 C244.846761,664.749388 247.827423,666.185339 248.781046,668.909075 C249.734669,671.63281 248.298718,674.613472 245.574982,675.567095 C242.851246,676.520718 239.870584,675.084767 238.916962,672.361031 C237.963339,669.637296 239.39929,666.656634 242.123025,665.703011 M226.571724,592.318511 C229.438897,591.995382 232.025501,594.058675 232.348629,596.925848 C232.671757,599.793021 230.610041,602.379624 227.742868,602.702753 C224.874118,603.025881 222.287515,600.964165 221.964387,598.095415 C221.641258,595.228242 223.704551,592.641639 226.571724,592.318511 M227.739873,517.313325 C230.607046,517.636453 232.670339,520.223056 232.34721,523.090229 C232.024082,525.958979 229.437479,528.020695 226.570306,527.697567 C223.703133,527.374439 221.63984,524.787835 221.962968,521.920662 C222.286097,519.053489 224.8727,516.990196 227.739873,517.313325 M245.568992,444.448825 C248.292728,445.402448 249.728679,448.38311 248.775056,451.106845 C247.82301,453.830581 244.840771,455.266532 242.117036,454.312909 C239.3933,453.359286 237.958925,450.378624 238.910972,447.654889 C239.864595,444.931153 242.845257,443.495202 245.568992,444.448825 M279.165042,377.378411 C281.608208,378.913664 282.34431,382.138643 280.809056,384.583385 C279.273803,387.026551 276.048824,387.762653 273.605658,386.227399 C271.162493,384.692145 270.424814,381.467166 271.961644,379.022425 C273.496898,376.579259 276.721877,375.843157 279.165042,377.378411 M326.843341,319.465454 C328.884567,321.506679 328.884567,324.813622 326.843341,326.854848 C324.803692,328.896073 321.495173,328.896073 319.453947,326.854848 C317.412722,324.815199 317.412722,321.506679 319.453947,319.465454 C321.493597,317.425805 324.802116,317.425805 326.843341,319.465454 M386.212898,273.614012 C387.748151,276.057178 387.012049,279.282157 384.568884,280.818987 C382.125718,282.35424 378.899163,281.618138 377.363909,279.174973 C375.828655,276.730231 376.564758,273.505252 379.007923,271.969998 C381.452665,270.434744 384.677644,271.170847 386.212898,273.614012 M454.296989,242.123025 C455.250612,244.846761 453.814661,247.827423 451.090925,248.781046 C448.36719,249.734669 445.386528,248.298718 444.432905,245.574982 C443.479282,242.851246 444.915233,239.870584 447.638969,238.916962 C450.362704,237.963339 453.343366,239.39929 454.296989,242.123025 M636.140706,242.060134 C635.71197,243.935854 633.845707,245.108574 631.969986,244.681414 C630.094265,244.252678 628.91997,242.384838 629.348706,240.509118 C629.775866,238.633397 631.643705,237.460677 633.519426,237.889413 C635.395147,238.316573 636.569442,240.184413 636.140706,242.060134 M704.979973,266.974434 C704.144567,268.708293 702.063936,269.436514 700.330077,268.601109 C698.596217,267.76728 697.867996,265.685073 698.703401,263.951213 C699.53723,262.21893 701.619438,261.489133 703.353297,262.324538 C705.08558,263.159943 705.815378,265.240574 704.979973,266.974434 M766.549324,306.582405 C765.349808,308.086134 763.15884,308.333603 761.653535,307.134088 C760.149806,305.934572 759.902337,303.742028 761.101852,302.238299 C762.301368,300.73457 764.493912,300.487101 765.997641,301.686616 C767.50137,302.886132 767.748839,305.078676 766.549324,306.582405 M817.761544,358.897675 C816.257814,360.09719 814.06527,359.849721 812.865755,358.345992 C811.666239,356.842263 811.913708,354.649719 813.417437,353.450204 C814.921166,352.250688 817.113711,352.498157 818.313226,354.001886 C819.512742,355.507191 819.265273,357.698159 817.761544,358.897675 M856.048314,421.297072 C854.314454,422.130901 852.233823,421.40268 851.398418,419.670396 C850.563013,417.936537 851.29281,415.854329 853.025093,415.0205 C854.758953,414.185095 856.841161,414.913316 857.674989,416.647176 C858.510394,418.381035 857.782173,420.461667 856.048314,421.297072 M879.490094,490.651452 C877.614374,491.080188 875.746534,489.905892 875.319374,488.030172 C874.890638,486.154451 876.063357,484.286611 877.939078,483.859451 C879.814799,483.430715 881.682639,484.605011 882.111375,486.480732 C882.538535,488.356452 881.365815,490.222716 879.490094,490.651452 M886.911328,563.483481 C884.986744,563.483481 883.427847,561.923008 883.427847,560 C883.427847,558.075416 884.986744,556.516519 886.911328,556.516519 C888.835912,556.516519 890.39481,558.075416 890.39481,560 C890.39481,561.923008 888.835912,563.483481 886.911328,563.483481 M877.939866,636.140706 C876.064146,635.71197 874.891426,633.845707 875.318586,631.969986 C875.747322,630.094265 877.615162,628.91997 879.490882,629.348706 C881.366603,629.775866 882.539323,631.643705 882.110587,633.519426 C881.683427,635.395147 879.815587,636.569442 877.939866,636.140706 M853.025566,704.979973 C851.291707,704.144567 850.563486,702.063936 851.398891,700.330077 C852.23272,698.596217 854.314927,697.867996 856.048787,698.703401 C857.78107,699.53723 858.510867,701.619438 857.675462,703.353297 C856.840057,705.08558 854.759426,705.815378 853.025566,704.979973 M813.417595,766.549324 C811.913866,765.349808 811.666397,763.157264 812.865912,761.653535 C814.065428,760.149806 816.257972,759.902337 817.761701,761.101852 C819.26543,762.301368 819.512899,764.493912 818.313384,765.997641 C817.113868,767.50137 814.921324,767.748839 813.417595,766.549324 M761.102325,817.761544 C759.90281,816.257814 760.150279,814.06527 761.654008,812.865755 C763.157737,811.666239 765.350281,811.913708 766.549796,813.417437 C767.749312,814.921166 767.501843,817.113711 765.998114,818.313226 C764.492809,819.512742 762.301841,819.265273 761.102325,817.761544 M698.702928,856.048314 C697.869099,854.314454 698.59732,852.233823 700.329604,851.398418 C702.063463,850.563013 704.145671,851.29281 704.9795,853.025093 C705.814905,854.758953 705.086684,856.841161 703.352824,857.674989 C701.618965,858.510394 699.538333,857.782173 698.702928,856.048314 M629.348548,879.490094 C628.919812,877.614374 630.094108,875.746534 631.969828,875.319374 C633.845549,874.890638 635.713389,876.064934 636.140549,877.940654 C636.569285,879.814799 635.394989,881.682639 633.519268,882.111375 C631.643548,882.538535 629.777284,881.365815 629.348548,879.490094 M556.516519,886.911328 C556.516519,884.986744 558.076992,883.427847 560,883.427847 C561.924584,883.427847 563.483481,884.986744 563.483481,886.911328 C563.483481,888.835912 561.924584,890.39481 560,890.39481 C558.076992,890.39481 556.516519,888.835912 556.516519,886.911328 M483.859294,877.939866 C484.28803,876.064146 486.154293,874.891426 488.030014,875.318586 C489.905735,875.747322 491.08003,877.615162 490.651294,879.489306 C490.224134,881.365027 488.356295,882.539323 486.480574,882.110587 C484.604853,881.683427 483.430558,879.815587 483.859294,877.939866 M415.020027,853.025566 C415.855433,851.291707 417.936064,850.563486 419.669923,851.398891 C421.403783,852.23272 422.132004,854.314927 421.296599,856.048787 C420.46277,857.78107 418.380562,858.510867 416.646703,857.675462 C414.91442,856.840057 414.184622,854.759426 415.020027,853.025566 M353.450676,813.417595 C354.650192,811.913866 356.842736,811.666397 358.346465,812.865912 C359.850194,814.065428 360.097663,816.257972 358.898148,817.761701 C357.698632,819.26543 355.506088,819.512899 354.002359,818.313384 C352.49863,817.113868 352.251161,814.921324 353.450676,813.417595 M302.238456,761.102325 C303.742186,759.90281 305.93473,760.150279 307.134245,761.654008 C308.333761,763.157737 308.086292,765.350281 306.582563,766.549796 C305.078834,767.749312 302.886289,767.501843 301.686774,765.998114 C300.487258,764.494385 300.734727,762.301841 302.238456,761.102325 M263.951686,698.702928 C265.685546,697.867523 267.766177,698.59732 268.601582,700.329604 C269.436987,702.063463 268.70719,704.145671 266.974907,704.9795 C265.241047,705.814905 263.158839,705.086684 262.325011,703.352824 C261.489606,701.618965 262.217827,699.538333 263.951686,698.702928 M240.509906,629.348548 C242.385626,628.919812 244.253466,630.094108 244.680626,631.969828 C245.109362,633.845549 243.935066,635.713389 242.059346,636.140549 C240.185201,636.569285 238.317361,635.394989 237.888625,633.519268 C237.461465,631.643548 238.634185,629.777284 240.509906,629.348548 M233.088672,556.516519 C235.013256,556.516519 236.572153,558.076992 236.572153,560 C236.572153,561.924584 235.013256,563.483481 233.088672,563.483481 C231.164088,563.483481 229.60519,561.924584 229.60519,560 C229.60519,558.076992 231.164088,556.516519 233.088672,556.516519 M242.060134,483.859294 C243.935854,484.28803 245.108574,486.154293 244.681414,488.030014 C244.252678,489.905735 242.384838,491.08003 240.510694,490.651294 C238.634973,490.224134 237.460677,488.356295 237.889413,486.480574 C238.316573,484.604853 240.184413,483.430558 242.060134,483.859294 M266.974434,415.020027 C268.708293,415.855433 269.436514,417.936064 268.601109,419.669923 C267.76728,421.403783 265.685073,422.132004 263.951213,421.296599 C262.21893,420.46277 261.489133,418.380562 262.324538,416.646703 C263.159943,414.91442 265.240574,414.184622 266.974434,415.020027 M306.582405,353.450676 C308.086134,354.650192 308.333603,356.84116 307.134088,358.346465 C305.934572,359.850194 303.742028,360.097663 302.238299,358.898148 C300.73457,357.698632 300.487101,355.506088 301.686616,354.002359 C302.886132,352.49863 305.078676,352.251161 306.582405,353.450676 M358.897675,302.238456 C360.09719,303.742186 359.849721,305.93473 358.345992,307.134245 C356.842263,308.333761 354.649719,308.086292 353.450204,306.582563 C352.250688,305.078834 352.498157,302.886289 354.001886,301.686774 C355.505615,300.487258 357.698159,300.734727 358.897675,302.238456 M421.297072,263.951686 C422.132477,265.685546 421.40268,267.766177 419.670396,268.601582 C417.936537,269.436987 415.854329,268.70719 415.0205,266.974907 C414.185095,265.241047 414.913316,263.158839 416.647176,262.325011 C418.381035,261.489606 420.461667,262.217827 421.297072,263.951686 M490.651452,240.509906 C491.080188,242.385626 489.905892,244.253466 488.030172,244.680626 C486.154451,245.109362 484.286611,243.936643 483.859451,242.060922 C483.430715,240.185201 484.605011,238.317361 486.480732,237.888625 C488.356452,237.461465 490.222716,238.634185 490.651452,240.509906 M563.483481,233.088672 C563.483481,235.013256 561.923008,236.572153 560,236.572153 C558.075416,236.572153 556.516519,235.013256 556.516519,233.088672 C556.516519,231.164088 558.075416,229.60519 560,229.60519 C561.923008,229.60519 563.483481,231.164088 563.483481,233.088672 M631.299613,82.6528738 C630.223044,92.2111684 621.601033,99.0882857 612.042739,98.0117166 C602.482868,96.9335712 595.607327,88.313137 596.683896,78.7532662 C597.760465,69.1949716 606.382476,62.3178543 615.94077,63.3959997 C625.500641,64.4725688 632.376182,73.0945793 631.299613,82.6528738 M735.731705,110.486678 C732.554013,119.565797 722.618998,124.351249 713.539879,121.175134 C704.459184,117.997442 699.675308,108.062427 702.851424,98.9817321 C706.027539,89.9026133 715.96413,85.1171611 725.043249,88.2948527 C734.123944,91.470968 738.909396,101.407559 735.731705,110.486678 M831.35185,160.860971 C826.233812,169.005382 815.482306,171.459581 807.337895,166.34312 C799.191908,161.225082 796.737709,150.473576 801.855747,142.327589 C806.973785,134.183178 817.72529,131.728979 825.869701,136.847017 C834.015688,141.963479 836.469888,152.714984 831.35185,160.860971 M913.365296,231.249677 C906.563838,238.051135 895.534915,238.051135 888.733457,231.249677 C881.930423,224.448219 881.930423,213.420873 888.733457,206.617839 C895.534915,199.816381 906.562261,199.816381 913.365296,206.617839 C920.166754,213.419297 920.166754,224.448219 913.365296,231.249677 M977.659486,318.123289 C969.515075,323.241327 958.763569,320.787128 953.645531,312.642717 C948.527493,304.498306 950.980117,293.746801 959.126104,288.628763 C967.270515,283.510725 978.02202,285.963348 983.140058,294.109335 C988.258096,302.253746 985.803897,313.005251 977.659486,318.123289 M1021.01054,417.125563 C1011.93143,420.303255 1001.99483,415.517803 998.817143,406.438684 C995.641027,397.359565 1000.4249,387.422974 1009.50402,384.245282 C1018.58472,381.069167 1028.51973,385.853043 1031.69742,394.932162 C1034.87512,404.012857 1030.08966,413.947872 1021.01054,417.125563 M1041.24468,523.292303 C1031.68639,524.368872 1023.0628,517.493331 1021.98623,507.935036 C1020.90967,498.376742 1027.78521,489.753155 1037.3435,488.676586 C1046.9018,487.600017 1055.52538,494.475558 1056.60195,504.033852 C1057.67852,513.592147 1050.80298,522.214157 1041.24468,523.292303 M1037.34713,631.299613 C1027.78883,630.223044 1020.91171,621.601033 1021.98828,612.042739 C1023.06643,602.482868 1031.68686,595.607327 1041.24673,596.683896 C1050.80503,597.760465 1057.68215,606.382476 1056.604,615.94077 C1055.52743,625.500641 1046.90542,632.376182 1037.34713,631.299613 M1009.51332,735.731705 C1000.4342,732.554013 995.648751,722.618998 998.824866,713.539879 C1002.00256,704.459184 1011.93757,699.673732 1021.01827,702.851424 C1030.09739,706.029115 1034.88284,715.96413 1031.70515,725.043249 C1028.52903,734.123944 1018.59244,738.909396 1009.51332,735.731705 M959.139029,831.35185 C950.994618,826.233812 948.540419,815.482306 953.65688,807.337895 C958.774918,799.191908 969.526424,796.737709 977.672411,801.855747 C985.816822,806.973785 988.271021,817.72529 983.152983,825.869701 C978.036521,834.015688 967.285016,836.469888 959.139029,831.35185 M888.750323,913.365296 C881.948865,906.563838 881.948865,895.534915 888.750323,888.733457 C895.551781,881.930423 906.579127,881.930423 913.382161,888.733457 C920.183619,895.534915 920.183619,906.562261 913.382161,913.365296 C906.580703,920.166754 895.551781,920.166754 888.750323,913.365296 M801.876711,977.659486 C796.758673,969.515075 799.212872,958.763569 807.357283,953.645531 C815.501694,948.527493 826.253199,950.980117 831.371237,959.126104 C836.489275,967.270515 834.036652,978.02202 825.890665,983.140058 C817.746254,988.258096 806.994749,985.803897 801.876711,977.659486 M702.874437,1021.01054 C699.696745,1011.93143 704.482197,1001.99483 713.561316,998.817143 C722.640435,995.641027 732.577026,1000.4249 735.754718,1009.50402 C738.930833,1018.58472 734.146957,1028.51973 725.067838,1031.69742 C715.987143,1034.87512 706.052128,1030.08966 702.874437,1021.01054 M596.707697,1041.24468 C595.631128,1031.68639 602.506669,1023.0628 612.064964,1021.98623 C621.623258,1020.90967 630.246845,1027.78521 631.323414,1037.3435 C632.399983,1046.9018 625.524442,1055.52381 615.966148,1056.60195 C606.407853,1057.67852 597.785843,1050.80298 596.707697,1041.24468 M488.700387,1037.34713 C489.776956,1027.78883 498.398967,1020.91171 507.957261,1021.98828 C517.517132,1023.06485 524.392673,1031.68686 523.316104,1041.24673 C522.239535,1050.80503 513.617524,1057.68215 504.05923,1056.604 C494.499359,1055.52743 487.623818,1046.90542 488.700387,1037.34713 M384.268295,1009.51332 C387.445987,1000.4342 397.381002,995.648751 406.460121,998.824866 C415.540816,1002.00256 420.326268,1011.93757 417.148576,1021.01827 C413.970885,1030.09739 404.03587,1034.88284 394.956751,1031.70515 C385.876056,1028.52903 381.090604,1018.59244 384.268295,1009.51332 M288.64815,959.139029 C293.766188,950.994618 304.517694,948.540419 312.662105,953.65688 C320.808092,958.774918 323.262291,969.526424 318.144253,977.672411 C313.026215,985.816822 302.27471,988.271021 294.130299,983.152983 C285.984312,978.036521 283.530112,967.285016 288.64815,959.139029 M206.634704,888.750323 C213.436162,881.948865 224.465085,881.947289 231.266543,888.750323 C238.069577,895.551781 238.069577,906.579127 231.266543,913.382161 C224.465085,920.183619 213.437739,920.183619 206.634704,913.382161 C199.833246,906.580703 199.833246,895.551781 206.634704,888.750323 M142.340514,801.876711 C150.484925,796.758673 161.236431,799.212872 166.354469,807.357283 C171.472507,815.501694 169.019883,826.253199 160.873896,831.371237 C152.729485,836.489275 141.97798,834.036652 136.859942,825.890665 C131.741904,817.746254 134.196103,806.994749 142.340514,801.876711 M98.9894557,702.874437 C108.068575,699.696745 118.005166,704.482197 121.182857,713.561316 C124.358973,722.640435 119.575097,732.577026 110.495978,735.754718 C101.415283,738.930833 91.4802678,734.146957 88.3025762,725.067838 C85.1248846,715.987143 89.9103368,706.052128 98.9894557,702.874437 M78.7553153,596.707697 C88.3136099,595.631128 96.9371965,602.506669 98.0137657,612.064964 C99.0903348,621.623258 92.2147937,630.246845 82.6564992,631.323414 C73.0982046,632.399983 64.4761942,625.524442 63.3980488,615.966148 C62.3214797,606.407853 69.1970207,597.785843 78.7553153,596.707697 M82.6528738,488.700387 C92.2111684,489.776956 99.0882857,498.398967 98.0117166,507.957261 C96.9351474,517.517132 88.313137,524.392673 78.7532662,523.316104 C69.1949716,522.239535 62.3178543,513.617524 63.3959997,504.05923 C64.4725688,494.499359 73.0945793,487.623818 82.6528738,488.700387 M110.486678,384.268295 C119.565797,387.445987 124.351249,397.381002 121.175134,406.460121 C117.997442,415.540816 108.062427,420.324692 98.9817321,417.148576 C89.9026133,413.972461 85.1171611,404.03587 88.2948527,394.956751 C91.470968,385.876056 101.407559,381.090604 110.486678,384.268295 M160.860971,288.64815 C169.005382,293.766188 171.459581,304.517694 166.34312,312.662105 C161.225082,320.808092 150.473576,323.262291 142.327589,318.144253 C134.183178,313.026215 131.728979,302.27471 136.847017,294.130299 C141.963479,285.984312 152.714984,283.530112 160.860971,288.64815 M231.249677,206.634704 C238.051135,213.436162 238.052711,224.465085 231.249677,231.266543 C224.448219,238.069577 213.420873,238.069577 206.617839,231.266543 C199.816381,224.465085 199.816381,213.437739 206.617839,206.634704 C213.419297,199.833246 224.448219,199.833246 231.249677,206.634704 M318.123289,142.340514 C323.241327,150.484925 320.787128,161.236431 312.642717,166.354469 C304.498306,171.472507 293.746801,169.019883 288.628763,160.873896 C283.510725,152.729485 285.963348,141.97798 294.109335,136.859942 C302.253746,131.741904 313.005251,134.196103 318.123289,142.340514 M417.125563,98.9894557 C420.303255,108.068575 415.517803,118.005166 406.438684,121.182857 C397.359565,124.358973 387.422974,119.575097 384.245282,110.495978 C381.069167,101.415283 385.853043,91.4802678 394.932162,88.3025762 C404.012857,85.1248846 413.947872,89.9103368 417.125563,98.9894557 M523.292303,78.7553153 C524.368872,88.3136099 517.493331,96.9371965 507.935036,98.0137657 C498.376742,99.0903348 489.753155,92.2147937 488.676586,82.6564992 C487.600017,73.0982046 494.475558,64.4746179 504.033852,63.3980488 C513.592147,62.3214797 522.214157,69.1970207 523.292303,78.7553153 M629.62565,35.27469 C628.979394,41.0106125 623.806187,45.1356219 618.070265,44.4893652 C612.335919,43.8431084 608.209333,38.6699022 608.85559,32.9355559 C609.501846,27.1996334 614.675053,23.0746241 620.410975,23.7208808 C626.145321,24.3655613 630.271907,29.5387675 629.62565,35.27469 M744.642324,63.9238811 C742.736655,69.3713524 736.77533,72.2432542 731.326283,70.3360088 C725.878812,68.4303396 723.008486,62.4690153 724.914155,57.021544 C726.819824,51.5740727 732.781149,48.7021709 738.230196,50.6078401 C743.677668,52.5150856 746.547993,58.4764098 744.642324,63.9238811 M850.400345,117.448282 C847.329838,122.334613 840.878304,123.808394 835.991973,120.737886 C831.104065,117.667378 829.631861,111.215845 832.702369,106.329513 C835.772876,101.441606 842.22441,99.9694016 847.110741,103.039909 C851.998649,106.110417 853.470853,112.56195 850.400345,117.448282 M941.596311,193.164192 C937.515437,197.245067 930.898398,197.245067 926.817523,193.164192 C922.735072,189.083318 922.735072,182.466279 926.815947,178.385404 C930.898398,174.30453 937.51386,174.30453 941.596311,178.385404 C945.677186,182.466279 945.677186,189.083318 941.596311,193.164192 M1013.65756,287.274618 C1008.77123,290.345126 1002.3197,288.872922 999.249189,283.98659 C996.178681,279.098683 997.650886,272.648725 1002.53722,269.578218 C1007.42355,266.506134 1013.87508,267.978338 1016.94559,272.866246 C1020.0161,277.752577 1018.54389,284.204111 1013.65756,287.274618 M1062.97057,395.060783 C1057.5231,396.966452 1051.56178,394.096126 1049.65453,388.648655 C1047.74886,383.201184 1050.61919,377.239859 1056.06666,375.332614 C1061.51413,373.426945 1067.47703,376.29727 1069.3827,381.744742 C1071.28837,387.192213 1068.41805,393.155113 1062.97057,395.060783 M1087.06239,511.117614 C1081.32647,511.763871 1076.15327,507.638862 1075.50701,501.902939 C1074.86075,496.168593 1078.98576,490.99381 1084.72168,490.347554 C1090.45761,489.701297 1095.63081,493.827883 1096.27707,499.562229 C1096.92333,505.298151 1092.79832,510.471358 1087.06239,511.117614 M1084.72531,629.62565 C1078.98939,628.979394 1074.86438,623.806187 1075.51063,618.070265 C1076.15689,612.335919 1081.3301,608.209333 1087.06444,608.85559 C1092.80037,609.501846 1096.92538,614.675053 1096.27912,620.410975 C1095.63444,626.145321 1090.46123,630.271907 1084.72531,629.62565 M1056.07612,744.642324 C1050.62865,742.736655 1047.75675,736.77533 1049.66399,731.326283 C1051.56966,725.878812 1057.53098,723.008486 1062.97846,724.914155 C1068.42593,726.819824 1071.29783,732.781149 1069.39216,738.230196 C1067.48491,743.677668 1061.52359,746.547993 1056.07612,744.642324 M1002.55172,850.400345 C997.665387,847.329838 996.191606,840.878304 999.262114,835.991973 C1002.33262,831.104065 1008.78416,829.631861 1013.67049,832.702369 C1018.55839,835.772876 1020.0306,842.22441 1016.96009,847.110741 C1013.88958,851.998649 1007.43805,853.470853 1002.55172,850.400345 M926.835808,941.596311 C922.754933,937.515437 922.754933,930.898398 926.835808,926.817523 C930.916682,922.736649 937.533721,922.735072 941.614596,926.817523 C945.69547,930.898398 945.69547,937.515437 941.614596,941.596311 C937.533721,945.677186 930.916682,945.677186 926.835808,941.596311 M832.725382,1013.65756 C829.654874,1008.77123 831.127078,1002.3197 836.01341,999.249189 C840.901317,996.178681 847.351275,997.650886 850.421782,1002.53722 C853.493866,1007.42355 852.021662,1013.87508 847.133754,1016.94559 C842.247423,1020.0161 835.795889,1018.54389 832.725382,1013.65756 M724.939217,1062.97057 C723.033548,1057.5231 725.903874,1051.56178 731.351345,1049.65453 C736.798816,1047.74886 742.760141,1050.61919 744.667386,1056.06666 C746.573055,1061.51413 743.70273,1067.47703 738.255258,1069.3827 C732.807787,1071.28837 726.844887,1068.41805 724.939217,1062.97057 M608.882386,1087.06239 C608.236129,1081.32647 612.361138,1076.15327 618.097061,1075.50701 C623.831407,1074.86075 629.00619,1078.98576 629.652446,1084.72168 C630.298703,1090.45761 626.172117,1095.63081 620.437771,1096.27707 C614.701849,1096.92333 609.528642,1092.79832 608.882386,1087.06239 M490.37435,1084.72531 C491.020606,1078.98939 496.193813,1074.86438 501.929735,1075.51063 C507.664081,1076.15689 511.790667,1081.3301 511.14441,1087.06444 C510.498154,1092.80037 505.324947,1096.92538 499.589025,1096.27912 C493.854679,1095.63444 489.728093,1090.46123 490.37435,1084.72531 M375.357676,1056.07612 C377.263345,1050.62865 383.22467,1047.75675 388.673717,1049.66399 C394.121188,1051.56966 396.991514,1057.53098 395.085845,1062.97846 C393.180176,1068.42593 387.218851,1071.29783 381.769804,1069.39216 C376.322332,1067.48491 373.452007,1061.52359 375.357676,1056.07612 M269.599655,1002.55172 C272.670162,997.663811 279.121696,996.191606 284.008027,999.262114 C288.895935,1002.33262 290.368139,1008.78416 287.297631,1013.67049 C284.227124,1018.55839 277.77559,1020.0306 272.889259,1016.96009 C268.001351,1013.88958 266.529147,1007.43805 269.599655,1002.55172 M178.403689,926.835808 C182.484563,922.754933 189.101602,922.754933 193.182477,926.835808 C197.263351,930.916682 197.264928,937.533721 193.182477,941.614596 C189.101602,945.69547 182.484563,945.69547 178.403689,941.614596 C174.322814,937.533721 174.322814,930.916682 178.403689,926.835808 M106.342439,832.725382 C111.22877,829.654874 117.680304,831.127078 120.750811,836.01341 C123.821319,840.899741 122.349114,847.351275 117.462783,850.421782 C112.576452,853.493866 106.124918,852.021662 103.05441,847.133754 C99.9839029,842.247423 101.456107,835.795889 106.342439,832.725382 M57.0294252,724.939217 C62.4768965,723.033548 68.4382207,725.903874 70.3454662,731.351345 C72.2511354,736.798816 69.3808098,742.760141 63.9333385,744.667386 C58.4858672,746.573055 52.5229667,743.70273 50.6172975,738.255258 C48.7116283,732.807787 51.5819539,726.846463 57.0294252,724.939217 M32.937605,608.882386 C38.6735275,608.236129 43.8467338,612.361138 44.4929905,618.097061 C45.1392472,623.831407 41.0142378,629.004613 35.2783154,629.652446 C29.5423929,630.298703 24.3691866,626.172117 23.7229299,620.437771 C23.0766732,614.701849 27.2016825,609.528642 32.937605,608.882386 M35.27469,490.37435 C41.0106125,491.020606 45.1356219,496.193813 44.4893652,501.929735 C43.8431084,507.664081 38.6699022,511.790667 32.9355559,511.14441 C27.1996334,510.498154 23.0746241,505.324947 23.7208808,499.589025 C24.3655613,493.854679 29.5387675,489.728093 35.27469,490.37435 M63.9238811,375.357676 C69.3713524,377.263345 72.2432542,383.22467 70.3360088,388.673717 C68.4303396,394.121188 62.4690153,396.991514 57.021544,395.085845 C51.5740727,393.180176 48.7021709,387.218851 50.6078401,381.769804 C52.5150856,376.322332 58.4764098,373.452007 63.9238811,375.357676 M117.448282,269.599655 C122.336189,272.670162 123.808394,279.121696 120.737886,284.008027 C117.667378,288.895935 111.215845,290.368139 106.329513,287.297631 C101.441606,284.227124 99.9694016,277.77559 103.039909,272.889259 C106.110417,268.001351 112.56195,266.529147 117.448282,269.599655 M193.164192,178.403689 C197.245067,182.484563 197.245067,189.101602 193.164192,193.182477 C189.083318,197.264928 182.466279,197.264928 178.385404,193.184053 C174.30453,189.101602 174.30453,182.48614 178.385404,178.403689 C182.466279,174.322814 189.083318,174.322814 193.164192,178.403689 M287.274618,106.342439 C290.345126,111.22877 288.872922,117.680304 283.98659,120.750811 C279.100259,123.821319 272.648725,122.349114 269.578218,117.462783 C266.506134,112.576452 267.978338,106.124918 272.866246,103.05441 C277.752577,99.9839029 284.204111,101.456107 287.274618,106.342439 M395.060783,57.0294252 C396.966452,62.4768965 394.096126,68.4382207 388.648655,70.3454662 C383.201184,72.2511354 377.239859,69.3808098 375.332614,63.9333385 C373.426945,58.4858672 376.29727,52.5229667 381.744742,50.6172975 C387.192213,48.7116283 393.153537,51.5819539 395.060783,57.0294252 M511.117614,32.937605 C511.763871,38.6735275 507.638862,43.8467338 501.902939,44.4929905 C496.168593,45.1392472 490.995387,41.0142378 490.347554,35.2783154 C489.701297,29.5423929 493.827883,24.3691866 499.562229,23.7229299 C505.298151,23.0766732 510.471358,27.2016825 511.117614,32.937605 M687.173551,65.4350185 C685.461758,72.9379014 677.9904,77.631932 670.487517,75.9185635 C662.986211,74.2067713 658.29218,66.7369893 660.003972,59.2341064 C661.717341,51.7312234 669.187123,47.0371929 676.690006,48.7489851 C684.191312,50.4623535 688.885343,57.9321355 687.173551,65.4350185 M794.036041,106.133587 C790.697573,113.067449 782.370319,115.980333 775.436457,112.641865 C768.502595,109.303398 765.589711,100.976143 768.928179,94.0422817 C772.266646,87.1084199 780.593901,84.1955359 787.527763,87.5340036 C794.461624,90.8724712 797.374508,99.1997256 794.036041,106.133587 M889.163139,169.590796 C884.365077,175.607289 875.598053,176.595588 869.58156,171.797526 C863.565068,166.999464 862.576768,158.23244 867.37483,152.215948 C872.172892,146.199455 880.939916,145.211155 886.956409,150.009217 C892.972901,154.807279 893.961201,163.574304 889.163139,169.590796 M967.784525,252.624855 C961.768033,257.422917 953.001009,256.434617 948.202947,250.418125 C943.404884,244.401632 944.393184,235.634608 950.409677,230.836546 C956.426169,226.038484 965.193193,227.026784 969.991256,233.043276 C974.789318,239.059769 973.801018,247.826793 967.784525,252.624855 M1025.95788,351.071979 C1019.02401,354.410447 1010.69676,351.497563 1007.35829,344.563701 C1004.01982,337.629839 1006.93271,329.302585 1013.86657,325.964117 C1020.80043,322.625649 1029.12769,325.538533 1032.46615,332.472395 C1035.80462,339.406257 1032.89174,347.733511 1025.95788,351.071979 M1060.76621,459.995713 C1053.26333,461.707505 1045.79354,457.013474 1044.08018,449.512167 C1042.36838,442.009285 1047.06241,434.539503 1054.5653,432.826134 C1062.06818,431.114342 1069.53796,435.808372 1071.24975,443.309679 C1072.96312,450.812562 1068.26909,458.28392 1060.76621,459.995713 M1070.464,573.933925 C1062.76882,573.933925 1056.53007,567.695184 1056.53007,560 C1056.53007,552.304816 1062.76882,546.066075 1070.464,546.066075 C1078.15918,546.066075 1084.39793,552.304816 1084.39793,560 C1084.39793,567.695184 1078.15918,573.933925 1070.464,573.933925 M1054.56498,687.173551 C1047.0621,685.461758 1042.36807,677.9904 1044.08144,670.489094 C1045.79323,662.986211 1053.26301,658.29218 1060.76589,660.003972 C1068.26878,661.717341 1072.96281,669.187123 1071.25101,676.690006 C1069.53765,684.192889 1062.06786,688.885343 1054.56498,687.173551 M1013.86641,794.036041 C1006.93255,790.697573 1004.01967,782.370319 1007.35813,775.436457 C1010.6966,768.502595 1019.02386,765.589711 1025.95772,768.928179 C1032.89158,772.266646 1035.80446,780.593901 1032.466,787.527763 C1029.12753,794.461624 1020.80027,797.374508 1013.86641,794.036041 M950.409204,889.163139 C944.392711,884.365077 943.404412,875.598053 948.202474,869.58156 C953.000536,863.565068 961.76756,862.576768 967.784052,867.37483 C973.800545,872.172892 974.788845,880.939916 969.990783,886.956409 C965.192721,892.972901 956.425696,893.961201 950.409204,889.163139 M867.375145,967.784525 C862.577083,961.768033 863.565383,953.001009 869.581875,948.202947 C875.598368,943.404884 884.365392,944.393184 889.163454,950.409677 C893.961516,956.426169 892.973216,965.193193 886.956724,969.991256 C880.940231,974.789318 872.173207,973.801018 867.375145,967.784525 M768.928021,1025.95788 C765.589553,1019.02401 768.502437,1010.69676 775.436299,1007.35829 C782.370161,1004.01982 790.697415,1006.93271 794.035883,1013.86657 C797.374351,1020.80043 794.461467,1029.12769 787.527605,1032.46615 C780.593743,1035.80462 772.266489,1032.89174 768.928021,1025.95788 M660.004287,1060.76621 C658.292495,1053.26333 662.986526,1045.79354 670.487833,1044.08018 C677.990715,1042.36838 685.460497,1047.06241 687.173866,1054.5653 C688.885658,1062.06818 684.191628,1069.53796 676.690321,1071.24975 C669.187438,1072.96312 661.71608,1068.26909 660.004287,1060.76621 M546.066075,1070.464 C546.066075,1062.76882 552.304816,1056.53007 560,1056.53007 C567.695184,1056.53007 573.933925,1062.76882 573.933925,1070.464 C573.933925,1078.15918 567.695184,1084.39793 560,1084.39793 C552.304816,1084.39793 546.066075,1078.15918 546.066075,1070.464 M432.826449,1054.56498 C434.538242,1047.0621 442.0096,1042.36807 449.510906,1044.08144 C457.013789,1045.79323 461.70782,1053.26301 459.996028,1060.76589 C458.282659,1068.26878 450.812877,1072.96281 443.309994,1071.24944 C435.807111,1069.53765 431.114657,1062.06786 432.826449,1054.56498 M325.963959,1013.86641 C329.302427,1006.93255 337.629681,1004.01967 344.563543,1007.35813 C351.497405,1010.6966 354.410289,1019.02386 351.071821,1025.95772 C347.733354,1032.89158 339.406099,1035.80446 332.472237,1032.466 C325.538376,1029.12753 322.625492,1020.80027 325.963959,1013.86641 M230.836861,950.409204 C235.634923,944.392711 244.401947,943.404412 250.41844,948.202474 C256.434932,953.000536 257.423232,961.76756 252.62517,967.784052 C247.827108,973.800545 239.060084,974.788845 233.043591,969.990783 C227.027099,965.192721 226.038799,956.425696 230.836861,950.409204 M152.215475,867.375145 C158.231967,862.577083 166.998991,863.565383 171.797053,869.581875 C176.595116,875.598368 175.606816,884.365392 169.590323,889.163454 C163.573831,893.961516 154.806807,892.973216 150.008744,886.956724 C145.210682,880.940231 146.198982,872.173207 152.215475,867.375145 M94.042124,768.928021 C100.975986,765.589553 109.30324,768.502437 112.641708,775.436299 C115.980175,782.370161 113.067292,790.697415 106.13343,794.035883 C99.1995679,797.374351 90.8723136,794.461467 87.533846,787.527605 C84.1953783,780.593743 87.1082623,772.266489 94.042124,768.928021 M59.2337911,660.004287 C66.7366741,658.292495 74.2064561,662.986526 75.9198245,670.487833 C77.6316167,677.990715 72.9375862,685.460497 65.4347032,687.173866 C57.9318203,688.885658 50.4620383,684.191628 48.7502461,676.690321 C47.0368776,669.187438 51.7309082,661.71608 59.2337911,660.004287 M49.5359997,546.066075 C57.2311834,546.066075 63.4699252,552.304816 63.4699252,560 C63.4699252,567.695184 57.2311834,573.933925 49.5359997,573.933925 C41.840816,573.933925 35.6020742,567.695184 35.6020742,560 C35.6020742,552.304816 41.840816,546.066075 49.5359997,546.066075 M65.4350185,432.826449 C72.9379014,434.538242 77.631932,442.0096 75.9185635,449.512483 C74.2067713,457.013789 66.7369893,461.70782 59.2341064,459.996028 C51.7312234,458.282659 47.0371929,450.812877 48.7505613,443.309994 C50.4623535,435.808688 57.9321355,431.114657 65.4350185,432.826449 M106.133587,325.963959 C113.067449,329.302427 115.980333,337.629681 112.641865,344.563543 C109.303398,351.497405 100.976143,354.410289 94.0422817,351.071821 C87.1084199,347.733354 84.1955359,339.406099 87.5340036,332.472237 C90.8724712,325.538376 99.1997256,322.625492 106.133587,325.963959 M169.590796,230.836861 C175.607289,235.634923 176.595588,244.401947 171.797526,250.41844 C166.999464,256.434932 158.23244,257.423232 152.215948,252.62517 C146.199455,247.827108 145.211155,239.060084 150.009217,233.043591 C154.807279,227.027099 163.574304,226.038799 169.590796,230.836861 M252.624855,152.215475 C257.422917,158.231967 256.434617,166.998991 250.418125,171.797053 C244.401632,176.595116 235.634608,175.606816 230.836546,169.590323 C226.038484,163.573831 227.026784,154.806807 233.043276,150.008744 C239.059769,145.210682 247.826793,146.198982 252.624855,152.215475 M351.071979,94.042124 C354.410447,100.975986 351.497563,109.30324 344.563701,112.641708 C337.629839,115.980175 329.302585,113.067292 325.964117,106.13343 C322.625649,99.1995679 325.538533,90.8723136 332.472395,87.533846 C339.406257,84.1953783 347.733511,87.1082623 351.071979,94.042124 M459.995713,59.2337911 C461.707505,66.7366741 457.013474,74.2064561 449.512167,75.9198245 C442.009285,77.6316167 434.539503,72.9375862 432.826134,65.4347032 C431.114342,57.9318203 435.808372,50.4620383 443.309679,48.7502461 C450.812562,47.0368776 458.28392,51.7309082 459.995713,59.2337911 M573.933925,49.5359997 C573.933925,57.2311834 567.695184,63.4699252 560,63.4699252 C552.304816,63.4699252 546.066075,57.2311834 546.066075,49.5359997 C546.066075,41.840816 552.304816,35.6020742 560,35.6020742 C567.695184,35.6020742 573.933925,41.840816 573.933925,49.5359997 M686.732677,28.229546 C686.091149,31.0431271 683.288602,32.8037826 680.475021,32.1606783 C677.663016,31.5191503 675.902361,28.7181791 676.543889,25.904598 C677.186993,23.0910169 679.987964,21.3303614 682.801545,21.9718894 C685.615126,22.6149937 687.374205,25.4159649 686.732677,28.229546 M801.88538,69.7627318 C800.633849,72.3619448 797.511326,73.4558525 794.910536,72.202745 C792.309747,70.9512137 791.217416,67.8286903 792.470523,65.2279011 C793.722054,62.628688 796.844578,61.5363566 799.445367,62.7878879 C802.04458,64.0394192 803.136912,67.1619425 801.88538,69.7627318 M904.90879,135.878578 C903.110305,138.134171 899.822277,138.504587 897.565107,136.706101 C895.309513,134.90604 894.939098,131.619588 896.739159,129.362418 C898.537644,127.106825 901.825672,126.736409 904.081266,128.534895 C906.338436,130.334956 906.708851,133.622984 904.90879,135.878578 M990.637109,223.261629 C988.381515,225.060114 985.093487,224.689699 983.293426,222.434105 C981.49494,220.178511 981.865356,216.890483 984.120949,215.091998 C986.378119,213.291937 989.664571,213.662352 991.464633,215.917946 C993.263118,218.175116 992.892702,221.463144 990.637109,223.261629 M1054.77147,327.530107 C1052.17068,328.781639 1049.04816,327.689307 1047.79662,325.090094 C1046.54509,322.489305 1047.63742,319.366782 1050.23664,318.11525 C1052.83743,316.862143 1055.95995,317.95605 1057.21148,320.555263 C1058.46459,323.154477 1057.37068,326.278576 1054.77147,327.530107 M1094.09603,443.455639 C1091.28245,444.097167 1088.48148,442.338087 1087.83838,439.524506 C1087.19685,436.710925 1088.9575,433.909954 1091.77108,433.26685 C1094.58467,432.625322 1097.38564,434.385977 1098.02716,437.197982 C1098.67027,440.011563 1096.90961,442.814111 1094.09603,443.455639 M1106.63861,565.225222 C1103.75253,565.225222 1101.41339,562.886088 1101.41339,560 C1101.41339,557.113912 1103.75253,554.774778 1106.63861,554.774778 C1109.5247,554.774778 1111.86384,557.113912 1111.86384,560 C1111.86384,562.886088 1109.5247,565.225222 1106.63861,565.225222 M1091.77045,686.732677 C1088.95687,686.091149 1087.19622,683.288602 1087.83932,680.476597 C1088.48085,677.663016 1091.28182,675.902361 1094.0954,676.543889 C1096.90898,677.186993 1098.66964,679.987964 1098.02811,682.801545 C1097.38501,685.615126 1094.58404,687.374205 1091.77045,686.732677 M1050.23727,801.88538 C1047.63806,800.633849 1046.54415,797.511326 1047.79726,794.910536 C1049.04879,792.309747 1052.17131,791.217416 1054.7721,792.470523 C1057.37131,793.722054 1058.46364,796.844578 1057.21211,799.445367 C1055.96058,802.04458 1052.83806,803.136912 1050.23727,801.88538 M984.121422,904.90879 C981.865829,903.110305 981.495413,899.822277 983.293899,897.565107 C985.09396,895.309513 988.380412,894.939098 990.637582,896.737583 C992.893175,898.537644 993.263591,901.825672 991.465105,904.081266 C989.665044,906.33686 986.377016,906.707275 984.121422,904.90879 M896.738371,990.637109 C894.939886,988.381515 895.310301,985.093487 897.565895,983.293426 C899.821489,981.49494 903.109517,981.865356 904.908002,984.120949 C906.708063,986.378119 906.337648,989.664571 904.082054,991.464633 C901.824884,993.263118 898.536856,992.892702 896.738371,990.637109 M792.469893,1054.77147 C791.218361,1052.17226 792.310693,1049.04816 794.909906,1047.79662 C797.510695,1046.54509 800.633218,1047.63742 801.88475,1050.23664 C803.137857,1052.83743 802.04395,1055.95995 799.444737,1057.21148 C796.845523,1058.46459 793.721424,1057.37226 792.469893,1054.77147 M676.544361,1094.09603 C675.902833,1091.28245 677.661913,1088.48148 680.475494,1087.83838 C683.289075,1087.19685 686.090046,1088.9575 686.73315,1091.77108 C687.374678,1094.58467 685.614023,1097.38564 682.802018,1098.02716 C679.988437,1098.67027 677.185889,1096.90961 676.544361,1094.09603 M554.774778,1106.63861 C554.774778,1103.75253 557.113912,1101.41339 560,1101.41339 C562.886088,1101.41339 565.225222,1103.75253 565.225222,1106.63861 C565.225222,1109.5247 562.886088,1111.86384 560,1111.86384 C557.113912,1111.86384 554.774778,1109.5247 554.774778,1106.63861 M433.267323,1091.77045 C433.908851,1088.95687 436.711398,1087.19622 439.523403,1087.83932 C442.336984,1088.48085 444.097639,1091.28182 443.456111,1094.0954 C442.813007,1096.90898 440.012036,1098.66964 437.198455,1098.02811 C434.384874,1097.38501 432.625795,1094.58404 433.267323,1091.77045 M318.11462,1050.23727 C319.366151,1047.63806 322.488674,1046.54415 325.089464,1047.79726 C327.690253,1049.04879 328.782584,1052.17131 327.529477,1054.7721 C326.277946,1057.37131 323.155422,1058.46364 320.554633,1057.21211 C317.95542,1055.96058 316.863088,1052.83806 318.11462,1050.23727 M215.09121,984.121422 C216.889695,981.865829 220.177723,981.495413 222.434893,983.293899 C224.690487,985.09396 225.060902,988.380412 223.262417,990.637582 C221.462356,992.893175 218.174328,993.263591 215.918734,991.465105 C213.66314,989.665044 213.292725,986.377016 215.09121,984.121422 M129.362891,896.738371 C131.618485,894.939886 134.906513,895.310301 136.706574,897.565895 C138.50506,899.821489 138.134644,903.109517 135.879051,904.909578 C133.621881,906.708063 130.335429,906.337648 128.535367,904.082054 C126.736882,901.824884 127.107298,898.536856 129.362891,896.738371 M65.2285316,792.469893 C67.8277446,791.218361 70.9518442,792.310693 72.2033755,794.909906 C73.4549068,797.510695 72.3625753,800.633218 69.7633623,801.88475 C67.162573,803.137857 64.0400497,802.04395 62.7885184,799.444737 C61.5354108,796.843947 62.6277423,793.721424 65.2285316,792.469893 M25.9039675,676.544361 C28.7175486,675.902833 31.5185198,677.661913 32.1616241,680.475494 C32.8031521,683.289075 31.0424966,686.090046 28.2289155,686.73315 C25.4153344,687.374678 22.6143632,685.614023 21.9728351,682.800442 C21.3297309,679.988437 23.0903864,677.185889 25.9039675,676.544361 M13.3613855,554.774778 C16.2474734,554.774778 18.5866075,557.113912 18.5866075,560 C18.5866075,562.886088 16.2474734,565.225222 13.3613855,565.225222 C10.4752975,565.225222 8.13616344,562.886088 8.13616344,560 C8.13616344,557.113912 10.4752975,554.774778 13.3613855,554.774778 M28.229546,433.267323 C31.0431271,433.908851 32.8037826,436.711398 32.1606783,439.524979 C31.5191503,442.336984 28.7181791,444.097639 25.904598,443.456111 C23.0910169,442.813007 21.3303614,440.012036 21.9718894,437.198455 C22.6149937,434.384874 25.4159649,432.625795 28.229546,433.267323 M69.7627318,318.11462 C72.3619448,319.366151 73.4558525,322.488674 72.202745,325.089464 C70.9512137,327.690253 67.8286903,328.782584 65.2279011,327.529477 C62.628688,326.277946 61.5363566,323.155422 62.7878879,320.554633 C64.0394192,317.95542 67.1619425,316.863088 69.7627318,318.11462 M135.878578,215.09121 C138.134171,216.889695 138.504587,220.177723 136.706101,222.434893 C134.90604,224.690487 131.619588,225.060902 129.362418,223.260841 C127.106825,221.462356 126.736409,218.174328 128.534895,215.918734 C130.334956,213.661564 133.622984,213.291149 135.878578,215.09121 M223.261629,129.362891 C225.060114,131.618485 224.689699,134.906513 222.434105,136.706574 C220.178511,138.50506 216.890483,138.134644 215.090422,135.879051 C213.291937,133.621881 213.662352,130.335429 215.917946,128.535367 C218.175116,126.736882 221.463144,127.107298 223.261629,129.362891 M327.530107,65.2285316 C328.781639,67.8293208 327.689307,70.9518442 325.090094,72.2033755 C322.489305,73.4549068 319.366782,72.3625753 318.11525,69.7633623 C316.862143,67.162573 317.95605,64.0400497 320.555263,62.7885184 C323.156053,61.5354108 326.278576,62.6293185 327.530107,65.2285316 M443.455639,25.9039675 C444.097167,28.7175486 442.338087,31.5185198 439.524506,32.1616241 C436.710925,32.8031521 433.909954,31.0424966 433.26685,28.2289155 C432.625322,25.4153344 434.385977,22.6143632 437.199558,21.9728351 C440.011563,21.3297309 442.814111,23.0903864 443.455639,25.9039675 M565.225222,13.3613855 C565.225222,16.2474734 562.886088,18.5866075 560,18.5866075 C557.113912,18.5866075 554.774778,16.2474734 554.774778,13.3613855 C554.774778,10.4752975 557.113912,8.13616344 560,8.13616344 C562.886088,8.13616344 565.225222,10.4752975 565.225222,13.3613855 M626.151942,3.87307579 C625.935997,5.78504995 624.211595,7.15952767 622.299621,6.94515958 C620.389223,6.72921526 619.013169,5.00481317 619.229114,3.09283901 C619.443482,1.18086485 621.167884,-0.193612867 623.079858,0.022331453 C624.991832,0.236699537 626.367886,1.96110163 626.151942,3.87307579 M748.243235,32.5366106 C747.608012,34.3524344 745.620378,35.3092096 743.804555,34.6739865 C741.988731,34.0387634 741.031956,32.05113 741.667179,30.2353062 C742.302402,28.4194824 744.290035,27.4627072 746.105859,28.0979303 C747.921683,28.7331534 748.878458,30.7207868 748.243235,32.5366106 M860.895239,87.6492264 C859.872262,89.2790544 857.7207,89.7692637 856.092448,88.7462866 C854.462621,87.7217333 853.972411,85.5717475 854.995388,83.9419196 C856.019942,82.3136679 858.169927,81.8234585 859.798179,82.8464356 C861.428007,83.8694127 861.918216,86.0193985 860.895239,87.6492264 M958.459041,166.447624 C957.098749,167.807916 954.893595,167.807916 953.533303,166.447624 C952.173012,165.087332 952.173012,162.882178 953.533303,161.521887 C954.893595,160.161595 957.098749,160.161595 958.459041,161.521887 C959.819332,162.882178 959.819332,165.087332 958.459041,166.447624 M1036.04248,264.98018 C1034.41422,266.003157 1032.26266,265.512948 1031.23968,263.884696 C1030.21671,262.254868 1030.70692,260.104882 1032.33517,259.081905 C1033.965,258.057352 1036.11498,258.547561 1037.13796,260.177389 C1038.16251,261.805641 1037.6723,263.957203 1036.04248,264.98018 M1089.75524,378.306498 C1087.93941,378.941721 1085.95178,377.984946 1085.31656,376.169122 C1084.68133,374.353299 1085.63811,372.365665 1087.45393,371.730442 C1089.26976,371.095219 1091.25739,372.051994 1091.89261,373.867818 C1092.52784,375.683642 1091.57106,377.671275 1089.75524,378.306498 M1116.90385,500.74346 C1114.99188,500.959404 1113.26747,499.58335 1113.05153,497.671376 C1112.83716,495.760978 1114.21164,494.036576 1116.12361,493.820632 C1118.03559,493.604688 1119.75999,494.980741 1119.97593,496.891139 C1120.1903,498.803114 1118.81583,500.527516 1116.90385,500.74346 M1116.12692,626.151942 C1114.21495,625.935997 1112.84047,624.211595 1113.05484,622.299621 C1113.27078,620.389223 1114.99519,619.013169 1116.90716,619.229114 C1118.81914,619.443482 1120.19361,621.167884 1119.97767,623.079858 C1119.7633,624.991832 1118.0389,626.367886 1116.12692,626.151942 M1087.46339,748.243235 C1085.64757,747.608012 1084.69079,745.620378 1085.32601,743.804555 C1085.96124,741.988731 1087.94887,741.031956 1089.76469,741.667179 C1091.58052,742.302402 1092.53729,744.290035 1091.90207,746.105859 C1091.26685,747.921683 1089.27921,748.878458 1087.46339,748.243235 M1032.35077,860.895239 C1030.72095,859.872262 1030.23074,857.7207 1031.25371,856.092448 C1032.27827,854.462621 1034.42825,853.972411 1036.05808,854.995388 C1037.68633,856.019942 1038.17654,858.169927 1037.15356,859.798179 C1036.13059,861.428007 1033.9806,861.918216 1032.35077,860.895239 M953.552376,958.459041 C952.192084,957.098749 952.192084,954.893595 953.552376,953.533303 C954.912668,952.173012 957.117822,952.173012 958.478113,953.531727 C959.838405,954.893595 959.838405,957.098749 958.478113,958.459041 C957.117822,959.819332 954.912668,959.819332 953.552376,958.459041 M855.01982,1036.04248 C853.996843,1034.41422 854.487052,1032.26266 856.115304,1031.23968 C857.745132,1030.21671 859.895118,1030.70692 860.918095,1032.33517 C861.942648,1033.965 861.452439,1036.11498 859.822611,1037.13796 C858.194359,1038.16251 856.042797,1037.67073 855.01982,1036.04248 M741.693502,1089.75524 C741.058279,1087.93941 742.015054,1085.95178 743.830878,1085.31656 C745.646701,1084.68133 747.634335,1085.63811 748.269558,1087.45393 C748.904781,1089.26976 747.948006,1091.25739 746.132182,1091.89261 C744.316358,1092.52784 742.328725,1091.57106 741.693502,1089.75524 M619.25654,1116.90385 C619.040596,1114.99188 620.41665,1113.26747 622.328624,1113.05153 C624.239022,1112.83716 625.963424,1114.21164 626.179368,1116.12361 C626.395312,1118.03559 625.019259,1119.75999 623.108861,1119.97593 C621.196886,1120.1903 619.472484,1118.81583 619.25654,1116.90385 M493.848058,1116.12692 C494.064003,1114.21495 495.788405,1112.84047 497.700379,1113.05484 C499.610777,1113.27078 500.986831,1114.99519 500.770886,1116.90716 C500.556518,1118.81914 498.832116,1120.19361 496.920142,1119.97767 C495.008168,1119.7633 493.632114,1118.0389 493.848058,1116.12692 M371.756765,1087.46339 C372.391988,1085.64757 374.379622,1084.69079 376.195445,1085.32601 C378.011269,1085.96124 378.968044,1087.94887 378.332821,1089.76469 C377.697598,1091.58052 375.709965,1092.53729 373.894141,1091.90207 C372.078317,1091.26685 371.121542,1089.27921 371.756765,1087.46339 M259.104761,1032.35077 C260.127738,1030.72252 262.2793,1030.23074 263.907552,1031.25371 C265.537379,1032.27827 266.027589,1034.42825 265.004612,1036.05808 C263.980058,1037.68633 261.830073,1038.17654 260.201821,1037.15356 C258.571993,1036.13059 258.081784,1033.9806 259.104761,1032.35077 M161.540959,953.552376 C162.901251,952.192084 165.106405,952.192084 166.466697,953.552376 C167.826988,954.912668 167.826988,957.117822 166.468273,958.478113 C165.106405,959.838405 162.901251,959.838405 161.540959,958.478113 C160.180668,957.117822 160.180668,954.912668 161.540959,953.552376 M83.9575243,855.01982 C85.585776,853.996843 87.737338,854.487052 88.7603151,856.115304 C89.7832922,857.745132 89.2930829,859.895118 87.6648312,860.918095 C86.0350032,861.942648 83.8850174,861.450862 82.8620403,859.822611 C81.837487,858.194359 82.3292726,856.042797 83.9575243,855.01982 M30.2447636,741.693502 C32.0605874,741.058279 34.0482209,742.015054 34.6834439,743.830878 C35.318667,745.646701 34.3618918,747.634335 32.546068,748.269558 C30.7302443,748.904781 28.7426108,747.948006 28.1073877,746.132182 C27.4721646,744.316358 28.4289398,742.328725 30.2447636,741.693502 M3.09614911,619.25654 C5.00812327,619.040596 6.73252536,620.41665 6.94846968,622.328624 C7.16283776,624.239022 5.78836005,625.963424 3.87638588,626.179368 C1.96441172,626.395312 0.240009633,625.019259 0.0240653125,623.108861 C-0.190302772,621.196886 1.18417494,619.472484 3.09614911,619.25654 M3.87307579,493.848058 C5.78504995,494.064003 7.15952767,495.788405 6.94515958,497.700379 C6.72921526,499.610777 5.00481317,500.986831 3.09283901,500.770886 C1.18086485,500.556518 -0.193612867,498.832116 0.022331453,496.920142 C0.236699537,495.008168 1.96110163,493.632114 3.87307579,493.848058 M32.5366106,371.756765 C34.3524344,372.391988 35.3092096,374.379622 34.6739865,376.195445 C34.0387634,378.011269 32.05113,378.968044 30.2353062,378.332821 C28.4194824,377.697598 27.4627072,375.709965 28.0979303,373.894141 C28.7331534,372.078317 30.7207868,371.121542 32.5366106,371.756765 M87.6492264,259.104761 C89.2774781,260.127738 89.7692637,262.2793 88.7462866,263.907552 C87.7217333,265.537379 85.5717475,266.027589 83.9419196,265.004612 C82.3136679,263.980058 81.8234585,261.830073 82.8464356,260.201821 C83.8694127,258.571993 86.0193985,258.081784 87.6492264,259.104761 M166.447624,161.540959 C167.807916,162.901251 167.807916,165.106405 166.447624,166.466697 C165.087332,167.826988 162.882178,167.826988 161.521887,166.466697 C160.161595,165.106405 160.161595,162.901251 161.521887,161.540959 C162.882178,160.180668 165.087332,160.180668 166.447624,161.540959 M264.98018,83.9575243 C266.003157,85.585776 265.512948,87.737338 263.884696,88.7603151 C262.254868,89.7832922 260.104882,89.2930829 259.081905,87.6648312 C258.057352,86.0350032 258.549138,83.8850174 260.177389,82.8620403 C261.805641,81.837487 263.957203,82.3276964 264.98018,83.9575243 M378.306498,30.2447636 C378.941721,32.0605874 377.984946,34.0482209 376.169122,34.6834439 C374.353299,35.318667 372.365665,34.3618918 371.730442,32.546068 C371.095219,30.7302443 372.051994,28.7426108 373.867818,28.1073877 C375.683642,27.4721646 377.671275,28.4289398 378.306498,30.2447636 M500.74346,3.09614911 C500.959404,5.00812327 499.58335,6.73252536 497.671376,6.94846968 C495.760978,7.16283776 494.036576,5.78836005 493.820632,3.87638588 C493.604688,1.96441172 494.980741,0.240009633 496.891139,0.0240653125 C498.803114,-0.190302772 500.527516,1.18417494 500.74346,3.09614911" id="Combined-Shape"></path>
        </g>
    </g>
</svg>