<?xml version="1.0" encoding="UTF-8"?>
<svg viewBox="0 0 400 710" version="1.1" xmlns="http://www.w3.org/2000/svg" xmlns:xlink="http://www.w3.org/1999/xlink">
    <title>Fill 3</title>
    <g id="Web" stroke="none" stroke-width="1" fill="none" fill-rule="evenodd">
        <g id="DT---Home--/-Next-step" transform="translate(-129.7551, -3419)" fill="#FFFFFF">
            <path d="M189.931332,3556.98273 L189.931332,3669.50537 C189.931332,3689.16254 185.134743,3703.56723 175.560194,3712.7101 C165.967017,3721.86231 150.701758,3726.44307 129.755102,3726.44307 L129.755102,3821.55693 C150.701758,3821.55693 165.967017,3826.13769 175.560194,3835.2899 C185.134743,3844.4421 189.931332,3858.83746 189.931332,3878.49463 L189.931332,3991.01727 C189.931332,4020.92752 195.053902,4046.27567 205.31767,4067.04305 C215.562811,4087.8011 230.939835,4103.31599 251.448744,4113.59706 C271.948339,4123.85947 297.365601,4129 327.681903,4129 L430.664193,4129 L430.664193,4019.15492 L361.788907,4019.15492 C344.40011,4019.15492 331.575057,4015.12459 323.341689,4007.09193 C315.08038,3999.04993 310.97301,3986.10064 310.97301,3968.24405 L310.97301,3861.74825 C310.97301,3845.66426 307.620055,3831.49281 300.932773,3819.20591 C294.254804,3806.93766 284.438096,3797.44027 271.510592,3790.74172 C258.583087,3784.04317 243.429593,3780.47931 226.040795,3780.02217 L226.040795,3767.9685 C252.780612,3767.53002 273.624816,3759.93584 288.564094,3745.18596 C303.494058,3730.45474 310.97301,3710.81622 310.97301,3686.25175 L310.97301,3579.74662 C310.97301,3561.89003 315.08038,3548.93141 323.341689,3540.89874 C331.575057,3532.86608 344.40011,3528.84508 361.788907,3528.84508 L430.664193,3528.84508 L430.664193,3419 L327.681903,3419 C282.659167,3419 248.449712,3430.61518 225.034909,3453.82688 C201.62942,3477.04791 189.931332,3511.42697 189.931332,3556.98273 Z" id="Fill-3"></path>
        </g>
    </g>
</svg>