<?xml version="1.0" encoding="UTF-8"?>
<svg width="327.002289px" height="327.000174px" viewBox="0 0 327.002289 327.000174" version="1.1" xmlns="http://www.w3.org/2000/svg" xmlns:xlink="http://www.w3.org/1999/xlink">
    <title>Combined Shape</title>
    <g id="Web" stroke="none" stroke-width="1" fill="none" fill-rule="evenodd">
        <path d="M99.4754817,163.407159 C102.807315,163.807562 106.050408,164.619189 109.32308,165.29284 C111.350685,165.712181 113.389047,166.074708 115.387071,166.621204 C117.172655,167.105475 118.893699,167.73584 120.488353,168.701676 C123.588922,170.579242 125.275007,173.376651 125.863927,176.912642 C126.304944,179.580192 126.130151,182.1774 125.283074,184.758376 C123.416817,190.44518 121.448373,196.091403 119.151855,201.621293 C118.221416,203.861385 117.059711,205.982438 115.922208,208.117019 C115.752793,208.436259 115.282195,208.847484 115.653295,209.150491 C115.85436,209.313441 116.072179,209.1211 116.279093,208.914595 L116.415116,208.77857 C116.459717,208.735025 116.503475,208.694523 116.546087,208.660809 C118.48764,207.13495 120.012377,205.222214 121.394591,203.198556 C122.502513,201.5753 123.669596,200.016975 125.01685,198.577689 C126.253851,197.254736 127.593038,196.085992 129.160802,195.21214 C131.398159,193.967644 133.724257,192.912528 136.281621,192.501304 C137.795602,192.257815 139.274624,192.403908 140.705242,192.982869 C142.388638,193.661931 143.407819,194.8929 143.768163,196.686597 C143.999428,197.841813 143.951024,199.015968 143.999428,200.179301 C144.063967,201.780913 144.193045,203.366292 144.521119,204.932733 C145.217604,208.263112 144.660954,211.385173 143.023273,214.342203 C142.254182,215.735497 141.619547,217.209954 140.627257,218.470682 C139.513957,219.885619 138.285024,221.184224 136.728017,222.11489 C135.770686,222.68844 134.877895,223.329626 134.154518,224.189951 C133.718879,224.706687 133.143405,224.993463 132.522216,225.23154 C131.707409,225.539959 131.532615,225.810501 131.833798,226.581547 C132.578688,228.488872 132.823398,230.499003 133.172986,232.490196 C133.31551,233.304529 133.476857,234.116157 133.648962,234.925079 C133.888294,236.047831 134.299732,237.105652 134.937056,238.068784 C136.012708,239.689333 136.875919,241.4181 137.478285,243.271317 C138.043002,245.0082 139.027224,246.496184 140.183551,247.878656 C141.506603,249.464035 142.633349,251.157632 143.273363,253.148825 C143.520763,253.91446 143.929511,254.598933 144.416243,255.234708 C145.432735,256.560366 146.169557,258.034823 146.658979,259.622908 C147.234453,261.48424 147.973964,263.26441 148.899025,264.971534 C149.251301,265.620836 149.549795,266.302603 149.845599,266.981665 C150.447965,268.366843 151.117558,269.71685 151.940433,270.9884 C152.435233,271.75133 152.860116,272.557546 153.25004,273.382701 C154.384853,275.779708 155.791269,278.0198 157.176171,280.276125 C157.592987,280.955187 158.001735,281.63966 158.364767,282.348481 C158.891837,283.381953 159.609835,284.239573 160.508005,284.964627 C162.731916,286.752913 163.600506,290.094114 162.570569,292.791423 C162.116105,293.979105 161.454579,295.039631 160.629016,295.98653 C159.755048,296.992949 159.432352,298.072413 159.819587,299.379134 C160.072366,300.225932 160.15035,301.110606 160.177242,302.000691 C160.236403,304.102807 159.518405,305.891093 158.160393,307.471061 C157.324073,308.445014 156.455484,309.372975 155.471262,310.19813 C154.597294,310.928595 153.844338,311.791626 153.182811,312.716881 C152.077578,314.269795 150.657717,315.481826 149.170627,316.628926 C148.380023,317.240352 147.680849,317.949174 147.048903,318.714809 C146.024344,319.953894 144.833059,321.003599 143.52883,321.918033 C142.154684,322.881164 140.58961,323.224753 138.930416,323.14359 C138.053759,323.100304 137.18248,322.967738 136.332715,322.72966 C135.335047,322.448296 134.436877,322.5998 133.62207,323.273451 C132.920207,323.852412 132.194142,324.401613 131.411605,324.866946 C128.042123,326.866256 124.371459,326.184489 121.924349,323.103009 C121.494088,322.561924 120.999288,322.085769 120.388856,321.77194 C118.444614,320.770932 116.634828,319.539964 114.776639,318.395569 C112.187005,316.802073 109.379552,315.619802 106.824877,313.966788 C105.902505,313.371594 104.853744,312.96578 103.839942,312.52209 C102.280246,311.843029 100.855006,310.879897 99.2469055,310.303642 C98.4186531,310.006045 97.5850224,309.730091 96.7540808,309.446022 C95.1863173,308.907642 93.7395647,308.13389 92.4299578,307.11124 C91.8625511,306.670255 91.2306052,306.356426 90.5556333,306.126465 C88.788874,305.523155 87.2345562,304.546496 85.7878035,303.375047 C85.2150186,302.912419 84.6368554,302.452497 84.056003,302.000691 C82.9400135,301.132249 81.6519197,300.607397 80.3423127,300.139358 C78.7826166,299.584746 77.3089727,298.865103 75.9348266,297.942553 C74.6897588,297.106576 73.3317475,296.570902 71.8634819,296.305771 C70.411351,296.043344 68.9619092,295.783623 67.5097783,295.529313 C66.5309346,295.356166 65.5682256,295.1235 64.635097,294.771794 C64.4226557,294.690632 64.2075252,294.617585 63.9870164,294.571593 C63.4196097,294.449849 63.1453183,294.528306 62.9785922,295.066686 C62.6424508,296.159678 61.9136962,296.928018 61.1096459,297.658483 C60.6632502,298.067002 60.3593783,298.586444 60.0528174,299.09777 C58.5630386,301.613815 56.4870293,303.499497 53.9377329,304.879264 C53.2627609,305.244496 52.5770324,305.582674 51.9101279,305.961434 C50.1245447,306.975968 48.1937485,307.484588 46.1688326,307.679379 C45.3728498,307.755131 44.5741778,307.738898 43.7970189,307.571162 C41.1509137,306.997612 38.4644716,306.859635 35.7726512,306.778472 C35.6301272,306.775767 35.4902924,306.767651 35.3477684,306.756829 C32.7904046,306.564744 31.0935628,305.114636 30.4804408,302.604001 C30.0716929,300.923932 30.1523668,299.251979 30.6364105,297.615196 C31.4270151,294.953058 32.4784654,292.393725 34.1779963,290.175277 C35.7968534,288.062339 37.7437844,286.271348 39.9596286,284.813123 C41.6026878,283.730953 43.1166687,282.497279 44.5956909,281.209497 C45.3916737,280.516908 46.0478217,279.694459 46.7066589,278.872009 C46.7927111,278.763792 46.8760742,278.639343 46.9217894,278.509482 C46.9970851,278.284932 46.873385,278.157777 46.6663219,278.230824 C46.3490044,278.344451 46.0370652,278.49325 45.7439499,278.660986 C42.611112,280.457389 39.3518849,281.983249 35.9797143,283.26562 C31.1016302,285.121542 26.2369917,287.020751 21.2002489,288.403223 C17.6505956,289.377176 14.1601032,288.944308 10.8659174,287.296704 C8.50486016,286.117139 7.01239231,284.088069 5.89102457,281.753287 C5.10848737,280.124621 4.62444375,278.395854 4.2506545,276.634623 C3.50038688,273.095926 2.75818665,269.551819 2.03212121,266.005006 C1.24420575,262.163302 1.03445351,258.270195 1.00114434,254.355444 C0.977981751,251.463345 1.38135144,248.614532 1.69060154,245.752192 C1.93800161,243.449875 2.43280177,241.198961 2.96524976,238.950752 C3.43853686,236.954148 3.90106744,234.954839 4.38511106,232.96094 C4.7239416,231.570352 5.21605262,230.239282 6.022792,229.040779 C7.26785978,227.198384 9.53748656,226.933253 11.1724784,228.44288 C11.7237503,228.9515 12.1244308,229.568337 12.4390592,230.247399 C13.377566,232.268351 13.7298422,234.435397 13.910014,236.629497 C14.2811141,241.096155 14.2138858,245.573634 14.1520358,250.048407 C14.114388,252.786298 14.0552271,255.518777 14.4048142,258.245846 C14.7812925,261.186644 15.8166081,263.86772 17.454289,266.324246 C17.5484086,266.467634 17.6479065,266.605611 17.7527826,266.738176 C19.5706353,269.062137 21.633199,269.086486 23.784504,267.998905 C25.1398262,267.314432 26.2853961,266.326952 27.4202095,265.339471 C29.7570645,263.310402 32.1127435,261.300271 34.231779,259.030419 C35.4660902,257.734521 36.7945211,256.533312 37.9131997,255.12108 C38.4779172,254.409553 38.883976,253.638507 38.9619609,252.734895 C39.1179305,250.960136 39.9246698,249.542493 41.2315876,248.381865 C41.9576531,247.732563 42.5519511,246.98316 43.0117925,246.114719 C43.8803819,244.480642 45.0770453,243.141456 46.5937154,242.067402 C47.6209635,241.345054 48.4976203,240.444147 49.0946075,239.313279 C49.5006663,238.544938 50.0788295,237.922691 50.7053971,237.341024 C51.1087668,236.96497 51.4798669,236.545629 51.5417169,235.985606 C51.7003756,234.521971 52.5958564,233.545312 53.6849545,232.733685 C54.7740527,231.919352 55.9196226,231.17536 57.0678817,230.444895 C57.6702471,230.058019 58.2376538,229.644089 58.71363,229.11112 C59.3428867,228.410415 60.0286152,227.780051 60.7815719,227.211911 C62.3735376,226.005292 63.7638185,224.587649 64.9577928,222.980626 C65.4176342,222.361084 65.9205018,221.787533 66.4932867,221.273503 C67.154813,220.681015 67.665748,219.977604 68.1551699,219.233612 C69.1017441,217.786209 69.9488204,216.257644 71.1885099,215.021265 C71.7720514,214.439598 72.420132,214.025668 73.2483845,213.920156 C73.8615064,213.844405 74.3831979,213.565746 74.7946349,213.100413 C75.4830525,212.329366 76.2763463,211.709824 77.1745161,211.193088 C78.4034491,210.481561 79.2774168,209.375042 80.0868453,208.241469 C80.901652,207.097074 81.9423458,206.231337 83.133631,205.560392 C84.3356727,204.884036 85.3817447,204.045354 86.3121841,203.028114 C87.2022866,202.051455 88.3317217,201.407564 89.6386395,201.291231 C91.2763205,201.145138 92.5186991,200.338921 93.6293103,199.232402 C95.4417848,197.427883 97.3053528,195.666651 99.0263968,193.778264 C101.08896,191.511118 103.202618,189.276437 104.912905,186.708988 C105.437286,185.919004 105.840655,185.074911 105.988558,184.128012 C106.295119,182.169284 105.418462,180.759757 103.893724,179.682998 C101.010976,177.651224 97.7947746,176.587991 94.2962149,176.339092 C90.6712659,176.079371 87.046317,176.266046 83.4186789,176.290395 C81.2942652,176.306627 79.1698515,176.22817 77.0454378,176.16324 C75.3754873,176.111837 73.7055368,176.00903 72.0544102,175.730372 C70.6802641,175.495 69.3330093,175.18117 68.0529829,174.60762 C67.2381761,174.242388 66.520178,173.752706 65.9285692,173.076349 C64.6189622,171.572133 64.8609841,169.3618 66.4663954,168.187646 C67.4882653,167.438243 68.6203896,166.902569 69.8358769,166.602266 C73.3586388,165.733825 76.8598878,164.751755 80.4310541,164.118686 C86.739756,163.004051 93.0834167,162.638818 99.4754817,163.407159 Z M234.645857,164.000157 C237.537957,163.976995 240.38677,164.380364 243.24911,164.689615 C245.551427,164.937015 247.802341,165.431815 250.050549,165.964263 C252.047153,166.43755 254.046463,166.90008 256.040361,167.384124 C257.43095,167.722955 258.764725,168.215066 259.960523,169.021805 C261.802917,170.266873 262.068049,172.5365 260.558422,174.171491 C260.049802,174.725452 259.432965,175.126133 258.753903,175.438072 C256.73295,176.376579 254.565904,176.728855 252.371804,176.911716 C247.905147,177.280127 243.427668,177.212899 238.952895,177.151049 C236.215004,177.113401 233.482524,177.05424 230.755456,177.403827 C227.814658,177.780306 225.133582,178.815621 222.677055,180.453302 C222.533668,180.547422 222.395691,180.646919 222.263125,180.751796 C219.939165,182.569648 219.914816,184.632212 221.002397,186.783517 C221.68687,188.138839 222.67435,189.284409 223.66183,190.419222 C225.690899,192.756078 227.70103,195.111757 229.970882,197.230792 C231.266781,198.465103 232.46799,199.793534 233.880222,200.912213 C234.591749,201.47693 235.362795,201.882989 236.266407,201.960974 C238.041166,202.116943 239.458809,202.923683 240.619437,204.230601 C241.268739,204.956666 242.018142,205.550964 242.886583,206.010806 C244.52066,206.879395 245.859846,208.076058 246.933899,209.592728 C247.656248,210.619977 248.557155,211.496633 249.688022,212.09362 C250.456363,212.499679 251.078611,213.077843 251.660278,213.70441 C252.036332,214.10778 252.455673,214.47888 253.015696,214.54073 C254.479331,214.699389 255.455989,215.594869 256.267617,216.683968 C257.08195,217.773066 257.825942,218.918636 258.556407,220.066895 C258.943283,220.66926 259.357213,221.236667 259.890182,221.715332 C260.590887,222.3419 261.221251,223.027628 261.78939,223.780585 C262.99601,225.372551 264.413653,226.762832 266.020676,227.956806 C266.640218,228.419336 267.213768,228.919515 267.727799,229.4923 C268.320287,230.153826 269.023698,230.664761 269.76769,231.154183 C271.217798,232.100757 272.743658,232.947833 273.980037,234.187523 C274.561704,234.771064 274.975634,235.419145 275.081145,236.247397 C275.156897,236.860519 275.435556,237.382211 275.900889,237.793648 C276.671935,238.482066 277.291478,239.275359 277.808214,240.173529 C278.519741,241.402462 279.62626,242.27643 280.762539,243.085858 C281.904228,243.900665 282.769964,244.941359 283.44091,246.132644 C284.117266,247.334686 284.955948,248.380758 285.973188,249.311197 C286.949846,250.2013 287.593738,251.330735 287.710071,252.637653 C287.856164,254.275333 288.662381,255.517712 289.7689,256.628323 C291.573418,258.440798 293.33465,260.304366 295.223037,262.02541 C297.490184,264.087973 299.724865,266.201631 302.292314,267.911918 C303.082298,268.436299 303.926391,268.839668 304.87329,268.987571 C306.832018,269.294132 308.241544,268.417475 309.318304,266.892737 C311.350078,264.009989 312.41331,260.793788 312.662209,257.295228 C312.92193,253.670279 312.735256,250.04533 312.710907,246.417692 C312.694675,244.293278 312.773132,242.168865 312.838062,240.044451 C312.889465,238.3745 312.992271,236.70455 313.27093,235.053423 C313.506302,233.679277 313.820131,232.332022 314.393682,231.051996 C314.758914,230.237189 315.248596,229.519191 315.924952,228.927582 C317.429169,227.617975 319.639502,227.859997 320.813656,229.465408 C321.563059,230.487278 322.098733,231.619403 322.399035,232.83489 C323.267477,236.357652 324.249546,239.858901 324.882616,243.430067 C325.997251,249.738769 326.362484,256.08243 325.594143,262.474495 C325.19374,265.806328 324.382112,269.049421 323.708461,272.322093 C323.28912,274.349698 322.926593,276.38806 322.380097,278.386084 C321.895826,280.171668 321.265462,281.892712 320.299625,283.487366 C318.424766,286.587935 315.62465,288.27402 312.088659,288.86294 C309.42111,289.303957 306.823901,289.129164 304.242926,288.282087 C298.556121,286.41583 292.909899,284.447386 287.380009,282.150868 C285.139917,281.220429 283.018863,280.058724 280.884283,278.921222 C280.565043,278.751806 280.153818,278.281208 279.85081,278.652308 C279.68786,278.853373 279.880202,279.071192 280.086707,279.278106 L280.222732,279.414129 C280.266277,279.45873 280.306778,279.502488 280.340492,279.5451 C281.866352,281.486653 283.779088,283.01139 285.802746,284.393604 C287.426001,285.501526 288.984326,286.668609 290.423613,288.015863 C291.746566,289.252864 292.918015,290.592051 293.789162,292.159815 C295.033658,294.397172 296.088773,296.72327 296.499998,299.280634 C296.743486,300.794615 296.597393,302.273637 296.018432,303.704255 C295.339371,305.387651 294.108402,306.406832 292.314705,306.767176 C291.159488,306.998441 289.985334,306.950037 288.822001,306.998441 C287.220389,307.06298 285.63501,307.192058 284.068568,307.520133 C280.73819,308.216617 277.616129,307.659967 274.659099,306.022286 C273.265805,305.253195 271.791348,304.61856 270.53062,303.62627 C269.115682,302.51297 267.817078,301.284037 266.886412,299.72703 C266.312862,298.769699 265.671676,297.876908 264.81135,297.153531 C264.294614,296.717892 264.007839,296.142418 263.769762,295.521229 C263.461343,294.706422 263.190801,294.531628 262.419754,294.832811 C260.512429,295.577701 258.502298,295.822412 256.511105,296.171999 C255.696772,296.314523 254.885145,296.47587 254.076222,296.647975 C252.953471,296.887307 251.89565,297.298745 250.932518,297.936069 C249.311968,299.011721 247.583202,299.874932 245.729985,300.477298 C243.993102,301.042015 242.505118,302.026237 241.122646,303.182564 C239.537266,304.505616 237.84367,305.632362 235.852477,306.272376 C235.086842,306.519776 234.402369,306.928524 233.766594,307.415256 C232.440936,308.431748 230.966479,309.16857 229.378394,309.657992 C227.517061,310.233466 225.736891,310.972977 224.029768,311.898038 C223.380466,312.250314 222.698699,312.548808 222.019637,312.844612 C220.634459,313.446978 219.284452,314.116571 218.012902,314.939446 C217.249972,315.434246 216.443755,315.859129 215.6186,316.249053 C213.221594,317.383866 210.981501,318.790282 208.725177,320.175184 C208.046115,320.592 207.361642,321.000748 206.652821,321.36378 C205.619348,321.89085 204.761728,322.608848 204.036674,323.507018 C202.248388,325.730929 198.907188,326.599519 196.209879,325.569582 C195.024902,325.115118 193.96167,324.453592 193.014771,323.628029 C192.008353,322.754061 190.928888,322.431365 189.622168,322.8186 C188.77537,323.071379 187.890696,323.149363 187.003316,323.176255 C184.898495,323.235416 183.110209,322.517418 181.530241,321.159406 C180.556287,320.323086 179.628326,319.454497 178.803172,318.470275 C178.072707,317.596307 177.209676,316.843351 176.284421,316.181824 C174.731507,315.076591 173.519476,313.65673 172.372376,312.16964 C171.760949,311.379036 171.052128,310.679862 170.286493,310.047916 C169.047408,309.023357 167.997703,307.832072 167.083269,306.527843 C166.120137,305.153697 165.776548,303.588623 165.857711,301.929429 C165.900998,301.052772 166.033564,300.181493 166.271641,299.331728 C166.553006,298.33406 166.401502,297.43589 165.727851,296.621083 C165.14889,295.91922 164.599688,295.193155 164.134355,294.410618 C162.135046,291.041136 162.816813,287.370472 165.898293,284.923362 C166.439378,284.493101 166.915533,283.998301 167.229362,283.387869 C168.230369,281.443627 169.461338,279.633841 170.605733,277.775652 C172.199228,275.186018 173.381499,272.378565 175.034514,269.82389 C175.629708,268.901518 176.035522,267.852757 176.479211,266.838955 C177.158273,265.279259 178.121405,263.854019 178.69766,262.245919 C178.995257,261.417666 179.27121,260.584035 179.55528,259.753094 C180.09366,258.18533 180.867411,256.738578 181.890062,255.428971 C182.331046,254.861564 182.644876,254.229618 182.874837,253.554646 C183.478147,251.787887 184.454805,250.233569 185.626255,248.786817 C186.088882,248.214032 186.548805,247.635868 187.000611,247.055016 C187.869052,245.939027 188.393905,244.650933 188.861943,243.341326 C189.416556,241.78163 190.136199,240.307986 191.058749,238.93384 C191.894725,237.688772 192.430399,236.330761 192.695531,234.862495 C192.957957,233.410364 193.217678,231.960922 193.471988,230.508791 C193.645135,229.529948 193.877802,228.567239 194.229507,227.63411 C194.31067,227.421669 194.383717,227.206538 194.429709,226.986029 C194.551453,226.418623 194.472996,226.144331 193.934616,225.977605 C192.841624,225.641464 192.073283,224.912709 191.342818,224.108659 C190.934299,223.662263 190.414858,223.358391 189.903532,223.05183 C187.387487,221.562052 185.501805,219.486042 184.122038,216.936746 C183.756806,216.261774 183.418627,215.576045 183.039868,214.909141 C182.025333,213.123558 181.516713,211.192762 181.321923,209.167846 C181.246171,208.371863 181.262403,207.573191 181.43014,206.796032 C182.00369,204.149927 182.141667,201.463485 182.222829,198.771664 C182.225535,198.62914 182.233651,198.489305 182.244473,198.346781 C182.436558,195.789418 183.886666,194.092576 186.397301,193.479454 C188.07737,193.070706 189.749323,193.15138 191.386105,193.635423 C194.048244,194.426028 196.607576,195.477478 198.826025,197.177009 C200.938962,198.795866 202.729954,200.742797 204.188178,202.958642 C205.270348,204.601701 206.504022,206.115682 207.791805,207.594704 C208.484394,208.390687 209.306843,209.046835 210.129292,209.705672 C210.237509,209.791724 210.361959,209.875087 210.491819,209.920802 C210.71637,209.996098 210.843525,209.872398 210.770478,209.665335 C210.65685,209.348017 210.508052,209.036078 210.340316,208.742963 C208.543913,205.610125 207.018053,202.350898 205.735682,198.978727 C203.87976,194.100643 201.980551,189.236005 200.598079,184.199262 C199.624126,180.649609 200.056994,177.159116 201.704598,173.86493 C202.884163,171.503873 204.913232,170.011405 207.248014,168.890038 C208.87668,168.1075 210.605447,167.623457 212.366679,167.249668 C215.905376,166.4994 219.449483,165.7572 222.996296,165.031134 C226.838,164.243219 230.731107,164.033467 234.645857,164.000157 Z M205.077939,3.89730561 C205.5082,4.43839069 206.003,4.91454556 206.613433,5.22837491 C208.557675,6.2293823 210.36746,7.46035086 212.22565,8.6047458 C214.815284,10.1982414 217.622737,11.3805123 220.177411,13.0335272 C221.099783,13.6287208 222.148544,14.0345346 223.162347,14.4782243 C224.722043,15.1572861 226.147283,16.1204175 227.755383,16.6966732 L228.58513,16.9881577 L230.248208,17.554293 C231.815971,18.0926727 233.262724,18.8664243 234.572331,19.8890751 C235.139738,20.3300595 235.771683,20.6438888 236.446655,20.87385 C238.213415,21.4771598 239.767733,22.4538184 241.214485,23.6252676 C241.78727,24.0878953 242.365433,24.5478176 242.946286,24.9996237 C244.062275,25.8680652 245.350369,26.3929178 246.659976,26.8609564 C248.219672,27.4155686 249.693316,28.1352117 251.067462,29.0577618 C252.31253,29.8937382 253.670541,30.4321179 255.138807,30.6945441 C256.590938,30.9569704 258.040379,31.2166912 259.49251,31.4710012 C260.471354,31.6441485 261.434063,31.876815 262.367192,32.2285203 C262.579633,32.3096831 262.794764,32.3827296 263.015272,32.4287218 C263.582679,32.550466 263.85697,32.4720086 264.023697,31.933629 C264.359838,30.8406371 265.088592,30.0722963 265.892643,29.3418314 C266.339039,28.9333122 266.64291,28.4138705 266.949471,27.9025451 C268.43925,25.3864995 270.515259,23.500818 273.064556,22.1210511 C273.739528,21.7558186 274.425256,21.4176405 275.092161,21.0388809 C276.877744,20.0243464 278.80854,19.5157264 280.833456,19.3209358 C281.629439,19.2451839 282.428111,19.2614164 283.20527,19.4291528 C285.851375,20.002703 288.537817,20.1406797 291.229638,20.2218424 C291.372161,20.2245479 291.511996,20.2326641 291.65452,20.2434858 C294.211884,20.435571 295.908726,21.8856791 296.521848,24.3963138 C296.930596,26.076383 296.849922,27.7483359 296.365878,29.3851183 C295.575274,32.0472568 294.523823,34.6065893 292.824292,36.8250381 C291.205435,38.9379753 289.258504,40.7289669 287.04266,42.1871912 C285.399601,43.2693614 283.88562,44.5030354 282.406598,45.7908178 C281.610615,46.4834068 280.954467,47.3058561 280.29563,48.1283054 C280.209578,48.2365224 280.126215,48.360972 280.080499,48.4908324 C280.005204,48.7153827 280.128904,48.8425377 280.335967,48.7694912 C280.653284,48.6558633 280.965223,48.5070649 281.258339,48.3393286 C284.391177,46.5429261 287.650404,45.0170662 291.022574,43.7346945 C295.900659,41.8787727 300.765297,39.9795641 305.80204,38.5970917 C309.351693,37.6231386 312.842185,38.0560066 316.136371,39.7036107 C318.497429,40.8831762 319.989896,42.9122452 321.111264,45.2470273 C321.893801,46.8756934 322.377845,48.6044603 322.751634,50.3656922 C323.501902,53.9043886 324.244102,57.4484959 324.970167,60.9953086 C325.758083,64.8370126 325.967835,68.7301198 326.001144,72.6448703 C326.024307,75.5369701 325.620937,78.385783 325.311687,81.2481231 C325.064287,83.5504401 324.569487,85.801354 324.037039,88.0495625 C323.563752,90.0461665 323.101221,92.0454758 322.617178,94.0393743 C322.278347,95.429963 321.786236,96.7637377 320.979497,97.9595357 C319.734429,99.8019304 317.464802,100.067062 315.82981,98.5574348 C315.275849,98.0488148 314.875169,97.4319778 314.563229,96.752916 C313.624723,94.7319632 313.272446,92.5649175 313.092275,90.3708175 C312.721175,85.9041602 312.788403,81.4266812 312.850253,76.9519075 C312.887901,74.214017 312.947062,71.4815374 312.597475,68.7544686 C312.220996,65.8136712 311.185681,63.1325946 309.548,60.6760684 C309.45388,60.5326808 309.354382,60.3947041 309.249506,60.2621383 C307.431653,57.9381779 305.36909,57.913829 303.217785,59.0014101 C301.862463,59.6858827 300.716893,60.6733629 299.582079,61.6608432 C297.245224,63.6899123 294.889545,65.7000433 292.77051,67.9698952 C291.536198,69.265794 290.207768,70.4670029 289.089089,71.8792349 C288.524371,72.5907618 288.118313,73.361808 288.040328,74.2654201 C287.884358,76.0401792 287.077619,77.4578221 285.770701,78.6184496 C285.044636,79.2677517 284.450338,80.0171545 283.990496,80.8855961 C283.121907,82.519673 281.925243,83.8588586 280.408573,84.9329125 C279.381325,85.655261 278.504668,86.5561677 277.907681,87.6870355 C277.501622,88.4553763 276.923459,89.0776242 276.296892,89.6592906 C275.893522,90.0353448 275.522422,90.4546857 275.460572,91.0147087 C275.301913,92.4783439 274.406432,93.4550025 273.317334,94.2666301 C272.228236,95.0809631 271.082666,95.8249551 269.934407,96.55542 C269.332042,96.9422958 268.764635,97.3562259 268.28597,97.8891947 C267.659402,98.5898999 266.973674,99.220264 266.220717,99.7884033 C264.628751,100.995023 263.23847,102.412666 262.044496,104.019689 C261.584654,104.639231 261.081787,105.212781 260.509002,105.726812 C259.847476,106.3193 259.336541,107.022711 258.847119,107.766703 C257.900545,109.216811 257.053468,110.742671 255.813779,111.97905 C255.230237,112.560717 254.582157,112.974647 253.753904,113.080158 C253.140782,113.15591 252.619091,113.434569 252.207654,113.899902 C251.519236,114.670948 250.725942,115.290491 249.827773,115.807227 C248.59884,116.518754 247.724872,117.625273 246.915443,118.761552 C246.100637,119.903241 245.059943,120.768977 243.868658,121.439923 C242.666616,122.116279 241.620544,122.954961 240.690105,123.972201 C239.800002,124.948859 238.670567,125.592751 237.363649,125.709084 C235.725968,125.855177 234.48359,126.661394 233.372978,127.767913 C231.560504,129.572431 229.696936,131.333663 227.975892,133.22205 C225.913328,135.489197 223.799671,137.723878 222.089384,140.291327 C221.565003,141.081311 221.161633,141.925404 221.013731,142.872303 C220.70717,144.831031 221.583827,146.240557 223.108564,147.317317 C225.991313,149.349091 229.207514,150.412323 232.706074,150.661222 C236.331023,150.920943 239.955972,150.734269 243.58361,150.70992 C245.708023,150.693688 247.832437,150.772145 249.956851,150.837075 C251.626801,150.888478 253.296752,150.991284 254.947878,151.269943 C256.322025,151.505315 257.669279,151.819144 258.949306,152.392695 C259.764113,152.757927 260.482111,153.247609 261.07372,153.923965 C262.383326,155.428182 262.141305,157.638515 260.535893,158.812669 C259.514023,159.562072 258.381899,160.097746 257.166412,160.398048 C253.64365,161.26649 250.142401,162.248559 246.571235,162.881629 C240.262533,163.996264 233.918872,164.361497 227.526807,163.593156 C224.194973,163.192753 220.951881,162.381125 217.679208,161.707474 C215.651603,161.288133 213.613242,160.925606 211.615217,160.37911 C209.829634,159.894839 208.10859,159.264475 206.513935,158.298638 C203.413367,156.421073 201.727282,153.623663 201.138362,150.087672 C200.697344,147.420123 200.872138,144.822914 201.719214,142.241939 C203.585471,136.555134 205.553915,130.908912 207.850434,125.379022 C208.780873,123.13893 209.942578,121.017876 211.08008,118.883296 C211.249495,118.564056 211.720093,118.152831 211.348993,117.849823 C211.058567,117.614451 210.733182,118.120366 210.456202,118.339505 C208.514649,119.865365 206.989912,121.778101 205.607698,123.801759 C204.499776,125.425014 203.332693,126.983339 201.985438,128.422626 C200.748438,129.745579 199.40925,130.917028 197.841487,131.788175 C195.60413,133.032671 193.278031,134.087786 190.720667,134.499011 C189.206686,134.742499 187.727664,134.596406 186.297046,134.017445 C184.61365,133.338384 183.59447,132.107415 183.234126,130.313718 C183.002861,129.158501 183.051265,127.984347 183.002861,126.821014 C182.938322,125.219402 182.809243,123.634023 182.481169,122.067581 C181.784684,118.737203 182.341334,115.615142 183.979015,112.658112 C184.748107,111.264818 185.382742,109.790361 186.375031,108.529633 C187.488332,107.114695 188.717265,105.816091 190.274272,104.885425 C191.231602,104.311875 192.124394,103.670689 192.84777,102.810363 C193.283409,102.293627 193.858884,102.006852 194.480073,101.768775 C195.29488,101.460356 195.469673,101.189814 195.16849,100.418767 C194.423601,98.5114425 194.17889,96.5013114 193.829303,94.5101184 C193.686779,93.6957853 193.525431,92.8841577 193.353327,92.0752355 C193.113994,90.952484 192.702557,89.8946626 192.065233,88.9315312 C190.989581,87.3109814 190.126369,85.5822146 189.524004,83.7289982 C188.959286,81.9921151 187.975064,80.5041311 186.818738,79.1216587 C185.495685,77.5362794 184.368939,75.8426831 183.728926,73.85149 C183.481526,73.0858547 183.072778,72.401382 182.586045,71.7656071 C181.569554,70.4399486 180.832732,68.9654918 180.34331,67.3774071 C179.767836,65.5160744 179.028325,63.7359045 178.103263,62.0287811 C177.750987,61.379479 177.452494,60.6977118 177.156689,60.01865 C176.554324,58.6334722 175.88473,57.2834649 175.061856,56.011915 C174.567056,55.248985 174.142173,54.4427683 173.752249,53.6176135 C172.617436,51.2206066 171.21102,48.9805144 169.826117,46.7241896 C169.409302,46.0451278 169.000554,45.3606552 168.637521,44.6518338 C168.110452,43.6183613 167.392454,42.7607414 166.494284,42.0356874 C164.270372,40.2474012 163.401783,36.9062009 164.43172,34.2088917 C164.886183,33.0239154 165.54771,31.9606832 166.373273,31.0137843 C167.247241,30.0073661 167.569936,28.9279014 167.182701,27.6211809 C166.929923,26.7743827 166.851938,25.8897086 166.825047,24.9996237 C166.765886,22.8975082 167.483884,21.109222 168.841895,19.5292535 C169.678215,18.5553004 170.546805,17.6273395 171.531027,16.8021847 C172.404994,16.0717199 173.157951,15.2086892 173.819477,14.2834337 C174.92471,12.7305195 176.344572,11.5184889 177.831661,10.3713886 C178.622266,9.75996244 179.32144,9.05114099 179.953386,8.2855056 C180.977945,7.04642077 182.16923,5.99671572 183.473459,5.08228193 C184.847605,4.11915049 186.412679,3.77556147 188.071873,3.85672423 C188.94853,3.90001104 189.819808,4.03257688 190.669574,4.27065432 C191.667242,4.55201856 192.565411,4.40051473 193.380218,3.72686381 C194.082081,3.14790278 194.808147,2.59870142 195.590684,2.13336825 C198.960166,0.134058887 202.63083,0.815826086 205.077939,3.89730561 Z M130.79241,1.43073317 C131.977386,1.88519635 133.040618,2.54672264 133.987517,3.37228594 C134.993936,4.2462536 136.0734,4.56894935 137.380121,4.18171445 C138.226919,3.92893611 139.111593,3.85095131 140.001678,3.82405999 C142.103794,3.76489911 143.89208,4.48289715 145.472048,5.84090844 C146.446001,6.67722827 147.373962,7.54581766 148.199117,8.53003971 C148.929582,9.40400737 149.792613,10.1569641 150.717868,10.8184904 C152.270782,11.9237234 153.482813,13.3435847 154.629913,14.8306743 C155.241339,15.6212788 155.950161,16.320453 156.715796,16.9523988 C157.954881,17.9769578 159.004586,19.168243 159.91902,20.4724716 C160.882151,21.8466177 161.22574,23.4116921 161.144577,25.0708861 C161.101291,25.9475429 160.968725,26.8188214 160.730647,27.6685869 C160.449283,28.6689437 160.600787,29.5644245 161.274438,30.3792312 C161.853399,31.0810945 162.4026,31.8071599 162.867933,32.5896971 C164.867243,35.9591786 164.185476,39.6298428 161.103996,42.0769522 C160.562911,42.5072132 160.086756,43.0020134 159.772927,43.6124462 C158.771919,45.5566881 157.540951,47.3664734 156.396556,49.2246631 C154.80306,51.8142965 153.620789,54.6217496 151.967775,57.1764243 C151.372581,58.0987963 150.966767,59.1475575 150.523077,60.16136 C149.844016,61.7210561 148.880884,63.1462957 148.304629,64.7543962 L148.013144,65.5841426 L147.447009,67.2472209 C146.908629,68.8149844 146.134877,70.261737 145.112227,71.5713439 C144.671242,72.1387506 144.357413,72.7706965 144.127452,73.4456684 C143.524142,75.2124277 142.547483,76.7667455 141.376034,78.2134981 C140.913406,78.7862831 140.453484,79.3644463 140.001678,79.9452987 C139.133236,81.0612882 138.608384,82.349382 138.140345,83.658989 C137.585733,85.2186851 136.86609,86.692329 135.94354,88.0664751 C135.107563,89.3115429 134.571889,90.6695542 134.306758,92.1378198 C134.044331,93.5899507 133.78461,95.0393925 133.5303,96.4915233 C133.357153,97.4703671 133.124487,98.4330761 132.772781,99.3662047 C132.691619,99.578646 132.618572,99.7937765 132.57258,100.014285 C132.450836,100.581692 132.529293,100.855983 133.067673,101.02271 C134.160665,101.358851 134.929005,102.087606 135.65947,102.891656 C136.067989,103.338052 136.587431,103.641923 137.098757,103.948484 C139.614802,105.438263 141.500484,107.514272 142.880251,110.063569 C143.245483,110.738541 143.583661,111.424269 143.962421,112.091174 C144.976955,113.876757 145.485575,115.807553 145.680366,117.832469 C145.756118,118.628452 145.739885,119.427124 145.572149,120.204283 C144.998599,122.850388 144.860622,125.53683 144.779459,128.228651 C144.776754,128.371174 144.768638,128.511009 144.757816,128.653533 C144.565731,131.210897 143.115623,132.907739 140.604988,133.520861 C138.924919,133.929609 137.252966,133.848935 135.616183,133.364891 C132.954045,132.574287 130.394712,131.522836 128.176264,129.823305 C126.063326,128.204448 124.272335,126.257517 122.81411,124.041673 C121.73194,122.398614 120.498266,120.884633 119.210484,119.405611 C118.517895,118.609628 117.695446,117.95348 116.872996,117.294643 C116.764779,117.208591 116.64033,117.125228 116.510469,117.079512 C116.285919,117.004217 116.158764,117.127917 116.23181,117.33498 C116.345438,117.652297 116.494237,117.964236 116.661973,118.257352 C118.458376,121.39019 119.984236,124.649417 121.266607,128.021587 C123.122529,132.899672 125.021738,137.76431 126.40421,142.801053 C127.378163,146.350706 126.945295,149.841198 125.297691,153.135384 C124.118126,155.496442 122.089056,156.988909 119.754274,158.110277 C118.125608,158.892814 116.396841,159.376858 114.63561,159.750647 C111.096913,160.500915 107.552806,161.243115 104.005993,161.96918 C100.164289,162.757096 96.2711819,162.966848 92.3564314,163.000157 C89.4643316,163.02332 86.6155187,162.61995 83.7531786,162.3107 C81.4508616,162.0633 79.1999477,161.5685 76.9517392,161.036052 C74.9551352,160.562765 72.9558259,160.100234 70.9619274,159.616191 C69.5713387,159.27736 68.237564,158.785249 67.041766,157.97851 C65.1993713,156.733442 64.9342396,154.463815 66.4438669,152.828823 C66.9524869,152.277551 67.5693239,151.876871 68.2483857,151.562242 C70.2693385,150.623736 72.4363842,150.271459 74.6304842,150.091288 C79.0971415,149.720188 83.5746205,149.787416 88.0493941,149.849266 C90.7872846,149.886914 93.5197643,149.946075 96.2468331,149.596488 C99.1876305,149.220009 101.868707,148.184694 104.325233,146.547013 C104.468621,146.452893 104.606598,146.353395 104.739163,146.248519 C107.063124,144.430666 107.087473,142.368103 105.999892,140.216798 C105.315419,138.861476 104.327939,137.715906 103.340458,136.581092 C101.311389,134.244237 99.3012584,131.888558 97.0314065,129.769523 C95.7355077,128.535211 94.5342988,127.206781 93.1220668,126.090791 C92.4105399,125.523384 91.6394936,125.117326 90.7358816,125.039341 C88.9611225,124.883371 87.5434796,124.076632 86.3828521,122.769714 C85.73355,122.043649 84.9841472,121.449351 84.1157056,120.989509 C82.4816287,120.12092 81.1424431,118.924256 80.0683892,117.407586 C79.3460407,116.380338 78.445134,115.503681 77.3142662,114.906694 C76.5459254,114.500635 75.9236775,113.922472 75.3420111,113.295905 C74.9659569,112.892535 74.546616,112.521435 73.9865929,112.459585 C72.5229578,112.300926 71.5462992,111.405445 70.7346716,110.316347 C69.9203386,109.227249 69.1763466,108.081679 68.4458817,106.936109 C68.0590059,106.331055 67.6450758,105.763648 67.112107,105.287672 C66.4114018,104.658415 65.7810377,103.972687 65.2128984,103.21973 C64.0062787,101.627764 62.5886358,100.237483 60.9816131,99.0435089 C60.3620707,98.5836675 59.7885205,98.0807999 59.2744896,97.508015 C58.6820015,96.8464887 57.9785909,96.3355537 57.2345989,95.8461318 C55.7871963,94.8995576 54.258631,94.0524813 53.0222516,92.8127918 C52.4405851,92.2292503 52.026655,91.5811697 51.9211434,90.7529172 C51.8453915,90.1397953 51.5667327,89.6181038 51.1013995,89.2066668 C50.3303533,88.5182491 49.7108109,87.7249554 49.1940746,86.8267856 C48.4825477,85.5978526 47.3760288,84.7238849 46.2424555,83.9144564 C45.0980606,83.0996497 44.2323245,82.0589559 43.561379,80.8676707 C42.8850226,79.665629 42.0463407,78.619557 41.0291008,77.6891175 C40.0524422,76.7990151 39.408551,75.66958 39.2922177,74.3626622 C39.1461247,72.7249812 38.3399079,71.4826026 37.233389,70.3719914 C35.4288702,68.5595169 33.6676383,66.6959489 31.7792514,64.9749049 C29.5121049,62.9123413 27.2774235,60.7986841 24.7099748,59.0883966 C23.9199906,58.564016 23.0758979,58.1606463 22.128999,58.0127441 C20.170271,57.7061831 18.7607444,58.5828399 17.6839851,60.1075773 C15.6522106,62.9903261 14.5889784,66.2065271 14.3400793,69.7050868 C14.0803584,73.3300358 14.2670328,76.9549847 14.2913816,80.5826228 C14.3076142,82.7070365 14.2291568,84.8314502 14.1642266,86.9558639 C14.1128235,88.6258144 14.0100174,90.2957649 13.7313586,91.9468915 C13.4959865,93.3210376 13.1821572,94.6682923 12.608607,95.9483188 C12.2433746,96.7631256 11.7536926,97.4811237 11.0773362,98.0727325 C9.57311972,99.3823395 7.36278717,99.1403176 6.18863255,97.5349063 C5.43922972,96.5130364 4.90355549,95.3809121 4.60325327,94.1654248 C3.73481172,90.6426628 2.7527423,87.1414139 2.11967276,83.5702476 C1.00503749,77.2615457 0.639805066,70.917885 1.40814588,64.52582 C1.80854884,61.1939864 2.62017646,57.9508941 3.29382738,54.6782213 C3.71316831,52.6506164 4.07569532,50.6122549 4.62219125,48.6142303 C5.10646239,46.8286472 5.73682651,45.1076032 6.70266338,43.5129483 C8.5802286,40.41238 11.3776385,38.7262947 14.9136294,38.1373749 C17.5811789,37.6963574 20.1783873,37.8711509 22.7593631,38.7182273 C28.4461673,40.5844844 34.0923901,42.5529285 39.6222796,44.8494466 C41.8623718,45.779886 43.9834253,46.9415907 46.118006,48.0790932 C46.4372461,48.2485085 46.8484708,48.7191064 47.1514785,48.3480063 C47.3144283,48.1469421 47.122087,47.9291224 46.9155819,47.7222086 L46.779557,47.5861854 C46.7360116,47.5415852 46.6955102,47.4978271 46.6617965,47.4552147 C45.1359365,45.513662 43.2232008,43.9889246 41.1995426,42.6067111 C39.5762873,41.498789 38.0179623,40.331706 36.578676,38.9844513 C35.255723,37.7474509 34.0869792,36.4082635 33.2131268,34.8405 C31.9686311,32.6031428 30.9135152,30.2770442 30.5022906,27.7196804 C30.2588023,26.2056995 30.4048953,24.7266773 30.9838563,23.2960595 C31.6629181,21.6126633 32.8938866,20.5934826 34.6875837,20.233139 C35.8428003,20.0018737 37.0169549,20.050278 38.1802878,20.0018737 C39.7818997,19.9373345 41.367279,19.8082562 42.9337203,19.4801822 C46.2640989,18.7836972 49.3861598,19.3403474 52.3431898,20.9780283 C53.7364839,21.7471199 55.2109407,22.3817548 56.4716689,23.3740443 C57.8866064,24.4873446 59.1852106,25.7162776 60.1158769,27.2732846 C60.6894271,28.2306153 61.3306129,29.1234069 62.1909382,29.8467832 C62.7076745,30.2824225 62.9944496,30.8578966 63.232527,31.4790859 C63.5409455,32.2938927 63.811488,32.4686862 64.5825343,32.1675035 C66.4898592,31.4226142 68.4999902,31.1779032 70.4911833,30.8283161 C71.3055164,30.6857922 72.117144,30.5244443 72.9260662,30.3523399 C74.0488177,30.1130072 75.1066391,29.7015701 76.0697705,29.064246 C77.6903203,27.9885935 79.4190871,27.1253824 81.2723035,26.523017 C83.0091866,25.9582994 84.4971706,24.9740774 85.879643,23.8177509 C87.4650223,22.4946984 89.1586186,21.3679524 91.1498116,20.7279391 C91.915447,20.480539 92.5999197,20.0717911 93.2356946,19.5850583 C94.5613531,18.5685667 96.0358099,17.8317447 97.6238946,17.3423229 C99.4852273,16.7668488 101.265397,16.0273377 102.972521,15.1022765 C103.621823,14.7500003 104.30359,14.4515067 104.982652,14.1557023 C106.367829,13.5533369 107.717837,12.8837432 108.989387,12.0608691 C109.752317,11.5660689 110.558533,11.1411862 111.383688,10.7512621 C113.780695,9.61644874 116.020787,8.21003309 118.277112,6.82513048 C118.956174,6.40831514 119.640646,5.99956719 120.349468,5.63653447 C121.38294,5.10946474 122.24056,4.39146669 122.965614,3.49329685 C124.7539,1.26938529 128.095101,0.400795896 130.79241,1.43073317 Z" id="Combined-Shape" stroke="#FDFFD6" stroke-width="2"></path>
    </g>
</svg>