<?xml version="1.0" encoding="UTF-8"?>
<svg width="325px" height="325px" viewBox="0 0 325 325" version="1.1" xmlns="http://www.w3.org/2000/svg" xmlns:xlink="http://www.w3.org/1999/xlink">
    <title>Group 29</title>
    <g id="Web" stroke="none" stroke-width="1" fill="none" fill-rule="evenodd">
        <g id="Group-29" fill="#FDFFD6">
            <path d="M33.2306346,258.030262 C34.4649459,256.734363 35.7933767,255.533154 36.9120553,254.120922 C37.4767729,253.409396 37.8828317,252.638349 37.9608165,251.734737 C38.1167861,249.959978 38.9235255,248.542335 40.2304433,247.381708 C40.9565087,246.732406 41.5508068,245.983003 42.0106482,245.114561 C42.8792376,243.480484 44.075901,242.141299 45.592571,241.067245 C46.6198192,240.344896 47.496476,239.44399 48.0934631,238.313122 C48.4995219,237.544781 49.0776852,236.922533 49.7042527,236.340867 C50.1076224,235.964813 50.4787225,235.545472 50.5405726,234.985449 C50.6992313,233.521813 51.594712,232.545155 52.6838102,231.733527 C53.7729083,230.919194 54.9184783,230.175202 56.0667373,229.444737 C56.6691027,229.057862 57.2365094,228.643931 57.7124856,228.110963 C58.3417424,227.410258 59.0274708,226.779893 59.7804276,226.211754 C61.3723933,225.005134 62.7626742,223.587491 63.9566484,221.980469 C64.4164899,221.360926 64.9193574,220.787376 65.4921424,220.273345 C66.1536687,219.680857 66.6646036,218.977447 67.1540255,218.233455 C68.1005997,216.786052 68.9476761,215.257487 70.1873656,214.021107 C70.7709071,213.439441 71.4189877,213.025511 72.2472401,212.919999 C72.8603621,212.844247 73.3820535,212.565588 73.7934906,212.100255 C74.4819082,211.329209 75.2752019,210.709667 76.1733718,210.19293 C77.4023048,209.481403 78.2762724,208.374884 79.0857009,207.241311 C79.9005077,206.096916 80.9412015,205.23118 82.1324867,204.560235 C83.3345283,203.883878 84.3806004,203.045196 85.3110398,202.027956 C86.2011423,201.051298 87.3305774,200.407407 88.6374952,200.291073 C90.2751761,200.14498 91.5175548,199.338764 92.628166,198.232245 C94.4406404,196.427726 96.3042084,194.666494 98.0252524,192.778107 C100.087816,190.510961 102.201473,188.276279 103.911761,185.70883 C104.436141,184.918846 104.839511,184.074754 104.987413,183.127855 C105.293974,181.169127 104.417317,179.7596 102.89258,178.682841 C100.009831,176.651066 96.7936303,175.587834 93.2950705,175.338935 C89.6701216,175.079214 86.0451726,175.265888 82.4175346,175.290237 C80.2931209,175.30647 78.1687072,175.228012 76.0442935,175.163082 C74.374343,175.111679 72.7043924,175.008873 71.0532658,174.730214 C69.6791198,174.494842 68.331865,174.181013 67.0518385,173.607463 C66.2370318,173.24223 65.5190337,172.752548 64.9274248,172.076192 C63.6178179,170.571975 63.8598397,168.361643 65.4652511,167.187488 C66.487121,166.438085 67.6192452,165.902411 68.8347326,165.602109 C72.3574945,164.733667 75.8587434,163.751598 79.4299097,163.118528 C85.7386117,162.003893 92.0822723,161.638661 98.4743373,162.407002 C101.806171,162.807404 105.049263,163.619032 108.321936,164.292683 C110.349541,164.712024 112.387903,165.074551 114.385927,165.621047 C116.17151,166.105318 117.892554,166.735682 119.487209,167.701519 C122.587777,169.579084 124.273863,172.376494 124.862782,175.912485 C125.3038,178.580035 125.129006,181.177243 124.28193,183.758219 C122.415673,189.445023 120.447229,195.091246 118.150711,200.621135 C117.220271,202.861227 116.058567,204.982281 114.921064,207.116862 C114.751649,207.436102 114.281051,207.847326 114.652151,208.150334 C114.942577,208.385706 115.267962,207.879792 115.544943,207.660652 C117.486495,206.134792 119.011233,204.222056 120.393446,202.198398 C121.501368,200.575143 122.668451,199.016818 124.015706,197.577532 C125.252706,196.254579 126.591894,195.085835 128.159657,194.211982 C130.397015,192.967487 132.723113,191.912371 135.280477,191.501146 C136.794458,191.257658 138.27348,191.403751 139.704098,191.982712 C141.387494,192.661774 142.406675,193.892742 142.767018,195.686439 C142.998284,196.841656 142.949879,198.015811 142.998284,199.179144 C143.062823,200.780755 143.191901,202.366135 143.519975,203.932576 C144.21646,207.262955 143.65981,210.385015 142.022129,213.342045 C141.253037,214.73534 140.618403,216.209796 139.626113,217.470525 C138.512813,218.885462 137.28388,220.184066 135.726873,221.114733 C134.769542,221.688283 133.87675,222.329469 133.153374,223.189794 C132.717735,223.70653 132.142261,223.993305 131.521071,224.231383 C130.706265,224.539801 130.531471,224.810344 130.832654,225.58139 C131.577543,227.488715 131.822254,229.498846 132.171841,231.490039 C132.314365,232.304372 132.475713,233.116 132.647817,233.924922 C132.88715,235.047673 133.298587,236.105495 133.935911,237.068626 C135.011564,238.689176 135.874775,240.417943 136.47714,242.271159 C137.041858,244.008042 138.02608,245.496026 139.182406,246.878499 C140.505459,248.463878 141.632205,250.157474 142.272218,252.148667 C142.519618,252.914303 142.928366,253.598775 143.415099,254.23455 C144.431591,255.560209 145.168413,257.034666 145.657834,258.62275 C146.233309,260.484083 146.97282,262.264253 147.897881,263.971376 C148.250157,264.620678 148.548651,265.302446 148.844455,265.981507 C149.44682,267.366685 150.116414,268.716692 150.939288,269.988242 C151.434088,270.751172 151.858971,271.557389 152.248895,272.382544 C153.383709,274.779551 154.790124,277.019643 156.175027,279.275968 C156.591842,279.95503 157.00059,280.639502 157.363623,281.348324 C157.890693,282.381796 158.608691,283.239416 159.506861,283.96447 C161.730772,285.752756 162.599361,289.093957 161.569424,291.791266 C161.114961,292.978947 160.453435,294.039474 159.627871,294.986373 C158.753904,295.992791 158.431208,297.072256 158.818443,298.378976 C159.071221,299.225775 159.149206,300.110449 159.176097,301.000534 C159.235258,303.102649 158.51726,304.890935 157.159249,306.470904 C156.322929,307.444857 155.45434,308.372818 154.470118,309.197973 C153.59615,309.928437 152.843193,310.791468 152.181667,311.716724 C151.076434,313.269638 149.656573,314.481668 148.169483,315.628769 C147.378879,316.240195 146.679704,316.949016 146.047759,317.714652 C145.0232,318.953737 143.831914,320.003442 142.527686,320.917875 C141.15354,321.881007 139.588465,322.224596 137.929271,322.143433 C137.052614,322.100146 136.181336,321.96758 135.33157,321.729503 C134.333903,321.448139 133.435733,321.599643 132.620926,322.273294 C131.919063,322.852255 131.192997,323.401456 130.41046,323.866789 C127.040979,325.866098 123.370315,325.184331 120.923205,322.102852 C120.492944,321.561767 119.998144,321.085612 119.387711,320.771782 C117.443469,319.770775 115.633684,318.539807 113.775494,317.395412 C111.185861,315.801916 108.378408,314.619645 105.823733,312.96663 C104.901361,312.371437 103.8526,311.965623 102.838797,311.521933 C101.279101,310.842871 99.8538617,309.87974 98.2457612,309.303484 C97.4175088,309.005887 96.5838781,308.729934 95.7529365,308.445864 C94.185173,307.907485 92.7384204,307.133733 91.4288134,306.111082 C90.8614067,305.670098 90.2294609,305.356269 89.5544889,305.126307 C87.7877297,304.522998 86.2334118,303.546339 84.7866592,302.37489 C84.2138743,301.912262 83.635711,301.45234 83.0548587,301.000534 C81.9388692,300.132092 80.6507753,299.60724 79.3411684,299.139201 C77.7814723,298.584589 76.3078283,297.864946 74.9336823,296.942396 C73.6886145,296.106419 72.3306032,295.570745 70.8623375,295.305613 C69.4102066,295.043187 67.9607649,294.783466 66.508634,294.529156 C65.5297902,294.356009 64.5670812,294.123342 63.6339527,293.771637 C63.4215113,293.690474 63.2063808,293.617428 62.9858721,293.571436 C62.4184654,293.449691 62.144174,293.528149 61.9774478,294.066528 C61.6413064,295.15952 60.9125519,295.927861 60.1085016,296.658326 C59.6621058,297.066845 59.358234,297.586287 59.051673,298.097612 C57.5618943,300.613658 55.485885,302.499339 52.9365885,303.879106 C52.2616166,304.244339 51.5758881,304.582517 50.9089836,304.961276 C49.1234004,305.975811 47.1926041,306.484431 45.1676883,306.679222 C44.3717054,306.754973 43.5730335,306.738741 42.7958745,306.571005 C40.1497694,305.997454 37.4633272,305.859478 34.7715068,305.778315 C34.6289829,305.775609 34.4891481,305.767493 34.3466241,305.756672 C31.7892603,305.564586 30.0924184,304.114478 29.4792965,301.603844 C29.0705486,299.923774 29.1512225,298.251821 29.6352661,296.615039 C30.4258707,293.952901 31.477321,291.393568 33.176852,289.175119 C34.795709,287.062182 36.7426401,285.27119 38.9584842,283.812966 C40.6015434,282.730796 42.1155243,281.497122 43.5945465,280.20934 C44.3905294,279.516751 45.0466774,278.694301 45.7055146,277.871852 C45.7915668,277.763635 45.8749298,277.639185 45.9206451,277.509325 C45.9959407,277.284775 45.8722407,277.15762 45.6651776,277.230666 C45.3478601,277.344294 45.0359209,277.493092 44.7428056,277.660829 C41.6099676,279.457231 38.3507405,280.983091 34.9785699,282.265463 C30.1004858,284.121385 25.2358474,286.020593 20.1991045,287.403066 C16.6494512,288.377019 13.1589589,287.944151 9.86477307,286.296547 C7.50371582,285.116981 6.01124797,283.087912 4.88988023,280.75313 C4.10734303,279.124464 3.62329941,277.395697 3.24951016,275.634465 C2.49924254,272.095769 1.75704231,268.551661 1.03097687,265.004849 C0.243061409,261.163145 0.0333091702,257.270038 0,253.355287 C-0.0231625864,250.463187 0.380207103,247.614374 0.689457199,244.752034 C0.936857275,242.449717 1.43165743,240.198803 1.96410542,237.950595 C2.43739252,235.953991 2.8999231,233.954682 3.38396672,231.960783 C3.72279726,230.570194 4.21490829,229.239125 5.02164766,228.040622 C6.26671544,226.198227 8.53634223,225.933095 10.171334,227.442723 C10.7226059,227.951343 11.1232865,228.56818 11.4379149,229.247241 C12.3764217,231.268194 12.7286979,233.43524 12.9088697,235.62934 C13.2799698,240.095997 13.2127415,244.573476 13.1508915,249.04825 C13.1132436,251.78614 13.0540827,254.51862 13.4036698,257.245689 C13.7801482,260.186486 14.8154637,262.867563 16.4531447,265.324089 C16.5472643,265.467477 16.6467621,265.605453 16.7516382,265.738019 C18.569491,268.061979 20.6320547,268.086328 22.7833597,266.998747 C24.1386818,266.314275 25.2842517,265.326794 26.4190651,264.339314 C28.7559202,262.310245 31.1115992,260.300114 33.2306346,258.030262" id="Fill-101"></path>
            <path d="M232.879078,199.912055 C233.590604,200.476773 234.361651,200.882832 235.265263,200.960817 C237.040022,201.116786 238.457665,201.923526 239.618292,203.230443 C240.267594,203.956509 241.016997,204.550807 241.885439,205.010648 C243.519516,205.879238 244.858701,207.075901 245.932755,208.592571 C246.655104,209.619819 247.55601,210.496476 248.686878,211.093463 C249.455219,211.499522 250.077467,212.077685 250.659133,212.704253 C251.035187,213.107622 251.454528,213.478723 252.014551,213.540573 C253.478187,213.699231 254.454845,214.594712 255.266473,215.68381 C256.080806,216.772908 256.824798,217.918478 257.555263,219.066737 C257.942138,219.669103 258.356069,220.236509 258.889037,220.715175 C259.589742,221.341742 260.220107,222.027471 260.788246,222.780428 C261.994866,224.372393 263.412509,225.762674 265.019531,226.956648 C265.639074,227.419179 266.212624,227.919357 266.726655,228.492142 C267.319143,229.153669 268.022553,229.664604 268.766545,230.154026 C270.216653,231.1006 271.742513,231.947676 272.978893,233.187366 C273.560559,233.770907 273.974489,234.418988 274.080001,235.24724 C274.155753,235.860362 274.434412,236.382054 274.899745,236.793491 C275.670791,237.481908 276.290333,238.275202 276.80707,239.173372 C277.518597,240.402305 278.625116,241.276272 279.761394,242.085701 C280.903084,242.900508 281.76882,243.941202 282.439765,245.132487 C283.116122,246.334528 283.954804,247.3806 284.972044,248.31104 C285.948702,249.201142 286.592593,250.330577 286.708927,251.637495 C286.85502,253.275176 287.661236,254.517555 288.767755,255.628166 C290.572274,257.44064 292.333506,259.304208 294.221893,261.025252 C296.489039,263.087816 298.723721,265.201473 301.29117,266.911761 C302.081154,267.436141 302.925246,267.839511 303.872145,267.987413 C305.830873,268.293974 307.2404,267.417317 308.317159,265.89258 C310.348934,263.009831 311.412166,259.79363 311.661065,256.295071 C311.920786,252.670122 311.734112,249.045173 311.709763,245.417535 C311.69353,243.293121 311.771988,241.168707 311.836918,239.044293 C311.888321,237.374343 311.991127,235.704392 312.269786,234.053266 C312.505158,232.67912 312.818987,231.331865 313.392537,230.051839 C313.75777,229.237032 314.247452,228.519034 314.923808,227.927425 C316.428025,226.617818 318.638357,226.85984 319.812512,228.465251 C320.561915,229.487121 321.097589,230.619245 321.397891,231.834733 C322.266333,235.357495 323.248402,238.858743 323.881472,242.42991 C324.996107,248.738612 325.361339,255.082272 324.592998,261.474337 C324.192596,264.806171 323.380968,268.049263 322.707317,271.321936 C322.287976,273.349541 321.925449,275.387903 321.378953,277.385927 C320.894682,279.17151 320.264318,280.892554 319.298481,282.487209 C317.423621,285.587777 314.623506,287.273863 311.087515,287.862782 C308.419965,288.3038 305.822757,288.129006 303.241781,287.28193 C297.554977,285.415673 291.908754,283.447229 286.378865,281.150711 C284.138773,280.220271 282.017719,279.058567 279.883138,277.921064 C279.563898,277.751649 279.152674,277.281051 278.849666,277.652151 C278.614294,277.942577 279.120208,278.267962 279.339348,278.544943 C280.865208,280.486495 282.777944,282.011233 284.801602,283.393446 C286.424857,284.501368 287.983182,285.668451 289.422468,287.015706 C290.745421,288.252706 291.916871,289.591894 292.788018,291.159657 C294.032513,293.397015 295.087629,295.723113 295.498854,298.280477 C295.742342,299.794458 295.596249,301.27348 295.017288,302.704098 C294.338226,304.387494 293.107258,305.406675 291.313561,305.767018 C290.158344,305.998284 288.984189,305.949879 287.820856,305.998284 C286.219245,306.062823 284.633865,306.191901 283.067424,306.519975 C279.737045,307.21646 276.614985,306.65981 273.657955,305.022129 C272.26466,304.253037 270.790204,303.618403 269.529475,302.626113 C268.114538,301.512813 266.815934,300.28388 265.885267,298.726873 C265.311717,297.769542 264.670531,296.87675 263.810206,296.153374 C263.29347,295.717735 263.006695,295.142261 262.768617,294.521071 C262.460199,293.706265 262.189656,293.531471 261.41861,293.832654 C259.511285,294.577543 257.501154,294.822254 255.509961,295.171841 C254.695628,295.314365 253.884,295.475713 253.075078,295.647817 C251.952327,295.88715 250.894505,296.298587 249.931374,296.935911 C248.310824,298.011564 246.582057,298.874775 244.728841,299.47714 C242.991958,300.041858 241.503974,301.02608 240.121501,302.182406 C238.536122,303.505459 236.842526,304.632205 234.851333,305.272218 C234.085697,305.519618 233.401225,305.928366 232.76545,306.415099 C231.439791,307.431591 229.965334,308.168413 228.37725,308.657834 C226.515917,309.233309 224.735747,309.97282 223.028624,310.897881 C222.379322,311.250157 221.697554,311.548651 221.018493,311.844455 C219.633315,312.44682 218.283308,313.116414 217.011758,313.939288 C216.248828,314.434088 215.442611,314.858971 214.617456,315.248895 C212.220449,316.383709 209.980357,317.790124 207.724032,319.175027 C207.04497,319.591842 206.360498,320.00059 205.651676,320.363623 C204.618204,320.890693 203.760584,321.608691 203.03553,322.506861 C201.247244,324.730772 197.906043,325.599361 195.208734,324.569424 C194.023758,324.114961 192.960526,323.453435 192.013627,322.627871 C191.007209,321.753904 189.927744,321.431208 188.621024,321.818443 C187.774225,322.071221 186.889551,322.149206 186.002172,322.176097 C183.897351,322.235258 182.109065,321.51726 180.529096,320.159249 C179.555143,319.322929 178.627182,318.45434 177.802027,317.470118 C177.071563,316.59615 176.208532,315.843193 175.283276,315.181667 C173.730362,314.076434 172.518332,312.656573 171.371231,311.169483 C170.759805,310.378879 170.050984,309.679704 169.285348,309.047759 C168.046263,308.0232 166.996558,306.831914 166.082125,305.527686 C165.118993,304.15354 164.775404,302.588465 164.856567,300.929271 C164.899854,300.052614 165.03242,299.181336 165.270497,298.33157 C165.551861,297.333903 165.400357,296.435733 164.726706,295.620926 C164.147745,294.919063 163.598544,294.192997 163.133211,293.41046 C161.133902,290.040979 161.815669,286.370315 164.897148,283.923205 C165.438233,283.492944 165.914388,282.998144 166.228218,282.387711 C167.229225,280.443469 168.460193,278.633684 169.604588,276.775494 C171.198084,274.185861 172.380355,271.378408 174.03337,268.823733 C174.628563,267.901361 175.034377,266.8526 175.478067,265.838797 C176.157129,264.279101 177.12026,262.853862 177.696516,261.245761 C177.994113,260.417509 178.270066,259.583878 178.554136,258.752937 C179.092515,257.185173 179.866267,255.73842 180.888918,254.428813 C181.329902,253.861407 181.643731,253.229461 181.873693,252.554489 C182.477002,250.78773 183.453661,249.233412 184.62511,247.786659 C185.087738,247.213874 185.54766,246.635711 185.999466,246.054859 C186.867908,244.938869 187.39276,243.650775 187.860799,242.341168 C188.415411,240.781472 189.135054,239.307828 190.057604,237.933682 C190.893581,236.688614 191.429255,235.330603 191.694387,233.862338 C191.956813,232.410207 192.216534,230.960765 192.470844,229.508634 C192.643991,228.52979 192.876658,227.567081 193.228363,226.633953 C193.309526,226.421511 193.382572,226.206381 193.428564,225.985872 C193.550309,225.418465 193.471851,225.144174 192.933472,224.977448 C191.84048,224.641306 191.072139,223.912552 190.341674,223.108502 C189.933155,222.662106 189.413713,222.358234 188.902388,222.051673 C186.386342,220.561894 184.500661,218.485885 183.120894,215.936589 C182.755661,215.261617 182.417483,214.575888 182.038724,213.908984 C181.024189,212.1234 180.515569,210.192604 180.320778,208.167688 C180.245027,207.371705 180.261259,206.573033 180.428995,205.795875 C181.002546,203.149769 181.140522,200.463327 181.221685,197.771507 C181.224391,197.628983 181.232507,197.489148 181.243328,197.346624 C181.435414,194.78926 182.885522,193.092418 185.396156,192.479297 C187.076226,192.070549 188.748179,192.151222 190.384961,192.635266 C193.047099,193.425871 195.606432,194.477321 197.824881,196.176852 C199.937818,197.795709 201.72881,199.74264 203.187034,201.958484 C204.269204,203.601543 205.502878,205.115524 206.79066,206.594547 C207.483249,207.390529 208.305699,208.046677 209.128148,208.705515 C209.236365,208.791567 209.360815,208.87493 209.490675,208.920645 C209.715225,208.995941 209.84238,208.872241 209.769334,208.665178 C209.655706,208.34786 209.506908,208.035921 209.339171,207.742806 C207.542769,204.609968 206.016909,201.350741 204.734537,197.97857 C202.878615,193.100486 200.979407,188.235847 199.596934,183.199105 C198.622981,179.649451 199.055849,176.158959 200.703453,172.864773 C201.883019,170.503716 203.912088,169.011248 206.24687,167.88988 C207.875536,167.107343 209.604303,166.623299 211.365535,166.24951 C214.904231,165.499243 218.448339,164.757042 221.995151,164.030977 C225.836855,163.243061 229.729962,163.033309 233.644713,163.00104 C236.536813,162.976837 239.385626,163.380207 242.247966,163.689457 C244.550283,163.936857 246.801197,164.431657 249.049405,164.964105 C251.046009,165.437393 253.045318,165.899923 255.039217,166.383967 C256.429806,166.722797 257.76358,167.214908 258.959378,168.021648 C260.801773,169.266715 261.066905,171.536342 259.557277,173.171334 C259.048657,173.725295 258.43182,174.125976 257.752759,174.437915 C255.731806,175.376422 253.56476,175.728698 251.37066,175.911559 C246.904003,176.27997 242.426524,176.212741 237.95175,176.150891 C235.21386,176.113244 232.48138,176.054083 229.754311,176.40367 C226.813514,176.780148 224.132437,177.815464 221.675911,179.453145 C221.532523,179.547264 221.394547,179.646762 221.261981,179.751638 C218.938021,181.569491 218.913672,183.632055 220.001253,185.78336 C220.685725,187.138682 221.673206,188.284252 222.660686,189.419065 C224.689755,191.75592 226.699886,194.111599 228.969738,196.230635 C230.265637,197.464946 231.466846,198.793377 232.879078,199.912055 Z" id="Fill-103"></path>
            <path d="M291.769365,66.9697379 C290.535054,68.2656366 289.206623,69.4668455 288.087945,70.8790776 C287.523227,71.5906045 287.117168,72.3616507 287.039183,73.2652628 C286.883214,75.0400218 286.076474,76.4576647 284.769557,77.6182922 C284.043491,78.2675943 283.449193,79.0169972 282.989352,79.8854387 C282.120762,81.5195157 280.924099,82.8587012 279.407429,83.9327551 C278.380181,84.6551037 277.503524,85.5560103 276.906537,86.6868782 C276.500478,87.455219 275.922315,88.0774668 275.295747,88.6591333 C274.892378,89.0351874 274.521277,89.4545283 274.459427,90.0145514 C274.300769,91.4781865 273.405288,92.4548451 272.31619,93.2664727 C271.227092,94.0808058 270.081522,94.8247977 268.933263,95.5552626 C268.330897,95.9421384 267.763491,96.3560685 267.284825,96.8890373 C266.658258,97.5897425 265.972529,98.2201066 265.219572,98.7882459 C263.627607,99.9948657 262.237326,101.412509 261.043352,103.019531 C260.58351,103.639074 260.080643,104.212624 259.507858,104.726655 C258.846331,105.319143 258.335396,106.022553 257.845974,106.766545 C256.8994,108.216653 256.052324,109.742513 254.812634,110.978893 C254.229093,111.560559 253.581012,111.974489 252.75276,112.080001 C252.139638,112.155753 251.617946,112.434412 251.206509,112.899745 C250.518092,113.670791 249.724798,114.290333 248.826628,114.80707 C247.597695,115.518597 246.723728,116.625116 245.914299,117.761394 C245.099492,118.903084 244.058798,119.76882 242.867513,120.439765 C241.665472,121.116122 240.6194,121.954804 239.68896,122.972044 C238.798858,123.948702 237.669423,124.592593 236.362505,124.708927 C234.724824,124.85502 233.482445,125.661236 232.371834,126.767755 C230.55936,128.572274 228.695792,130.333506 226.974748,132.221893 C224.912184,134.489039 222.798527,136.723721 221.088239,139.29117 C220.563859,140.081154 220.160489,140.925246 220.012587,141.872145 C219.706026,143.830873 220.582683,145.2404 222.10742,146.317159 C224.990169,148.348934 228.20637,149.412166 231.704929,149.661065 C235.329878,149.920786 238.954827,149.734112 242.582465,149.709763 C244.706879,149.69353 246.831293,149.771988 248.955707,149.836918 C250.625657,149.888321 252.295608,149.991127 253.946734,150.269786 C255.32088,150.505158 256.668135,150.818987 257.948161,151.392537 C258.762968,151.75777 259.480966,152.247452 260.072575,152.923808 C261.382182,154.428025 261.14016,156.638357 259.534749,157.812512 C258.512879,158.561915 257.380755,159.097589 256.165267,159.397891 C252.642505,160.266333 249.141257,161.248402 245.57009,161.881472 C239.261388,162.996107 232.917728,163.361339 226.525663,162.592998 C223.193829,162.192596 219.950737,161.380968 216.678064,160.707317 C214.650459,160.287976 212.612097,159.925449 210.614073,159.378953 C208.82849,158.894682 207.107446,158.264318 205.512791,157.298481 C202.412223,155.420916 200.726137,152.623506 200.137218,149.087515 C199.6962,146.419965 199.870994,143.822757 200.71807,141.241781 C202.584327,135.554977 204.552771,129.908754 206.849289,124.378865 C207.779729,122.138773 208.941433,120.017719 210.078936,117.883138 C210.248351,117.563898 210.718949,117.152674 210.347849,116.849666 C210.057423,116.614294 209.732038,117.120208 209.455057,117.339348 C207.513505,118.865208 205.988767,120.777944 204.606554,122.801602 C203.498632,124.424857 202.331549,125.983182 200.984294,127.422468 C199.747294,128.745421 198.408106,129.916871 196.840343,130.788018 C194.602985,132.032513 192.276887,133.087629 189.719523,133.498854 C188.205542,133.742342 186.72652,133.596249 185.295902,133.017288 C183.612506,132.338226 182.593325,131.107258 182.232982,129.313561 C182.001716,128.158344 182.050121,126.984189 182.001716,125.820856 C181.937177,124.219245 181.808099,122.633865 181.480025,121.067424 C180.78354,117.737045 181.34019,114.614985 182.977871,111.657955 C183.746963,110.26466 184.381597,108.790204 185.373887,107.529475 C186.487187,106.114538 187.71612,104.815934 189.273127,103.885267 C190.230458,103.311717 191.12325,102.670531 191.846626,101.810206 C192.282265,101.29347 192.857739,101.006695 193.478929,100.768617 C194.293735,100.460199 194.468529,100.189656 194.167346,99.4186101 C193.422457,97.5112852 193.177746,95.5011541 192.828159,93.509961 C192.685635,92.695628 192.524287,91.8840003 192.352183,91.0750781 C192.11285,89.9523266 191.701413,88.8945053 191.064089,87.9313738 C189.988436,86.310824 189.125225,84.5820572 188.52286,82.7288408 C187.958142,80.9919577 186.97392,79.5039737 185.817594,78.1215014 C184.494541,76.5361221 183.367795,74.8425258 182.727782,72.8513327 C182.480382,72.0856973 182.071634,71.4012247 181.584901,70.7654497 C180.568409,69.4397913 179.831587,67.9653344 179.342166,66.3772497 C178.766691,64.515917 178.02718,62.7357471 177.102119,61.0286237 C176.749843,60.3793216 176.451349,59.6975544 176.155545,59.0184926 C175.55318,57.6333148 174.883586,56.2833076 174.060712,55.0117576 C173.565912,54.2488277 173.141029,53.4426109 172.751105,52.6174562 C171.616291,50.2204493 170.209876,47.980357 168.824973,45.7240323 C168.408158,45.0449705 167.99941,44.3604979 167.636377,43.6516764 C167.109307,42.6182039 166.391309,41.7605841 165.493139,41.03553 C163.269228,39.2472439 162.400639,35.9060435 163.430576,33.2087344 C163.885039,32.0237581 164.546565,30.9605259 165.372129,30.013627 C166.246096,29.0072087 166.568792,27.927744 166.181557,26.6210235 C165.928779,25.7742254 165.850794,24.8895513 165.823903,23.9994663 C165.764742,21.8973508 166.48274,20.1090646 167.840751,18.5290962 C168.677071,17.555143 169.54566,16.6271821 170.529882,15.8020274 C171.40385,15.0715625 172.156807,14.2085318 172.818333,13.2832763 C173.923566,11.7303622 175.343427,10.5183316 176.830517,9.37123122 C177.621121,8.75980508 178.320296,8.05098363 178.952241,7.28534824 C179.9768,6.04626341 181.168086,4.99655836 182.472314,4.08212458 C183.84646,3.11899314 185.411535,2.77540411 187.070729,2.85656687 C187.947386,2.89985368 188.818664,3.03241952 189.66843,3.27049696 C190.666097,3.5518612 191.564267,3.40035738 192.379074,2.72670645 C193.080937,2.14774542 193.807003,1.59854406 194.58954,1.1332109 C197.959021,-0.86609847 201.629685,-0.184331271 204.076795,2.89714825 C204.507056,3.43823333 205.001856,3.9143882 205.612289,4.22821755 C207.556531,5.22922494 209.366316,6.4601935 211.224506,7.60458844 C213.814139,9.198084 216.621592,10.3803549 219.176267,12.0333698 C220.098639,12.6285634 221.1474,13.0343772 222.161203,13.478067 C223.720899,14.1571287 225.146138,15.1202602 226.754239,15.6965158 C227.582491,15.9941126 228.416122,16.270066 229.247063,16.5541356 C230.814827,17.0925153 232.26158,17.866267 233.571187,18.8889178 C234.138593,19.3299021 234.770539,19.6437314 235.445511,19.8736926 C237.21227,20.4770025 238.766588,21.453661 240.213341,22.6251102 C240.786126,23.087738 241.364289,23.5476603 241.945141,23.9994663 C243.061131,24.8679079 244.349225,25.3927604 245.658832,25.860799 C247.218528,26.4154112 248.692172,27.1350544 250.066318,28.0576044 C251.311386,28.8935809 252.669397,29.4319605 254.137662,29.6943868 C255.589793,29.9568131 257.039235,30.2165339 258.491366,30.4708439 C259.47021,30.6439911 260.432919,30.8766577 261.366047,31.228363 C261.578489,31.3095258 261.793619,31.3825722 262.014128,31.4285645 C262.581535,31.5503086 262.855826,31.4718513 263.022552,30.9334716 C263.358694,29.8404798 264.087448,29.0721389 264.891498,28.3416741 C265.337894,27.9331549 265.641766,27.4137132 265.948327,26.9023878 C267.438106,24.3863422 269.514115,22.5006607 272.063411,21.1208937 C272.738383,20.7556613 273.424112,20.4174831 274.091016,20.0387236 C275.8766,19.024189 277.807396,18.5155691 279.832312,18.3207784 C280.628295,18.2450265 281.426967,18.2612591 282.204125,18.4289954 C284.850231,19.0025456 287.536673,19.1405223 290.228493,19.2216851 C290.371017,19.2243905 290.510852,19.2325068 290.653376,19.2433285 C293.21074,19.4354137 294.907582,20.8855217 295.520703,23.3961565 C295.929451,25.0762256 295.848778,26.7481785 295.364734,28.3849609 C294.574129,31.0470995 293.522679,33.6064319 291.823148,35.8248807 C290.204291,37.937818 288.25736,39.7288096 286.041516,41.1870339 C284.398457,42.269204 282.884476,43.502878 281.405453,44.7906605 C280.609471,45.4832494 279.953323,46.3056987 279.294485,47.128148 C279.208433,47.236365 279.12507,47.3608146 279.079355,47.490675 C279.004059,47.7152253 279.127759,47.8423803 279.334822,47.7693339 C279.65214,47.655706 279.964079,47.5069076 280.257194,47.3391712 C283.390032,45.5427688 286.649259,44.0169088 290.02143,42.7345372 C294.899514,40.8786154 299.764153,38.9794067 304.800895,37.5969344 C308.350549,36.6229812 311.841041,37.0558493 315.135227,38.7034534 C317.496284,39.8830188 318.988752,41.9120879 320.11012,44.24687 C320.892657,45.8755361 321.376701,47.6043029 321.75049,49.3655348 C322.500757,52.9042313 323.242958,56.4483385 323.969023,59.9951512 C324.756939,63.8368553 324.966691,67.7299624 325,71.644713 C325.023163,74.5368127 324.619793,77.3856256 324.310543,80.2479657 C324.063143,82.5502827 323.568343,84.8011967 323.035895,87.0494052 C322.562607,89.0460091 322.100077,91.0453185 321.616033,93.039217 C321.277203,94.4298056 320.785092,95.7635804 319.978352,96.9593784 C318.733285,98.8017731 316.463658,99.0669048 314.828666,97.5572774 C314.274705,97.0486574 313.874024,96.4318204 313.562085,95.7527587 C312.623578,93.7318059 312.271302,91.5647601 312.09113,89.3706601 C311.72003,84.9040028 311.787259,80.4265238 311.849109,75.9517502 C311.886756,73.2138597 311.945917,70.48138 311.59633,67.7543112 C311.219852,64.8135138 310.184536,62.1324373 308.546855,59.675911 C308.452736,59.5325235 308.353238,59.3945468 308.248362,59.2619809 C306.430509,56.9380205 304.367945,56.9136717 302.21664,58.0012527 C300.861318,58.6857253 299.715748,59.6732056 298.580935,60.6606859 C296.24408,62.6897549 293.888401,64.699886 291.769365,66.9697379" id="Fill-162"></path>
            <path d="M96.0302621,128.769365 C94.7343634,127.535054 93.5331545,126.206623 92.1209224,125.090634 C91.4093955,124.523227 90.6383493,124.117168 89.7347372,124.039183 C87.9599782,123.883214 86.5423353,123.076474 85.3817078,121.769557 C84.7324057,121.043491 83.9830028,120.449193 83.1145613,119.989352 C81.4804843,119.120762 80.1412988,117.924099 79.0672449,116.407429 C78.3448963,115.380181 77.4439897,114.503524 76.3131218,113.906537 C75.544781,113.500478 74.9225332,112.922315 74.3408667,112.295747 C73.9648126,111.892378 73.5454717,111.521277 72.9854486,111.459427 C71.5218135,111.300769 70.5451549,110.405288 69.7335273,109.31619 C68.9191942,108.227092 68.1752023,107.081522 67.4447374,105.935952 C67.0578616,105.330897 66.6439315,104.763491 66.1109627,104.287514 C65.4102575,103.658258 64.7798934,102.972529 64.2117541,102.219572 C63.0051343,100.627607 61.5874914,99.2373258 59.9804687,98.0433516 C59.3609263,97.5835101 58.7873761,97.0806426 58.2733453,96.5078576 C57.6808571,95.8463313 56.9774465,95.3353964 56.2334546,94.8459745 C54.786052,93.8994003 53.2574866,93.0523239 52.0211072,91.8126344 C51.4394408,91.2290929 51.0255107,90.5810123 50.9199991,89.7527599 C50.8442472,89.1396379 50.5655884,88.6179465 50.1002552,88.2065094 C49.329209,87.5180918 48.7096665,86.7247981 48.1929303,85.8266282 C47.4814034,84.5976952 46.3748844,83.7237276 45.2413112,82.9142991 C44.0969162,82.0994923 43.2311801,81.0587985 42.5602346,79.8675133 C41.8838783,78.6654717 41.0451964,77.6193996 40.0279564,76.6889602 C39.0512979,75.7988577 38.4074066,74.6694226 38.2910733,73.3625048 C38.1449804,71.7248239 37.3387636,70.4824452 36.2322446,69.371834 C34.4277259,67.5593596 32.6664939,65.6957916 30.778107,63.9747476 C28.5109605,61.9121839 26.2762792,59.7985267 23.7088305,58.0882392 C22.9188463,57.5638586 22.0747535,57.160489 21.1278546,57.0125867 C19.1691267,56.7060258 17.7596,57.5826826 16.6828407,59.10742 C14.6510662,61.9901687 13.5878341,65.2063697 13.3389349,68.7049295 C13.0792141,72.3298784 13.2658884,75.9548274 13.2902373,79.5824654 C13.3064698,81.7068791 13.2280125,83.8312928 13.1630823,85.9557065 C13.1116792,87.625657 13.008873,89.2956076 12.7302142,90.9467342 C12.4948422,92.3208802 12.1810129,93.668135 11.6074627,94.9481615 C11.2422302,95.7629682 10.7525483,96.4809663 10.0761919,97.0725752 C8.57197538,98.3821821 6.36164283,98.1401603 5.18748821,96.5347489 C4.43808538,95.512879 3.90241115,94.3807548 3.60210893,93.1652674 C2.73366738,89.6425055 1.75159796,86.1412566 1.11852842,82.5700903 C0.00389315697,76.2613883 -0.361339271,69.9177277 0.407001541,63.5256627 C0.807404499,60.193829 1.61903212,56.9507367 2.29268304,53.678064 C2.71202398,51.650459 3.07455098,49.6120975 3.62104691,47.614073 C4.10531806,45.8284898 4.73568217,44.1074458 5.70151904,42.512791 C7.57908426,39.4122226 10.3764941,37.7261373 13.9124851,37.1372176 C16.5800346,36.6962 19.1772429,36.8709936 21.7582188,37.7180699 C27.4450229,39.584327 33.0912457,41.5527711 38.6211352,43.8492892 C40.8612275,44.7797286 42.982281,45.9414333 45.1168616,47.0789358 C45.4361018,47.2483511 45.8473265,47.7189491 46.1503341,47.347849 C46.3857061,47.0574228 45.8797916,46.7320379 45.6606521,46.4550574 C44.1347922,44.5135046 42.2220564,42.9887672 40.1983982,41.6065537 C38.575143,40.4986316 37.016818,39.3315487 35.5775317,37.9842939 C34.2545787,36.7472935 33.0858349,35.4081062 32.2119825,33.8403426 C30.9674868,31.6029854 29.9123709,29.2768869 29.5011462,26.719523 C29.257658,25.2055421 29.4037509,23.72652 29.982712,22.2959021 C30.6617737,20.6125059 31.8927423,19.5933252 33.6864393,19.2329816 C34.841656,19.0017163 36.0158106,19.0501207 37.1791435,19.0017163 C38.7807553,18.9371772 40.3661346,18.8080989 41.9325759,18.4800249 C45.2629546,17.7835399 48.3850155,18.34019 51.3420454,19.977871 C52.7353395,20.7469625 54.2097964,21.3815975 55.4705246,22.3738869 C56.8854621,23.4871873 58.1840663,24.7161203 59.1147326,26.2731273 C59.6882828,27.230458 60.3294686,28.1232496 61.1897939,28.8466259 C61.7065301,29.2822651 61.9933052,29.8577392 62.2313827,30.4789286 C62.5398012,31.2937353 62.8103437,31.4685289 63.5813899,31.1673462 C65.4887148,30.4224568 67.4988459,30.1777459 69.490039,29.8281588 C70.304372,29.6856348 71.1159997,29.524287 71.9249219,29.3521826 C73.0476734,29.1128499 74.1054947,28.7014128 75.0686262,28.0640887 C76.689176,26.9884362 78.4179428,26.125225 80.2711592,25.5228596 C82.0080423,24.9581421 83.4960263,23.97392 84.8784986,22.8175936 C86.4638779,21.494541 88.1574742,20.367795 90.1486673,19.7277818 C90.9143027,19.4803817 91.5987753,19.0716337 92.2345503,18.584901 C93.5602087,17.5684094 95.0346656,16.8315874 96.6227503,16.3421655 C98.484083,15.7666914 100.264253,15.0271803 101.971376,14.1021192 C102.620678,13.749843 103.302446,13.4513494 103.981507,13.155545 C105.366685,12.5531796 106.716692,11.8835859 107.988242,11.0607117 C108.751172,10.5659115 109.557389,10.1410288 110.382544,9.75110477 C112.779551,8.61629138 115.019643,7.20987573 117.275968,5.82497313 C117.95503,5.40815778 118.639502,4.99940983 119.348324,4.63637711 C120.381796,4.10930738 121.239416,3.39130933 121.96447,2.49313949 C123.752756,0.269227937 127.093957,-0.599361461 129.791266,0.430575813 C130.976242,0.885038996 132.039474,1.54656529 132.986373,2.37212859 C133.992791,3.24609625 135.072256,3.568792 136.378976,3.1815571 C137.225775,2.92877876 138.110449,2.85079395 139.000534,2.82390264 C141.102649,2.76474175 142.890935,3.4827398 144.470904,4.84075109 C145.444857,5.67707091 146.372818,6.54566031 147.197973,7.52988235 C147.928437,8.40385001 148.791468,9.15680676 149.716724,9.81833305 C151.269638,10.923566 152.481668,12.3434273 153.628769,13.8305169 C154.240195,14.6211215 154.949016,15.3202956 155.714652,15.9522415 C156.953737,16.9768005 158.003442,18.1680856 158.917875,19.4723143 C159.881007,20.8464604 160.224596,22.4115348 160.143433,24.0707288 C160.100146,24.9473855 159.96758,25.8186641 159.729503,26.6684296 C159.448139,27.6687864 159.599643,28.5642671 160.273294,29.3790739 C160.852255,30.0809371 161.401456,30.8070026 161.866789,31.5895398 C163.866098,34.9590212 163.184331,38.6296854 160.102852,41.0767949 C159.561767,41.5070559 159.085612,42.001856 158.771782,42.6122888 C157.770775,44.5565307 156.539807,46.3663161 155.395412,48.2245058 C153.801916,50.8141392 152.619645,53.6215922 150.96663,56.1762669 C150.371437,57.0986389 149.965623,58.1474001 149.521933,59.1612026 C148.842871,60.7208987 147.87974,62.1461383 147.303484,63.7542388 C147.005887,64.5824912 146.729934,65.4161219 146.445864,66.2470635 C145.907485,67.814827 145.133733,69.2615796 144.111082,70.5711866 C143.670098,71.1385933 143.356269,71.7705391 143.126307,72.4455111 C142.522998,74.2122703 141.546339,75.7665882 140.37489,77.2133408 C139.912262,77.7861257 139.45234,78.364289 139.000534,78.9451413 C138.132092,80.0611308 137.60724,81.3492247 137.139201,82.6588316 C136.584589,84.2185277 135.864946,85.6921717 134.942396,87.0663177 C134.106419,88.3113855 133.570745,89.6693968 133.305613,91.1376625 C133.043187,92.5897934 132.783466,94.0392351 132.529156,95.491366 C132.356009,96.4702098 132.123342,97.4329188 131.771637,98.3660473 C131.690474,98.5784887 131.617428,98.7936192 131.571436,99.0141279 C131.449691,99.5815346 131.528149,99.855826 132.066528,100.022552 C133.15952,100.358694 133.927861,101.087448 134.658326,101.891498 C135.066845,102.337894 135.586287,102.641766 136.097612,102.948327 C138.613658,104.438106 140.499339,106.514115 141.879106,109.063411 C142.244339,109.738383 142.582517,110.424112 142.961276,111.091016 C143.975811,112.8766 144.484431,114.807396 144.679222,116.832312 C144.754973,117.628295 144.738741,118.426967 144.571005,119.204125 C143.997454,121.850231 143.859478,124.536673 143.778315,127.228493 C143.775609,127.371017 143.767493,127.510852 143.756672,127.653376 C143.564586,130.21074 142.114478,131.907582 139.603844,132.520703 C137.923774,132.929451 136.251821,132.848778 134.615039,132.364734 C131.952901,131.574129 129.393568,130.522679 127.175119,128.823148 C125.062182,127.204291 123.27119,125.25736 121.812966,123.041516 C120.730796,121.398457 119.497122,119.884476 118.20934,118.405453 C117.516751,117.609471 116.694301,116.953323 115.871852,116.294485 C115.763635,116.208433 115.639185,116.12507 115.509325,116.079355 C115.284775,116.004059 115.15762,116.127759 115.230666,116.334822 C115.344294,116.65214 115.493092,116.964079 115.660829,117.257194 C117.457231,120.390032 118.983091,123.649259 120.265463,127.02143 C122.121385,131.899514 124.020593,136.764153 125.403066,141.800895 C126.377019,145.350549 125.944151,148.841041 124.296547,152.135227 C123.116981,154.496284 121.087912,155.988752 118.75313,157.11012 C117.124464,157.892657 115.395697,158.376701 113.634465,158.75049 C110.095769,159.500757 106.551661,160.242958 103.004849,160.969023 C99.1631447,161.756939 95.2700376,161.966691 91.355287,162 C88.4631873,162.023163 85.6143744,161.619793 82.7520343,161.310543 C80.4497173,161.063143 78.1988033,160.568343 75.9505948,160.035895 C73.9539909,159.562607 71.9546815,159.100077 69.960783,158.616033 C68.5701944,158.277203 67.2364196,157.785092 66.0406216,156.978352 C64.1982269,155.733285 63.9330952,153.463658 65.4427226,151.828666 C65.9513426,151.277394 66.5681796,150.876713 67.2472413,150.562085 C69.2681941,149.623578 71.4352399,149.271302 73.6293399,149.09113 C78.0959972,148.72003 82.5734762,148.787259 87.0482498,148.849109 C89.7861403,148.886756 92.51862,148.945917 95.2456888,148.59633 C98.1864862,148.219852 100.867563,147.184536 103.324089,145.546855 C103.467477,145.452736 103.605453,145.353238 103.738019,145.248362 C106.061979,143.430509 106.086328,141.367945 104.998747,139.21664 C104.314275,137.861318 103.326794,136.715748 102.339314,135.580935 C100.310245,133.24408 98.300114,130.888401 96.0302621,128.769365" id="Fill-164"></path>
        </g>
    </g>
</svg>